<svg width="31" height="32" viewBox="0 0 31 32" fill="none" xmlns="http://www.w3.org/2000/svg">
<ellipse cx="15.4948" cy="16.8421" rx="15.1579" ry="15.1579" fill="#773DCB"/>
<circle cx="14.6672" cy="16.3676" r="13.8168" fill="white"/>
<path d="M28.2413 7.33968L28.3688 7.31383C28.5371 7.27972 28.5371 7.03921 28.3688 7.00509L28.2413 6.97924C27.9201 6.91412 27.669 6.66306 27.6039 6.34184L27.5781 6.21434C27.5439 6.04607 27.3034 6.04607 27.2693 6.21434L27.2435 6.34184C27.1783 6.66306 26.9273 6.91412 26.6061 6.97924L26.4786 7.00509C26.3103 7.03921 26.3103 7.27972 26.4786 7.31383L26.6061 7.33968C26.9273 7.40481 27.1783 7.65586 27.2435 7.97708L27.2693 8.10458C27.3034 8.27286 27.5439 8.27286 27.5781 8.10458L27.6039 7.97708C27.669 7.65586 27.9201 7.40481 28.2413 7.33968Z" fill="#F9D366"/>
<path d="M21.3304 0.724826C21.2453 0.724826 21.1764 0.655894 21.1764 0.570861V0.153965C21.1764 0.0689316 21.2453 0 21.3304 0C21.4154 0 21.4843 0.0689316 21.4843 0.153965V0.570861C21.4843 0.655894 21.4154 0.724826 21.3304 0.724826Z" fill="#DD8833"/>
<path d="M21.3304 1.84714C21.2453 1.84714 21.1764 1.77821 21.1764 1.69318V1.27628C21.1764 1.19125 21.2453 1.12231 21.3304 1.12231C21.4154 1.12231 21.4843 1.19125 21.4843 1.27628V1.69318C21.4843 1.77823 21.4154 1.84714 21.3304 1.84714Z" fill="#DD8833"/>
<path d="M22.0998 1.07752H21.6829C21.5979 1.07752 21.5289 1.00859 21.5289 0.923557C21.5289 0.838524 21.5979 0.769592 21.6829 0.769592H22.0998C22.1848 0.769592 22.2538 0.838524 22.2538 0.923557C22.2538 1.00859 22.1848 1.07752 22.0998 1.07752Z" fill="#DD8833"/>
<path d="M20.9775 1.07752H20.5606C20.4755 1.07752 20.4066 1.00859 20.4066 0.923557C20.4066 0.838524 20.4755 0.769592 20.5606 0.769592H20.9775C21.0625 0.769592 21.1314 0.838524 21.1314 0.923557C21.1314 1.00859 21.0625 1.07752 20.9775 1.07752Z" fill="#DD8833"/>
<path d="M0.923679 6.67667C0.838646 6.67667 0.769714 6.60774 0.769714 6.5227V6.10581C0.769714 6.02077 0.838646 5.95184 0.923679 5.95184C1.00871 5.95184 1.07764 6.02077 1.07764 6.10581V6.5227C1.07764 6.60774 1.00871 6.67667 0.923679 6.67667Z" fill="#DD8833"/>
<path d="M0.923679 7.79904C0.838646 7.79904 0.769714 7.73011 0.769714 7.64508V7.22818C0.769714 7.14315 0.838646 7.07422 0.923679 7.07422C1.00871 7.07422 1.07764 7.14315 1.07764 7.22818V7.64508C1.07764 7.73011 1.00871 7.79904 0.923679 7.79904Z" fill="#DD8833"/>
<path d="M1.6933 7.02936H1.2764C1.19137 7.02936 1.12244 6.96043 1.12244 6.8754C1.12244 6.79037 1.19137 6.72144 1.2764 6.72144H1.6933C1.77833 6.72144 1.84726 6.79037 1.84726 6.8754C1.84726 6.96043 1.77833 7.02936 1.6933 7.02936Z" fill="#DD8833"/>
<path d="M0.570861 7.02936H0.153965C0.0689314 7.02936 0 6.96043 0 6.8754C0 6.79037 0.0689314 6.72144 0.153965 6.72144H0.570861C0.655894 6.72144 0.724826 6.79037 0.724826 6.8754C0.724826 6.96043 0.655894 7.02936 0.570861 7.02936Z" fill="#DD8833"/>
<path d="M7.30063 1.57511C7.2156 1.57511 7.14667 1.50618 7.14667 1.42114V1.00425C7.14667 0.919212 7.2156 0.850281 7.30063 0.850281C7.38567 0.850281 7.4546 0.919212 7.4546 1.00425V1.42114C7.4546 1.50616 7.38569 1.57511 7.30063 1.57511Z" fill="#DD8833"/>
<path d="M7.30063 2.69752C7.2156 2.69752 7.14667 2.62859 7.14667 2.54356V2.12668C7.14667 2.04165 7.2156 1.97272 7.30063 1.97272C7.38567 1.97272 7.4546 2.04165 7.4546 2.12668V2.54358C7.4546 2.62859 7.38569 2.69752 7.30063 2.69752Z" fill="#DD8833"/>
<path d="M8.07007 1.9278H7.65317C7.56814 1.9278 7.49921 1.85887 7.49921 1.77384C7.49921 1.6888 7.56814 1.61987 7.65317 1.61987H8.07007C8.1551 1.61987 8.22403 1.6888 8.22403 1.77384C8.22403 1.85887 8.1551 1.9278 8.07007 1.9278Z" fill="#DD8833"/>
<path d="M6.94781 1.9278H6.53092C6.44588 1.9278 6.37695 1.85887 6.37695 1.77384C6.37695 1.6888 6.44588 1.61987 6.53092 1.61987H6.94781C7.03285 1.61987 7.10178 1.6888 7.10178 1.77384C7.10178 1.85887 7.03285 1.9278 6.94781 1.9278Z" fill="#DD8833"/>
<path d="M26.9466 2.79593L27.5569 2.67219C27.845 2.61376 27.845 2.20199 27.5569 2.14356L26.9466 2.01983C26.3451 1.89788 25.8751 1.42784 25.7531 0.826409L25.6294 0.216091C25.571 -0.0720302 25.1592 -0.0720302 25.1008 0.216091L24.977 0.826409C24.8551 1.42784 24.3851 1.89788 23.7836 2.01983L23.1733 2.14356C22.8852 2.20199 22.8852 2.61376 23.1733 2.67219L23.7836 2.79593C24.3851 2.91787 24.8551 3.38791 24.977 3.98934L25.1008 4.59966C25.1592 4.88778 25.571 4.88778 25.6294 4.59966L25.7531 3.98934C25.8751 3.38791 26.3451 2.91789 26.9466 2.79593Z" fill="#F9D366"/>
<path d="M5.18934 4.27291L5.65805 4.17787C5.87933 4.13301 5.87933 3.81675 5.65805 3.77189L5.18934 3.67686C4.72745 3.58319 4.36647 3.22224 4.27283 2.76034L4.17779 2.29163C4.13293 2.07035 3.81667 2.07035 3.77183 2.29163L3.6768 2.76034C3.58313 3.22224 3.22218 3.58321 2.76028 3.67686L2.29157 3.77189C2.07029 3.81675 2.07029 4.13301 2.29157 4.17787L2.76028 4.27291C3.22218 4.36657 3.58315 4.72753 3.6768 5.18942L3.77183 5.65813C3.81669 5.87941 4.13295 5.87941 4.17779 5.65813L4.27283 5.18942C4.36649 4.72755 4.72749 4.36655 5.18934 4.27291Z" fill="#F9D366"/>
<g clip-path="url(#clip0_3481_14)">
<path d="M22.0936 8.08423C22.0037 8.1592 21.9138 8.23363 21.8239 8.30752C17.4906 11.8517 12.1513 13.9413 6.56347 14.2799L6.45264 14.2867L9.41902 17.253L10.7674 13.7473L14.0034 16.1744L15.0821 12.399L18.5878 14.826L18.8575 10.5113L22.0936 12.1293V8.08423Z" fill="#93CAE2"/>
<path d="M6.448 16.7137C6.54427 16.7736 6.64081 16.8331 6.73789 16.8917C11.3344 19.6973 16.7181 20.9333 22.0781 20.4136L22.1836 20.4031L19.9361 23.7251L18.0484 20.4891L15.3517 23.4555L14.0034 19.9497L10.7673 22.6464L9.95831 18.6014L6.99192 20.7588L6.44827 16.7137" fill="#FBCC34"/>
<path d="M20.2058 17.5227C20.5037 17.5227 20.7451 17.2812 20.7451 16.9834C20.7451 16.6855 20.5037 16.444 20.2058 16.444C19.9079 16.444 19.6664 16.6855 19.6664 16.9834C19.6664 17.2812 19.9079 17.5227 20.2058 17.5227Z" fill="#FBCC34"/>
<path d="M7.80094 23.1858C8.09881 23.1858 8.34028 22.9443 8.34028 22.6465C8.34028 22.3486 8.09881 22.1071 7.80094 22.1071C7.50307 22.1071 7.2616 22.3486 7.2616 22.6465C7.2616 22.9443 7.50307 23.1858 7.80094 23.1858Z" fill="#06AAE9"/>
<path d="M9.95835 10.5112C10.2562 10.5112 10.4977 10.2698 10.4977 9.9719C10.4977 9.67403 10.2562 9.43256 9.95835 9.43256C9.66048 9.43256 9.41901 9.67403 9.41901 9.9719C9.41901 10.2698 9.66048 10.5112 9.95835 10.5112Z" fill="#ED1C24"/>
<path d="M6.53162 10.7019L6.913 10.3206L7.45227 10.8598L7.07089 11.2412L6.53162 10.7019Z" fill="#FBCC34"/>
<path d="M17.2394 8.89325H17.7788V9.70226H17.2394V8.89325Z" fill="#FF1D25"/>
<path d="M13.5431 8.70254L14.0824 8.16327L14.4637 8.54465L13.9245 9.08393L13.5431 8.70254Z" fill="#06AAE9"/>
<path d="M11.1161 12.2081L11.6554 11.6688L12.0368 12.0502L11.4975 12.5895L11.1161 12.2081Z" fill="#7AC943"/>
<path d="M20.5547 13.1291L20.9361 12.7477L21.4753 13.287L21.094 13.6683L20.5547 13.1291Z" fill="#7AC943"/>
<path d="M15.8911 15.3654H16.4305V16.1744H15.8911V15.3654Z" fill="#FF1D25"/>
<path d="M17.3188 18.68L17.8581 18.1407L18.2394 18.5221L17.7002 19.0614L17.3188 18.68Z" fill="#7AC943"/>
<path d="M11.1161 17.174L11.4975 16.7926L12.0368 17.3319L11.6554 17.7133L11.1161 17.174Z" fill="#06AAE9"/>
<path d="M12.9247 22.3768H13.4641V23.1858H12.9247V22.3768Z" fill="#7AC943"/>
<path d="M8.68768 20.9495L9.06907 20.5681L9.60834 21.1074L9.22696 21.4888L8.68768 20.9495Z" fill="#06AAE9"/>
<path d="M8.95764 23.5345L9.49692 22.9952L9.8783 23.3766L9.33902 23.9158L8.95764 23.5345Z" fill="#FF1D25"/>
<path d="M17.3186 23.2646L17.8579 22.7253L18.2393 23.1067L17.7 23.646L17.3186 23.2646Z" fill="#06AAE9"/>
</g>
<defs>
<clipPath id="clip0_3481_14">
<rect width="15.8316" height="15.8316" fill="white" transform="translate(6.40002 8.08423)"/>
</clipPath>
</defs>
</svg>
