<svg width="30" height="32" viewBox="0 0 30 32" fill="none" xmlns="http://www.w3.org/2000/svg">
<ellipse cx="14.757" cy="17.5639" rx="14.4361" ry="14.4361" fill="#773DCB"/>
<ellipse cx="13.9048" cy="16.9524" rx="13.1429" ry="13.1429" fill="white"/>
<path d="M25.3063 5.81503L25.4205 5.79186C25.5713 5.76129 25.5713 5.54578 25.4205 5.5152L25.3063 5.49204C25.0185 5.43369 24.7935 5.20872 24.7351 4.92088L24.712 4.80663C24.6814 4.65585 24.4659 4.65585 24.4353 4.80663L24.4121 4.92088C24.3538 5.20872 24.1288 5.43369 23.841 5.49204L23.7267 5.5152C23.576 5.54578 23.576 5.76129 23.7267 5.79186L23.841 5.81503C24.1288 5.87338 24.3538 6.09835 24.4121 6.38619L24.4353 6.50044C24.4659 6.65122 24.6814 6.65122 24.712 6.50044L24.7351 6.38619C24.7935 6.09835 25.0185 5.87338 25.3063 5.81503Z" fill="#F9D366"/>
<path d="M19.1134 0.649501C19.0372 0.649501 18.9755 0.587733 18.9755 0.511536V0.137965C18.9755 0.0617681 19.0372 0 19.1134 0C19.1896 0 19.2514 0.0617681 19.2514 0.137965V0.511536C19.2514 0.587733 19.1896 0.649501 19.1134 0.649501Z" fill="#DD8833"/>
<path d="M19.1134 1.65518C19.0372 1.65518 18.9755 1.59341 18.9755 1.51721V1.14364C18.9755 1.06744 19.0372 1.00568 19.1134 1.00568C19.1896 1.00568 19.2514 1.06744 19.2514 1.14364V1.51721C19.2514 1.59343 19.1896 1.65518 19.1134 1.65518Z" fill="#DD8833"/>
<path d="M19.803 0.965565H19.4295C19.3533 0.965565 19.2915 0.903797 19.2915 0.827601C19.2915 0.751404 19.3533 0.689636 19.4295 0.689636H19.803C19.8792 0.689636 19.941 0.751404 19.941 0.827601C19.941 0.903797 19.8792 0.965565 19.803 0.965565Z" fill="#DD8833"/>
<path d="M18.7973 0.965565H18.4237C18.3475 0.965565 18.2857 0.903797 18.2857 0.827601C18.2857 0.751404 18.3475 0.689636 18.4237 0.689636H18.7973C18.8735 0.689636 18.9352 0.751404 18.9352 0.827601C18.9352 0.903797 18.8735 0.965565 18.7973 0.965565Z" fill="#DD8833"/>
<path d="M0.827738 5.98281C0.751541 5.98281 0.689774 5.92105 0.689774 5.84485V5.47128C0.689774 5.39508 0.751541 5.33331 0.827738 5.33331C0.903934 5.33331 0.965702 5.39508 0.965702 5.47128V5.84485C0.965702 5.92105 0.903934 5.98281 0.827738 5.98281Z" fill="#DD8833"/>
<path d="M0.827738 6.98855C0.751541 6.98855 0.689774 6.92678 0.689774 6.85059V6.47701C0.689774 6.40082 0.751541 6.33905 0.827738 6.33905C0.903934 6.33905 0.965702 6.40082 0.965702 6.47701V6.85059C0.965702 6.92678 0.903934 6.98855 0.827738 6.98855Z" fill="#DD8833"/>
<path d="M1.51729 6.29888H1.14372C1.06752 6.29888 1.00575 6.23711 1.00575 6.16091C1.00575 6.08472 1.06752 6.02295 1.14372 6.02295H1.51729C1.59349 6.02295 1.65525 6.08472 1.65525 6.16091C1.65525 6.23711 1.59349 6.29888 1.51729 6.29888Z" fill="#DD8833"/>
<path d="M0.511536 6.29888H0.137964C0.0617679 6.29888 0 6.23711 0 6.16091C0 6.08472 0.0617679 6.02295 0.137964 6.02295H0.511536C0.587733 6.02295 0.6495 6.08472 0.6495 6.16091C0.6495 6.23711 0.587733 6.29888 0.511536 6.29888Z" fill="#DD8833"/>
<path d="M6.542 1.4114C6.46581 1.4114 6.40404 1.34963 6.40404 1.27344V0.899866C6.40404 0.82367 6.46581 0.761902 6.542 0.761902C6.6182 0.761902 6.67997 0.82367 6.67997 0.899866V1.27344C6.67997 1.34962 6.61822 1.4114 6.542 1.4114Z" fill="#DD8833"/>
<path d="M6.542 2.41718C6.46581 2.41718 6.40404 2.35541 6.40404 2.27922V1.90566C6.40404 1.82947 6.46581 1.7677 6.542 1.7677C6.6182 1.7677 6.67997 1.82947 6.67997 1.90566V2.27924C6.67997 2.35541 6.61822 2.41718 6.542 2.41718Z" fill="#DD8833"/>
<path d="M7.23143 1.72747H6.85786C6.78166 1.72747 6.71989 1.6657 6.71989 1.5895C6.71989 1.51331 6.78166 1.45154 6.85786 1.45154H7.23143C7.30763 1.45154 7.3694 1.51331 7.3694 1.5895C7.3694 1.6657 7.30763 1.72747 7.23143 1.72747Z" fill="#DD8833"/>
<path d="M6.22589 1.72747H5.85232C5.77612 1.72747 5.71436 1.6657 5.71436 1.5895C5.71436 1.51331 5.77612 1.45154 5.85232 1.45154H6.22589C6.30209 1.45154 6.36386 1.51331 6.36386 1.5895C6.36386 1.6657 6.30209 1.72747 6.22589 1.72747Z" fill="#DD8833"/>
<path d="M24.1462 2.50537L24.6931 2.39449C24.9513 2.34214 24.9513 1.97315 24.6931 1.9208L24.1462 1.80992C23.6073 1.70065 23.1861 1.27946 23.0768 0.740527L22.9659 0.193634C22.9136 -0.0645447 22.5446 -0.0645447 22.4923 0.193634L22.3814 0.740527C22.2721 1.27946 21.8509 1.70065 21.312 1.80992L20.7651 1.9208C20.5069 1.97315 20.5069 2.34214 20.7651 2.39449L21.312 2.50537C21.8509 2.61464 22.2721 3.03583 22.3814 3.57476L22.4923 4.12165C22.5446 4.37983 22.9136 4.37983 22.9659 4.12165L23.0768 3.57476C23.1861 3.03583 23.6073 2.61465 24.1462 2.50537Z" fill="#F9D366"/>
<path d="M4.65011 3.82888L5.07011 3.74372C5.2684 3.70352 5.2684 3.42013 5.07011 3.37993L4.65011 3.29477C4.23622 3.21084 3.91275 2.88739 3.82884 2.4735L3.74368 2.0535C3.70349 1.85521 3.42009 1.85521 3.37991 2.0535L3.29475 2.4735C3.21082 2.88739 2.88738 3.21086 2.47348 3.29477L2.05348 3.37993C1.8552 3.42013 1.8552 3.70352 2.05348 3.74372L2.47348 3.82888C2.88738 3.9128 3.21084 4.23625 3.29475 4.65014L3.37991 5.07014C3.42011 5.26843 3.7035 5.26843 3.74368 5.07014L3.82884 4.65014C3.91277 4.23627 4.23625 3.91279 4.65011 3.82888Z" fill="#F9D366"/>
<path d="M21.1234 22.5934V23.5122C21.123 23.6339 21.0745 23.7505 20.9884 23.8366C20.9024 23.9227 20.7857 23.9712 20.664 23.9716H7.34227C7.22055 23.9712 7.10392 23.9227 7.01785 23.8366C6.93178 23.7505 6.88327 23.6339 6.8829 23.5122V22.5934H12.625V23.2825H15.3813V22.5934H21.1234Z" fill="#D6E5EE"/>
<path d="M20.664 23.5122H7.34227C7.22055 23.5118 7.10392 23.4633 7.01785 23.3772C6.93178 23.2911 6.88327 23.1745 6.8829 23.0528V23.5122C6.88327 23.6339 6.93178 23.7505 7.01785 23.8366C7.10392 23.9227 7.22055 23.9712 7.34227 23.9715H20.664C20.7857 23.9712 20.9024 23.9227 20.9884 23.8366C21.0745 23.7505 21.123 23.6339 21.1234 23.5122V23.0528C21.123 23.1745 21.0745 23.2911 20.9884 23.3772C20.9024 23.4633 20.7857 23.5118 20.664 23.5122Z" fill="#A5C2DA"/>
<path d="M20.664 13.406V22.5934H7.34229V13.406H20.664ZM19.7453 21.6747V14.3247H8.26103V21.6747H19.7453Z" fill="#F7FCFF"/>
<path d="M8.26109 14.3247H19.7453V21.6746H8.26109V14.3247Z" fill="#23D1D0"/>
<path d="M19.0563 14.3247H19.7453V21.6746H19.0563V14.3247Z" fill="#309BC0"/>
<path d="M8.26109 14.3247H8.95015V21.6746H8.26109V14.3247Z" fill="#309BC0"/>
<path d="M12.625 22.5934H15.3812V23.2825H12.625V22.5934Z" fill="#A5C2DA"/>
<path d="M19.7452 21.6746H16.0703L17.9077 19.8372L19.7452 21.6746Z" fill="#FA984C"/>
<path d="M18.1375 19.6075L17.9078 19.8372L16.0703 21.6747L14.9219 20.5263L15.1516 20.2966L16.7594 18.6888L16.9891 18.4591L18.1375 19.6075Z" fill="#FEC076"/>
<path d="M13.314 18.4591H11.4766L9.40939 16.3919L9.63908 16.1622L10.3281 16.8513L11.0172 17.5403H11.7062C11.7071 17.6619 11.7558 17.7782 11.8418 17.8642C11.9277 17.9501 12.0441 17.9988 12.1656 17.9997H13.7734C13.7725 18.1213 13.7238 18.2376 13.6379 18.3235C13.5519 18.4095 13.4356 18.4582 13.314 18.4591Z" fill="#FAA68E"/>
<path d="M13.7734 17.9997H12.1656C12.044 17.9988 11.9277 17.9501 11.8418 17.8642C11.7558 17.7782 11.7071 17.6619 11.7062 17.5403C11.7066 17.4186 11.7551 17.302 11.8412 17.2159C11.9272 17.1298 12.0439 17.0813 12.1656 17.081H15.1515L15.6109 17.5403L16.7593 18.6888L15.1515 20.2966L14.4624 19.6075L11.2468 19.1481L8.95 16.8513L9.40937 16.3919L11.4765 18.4591H13.314C13.4356 18.4582 13.5519 18.4095 13.6378 18.3235C13.7238 18.2376 13.7725 18.1213 13.7734 17.9997Z" fill="#FFCDBE"/>
<path d="M18.1375 11.1091V12.4872H17.6781H15.1516V11.1091H17.2188H18.1375Z" fill="#FC8FAE"/>
<path d="M17.6782 15.4732V17.5404H15.611L15.1516 17.081H14.6922V15.4732H17.6782Z" fill="#FC7091"/>
<path d="M14.6922 14.5544H17.6782V15.4732H14.6922V14.5544Z" fill="#A5C2DA"/>
<path d="M17.6782 12.4872V14.5544H14.6922V12.4872H15.1516H17.6782Z" fill="#FC7091"/>
<path d="M17.2188 9.96075L16.7594 10.4201C16.8884 10.4863 16.9983 10.5843 17.0787 10.7049C17.1591 10.8255 17.2073 10.9647 17.2188 11.1092H14.6922V10.4201C15.1992 9.97237 15.8534 9.72707 16.5297 9.73107C16.5297 9.73107 17.2188 9.73107 17.2188 9.96075Z" fill="#A5C2DA"/>
<path d="M15.1515 11.1091V12.4872H14.6922H13.314H12.8547V11.1091H13.314H14.6922H15.1515Z" fill="#F7FCFF"/>
<path d="M14.6921 15.4731V17.0809H13.314V15.4731V14.5544V12.4872H14.6921V14.5544V15.4731Z" fill="#D6E5EE"/>
<path d="M14.6921 10.4201V11.1092H13.314V10.4201C13.3127 10.3594 13.3237 10.2991 13.3464 10.2428C13.369 10.1865 13.4028 10.1353 13.4457 10.0924C13.4886 10.0495 13.5398 10.0157 13.5961 9.99308C13.6524 9.97045 13.7127 9.95945 13.7734 9.96073L14.0031 10.1904L14.2327 9.96073C14.2934 9.95945 14.3537 9.97045 14.41 9.99308C14.4664 10.0157 14.5175 10.0495 14.5604 10.0924C14.6033 10.1353 14.6371 10.1865 14.6598 10.2428C14.6824 10.2991 14.6934 10.3594 14.6921 10.4201Z" fill="#D6E5EE"/>
<path d="M13.3141 15.4732V17.081H12.1657C12.0439 17.0814 11.9273 17.1299 11.8412 17.2159C11.7552 17.302 11.7067 17.4187 11.7063 17.5404H11.0172L10.3282 16.8513V15.4732H13.3141Z" fill="#FC7091"/>
<path d="M10.3282 14.5544H13.3141V15.4732H10.3282V14.5544Z" fill="#A5C2DA"/>
<path d="M13.3141 12.4872V14.5544H10.3282V12.4872H12.8547H13.3141Z" fill="#FC7091"/>
<path d="M13.3141 10.4201V11.1092H10.7876C10.799 10.9647 10.8472 10.8255 10.9276 10.7049C11.008 10.5843 11.118 10.4863 11.2469 10.4201L10.7876 9.96075C10.7876 9.73107 11.4766 9.73107 11.4766 9.73107C12.153 9.72707 12.8071 9.97237 13.3141 10.4201Z" fill="#A5C2DA"/>
<path d="M12.8546 11.1091V12.4872H10.3281H9.86874V11.1091H10.7875H12.8546Z" fill="#FC8FAE"/>
<path d="M13.314 12.4872H14.6921V12.9466H13.314V12.4872Z" fill="#A5C2DA"/>
<path d="M14.6922 12.4872H17.6782V12.9466H14.6922V12.4872Z" fill="#E34479"/>
<path d="M10.3282 12.4872H13.3141V12.9466H10.3282V12.4872Z" fill="#E34479"/>
<path d="M12.8547 12.028H15.1515V12.4873H12.8547V12.028Z" fill="#D6E5EE"/>
<path d="M15.1516 12.028H18.1375V12.4873H15.1516V12.028Z" fill="#FC7091"/>
<path d="M9.86874 12.028H12.8546V12.4873H9.86874V12.028Z" fill="#FC7091"/>
<path d="M8.95 20.5262H9.40937V20.9856H8.95V20.5262Z" fill="#2AF2EB"/>
<path d="M9.86874 20.5262H13.0843V20.9856H9.86874V20.5262Z" fill="#2AF2EB"/>
<path d="M18.5969 15.0138H19.0563V15.4732H18.5969V15.0138Z" fill="#2AF2EB"/>
<path d="M18.5969 15.9326H19.0563V18.2294H18.5969V15.9326Z" fill="#2AF2EB"/>
<path d="M18.8266 11.1091H20.2047V11.5685H18.8266V11.1091Z" fill="#2AF2EB"/>
<path d="M18.6629 10.7181L19.5817 9.79931L19.9065 10.1241L18.9878 11.0429L18.6629 10.7181Z" fill="#2AF2EB"/>
<path d="M18.6628 11.9619L18.9876 11.6371L19.9063 12.5559L19.5815 12.8807L18.6628 11.9619Z" fill="#2AF2EB"/>
<path d="M7.80165 11.1091H9.17976V11.5685H7.80165V11.1091Z" fill="#2AF2EB"/>
<path d="M8.0985 10.1235L8.42332 9.79865L9.34208 10.7174L9.01726 11.0422L8.0985 10.1235Z" fill="#2AF2EB"/>
<path d="M8.09821 12.5544L9.01697 11.6357L9.34179 11.9605L8.42303 12.8793L8.09821 12.5544Z" fill="#2AF2EB"/>
</svg>
