<svg width="30" height="32" viewBox="0 0 30 32" fill="none" xmlns="http://www.w3.org/2000/svg">
<circle cx="14.757" cy="17.5639" r="14.4361" fill="#773DCB"/>
<ellipse cx="13.9048" cy="16.9524" rx="13.1429" ry="13.1429" fill="white"/>
<g clip-path="url(#clip0_3481_89)">
<path fill-rule="evenodd" clip-rule="evenodd" d="M13.8117 14.9034C13.4299 14.2421 14.6237 12.8389 16.4778 11.7681C18.3311 10.6982 20.1438 10.3658 20.5255 11.0271C20.7367 11.3933 20.9479 11.7595 21.16 12.1265C21.5418 12.787 20.348 14.1902 18.4939 15.2609C16.6397 16.3308 14.8279 16.6633 14.4462 16.0028C14.235 15.6358 14.0229 15.2696 13.8117 14.9034Z" fill="#FE9923"/>
<path fill-rule="evenodd" clip-rule="evenodd" d="M16.4778 11.7681C18.3311 10.6982 20.1438 10.3658 20.5255 11.0271C20.9073 11.6876 19.7135 13.0908 17.8594 14.1616C16.0052 15.2324 14.1935 15.5639 13.8117 14.9034C13.4299 14.2421 14.6237 12.8389 16.4778 11.7681Z" fill="#FECD3D"/>
<path fill-rule="evenodd" clip-rule="evenodd" d="M16.8007 12.3273C18.2757 11.4764 19.6357 11.0713 19.8391 11.4227C20.0425 11.775 19.0116 12.7506 17.5365 13.6024C16.0615 14.4542 14.7007 14.8593 14.4981 14.5069C14.2947 14.1547 15.3257 13.1791 16.8007 12.3273Z" fill="#FEA832"/>
<path d="M20.387 12.8831L20.7246 13.4682C20.8051 13.3695 20.8778 13.2726 20.9401 13.1774L20.6735 12.7169L20.387 12.8831ZM20.0979 14.1157C20.0165 14.1884 19.9308 14.262 19.8425 14.3347L19.5205 13.7764L19.807 13.6119L20.0979 14.1157ZM19.1422 14.855C19.0522 14.9164 18.9596 14.977 18.8652 15.0368L18.5579 14.5044L18.8444 14.34L19.1422 14.855ZM18.1147 15.4696C18.0152 15.5224 17.9165 15.5717 17.8187 15.6202L17.52 15.1043L17.8074 14.9381L18.1147 15.4696ZM17.018 15.9656C16.9098 16.0063 16.8041 16.0435 16.7003 16.0772L16.4085 15.5735L16.6959 15.4081L17.018 15.9656ZM15.826 16.2962C15.7005 16.317 15.5801 16.3309 15.4667 16.3378L15.201 15.8773L15.4884 15.7111L15.826 16.2962Z" fill="#C85929"/>
<path fill-rule="evenodd" clip-rule="evenodd" d="M13.5295 17.773C13.9112 17.1125 12.7175 15.7085 10.8634 14.6386C9.01008 13.5678 7.19743 13.2362 6.8157 13.8967C6.60448 14.2629 6.39329 14.6299 6.18121 14.9961C5.79945 15.6565 6.99317 17.0606 8.84734 18.1305C10.7015 19.2013 12.5133 19.5328 12.895 18.8723C13.1071 18.5062 13.3183 18.1392 13.5295 17.773Z" fill="#FE9923"/>
<path fill-rule="evenodd" clip-rule="evenodd" d="M10.8634 14.6386C9.01005 13.5678 7.1974 13.2362 6.81568 13.8967C6.43481 14.5581 7.62851 15.9612 9.48181 17.0312C11.336 18.1019 13.1486 18.4335 13.5295 17.773C13.9112 17.1125 12.7175 15.7085 10.8634 14.6386Z" fill="#FECD3D"/>
<path fill-rule="evenodd" clip-rule="evenodd" d="M10.5405 15.1977C9.0663 14.3459 7.70553 13.9408 7.5021 14.2931C7.29868 14.6446 8.32963 15.621 9.80466 16.4719C11.2797 17.3237 12.6405 17.7288 12.8439 17.3765C13.0465 17.0251 12.0155 16.0495 10.5405 15.1977Z" fill="#FEA832"/>
<path d="M6.95418 15.7526L6.61659 16.3378C6.53608 16.2391 6.46424 16.1422 6.40192 16.0478L6.66766 15.5864L6.95418 15.7526ZM7.24329 16.9853C7.32465 17.058 7.41034 17.1316 7.49864 17.2043L7.82064 16.6468L7.53412 16.4815L7.24329 16.9853ZM8.19894 17.7254C8.28897 17.786 8.38159 17.8466 8.4768 17.9063L8.78409 17.374L8.49671 17.2095L8.19894 17.7254ZM9.22644 18.34C9.326 18.3919 9.42469 18.4421 9.52338 18.4898L9.82114 17.9738L9.53376 17.8076L9.22644 18.34ZM10.3241 18.8351C10.4314 18.8758 10.537 18.9131 10.6417 18.9468L10.9326 18.443L10.6452 18.2786L10.3241 18.8351ZM11.5152 19.1667C11.6416 19.1866 11.761 19.2004 11.8744 19.2073L12.1401 18.7468L11.8536 18.5807L11.5152 19.1667Z" fill="#C85929"/>
<path fill-rule="evenodd" clip-rule="evenodd" d="M13.262 21.3974C12.8811 20.7369 14.074 19.3337 15.9281 18.2629C17.7823 17.193 19.5941 16.8606 19.9758 17.5211C20.1879 17.8881 20.3991 18.2543 20.6103 18.6204C20.9921 19.2818 19.7984 20.685 17.945 21.7557C16.0909 22.8256 14.2782 23.1581 13.8965 22.4967C13.6853 22.1306 13.4741 21.7644 13.262 21.3974Z" fill="#FE9923"/>
<path fill-rule="evenodd" clip-rule="evenodd" d="M15.9281 18.2629C17.7823 17.193 19.5941 16.8606 19.9758 17.5211C20.3576 18.1824 19.1639 19.5856 17.3097 20.6564C15.4564 21.7263 13.6438 22.0587 13.262 21.3974C12.8811 20.7369 14.074 19.3337 15.9281 18.2629Z" fill="#FECD3D"/>
<path fill-rule="evenodd" clip-rule="evenodd" d="M16.251 18.8221C17.7261 17.9703 19.0868 17.5661 19.2894 17.9175C19.4928 18.2698 18.4619 19.2454 16.9868 20.0972C15.5118 20.9481 14.1519 21.3532 13.9484 21.0018C13.7451 20.6494 14.776 19.6739 16.251 18.8221Z" fill="#FEA832"/>
<path d="M19.8373 19.3779L20.1758 19.963C20.2563 19.8643 20.3281 19.7666 20.3904 19.6722L20.1247 19.2117L19.8373 19.3779ZM19.549 20.6096C19.4668 20.6832 19.382 20.7559 19.2928 20.8287L18.9708 20.2712L19.2582 20.1067L19.549 20.6096ZM18.5934 21.3498C18.5025 21.4112 18.4099 21.4718 18.3155 21.5316L18.0082 20.9992L18.2956 20.8339L18.5934 21.3498ZM17.565 21.9643C17.4663 22.0163 17.3668 22.0665 17.269 22.1141L16.9712 21.5982L17.2577 21.432L17.565 21.9643ZM16.4683 22.4604C16.3609 22.5002 16.2545 22.5374 16.1506 22.572L15.8597 22.0674L16.1462 21.9029L16.4683 22.4604ZM15.2772 22.791C15.1508 22.8118 15.0304 22.8248 14.9179 22.8317L14.6522 22.3712L14.9387 22.205L15.2772 22.791Z" fill="#C85929"/>
<path d="M12.5185 12.2382V12.7307H13.011V13.1583H12.5185V13.6517H12.0908V13.1583H11.5974V12.7307H12.0908V12.2382H12.5185Z" fill="#FEA832"/>
<path d="M10.9949 20.1387V20.6313H11.4883V21.0589H10.9949V21.5523H10.5673V21.0589H10.0748V20.6313H10.5673V20.1387H10.9949Z" fill="#FEA832"/>
<path d="M20.825 15.3077V15.8002H21.3184V16.2279H20.825V16.7212H20.3974V16.2279H19.9048V15.8002H20.3974V15.3077H20.825Z" fill="#FEA832"/>
</g>
<path d="M25.3063 5.81502L25.4205 5.79186C25.5713 5.76129 25.5713 5.54578 25.4205 5.5152L25.3063 5.49204C25.0185 5.43369 24.7935 5.20872 24.7351 4.92088L24.712 4.80663C24.6814 4.65585 24.4659 4.65585 24.4353 4.80663L24.4121 4.92088C24.3538 5.20872 24.1288 5.43369 23.841 5.49204L23.7267 5.5152C23.576 5.54578 23.576 5.76129 23.7267 5.79186L23.841 5.81502C24.1288 5.87338 24.3538 6.09835 24.4121 6.38619L24.4353 6.50044C24.4659 6.65122 24.6814 6.65122 24.712 6.50044L24.7351 6.38619C24.7935 6.09835 25.0185 5.87338 25.3063 5.81502Z" fill="#F9D366"/>
<path d="M19.1136 0.6495C19.0374 0.6495 18.9756 0.587732 18.9756 0.511536V0.137965C18.9756 0.0617681 19.0374 0 19.1136 0C19.1898 0 19.2516 0.0617681 19.2516 0.137965V0.511536C19.2516 0.587732 19.1898 0.6495 19.1136 0.6495Z" fill="#DD8833"/>
<path d="M19.1136 1.65518C19.0374 1.65518 18.9756 1.59341 18.9756 1.51721V1.14364C18.9756 1.06744 19.0374 1.00568 19.1136 1.00568C19.1898 1.00568 19.2516 1.06744 19.2516 1.14364V1.51721C19.2516 1.59343 19.1898 1.65518 19.1136 1.65518Z" fill="#DD8833"/>
<path d="M19.8032 0.965565H19.4297C19.3535 0.965565 19.2917 0.903797 19.2917 0.827601C19.2917 0.751404 19.3535 0.689636 19.4297 0.689636H19.8032C19.8794 0.689636 19.9412 0.751404 19.9412 0.827601C19.9412 0.903797 19.8794 0.965565 19.8032 0.965565Z" fill="#DD8833"/>
<path d="M18.7975 0.965565H18.4239C18.3477 0.965565 18.2859 0.903797 18.2859 0.827601C18.2859 0.751404 18.3477 0.689636 18.4239 0.689636H18.7975C18.8737 0.689636 18.9355 0.751404 18.9355 0.827601C18.9355 0.903797 18.8737 0.965565 18.7975 0.965565Z" fill="#DD8833"/>
<path d="M0.827723 5.98281C0.751526 5.98281 0.689758 5.92105 0.689758 5.84485V5.47128C0.689758 5.39508 0.751526 5.33331 0.827723 5.33331C0.903919 5.33331 0.965687 5.39508 0.965687 5.47128V5.84485C0.965687 5.92105 0.903919 5.98281 0.827723 5.98281Z" fill="#DD8833"/>
<path d="M0.827723 6.98855C0.751526 6.98855 0.689758 6.92678 0.689758 6.85059V6.47701C0.689758 6.40082 0.751526 6.33905 0.827723 6.33905C0.903919 6.33905 0.965687 6.40082 0.965687 6.47701V6.85059C0.965687 6.92678 0.903919 6.98855 0.827723 6.98855Z" fill="#DD8833"/>
<path d="M1.51727 6.29888H1.1437C1.06751 6.29888 1.00574 6.23711 1.00574 6.16091C1.00574 6.08472 1.06751 6.02295 1.1437 6.02295H1.51727C1.59347 6.02295 1.65524 6.08472 1.65524 6.16091C1.65524 6.23711 1.59347 6.29888 1.51727 6.29888Z" fill="#DD8833"/>
<path d="M0.511536 6.29888H0.137964C0.0617679 6.29888 0 6.23711 0 6.16091C0 6.08472 0.0617679 6.02295 0.137964 6.02295H0.511536C0.587732 6.02295 0.6495 6.08472 0.6495 6.16091C0.6495 6.23711 0.587732 6.29888 0.511536 6.29888Z" fill="#DD8833"/>
<path d="M6.54183 1.4114C6.46564 1.4114 6.40387 1.34963 6.40387 1.27344V0.899866C6.40387 0.82367 6.46564 0.761902 6.54183 0.761902C6.61803 0.761902 6.6798 0.82367 6.6798 0.899866V1.27344C6.6798 1.34962 6.61805 1.4114 6.54183 1.4114Z" fill="#DD8833"/>
<path d="M6.54183 2.41712C6.46564 2.41712 6.40387 2.35535 6.40387 2.27916V1.9056C6.40387 1.82941 6.46564 1.76764 6.54183 1.76764C6.61803 1.76764 6.6798 1.82941 6.6798 1.9056V2.27918C6.6798 2.35535 6.61805 2.41712 6.54183 2.41712Z" fill="#DD8833"/>
<path d="M7.23126 1.72747H6.85769C6.78149 1.72747 6.71973 1.6657 6.71973 1.5895C6.71973 1.51331 6.78149 1.45154 6.85769 1.45154H7.23126C7.30746 1.45154 7.36923 1.51331 7.36923 1.5895C7.36923 1.6657 7.30746 1.72747 7.23126 1.72747Z" fill="#DD8833"/>
<path d="M6.22571 1.72747H5.85214C5.77594 1.72747 5.71417 1.6657 5.71417 1.5895C5.71417 1.51331 5.77594 1.45154 5.85214 1.45154H6.22571C6.3019 1.45154 6.36367 1.51331 6.36367 1.5895C6.36367 1.6657 6.3019 1.72747 6.22571 1.72747Z" fill="#DD8833"/>
<path d="M24.1462 2.50537L24.6931 2.39449C24.9512 2.34213 24.9512 1.97315 24.6931 1.92079L24.1462 1.80992C23.6072 1.70065 23.186 1.27946 23.0768 0.740527L22.9659 0.193634C22.9135 -0.0645447 22.5446 -0.0645447 22.4922 0.193634L22.3813 0.740527C22.2721 1.27946 21.8509 1.70065 21.3119 1.80992L20.765 1.92079C20.5069 1.97315 20.5069 2.34213 20.765 2.39449L21.3119 2.50537C21.8509 2.61463 22.2721 3.03583 22.3813 3.57476L22.4922 4.12165C22.5446 4.37983 22.9135 4.37983 22.9659 4.12165L23.0768 3.57476C23.186 3.03583 23.6072 2.61465 24.1462 2.50537Z" fill="#F9D366"/>
<path d="M4.65013 3.82888L5.07012 3.74371C5.26841 3.70352 5.26841 3.42012 5.07012 3.37993L4.65013 3.29477C4.23623 3.21084 3.91277 2.88739 3.82886 2.4735L3.7437 2.0535C3.7035 1.85521 3.42011 1.85521 3.37993 2.0535L3.29477 2.4735C3.21084 2.88739 2.88739 3.21086 2.4735 3.29477L2.0535 3.37993C1.85521 3.42012 1.85521 3.70352 2.0535 3.74371L2.4735 3.82888C2.88739 3.9128 3.21086 4.23625 3.29477 4.65014L3.37993 5.07014C3.42012 5.26843 3.70352 5.26843 3.7437 5.07014L3.82886 4.65014C3.91279 4.23627 4.23627 3.91279 4.65013 3.82888Z" fill="#F9D366"/>
<defs>
<clipPath id="clip0_3481_89">
<rect width="15.2381" height="15.2381" fill="white" transform="translate(6.09521 9.14288)"/>
</clipPath>
</defs>
</svg>
