<svg width="31" height="32" viewBox="0 0 31 32" fill="none" xmlns="http://www.w3.org/2000/svg">
<ellipse cx="15.4948" cy="16.8421" rx="15.1579" ry="15.1579" fill="#773DCB"/>
<circle cx="14.6672" cy="16.3676" r="13.8168" fill="white"/>
<g clip-path="url(#clip0_3481_59)">
<path fill-rule="evenodd" clip-rule="evenodd" d="M8.47186 16.0595C8.54108 14.5361 9.79796 13.3222 11.3385 13.3222C12.879 13.3222 14.1358 14.5361 14.2051 16.0595H8.47186Z" fill="#60B7FF"/>
<path d="M12.6989 12.2475C12.8764 11.4963 12.4114 10.7435 11.6603 10.5659C10.9091 10.3883 10.1563 10.8533 9.97872 11.6045C9.80117 12.3556 10.2662 13.1085 11.0173 13.286C11.7684 13.4636 12.5213 12.9986 12.6989 12.2475Z" fill="#F1CBBC"/>
<path fill-rule="evenodd" clip-rule="evenodd" d="M8.47186 23.0734C8.54108 21.55 9.79796 20.3361 11.3385 20.3361C12.879 20.3361 14.1358 21.55 14.2051 23.0734H8.47186Z" fill="#FD4755"/>
<path d="M12.4709 19.7596C12.9225 19.1335 12.7811 18.2598 12.155 17.8082C11.5289 17.3566 10.6553 17.498 10.2036 18.1241C9.75203 18.7502 9.89347 19.6239 10.5196 20.0755C11.1456 20.5271 12.0193 20.3856 12.4709 19.7596Z" fill="#F1CBBC"/>
<path fill-rule="evenodd" clip-rule="evenodd" d="M21.3531 18.338C21.3531 18.4623 21.2523 18.563 21.1281 18.563H15.7548C15.6305 18.563 15.5298 18.4623 15.5298 18.338C15.5298 18.2137 15.6304 18.113 15.7548 18.113H21.1281C21.2523 18.113 21.3531 18.2137 21.3531 18.338ZM18.9193 21.6778C18.9193 21.8021 18.8187 21.9028 18.6943 21.9028H15.7548C15.6305 21.9028 15.5298 21.8021 15.5298 21.6778C15.5298 21.5537 15.6304 21.4528 15.7548 21.4528H18.6943C18.8187 21.4528 18.9193 21.5537 18.9193 21.6778ZM21.3531 20.008C21.3531 20.1323 21.2523 20.233 21.1281 20.233H15.7548C15.6305 20.233 15.5298 20.1323 15.5298 20.008C15.5298 19.8837 15.6304 19.783 15.7548 19.783H21.1281C21.2523 19.783 21.3531 19.8837 21.3531 20.008ZM8.71752 22.8484C8.89204 21.5483 10.0009 20.561 11.3383 20.561C12.6759 20.561 13.7848 21.5483 13.9592 22.8484H8.71752ZM10.1655 18.9382C10.1655 18.2916 10.6917 17.7654 11.3383 17.7654C11.9851 17.7654 12.5112 18.2916 12.5112 18.9382C12.5112 19.585 11.9851 20.111 11.3383 20.111C10.6917 20.111 10.1655 19.585 10.1655 18.9382ZM12.2822 20.2571C12.693 19.9623 12.9611 19.4811 12.9611 18.9382C12.9611 18.0434 12.2332 17.3154 11.3383 17.3154C10.4436 17.3154 9.71554 18.0434 9.71554 18.9382C9.71554 19.4811 9.98377 19.9624 10.3943 20.2571C9.19174 20.64 8.30718 21.7363 8.24707 23.0632C8.24418 23.1245 8.26671 23.1845 8.30915 23.2289C8.35159 23.2732 8.41037 23.2984 8.47179 23.2984H14.2051C14.2664 23.2984 14.3252 23.2732 14.3676 23.2289C14.4101 23.1845 14.4326 23.1245 14.4297 23.0632C14.3696 21.7363 13.4851 20.64 12.2822 20.2571ZM15.5298 14.664C15.5298 14.5397 15.6305 14.439 15.7548 14.439H18.6943C18.8188 14.439 18.9193 14.5397 18.9193 14.664C18.9193 14.7883 18.8188 14.889 18.6943 14.889H15.7548C15.6305 14.889 15.5298 14.7883 15.5298 14.664ZM21.3531 12.9942C21.3531 13.1183 21.2523 13.2192 21.1281 13.2192H15.7548C15.6305 13.2192 15.5298 13.1183 15.5298 12.9942C15.5298 12.8699 15.6304 12.7692 15.7548 12.7692H21.1281C21.2523 12.7692 21.3531 12.8699 21.3531 12.9942ZM15.5298 11.3242C15.5298 11.2 15.6305 11.0992 15.7548 11.0992H21.1281C21.2523 11.0992 21.3531 11.2 21.3531 11.3242C21.3531 11.4485 21.2523 11.5493 21.1281 11.5493H15.7548C15.6305 11.5493 15.5298 11.4485 15.5298 11.3242ZM8.71752 15.8346C8.89204 14.5344 10.0006 13.5475 11.338 13.5473H11.3383H11.3386C12.6762 13.5475 13.7848 14.5344 13.9592 15.8346H8.71752ZM10.1655 11.9244C10.1655 11.2778 10.6917 10.7516 11.3383 10.7516C11.9851 10.7516 12.5112 11.2778 12.5112 11.9244C12.5112 12.5711 11.9854 13.0971 11.3389 13.0974C11.3386 13.0974 11.3386 13.0972 11.3383 13.0972C11.3383 13.0972 11.3383 13.0974 11.338 13.0974C10.6914 13.0971 10.1655 12.5711 10.1655 11.9244ZM12.2825 13.2433C12.693 12.9486 12.9612 12.4675 12.9612 11.9244C12.9612 11.0296 12.2332 10.3016 11.3383 10.3016C10.4436 10.3016 9.71557 11.0296 9.71557 11.9244C9.71557 12.4675 9.98379 12.9486 10.3944 13.2433C9.19177 13.6262 8.30721 14.7225 8.2471 16.0494C8.24421 16.1107 8.26673 16.1706 8.30917 16.215C8.35162 16.2595 8.4104 16.2846 8.47182 16.2846H14.2051C14.2664 16.2846 14.3252 16.2595 14.3676 16.215C14.4101 16.1706 14.4326 16.1107 14.4297 16.0494C14.3696 14.7225 13.4851 13.6262 12.2825 13.2433Z" fill="black"/>
</g>
<path d="M28.2413 7.33968L28.3688 7.31383C28.5371 7.27972 28.5371 7.03921 28.3688 7.00509L28.2413 6.97924C27.9201 6.91412 27.669 6.66306 27.6039 6.34184L27.5781 6.21434C27.5439 6.04607 27.3034 6.04607 27.2693 6.21434L27.2435 6.34184C27.1783 6.66306 26.9273 6.91412 26.6061 6.97924L26.4786 7.00509C26.3103 7.03921 26.3103 7.27972 26.4786 7.31383L26.6061 7.33968C26.9273 7.40481 27.1783 7.65586 27.2435 7.97708L27.2693 8.10458C27.3034 8.27286 27.5439 8.27286 27.5781 8.10458L27.6039 7.97708C27.669 7.65586 27.9201 7.40481 28.2413 7.33968Z" fill="#F9D366"/>
<path d="M21.3304 0.724826C21.2453 0.724826 21.1764 0.655894 21.1764 0.570861V0.153965C21.1764 0.0689316 21.2453 0 21.3304 0C21.4154 0 21.4843 0.0689316 21.4843 0.153965V0.570861C21.4843 0.655894 21.4154 0.724826 21.3304 0.724826Z" fill="#DD8833"/>
<path d="M21.3304 1.84714C21.2453 1.84714 21.1764 1.77821 21.1764 1.69318V1.27628C21.1764 1.19125 21.2453 1.12231 21.3304 1.12231C21.4154 1.12231 21.4843 1.19125 21.4843 1.27628V1.69318C21.4843 1.77823 21.4154 1.84714 21.3304 1.84714Z" fill="#DD8833"/>
<path d="M22.0998 1.07752H21.6829C21.5979 1.07752 21.5289 1.00859 21.5289 0.923557C21.5289 0.838524 21.5979 0.769592 21.6829 0.769592H22.0998C22.1848 0.769592 22.2538 0.838524 22.2538 0.923557C22.2538 1.00859 22.1848 1.07752 22.0998 1.07752Z" fill="#DD8833"/>
<path d="M20.9775 1.07752H20.5606C20.4755 1.07752 20.4066 1.00859 20.4066 0.923557C20.4066 0.838524 20.4755 0.769592 20.5606 0.769592H20.9775C21.0625 0.769592 21.1314 0.838524 21.1314 0.923557C21.1314 1.00859 21.0625 1.07752 20.9775 1.07752Z" fill="#DD8833"/>
<path d="M0.923679 6.67673C0.838646 6.67673 0.769714 6.6078 0.769714 6.52277V6.10587C0.769714 6.02084 0.838646 5.9519 0.923679 5.9519C1.00871 5.9519 1.07764 6.02084 1.07764 6.10587V6.52277C1.07764 6.6078 1.00871 6.67673 0.923679 6.67673Z" fill="#DD8833"/>
<path d="M0.923679 7.79911C0.838646 7.79911 0.769714 7.73017 0.769714 7.64514V7.22824C0.769714 7.14321 0.838646 7.07428 0.923679 7.07428C1.00871 7.07428 1.07764 7.14321 1.07764 7.22824V7.64514C1.07764 7.73017 1.00871 7.79911 0.923679 7.79911Z" fill="#DD8833"/>
<path d="M1.6933 7.02949H1.2764C1.19137 7.02949 1.12244 6.96056 1.12244 6.87552C1.12244 6.79049 1.19137 6.72156 1.2764 6.72156H1.6933C1.77833 6.72156 1.84726 6.79049 1.84726 6.87552C1.84726 6.96056 1.77833 7.02949 1.6933 7.02949Z" fill="#DD8833"/>
<path d="M0.570861 7.02949H0.153965C0.0689314 7.02949 0 6.96056 0 6.87552C0 6.79049 0.0689314 6.72156 0.153965 6.72156H0.570861C0.655894 6.72156 0.724826 6.79049 0.724826 6.87552C0.724826 6.96056 0.655894 7.02949 0.570861 7.02949Z" fill="#DD8833"/>
<path d="M7.30063 1.57511C7.2156 1.57511 7.14667 1.50618 7.14667 1.42114V1.00425C7.14667 0.919212 7.2156 0.850281 7.30063 0.850281C7.38567 0.850281 7.4546 0.919212 7.4546 1.00425V1.42114C7.4546 1.50616 7.38569 1.57511 7.30063 1.57511Z" fill="#DD8833"/>
<path d="M7.30063 2.69752C7.2156 2.69752 7.14667 2.62859 7.14667 2.54356V2.12668C7.14667 2.04165 7.2156 1.97272 7.30063 1.97272C7.38567 1.97272 7.4546 2.04165 7.4546 2.12668V2.54358C7.4546 2.62859 7.38569 2.69752 7.30063 2.69752Z" fill="#DD8833"/>
<path d="M8.07007 1.9278H7.65317C7.56814 1.9278 7.49921 1.85887 7.49921 1.77384C7.49921 1.6888 7.56814 1.61987 7.65317 1.61987H8.07007C8.1551 1.61987 8.22403 1.6888 8.22403 1.77384C8.22403 1.85887 8.1551 1.9278 8.07007 1.9278Z" fill="#DD8833"/>
<path d="M6.94781 1.9278H6.53092C6.44588 1.9278 6.37695 1.85887 6.37695 1.77384C6.37695 1.6888 6.44588 1.61987 6.53092 1.61987H6.94781C7.03285 1.61987 7.10178 1.6888 7.10178 1.77384C7.10178 1.85887 7.03285 1.9278 6.94781 1.9278Z" fill="#DD8833"/>
<path d="M26.9466 2.79593L27.5569 2.67219C27.845 2.61376 27.845 2.20199 27.5569 2.14356L26.9466 2.01983C26.3451 1.89788 25.8751 1.42784 25.7531 0.826409L25.6294 0.216091C25.571 -0.0720302 25.1592 -0.0720302 25.1008 0.216091L24.977 0.826409C24.8551 1.42784 24.3851 1.89788 23.7836 2.01983L23.1733 2.14356C22.8852 2.20199 22.8852 2.61376 23.1733 2.67219L23.7836 2.79593C24.3851 2.91787 24.8551 3.38791 24.977 3.98934L25.1008 4.59966C25.1592 4.88778 25.571 4.88778 25.6294 4.59966L25.7531 3.98934C25.8751 3.38791 26.3451 2.91789 26.9466 2.79593Z" fill="#F9D366"/>
<path d="M5.18934 4.27291L5.65805 4.17787C5.87933 4.13301 5.87933 3.81675 5.65805 3.77189L5.18934 3.67686C4.72745 3.58319 4.36647 3.22224 4.27283 2.76034L4.17779 2.29163C4.13293 2.07035 3.81667 2.07035 3.77183 2.29163L3.6768 2.76034C3.58313 3.22224 3.22218 3.58321 2.76028 3.67686L2.29157 3.77189C2.07029 3.81675 2.07029 4.13301 2.29157 4.17787L2.76028 4.27291C3.22218 4.36657 3.58315 4.72753 3.6768 5.18942L3.77183 5.65813C3.81669 5.87941 4.13295 5.87941 4.17779 5.65813L4.27283 5.18942C4.36649 4.72755 4.72749 4.36655 5.18934 4.27291Z" fill="#F9D366"/>
<defs>
<clipPath id="clip0_3481_59">
<rect width="14.4" height="14.4" fill="white" transform="translate(7.59998 9.59998)"/>
</clipPath>
</defs>
</svg>
