<svg width="30" height="32" viewBox="0 0 30 32" fill="none" xmlns="http://www.w3.org/2000/svg">
<circle cx="14.757" cy="17.5639" r="14.4361" fill="#773DCB"/>
<ellipse cx="13.9048" cy="16.9524" rx="13.1429" ry="13.1429" fill="white"/>
<g clip-path="url(#clip0_3481_145)">
<path d="M20.532 11.1522H7.27604C6.51342 11.1522 5.8952 11.7704 5.8952 12.533V21.3703C5.8952 22.1329 6.51342 22.7512 7.27604 22.7512H20.532C21.2947 22.7512 21.9129 22.1329 21.9129 21.3703V12.533C21.9129 11.7704 21.2947 11.1522 20.532 11.1522Z" fill="#D94452"/>
<path d="M10.8662 11.1522H13.0755V22.7512H10.8662V11.1522Z" fill="#FFDE95"/>
<path d="M5.8952 15.5709H21.9129V17.7802H5.8952V15.5709Z" fill="#FFDE95"/>
<path d="M8.55192 15.0846L9.40804 13.5794C9.44002 13.519 9.48669 13.4675 9.54376 13.4297C9.60083 13.392 9.66646 13.3692 9.73464 13.3634C9.80282 13.3576 9.87136 13.3691 9.93396 13.3967C9.99657 13.4243 10.0512 13.4672 10.0929 13.5215L11.5179 15.4298H12.4238L13.8488 13.5215C13.8905 13.4672 13.9452 13.4243 14.0078 13.3967C14.0704 13.3691 14.1389 13.3576 14.2071 13.3634C14.2753 13.3692 14.3409 13.392 14.398 13.4297C14.455 13.4675 14.5017 13.519 14.5337 13.5794L15.3898 15.0846L15.492 18.034C15.2987 18.8123 15.1076 19.5919 14.9038 20.3676C14.8485 20.5692 14.6662 20.6051 14.5806 20.4256C14.0385 19.2638 13.1208 18.1058 11.9709 17.5065H11.9653C10.8154 18.1061 9.89768 19.2641 9.35556 20.4256C9.26995 20.6051 9.08768 20.5692 9.03245 20.3676C8.82864 19.5919 8.63864 18.8123 8.44421 18.034L8.55192 15.0846Z" fill="#F5B945"/>
<path d="M12.7994 16.8547L16.0996 18.2991C16.1627 18.3249 16.2312 18.3346 16.299 18.3274C16.3668 18.3201 16.4317 18.296 16.4879 18.2574C16.544 18.2188 16.5897 18.1667 16.6208 18.106C16.6518 18.0453 16.6672 17.9779 16.6657 17.9097V15.1646C16.6675 15.0963 16.6523 15.0287 16.6213 14.9678C16.5903 14.907 16.5446 14.8548 16.4884 14.8161C16.4321 14.7774 16.3671 14.7534 16.2992 14.7463C16.2313 14.7391 16.1626 14.7491 16.0996 14.7752L12.7994 16.2195H11.1424L7.84217 14.7752C7.77908 14.7491 7.71046 14.7391 7.64255 14.7463C7.57464 14.7534 7.5096 14.7774 7.45334 14.8161C7.39708 14.8548 7.35139 14.907 7.32042 14.9678C7.28945 15.0287 7.27419 15.0963 7.27603 15.1646V17.9097C7.27447 17.9779 7.28992 18.0453 7.32096 18.106C7.35201 18.1667 7.39768 18.2188 7.45386 18.2574C7.51004 18.296 7.57495 18.3201 7.64274 18.3274C7.71053 18.3346 7.77907 18.3249 7.84217 18.2991L11.1424 16.8547H12.7994Z" fill="#FDCD56"/>
<path d="M12.7993 16.1221C12.7993 15.6645 12.4284 15.2936 11.9708 15.2936C11.5133 15.2936 11.1423 15.6645 11.1423 16.1221V16.6744C11.1423 17.132 11.5133 17.5029 11.9708 17.5029C12.4284 17.5029 12.7993 17.132 12.7993 16.6744V16.1221Z" fill="#FFD67B"/>
<path d="M20.8082 13.0854C20.735 13.0854 20.6647 13.0563 20.6129 13.0045C20.5611 12.9527 20.532 12.8825 20.532 12.8092V12.533H18.875C18.8018 12.533 18.7316 12.504 18.6798 12.4522C18.628 12.4004 18.5989 12.3301 18.5989 12.2569C18.5989 12.1836 18.628 12.1134 18.6798 12.0616C18.7316 12.0098 18.8018 11.9807 18.875 11.9807H20.532C20.6785 11.9807 20.819 12.0389 20.9226 12.1425C21.0262 12.2461 21.0844 12.3866 21.0844 12.533V12.8092C21.0844 12.8825 21.0553 12.9527 21.0035 13.0045C20.9517 13.0563 20.8815 13.0854 20.8082 13.0854Z" fill="#EB5463"/>
<path d="M17.7704 12.533H17.4942C17.4209 12.533 17.3507 12.504 17.2989 12.4522C17.2471 12.4004 17.218 12.3301 17.218 12.2569C17.218 12.1836 17.2471 12.1134 17.2989 12.0616C17.3507 12.0098 17.4209 11.9807 17.4942 11.9807H17.7704C17.8436 11.9807 17.9138 12.0098 17.9656 12.0616C18.0174 12.1134 18.0465 12.1836 18.0465 12.2569C18.0465 12.3301 18.0174 12.4004 17.9656 12.4522C17.9138 12.504 17.8436 12.533 17.7704 12.533Z" fill="#EB5463"/>
</g>
<path d="M25.3063 5.81502L25.4205 5.79186C25.5713 5.76129 25.5713 5.54578 25.4205 5.5152L25.3063 5.49204C25.0185 5.43369 24.7935 5.20872 24.7351 4.92088L24.712 4.80663C24.6814 4.65585 24.4659 4.65585 24.4353 4.80663L24.4121 4.92088C24.3538 5.20872 24.1288 5.43369 23.841 5.49204L23.7267 5.5152C23.576 5.54578 23.576 5.76129 23.7267 5.79186L23.841 5.81502C24.1288 5.87338 24.3538 6.09835 24.4121 6.38619L24.4353 6.50044C24.4659 6.65122 24.6814 6.65122 24.712 6.50044L24.7351 6.38619C24.7935 6.09835 25.0185 5.87338 25.3063 5.81502Z" fill="#F9D366"/>
<path d="M19.1136 0.6495C19.0374 0.6495 18.9756 0.587732 18.9756 0.511536V0.137965C18.9756 0.0617681 19.0374 0 19.1136 0C19.1898 0 19.2516 0.0617681 19.2516 0.137965V0.511536C19.2516 0.587732 19.1898 0.6495 19.1136 0.6495Z" fill="#DD8833"/>
<path d="M19.1136 1.65518C19.0374 1.65518 18.9756 1.59341 18.9756 1.51721V1.14364C18.9756 1.06744 19.0374 1.00568 19.1136 1.00568C19.1898 1.00568 19.2516 1.06744 19.2516 1.14364V1.51721C19.2516 1.59343 19.1898 1.65518 19.1136 1.65518Z" fill="#DD8833"/>
<path d="M19.8032 0.965565H19.4297C19.3535 0.965565 19.2917 0.903797 19.2917 0.827601C19.2917 0.751404 19.3535 0.689636 19.4297 0.689636H19.8032C19.8794 0.689636 19.9412 0.751404 19.9412 0.827601C19.9412 0.903797 19.8794 0.965565 19.8032 0.965565Z" fill="#DD8833"/>
<path d="M18.7975 0.965565H18.4239C18.3477 0.965565 18.2859 0.903797 18.2859 0.827601C18.2859 0.751404 18.3477 0.689636 18.4239 0.689636H18.7975C18.8737 0.689636 18.9355 0.751404 18.9355 0.827601C18.9355 0.903797 18.8737 0.965565 18.7975 0.965565Z" fill="#DD8833"/>
<path d="M0.827723 5.98281C0.751526 5.98281 0.689758 5.92105 0.689758 5.84485V5.47128C0.689758 5.39508 0.751526 5.33331 0.827723 5.33331C0.903919 5.33331 0.965687 5.39508 0.965687 5.47128V5.84485C0.965687 5.92105 0.903919 5.98281 0.827723 5.98281Z" fill="#DD8833"/>
<path d="M0.827723 6.98849C0.751526 6.98849 0.689758 6.92672 0.689758 6.85052V6.47695C0.689758 6.40076 0.751526 6.33899 0.827723 6.33899C0.903919 6.33899 0.965687 6.40076 0.965687 6.47695V6.85052C0.965687 6.92672 0.903919 6.98849 0.827723 6.98849Z" fill="#DD8833"/>
<path d="M1.51727 6.29888H1.1437C1.06751 6.29888 1.00574 6.23711 1.00574 6.16091C1.00574 6.08472 1.06751 6.02295 1.1437 6.02295H1.51727C1.59347 6.02295 1.65524 6.08472 1.65524 6.16091C1.65524 6.23711 1.59347 6.29888 1.51727 6.29888Z" fill="#DD8833"/>
<path d="M0.511536 6.29888H0.137964C0.0617679 6.29888 0 6.23711 0 6.16091C0 6.08472 0.0617679 6.02295 0.137964 6.02295H0.511536C0.587732 6.02295 0.6495 6.08472 0.6495 6.16091C0.6495 6.23711 0.587732 6.29888 0.511536 6.29888Z" fill="#DD8833"/>
<path d="M6.54183 1.4114C6.46564 1.4114 6.40387 1.34963 6.40387 1.27344V0.899866C6.40387 0.82367 6.46564 0.761902 6.54183 0.761902C6.61803 0.761902 6.6798 0.82367 6.6798 0.899866V1.27344C6.6798 1.34962 6.61805 1.4114 6.54183 1.4114Z" fill="#DD8833"/>
<path d="M6.54183 2.41712C6.46564 2.41712 6.40387 2.35535 6.40387 2.27916V1.9056C6.40387 1.82941 6.46564 1.76764 6.54183 1.76764C6.61803 1.76764 6.6798 1.82941 6.6798 1.9056V2.27918C6.6798 2.35535 6.61805 2.41712 6.54183 2.41712Z" fill="#DD8833"/>
<path d="M7.23126 1.72747H6.85769C6.78149 1.72747 6.71973 1.6657 6.71973 1.5895C6.71973 1.51331 6.78149 1.45154 6.85769 1.45154H7.23126C7.30746 1.45154 7.36923 1.51331 7.36923 1.5895C7.36923 1.6657 7.30746 1.72747 7.23126 1.72747Z" fill="#DD8833"/>
<path d="M6.22571 1.72747H5.85214C5.77594 1.72747 5.71417 1.6657 5.71417 1.5895C5.71417 1.51331 5.77594 1.45154 5.85214 1.45154H6.22571C6.3019 1.45154 6.36367 1.51331 6.36367 1.5895C6.36367 1.6657 6.3019 1.72747 6.22571 1.72747Z" fill="#DD8833"/>
<path d="M24.1462 2.50537L24.6931 2.39449C24.9512 2.34213 24.9512 1.97315 24.6931 1.92079L24.1462 1.80992C23.6072 1.70065 23.186 1.27946 23.0768 0.740527L22.9659 0.193634C22.9135 -0.0645447 22.5446 -0.0645447 22.4922 0.193634L22.3813 0.740527C22.2721 1.27946 21.8509 1.70065 21.3119 1.80992L20.765 1.92079C20.5069 1.97315 20.5069 2.34213 20.765 2.39449L21.3119 2.50537C21.8509 2.61463 22.2721 3.03583 22.3813 3.57476L22.4922 4.12165C22.5446 4.37983 22.9135 4.37983 22.9659 4.12165L23.0768 3.57476C23.186 3.03583 23.6072 2.61465 24.1462 2.50537Z" fill="#F9D366"/>
<path d="M4.65013 3.82888L5.07012 3.74371C5.26841 3.70352 5.26841 3.42012 5.07012 3.37993L4.65013 3.29477C4.23623 3.21084 3.91277 2.88739 3.82886 2.4735L3.7437 2.0535C3.7035 1.85521 3.42011 1.85521 3.37993 2.0535L3.29477 2.4735C3.21084 2.88739 2.88739 3.21086 2.4735 3.29477L2.0535 3.37993C1.85521 3.42012 1.85521 3.70352 2.0535 3.74371L2.4735 3.82888C2.88739 3.9128 3.21086 4.23625 3.29477 4.65014L3.37993 5.07014C3.42012 5.26843 3.70352 5.26843 3.7437 5.07014L3.82886 4.65014C3.91279 4.23627 4.23627 3.91279 4.65013 3.82888Z" fill="#F9D366"/>
<defs>
<clipPath id="clip0_3481_145">
<rect width="16.57" height="16.57" fill="white" transform="translate(5.61902 8.66669)"/>
</clipPath>
</defs>
</svg>
