<svg width="30" height="32" viewBox="0 0 30 32" fill="none" xmlns="http://www.w3.org/2000/svg">
<ellipse cx="14.7569" cy="17.5639" rx="14.4361" ry="14.4361" fill="#773DCB"/>
<ellipse cx="14.1429" cy="17.1429" rx="13.1429" ry="13.1429" fill="white"/>
<path d="M25.3064 5.81503L25.4207 5.79186C25.5714 5.76129 25.5714 5.54578 25.4207 5.5152L25.3064 5.49204C25.0186 5.43369 24.7936 5.20872 24.7353 4.92088L24.7121 4.80663C24.6815 4.65585 24.466 4.65585 24.4354 4.80663L24.4123 4.92088C24.3539 5.20872 24.1289 5.43369 23.8411 5.49204L23.7269 5.5152C23.5761 5.54578 23.5761 5.76129 23.7269 5.79186L23.8411 5.81503C24.1289 5.87338 24.3539 6.09835 24.4123 6.38619L24.4354 6.50044C24.466 6.65122 24.6815 6.65122 24.7121 6.50044L24.7353 6.38619C24.7936 6.09835 25.0186 5.87338 25.3064 5.81503Z" fill="#F9D366"/>
<path d="M19.1136 0.649501C19.0374 0.649501 18.9756 0.587733 18.9756 0.511536V0.137965C18.9756 0.0617681 19.0374 0 19.1136 0C19.1897 0 19.2515 0.0617681 19.2515 0.137965V0.511536C19.2515 0.587733 19.1897 0.649501 19.1136 0.649501Z" fill="#DD8833"/>
<path d="M19.1136 1.65518C19.0374 1.65518 18.9756 1.59341 18.9756 1.51721V1.14364C18.9756 1.06744 19.0374 1.00568 19.1136 1.00568C19.1897 1.00568 19.2515 1.06744 19.2515 1.14364V1.51721C19.2515 1.59343 19.1897 1.65518 19.1136 1.65518Z" fill="#DD8833"/>
<path d="M19.803 0.965565H19.4295C19.3533 0.965565 19.2915 0.903797 19.2915 0.827601C19.2915 0.751404 19.3533 0.689636 19.4295 0.689636H19.803C19.8792 0.689636 19.941 0.751404 19.941 0.827601C19.941 0.903797 19.8792 0.965565 19.803 0.965565Z" fill="#DD8833"/>
<path d="M18.7972 0.965565H18.4236C18.3474 0.965565 18.2856 0.903797 18.2856 0.827601C18.2856 0.751404 18.3474 0.689636 18.4236 0.689636H18.7972C18.8734 0.689636 18.9351 0.751404 18.9351 0.827601C18.9351 0.903797 18.8734 0.965565 18.7972 0.965565Z" fill="#DD8833"/>
<path d="M0.827906 5.98284C0.751709 5.98284 0.689941 5.92108 0.689941 5.84488V5.47131C0.689941 5.39511 0.751709 5.33334 0.827906 5.33334C0.904102 5.33334 0.96587 5.39511 0.96587 5.47131V5.84488C0.96587 5.92108 0.904102 5.98284 0.827906 5.98284Z" fill="#DD8833"/>
<path d="M0.827906 6.98858C0.751709 6.98858 0.689941 6.92681 0.689941 6.85062V6.47705C0.689941 6.40085 0.751709 6.33908 0.827906 6.33908C0.904102 6.33908 0.96587 6.40085 0.96587 6.47705V6.85062C0.96587 6.92681 0.904102 6.98858 0.827906 6.98858Z" fill="#DD8833"/>
<path d="M1.5174 6.29894H1.14382C1.06763 6.29894 1.00586 6.23717 1.00586 6.16097C1.00586 6.08478 1.06763 6.02301 1.14382 6.02301H1.5174C1.59359 6.02301 1.65536 6.08478 1.65536 6.16097C1.65536 6.23717 1.59359 6.29894 1.5174 6.29894Z" fill="#DD8833"/>
<path d="M0.511536 6.29894H0.137964C0.0617679 6.29894 0 6.23717 0 6.16097C0 6.08478 0.0617679 6.02301 0.137964 6.02301H0.511536C0.587733 6.02301 0.6495 6.08478 0.6495 6.16097C0.6495 6.23717 0.587733 6.29894 0.511536 6.29894Z" fill="#DD8833"/>
<path d="M6.54226 1.4114C6.46607 1.4114 6.4043 1.34963 6.4043 1.27344V0.899866C6.4043 0.82367 6.46607 0.761902 6.54226 0.761902C6.61846 0.761902 6.68023 0.82367 6.68023 0.899866V1.27344C6.68023 1.34962 6.61848 1.4114 6.54226 1.4114Z" fill="#DD8833"/>
<path d="M6.54226 2.41715C6.46607 2.41715 6.4043 2.35538 6.4043 2.27919V1.90563C6.4043 1.82944 6.46607 1.76767 6.54226 1.76767C6.61846 1.76767 6.68023 1.82944 6.68023 1.90563V2.27921C6.68023 2.35538 6.61848 2.41715 6.54226 2.41715Z" fill="#DD8833"/>
<path d="M7.23126 1.7275H6.85769C6.78149 1.7275 6.71973 1.66573 6.71973 1.58953C6.71973 1.51334 6.78149 1.45157 6.85769 1.45157H7.23126C7.30746 1.45157 7.36923 1.51334 7.36923 1.58953C7.36923 1.66573 7.30746 1.7275 7.23126 1.7275Z" fill="#DD8833"/>
<path d="M6.22589 1.7275H5.85232C5.77612 1.7275 5.71436 1.66573 5.71436 1.58953C5.71436 1.51334 5.77612 1.45157 5.85232 1.45157H6.22589C6.30209 1.45157 6.36386 1.51334 6.36386 1.58953C6.36386 1.66573 6.30209 1.7275 6.22589 1.7275Z" fill="#DD8833"/>
<path d="M24.1461 2.50537L24.6929 2.39449C24.9511 2.34214 24.9511 1.97315 24.6929 1.9208L24.1461 1.80992C23.6071 1.70065 23.1859 1.27946 23.0767 0.740527L22.9658 0.193634C22.9134 -0.0645447 22.5444 -0.0645447 22.4921 0.193634L22.3812 0.740527C22.2719 1.27946 21.8507 1.70065 21.3118 1.80992L20.7649 1.9208C20.5067 1.97315 20.5067 2.34214 20.7649 2.39449L21.3118 2.50537C21.8507 2.61464 22.2719 3.03583 22.3812 3.57476L22.4921 4.12165C22.5444 4.37983 22.9134 4.37983 22.9658 4.12165L23.0767 3.57476C23.1859 3.03583 23.6071 2.61465 24.1461 2.50537Z" fill="#F9D366"/>
<path d="M4.65013 3.82885L5.07013 3.74368C5.26841 3.70349 5.26841 3.4201 5.07013 3.3799L4.65013 3.29474C4.23623 3.21081 3.91277 2.88736 3.82886 2.47347L3.7437 2.05347C3.7035 1.85518 3.42011 1.85518 3.37993 2.05347L3.29477 2.47347C3.21084 2.88736 2.88739 3.21083 2.4735 3.29474L2.0535 3.3799C1.85521 3.4201 1.85521 3.70349 2.0535 3.74368L2.4735 3.82885C2.88739 3.91277 3.21086 4.23622 3.29477 4.65011L3.37993 5.07011C3.42013 5.2684 3.70352 5.2684 3.7437 5.07011L3.82886 4.65011C3.91279 4.23624 4.23627 3.91276 4.65013 3.82885Z" fill="#F9D366"/>
<path d="M13.5104 23.4456C13.8226 23.4456 14.0754 23.6988 14.0754 24.011C14.0754 24.3232 13.8226 24.5761 13.5104 24.5761C13.1982 24.5761 12.9453 24.3232 12.9453 24.011C12.9453 23.6988 13.1982 23.4456 13.5104 23.4456Z" fill="#68CA44"/>
<path d="M15.2316 13.2862C15.2316 13.7464 15.1387 14.1509 14.9801 14.5211C14.4058 15.8596 12.9694 16.7438 11.9455 18.1475C10.9215 16.7438 9.48549 15.8596 8.91121 14.5211C8.75264 14.1509 8.65967 13.7464 8.65967 13.2862C8.65967 11.471 10.1307 10 11.9455 10C13.7607 10 15.2316 11.471 15.2316 13.2862ZM13.4508 13.2862C13.4508 12.4574 12.7746 11.7812 11.9455 11.7812C11.1167 11.7812 10.4405 12.4571 10.4405 13.2862C10.4405 14.1153 11.1167 14.7915 11.9455 14.7915C12.7746 14.7915 13.4508 14.1153 13.4508 13.2862Z" fill="#FB2B3A"/>
<path d="M15.5002 17.8179C15.6367 17.8179 15.7474 17.7071 15.7474 17.5706C15.7474 17.4341 15.6367 17.3234 15.5002 17.3234C15.3634 17.3234 15.2529 17.4341 15.2529 17.5706C15.2529 17.7071 15.3634 17.8179 15.5002 17.8179Z" fill="white"/>
<path d="M15.5002 18.1475C15.3634 18.1475 15.2529 18.2583 15.2529 18.3948C15.2529 18.5313 15.3634 18.642 15.5002 18.642C15.6367 18.642 15.7474 18.5313 15.7474 18.3948C15.7474 18.2583 15.6367 18.1475 15.5002 18.1475Z" fill="white"/>
<path d="M15.5002 18.9717C15.3634 18.9717 15.2529 19.0824 15.2529 19.2189C15.2529 19.3554 15.3634 19.4662 15.5002 19.4662C15.6367 19.4662 15.7474 19.3554 15.7474 19.2189C15.7474 19.0825 15.6367 18.9717 15.5002 18.9717Z" fill="white"/>
<path d="M15.5002 19.7959C15.3634 19.7959 15.2529 19.9067 15.2529 20.0432C15.2529 20.1796 15.3634 20.2904 15.5002 20.2904C15.6367 20.2904 15.7474 20.1796 15.7474 20.0432C15.7474 19.9067 15.6367 19.7959 15.5002 19.7959Z" fill="white"/>
<path d="M15.5002 20.6201C15.3634 20.6201 15.2529 20.7309 15.2529 20.8673C15.2529 21.0038 15.3634 21.1146 15.5002 21.1146C15.6367 21.1146 15.7474 21.0038 15.7474 20.8673C15.7474 20.7309 15.6367 20.6201 15.5002 20.6201Z" fill="white"/>
<path d="M15.5002 21.4442C15.3634 21.4442 15.2529 21.555 15.2529 21.6915C15.2529 21.828 15.3634 21.9387 15.5002 21.9387C15.6367 21.9387 15.7474 21.828 15.7474 21.6915C15.7474 21.555 15.6367 21.4442 15.5002 21.4442Z" fill="white"/>
<path d="M15.5002 22.2684C15.3634 22.2684 15.2529 22.3792 15.2529 22.5157C15.2529 22.6521 15.3634 22.7629 15.5002 22.7629C15.6367 22.7629 15.7474 22.6521 15.7474 22.5157C15.7474 22.3792 15.6367 22.2684 15.5002 22.2684Z" fill="white"/>
<path d="M14.676 17.3234C14.5392 17.3234 14.4287 17.4341 14.4287 17.5706C14.4287 17.7071 14.5392 17.8179 14.676 17.8179C14.8124 17.8179 14.9232 17.7071 14.9232 17.5706C14.9232 17.4341 14.8124 17.3234 14.676 17.3234Z" fill="white"/>
<path d="M13.8517 17.3233C13.7149 17.3233 13.6045 17.434 13.6045 17.5706C13.6045 17.707 13.7149 17.8178 13.8517 17.8178C13.9882 17.8178 14.099 17.707 14.099 17.5706C14.099 17.4341 13.9882 17.3233 13.8517 17.3233Z" fill="white"/>
<path d="M10.7127 19.3577L10.3235 19.0658L10.7127 18.7739C10.7855 18.7192 10.8003 18.6159 10.7457 18.5431C10.691 18.4703 10.5877 18.4555 10.5149 18.5102L10.0488 18.8598L9.58263 18.5102C9.50977 18.4555 9.40646 18.4703 9.35186 18.5431C9.29724 18.6159 9.31197 18.7192 9.38476 18.7738L9.77404 19.0658L9.38483 19.3576C9.31197 19.4123 9.2972 19.5156 9.3518 19.5884C9.38417 19.6316 9.43369 19.6544 9.4838 19.6544C9.51821 19.6544 9.5529 19.6437 9.58253 19.6214L10.0487 19.2718L10.5149 19.6214C10.5445 19.6437 10.5793 19.6544 10.6136 19.6544C10.6638 19.6544 10.7133 19.6316 10.7456 19.5884C10.8003 19.5156 10.7855 19.4123 10.7127 19.3577Z" fill="#FB2B3A"/>
<path d="M14.8523 23.8934C14.7612 23.8934 14.6874 23.8196 14.6874 23.7285C14.6874 22.8845 14.0007 22.1979 13.1568 22.1979H11.7441C10.7183 22.1979 9.88379 21.3633 9.88379 20.3375V20.055C9.88379 19.9639 9.9576 19.8902 10.0486 19.8902C10.1396 19.8902 10.2135 19.9639 10.2135 20.055V20.3375C10.2135 21.1815 10.9001 21.8682 11.7441 21.8682H13.1568C14.1826 21.8682 15.0171 22.7027 15.0171 23.7285C15.0171 23.8196 14.9433 23.8934 14.8523 23.8934Z" fill="#3256C1"/>
<path d="M18.1429 13.8618L15.2857 14.7314C15.2814 14.7314 8.00351 14.7314 8 14.7314V23.8618H15.2857L18.1429 22.9922L21 23.8618V14.7314L18.1429 13.8618Z" fill="#BCE4FF"/>
<path d="M13.5104 23.4456C13.8226 23.4456 14.0754 23.6988 14.0754 24.011C14.0754 24.3232 13.8226 24.5761 13.5104 24.5761C13.1982 24.5761 12.9453 24.3232 12.9453 24.011C12.9453 23.6988 13.1982 23.4456 13.5104 23.4456Z" fill="#68CA44"/>
<path d="M15.2316 13.2862C15.2316 13.7464 15.1387 14.1509 14.9801 14.5211C14.4058 15.8596 12.9694 16.7438 11.9455 18.1475C10.9215 16.7438 9.48549 15.8596 8.91121 14.5211C8.75264 14.1509 8.65967 13.7464 8.65967 13.2862C8.65967 11.471 10.1307 10 11.9455 10C13.7607 10 15.2316 11.471 15.2316 13.2862ZM13.4508 13.2862C13.4508 12.4574 12.7746 11.7812 11.9455 11.7812C11.1167 11.7812 10.4405 12.4571 10.4405 13.2862C10.4405 14.1153 11.1167 14.7915 11.9455 14.7915C12.7746 14.7915 13.4508 14.1153 13.4508 13.2862Z" fill="#FFD801"/>
<path d="M18 13.8618V22.9922L15 23.8618V14.7314L18 13.8618Z" fill="#94D4FF"/>
<path d="M15.5002 17.8179C15.6367 17.8179 15.7474 17.7071 15.7474 17.5706C15.7474 17.4341 15.6367 17.3234 15.5002 17.3234C15.3634 17.3234 15.2529 17.4341 15.2529 17.5706C15.2529 17.7071 15.3634 17.8179 15.5002 17.8179Z" fill="white"/>
<path d="M15.5002 18.1475C15.3634 18.1475 15.2529 18.2583 15.2529 18.3948C15.2529 18.5313 15.3634 18.642 15.5002 18.642C15.6367 18.642 15.7474 18.5313 15.7474 18.3948C15.7474 18.2583 15.6367 18.1475 15.5002 18.1475Z" fill="white"/>
<path d="M15.5002 18.9717C15.3634 18.9717 15.2529 19.0824 15.2529 19.2189C15.2529 19.3554 15.3634 19.4662 15.5002 19.4662C15.6367 19.4662 15.7474 19.3554 15.7474 19.2189C15.7474 19.0825 15.6367 18.9717 15.5002 18.9717Z" fill="white"/>
<path d="M15.5002 19.7959C15.3634 19.7959 15.2529 19.9067 15.2529 20.0432C15.2529 20.1796 15.3634 20.2904 15.5002 20.2904C15.6367 20.2904 15.7474 20.1796 15.7474 20.0432C15.7474 19.9067 15.6367 19.7959 15.5002 19.7959Z" fill="white"/>
<path d="M15.5002 20.6201C15.3634 20.6201 15.2529 20.7309 15.2529 20.8673C15.2529 21.0038 15.3634 21.1146 15.5002 21.1146C15.6367 21.1146 15.7474 21.0038 15.7474 20.8673C15.7474 20.7309 15.6367 20.6201 15.5002 20.6201Z" fill="white"/>
<path d="M15.5002 21.4442C15.3634 21.4442 15.2529 21.555 15.2529 21.6915C15.2529 21.828 15.3634 21.9387 15.5002 21.9387C15.6367 21.9387 15.7474 21.828 15.7474 21.6915C15.7474 21.555 15.6367 21.4442 15.5002 21.4442Z" fill="white"/>
<path d="M15.5002 22.2684C15.3634 22.2684 15.2529 22.3792 15.2529 22.5157C15.2529 22.6521 15.3634 22.7629 15.5002 22.7629C15.6367 22.7629 15.7474 22.6521 15.7474 22.5157C15.7474 22.3792 15.6367 22.2684 15.5002 22.2684Z" fill="white"/>
<path d="M14.676 17.3234C14.5392 17.3234 14.4287 17.4341 14.4287 17.5706C14.4287 17.7071 14.5392 17.8179 14.676 17.8179C14.8124 17.8179 14.9232 17.7071 14.9232 17.5706C14.9232 17.4341 14.8124 17.3234 14.676 17.3234Z" fill="white"/>
<path d="M13.8517 17.3233C13.7149 17.3233 13.6045 17.434 13.6045 17.5706C13.6045 17.707 13.7149 17.8178 13.8517 17.8178C13.9882 17.8178 14.099 17.707 14.099 17.5706C14.099 17.4341 13.9882 17.3233 13.8517 17.3233Z" fill="white"/>
<path d="M10.7127 19.3577L10.3235 19.0658L10.7127 18.7739C10.7855 18.7192 10.8003 18.6159 10.7457 18.5431C10.691 18.4703 10.5877 18.4555 10.5149 18.5102L10.0488 18.8598L9.58263 18.5102C9.50977 18.4555 9.40646 18.4703 9.35186 18.5431C9.29724 18.6159 9.31197 18.7192 9.38476 18.7738L9.77404 19.0658L9.38483 19.3576C9.31197 19.4123 9.2972 19.5156 9.3518 19.5884C9.38417 19.6316 9.43369 19.6544 9.4838 19.6544C9.51821 19.6544 9.5529 19.6437 9.58253 19.6214L10.0487 19.2718L10.5149 19.6214C10.5445 19.6437 10.5793 19.6544 10.6136 19.6544C10.6638 19.6544 10.7133 19.6316 10.7456 19.5884C10.8003 19.5156 10.7855 19.4123 10.7127 19.3577Z" fill="#FB2B3A"/>
<path d="M14.8523 23.8934C14.7612 23.8934 14.6874 23.8196 14.6874 23.7285C14.6874 22.8845 14.0007 22.1979 13.1568 22.1979H11.7441C10.7183 22.1979 9.88379 21.3633 9.88379 20.3375V20.055C9.88379 19.9639 9.9576 19.8902 10.0486 19.8902C10.1396 19.8902 10.2135 19.9639 10.2135 20.055V20.3375C10.2135 21.1815 10.9001 21.8682 11.7441 21.8682H13.1568C14.1826 21.8682 15.0171 22.7027 15.0171 23.7285C15.0171 23.8196 14.9433 23.8934 14.8523 23.8934Z" fill="#3256C1"/>
</svg>
