<svg width="29" height="32" viewBox="0 0 29 32" fill="none" xmlns="http://www.w3.org/2000/svg">
<ellipse cx="14.4361" cy="17.4361" rx="14.4361" ry="14.4361" fill="#773DCB"/>
<ellipse cx="14.1429" cy="17.1429" rx="13.1429" ry="13.1429" fill="white"/>
<path d="M25.3064 5.81503L25.4207 5.79186C25.5714 5.76129 25.5714 5.54578 25.4207 5.5152L25.3064 5.49204C25.0186 5.43369 24.7936 5.20872 24.7353 4.92088L24.7121 4.80663C24.6815 4.65585 24.466 4.65585 24.4354 4.80663L24.4123 4.92088C24.3539 5.20872 24.1289 5.43369 23.8411 5.49204L23.7269 5.5152C23.5761 5.54578 23.5761 5.76129 23.7269 5.79186L23.8411 5.81503C24.1289 5.87338 24.3539 6.09835 24.4123 6.38619L24.4354 6.50044C24.466 6.65122 24.6815 6.65122 24.7121 6.50044L24.7353 6.38619C24.7936 6.09835 25.0186 5.87338 25.3064 5.81503Z" fill="#F9D366"/>
<path d="M19.1136 0.649501C19.0374 0.649501 18.9756 0.587733 18.9756 0.511536V0.137965C18.9756 0.0617681 19.0374 0 19.1136 0C19.1897 0 19.2515 0.0617681 19.2515 0.137965V0.511536C19.2515 0.587733 19.1897 0.649501 19.1136 0.649501Z" fill="#DD8833"/>
<path d="M19.1136 1.65518C19.0374 1.65518 18.9756 1.59341 18.9756 1.51721V1.14364C18.9756 1.06744 19.0374 1.00568 19.1136 1.00568C19.1897 1.00568 19.2515 1.06744 19.2515 1.14364V1.51721C19.2515 1.59343 19.1897 1.65518 19.1136 1.65518Z" fill="#DD8833"/>
<path d="M19.803 0.965565H19.4295C19.3533 0.965565 19.2915 0.903797 19.2915 0.827601C19.2915 0.751404 19.3533 0.689636 19.4295 0.689636H19.803C19.8792 0.689636 19.941 0.751404 19.941 0.827601C19.941 0.903797 19.8792 0.965565 19.803 0.965565Z" fill="#DD8833"/>
<path d="M18.7972 0.965565H18.4236C18.3474 0.965565 18.2856 0.903797 18.2856 0.827601C18.2856 0.751404 18.3474 0.689636 18.4236 0.689636H18.7972C18.8734 0.689636 18.9351 0.751404 18.9351 0.827601C18.9351 0.903797 18.8734 0.965565 18.7972 0.965565Z" fill="#DD8833"/>
<path d="M0.827906 5.98284C0.751709 5.98284 0.689941 5.92108 0.689941 5.84488V5.47131C0.689941 5.39511 0.751709 5.33334 0.827906 5.33334C0.904102 5.33334 0.96587 5.39511 0.96587 5.47131V5.84488C0.96587 5.92108 0.904102 5.98284 0.827906 5.98284Z" fill="#DD8833"/>
<path d="M0.827906 6.98858C0.751709 6.98858 0.689941 6.92681 0.689941 6.85062V6.47705C0.689941 6.40085 0.751709 6.33908 0.827906 6.33908C0.904102 6.33908 0.96587 6.40085 0.96587 6.47705V6.85062C0.96587 6.92681 0.904102 6.98858 0.827906 6.98858Z" fill="#DD8833"/>
<path d="M1.5174 6.29894H1.14382C1.06763 6.29894 1.00586 6.23717 1.00586 6.16097C1.00586 6.08478 1.06763 6.02301 1.14382 6.02301H1.5174C1.59359 6.02301 1.65536 6.08478 1.65536 6.16097C1.65536 6.23717 1.59359 6.29894 1.5174 6.29894Z" fill="#DD8833"/>
<path d="M0.511536 6.29894H0.137964C0.0617679 6.29894 0 6.23717 0 6.16097C0 6.08478 0.0617679 6.02301 0.137964 6.02301H0.511536C0.587733 6.02301 0.6495 6.08478 0.6495 6.16097C0.6495 6.23717 0.587733 6.29894 0.511536 6.29894Z" fill="#DD8833"/>
<path d="M6.54226 1.4114C6.46607 1.4114 6.4043 1.34963 6.4043 1.27344V0.899866C6.4043 0.82367 6.46607 0.761902 6.54226 0.761902C6.61846 0.761902 6.68023 0.82367 6.68023 0.899866V1.27344C6.68023 1.34962 6.61848 1.4114 6.54226 1.4114Z" fill="#DD8833"/>
<path d="M6.54226 2.41715C6.46607 2.41715 6.4043 2.35538 6.4043 2.27919V1.90563C6.4043 1.82944 6.46607 1.76767 6.54226 1.76767C6.61846 1.76767 6.68023 1.82944 6.68023 1.90563V2.27921C6.68023 2.35538 6.61848 2.41715 6.54226 2.41715Z" fill="#DD8833"/>
<path d="M7.23126 1.7275H6.85769C6.78149 1.7275 6.71973 1.66573 6.71973 1.58953C6.71973 1.51334 6.78149 1.45157 6.85769 1.45157H7.23126C7.30746 1.45157 7.36923 1.51334 7.36923 1.58953C7.36923 1.66573 7.30746 1.7275 7.23126 1.7275Z" fill="#DD8833"/>
<path d="M6.22589 1.7275H5.85232C5.77612 1.7275 5.71436 1.66573 5.71436 1.58953C5.71436 1.51334 5.77612 1.45157 5.85232 1.45157H6.22589C6.30209 1.45157 6.36386 1.51334 6.36386 1.58953C6.36386 1.66573 6.30209 1.7275 6.22589 1.7275Z" fill="#DD8833"/>
<path d="M24.1461 2.50537L24.6929 2.39449C24.9511 2.34214 24.9511 1.97315 24.6929 1.9208L24.1461 1.80992C23.6071 1.70065 23.1859 1.27946 23.0767 0.740527L22.9658 0.193634C22.9134 -0.0645447 22.5444 -0.0645447 22.4921 0.193634L22.3812 0.740527C22.2719 1.27946 21.8507 1.70065 21.3118 1.80992L20.7649 1.9208C20.5067 1.97315 20.5067 2.34214 20.7649 2.39449L21.3118 2.50537C21.8507 2.61464 22.2719 3.03583 22.3812 3.57476L22.4921 4.12165C22.5444 4.37983 22.9134 4.37983 22.9658 4.12165L23.0767 3.57476C23.1859 3.03583 23.6071 2.61465 24.1461 2.50537Z" fill="#F9D366"/>
<path d="M4.65013 3.82885L5.07013 3.74368C5.26841 3.70349 5.26841 3.4201 5.07013 3.3799L4.65013 3.29474C4.23623 3.21081 3.91277 2.88736 3.82886 2.47347L3.7437 2.05347C3.7035 1.85518 3.42011 1.85518 3.37993 2.05347L3.29477 2.47347C3.21084 2.88736 2.88739 3.21083 2.4735 3.29474L2.0535 3.3799C1.85521 3.4201 1.85521 3.70349 2.0535 3.74368L2.4735 3.82885C2.88739 3.91277 3.21086 4.23622 3.29477 4.65011L3.37993 5.07011C3.42013 5.2684 3.70352 5.2684 3.7437 5.07011L3.82886 4.65011C3.91279 4.23624 4.23627 3.91276 4.65013 3.82885Z" fill="#F9D366"/>
<path d="M21.3853 13.123H11.3956V13.2929C11.3956 13.4695 11.2665 13.6272 11.0907 13.644C10.889 13.6631 10.7194 13.5051 10.7194 13.3074V13.123H7.61485C7.34325 13.123 7.12305 13.3432 7.12305 13.6148V15.8586C8.19253 15.8586 9.05952 16.7256 9.05952 17.7951C9.05952 18.8646 8.19253 19.7316 7.12305 19.7316V21.9754C7.12305 22.247 7.34325 22.4672 7.61485 22.4672H10.7194V22.1743C10.7194 21.9977 10.8485 21.84 11.0243 21.8233C11.226 21.804 11.3956 21.9621 11.3956 22.1598V22.4672H21.3853C21.6569 22.4672 21.8771 22.247 21.8771 21.9754V13.6148C21.8771 13.3432 21.6569 13.123 21.3853 13.123Z" fill="#FC7091"/>
<path d="M20.6656 21.6142H12.8582C12.7224 21.6142 12.6123 21.5041 12.6123 21.3683V18.7864C12.6123 18.6506 12.7224 18.5405 12.8582 18.5405H20.6656C20.8014 18.5405 20.9115 18.6506 20.9115 18.7864V21.3683C20.9115 21.5041 20.8014 21.6142 20.6656 21.6142Z" fill="#A4C9FF"/>
<path d="M11.0574 15.582C10.8876 15.582 10.75 15.4443 10.75 15.2746V14.5369C10.75 14.3671 10.8876 14.2295 11.0574 14.2295C11.2271 14.2295 11.3648 14.3671 11.3648 14.5369V15.2746C11.3648 15.4443 11.2271 15.582 11.0574 15.582Z" fill="#F9CFCF"/>
<path d="M11.0574 17.5492C10.8876 17.5492 10.75 17.4115 10.75 17.2418V16.5041C10.75 16.3344 10.8876 16.1967 11.0574 16.1967C11.2271 16.1967 11.3648 16.3344 11.3648 16.5041V17.2418C11.3648 17.4115 11.2271 17.5492 11.0574 17.5492Z" fill="#F9CFCF"/>
<path d="M11.0574 19.3934C10.8876 19.3934 10.75 19.2558 10.75 19.086V18.3483C10.75 18.1786 10.8876 18.041 11.0574 18.041C11.2271 18.041 11.3648 18.1786 11.3648 18.3483V19.086C11.3648 19.2558 11.2271 19.3934 11.0574 19.3934Z" fill="#F9CFCF"/>
<path d="M11.0574 21.3606C10.8876 21.3606 10.75 21.223 10.75 21.0533V20.3156C10.75 20.1458 10.8876 20.0082 11.0574 20.0082C11.2271 20.0082 11.3648 20.1458 11.3648 20.3156V21.0533C11.3648 21.223 11.2271 21.3606 11.0574 21.3606Z" fill="#F9CFCF"/>
<path d="M19.807 21.7372C19.7391 21.7372 19.684 21.6821 19.684 21.6142C19.684 21.5464 19.7391 21.4913 19.807 21.4913H20.6655C20.7334 21.4913 20.7898 21.5463 20.7898 21.6142C20.7898 21.6821 20.7362 21.7372 20.6683 21.7372V21.6142L20.6677 21.7372H19.807ZM18.9484 21.7372H18.0899C18.022 21.7372 17.967 21.6821 17.967 21.6142C17.967 21.5464 18.022 21.4913 18.0899 21.4913H18.9484C19.0163 21.4913 19.0714 21.5464 19.0714 21.6142C19.0714 21.6821 19.0163 21.7372 18.9484 21.7372ZM17.2314 21.7372H16.3729C16.305 21.7372 16.25 21.6821 16.25 21.6142C16.25 21.5464 16.305 21.4913 16.3729 21.4913H17.2314C17.2993 21.4913 17.3544 21.5464 17.3544 21.6142C17.3544 21.6821 17.2993 21.7372 17.2314 21.7372ZM15.5144 21.7372H14.6558C14.588 21.7372 14.5329 21.6821 14.5329 21.6142C14.5329 21.5464 14.588 21.4913 14.6558 21.4913H15.5144C15.5823 21.4913 15.6374 21.5464 15.6374 21.6142C15.6374 21.6821 15.5823 21.7372 15.5144 21.7372ZM13.7973 21.7372H12.9388C12.8709 21.7372 12.8158 21.6821 12.8158 21.6142C12.8158 21.5464 12.8709 21.4913 12.9388 21.4913H13.7973C13.8652 21.4913 13.9203 21.5464 13.9203 21.6142C13.9203 21.6821 13.8653 21.7372 13.7973 21.7372ZM12.6122 21.0999C12.5443 21.0999 12.4893 21.0448 12.4893 20.9769V20.1184C12.4893 20.0505 12.5443 19.9955 12.6122 19.9955C12.6801 19.9955 12.7352 20.0505 12.7352 20.1184V20.9769C12.7352 21.0448 12.6801 21.0999 12.6122 21.0999ZM20.9114 21.0163C20.8435 21.0163 20.7884 20.9612 20.7884 20.8934V20.0349C20.7884 19.967 20.8435 19.9119 20.9114 19.9119C20.9793 19.9119 21.0343 19.967 21.0343 20.0349V20.8934C21.0343 20.9612 20.9793 21.0163 20.9114 21.0163ZM12.6122 19.3829C12.5443 19.3829 12.4893 19.3278 12.4893 19.2599V18.7864C12.4893 18.5841 12.6538 18.4187 12.856 18.4175H12.8567C12.9243 18.4175 12.9792 18.4721 12.9796 18.5397C12.98 18.6076 12.9253 18.663 12.8574 18.6634C12.79 18.6638 12.7352 18.7189 12.7352 18.7864V19.2599C12.7352 19.3278 12.6801 19.3829 12.6122 19.3829ZM20.9114 19.2993C20.8435 19.2993 20.7884 19.2442 20.7884 19.1763V18.7864C20.7884 18.7186 20.7333 18.6634 20.6655 18.6634H20.5834C20.5155 18.6634 20.4604 18.6083 20.4604 18.5405C20.4604 18.4726 20.5155 18.4175 20.5834 18.4175H20.6655C20.8689 18.4175 21.0343 18.5829 21.0343 18.7864V19.1763C21.0343 19.2442 20.9793 19.2993 20.9114 19.2993ZM19.7248 18.6634H18.8663C18.7984 18.6634 18.7433 18.6083 18.7433 18.5405C18.7433 18.4726 18.7984 18.4175 18.8663 18.4175H19.7248C19.7927 18.4175 19.8477 18.4726 19.8477 18.5405C19.8477 18.6083 19.7927 18.6634 19.7248 18.6634ZM18.0078 18.6634H17.1493C17.0814 18.6634 17.0263 18.6083 17.0263 18.5405C17.0263 18.4726 17.0814 18.4175 17.1493 18.4175H18.0078C18.0757 18.4175 18.1307 18.4726 18.1307 18.5405C18.1307 18.6083 18.0757 18.6634 18.0078 18.6634ZM16.2908 18.6634H15.4322C15.3643 18.6634 15.3093 18.6083 15.3093 18.5405C15.3093 18.4726 15.3643 18.4175 15.4322 18.4175H16.2908C16.3586 18.4175 16.4137 18.4726 16.4137 18.5405C16.4137 18.6083 16.3586 18.6634 16.2908 18.6634ZM14.5737 18.6634H13.7151C13.6473 18.6634 13.5922 18.6083 13.5922 18.5405C13.5922 18.4726 13.6473 18.4175 13.7151 18.4175H14.5737C14.6416 18.4175 14.6967 18.4726 14.6967 18.5405C14.6967 18.6083 14.6416 18.6634 14.5737 18.6634Z" fill="#3762CC"/>
<path d="M14.6574 20.1863C14.576 20.1863 14.5321 20.2213 14.5096 20.2506C14.485 20.2827 14.4644 20.3239 14.449 20.3708C14.4205 20.4488 14.3785 20.5082 14.3241 20.5471C14.2694 20.5864 14.2032 20.6055 14.1218 20.6055C14.0464 20.6055 13.9831 20.5885 13.9282 20.5535C13.8739 20.519 13.8327 20.4671 13.8022 20.3949C13.7704 20.3197 13.7543 20.2226 13.7543 20.1059C13.7543 19.9331 13.7901 19.7997 13.8606 19.7093C13.9284 19.6223 14.0175 19.58 14.1328 19.58C14.205 19.58 14.2632 19.5959 14.3108 19.6286C14.3599 19.6623 14.4039 19.7154 14.4415 19.786C14.4706 19.8409 14.4973 19.8795 14.5234 19.9042C14.556 19.935 14.6019 19.9507 14.6598 19.9507C14.714 19.9507 14.7627 19.929 14.8006 19.8881C14.8377 19.8479 14.8565 19.8006 14.8565 19.7473C14.8565 19.6665 14.8253 19.5814 14.7638 19.4946C14.7039 19.4102 14.6176 19.3387 14.5073 19.2823C14.3971 19.226 14.2704 19.1974 14.1306 19.1974C14.0161 19.1974 13.9066 19.2182 13.8051 19.2591C13.703 19.3003 13.6125 19.3612 13.5364 19.4401C13.4604 19.5188 13.4013 19.6147 13.3607 19.725C13.3206 19.8339 13.3003 19.9584 13.3003 20.0949C13.3003 20.1789 13.3083 20.2594 13.3242 20.3343C13.3402 20.4099 13.3645 20.4822 13.3966 20.5489C13.4287 20.6159 13.4681 20.6775 13.5142 20.7322C13.5659 20.7927 13.6237 20.8423 13.686 20.8798C13.7482 20.9171 13.818 20.9448 13.8935 20.9623C13.9674 20.9794 14.0502 20.988 14.1395 20.988C14.2594 20.988 14.3668 20.9682 14.4584 20.9292C14.5501 20.8902 14.627 20.8381 14.687 20.7745C14.746 20.7119 14.7902 20.6465 14.8182 20.5803C14.8466 20.5132 14.861 20.4491 14.861 20.3898C14.861 20.3333 14.8401 20.283 14.8006 20.2445C14.7613 20.2064 14.7118 20.1863 14.6574 20.1863Z" fill="#E0EBFC"/>
<path d="M16.3862 19.3071C16.2576 19.2343 16.1025 19.1974 15.9254 19.1974C15.7949 19.1974 15.6762 19.2183 15.5726 19.2595C15.4677 19.3012 15.3773 19.3624 15.304 19.4414C15.2309 19.5199 15.1746 19.6161 15.1363 19.7272C15.0986 19.8366 15.0796 19.958 15.0796 20.0882C15.0796 20.2152 15.0978 20.3352 15.1338 20.445C15.1704 20.5569 15.2256 20.6543 15.2978 20.7343C15.3704 20.815 15.462 20.8782 15.5699 20.9223C15.6766 20.9658 15.7984 20.9879 15.932 20.9879C16.0662 20.9879 16.1875 20.9664 16.2927 20.924C16.3992 20.881 16.4905 20.8179 16.564 20.7365C16.6369 20.6556 16.6922 20.5591 16.7284 20.4496C16.7641 20.3419 16.7822 20.221 16.7822 20.0904C16.7822 19.913 16.749 19.7556 16.6835 19.6227C16.6165 19.4871 16.5166 19.3809 16.3862 19.3071ZM15.7748 20.5744C15.7287 20.554 15.6872 20.5226 15.6511 20.4809C15.6147 20.4388 15.5859 20.3842 15.5654 20.3185C15.5442 20.2508 15.5335 20.1733 15.5335 20.0882C15.5335 20.004 15.5442 19.9275 15.5653 19.861C15.5858 19.7962 15.6137 19.7428 15.6482 19.7023C15.6819 19.6628 15.7226 19.6321 15.7693 19.6114C15.8166 19.5905 15.869 19.5799 15.9253 19.5799C16.0059 19.5799 16.0749 19.5986 16.1363 19.6371C16.197 19.6751 16.2426 19.7304 16.276 19.8061C16.3106 19.8844 16.328 19.9794 16.328 20.0882C16.328 20.2061 16.3091 20.3056 16.2718 20.3841C16.2359 20.4598 16.1877 20.516 16.1287 20.5513C16.0677 20.5877 16.0026 20.6053 15.9297 20.6053C15.8734 20.6054 15.8212 20.595 15.7748 20.5744Z" fill="#E0EBFC"/>
<path d="M18.2924 19.3864C18.2209 19.3239 18.1399 19.2806 18.0517 19.2577C17.9678 19.2359 17.8667 19.2249 17.7514 19.2249H17.3257C17.2387 19.2249 17.1727 19.2469 17.1293 19.2903C17.086 19.3337 17.064 19.3997 17.064 19.4866V20.6691C17.064 20.7275 17.0692 20.7745 17.08 20.8128C17.0934 20.8603 17.1233 20.899 17.1665 20.9248C17.2066 20.9488 17.2608 20.9605 17.3322 20.9605H17.758C17.8351 20.9605 17.9054 20.9554 17.9673 20.9455C18.0315 20.9351 18.0925 20.9169 18.1487 20.8912C18.2054 20.8652 18.2584 20.8303 18.3066 20.787C18.3663 20.7321 18.4159 20.6689 18.4541 20.5992C18.492 20.5301 18.5204 20.4517 18.5385 20.3661C18.5562 20.2823 18.5652 20.1888 18.5652 20.0883C18.5653 19.7776 18.4734 19.5413 18.2924 19.3864ZM17.5137 20.578V19.6064H17.6678C17.7609 19.6064 17.8407 19.6164 17.9049 19.6362C17.9609 19.6534 18.0077 19.6941 18.048 19.7605C18.0899 19.8296 18.1111 19.9392 18.1111 20.0862C18.1111 20.292 18.0634 20.4369 17.9681 20.5174C17.9496 20.5336 17.9282 20.546 17.9023 20.5551C17.8743 20.5652 17.8471 20.5714 17.8215 20.5738C17.7928 20.5765 17.7519 20.578 17.6997 20.578H17.5137Z" fill="#E0EBFC"/>
<path d="M20.159 20.6298C20.1214 20.5954 20.0683 20.5779 20.0015 20.5779H19.3017V20.2422H19.9178C19.9846 20.2422 20.0366 20.2248 20.0725 20.1905C20.1087 20.1559 20.1278 20.1096 20.1278 20.0564C20.1278 20.0027 20.1081 19.9564 20.0708 19.9224C20.0347 19.8895 19.9832 19.8728 19.9178 19.8728H19.3017V19.5998H19.9761C20.0438 19.5998 20.0968 19.5827 20.1336 19.5491C20.1716 19.5145 20.1917 19.467 20.1917 19.4118C20.1917 19.3574 20.1716 19.3103 20.1337 19.2757C20.0968 19.242 20.0438 19.2249 19.9761 19.2249H19.1138C19.0582 19.2249 19.0126 19.2334 18.9744 19.2508C18.9312 19.2706 18.899 19.3024 18.8788 19.3456C18.8608 19.3839 18.8521 19.43 18.8521 19.4866V20.6988C18.8521 20.7856 18.8738 20.8516 18.9165 20.8949C18.9594 20.9384 19.0258 20.9605 19.1137 20.9605H20.0014C20.0683 20.9605 20.1213 20.943 20.159 20.9086C20.1975 20.8732 20.2179 20.8254 20.2179 20.7703C20.218 20.7138 20.1977 20.6653 20.159 20.6298Z" fill="#E0EBFC"/>
<path d="M16.1265 15.5653C16.2714 15.4048 16.3449 15.1607 16.3449 14.8395C16.3449 14.6804 16.3279 14.5393 16.2944 14.4201C16.26 14.2983 16.2066 14.193 16.1355 14.1071C16.0633 14.02 15.9741 13.9544 15.8702 13.9122C15.7684 13.8707 15.6495 13.8498 15.5168 13.8498C15.332 13.8498 15.1769 13.8896 15.0554 13.9681C14.9326 14.0477 14.8429 14.1651 14.7888 14.3173C14.7368 14.4629 14.7104 14.6459 14.7104 14.861C14.7104 15.0638 14.7449 15.239 14.8128 15.3817C14.8824 15.5279 14.9815 15.6373 15.1074 15.7068C15.2309 15.7751 15.3719 15.8097 15.5265 15.8097C15.7781 15.8098 15.98 15.7275 16.1265 15.5653ZM15.7094 14.3823C15.7504 14.4692 15.7711 14.6149 15.7711 14.8154C15.7711 15.0247 15.7512 15.1781 15.712 15.2713C15.6792 15.3492 15.6203 15.3855 15.5264 15.3855C15.4643 15.3855 15.4178 15.3691 15.3846 15.3352C15.3485 15.2985 15.3229 15.2407 15.3084 15.1632C15.2923 15.0776 15.2841 14.9638 15.2841 14.8251C15.2841 14.6911 15.2923 14.5802 15.3084 14.4954C15.3228 14.419 15.3487 14.3616 15.3854 14.3249C15.4196 14.2908 15.4657 14.2742 15.5264 14.2742C15.6165 14.2741 15.6747 14.3085 15.7094 14.3823Z" fill="#FFEA92"/>
<path d="M18.7631 16.162C18.7287 16.039 18.6746 15.9341 18.6022 15.8504C18.5294 15.7662 18.4405 15.7022 18.3379 15.6601C18.2369 15.6187 18.1184 15.5976 17.9855 15.5976C17.7061 15.5976 17.4977 15.6857 17.3664 15.8595C17.2389 16.028 17.1743 16.2785 17.1743 16.6042C17.1743 16.8088 17.2092 16.9841 17.2782 17.1254C17.3486 17.2696 17.4479 17.3784 17.5734 17.4486C17.697 17.5177 17.8389 17.5529 17.9952 17.5529C18.2469 17.5529 18.4488 17.4706 18.5953 17.3084C18.7402 17.1479 18.8137 16.9037 18.8137 16.5825C18.8136 16.4234 18.7967 16.2819 18.7631 16.162ZM17.7456 16.568C17.7456 16.4331 17.7545 16.3226 17.772 16.2396C17.788 16.1642 17.8143 16.1077 17.8505 16.0715C17.8839 16.0382 17.9312 16.022 17.9952 16.022C18.0853 16.022 18.1435 16.0564 18.1782 16.1301C18.2192 16.2171 18.2399 16.3612 18.2399 16.5584C18.2399 16.7661 18.2196 16.919 18.1797 17.0129C18.1461 17.0918 18.0875 17.1285 17.9952 17.1285C17.9037 17.1285 17.8444 17.0925 17.8087 17.0149C17.7669 16.9237 17.7456 16.7734 17.7456 16.568Z" fill="#FFEA92"/>
<path d="M18.0421 14.0367C18.0421 13.9728 18.0206 13.9201 17.9783 13.8799C17.9368 13.8408 17.8833 13.821 17.8191 13.821C17.7512 13.821 17.6973 13.8429 17.6588 13.8861C17.6291 13.9194 17.5965 13.9662 17.5596 14.0285L15.5405 17.2909C15.5011 17.3499 15.4819 17.4013 15.4819 17.4479C15.4819 17.5121 15.5095 17.5669 15.5617 17.6065C15.6094 17.6429 15.6592 17.6613 15.7097 17.6613C15.7971 17.6613 15.8734 17.6064 15.9356 17.4996L17.9436 14.2622C18.031 14.1228 18.0421 14.0685 18.0421 14.0367Z" fill="#FFEA92"/>
<path d="M21.3852 22.5902H11.3955C11.3276 22.5902 11.2725 22.5351 11.2725 22.4672V22.1598C11.2725 22.0993 11.2468 22.0413 11.2021 22.0006C11.1567 21.9592 11.0975 21.9396 11.0359 21.9457C10.9273 21.956 10.8423 22.0564 10.8423 22.1743V22.4672C10.8423 22.5351 10.7872 22.5902 10.7193 22.5902H7.61475C7.27578 22.5902 7 22.3144 7 21.9754V19.7316C7 19.6637 7.05508 19.6086 7.12295 19.6086C8.12297 19.6086 8.93648 18.795 8.93648 17.7951C8.93648 16.7951 8.12297 15.9816 7.12295 15.9816C7.05508 15.9816 7 15.9265 7 15.8586V13.6148C7 13.2758 7.27578 13 7.61475 13H10.7193C10.7871 13 10.8422 13.0551 10.8422 13.123V13.3074C10.8422 13.3679 10.8679 13.4259 10.9127 13.4667C10.9581 13.5079 11.0172 13.5275 11.0788 13.5216C11.1875 13.5112 11.2725 13.4108 11.2725 13.2929V13.123C11.2725 13.0551 11.3276 13 11.3954 13H21.3852C21.7242 13 22 13.2758 22 13.6148V21.9754C22 22.3144 21.7242 22.5902 21.3852 22.5902ZM11.5184 22.3443H21.3852C21.5887 22.3443 21.7541 22.1788 21.7541 21.9754V13.6148C21.7541 13.4113 21.5887 13.2459 21.3852 13.2459H11.5184V13.2929C11.5184 13.5361 11.3356 13.7441 11.1022 13.7664C10.9723 13.7784 10.8431 13.7357 10.7473 13.6486C10.6514 13.5614 10.5963 13.437 10.5963 13.3074V13.2459H7.61475C7.41133 13.2459 7.2459 13.4113 7.2459 13.6148V15.7393C8.32443 15.8032 9.18238 16.7008 9.18238 17.7951C9.18238 18.8893 8.32443 19.787 7.2459 19.8509V21.9754C7.2459 22.1788 7.41133 22.3443 7.61475 22.3443H10.5963V22.1743C10.5963 21.9311 10.7791 21.7231 11.0126 21.7009C11.1422 21.6887 11.2717 21.7315 11.3675 21.8186C11.4634 21.9058 11.5184 22.0302 11.5184 22.1598V22.3443Z" fill="#3762CC"/>
</svg>
