<svg width="29" height="32" viewBox="0 0 29 32" fill="none" xmlns="http://www.w3.org/2000/svg">
<ellipse cx="14.4361" cy="17.4361" rx="14.4361" ry="14.4361" fill="#773DCB"/>
<ellipse cx="14.1429" cy="17.1429" rx="13.1429" ry="13.1429" fill="white"/>
<path d="M25.3064 5.81503L25.4207 5.79186C25.5714 5.76129 25.5714 5.54578 25.4207 5.5152L25.3064 5.49204C25.0186 5.43369 24.7936 5.20872 24.7353 4.92088L24.7121 4.80663C24.6815 4.65585 24.466 4.65585 24.4354 4.80663L24.4123 4.92088C24.3539 5.20872 24.1289 5.43369 23.8411 5.49204L23.7269 5.5152C23.5761 5.54578 23.5761 5.76129 23.7269 5.79186L23.8411 5.81503C24.1289 5.87338 24.3539 6.09835 24.4123 6.38619L24.4354 6.50044C24.466 6.65122 24.6815 6.65122 24.7121 6.50044L24.7353 6.38619C24.7936 6.09835 25.0186 5.87338 25.3064 5.81503Z" fill="#F9D366"/>
<path d="M19.1136 0.649501C19.0374 0.649501 18.9756 0.587733 18.9756 0.511536V0.137965C18.9756 0.0617681 19.0374 0 19.1136 0C19.1897 0 19.2515 0.0617681 19.2515 0.137965V0.511536C19.2515 0.587733 19.1897 0.649501 19.1136 0.649501Z" fill="#DD8833"/>
<path d="M19.1136 1.65518C19.0374 1.65518 18.9756 1.59341 18.9756 1.51721V1.14364C18.9756 1.06744 19.0374 1.00568 19.1136 1.00568C19.1897 1.00568 19.2515 1.06744 19.2515 1.14364V1.51721C19.2515 1.59343 19.1897 1.65518 19.1136 1.65518Z" fill="#DD8833"/>
<path d="M19.803 0.965565H19.4295C19.3533 0.965565 19.2915 0.903797 19.2915 0.827601C19.2915 0.751404 19.3533 0.689636 19.4295 0.689636H19.803C19.8792 0.689636 19.941 0.751404 19.941 0.827601C19.941 0.903797 19.8792 0.965565 19.803 0.965565Z" fill="#DD8833"/>
<path d="M18.7972 0.965565H18.4236C18.3474 0.965565 18.2856 0.903797 18.2856 0.827601C18.2856 0.751404 18.3474 0.689636 18.4236 0.689636H18.7972C18.8734 0.689636 18.9351 0.751404 18.9351 0.827601C18.9351 0.903797 18.8734 0.965565 18.7972 0.965565Z" fill="#DD8833"/>
<path d="M0.827906 5.98281C0.751709 5.98281 0.689941 5.92105 0.689941 5.84485V5.47128C0.689941 5.39508 0.751709 5.33331 0.827906 5.33331C0.904102 5.33331 0.96587 5.39508 0.96587 5.47128V5.84485C0.96587 5.92105 0.904102 5.98281 0.827906 5.98281Z" fill="#DD8833"/>
<path d="M0.827906 6.98855C0.751709 6.98855 0.689941 6.92678 0.689941 6.85059V6.47701C0.689941 6.40082 0.751709 6.33905 0.827906 6.33905C0.904102 6.33905 0.96587 6.40082 0.96587 6.47701V6.85059C0.96587 6.92678 0.904102 6.98855 0.827906 6.98855Z" fill="#DD8833"/>
<path d="M1.5174 6.29888H1.14382C1.06763 6.29888 1.00586 6.23711 1.00586 6.16091C1.00586 6.08472 1.06763 6.02295 1.14382 6.02295H1.5174C1.59359 6.02295 1.65536 6.08472 1.65536 6.16091C1.65536 6.23711 1.59359 6.29888 1.5174 6.29888Z" fill="#DD8833"/>
<path d="M0.511536 6.29888H0.137964C0.0617679 6.29888 0 6.23711 0 6.16091C0 6.08472 0.0617679 6.02295 0.137964 6.02295H0.511536C0.587733 6.02295 0.6495 6.08472 0.6495 6.16091C0.6495 6.23711 0.587733 6.29888 0.511536 6.29888Z" fill="#DD8833"/>
<path d="M6.54226 1.4114C6.46607 1.4114 6.4043 1.34963 6.4043 1.27344V0.899866C6.4043 0.82367 6.46607 0.761902 6.54226 0.761902C6.61846 0.761902 6.68023 0.82367 6.68023 0.899866V1.27344C6.68023 1.34962 6.61848 1.4114 6.54226 1.4114Z" fill="#DD8833"/>
<path d="M6.54226 2.41718C6.46607 2.41718 6.4043 2.35541 6.4043 2.27922V1.90566C6.4043 1.82947 6.46607 1.7677 6.54226 1.7677C6.61846 1.7677 6.68023 1.82947 6.68023 1.90566V2.27924C6.68023 2.35541 6.61848 2.41718 6.54226 2.41718Z" fill="#DD8833"/>
<path d="M7.23126 1.72747H6.85769C6.78149 1.72747 6.71973 1.6657 6.71973 1.5895C6.71973 1.51331 6.78149 1.45154 6.85769 1.45154H7.23126C7.30746 1.45154 7.36923 1.51331 7.36923 1.5895C7.36923 1.6657 7.30746 1.72747 7.23126 1.72747Z" fill="#DD8833"/>
<path d="M6.22589 1.72747H5.85232C5.77612 1.72747 5.71436 1.6657 5.71436 1.5895C5.71436 1.51331 5.77612 1.45154 5.85232 1.45154H6.22589C6.30209 1.45154 6.36386 1.51331 6.36386 1.5895C6.36386 1.6657 6.30209 1.72747 6.22589 1.72747Z" fill="#DD8833"/>
<path d="M24.1461 2.50537L24.6929 2.39449C24.9511 2.34214 24.9511 1.97315 24.6929 1.9208L24.1461 1.80992C23.6071 1.70065 23.1859 1.27946 23.0767 0.740527L22.9658 0.193634C22.9134 -0.0645447 22.5444 -0.0645447 22.4921 0.193634L22.3812 0.740527C22.2719 1.27946 21.8507 1.70065 21.3118 1.80992L20.7649 1.9208C20.5067 1.97315 20.5067 2.34214 20.7649 2.39449L21.3118 2.50537C21.8507 2.61464 22.2719 3.03583 22.3812 3.57476L22.4921 4.12165C22.5444 4.37983 22.9134 4.37983 22.9658 4.12165L23.0767 3.57476C23.1859 3.03583 23.6071 2.61465 24.1461 2.50537Z" fill="#F9D366"/>
<path d="M4.65013 3.82888L5.07013 3.74372C5.26841 3.70352 5.26841 3.42013 5.07013 3.37993L4.65013 3.29477C4.23623 3.21084 3.91277 2.88739 3.82886 2.4735L3.7437 2.0535C3.7035 1.85521 3.42011 1.85521 3.37993 2.0535L3.29477 2.4735C3.21084 2.88739 2.88739 3.21086 2.4735 3.29477L2.0535 3.37993C1.85521 3.42013 1.85521 3.70352 2.0535 3.74372L2.4735 3.82888C2.88739 3.9128 3.21086 4.23625 3.29477 4.65014L3.37993 5.07014C3.42013 5.26843 3.70352 5.26843 3.7437 5.07014L3.82886 4.65014C3.91279 4.23627 4.23627 3.91279 4.65013 3.82888Z" fill="#F9D366"/>
<g clip-path="url(#clip0_5211_255)">
<path d="M19.1875 11.875V23.125C19.1876 23.5304 19.0564 23.9249 18.8134 24.2494C18.5705 24.574 18.2289 24.811 17.8398 24.925C17.4836 25.0305 17.7484 25 11.6875 25C11.1902 25 10.7133 24.8025 10.3617 24.4508C10.01 24.0992 9.8125 23.6223 9.8125 23.125V11.875C9.8125 11.3777 10.01 10.9008 10.3617 10.5492C10.7133 10.1975 11.1902 10 11.6875 10H17.3125C17.8098 10 18.2867 10.1975 18.6383 10.5492C18.99 10.9008 19.1875 11.3777 19.1875 11.875Z" fill="#BCE4FF"/>
<path d="M18.4844 12.1094V22.6562C18.4844 23.0292 18.3362 23.3869 18.0725 23.6506C17.8088 23.9143 17.4511 24.0625 17.0781 24.0625H11.9219C11.5489 24.0625 11.1912 23.9143 10.9275 23.6506C10.6638 23.3869 10.5156 23.0292 10.5156 22.6562V12.1094C10.5156 11.7364 10.6638 11.3787 10.9275 11.115C11.1912 10.8513 11.5489 10.7031 11.9219 10.7031H12.693C12.7417 10.7035 12.7891 10.719 12.8286 10.7476C12.8681 10.7762 12.8977 10.8163 12.9133 10.8625L12.9859 11.0852C13.017 11.1787 13.0767 11.2601 13.1567 11.3177C13.2366 11.3754 13.3327 11.4063 13.4313 11.4062H15.5688C15.6673 11.4063 15.7634 11.3754 15.8433 11.3177C15.9233 11.2601 15.983 11.1787 16.0141 11.0852L16.0867 10.8648C16.102 10.8179 16.1318 10.7769 16.1718 10.7479C16.2118 10.7188 16.26 10.7032 16.3094 10.7031H17.0781C17.4511 10.7031 17.8088 10.8513 18.0725 11.115C18.3362 11.3787 18.4844 11.7364 18.4844 12.1094Z" fill="white"/>
<path d="M15.9062 14.4531C15.8441 14.4531 15.7845 14.4284 15.7405 14.3845C15.6966 14.3405 15.6719 14.2809 15.6719 14.2188V13.75C15.6719 13.4392 15.5484 13.1411 15.3286 12.9214C15.1089 12.7016 14.8108 12.5781 14.5 12.5781C14.1892 12.5781 13.8911 12.7016 13.6714 12.9214C13.4516 13.1411 13.3281 13.4392 13.3281 13.75V14.2188C13.3281 14.2809 13.3034 14.3405 13.2595 14.3845C13.2155 14.4284 13.1559 14.4531 13.0938 14.4531C13.0316 14.4531 12.972 14.4284 12.928 14.3845C12.8841 14.3405 12.8594 14.2809 12.8594 14.2188V13.75C12.8594 13.3149 13.0322 12.8976 13.3399 12.5899C13.6476 12.2822 14.0649 12.1094 14.5 12.1094C14.9351 12.1094 15.3524 12.2822 15.6601 12.5899C15.9678 12.8976 16.1406 13.3149 16.1406 13.75V14.2188C16.1406 14.2809 16.1159 14.3405 16.072 14.3845C16.028 14.4284 15.9684 14.4531 15.9062 14.4531Z" fill="#FFAC00"/>
<path d="M16.3326 13.9844H12.667C12.4081 13.9844 12.1982 14.1942 12.1982 14.4531V17.7344C12.1982 17.9933 12.4081 18.2031 12.667 18.2031H16.3326C16.5915 18.2031 16.8014 17.9933 16.8014 17.7344V14.4531C16.8014 14.1942 16.5915 13.9844 16.3326 13.9844Z" fill="#00BEBD"/>
<path d="M15.9062 15.1562C16.0357 15.1562 16.1406 15.0513 16.1406 14.9219C16.1406 14.7924 16.0357 14.6875 15.9062 14.6875C15.7768 14.6875 15.6719 14.7924 15.6719 14.9219C15.6719 15.0513 15.7768 15.1562 15.9062 15.1562Z" fill="#F3F3F3"/>
<path d="M15.9062 16.0938C16.0357 16.0938 16.1406 15.9888 16.1406 15.8594C16.1406 15.7299 16.0357 15.625 15.9062 15.625C15.7768 15.625 15.6719 15.7299 15.6719 15.8594C15.6719 15.9888 15.7768 16.0938 15.9062 16.0938Z" fill="#F3F3F3"/>
<path d="M15.2031 15.8594C15.2035 15.7304 15.1684 15.6038 15.1016 15.4934C15.0348 15.3831 14.939 15.2932 14.8245 15.2337C14.7101 15.1741 14.5815 15.1472 14.4528 15.1559C14.3241 15.1645 14.2003 15.2084 14.0949 15.2828C13.9894 15.3571 13.9065 15.459 13.8551 15.5773C13.8037 15.6956 13.7858 15.8258 13.8035 15.9535C13.8211 16.0813 13.8735 16.2018 13.9551 16.3017C14.0366 16.4017 14.144 16.4773 14.2656 16.5203V17.0313C14.2656 17.0934 14.2903 17.153 14.3343 17.197C14.3782 17.241 14.4378 17.2656 14.5 17.2656C14.5622 17.2656 14.6218 17.241 14.6657 17.197C14.7097 17.153 14.7344 17.0934 14.7344 17.0313V16.5203C14.8711 16.472 14.9896 16.3825 15.0735 16.2642C15.1574 16.1458 15.2027 16.0045 15.2031 15.8594Z" fill="#BCE4FF"/>
<path d="M18.4844 18.6719H19.1875V22.4219H18.4844V18.6719Z" fill="#00BEBD"/>
<path d="M9.8125 18.6719H10.5156V22.4219H9.8125V18.6719Z" fill="#00BEBD"/>
<path d="M10.5156 18.6719H18.4844V22.4219H10.5156V18.6719Z" fill="#F3F3F3"/>
<path d="M20.125 19.1406H8.875C8.61612 19.1406 8.40625 19.3505 8.40625 19.6094V21.4844C8.40625 21.7433 8.61612 21.9531 8.875 21.9531H20.125C20.3839 21.9531 20.5938 21.7433 20.5938 21.4844V19.6094C20.5938 19.3505 20.3839 19.1406 20.125 19.1406Z" fill="#FFAC00"/>
<path d="M10.2812 21.4844C10.2191 21.4844 10.1595 21.4597 10.1155 21.4157C10.0716 21.3718 10.0469 21.3122 10.0469 21.25V19.8438C10.0469 19.7816 10.0716 19.722 10.1155 19.678C10.1595 19.6341 10.2191 19.6094 10.2812 19.6094C10.3434 19.6094 10.403 19.6341 10.447 19.678C10.4909 19.722 10.5156 19.7816 10.5156 19.8438V21.25C10.5156 21.3122 10.4909 21.3718 10.447 21.4157C10.403 21.4597 10.3434 21.4844 10.2812 21.4844Z" fill="#F3F3F3"/>
<path d="M10.8909 21.1328C10.8019 21.1328 10.8675 21.1563 9.55501 20.3992C9.50093 20.3682 9.46141 20.3169 9.44515 20.2566C9.42888 20.1964 9.43721 20.1322 9.46829 20.0781C9.49937 20.0241 9.55066 19.9845 9.61088 19.9683C9.67109 19.952 9.7353 19.9603 9.78938 19.9914L11.0081 20.6945C11.0533 20.7201 11.0887 20.76 11.1087 20.8078C11.1288 20.8557 11.1324 20.9089 11.119 20.959C11.1056 21.0091 11.0759 21.0534 11.0347 21.0849C10.9934 21.1163 10.9428 21.1332 10.8909 21.1328Z" fill="#F3F3F3"/>
<path d="M9.67205 21.1328C9.62015 21.1332 9.56961 21.1163 9.52833 21.0849C9.48706 21.0534 9.45739 21.0091 9.44399 20.959C9.43058 20.9089 9.4342 20.8557 9.45426 20.8078C9.47433 20.76 9.50971 20.7201 9.55486 20.6945L10.7736 19.9914C10.8004 19.976 10.8299 19.9661 10.8606 19.9621C10.8912 19.9581 10.9223 19.9602 10.9521 19.9683C10.9819 19.9763 11.0099 19.9902 11.0343 20.009C11.0588 20.0279 11.0793 20.0514 11.0947 20.0781C11.1101 20.1049 11.1201 20.1345 11.124 20.1651C11.128 20.1957 11.1259 20.2268 11.1178 20.2566C11.1098 20.2865 11.0959 20.3144 11.0771 20.3389C11.0582 20.3633 11.0348 20.3838 11.008 20.3992C9.69314 21.1563 9.76111 21.1328 9.67205 21.1328Z" fill="#F3F3F3"/>
<path d="M13.0938 21.4844C13.0316 21.4844 12.972 21.4597 12.928 21.4157C12.8841 21.3718 12.8594 21.3122 12.8594 21.25V19.8438C12.8594 19.7816 12.8841 19.722 12.928 19.678C12.972 19.6341 13.0316 19.6094 13.0938 19.6094C13.1559 19.6094 13.2155 19.6341 13.2595 19.678C13.3034 19.722 13.3281 19.7816 13.3281 19.8438V21.25C13.3281 21.3122 13.3034 21.3718 13.2595 21.4157C13.2155 21.4597 13.1559 21.4844 13.0938 21.4844Z" fill="#F3F3F3"/>
<path d="M13.7034 21.1328C13.6144 21.1328 13.68 21.1563 12.3675 20.3992C12.3134 20.3682 12.2739 20.3169 12.2576 20.2566C12.2414 20.1964 12.2497 20.1322 12.2808 20.0781C12.3119 20.0241 12.3632 19.9845 12.4234 19.9683C12.4836 19.952 12.5478 19.9603 12.6019 19.9914L13.8206 20.6945C13.8658 20.7201 13.9012 20.76 13.9212 20.8078C13.9413 20.8557 13.9449 20.9089 13.9315 20.959C13.9181 21.0091 13.8884 21.0534 13.8472 21.0849C13.8059 21.1163 13.7553 21.1332 13.7034 21.1328Z" fill="#F3F3F3"/>
<path d="M12.4845 21.1328C12.4327 21.1332 12.3821 21.1163 12.3408 21.0849C12.2996 21.0534 12.2699 21.0091 12.2565 20.959C12.2431 20.9089 12.2467 20.8557 12.2668 20.8078C12.2868 20.76 12.3222 20.7201 12.3674 20.6945L13.5861 19.9914C13.6129 19.976 13.6424 19.9661 13.6731 19.9621C13.7037 19.9581 13.7348 19.9602 13.7646 19.9683C13.7944 19.9763 13.8224 19.9902 13.8468 20.009C13.8713 20.0279 13.8918 20.0514 13.9072 20.0781C13.9226 20.1049 13.9326 20.1345 13.9365 20.1651C13.9405 20.1957 13.9384 20.2268 13.9303 20.2566C13.9223 20.2865 13.9084 20.3144 13.8896 20.3389C13.8707 20.3633 13.8473 20.3838 13.8205 20.3992C12.5056 21.1563 12.5736 21.1328 12.4845 21.1328Z" fill="#F3F3F3"/>
<path d="M15.9062 21.4844C15.8441 21.4844 15.7845 21.4597 15.7405 21.4157C15.6966 21.3718 15.6719 21.3122 15.6719 21.25V19.8438C15.6719 19.7816 15.6966 19.722 15.7405 19.678C15.7845 19.6341 15.8441 19.6094 15.9062 19.6094C15.9684 19.6094 16.028 19.6341 16.072 19.678C16.1159 19.722 16.1406 19.7816 16.1406 19.8438V21.25C16.1406 21.3122 16.1159 21.3718 16.072 21.4157C16.028 21.4597 15.9684 21.4844 15.9062 21.4844Z" fill="#F3F3F3"/>
<path d="M16.5159 21.1328C16.4269 21.1328 16.4925 21.1563 15.18 20.3992C15.1259 20.3682 15.0864 20.3169 15.0701 20.2566C15.0539 20.1964 15.0622 20.1322 15.0933 20.0781C15.1244 20.0241 15.1757 19.9845 15.2359 19.9683C15.2961 19.952 15.3603 19.9603 15.4144 19.9914L16.6331 20.6945C16.6783 20.7201 16.7137 20.76 16.7337 20.8078C16.7538 20.8557 16.7574 20.9089 16.744 20.959C16.7306 21.0091 16.7009 21.0534 16.6597 21.0849C16.6184 21.1163 16.5678 21.1332 16.5159 21.1328Z" fill="#F3F3F3"/>
<path d="M15.297 21.1328C15.2452 21.1332 15.1946 21.1163 15.1533 21.0849C15.1121 21.0534 15.0824 21.0091 15.069 20.959C15.0556 20.9089 15.0592 20.8557 15.0793 20.8078C15.0993 20.76 15.1347 20.7201 15.1799 20.6945L16.3986 19.9914C16.4254 19.976 16.4549 19.9661 16.4856 19.9621C16.5162 19.9581 16.5473 19.9602 16.5771 19.9683C16.6069 19.9763 16.6349 19.9902 16.6593 20.009C16.6838 20.0279 16.7043 20.0514 16.7197 20.0781C16.7351 20.1049 16.7451 20.1345 16.749 20.1651C16.753 20.1957 16.7509 20.2268 16.7428 20.2566C16.7348 20.2865 16.7209 20.3144 16.7021 20.3389C16.6832 20.3633 16.6598 20.3838 16.633 20.3992C15.3181 21.1563 15.3861 21.1328 15.297 21.1328Z" fill="#F3F3F3"/>
<path d="M18.7188 21.4844C18.6566 21.4844 18.597 21.4597 18.553 21.4157C18.5091 21.3718 18.4844 21.3122 18.4844 21.25V19.8438C18.4844 19.7816 18.5091 19.722 18.553 19.678C18.597 19.6341 18.6566 19.6094 18.7188 19.6094C18.7809 19.6094 18.8405 19.6341 18.8845 19.678C18.9284 19.722 18.9531 19.7816 18.9531 19.8438V21.25C18.9531 21.3122 18.9284 21.3718 18.8845 21.4157C18.8405 21.4597 18.7809 21.4844 18.7188 21.4844Z" fill="#F3F3F3"/>
<path d="M19.3284 21.1328C19.2394 21.1328 19.305 21.1563 17.9925 20.3992C17.9384 20.3682 17.8989 20.3169 17.8826 20.2566C17.8664 20.1964 17.8747 20.1322 17.9058 20.0781C17.9369 20.0241 17.9882 19.9845 18.0484 19.9683C18.1086 19.952 18.1728 19.9603 18.2269 19.9914L19.4456 20.6945C19.4908 20.7201 19.5262 20.76 19.5462 20.8078C19.5663 20.8557 19.5699 20.9089 19.5565 20.959C19.5431 21.0091 19.5134 21.0534 19.4722 21.0849C19.4309 21.1163 19.3803 21.1332 19.3284 21.1328Z" fill="#F3F3F3"/>
<path d="M18.1095 21.1328C18.0577 21.1332 18.0071 21.1163 17.9658 21.0849C17.9246 21.0534 17.8949 21.0091 17.8815 20.959C17.8681 20.9089 17.8717 20.8557 17.8918 20.8078C17.9118 20.76 17.9472 20.7201 17.9924 20.6945L19.2111 19.9914C19.2379 19.976 19.2674 19.9661 19.2981 19.9621C19.3287 19.9581 19.3598 19.9602 19.3896 19.9683C19.4194 19.9763 19.4474 19.9902 19.4718 20.009C19.4963 20.0279 19.5168 20.0514 19.5322 20.0781C19.5476 20.1049 19.5576 20.1345 19.5615 20.1651C19.5655 20.1957 19.5634 20.2268 19.5553 20.2566C19.5473 20.2865 19.5334 20.3144 19.5146 20.3389C19.4957 20.3633 19.4723 20.3838 19.4455 20.3992C18.1306 21.1563 18.1986 21.1328 18.1095 21.1328Z" fill="#F3F3F3"/>
<path d="M16.8438 23.5938H12.1562C12.0941 23.5938 12.0345 23.5691 11.9905 23.5251C11.9466 23.4811 11.9219 23.4215 11.9219 23.3594C11.9219 23.2972 11.9466 23.2376 11.9905 23.1936C12.0345 23.1497 12.0941 23.125 12.1562 23.125H16.8438C16.9059 23.125 16.9655 23.1497 17.0095 23.1936C17.0534 23.2376 17.0781 23.2972 17.0781 23.3594C17.0781 23.4215 17.0534 23.4811 17.0095 23.5251C16.9655 23.5691 16.9059 23.5938 16.8438 23.5938Z" fill="#D9D9D9"/>
</g>
<defs>
<clipPath id="clip0_5211_255">
<rect width="15" height="15" fill="white" transform="translate(7 10)"/>
</clipPath>
</defs>
</svg>
