<svg width="30" height="32" viewBox="0 0 30 32" fill="none" xmlns="http://www.w3.org/2000/svg">
<ellipse cx="14.7569" cy="17.5639" rx="14.4361" ry="14.4361" fill="#773DCB"/>
<ellipse cx="14.1429" cy="17.1429" rx="13.1429" ry="13.1429" fill="white"/>
<path d="M25.3064 5.81503L25.4207 5.79186C25.5714 5.76129 25.5714 5.54578 25.4207 5.5152L25.3064 5.49204C25.0186 5.43369 24.7936 5.20872 24.7353 4.92088L24.7121 4.80663C24.6815 4.65585 24.466 4.65585 24.4354 4.80663L24.4123 4.92088C24.3539 5.20872 24.1289 5.43369 23.8411 5.49204L23.7269 5.5152C23.5761 5.54578 23.5761 5.76129 23.7269 5.79186L23.8411 5.81503C24.1289 5.87338 24.3539 6.09835 24.4123 6.38619L24.4354 6.50044C24.466 6.65122 24.6815 6.65122 24.7121 6.50044L24.7353 6.38619C24.7936 6.09835 25.0186 5.87338 25.3064 5.81503Z" fill="#F9D366"/>
<path d="M19.1136 0.649501C19.0374 0.649501 18.9756 0.587733 18.9756 0.511536V0.137965C18.9756 0.0617681 19.0374 0 19.1136 0C19.1897 0 19.2515 0.0617681 19.2515 0.137965V0.511536C19.2515 0.587733 19.1897 0.649501 19.1136 0.649501Z" fill="#DD8833"/>
<path d="M19.1136 1.65518C19.0374 1.65518 18.9756 1.59341 18.9756 1.51721V1.14364C18.9756 1.06744 19.0374 1.00568 19.1136 1.00568C19.1897 1.00568 19.2515 1.06744 19.2515 1.14364V1.51721C19.2515 1.59343 19.1897 1.65518 19.1136 1.65518Z" fill="#DD8833"/>
<path d="M19.803 0.965565H19.4295C19.3533 0.965565 19.2915 0.903797 19.2915 0.827601C19.2915 0.751404 19.3533 0.689636 19.4295 0.689636H19.803C19.8792 0.689636 19.941 0.751404 19.941 0.827601C19.941 0.903797 19.8792 0.965565 19.803 0.965565Z" fill="#DD8833"/>
<path d="M18.7972 0.965565H18.4236C18.3474 0.965565 18.2856 0.903797 18.2856 0.827601C18.2856 0.751404 18.3474 0.689636 18.4236 0.689636H18.7972C18.8734 0.689636 18.9351 0.751404 18.9351 0.827601C18.9351 0.903797 18.8734 0.965565 18.7972 0.965565Z" fill="#DD8833"/>
<path d="M0.827906 5.98281C0.751709 5.98281 0.689941 5.92105 0.689941 5.84485V5.47128C0.689941 5.39508 0.751709 5.33331 0.827906 5.33331C0.904102 5.33331 0.96587 5.39508 0.96587 5.47128V5.84485C0.96587 5.92105 0.904102 5.98281 0.827906 5.98281Z" fill="#DD8833"/>
<path d="M0.827906 6.98855C0.751709 6.98855 0.689941 6.92678 0.689941 6.85059V6.47701C0.689941 6.40082 0.751709 6.33905 0.827906 6.33905C0.904102 6.33905 0.96587 6.40082 0.96587 6.47701V6.85059C0.96587 6.92678 0.904102 6.98855 0.827906 6.98855Z" fill="#DD8833"/>
<path d="M1.5174 6.29888H1.14382C1.06763 6.29888 1.00586 6.23711 1.00586 6.16091C1.00586 6.08472 1.06763 6.02295 1.14382 6.02295H1.5174C1.59359 6.02295 1.65536 6.08472 1.65536 6.16091C1.65536 6.23711 1.59359 6.29888 1.5174 6.29888Z" fill="#DD8833"/>
<path d="M0.511536 6.29888H0.137964C0.0617679 6.29888 0 6.23711 0 6.16091C0 6.08472 0.0617679 6.02295 0.137964 6.02295H0.511536C0.587733 6.02295 0.6495 6.08472 0.6495 6.16091C0.6495 6.23711 0.587733 6.29888 0.511536 6.29888Z" fill="#DD8833"/>
<path d="M6.54226 1.4114C6.46607 1.4114 6.4043 1.34963 6.4043 1.27344V0.899866C6.4043 0.82367 6.46607 0.761902 6.54226 0.761902C6.61846 0.761902 6.68023 0.82367 6.68023 0.899866V1.27344C6.68023 1.34962 6.61848 1.4114 6.54226 1.4114Z" fill="#DD8833"/>
<path d="M6.54226 2.41718C6.46607 2.41718 6.4043 2.35541 6.4043 2.27922V1.90566C6.4043 1.82947 6.46607 1.7677 6.54226 1.7677C6.61846 1.7677 6.68023 1.82947 6.68023 1.90566V2.27924C6.68023 2.35541 6.61848 2.41718 6.54226 2.41718Z" fill="#DD8833"/>
<path d="M7.23126 1.72747H6.85769C6.78149 1.72747 6.71973 1.6657 6.71973 1.5895C6.71973 1.51331 6.78149 1.45154 6.85769 1.45154H7.23126C7.30746 1.45154 7.36923 1.51331 7.36923 1.5895C7.36923 1.6657 7.30746 1.72747 7.23126 1.72747Z" fill="#DD8833"/>
<path d="M6.22589 1.72747H5.85232C5.77612 1.72747 5.71436 1.6657 5.71436 1.5895C5.71436 1.51331 5.77612 1.45154 5.85232 1.45154H6.22589C6.30209 1.45154 6.36386 1.51331 6.36386 1.5895C6.36386 1.6657 6.30209 1.72747 6.22589 1.72747Z" fill="#DD8833"/>
<path d="M24.1461 2.50537L24.6929 2.39449C24.9511 2.34214 24.9511 1.97315 24.6929 1.9208L24.1461 1.80992C23.6071 1.70065 23.1859 1.27946 23.0767 0.740527L22.9658 0.193634C22.9134 -0.0645447 22.5444 -0.0645447 22.4921 0.193634L22.3812 0.740527C22.2719 1.27946 21.8507 1.70065 21.3118 1.80992L20.7649 1.9208C20.5067 1.97315 20.5067 2.34214 20.7649 2.39449L21.3118 2.50537C21.8507 2.61464 22.2719 3.03583 22.3812 3.57476L22.4921 4.12165C22.5444 4.37983 22.9134 4.37983 22.9658 4.12165L23.0767 3.57476C23.1859 3.03583 23.6071 2.61465 24.1461 2.50537Z" fill="#F9D366"/>
<path d="M4.65013 3.82888L5.07013 3.74372C5.26841 3.70352 5.26841 3.42013 5.07013 3.37993L4.65013 3.29477C4.23623 3.21084 3.91277 2.88739 3.82886 2.4735L3.7437 2.0535C3.7035 1.85521 3.42011 1.85521 3.37993 2.0535L3.29477 2.4735C3.21084 2.88739 2.88739 3.21086 2.4735 3.29477L2.0535 3.37993C1.85521 3.42013 1.85521 3.70352 2.0535 3.74372L2.4735 3.82888C2.88739 3.9128 3.21086 4.23625 3.29477 4.65014L3.37993 5.07014C3.42013 5.26843 3.70352 5.26843 3.7437 5.07014L3.82886 4.65014C3.91279 4.23627 4.23627 3.91279 4.65013 3.82888Z" fill="#F9D366"/>
<g clip-path="url(#clip0_5211_254)">
<path d="M16.5224 14.1175H8.44834C8.20074 14.1175 8 13.9168 8 13.6692V13.4133C8 12.1773 9.00561 11.1716 10.2417 11.1716H16.5224C16.77 11.1716 16.9708 11.3724 16.9708 11.62V13.6691C16.9708 13.9168 16.77 14.1175 16.5224 14.1175Z" fill="#FFC339"/>
<path d="M18.5207 22.8284H10.2417C9.00561 22.8284 8 21.8227 8 20.5867V13.6692C8 13.4216 8.20074 13.2208 8.44834 13.2208H18.5207C18.7683 13.2208 18.969 13.4216 18.969 13.6692V16.8071C18.969 17.0547 18.7683 17.2554 18.5207 17.2554H15.5843V18.7937H18.5207C18.7683 18.7937 18.969 18.9945 18.969 19.2421V22.38C18.969 22.6276 18.7683 22.8284 18.5207 22.8284Z" fill="#FFD76E"/>
<path d="M18.5207 18.7938H15.5843V18.0246H8V20.5867C8 21.8228 9.00561 22.8284 10.2417 22.8284H18.5207C18.7683 22.8284 18.969 22.6276 18.969 22.38V19.2421C18.969 18.9945 18.7683 18.7938 18.5207 18.7938Z" fill="#FFC339"/>
<path d="M19.5513 19.6904H15.1358C14.8882 19.6904 14.6875 19.4897 14.6875 19.2421V16.8071C14.6875 16.5595 14.8882 16.3588 15.1358 16.3588H19.5513C19.7989 16.3588 19.9996 16.5595 19.9996 16.8071V19.2421C19.9996 19.4897 19.7989 19.6904 19.5513 19.6904Z" fill="#FFC339"/>
<path d="M14.688 18.0246V19.2421C14.688 19.4897 14.8887 19.6904 15.1363 19.6904H19.5518C19.7994 19.6904 20.0001 19.4897 20.0001 19.2421V18.0246H14.688Z" fill="#FFB61C"/>
<path d="M16.6519 18.3776C16.8468 18.3776 17.0049 18.2195 17.0049 18.0245C17.0049 17.8296 16.8468 17.6715 16.6519 17.6715C16.4569 17.6715 16.2988 17.8296 16.2988 18.0245C16.2988 18.2195 16.4569 18.3776 16.6519 18.3776Z" fill="#FFD76E"/>
<path d="M16.2988 18.0246C16.2988 18.2196 16.4569 18.3776 16.6519 18.3776C16.8469 18.3776 17.005 18.2195 17.005 18.0246H16.2988Z" fill="#FFC339"/>
</g>
<defs>
<clipPath id="clip0_5211_254">
<rect width="12" height="12" fill="white" transform="translate(8 11)"/>
</clipPath>
</defs>
</svg>
