<svg width="70" height="70" viewBox="0 0 70 70" fill="none" xmlns="http://www.w3.org/2000/svg">
<circle opacity="0.1" cx="35" cy="35" r="35" fill="url(#paint0_linear_573_863)"/>
<path d="M49 43.4V17.5H51.1L52.5 18.9V44.8L51.1 44.1L49 43.4Z" fill="#FFE867"/>
<path d="M22.4 52.5001V48.3001L19.6 47.6001L17.5 49.0001V50.4001L18.2 52.5001H22.4Z" fill="#FFE867"/>
<path d="M24.5 35.7V31.5H28.7V35.7H27.3L26.6 37.1L25.9 36.4L24.5 35.7Z" fill="#FFE867"/>
<path d="M28 25.2L29.4 26.6H30.8L32.2 25.9L32.9 23.8L32.2 22.4L31.5 21H29.4L28 21.7V23.8V25.2Z" fill="#FFE867"/>
<path d="M39.2031 35.7001V32.9001H42.7031V35.7001H39.2031Z" fill="#FFE867"/>
<path d="M39.2031 30.1V27.3H42.0031V30.1H39.2031Z" fill="#FFE867"/>
<path d="M39.2031 24.5002V21.7002H42.0031V24.5002H39.2031Z" fill="#FFE867"/>
<path d="M30.1457 24.0803C30.4808 24.0803 30.7524 23.8087 30.7524 23.4736C30.7524 23.1386 30.4808 22.8669 30.1457 22.8669C29.8107 22.8669 29.5391 23.1386 29.5391 23.4736C29.5391 23.8087 29.8107 24.0803 30.1457 24.0803Z" fill="#595959"/>
<path d="M39.2473 25.2935H42.2806C42.4415 25.2935 42.5958 25.2296 42.7096 25.1159C42.8234 25.0021 42.8873 24.8478 42.8873 24.6869V21.6535C42.8873 21.4926 42.8234 21.3383 42.7096 21.2246C42.5958 21.1108 42.4415 21.0469 42.2806 21.0469H39.2473C39.0864 21.0469 38.9321 21.1108 38.8183 21.2246C38.7045 21.3383 38.6406 21.4926 38.6406 21.6535V24.6869C38.6406 24.8478 38.7045 25.0021 38.8183 25.1159C38.9321 25.2296 39.0864 25.2935 39.2473 25.2935ZM39.854 22.2602H41.674V24.0802H39.854V22.2602Z" fill="#595959"/>
<path d="M39.2473 30.7535H42.2806C42.4415 30.7535 42.5958 30.6896 42.7096 30.5758C42.8234 30.462 42.8873 30.3077 42.8873 30.1468V27.1135C42.8873 26.9526 42.8234 26.7983 42.7096 26.6845C42.5958 26.5708 42.4415 26.5068 42.2806 26.5068H39.2473C39.0864 26.5068 38.9321 26.5708 38.8183 26.6845C38.7045 26.7983 38.6406 26.9526 38.6406 27.1135V30.1468C38.6406 30.3077 38.7045 30.462 38.8183 30.5758C38.9321 30.6896 39.0864 30.7535 39.2473 30.7535ZM39.854 27.7202H41.674V29.5402H39.854V27.7202Z" fill="#595959"/>
<path d="M39.2473 36.2135H42.2806C42.4415 36.2135 42.5958 36.1495 42.7096 36.0358C42.8234 35.922 42.8873 35.7677 42.8873 35.6068V32.5735C42.8873 32.4126 42.8234 32.2583 42.7096 32.1445C42.5958 32.0307 42.4415 31.9668 42.2806 31.9668H39.2473C39.0864 31.9668 38.9321 32.0307 38.8183 32.1445C38.7045 32.2583 38.6406 32.4126 38.6406 32.5735V35.6068C38.6406 35.7677 38.7045 35.922 38.8183 36.0358C38.9321 36.1495 39.0864 36.2135 39.2473 36.2135ZM39.854 33.1801H41.674V35.0001H39.854V33.1801Z" fill="#595959"/>
<path d="M31.3618 44.707H30.1484V45.9204H31.3618V44.707Z" fill="#595959"/>
<path d="M28.9321 44.707H27.7188V45.9204H28.9321V44.707Z" fill="#595959"/>
<path d="M26.5063 44.707H25.293V45.9204H26.5063V44.707Z" fill="#595959"/>
<path d="M33.7866 38.6404H22.8666C21.9012 38.6404 20.9753 39.0239 20.2927 39.7066C19.6101 40.3892 19.2266 41.315 19.2266 42.2804C19.2266 43.2458 19.6101 44.1717 20.2927 44.8543C20.9753 45.5369 21.9012 45.9204 22.8666 45.9204H24.0799V44.7071H22.8666C22.223 44.7071 21.6057 44.4514 21.1506 43.9963C20.6956 43.5413 20.4399 42.924 20.4399 42.2804C20.4399 41.6368 20.6956 41.0196 21.1506 40.5645C21.6057 40.1094 22.223 39.8538 22.8666 39.8538H33.7866C34.7519 39.8538 35.6778 39.4703 36.3604 38.7876C37.0431 38.105 37.4266 37.1791 37.4266 36.2138C37.4266 35.2484 37.0431 34.3225 36.3604 33.6399C35.6778 32.9573 34.7519 32.5738 33.7866 32.5738H29.5399V31.3604C29.5399 31.1995 29.476 31.0452 29.3622 30.9314C29.2484 30.8177 29.0941 30.7538 28.9332 30.7538H24.0799C23.919 30.7538 23.7647 30.8177 23.6509 30.9314C23.5371 31.0452 23.4732 31.1995 23.4732 31.3604V32.5738H22.8666C22.223 32.5738 21.6057 32.3181 21.1506 31.863C20.6956 31.4079 20.4399 30.7907 20.4399 30.1471C20.4399 29.5035 20.6956 28.8863 21.1506 28.4312C21.6057 27.9761 22.223 27.7204 22.8666 27.7204H33.7866C34.7519 27.7202 35.6776 27.3366 36.3602 26.654C37.0427 25.9715 37.4263 25.0457 37.4266 24.0804V20.4404H36.2132V24.0804C36.213 24.7239 35.9572 25.341 35.5022 25.7961C35.0472 26.2511 34.4301 26.5068 33.7866 26.5071H31.6112L32.1582 25.9601C32.4831 25.6369 32.7407 25.2525 32.9161 24.8291C33.0915 24.4057 33.1811 23.9518 33.1799 23.4935V23.4738C33.1799 22.6693 32.8603 21.8977 32.2915 21.3289C31.7226 20.76 30.9511 20.4404 30.1466 20.4404C29.3421 20.4404 28.5705 20.76 28.0017 21.3289C27.4328 21.8977 27.1132 22.6693 27.1132 23.4738V23.4935C27.112 23.9518 27.2016 24.4057 27.377 24.8291C27.5524 25.2525 27.81 25.6369 28.1349 25.9601L28.6819 26.5071H22.8666C21.9012 26.5071 20.9753 26.8906 20.2927 27.5732C19.6101 28.2559 19.2266 29.1817 19.2266 30.1471C19.2266 31.1125 19.6101 32.0383 20.2927 32.721C20.9753 33.4036 21.9012 33.7871 22.8666 33.7871H23.4732V35.6071C23.4732 35.768 23.5371 35.9223 23.6509 36.0361C23.7647 36.1498 23.919 36.2138 24.0799 36.2138H24.9686L26.0018 37.7636C26.0572 37.8467 26.1323 37.9149 26.2203 37.962C26.3084 38.0091 26.4067 38.0337 26.5066 38.0337C26.6064 38.0337 26.7047 38.0091 26.7928 37.962C26.8808 37.9149 26.9559 37.8467 27.0113 37.7636L28.0445 36.2138H28.9332C29.0941 36.2138 29.2484 36.1498 29.3622 36.0361C29.476 35.9223 29.5399 35.768 29.5399 35.6071V33.7871H33.7866C34.4302 33.7871 35.0474 34.0428 35.5025 34.4978C35.9576 34.9529 36.2132 35.5702 36.2132 36.2138C36.2132 36.8574 35.9576 37.4746 35.5025 37.9297C35.0474 38.3848 34.4302 38.6404 33.7866 38.6404ZM28.3266 23.4738C28.3266 22.9911 28.5183 22.5281 28.8596 22.1868C29.2009 21.8455 29.6639 21.6538 30.1466 21.6538C30.6293 21.6538 31.0922 21.8455 31.4335 22.1868C31.7748 22.5281 31.9666 22.9911 31.9666 23.4738V23.4935C31.9674 23.7924 31.9089 24.0884 31.7945 24.3646C31.6802 24.6407 31.5121 24.8914 31.3002 25.1021L30.1466 26.2559L28.9929 25.1021C28.781 24.8914 28.613 24.6407 28.4986 24.3646C28.3842 24.0884 28.3257 23.7924 28.3266 23.4935V23.4738ZM28.3266 35.0004H27.7199C27.62 35.0004 27.5217 35.0251 27.4337 35.0722C27.3456 35.1193 27.2705 35.1875 27.2151 35.2705L26.5066 36.3334L25.798 35.2705C25.7426 35.1875 25.6675 35.1193 25.5795 35.0722C25.4914 35.0251 25.3931 35.0004 25.2932 35.0004H24.6866V31.9671H28.3266V35.0004Z" fill="#595959"/>
<path d="M50.7741 16.8003H48.9541C48.7932 16.8003 48.6389 16.8642 48.5251 16.978C48.4114 17.0918 48.3474 17.2461 48.3474 17.407V18.0136H19.8341C19.0299 18.0145 18.2589 18.3344 17.6902 18.9031C17.1216 19.4717 16.8017 20.2427 16.8008 21.047V50.167C16.8017 50.9712 17.1216 51.7422 17.6902 52.3108C18.2589 52.8795 19.0299 53.1994 19.8341 53.2003H22.2608C22.4217 53.2003 22.576 53.1364 22.6898 53.0226C22.8035 52.9088 22.8674 52.7545 22.8674 52.5936V48.347H34.3326C34.3288 48.3545 34.325 48.3626 34.3218 48.3705C34.3187 48.3772 34.3161 48.384 34.3133 48.3909C34.3069 48.4072 34.3011 48.4236 34.2961 48.4404C34.2948 48.4446 34.2929 48.4486 34.2917 48.4528L33.2029 52.3741C33.1728 52.4826 33.1734 52.5975 33.2049 52.7057C33.2363 52.8139 33.2972 52.9112 33.3808 52.9867C33.4645 53.0622 33.5675 53.1129 33.6783 53.1332C33.7891 53.1535 33.9034 53.1425 34.0083 53.1015L37.799 51.6198C37.8016 51.6188 37.804 51.6173 37.8066 51.6162C37.8252 51.6087 37.8433 51.6002 37.8611 51.5908C37.8646 51.5889 37.8686 51.5873 37.8718 51.5854C37.8932 51.5736 37.9138 51.5605 37.9336 51.5462C37.9368 51.5439 37.9396 51.5413 37.9427 51.5386C37.9584 51.5269 37.9736 51.5144 37.9882 51.5007C37.9947 51.4948 38.0006 51.4885 38.0068 51.4823C38.013 51.4761 38.0214 51.4685 38.0283 51.4608L40.8405 48.347H50.7741C51.4175 48.3462 52.0343 48.0903 52.4892 47.6354C52.9442 47.1805 53.2001 46.5637 53.2008 45.9203V19.227C53.2014 18.9514 53.1543 18.6778 53.0615 18.4183C52.894 17.9455 52.5842 17.5361 52.1746 17.2463C51.765 16.9566 51.2758 16.8008 50.7741 16.8003ZM49.5608 18.0136H50.7741C51.0254 18.014 51.2704 18.0923 51.4754 18.2378C51.6804 18.3832 51.8353 18.5886 51.9187 18.8256C51.9646 18.9544 51.9879 19.0902 51.9874 19.227V43.8197C51.6189 43.6057 51.2003 43.4932 50.7741 43.4936H49.5608V38.2611C49.6556 37.8799 49.6556 37.4812 49.5608 37.0999V18.0136ZM37.5341 50.1979L37.0839 49.7914L44.8093 41.2367L45.2595 41.6432L37.5341 50.1979ZM43.4585 40.0168L43.9088 40.4234L36.1838 48.9781L35.7335 48.5716L43.4585 40.0168ZM46.0724 40.7428L44.2714 39.1164L45.0849 38.2156L46.886 39.842L46.0724 40.7428ZM48.4183 37.6791C48.4184 37.9794 48.3069 38.2691 48.1054 38.4917L47.6988 38.942L46.8917 38.2131L45.898 37.3154L46.3046 36.8652C46.469 36.6831 46.6847 36.5551 46.9232 36.4981C47.1618 36.4411 47.4121 36.4578 47.641 36.5459C47.87 36.634 48.0668 36.7895 48.2056 36.9917C48.3444 37.194 48.4186 37.4336 48.4185 37.6789L48.4183 37.6791ZM18.0141 21.047C18.0147 20.5644 18.2066 20.1018 18.5478 19.7606C18.889 19.4195 19.3516 19.2275 19.8341 19.227H48.3474V22.2603H44.7074C44.5465 22.2603 44.3922 22.3242 44.2785 22.438C44.1647 22.5518 44.1008 22.7061 44.1008 22.867C44.1008 23.0279 44.1647 23.1822 44.2785 23.2959C44.3922 23.4097 44.5465 23.4736 44.7074 23.4736H48.3474V28.327H44.7074C44.5465 28.327 44.3922 28.3909 44.2785 28.5046C44.1647 28.6184 44.1008 28.7727 44.1008 28.9336C44.1008 29.0945 44.1647 29.2488 44.2785 29.3626C44.3922 29.4764 44.5465 29.5403 44.7074 29.5403H48.3474V33.787H44.7074C44.5465 33.787 44.3922 33.8509 44.2785 33.9646C44.1647 34.0784 44.1008 34.2327 44.1008 34.3936C44.1008 34.5545 44.1647 34.7088 44.2785 34.8226C44.3922 34.9364 44.5465 35.0003 44.7074 35.0003H48.3474V35.5376C47.8698 35.2825 47.3206 35.1946 46.7872 35.2878C46.2539 35.381 45.767 35.65 45.4042 36.0519L44.591 36.9525L42.9646 38.7534L42.964 38.7541L36.6388 45.7586C36.345 45.4293 35.9853 45.1654 35.5829 44.9842C35.1805 44.803 34.7444 44.7086 34.3031 44.707H32.5741V45.9203H34.3031C34.5958 45.9215 34.8843 45.9893 35.1468 46.1187C35.4093 46.2482 35.6389 46.4357 35.818 46.6672L35.3969 47.1336H19.8341C19.1774 47.1329 18.5384 47.3465 18.0141 47.742V21.047ZM21.6541 51.987H19.8341C19.3514 51.987 18.8885 51.7952 18.5472 51.4539C18.2059 51.1126 18.0141 50.6496 18.0141 50.167C18.0141 49.6843 18.2059 49.2213 18.5472 48.88C18.8885 48.5387 19.3514 48.347 19.8341 48.347H21.6541V51.987ZM34.6966 51.5297L35.1982 49.7233L36.0125 50.4589L36.4427 50.8473L34.6966 51.5297ZM50.7741 47.1336H41.9362L46.5666 42.0062L48.1924 40.2059L48.193 40.2053L48.3474 40.0343V44.1003C48.3474 44.2612 48.4114 44.4155 48.5251 44.5293C48.6389 44.643 48.7932 44.707 48.9541 44.707H50.7741C51.0959 44.707 51.4045 44.8348 51.6321 45.0623C51.8596 45.2899 51.9874 45.5985 51.9874 45.9203C51.9874 46.2421 51.8596 46.5507 51.6321 46.7782C51.4045 47.0058 51.0959 47.1336 50.7741 47.1336Z" fill="#595959"/>
<defs>
<linearGradient id="paint0_linear_573_863" x1="35" y1="0" x2="35" y2="70" gradientUnits="userSpaceOnUse">
<stop stop-color="#A6A6A6"/>
<stop offset="1" stop-color="#A6A6A6" stop-opacity="0"/>
</linearGradient>
</defs>
</svg>
