<svg width="70" height="70" viewBox="0 0 70 70" fill="none" xmlns="http://www.w3.org/2000/svg">
<circle opacity="0.1" cx="35" cy="35" r="35" fill="url(#paint0_linear_573_839)"/>
<path d="M51.8046 29.828C50.8393 30.3975 49.7478 30.7308 48.6228 30.8C47.389 30.7067 46.1981 30.315 45.1577 29.66C43.9089 28.8673 42.4722 28.4025 40.9865 28.3111C39.8783 28.3522 38.7925 28.6292 37.8047 29.1228V20.5723C38.7698 20.0026 39.8612 19.669 40.9865 19.6001C42.2203 19.6934 43.4112 20.0851 44.4515 20.7401C45.7004 21.5328 47.137 21.9976 48.6228 22.089C49.731 22.0476 50.8168 21.7712 51.8046 21.2785V29.828Z" fill="#FFE867"/>
<path d="M51.5 20.5063C51.3178 20.4088 51.0971 20.4195 50.9251 20.534C50.0104 21.1252 48.9623 21.4779 47.8761 21.5599C46.7905 21.4759 45.7426 21.1234 44.8272 20.534C43.7283 19.8206 42.4641 19.4024 41.1568 19.3201C40.1817 19.3571 39.2262 19.6063 38.3571 20.0505V19.8606C38.3501 19.2651 38.0286 18.7177 37.5117 18.422C36.9947 18.1263 36.3598 18.1263 35.8428 18.422C35.3259 18.7177 35.0044 19.2652 34.9974 19.8606V33.8784H33.3176C33.0084 33.8784 32.7576 34.1291 32.7576 34.4383C32.7576 34.7475 33.0084 34.9982 33.3176 34.9982H39.1173C39.5682 34.9812 39.9612 35.3037 40.0322 35.7497C40.0574 35.9864 39.9807 36.2229 39.8214 36.3998C39.6622 36.5768 39.4352 36.6781 39.197 36.6781H37.7972C37.4879 36.6781 37.2372 36.9288 37.2372 37.238C37.2372 37.5472 37.4879 37.7979 37.7972 37.7979H39.197C39.661 37.7979 40.0369 38.1739 40.0369 38.6379C40.0369 39.1018 39.661 39.4778 39.197 39.4778H37.7972C37.4879 39.4778 37.2372 39.7285 37.2372 40.0377C37.2372 40.3469 37.4879 40.5977 37.7972 40.5977H39.197C39.661 40.5977 40.0369 40.9736 40.0369 41.4376C40.0369 41.9015 39.661 42.2775 39.197 42.2775H37.7972C37.4879 42.2775 37.2372 42.5282 37.2372 42.8374C37.2372 43.1466 37.4879 43.3974 37.7972 43.3974H39.197C39.661 43.3974 40.0369 43.7733 40.0369 44.2373C40.0369 44.7012 39.661 45.0772 39.197 45.0772H33.1254C32.3825 45.0752 31.6698 45.3707 31.1458 45.8973L30.5179 46.5253L23.4709 39.4777L29.2741 33.6745C30.2172 32.7264 31.5003 32.1949 32.8375 32.1987H33.3179C33.6272 32.1987 33.8779 31.9479 33.8779 31.6387C33.8779 31.3295 33.6272 31.0788 33.3179 31.0788H32.8375C31.2032 31.0743 29.6348 31.724 28.4824 32.8828L22.6717 38.6932C22.3488 38.4173 21.9348 38.2708 21.5099 38.2818C21.0852 38.293 20.6794 38.4613 20.3715 38.754L18.3634 40.7618C18.1482 40.981 18.15 41.3327 18.3672 41.5499C18.5844 41.7672 18.9361 41.7689 19.1553 41.5537L21.1636 39.5456H21.1634C21.3846 39.3334 21.7338 39.3334 21.955 39.5456L30.4502 48.0408C30.6682 48.2597 30.6684 48.6137 30.4504 48.8327L28.4424 50.8405C28.3359 50.9452 28.2757 51.0882 28.2749 51.2374C28.2742 51.3869 28.3331 51.5304 28.4389 51.6359C28.5444 51.7416 28.6879 51.8006 28.8373 51.7999C28.9866 51.7991 29.1296 51.7389 29.2343 51.6324L31.2426 49.6244H31.2424C31.5438 49.3209 31.7181 48.9137 31.7293 48.4862C31.7406 48.0585 31.5881 47.6428 31.3031 47.3238L31.938 46.6892C32.2538 46.3752 32.6805 46.1982 33.1257 46.197H39.1973C39.7196 46.1972 40.2202 45.989 40.5882 45.6183C40.9562 45.2478 41.1609 44.7458 41.1571 44.2237C41.1531 43.7015 40.9412 43.2023 40.5677 42.8373C40.9447 42.4691 41.1571 41.9644 41.1571 41.4374C41.1571 40.9105 40.9447 40.4058 40.5677 40.0376C40.9444 39.6694 41.1571 39.1649 41.1571 38.6382C41.1571 38.1113 40.9449 37.6066 40.5682 37.2384C40.5964 37.2104 40.6239 37.1821 40.6507 37.1526C41.0224 36.7402 41.2026 36.1902 41.1471 35.6378C41.0831 35.1468 40.8412 34.6964 40.4669 34.3719C40.0927 34.0477 39.6125 33.872 39.1176 33.8782H38.3574V30.2736C39.2066 29.7609 40.1669 29.4607 41.1571 29.3987C42.2428 29.4827 43.2907 29.8351 44.2061 30.4246C45.305 31.138 46.5691 31.5562 47.8764 31.6384C49.1838 31.5562 50.448 31.138 51.5468 30.4246C51.7025 30.3206 51.796 30.1458 51.796 29.9586V20.9995C51.796 20.793 51.6823 20.6033 51.5003 20.5058L51.5 20.5063ZM36.1173 33.8784V19.8606C36.1198 19.7113 36.183 19.5694 36.2923 19.4674C36.4015 19.3656 36.5475 19.3124 36.6967 19.3201C36.9949 19.3204 37.2369 19.5624 37.2372 19.8606V33.8784H36.1173ZM50.6758 29.644C49.8264 30.1565 48.866 30.4564 47.8761 30.5187C46.7904 30.4347 45.7425 30.0822 44.8271 29.4928C43.7282 28.7794 42.4641 28.3612 41.1568 28.2789C40.1816 28.3159 39.2262 28.5652 38.357 29.0094V21.3148C39.2062 20.8021 40.1666 20.5019 41.1568 20.4398C42.2424 20.5238 43.2903 20.8763 44.2057 21.4657C45.3046 22.1791 46.5688 22.5974 47.8761 22.6796C48.8512 22.6424 49.8066 22.3936 50.6758 21.9502V29.644Z" fill="#595959"/>
<defs>
<linearGradient id="paint0_linear_573_839" x1="35" y1="0" x2="35" y2="70" gradientUnits="userSpaceOnUse">
<stop stop-color="#A6A6A6"/>
<stop offset="1" stop-color="#A6A6A6" stop-opacity="0"/>
</linearGradient>
</defs>
</svg>
