<svg width="70" height="70" viewBox="0 0 70 70" fill="none" xmlns="http://www.w3.org/2000/svg">
<circle opacity="0.1" cx="35" cy="35" r="35" fill="url(#paint0_linear_1159_229)"/>
<path d="M24.9192 28.2641L27.4392 23.6441L28.6992 23.2241L31.6392 27.8441L33.7392 28.6841L38.7792 29.9441L38.3592 32.0441L34.5792 35.8241L35.4192 42.1241L33.7392 42.9641L28.6992 40.4441L22.3992 42.9641L21.1392 42.1241L21.9792 36.2441L18.1992 32.0441V29.9441H19.8792L24.9192 28.2641Z" fill="#FFE867"/>
<path fill-rule="evenodd" clip-rule="evenodd" d="M43.3093 32.6635L41.8787 35.5012C41.7855 35.6849 41.611 35.8149 41.4075 35.8516L38.3993 36.391C37.7706 36.5039 37.2482 36.9646 37.0513 37.5985C36.8571 38.2194 37.0133 38.9005 37.449 39.3678L39.6094 41.6817C39.7446 41.8261 39.8076 42.023 39.78 42.2199L39.3338 45.4276C39.2432 46.076 39.5097 46.7217 40.0176 47.1063C40.5439 47.5053 41.2369 47.5657 41.8197 47.2651L44.8437 45.7098L47.8677 47.2651C48.4504 47.5657 49.1434 47.5053 49.6697 47.1063C50.1777 46.7217 50.4441 46.076 50.3535 45.4276L49.9073 42.2199C49.8797 42.023 49.9427 41.8261 50.0779 41.6817L52.2383 39.3678C52.674 38.9005 52.8302 38.2194 52.636 37.5985C52.4391 36.9646 51.9167 36.5039 51.288 36.391L48.2798 35.8516C48.0763 35.8149 47.9018 35.6849 47.8086 35.5012L46.378 32.6635C46.0787 32.0703 45.4855 31.7041 44.8437 31.7041C44.2019 31.7041 43.6086 32.0703 43.3093 32.6635ZM44.4814 33.2542C44.5523 33.1124 44.6901 33.0166 44.8437 33.0166C44.9972 33.0166 45.135 33.1124 45.2059 33.2542L46.6378 36.0918C46.9161 36.6444 47.4385 37.0342 48.0475 37.1431L51.0557 37.6825C51.2119 37.7101 51.334 37.8322 51.3839 37.9884C51.4363 38.1577 51.397 38.344 51.2789 38.4714L49.1185 40.7853C48.7129 41.2197 48.5252 41.813 48.6079 42.3997C48.7575 43.4838 49.0529 45.6087 49.0529 45.6087C49.0778 45.782 49.0122 45.9579 48.8757 46.0602C48.7575 46.1508 48.6 46.1665 48.4688 46.0983L45.1442 44.3881C44.9552 44.291 44.7321 44.291 44.5431 44.3881L41.2185 46.0983C41.0873 46.1665 40.9298 46.1508 40.8117 46.0602C40.6752 45.9579 40.6095 45.782 40.6345 45.6087C40.6345 45.6087 40.9298 43.4838 41.0794 42.3997C41.1621 41.813 40.9744 41.2197 40.5688 40.7853L38.4085 38.4714C38.2903 38.344 38.251 38.1577 38.3035 37.9884C38.3534 37.8322 38.4754 37.7101 38.6316 37.6825C38.6316 37.6825 40.5912 37.3321 41.6399 37.1431C42.2488 37.0342 42.7712 36.6444 43.0495 36.0918L44.4814 33.2542ZM26.4792 23.6782L24.2729 27.7797C24.177 27.9582 24.0038 28.0829 23.8043 28.1157L19.1239 28.9032C18.3115 29.0397 17.646 29.608 17.3914 30.3745C17.1342 31.1489 17.335 31.9981 17.9151 32.5809L21.2121 35.8923C21.3591 36.0393 21.4274 36.2467 21.3972 36.4514C21.1898 37.8519 20.7199 41.0202 20.7199 41.0202C20.6005 41.8235 20.943 42.6267 21.615 43.1045C22.2779 43.5757 23.152 43.6492 23.887 43.2948L28.4374 41.099L32.9879 43.2948C33.7229 43.6492 34.597 43.5757 35.2598 43.1045C35.9318 42.6267 36.2743 41.8235 36.1549 41.0202C36.1549 41.0202 35.685 37.8519 35.4777 36.4514C35.4475 36.2467 35.5157 36.0393 35.6627 35.8923L38.9597 32.5809C39.5399 31.9981 39.7407 31.1489 39.4834 30.3745C39.2288 29.608 38.5634 29.0397 37.7509 28.9032C37.7509 28.9032 34.4802 28.3533 33.0705 28.1157C32.871 28.0829 32.6978 27.9582 32.602 27.7797L30.3957 23.6782C30.0124 22.9655 29.2604 22.5166 28.4374 22.5166C27.6145 22.5166 26.8624 22.9655 26.4792 23.6782ZM27.6355 24.299C27.7917 24.0089 28.1014 23.8291 28.4374 23.8291C28.7734 23.8291 29.0832 24.0089 29.2394 24.299C29.2394 24.299 30.7763 27.1576 31.4457 28.4019C31.7331 28.9374 32.2529 29.3101 32.8527 29.4112C34.2623 29.6474 37.533 30.1974 37.533 30.1974C37.8625 30.2525 38.1355 30.4782 38.2379 30.7893C38.3389 31.0925 38.2575 31.4259 38.0305 31.6555L34.7322 34.9657C34.2938 35.4067 34.089 36.0288 34.1796 36.6444C34.387 38.0448 34.8568 41.2132 34.8568 41.2132C34.9041 41.5308 34.765 41.8458 34.4999 42.0348C34.2255 42.229 33.862 42.2592 33.5588 42.1122L28.7222 39.7786C28.5424 39.692 28.3324 39.692 28.1526 39.7786L23.316 42.1122C23.0129 42.2592 22.6493 42.229 22.375 42.0348C22.1099 41.8458 21.9707 41.5308 22.018 41.2132C22.018 41.2132 22.4879 38.0448 22.6952 36.6444C22.7858 36.0288 22.581 35.4067 22.1427 34.9657L18.8444 31.6555C18.6173 31.4259 18.5359 31.0925 18.637 30.7893C18.7394 30.4782 19.0124 30.2525 19.3418 30.1974C19.3418 30.1974 22.6125 29.6474 24.0222 29.4112C24.622 29.3101 25.1417 28.9374 25.4292 28.4019C26.0985 27.1576 27.6355 24.299 27.6355 24.299Z" fill="#595959"/>
<defs>
<linearGradient id="paint0_linear_1159_229" x1="35" y1="0" x2="35" y2="70" gradientUnits="userSpaceOnUse">
<stop stop-color="#A6A6A6"/>
<stop offset="1" stop-color="#A6A6A6" stop-opacity="0"/>
</linearGradient>
</defs>
</svg>
