<svg width="70" height="70" viewBox="0 0 70 70" fill="none" xmlns="http://www.w3.org/2000/svg">
<circle opacity="0.1" cx="35" cy="35" r="35" fill="url(#paint0_linear_1159_232)"/>
<g clip-path="url(#clip0_1159_232)">
<path d="M27.125 21.3669H17.2812V14.8044H27.125L25.3203 18.0857L27.125 21.3669Z" fill="#FFE867"/>
<path d="M27.9453 37.8655H31.8555V54.9177H27.9453V37.8655Z" fill="#FFE867"/>
<path d="M49.6016 54.9177H45.6914V37.8655H49.6016V54.9177Z" fill="#FFE867"/>
<path d="M46.3203 38.0537L42.3042 44.2775L38.7734 40.7467L41.2292 38.0537H46.3203Z" fill="white"/>
<path d="M31.2266 38.0537L35.2426 44.2775L38.7734 40.7467L36.3176 38.0537H31.2266Z" fill="white"/>
<path d="M48.6172 21.835H28.9297C27.933 21.835 27.125 22.643 27.125 23.6396C27.125 24.6363 27.933 25.4443 28.9297 25.4443H48.6172C49.6139 25.4443 50.4219 24.6363 50.4219 23.6396C50.4219 22.643 49.6139 21.835 48.6172 21.835Z" fill="#FFE867"/>
<path d="M41.8544 15.9287H35.7159C33.7866 15.9287 32.2227 17.4927 32.2227 19.4219V21.835H45.3477V19.422C45.3477 17.4927 43.7836 15.9287 41.8544 15.9287Z" fill="#FFE867"/>
<path d="M49.4449 37.8384C49.832 36.9664 50.0522 35.9775 50.0522 35.0415C50.0522 33.8296 49.6752 32.649 48.9815 31.6644C49.2168 31.0657 49.3396 30.4225 49.3396 29.7778C49.3396 28.421 48.8117 27.1858 47.9517 26.2645H48.6165C50.0639 26.2645 51.2415 25.087 51.2415 23.6395C51.2415 22.1921 50.0639 21.0145 48.6165 21.0145H46.166V19.4219C46.166 17.0434 44.2309 15.1083 41.8524 15.1083H35.7139C33.3354 15.1083 31.4004 17.0434 31.4004 19.4219V21.0145H28.929C28.5748 21.0145 28.237 21.0854 27.9284 21.2131C27.9125 21.1298 27.8852 21.0481 27.843 20.9716L26.2559 18.0857L27.8432 15.1998C27.9829 14.9456 27.9782 14.6366 27.8306 14.3869C27.6829 14.1373 27.4145 13.9841 27.1245 13.9841H17.2807C16.8278 13.9841 16.4604 14.3515 16.4604 14.8044V27.0442C16.395 27.0638 16.3298 27.0848 16.2652 27.1084C14.4803 27.7592 13.5578 29.7408 14.2087 31.5255C14.2099 31.5288 14.2111 31.532 14.2123 31.5353L17.892 41.2424C18.5511 42.9812 20.1085 44.1914 21.9562 44.4007L27.1245 44.9863V55.1638C27.1245 55.6168 27.4918 55.9841 27.9448 55.9841H55.1792C55.6321 55.9841 55.9995 55.6168 55.9995 55.1638V47.2104C55.9994 42.9109 53.2655 39.2379 49.4449 37.8384ZM29.6478 37.2336C29.3357 36.554 29.1549 35.7637 29.1549 35.0415C29.1549 34.0408 29.5121 33.0696 30.1605 32.3068C30.3766 32.0526 30.4172 31.6927 30.2631 31.3967C30.0006 30.8925 29.8675 30.3479 29.8675 29.7778C29.8675 28.4416 30.6174 27.2776 31.7182 26.6837V28.7635C31.7182 31.4734 33.2549 33.8299 35.5019 35.011V37.2336H29.6478ZM44.1857 26.2645H44.1869V28.7634C44.1869 31.7487 41.7582 34.1774 38.7728 34.1774C35.7875 34.1774 33.3588 31.7487 33.3588 28.7634V26.265C33.3662 26.265 33.3734 26.2645 33.3808 26.2645L44.1857 26.2645ZM40.4083 37.9512L38.7728 39.5867L37.1424 37.9564V35.6259C37.6661 35.7504 38.2115 35.8182 38.7728 35.8182C39.3358 35.8182 39.883 35.75 40.4083 35.6248V37.9512ZM35.7401 38.8742L37.6127 40.7468L35.3803 42.9791L32.7315 38.8742H35.7401ZM41.8056 38.8742H44.8141L42.1653 42.9791L39.933 40.7468L41.8056 38.8742ZM46.5111 38.8889C47.302 38.9348 48.0635 39.0916 48.7806 39.3438V54.3435H46.5111V38.8889ZM47.8389 37.3998C47.2497 37.2909 46.6427 37.2336 46.0225 37.2336H42.049V35.0084C44.2932 33.8263 45.8276 31.4713 45.8276 28.7635V26.6731C46.9397 27.2635 47.6991 28.4334 47.6991 29.7778C47.6991 30.3479 47.566 30.8926 47.3035 31.3967C47.1494 31.6926 47.19 32.0526 47.4061 32.3068C48.0545 33.0696 48.4117 34.0408 48.4117 35.0415C48.4116 35.8272 48.1981 36.6887 47.8389 37.3998ZM33.0411 19.4219C33.0411 17.948 34.2401 16.7489 35.714 16.7489H41.8525C43.3264 16.7489 44.5254 17.948 44.5254 19.4219V21.0145H33.0411V19.4219ZM28.9291 22.6552H48.6166C49.1594 22.6552 49.601 23.0967 49.601 23.6395C49.601 24.1823 49.1594 24.6239 48.6166 24.6239H28.9291C28.3863 24.6239 27.9447 24.1823 27.9447 23.6395C27.9447 23.0967 28.3863 22.6552 28.9291 22.6552ZM18.101 15.6248H25.737L24.601 17.6904C24.4655 17.9366 24.4655 18.2349 24.601 18.4811L25.737 20.5466H18.101V15.6248ZM26.7438 22.1873C26.4663 22.6035 26.3041 23.1029 26.3041 23.6395C26.3041 25.087 27.4816 26.2645 28.9291 26.2645H29.6147C28.7547 27.1858 28.2268 28.4211 28.2268 29.7778C28.2268 30.4225 28.3496 31.0657 28.5849 31.6644C27.8912 32.649 27.5142 33.8296 27.5142 35.0415C27.5142 35.7657 27.6446 36.5215 27.8842 37.2323H23.624L20.6822 29.1648C20.3669 28.3002 19.7338 27.6101 18.8996 27.2217C18.6414 27.1015 18.3735 27.0148 18.101 26.9615V22.1873H26.7438ZM16.8271 28.6497C17.28 28.4845 17.7701 28.5056 18.2071 28.7091C18.6441 28.9125 18.9757 29.274 19.1409 29.7269L19.4852 30.671L16.1655 32.0596L15.7483 30.9589C15.4106 30.0253 15.8937 28.9901 16.8271 28.6497ZM19.426 40.6608L16.7474 33.5945L20.0478 32.2139L22.2794 38.3336C22.3974 38.6574 22.7053 38.8729 23.0501 38.8729H27.1244V43.3351L22.1408 42.7705C20.9065 42.6308 19.8663 41.8223 19.426 40.6608ZM28.765 38.8742H31.0346V45.4283C31.0346 45.8812 31.4019 46.2486 31.8549 46.2486C32.3079 46.2486 32.6752 45.8812 32.6752 45.4283V41.8127L34.5528 44.7224C34.6873 44.9307 34.9087 45.067 35.1552 45.0933C35.1842 45.0964 35.2133 45.0979 35.2422 45.0979C35.4585 45.0979 35.6675 45.0123 35.8222 44.8577L38.7729 41.9069L41.7237 44.8577C41.8784 45.0123 42.0874 45.0979 42.3036 45.0979C42.3326 45.0979 42.3616 45.0964 42.3907 45.0933C42.6372 45.067 42.8586 44.9307 42.993 44.7224L44.8706 41.8127V49.0185H41.9022C41.4492 49.0185 41.0818 49.3859 41.0818 49.8388C41.0818 50.2918 41.4492 50.6592 41.9022 50.6592H44.8706V54.3435H32.6752V52.811C32.6752 52.358 32.3079 51.9907 31.8549 51.9907C31.4019 51.9907 31.0346 52.358 31.0346 52.811V54.3435H28.765V38.8742ZM54.3588 54.3435H50.4213V40.1324C52.7834 41.6057 54.3588 44.2273 54.3588 47.2104V54.3435Z" fill="#595959"/>
<path d="M38.7727 31.945C39.1932 31.945 39.6137 31.7849 39.9339 31.4648C40.2542 31.1445 40.2532 30.6251 39.9327 30.3046C39.6123 29.9844 39.0918 29.9845 38.7715 30.3046C38.4511 29.9844 37.9318 29.9844 37.6113 30.3046C37.291 30.625 37.291 31.1444 37.6113 31.4648C37.9316 31.7849 38.3521 31.945 38.7727 31.945Z" fill="#595959"/>
<path d="M31.8555 49.9399C32.0712 49.9399 32.2829 49.8523 32.4354 49.6996C32.5879 49.547 32.6758 49.3355 32.6758 49.1196C32.6758 48.9039 32.588 48.6922 32.4354 48.5397C32.282 48.3872 32.0712 48.2993 31.8555 48.2993C31.6397 48.2993 31.4281 48.3871 31.2755 48.5397C31.1221 48.6922 31.0352 48.9039 31.0352 49.1196C31.0352 49.3355 31.1221 49.547 31.2755 49.6996C31.4281 49.8523 31.6389 49.9399 31.8555 49.9399Z" fill="#595959"/>
</g>
<defs>
<linearGradient id="paint0_linear_1159_232" x1="35" y1="0" x2="35" y2="70" gradientUnits="userSpaceOnUse">
<stop stop-color="#A6A6A6"/>
<stop offset="1" stop-color="#A6A6A6" stop-opacity="0"/>
</linearGradient>
<clipPath id="clip0_1159_232">
<rect width="42" height="42" fill="white" transform="translate(14 13.9841)"/>
</clipPath>
</defs>
</svg>
