<svg width="70" height="70" viewBox="0 0 70 70" fill="none" xmlns="http://www.w3.org/2000/svg">
<circle opacity="0.1" cx="35" cy="35" r="35" fill="url(#paint0_linear_573_857)"/>
<path d="M44.1 39.9L42 44.1V26.6V23.8L39.9 22.4H28L29.4 17.5H30.8L47.6 22.4L49 24.5L44.1 39.9Z" fill="#FFE867"/>
<path d="M37.7984 32.9001C37.7984 36.3795 34.9778 37.8001 31.4984 37.8001C28.019 37.8001 25.8984 36.3795 25.8984 32.9001C25.8984 29.4207 28.019 26.6001 31.4984 26.6001C34.9778 26.6001 37.7984 29.4207 37.7984 32.9001Z" fill="#FFE867"/>
<path d="M31.5789 38.9003C31.5812 38.9005 31.5833 38.9011 31.5855 38.9012C31.59 38.9013 31.5946 38.903 31.5991 38.903C31.5993 38.903 31.5995 38.9029 31.5996 38.9029C31.5998 38.9029 31.6 38.903 31.6001 38.903C31.6031 38.903 31.6059 38.9019 31.6088 38.9019C31.6208 38.902 31.6323 38.9037 31.6442 38.9037H31.6444H31.6444H31.6445C35.2655 38.9037 38.2114 35.9578 38.2114 32.3367C38.2114 28.7155 35.2655 25.7696 31.6445 25.7696C31.6377 25.7696 31.6311 25.7706 31.6242 25.7707C31.6161 25.7703 31.6078 25.7715 31.5996 25.7715C31.5837 25.7716 31.5681 25.7723 31.5524 25.7739C31.5433 25.7748 31.5342 25.7743 31.5252 25.7757C27.9596 25.8402 25.0775 28.7557 25.0775 32.3367C25.0775 35.9356 27.9883 38.8646 31.5789 38.9003ZM26.5363 34.5818H28.0284C28.375 35.7133 28.9801 36.7468 29.8072 37.6029C28.3443 37.0908 27.1578 35.99 26.5363 34.5818ZM37.2276 32.3366C37.2276 32.7709 37.1728 33.1919 37.0785 33.598H35.3987C35.4676 33.1821 35.5067 32.7572 35.5067 32.3244C35.5067 31.9006 35.4684 31.484 35.4011 31.0755H37.0786C37.1728 31.4815 37.2276 31.9024 37.2276 32.3366ZM34.5229 32.3488C34.5229 32.7737 34.4821 33.1914 34.4046 33.5981H32.1362V31.0756H34.4025C34.4816 31.4892 34.5229 31.9149 34.5229 32.3488ZM29.0676 34.5818H31.1525V37.4988C30.1887 36.7288 29.4754 35.7211 29.0676 34.5818ZM32.1362 37.423V34.5817H34.1343C33.7399 35.6823 33.056 36.6617 32.1362 37.423ZM32.1362 30.0918V27.2503C33.0541 28.0102 33.737 28.9886 34.1318 30.0918H32.1362ZM31.1525 27.1745V30.0918H29.0649C29.4722 28.9551 30.1865 27.9458 31.1525 27.1745ZM31.1525 31.0755V33.598H28.7967C28.7176 33.1842 28.6763 32.7585 28.6763 32.3244C28.6763 31.8996 28.7171 31.482 28.7945 31.0755H31.1525ZM27.7983 33.598H26.2103C26.116 33.1919 26.0612 32.7709 26.0612 32.3366C26.0612 31.9023 26.116 31.4815 26.2102 31.0755H27.8006C27.7318 31.4913 27.6927 31.9161 27.6927 32.3487C27.6927 32.7727 27.731 33.1895 27.7983 33.598ZM33.3373 37.6558C34.1894 36.7907 34.8138 35.7398 35.1682 34.5817H36.7524C36.1105 36.0366 34.8672 37.1677 33.3373 37.6558ZM36.7526 30.0918H35.171C34.8171 28.9362 34.192 27.8843 33.338 27.0176C34.8677 27.5058 36.1108 28.637 36.7526 30.0918ZM29.8077 27.0702C28.9824 27.9249 28.378 28.9576 28.0309 30.0918H26.5362C27.1576 28.6833 28.3445 27.5822 29.8077 27.0702ZM48.9604 23.2577C48.6233 22.6044 48.0543 22.1225 47.3581 21.9002L31.7947 16.9309C31.0988 16.708 30.3555 16.7714 29.7023 17.1089C29.0492 17.4458 28.5671 18.0149 28.3448 18.711L27.3119 21.9457H23.4757C21.962 21.9457 20.7305 23.1774 20.7305 24.6911V50.455C20.7305 51.9688 21.962 53.2001 23.4757 53.2001H39.8131C41.3268 53.2001 42.5583 51.9688 42.5583 50.455V45.9582L49.1383 25.3501C49.3605 24.6543 49.2974 23.911 48.9604 23.2577ZM41.5745 50.455C41.5745 51.4263 40.7843 52.2163 39.8131 52.2163H23.4757C22.5044 52.2163 21.7143 51.4263 21.7143 50.455V24.6911C21.7143 23.7198 22.5045 22.9295 23.4757 22.9295H39.8131C40.7844 22.9295 41.5745 23.7199 41.5745 24.6911V50.455ZM48.2013 25.051L42.5583 42.7244V24.6911C42.5583 23.1774 41.3268 21.9457 39.8131 21.9457H28.3443L29.2818 19.0102C29.4241 18.5644 29.7336 18.1997 30.1533 17.9829C30.5728 17.7664 31.0493 17.7257 31.4956 17.8679L47.059 22.8373C47.5047 22.9798 47.8697 23.2892 48.0862 23.709C48.3026 24.1284 48.3436 24.6053 48.2013 25.051ZM38.2793 42.7064C38.2793 42.978 38.0592 43.1983 37.7874 43.1983H25.5011C25.2294 43.1983 25.0092 42.978 25.0092 42.7064C25.0092 42.4348 25.2294 42.2145 25.5011 42.2145H37.7875C38.0592 42.2145 38.2793 42.4348 38.2793 42.7064ZM38.2793 46.1786C38.2793 46.4502 38.0592 46.6705 37.7874 46.6705H25.5011C25.2294 46.6705 25.0092 46.4502 25.0092 46.1786C25.0092 45.907 25.2294 45.6867 25.5011 45.6867H37.7875C38.0592 45.6868 38.2793 45.9071 38.2793 46.1786ZM35.4927 49.6509C35.4927 49.9225 35.2725 50.1428 35.0008 50.1428H28.2879C28.0162 50.1428 27.796 49.9225 27.796 49.6509C27.796 49.3793 28.0162 49.159 28.2879 49.159H35.0008C35.2726 49.159 35.4927 49.3793 35.4927 49.6509Z" fill="#595959"/>
<defs>
<linearGradient id="paint0_linear_573_857" x1="35" y1="0" x2="35" y2="70" gradientUnits="userSpaceOnUse">
<stop stop-color="#A6A6A6"/>
<stop offset="1" stop-color="#A6A6A6" stop-opacity="0"/>
</linearGradient>
</defs>
</svg>
