<svg width="70" height="70" viewBox="0 0 70 70" fill="none" xmlns="http://www.w3.org/2000/svg">
<circle opacity="0.1" cx="35" cy="35" r="35" fill="url(#paint0_linear_573_849)"/>
<path d="M35 36.4001V33.6001H37.1V36.4001H35Z" fill="#FFE867"/>
<path d="M41.2969 36.4001V33.6001H43.3969V36.4001H41.2969Z" fill="#FFE867"/>
<path d="M47.6016 36.4001V33.6001H49.7016V36.4001H47.6016Z" fill="#FFE867"/>
<path d="M35.6992 44.8V42H37.7992V44.8H35.6992Z" fill="#FFE867"/>
<path d="M40.5992 44.8V42H43.3992V44.8H40.5992Z" fill="#FFE867"/>
<path d="M46.1992 44.8V42H48.9992V44.8H46.1992Z" fill="#FFE867"/>
<path d="M46.1992 49.7V46.9H48.9992V49.7H46.1992Z" fill="#FFE867"/>
<path d="M40.5992 49.7V46.9H43.3992V49.7H40.5992Z" fill="#FFE867"/>
<path d="M35.6992 49.7V46.9H38.4992V49.7H35.6992Z" fill="#FFE867"/>
<path d="M51.0384 34.3051H49.926V33.9625C49.926 33.2657 49.3583 32.6989 48.6603 32.6989H47.8885C47.1907 32.6989 46.6229 33.2657 46.6229 33.9625V34.3051H43.729V33.9625C43.729 33.3134 43.2361 32.7776 42.6045 32.7073V17.3686C42.6045 17.0547 42.35 16.8003 42.0362 16.8003H17.3691C17.0552 16.8003 16.8008 17.0547 16.8008 17.3686V52.632C16.8008 52.9458 17.0552 53.2003 17.3691 53.2003H51.0384C52.2296 53.2003 53.1987 52.2926 53.1987 51.1769V36.3263C53.1987 35.2118 52.2296 34.3051 51.0384 34.3051ZM47.7596 33.9624C47.7596 33.8936 47.8186 33.8354 47.8885 33.8354H48.6603C48.7302 33.8354 48.7893 33.8936 48.7893 33.9624V36.2054C48.7893 36.2742 48.7302 36.3323 48.6603 36.3323H47.8885C47.8186 36.3323 47.7596 36.2742 47.7596 36.2054V33.9624ZM46.6228 35.4417V36.2054C46.6228 36.9021 47.1905 37.469 47.8884 37.469H48.6603C49.3581 37.469 49.926 36.9021 49.926 36.2054V35.4417H51.0383C51.6027 35.4417 52.0619 35.8386 52.0619 36.3263V38.4081H32.4091V36.3263C32.4091 35.8386 32.8684 35.4417 33.4329 35.4417H34.2288V36.2054C34.2288 36.9021 34.7966 37.469 35.4945 37.469H36.2663C36.9641 37.469 37.5319 36.9021 37.5319 36.2054V35.4417H40.4258V36.2054C40.4258 36.9021 40.9936 37.469 41.6915 37.469H42.4632C43.1611 37.469 43.7289 36.9021 43.7289 36.2054V35.4417H46.6228ZM35.3656 36.2054V33.9624C35.3656 33.8936 35.4246 33.8354 35.4945 33.8354H36.2663C36.3362 33.8354 36.3952 33.8936 36.3952 33.9624V36.2054C36.3952 36.2742 36.3362 36.3323 36.2663 36.3323H35.4945C35.4246 36.3323 35.3656 36.2742 35.3656 36.2054ZM42.4632 33.8355C42.5331 33.8355 42.5922 33.8936 42.5922 33.9625V36.2055C42.5922 36.2743 42.5331 36.3324 42.4632 36.3324H41.6915C41.6216 36.3324 41.5625 36.2743 41.5625 36.2055V33.9625C41.5625 33.8936 41.6216 33.8355 41.6915 33.8355H42.4632ZM17.9374 17.937H41.4678V32.7199C40.8764 32.8258 40.4259 33.342 40.4259 33.9625V34.3051H37.532V33.9625C37.532 33.2657 36.9643 32.6989 36.2664 32.6989H35.4945C34.7967 32.6989 34.2289 33.2657 34.2289 33.9625V34.3051H33.4329C32.2417 34.3051 31.2724 35.2118 31.2724 36.3264V51.177C31.2724 51.4949 31.3514 51.7957 31.4914 52.0637H17.9374V17.937ZM51.0384 52.0636H33.4329C32.8779 52.0636 32.4091 51.6576 32.4091 51.1769V39.5448H52.0621V51.1769C52.062 51.6659 51.6028 52.0636 51.0384 52.0636ZM38.2635 41.2879H35.3453C35.0314 41.2879 34.777 41.5423 34.777 41.8562V44.7724C34.777 45.0863 35.0314 45.3407 35.3453 45.3407H38.2635C38.5773 45.3407 38.8318 45.0863 38.8318 44.7724V41.8562C38.8318 41.5424 38.5773 41.2879 38.2635 41.2879ZM37.6951 44.2041H35.9136V42.4246H37.6951V44.2041ZM43.6442 41.2879H40.7281C40.4142 41.2879 40.1598 41.5423 40.1598 41.8562V44.7724C40.1598 45.0863 40.4142 45.3407 40.7281 45.3407H43.6442C43.9581 45.3407 44.2126 45.0863 44.2126 44.7724V41.8562C44.2126 41.5424 43.9581 41.2879 43.6442 41.2879ZM43.0759 44.2041H41.2965V42.4246H43.0759V44.2041ZM38.2635 46.2676H35.3453C35.0314 46.2676 34.777 46.5221 34.777 46.836V49.7521C34.777 50.066 35.0314 50.3205 35.3453 50.3205H38.2635C38.5773 50.3205 38.8318 50.066 38.8318 49.7521V46.836C38.8318 46.5221 38.5773 46.2676 38.2635 46.2676ZM37.6951 49.1838H35.9136V47.4044H37.6951V49.1838ZM43.6442 46.2676H40.7281C40.4142 46.2676 40.1598 46.5221 40.1598 46.836V49.7521C40.1598 50.066 40.4142 50.3205 40.7281 50.3205H43.6442C43.9581 50.3205 44.2126 50.066 44.2126 49.7521V46.836C44.2126 46.5221 43.9581 46.2676 43.6442 46.2676ZM43.0759 49.1838H41.2965V47.4044H43.0759V49.1838ZM49.1278 41.2879H46.2098C45.8959 41.2879 45.6414 41.5423 45.6414 41.8562V44.7724C45.6414 45.0863 45.8959 45.3407 46.2098 45.3407H49.1278C49.4417 45.3407 49.6962 45.0863 49.6962 44.7724V41.8562C49.6962 41.5424 49.4417 41.2879 49.1278 41.2879ZM48.5595 44.2041H46.7781V42.4246H48.5595V44.2041ZM49.1278 46.2676H46.2098C45.8959 46.2676 45.6414 46.5221 45.6414 46.836V49.7521C45.6414 50.066 45.8959 50.3205 46.2098 50.3205H49.1278C49.4417 50.3205 49.6962 50.066 49.6962 49.7521V46.836C49.6962 46.5221 49.4417 46.2676 49.1278 46.2676ZM48.5595 49.1838H46.7781V47.4044H48.5595V49.1838ZM20.2891 26.9653V20.857C20.2891 20.5431 20.5436 20.2887 20.8574 20.2887H27.4616C27.7755 20.2887 28.03 20.5431 28.03 20.857C28.03 21.1709 27.7755 21.4254 27.4616 21.4254H21.4258V26.3971H26.8932V24.6675L25.8363 25.6269C25.7277 25.7254 25.5909 25.7744 25.4543 25.7744C25.3087 25.7744 25.1634 25.7188 25.0527 25.6083L23.7569 24.3144C23.5348 24.0927 23.5345 23.7328 23.7563 23.5107C23.9779 23.2886 24.3379 23.2883 24.56 23.5101L25.473 24.4216L28.2162 21.9316C28.4486 21.7207 28.8078 21.738 29.019 21.9704C29.2299 22.2028 29.2125 22.5622 28.9801 22.7732L28.03 23.6357V26.9653C28.03 27.2792 27.7755 27.5337 27.4616 27.5337H20.8574C20.5436 27.5337 20.2891 27.2792 20.2891 26.9653ZM20.2891 38.0535V31.9471C20.2891 31.6333 20.5436 31.3788 20.8574 31.3788H27.4616C27.7755 31.3788 28.03 31.6333 28.03 31.9471C28.03 32.261 27.7755 32.5155 27.4616 32.5155H21.4258V37.4851H26.8932V35.7575L25.8363 36.7169C25.7277 36.8156 25.5909 36.8645 25.4543 36.8645C25.3086 36.8645 25.1631 36.8087 25.0524 36.698L23.7566 35.4021C23.5346 35.1802 23.5346 34.8204 23.7566 34.5984C23.9785 34.3764 24.3384 34.3764 24.5603 34.5984L25.4733 35.5113L28.2162 33.0217C28.4486 32.8107 28.8078 32.828 29.019 33.0605C29.2299 33.2929 29.2125 33.6523 28.9801 33.8633L28.03 34.7257V38.0535C28.03 38.3673 27.7755 38.6218 27.4616 38.6218H20.8574C20.5436 38.6218 20.2891 38.3673 20.2891 38.0535ZM29.0191 44.1508C29.23 44.3833 29.2125 44.7427 28.9799 44.9535L28.03 45.8152V49.1435C28.03 49.4574 27.7755 49.7118 27.4616 49.7118H20.8574C20.5436 49.7118 20.2891 49.4574 20.2891 49.1435V43.0372C20.2891 42.7233 20.5436 42.4689 20.8574 42.4689H27.4616C27.7755 42.4689 28.03 42.7233 28.03 43.0372C28.03 43.3511 27.7755 43.6055 27.4616 43.6055H21.4258V48.5751H26.8932V46.8461L25.8361 47.8051C25.7276 47.9035 25.5908 47.9524 25.4543 47.9524C25.3087 47.9524 25.1634 47.8968 25.0527 47.7862L23.7569 46.4924C23.5348 46.2706 23.5345 45.9108 23.7563 45.6887C23.9779 45.4666 24.3379 45.4663 24.56 45.6881L25.4731 46.5997L28.2164 44.1115C28.4487 43.9007 28.8081 43.9182 29.0191 44.1508ZM31.2724 20.857C31.2724 20.5431 31.5268 20.2887 31.8407 20.2887H39.2308C39.5446 20.2887 39.7991 20.5431 39.7991 20.857C39.7991 21.1709 39.5446 21.4254 39.2308 21.4254H31.8407C31.5268 21.4254 31.2724 21.1709 31.2724 20.857ZM31.2724 23.9102C31.2724 23.5963 31.5268 23.3418 31.8407 23.3418H39.2308C39.5446 23.3418 39.7991 23.5963 39.7991 23.9102C39.7991 24.2241 39.5446 24.4785 39.2308 24.4785H31.8407C31.5268 24.4785 31.2724 24.2241 31.2724 23.9102Z" fill="#595959"/>
<defs>
<linearGradient id="paint0_linear_573_849" x1="35" y1="0" x2="35" y2="70" gradientUnits="userSpaceOnUse">
<stop stop-color="#A6A6A6"/>
<stop offset="1" stop-color="#A6A6A6" stop-opacity="0"/>
</linearGradient>
</defs>
</svg>
