<svg width="70" height="70" viewBox="0 0 70 70" fill="none" xmlns="http://www.w3.org/2000/svg">
<circle opacity="0.1" cx="35" cy="35" r="35" fill="url(#paint0_linear_573_883)"/>
<path d="M52.5862 23.8219V18.2093L51.8846 17.5077L43.4657 16.8062L42.7641 17.5077L42.0625 18.9109V23.8219L45.5704 24.5235L44.8688 27.3298L47.6751 25.9267L50.4814 24.5235L52.5862 23.8219Z" fill="#FFE867"/>
<path d="M28.0329 48.3774L30.1376 46.2726L31.5408 46.9742L32.9439 48.3774L34.3471 47.6758L41.3629 48.3774L45.5723 47.6758L44.8708 45.571L44.1692 44.1679L43.4676 42.7647L41.3629 42.0632L37.855 41.3616L37.1534 42.0632L35.0487 44.1679L32.9439 41.3616L30.1376 42.0632H28.0329L26.6297 43.4663L25.2266 44.8695V46.2726L26.6297 48.3774H28.0329Z" fill="#FFE867"/>
<path d="M46.3452 48.5034L44.986 44.4254C44.5111 43.0017 43.2993 41.9508 41.8222 41.6819L37.8986 40.968V40.6639C38.5814 40.2676 39.1755 39.7375 39.6487 39.1099H40.8341C41.8051 39.1099 42.5954 38.3196 42.5954 37.3486V30.3034C42.5954 26.0951 39.1714 22.6711 34.9631 22.6711C30.7548 22.6711 27.3309 26.0951 27.3309 30.3034V34.4131C27.3309 35.545 28.1358 36.492 29.2031 36.7127C29.5325 38.4001 30.5869 39.8279 32.0276 40.6639V40.968L28.1035 41.6819C26.6269 41.9508 25.4146 43.0017 24.9402 44.4254L24.7054 45.1305L22.7057 43.1309C22.4767 42.9019 22.4767 42.5291 22.7057 42.3001L25.0247 39.9817L20.672 35.629L18.0512 38.2498C17.2751 39.0259 16.8477 40.058 16.8477 41.1559C16.8477 42.2538 17.2751 43.2853 18.0512 44.0614L25.9858 51.996C26.762 52.7722 27.7941 53.2002 28.8919 53.2002C29.9898 53.2002 31.0213 52.7722 31.7793 52.0137L34.639 49.3934L33.7472 48.5034H46.3452ZM41.4212 37.3486C41.4212 37.6726 41.1576 37.9357 40.8341 37.9357H40.3403C40.5106 37.5476 40.6398 37.1384 40.7231 36.7127C40.9744 36.6605 41.2057 36.5607 41.4212 36.435V37.3486ZM40.8341 35.4241V33.4021C41.1834 33.6058 41.4212 33.9804 41.4212 34.4131C41.4212 34.8458 41.1834 35.2203 40.8341 35.4241ZM29.0921 35.4241C28.7428 35.2203 28.505 34.8458 28.505 34.4131C28.505 33.9804 28.7428 33.6058 29.0921 33.4021V35.4241ZM29.0921 31.4776V32.1481C28.8831 32.2027 28.687 32.2849 28.505 32.3911V30.3034C28.505 26.7427 31.4024 23.8453 34.9631 23.8453C38.5239 23.8453 41.4212 26.7427 41.4212 30.3034V32.3911C41.2392 32.2849 41.0431 32.2021 40.8341 32.1481V31.4776H40.247C38.5109 31.4776 36.8788 30.8013 35.6506 29.5736L34.9631 28.8861L34.2756 29.5736C33.0474 30.8013 31.4153 31.4776 29.6792 31.4776H29.0921ZM30.2663 35.5873V32.6295C32.0294 32.4968 33.6733 31.7694 34.9631 30.5429C36.253 31.7694 37.8968 32.4974 39.6599 32.6295V35.5873C39.6599 36.4433 39.4262 37.2441 39.0247 37.9357H34.9631V39.1099H38.0595C37.2317 39.8384 36.1496 40.284 34.9631 40.284C32.3734 40.284 30.2663 38.177 30.2663 35.5873ZM36.7244 41.1876V41.2152L34.9631 42.9765L33.2018 41.2152V41.1876C33.7584 41.3625 34.3496 41.4582 34.9631 41.4582C35.5766 41.4582 36.1678 41.3625 36.7244 41.1876ZM26.0533 44.7965C26.3921 43.7796 27.2581 43.0287 28.3131 42.8362L32.4169 42.0905L34.9631 44.6368L37.5088 42.0911L41.612 42.8367C42.667 43.0293 43.533 43.7796 43.8717 44.7971L44.7166 47.3292H32.573L30.2863 45.0425L27.7453 47.341C27.524 47.5635 27.1371 47.5635 26.9152 47.341L25.633 46.0587L26.0533 44.7965ZM20.6714 37.2893L23.3638 39.9817L22.7263 40.6193L20.0338 37.9269L20.6714 37.2893ZM30.9662 51.1671C30.4119 51.7201 29.6745 52.026 28.8908 52.026C28.107 52.026 27.3696 51.7201 26.8148 51.1659L18.8802 43.2319C18.326 42.6776 18.0207 41.9402 18.0207 41.1565C18.0207 40.3721 18.326 39.6347 18.8802 39.0805L19.2031 38.7576L21.8955 41.45L21.8744 41.4712C21.1881 42.1581 21.1881 43.2753 21.8744 43.9622L26.0844 48.1723C26.4173 48.5046 26.8594 48.6883 27.3303 48.6883C27.8011 48.6883 28.2432 48.5052 28.5544 48.1928L28.5984 48.1535L31.3032 50.8582L30.9662 51.1671ZM32.1697 50.0633L29.4708 47.3644L30.2464 46.6634L32.9406 49.3576L32.1697 50.0633Z" fill="#595959"/>
<path d="M51.4025 16.8003H43.1832C42.2121 16.8003 41.4219 17.5905 41.4219 18.5616V23.2584C41.4219 24.2294 42.2121 25.0196 43.1832 25.0196H44.7513L44.1442 28.5604L49.8097 25.0196H51.4025C52.3736 25.0196 53.1638 24.2294 53.1638 23.2584V18.5616C53.1638 17.5905 52.3736 16.8003 51.4025 16.8003ZM51.9896 23.2584C51.9896 23.5818 51.726 23.8455 51.4025 23.8455H49.4727L45.7441 26.1756L46.1439 23.8455H43.1832C42.8597 23.8455 42.5961 23.5818 42.5961 23.2584V18.5616C42.5961 18.2381 42.8597 17.9745 43.1832 17.9745H51.4025C51.726 17.9745 51.9896 18.2381 51.9896 18.5616V23.2584Z" fill="#595959"/>
<path d="M50.8108 19.1484H43.7656V20.3226H50.8108V19.1484Z" fill="#595959"/>
<path d="M48.4624 21.4971H43.7656V22.6713H48.4624V21.4971Z" fill="#595959"/>
<path d="M50.807 21.4971H49.6328V22.6713H50.807V21.4971Z" fill="#595959"/>
<path d="M34.9598 18.5613C27.2888 18.5613 20.681 23.8675 18.9632 31.269L17.8506 29.4143L16.8438 30.0185L18.9074 33.4571L22.346 31.3935L21.7419 30.3866L20.1509 31.3412C21.8147 24.5702 27.9035 19.7355 34.9598 19.7355C36.5021 19.7355 38.0239 19.9644 39.4828 20.4165L39.8303 19.2952C38.2587 18.8079 36.6201 18.5613 34.9598 18.5613Z" fill="#595959"/>
<path d="M52.8829 29.7995L49.4442 27.7358L47.3812 31.1751L48.388 31.7792L49.4155 30.0666C49.9562 31.6488 50.2327 33.3039 50.2327 35C50.2327 38.4915 49.0233 41.9048 46.8281 44.6108L47.7399 45.3505C50.1047 42.4362 51.4069 38.7598 51.4069 35C51.4069 33.2041 51.1175 31.4504 50.5533 29.7713L52.2787 30.8064L52.8829 29.7995Z" fill="#595959"/>
<defs>
<linearGradient id="paint0_linear_573_883" x1="35" y1="0" x2="35" y2="70" gradientUnits="userSpaceOnUse">
<stop stop-color="#A6A6A6"/>
<stop offset="1" stop-color="#A6A6A6" stop-opacity="0"/>
</linearGradient>
</defs>
</svg>
