<svg width="70" height="70" viewBox="0 0 70 70" fill="none" xmlns="http://www.w3.org/2000/svg">
<circle opacity="0.1" cx="35" cy="35" r="35" fill="url(#paint0_linear_573_845)"/>
<g clip-path="url(#clip0_573_845)">
<g clip-path="url(#clip1_573_845)">
<path d="M44.2633 23.3139L44.6824 15.3521L42.1681 16.6092L34.2062 16.1901L28.7586 20.7997L25.4062 27.9234L27.5015 28.7615L31.6919 23.3139L37.5586 22.8949L35.0443 25.8282V27.9234L41.33 25.8282L44.2633 23.3139Z" fill="#FFE867"/>
<path d="M47.2554 40.9617C46.2129 40.403 44.9158 40.7129 44.2385 41.6825L41.4194 45.7178L37.3321 46.4367L38.8515 44.6264C39.3515 44.0306 39.5114 43.2319 39.2795 42.4893C39.0806 41.8529 38.6145 41.3381 38.0008 41.0771C37.3873 40.8162 36.6932 40.8375 36.0968 41.1357L32.2738 43.0472C32.1889 43.0897 32.112 43.1463 32.0464 43.2148L29.9836 45.3693V45.3072C29.9836 44.8507 29.6134 44.4806 29.157 44.4806H25.643C25.1866 44.4806 24.8164 44.8507 24.8164 45.3072V46.3827C24.8164 46.8391 25.1866 47.2093 25.643 47.2093C26.0995 47.2093 26.4696 46.8391 26.4696 46.3827V46.1338H28.3304V54.3465H26.4696V53.7955C26.4696 53.3391 26.0995 52.9689 25.643 52.9689C25.1866 52.9689 24.8164 53.3391 24.8164 53.7955V55.1731C24.8164 55.6295 25.1866 55.9997 25.643 55.9997H29.157C29.6134 55.9997 29.9836 55.6295 29.9836 55.1731V54.4048H38.3552C38.5114 54.4048 38.6643 54.3606 38.7963 54.2773L45.0273 50.3457C45.1569 50.2641 45.2612 50.1478 45.3286 50.0102L48.2496 44.0467C48.8048 42.9132 48.3682 41.558 47.2554 40.9617ZM46.7647 43.3197L43.9469 49.0727L38.1162 52.7517H29.9834V47.76L33.1412 44.4619L36.8359 42.6145C37.0581 42.5034 37.2557 42.5569 37.3537 42.5986C37.4518 42.6403 37.6274 42.7456 37.7014 42.9825C37.7644 43.1843 37.7209 43.4017 37.585 43.5636L34.6064 47.1127C34.383 47.3788 34.3499 47.7562 34.5236 48.0572C34.6972 48.3583 35.0408 48.5189 35.3828 48.4582L42.0437 47.2867C42.26 47.2486 42.4523 47.1261 42.5781 46.946L45.5936 42.6295C45.7915 42.3464 46.1701 42.2558 46.4744 42.4191C46.7993 42.5931 46.9268 42.9886 46.7647 43.3197Z" fill="#595959"/>
<path d="M26.0472 29.133C26.3967 29.3202 26.7745 29.4099 27.1481 29.4099C27.8894 29.4099 28.6137 29.0569 29.0641 28.4123L31.8832 24.3772L35.9704 23.6583L34.451 25.4685C33.9511 26.0642 33.7911 26.863 34.023 27.6055C34.222 28.242 34.688 28.7568 35.3018 29.0178C35.9155 29.2786 36.6094 29.2572 37.2057 28.9591L41.0287 27.0476C41.1136 27.0051 41.1906 26.9485 41.2561 26.88L43.319 24.7255V24.7877C43.319 25.2441 43.6891 25.6143 44.1456 25.6143H47.6595C48.116 25.6143 48.4861 25.2441 48.4861 24.7877V23.5272C48.4861 23.0708 48.116 22.7006 47.6595 22.7006C47.2031 22.7006 46.8329 23.0708 46.8329 23.5272V23.961H44.9722V15.7482H46.8329V16.1288C46.8329 16.5852 47.2031 16.9554 47.6595 16.9554C48.116 16.9554 48.4861 16.5852 48.4861 16.1288V14.9216C48.4861 14.4651 48.116 14.095 47.6595 14.095H44.1456C43.6891 14.095 43.319 14.4651 43.319 14.9216V15.6898H34.9474C34.7913 15.6898 34.6383 15.7341 34.5063 15.8174L28.2753 19.7489C28.1458 19.8307 28.0415 19.9468 27.974 20.0845L25.0532 26.0478C24.4978 27.1815 24.9344 28.5368 26.0472 29.133ZM26.5378 26.775L29.3556 21.022L35.1863 17.3431H43.3191V22.3348L40.1613 25.6329L36.4665 27.4803C36.2445 27.5914 36.0469 27.538 35.9488 27.4962C35.8507 27.4545 35.6751 27.3492 35.6011 27.1122C35.538 26.9104 35.5816 26.6931 35.7175 26.5312L38.6961 22.9822C38.9195 22.716 38.9526 22.3386 38.7789 22.0376C38.6053 21.7365 38.2617 21.5764 37.9197 21.6366L31.2588 22.8082C31.0425 22.8462 30.8502 22.9688 30.7244 23.1488L27.7087 27.4653C27.5111 27.7485 27.1324 27.8389 26.828 27.6757C26.5032 27.5017 26.3757 27.1061 26.5378 26.775Z" fill="#595959"/>
<path d="M28.0378 42.7822C28.4942 42.7822 28.8644 42.412 28.8644 41.9556C28.8644 41.4991 28.4942 41.1289 28.0378 41.1289C26.6754 41.1289 25.4684 40.4177 24.7306 39.3297H27.8893C28.3458 39.3297 28.7159 38.9595 28.7159 38.503C28.7159 38.0466 28.3458 37.6764 27.8893 37.6764H24.0513C24.0007 37.4069 23.9736 37.1285 23.9736 36.8435C23.9736 36.5586 24.0007 36.2802 24.0513 36.0106H27.8893C28.3458 36.0106 28.7159 35.6405 28.7159 35.184C28.7159 34.7276 28.3458 34.3574 27.8893 34.3574H24.7305C25.4683 33.2693 26.6754 32.558 28.0377 32.558C28.4942 32.558 28.8643 32.1879 28.8643 31.7314C28.8643 31.2749 28.4942 30.9048 28.0377 30.9048C25.7395 30.9048 23.7548 32.3214 22.8473 34.3574H21.6391C21.1827 34.3574 20.8125 34.7276 20.8125 35.184C20.8125 35.6405 21.1827 36.0106 21.6391 36.0106H22.3777C22.3407 36.283 22.3203 36.5607 22.3203 36.8435C22.3203 37.1263 22.3407 37.4041 22.3777 37.6764H21.6391C21.1827 37.6764 20.8125 38.0466 20.8125 38.503C20.8125 38.9595 21.1827 39.3297 21.6391 39.3297H22.8475C23.755 41.3657 25.7395 42.7822 28.0378 42.7822Z" fill="#595959"/>
<path d="M47.6743 20.6339C48.1308 20.6339 48.5009 20.2639 48.5009 19.8073C48.5009 19.3508 48.1308 18.9807 47.6743 18.9807C47.2177 18.9807 46.8477 19.3508 46.8477 19.8073C46.8477 20.2639 47.2177 20.6339 47.6743 20.6339Z" fill="#595959"/>
<path d="M25.6313 50.9018C26.0878 50.9018 26.4579 50.5317 26.4579 50.0752C26.4579 49.6186 26.0878 49.2485 25.6313 49.2485C25.1748 49.2485 24.8047 49.6186 24.8047 50.0752C24.8047 50.5317 25.1748 50.9018 25.6313 50.9018Z" fill="#595959"/>
<path d="M47.431 28.1501C47.431 27.6936 47.0608 27.3235 46.6044 27.3235C46.1479 27.3235 45.7778 27.6936 45.7778 28.1501V28.4777C45.6981 28.4957 44.1105 28.8068 43.7937 30.5306C43.6314 31.4138 43.916 32.2686 44.5469 32.7637C45.0647 33.1696 45.7797 33.5134 47.0151 33.9502C47.4546 34.1055 47.5764 34.5171 47.6099 34.7486C47.6696 35.162 47.5382 35.7179 47.1099 36.0282C46.5858 36.408 45.7334 36.3373 44.7098 35.8296C44.3008 35.6266 43.8049 35.7937 43.602 36.2027C43.399 36.6118 43.5661 37.1077 43.9751 37.3106C44.657 37.6488 45.2568 37.8228 45.7778 37.8889V38.2821C45.7778 38.7386 46.1479 39.1087 46.6044 39.1087C47.0608 39.1087 47.431 38.7386 47.431 38.2821V37.7153C47.7011 37.6122 47.9173 37.4848 48.08 37.367C48.9483 36.7381 49.406 35.6174 49.2462 34.5122C49.1004 33.5047 48.4725 32.7119 47.5662 32.3916C46.8325 32.1322 46.0214 31.8191 45.5672 31.463C45.096 31.0935 45.5729 30.2562 46.0138 30.1233C46.9626 29.8374 47.8304 30.4101 47.8545 30.4261C48.227 30.6852 48.7395 30.5953 49.0015 30.2242C49.2649 29.8512 49.1759 29.3354 48.803 29.0721C48.7663 29.0462 48.229 28.6743 47.431 28.4908V28.1501Z" fill="#595959"/>
</g>
</g>
<defs>
<linearGradient id="paint0_linear_573_845" x1="35" y1="0" x2="35" y2="70" gradientUnits="userSpaceOnUse">
<stop stop-color="#A6A6A6"/>
<stop offset="1" stop-color="#A6A6A6" stop-opacity="0"/>
</linearGradient>
<clipPath id="clip0_573_845">
<rect width="42" height="42" fill="white" transform="translate(14 14)"/>
</clipPath>
<clipPath id="clip1_573_845">
<rect width="41.9046" height="41.9046" fill="white" transform="translate(14.0938 14.095)"/>
</clipPath>
</defs>
</svg>
