<svg width="169" height="126" viewBox="0 0 169 126" fill="none" xmlns="http://www.w3.org/2000/svg">
<path d="M168.354 44.0025C168.354 46.2959 168.147 48.5428 167.75 50.7246C166.797 55.9592 164.753 60.8123 161.86 65.0419C155.14 74.8708 143.841 81.3211 131.035 81.3211C115.802 81.3211 102.7 72.1958 96.9016 59.1109C96.1365 57.3871 95.4979 55.5944 95.001 53.744C94.1614 50.6389 93.7146 47.3719 93.7146 44.0025C93.7146 41.2772 94.0069 38.6189 94.5615 36.0611C94.5671 36.0313 94.5746 36.0034 94.5802 35.9737C96.1309 28.8998 99.6883 22.5798 104.625 17.6355C106.025 16.232 107.537 14.94 109.147 13.7728C109.914 13.2162 110.705 12.6875 111.515 12.1905C117.192 8.69634 123.877 6.68213 131.035 6.68213C131.984 6.68213 132.924 6.71747 133.855 6.78825C135.17 6.88505 136.463 7.05077 137.735 7.28157C143.089 8.25142 148.042 10.3643 152.339 13.3577H152.341C155.017 15.2211 157.438 17.4251 159.539 19.9104C160.643 21.2153 161.66 22.5966 162.577 24.0468C163.149 24.9496 163.683 25.8767 164.178 26.8299C165.368 29.1196 166.324 31.5488 167.023 34.0862C167.89 37.2432 168.354 40.5698 168.354 44.0025Z" fill="#9AEFE1"/>
<path d="M118.356 27.2978C116.867 29.6564 118.978 33.7518 114.51 32.6349C110.042 31.5179 107.311 31.0209 107.064 33.5024C106.814 35.9857 110.415 35.9857 110.415 38.5919C110.415 41.198 108.801 42.06 106.319 40.8221C103.836 39.5842 103.123 37.784 100.237 38.9009C97.352 40.0178 95.6765 39.2733 95.025 37.0394C94.9095 36.6466 94.7494 36.3283 94.5614 36.0621C94.567 36.0322 94.5745 36.0043 94.5801 35.9746C96.1308 28.9007 99.6882 22.5807 104.625 17.6364C106.025 16.2329 107.536 14.9409 109.147 13.7737C109.914 13.2171 110.705 12.6885 111.515 12.1914C112.678 12.2342 114.069 12.6754 115.255 14.1423C117.861 17.3702 119.597 15.7562 118.978 19.4793C118.356 23.2024 119.35 23.6995 121.459 23.5748C123.568 23.45 126.052 23.45 126.299 25.0641C126.547 26.6778 119.845 24.9392 118.356 27.2978Z" fill="#6FD2CC"/>
<path d="M133.807 49.6343C133.807 49.6343 130.518 50.6892 129.65 48.3933C128.781 46.0975 129.774 45.601 126.857 44.9184C123.941 44.2358 123.693 42.2502 121.831 42.4984C119.97 42.7467 120.9 43.4912 118.729 45.1046C116.557 46.7178 114.571 45.9733 114.633 48.9518C114.695 51.9302 117.922 52.3956 118.574 54.3503C119.225 56.3049 118.108 57.1426 119.504 58.6319C120.9 60.1211 123.507 59.4696 122.297 61.5173C121.087 63.565 119.225 65.1473 120.156 68.312C121.087 71.4766 120.435 71.6627 122.017 73.8966C123.6 76.1305 126.671 76.8751 127.137 75.3859C127.602 73.8966 124.996 71.942 125.834 70.4528C126.671 68.9635 128.067 69.9874 128.626 67.7536C129.184 65.5197 131.449 65.5197 131.635 63.9684C131.822 62.4171 128.905 60.0592 130.022 59.0664C131.139 58.0736 133.373 60.8659 135.11 58.3838C136.848 55.9017 135.669 53.9161 137.468 51.558C139.268 49.2 135.048 48.2693 133.807 49.6343Z" fill="#6FD2CC"/>
<path d="M168.353 44.0041C168.353 46.2975 168.147 48.5444 167.75 50.7261C166.797 55.9608 164.753 60.8139 161.86 65.0434C160.874 65.3673 159.867 65.3598 158.876 64.9633C154.222 63.1018 157.666 58.0756 159.528 55.5625C161.389 53.0494 156.642 54.1664 153.198 51.8394C149.755 49.5124 153.571 43.2762 150.034 44.3001C146.497 45.3239 142.215 46.627 140.168 43.1832C138.12 39.7393 142.029 39.1809 140.261 36.2955C138.492 33.4101 141.285 31.7347 144.822 31.4555C148.358 31.1762 147.893 28.6631 152.268 28.2908C156.642 27.9185 156.549 33.5032 161.389 33.1308C166.23 32.7584 166.012 33.8754 166.012 33.8754C166.36 33.8662 166.699 33.9387 167.022 34.0877C167.89 37.2448 168.353 40.5714 168.353 44.0041Z" fill="#6FD2CC"/>
<path d="M164.178 26.8309C160.153 28.7892 158.537 23.4632 155.097 25.0642C151.629 26.6782 152.236 23.575 149.507 21.5887C146.776 19.6043 141.316 23.2027 141.564 20.0995C141.811 16.9981 145.907 17.8655 146.776 15.3841C147.645 12.9026 151.616 13.5226 151.616 13.5226C151.841 13.437 152.083 13.3811 152.338 13.3587C152.338 13.3587 152.338 13.3569 152.34 13.3587C155.017 15.2222 157.437 17.4262 159.539 19.9115C160.643 21.2164 161.659 22.5977 162.577 24.0479C163.148 24.9507 163.683 25.8777 164.178 26.8309Z" fill="#6FD2CC"/>
<path d="M130.27 16.1275C130.27 16.1275 132.38 13.0835 129.029 12.1855C125.678 11.2874 125.74 12.463 123.134 12.1855C120.528 11.908 119.504 13.9247 121.459 16.1275C123.414 18.3303 124.996 22.5576 126.764 20.3044C128.533 18.0511 128.191 16.3447 130.27 16.1275Z" fill="#6FD2CC"/>
<path d="M150.744 40.649C150.744 44.3816 157.03 50.3481 157.03 50.3481C157.03 50.3481 163.315 44.3816 163.315 40.649C163.315 36.9164 160.501 33.8896 157.03 33.8896C153.558 33.8897 150.744 36.9164 150.744 40.649ZM153.326 40.2527C153.326 38.2123 154.99 36.549 157.03 36.549C159.08 36.549 160.734 38.2123 160.734 40.2527C160.734 42.3026 159.08 43.9563 157.03 43.9563C154.99 43.9563 153.326 42.3026 153.326 40.2527Z" fill="#373C52"/>
<path d="M129.281 16.8915C129.281 20.4767 135.319 26.2077 135.319 26.2077C135.319 26.2077 141.356 20.4767 141.356 16.8915C141.356 13.3061 138.653 10.3989 135.319 10.3989C131.984 10.3989 129.281 13.3062 129.281 16.8915ZM131.761 16.5108C131.761 14.5508 133.359 12.9533 135.319 12.9533C137.288 12.9533 138.876 14.5508 138.876 16.5108C138.876 18.4798 137.288 20.0681 135.319 20.0681C133.359 20.0681 131.761 18.4798 131.761 16.5108Z" fill="#373C52"/>
<path d="M157.03 32.3759C156.943 32.3759 156.869 32.3099 156.861 32.2222C156.861 32.2193 156.834 31.9238 156.778 31.4011C156.768 31.3082 156.836 31.225 156.928 31.2151C157.021 31.2049 157.105 31.2723 157.115 31.3653C157.17 31.8907 157.198 32.1884 157.198 32.1913C157.207 32.2843 157.138 32.3665 157.045 32.3751C157.04 32.3756 157.035 32.3759 157.03 32.3759ZM156.856 30.7355C156.771 30.7355 156.698 30.6718 156.688 30.5855C156.66 30.3383 156.628 30.0663 156.593 29.7718C156.582 29.6791 156.648 29.5949 156.741 29.5837C156.833 29.5731 156.917 29.6387 156.929 29.7315C156.964 30.0268 156.996 30.2994 157.024 30.5473C157.035 30.6401 156.968 30.7239 156.875 30.7344C156.869 30.7351 156.862 30.7355 156.856 30.7355ZM156.66 29.1073C156.576 29.1073 156.504 29.0449 156.493 28.9594C156.46 28.7011 156.425 28.4302 156.388 28.148C156.376 28.0554 156.441 27.9705 156.534 27.9583C156.626 27.946 156.711 28.0113 156.723 28.1039C156.76 28.3868 156.796 28.6582 156.828 28.9171C156.84 29.0097 156.774 29.0943 156.682 29.106C156.674 29.1069 156.667 29.1073 156.66 29.1073ZM156.446 27.4835C156.363 27.4835 156.29 27.4222 156.279 27.3375C156.243 27.0752 156.205 26.8051 156.165 26.5278C156.152 26.4354 156.216 26.3497 156.309 26.3365C156.401 26.3228 156.487 26.3875 156.5 26.4799C156.54 26.7579 156.578 27.0285 156.614 27.2913C156.627 27.3839 156.562 27.4691 156.469 27.4819C156.461 27.483 156.454 27.4835 156.446 27.4835ZM156.214 25.8633C156.132 25.8633 156.06 25.803 156.047 25.7191C156.008 25.455 155.967 25.1854 155.925 24.911C155.91 24.8188 155.974 24.7324 156.066 24.7181C156.157 24.7043 156.245 24.7671 156.259 24.8595C156.301 25.1345 156.342 25.4046 156.382 25.6693C156.395 25.7617 156.332 25.8477 156.239 25.8614C156.231 25.8626 156.222 25.8633 156.214 25.8633ZM155.964 24.2462C155.883 24.2462 155.811 24.187 155.798 24.1039C155.755 23.8388 155.711 23.5699 155.666 23.2977C155.651 23.2056 155.713 23.1184 155.805 23.1031C155.896 23.088 155.984 23.1499 155.999 23.2421C156.045 23.515 156.089 23.7847 156.131 24.0504C156.146 24.1425 156.083 24.2293 155.991 24.244C155.982 24.2455 155.973 24.2462 155.964 24.2462ZM155.696 22.6324C155.615 22.6324 155.544 22.5743 155.529 22.4921C155.484 22.2265 155.437 21.9582 155.388 21.6875C155.372 21.5956 155.433 21.5078 155.525 21.4914C155.616 21.4752 155.705 21.5361 155.721 21.628C155.77 21.8994 155.817 22.1684 155.863 22.4346C155.879 22.5267 155.817 22.6141 155.725 22.63C155.715 22.6317 155.705 22.6324 155.696 22.6324ZM155.408 21.0223C155.328 21.0223 155.257 20.9655 155.242 20.884C155.192 20.6183 155.142 20.3507 155.09 20.0816C155.072 19.9899 155.132 19.9013 155.224 19.8836C155.316 19.8658 155.404 19.9259 155.422 20.0176C155.474 20.2875 155.525 20.5558 155.574 20.8222C155.591 20.914 155.53 21.0023 155.439 21.0194C155.428 21.0214 155.418 21.0223 155.408 21.0223ZM155.098 19.4164C155.019 19.4164 154.949 19.3608 154.933 19.2804C154.88 19.0148 154.825 18.7481 154.77 18.4804C154.751 18.3889 154.81 18.2995 154.901 18.2806C154.993 18.2611 155.082 18.3203 155.101 18.4117C155.156 18.6801 155.211 18.9477 155.264 19.2142C155.283 19.3058 155.223 19.3948 155.132 19.4132C155.12 19.4153 155.109 19.4164 155.098 19.4164ZM154.766 17.8152C154.688 17.8152 154.618 17.761 154.601 17.6818C154.544 17.4171 154.485 17.152 154.426 16.8866C154.406 16.7955 154.463 16.7051 154.554 16.6847C154.645 16.6642 154.735 16.7216 154.756 16.8127C154.816 17.079 154.874 17.345 154.931 17.6105C154.951 17.7018 154.893 17.7918 154.802 17.8115C154.79 17.8139 154.778 17.8152 154.766 17.8152ZM154.409 16.2215C154.332 16.2215 154.262 16.1688 154.244 16.0908C154.182 15.8253 154.119 15.5599 154.055 15.2948C154.032 15.2041 154.088 15.1126 154.179 15.0906C154.27 15.0684 154.361 15.1242 154.383 15.215C154.448 15.4811 154.511 15.7475 154.573 16.014C154.595 16.105 154.538 16.196 154.447 16.2171C154.434 16.22 154.421 16.2215 154.409 16.2215ZM154.022 14.6305C153.946 14.6305 153.877 14.5795 153.858 14.503C153.791 14.239 153.723 13.9756 153.653 13.7132C153.63 13.623 153.683 13.5304 153.774 13.5064C153.864 13.4826 153.956 13.5364 153.98 13.6266C154.05 13.8901 154.119 14.1547 154.186 14.4197C154.209 14.5102 154.154 14.6022 154.063 14.6252C154.049 14.6287 154.036 14.6305 154.022 14.6305ZM153.603 13.0497C153.529 13.0497 153.461 13.0006 153.44 12.9257C153.368 12.6628 153.293 12.4012 153.218 12.141C153.192 12.0513 153.244 11.9576 153.333 11.9315C153.423 11.9054 153.517 11.9571 153.543 12.0468C153.619 12.3082 153.693 12.5711 153.766 12.8354C153.791 12.9254 153.738 13.0186 153.648 13.0435C153.633 13.0478 153.618 13.0497 153.603 13.0497ZM153.147 11.4796C153.075 11.4796 153.008 11.4326 152.986 11.3597C152.906 11.0988 152.824 10.837 152.742 10.5816C152.714 10.4926 152.763 10.3975 152.852 10.3689C152.941 10.3404 153.036 10.3893 153.065 10.4784C153.147 10.7353 153.229 10.9986 153.309 11.261C153.336 11.3504 153.286 11.4448 153.197 11.4721C153.18 11.4771 153.164 11.4796 153.147 11.4796ZM152.648 9.92264C152.577 9.92264 152.511 9.87817 152.488 9.80768C152.4 9.5488 152.31 9.29002 152.22 9.0384C152.188 8.95044 152.234 8.85364 152.322 8.82222C152.41 8.79061 152.507 8.83645 152.538 8.92432C152.629 9.1778 152.72 9.43845 152.808 9.69919C152.838 9.78765 152.79 9.88357 152.702 9.91351C152.684 9.91969 152.666 9.92264 152.648 9.92264ZM136.052 9.37847C136.031 9.37847 136.011 9.37474 135.99 9.36678C135.903 9.33272 135.86 9.23464 135.895 9.14776C135.953 8.99864 136.011 8.85177 136.07 8.70726C136.105 8.62077 136.204 8.57905 136.29 8.614C136.377 8.64905 136.418 8.74761 136.383 8.8342C136.325 8.97753 136.267 9.12312 136.209 9.27107C136.183 9.33763 136.119 9.37847 136.052 9.37847ZM152.096 8.38349C152.028 8.38349 151.963 8.34196 151.938 8.27452C151.84 8.01701 151.74 7.76225 151.64 7.51721C151.605 7.43072 151.647 7.33206 151.733 7.29692C151.819 7.26167 151.918 7.30339 151.953 7.38988C152.054 7.63728 152.155 7.89439 152.254 8.15416C152.287 8.24143 152.243 8.33911 152.156 8.37239C152.136 8.37995 152.116 8.38349 152.096 8.38349ZM136.54 8.18645C136.518 8.18645 136.496 8.18204 136.474 8.17271C136.388 8.1358 136.348 8.03635 136.385 7.95054C136.495 7.6953 136.607 7.4431 136.718 7.201C136.757 7.11608 136.857 7.07907 136.942 7.11765C137.027 7.15653 137.064 7.25686 137.025 7.34178C136.915 7.58151 136.805 7.83127 136.696 8.08406C136.668 8.14807 136.606 8.18645 136.54 8.18645ZM151.48 6.86918C151.415 6.86918 151.352 6.83128 151.325 6.76767C151.214 6.5135 151.101 6.26453 150.99 6.02754C150.95 5.94302 150.986 5.84229 151.07 5.80253C151.155 5.76268 151.256 5.7991 151.295 5.88343C151.408 6.12336 151.523 6.37537 151.635 6.63248C151.672 6.71809 151.633 6.81773 151.547 6.85504C151.525 6.86466 151.502 6.86918 151.48 6.86918ZM137.221 6.70316C137.196 6.70316 137.171 6.69757 137.147 6.68579C137.063 6.64465 137.028 6.54334 137.069 6.4595C137.192 6.20906 137.318 5.96294 137.442 5.72802C137.486 5.64555 137.589 5.61404 137.671 5.65782C137.754 5.70161 137.785 5.80391 137.741 5.88647C137.618 6.11826 137.494 6.36123 137.373 6.60863C137.343 6.66842 137.283 6.70316 137.221 6.70316ZM150.783 5.3908C150.721 5.3908 150.662 5.35722 150.632 5.29871C150.506 5.05318 150.377 4.81295 150.249 4.58461C150.203 4.50322 150.232 4.40014 150.313 4.35429C150.394 4.30844 150.498 4.33731 150.543 4.41869C150.674 4.65097 150.805 4.89512 150.933 5.14458C150.975 5.22763 150.943 5.32963 150.86 5.37214C150.835 5.3849 150.808 5.3908 150.783 5.3908ZM137.986 5.26229C137.958 5.26229 137.929 5.25502 137.902 5.23971C137.821 5.19308 137.793 5.0896 137.84 5.00881C137.98 4.76603 138.123 4.52904 138.265 4.30452C138.315 4.22549 138.42 4.20232 138.499 4.25209C138.578 4.30206 138.601 4.40652 138.551 4.48535C138.411 4.70604 138.271 4.93891 138.133 5.17766C138.102 5.23195 138.045 5.26229 137.986 5.26229ZM149.979 3.96837C149.923 3.96837 149.868 3.9403 149.836 3.88905C149.689 3.65471 149.538 3.42881 149.388 3.21755C149.334 3.14137 149.352 3.03583 149.428 2.98184C149.505 2.92794 149.61 2.94571 149.664 3.02189C149.818 3.23836 149.972 3.46966 150.122 3.70939C150.172 3.78852 150.148 3.89288 150.069 3.94246C150.041 3.96003 150.01 3.96837 149.979 3.96837ZM138.861 3.88542C138.827 3.88542 138.793 3.8754 138.764 3.85459C138.687 3.80079 138.669 3.69526 138.723 3.61898C138.886 3.38788 139.052 3.16542 139.217 2.95769C139.275 2.88445 139.382 2.87248 139.454 2.9305C139.528 2.98861 139.54 3.09493 139.482 3.16807C139.32 3.3707 139.158 3.58786 138.999 3.81365C138.966 3.86038 138.914 3.88542 138.861 3.88542ZM149.032 2.6401C148.983 2.6401 148.935 2.61909 148.901 2.57845C148.725 2.36483 148.546 2.16455 148.367 1.98322C148.302 1.91666 148.303 1.80966 148.369 1.74408C148.436 1.6785 148.543 1.67938 148.608 1.74594C148.794 1.93443 148.98 2.14217 149.162 2.36364C149.222 2.4358 149.211 2.54232 149.139 2.60161C149.108 2.62743 149.07 2.6401 149.032 2.6401ZM139.878 2.61094C139.837 2.61094 139.796 2.59631 139.764 2.56657C139.695 2.50344 139.69 2.39653 139.754 2.32772C139.945 2.11822 140.142 1.9203 140.339 1.73927C140.407 1.67595 140.514 1.68046 140.578 1.74899C140.641 1.81771 140.636 1.92462 140.568 1.98794C140.378 2.16249 140.188 2.35363 140.003 2.55606C139.97 2.59249 139.924 2.61094 139.878 2.61094ZM141.08 1.51063C141.028 1.51063 140.977 1.48716 140.944 1.44278C140.888 1.36798 140.903 1.26205 140.978 1.2061C141.207 1.03518 141.442 0.880554 141.676 0.746451C141.757 0.700015 141.861 0.72829 141.907 0.809283C141.953 0.890373 141.925 0.993648 141.844 1.03999C141.622 1.16722 141.398 1.31428 141.181 1.47685C141.15 1.49963 141.115 1.51063 141.08 1.51063ZM147.887 1.48647C147.849 1.48647 147.812 1.4742 147.781 1.44897C147.569 1.27815 147.352 1.12716 147.136 1.00003C147.056 0.952614 147.029 0.84894 147.077 0.768537C147.124 0.687937 147.227 0.661236 147.308 0.708653C147.538 0.844131 147.768 1.00464 147.993 1.18577C148.066 1.24438 148.077 1.3508 148.019 1.42354C147.985 1.46497 147.936 1.48647 147.887 1.48647ZM142.494 0.708162C142.427 0.708162 142.363 0.667716 142.337 0.601253C142.302 0.514469 142.345 0.416196 142.432 0.381737C142.694 0.277772 142.964 0.19413 143.235 0.132968C143.326 0.112156 143.417 0.169487 143.437 0.260591C143.458 0.351695 143.401 0.442213 143.31 0.462731C143.056 0.520063 142.802 0.598603 142.556 0.696088C142.536 0.704236 142.515 0.708162 142.494 0.708162ZM146.491 0.675763C146.471 0.675763 146.452 0.672425 146.433 0.665553C146.307 0.619805 146.179 0.580832 146.053 0.549416C145.923 0.517412 145.794 0.48865 145.67 0.464205C145.578 0.446141 145.519 0.357195 145.537 0.265601C145.555 0.174006 145.643 0.114317 145.735 0.132381C145.865 0.157906 145.999 0.187848 146.134 0.221128C146.272 0.25539 146.412 0.297995 146.548 0.347768C146.636 0.379773 146.682 0.476768 146.65 0.564534C146.625 0.633157 146.56 0.675763 146.491 0.675763ZM144.895 0.355426C144.89 0.355426 144.886 0.355328 144.882 0.354935C144.613 0.334515 144.348 0.332748 144.09 0.34983C143.997 0.356015 143.916 0.285529 143.91 0.192265C143.904 0.099099 143.975 0.0186004 144.068 0.0124155C144.341 -0.00574638 144.622 -0.00398368 144.907 0.0177124C145 0.0247809 145.07 0.105972 145.063 0.199138C145.056 0.287984 144.982 0.355426 144.895 0.355426Z" fill="#373C52"/>
<path d="M109.057 34.3106L109.027 119.436C109.026 122.233 106.759 124.499 103.963 124.498L59.4636 124.483C56.6669 124.482 54.4009 122.214 54.4019 119.418L54.4312 34.2918C54.4322 31.496 56.6998 29.23 59.4964 29.231L103.996 29.2463C106.792 29.2473 109.058 31.5148 109.057 34.3106Z" fill="#7FE1D3"/>
<path d="M103.962 125.133L59.4631 125.117C56.3208 125.116 53.7652 122.559 53.7662 119.416L53.7956 34.2906C53.7967 31.1482 56.3541 28.5927 59.4964 28.5938L103.996 28.6091C107.138 28.6101 109.694 31.1674 109.693 34.3098L109.663 119.436C109.662 122.578 107.105 125.134 103.962 125.133ZM59.4959 29.8648C57.0544 29.864 55.0674 31.8495 55.0665 34.2911L55.0372 119.417C55.0363 121.858 57.0219 123.845 59.4635 123.846L103.963 123.861C106.404 123.862 108.391 121.877 108.392 119.435L108.421 34.3094C108.422 31.868 106.437 29.881 103.995 29.8801L59.4959 29.8648Z" fill="#373C52"/>
<path d="M62.7347 37.3176L61.9863 37.8542L61.2345 37.3229C61.4013 37.0885 61.6766 36.9335 61.9867 36.9336C62.2949 36.9337 62.5681 37.085 62.7347 37.3176Z" fill="white"/>
<path d="M61.9872 35.624C61.2352 35.6237 60.5702 35.9976 60.1669 36.5692L60.6416 36.9027C60.9403 36.4803 61.4326 36.2052 61.987 36.2054C62.5374 36.2056 63.0258 36.4771 63.3241 36.894L63.7971 36.555C63.3922 35.9908 62.7314 35.6242 61.9872 35.624Z" fill="white"/>
<path d="M61.9879 33.1377C60.3966 33.1371 58.9892 33.9275 58.136 35.1366L58.6107 35.4702C59.3592 34.4122 60.5941 33.7187 61.9877 33.7192C63.3697 33.7196 64.5962 34.4023 65.346 35.4473L65.8171 35.1083C64.9628 33.916 63.5656 33.1383 61.9879 33.1377Z" fill="white"/>
<path d="M61.9874 34.4985C60.8555 34.4981 59.8513 35.0579 59.2405 35.9163L59.7152 36.2499C60.2213 35.5426 61.0511 35.0797 61.9872 35.08C62.9157 35.0803 63.7392 35.5361 64.2468 36.234L64.7179 35.897C64.1058 35.0497 63.1097 34.4989 61.9874 34.4985Z" fill="white"/>
<path d="M71.977 20.3759C71.977 20.3759 68.7319 18.8168 64.5394 19.6732C64.5394 19.6732 69.335 19.3457 72.1785 22.3892C72.1785 22.3892 74.1671 19.3397 77.4543 18.6405C77.4543 18.6405 75.0047 18.3487 71.977 20.3759Z" fill="#F8D451"/>
<path d="M62.8322 18.9054C62.8322 18.9054 60.3295 17.685 57.0831 18.3283C57.0831 18.3283 60.7935 18.0967 62.9789 20.4634C62.9789 20.4634 64.5306 18.114 67.0761 17.5881C67.0761 17.5881 65.1831 17.3513 62.8322 18.9054Z" fill="#F8D451"/>
<path d="M54.7595 17.794C54.7595 17.794 52.436 16.7803 49.5079 17.4905C49.5079 17.4905 52.8739 17.1369 54.953 19.2056C54.953 19.2056 56.2739 17.0087 58.569 16.4323C58.569 16.4323 56.8379 16.2898 54.7595 17.794Z" fill="#F8D451"/>
<path d="M50.234 15.4583C50.234 15.4583 48.6034 14.9213 46.6737 15.585C46.6737 15.585 48.9212 15.1342 50.4536 16.398C50.4536 16.398 51.2058 14.8334 52.7171 14.2998C52.7171 14.2998 51.5407 14.3129 50.234 15.4583Z" fill="#F8D451"/>
<path d="M66.4347 9.71816C66.4347 9.71816 64.8341 9.09692 62.8726 9.65896C62.8726 9.65896 65.1405 9.32605 66.605 10.6681C66.605 10.6681 67.4377 9.14473 68.9748 8.69078C68.9748 8.69078 67.7993 8.64248 66.4347 9.71816Z" fill="#F8D451"/>
<path d="M74.323 15.2485C74.323 15.2485 72.0896 14.1224 69.166 14.6615C69.166 14.6615 72.5014 14.4978 74.4362 16.6498C74.4362 16.6498 75.858 14.558 78.1508 14.116C78.1508 14.116 76.4532 13.8806 74.323 15.2485Z" fill="#F8D451"/>
<path d="M71.2098 11.7539C71.2098 11.7539 69.1071 10.7915 66.4249 11.3915C66.4249 11.3915 69.5008 11.1239 71.3633 13.0446C71.3633 13.0446 72.6039 11.0625 74.7067 10.5742C74.7067 10.5742 73.13 10.4158 71.2098 11.7539Z" fill="#F8D451"/>
<path d="M155.801 122.673H140.908C139.48 122.673 138.323 121.516 138.323 120.088V119.75H158.192V120.282C158.192 121.603 157.122 122.673 155.801 122.673Z" fill="#E8B241"/>
<path d="M158.874 95.2056V118.919C158.874 119.205 158.842 119.483 158.781 119.751H156C155.569 119.751 155.166 119.877 154.827 120.094C154.617 120.228 154.432 120.396 154.28 120.592C153.989 120.962 153.818 121.429 153.818 121.936V122.675H142.922V121.936C142.922 121.174 142.532 120.502 141.94 120.111C141.773 120.001 141.589 119.913 141.393 119.851C141.187 119.786 140.967 119.751 140.739 119.751H137.733C137.673 119.483 137.641 119.205 137.641 118.919V95.2057C137.641 93.1309 139.32 91.4497 141.393 91.4497H155.121C157.194 91.4496 158.874 93.1308 158.874 95.2056Z" fill="#F8D451"/>
<path d="M152.255 91.4358C147.338 89.4974 143.907 91.4051 143.873 91.4246L143.696 91.1158C143.732 91.0947 144.609 90.5978 146.124 90.3459C147.516 90.1145 149.732 90.0583 152.385 91.1046L152.255 91.4358Z" fill="#E8B241"/>
<path d="M141.103 121.575H139.665V123.534H141.103V121.575Z" fill="#E8B241"/>
<path d="M139.36 123.832C139.36 123.266 139.818 122.808 140.384 122.808C140.949 122.808 141.407 123.266 141.407 123.832C141.407 124.397 140.949 124.856 140.384 124.856C139.818 124.856 139.36 124.397 139.36 123.832Z" fill="#F8D451"/>
<path d="M139.762 123.832C139.762 123.488 140.041 123.21 140.384 123.21C140.727 123.21 141.005 123.488 141.005 123.832C141.005 124.175 140.727 124.453 140.384 124.453C140.041 124.453 139.762 124.175 139.762 123.832Z" fill="#E8B241"/>
<path d="M155.894 121.575H154.456V123.534H155.894V121.575Z" fill="#E8B241"/>
<path d="M154.152 123.832C154.152 123.266 154.61 122.808 155.175 122.808C155.74 122.808 156.198 123.266 156.198 123.832C156.198 124.397 155.74 124.856 155.175 124.856C154.61 124.856 154.152 124.397 154.152 123.832Z" fill="#F8D451"/>
<path d="M154.553 123.832C154.553 123.488 154.832 123.21 155.175 123.21C155.518 123.21 155.796 123.488 155.796 123.832C155.796 124.175 155.518 124.453 155.175 124.453C154.832 124.453 154.553 124.175 154.553 123.832Z" fill="#E8B241"/>
<path d="M141.941 91.4497V120.111C141.773 120.001 141.589 119.913 141.394 119.851V91.4497H141.941Z" fill="#E8B241"/>
<path d="M146.32 91.4497H145.772V122.675H146.32V91.4497Z" fill="#E8B241"/>
<path d="M150.406 91.4497H149.859V122.675H150.406V91.4497Z" fill="#E8B241"/>
<path d="M154.827 91.4497V120.094C154.617 120.228 154.432 120.396 154.28 120.592V91.4498L154.827 91.4497Z" fill="#E8B241"/>
<path d="M125.78 79.1711C125.78 79.1302 126.379 77.892 126.189 77.7968C125.998 77.7014 125.657 77.7159 125.617 77.9328C125.577 78.1498 125.78 79.1711 125.78 79.1711Z" fill="#E2B097"/>
<path d="M126.006 79.9087C126.007 79.7873 125.866 77.9335 125.553 77.5645C125.241 77.1955 124.602 76.6707 124.402 76.6869C124.201 76.703 123.415 77.7465 123.651 78.5462C123.888 79.3459 124.884 80.428 124.884 80.428L126.006 79.9087Z" fill="#E2B097"/>
<path d="M127.198 77.6655L125.378 78.2111C125.318 78.2292 125.254 78.1949 125.236 78.1346L124.195 74.6634C124.177 74.603 124.212 74.5393 124.272 74.5211L126.092 73.9756C126.153 73.9574 126.216 73.9917 126.235 74.0521L127.275 77.5233C127.293 77.5838 127.259 77.6474 127.198 77.6655Z" fill="#E1558B"/>
<path d="M126.725 77.8068L125.074 78.3018C124.967 78.3339 124.854 78.2731 124.822 78.1659L123.832 74.864C123.8 74.7569 123.861 74.6439 123.968 74.6119L125.619 74.117C125.727 74.0849 125.839 74.1456 125.872 74.2528L126.861 77.5549C126.893 77.6618 126.833 77.7747 126.725 77.8068Z" fill="#D23E7D"/>
<path d="M124.214 76.8224C124.214 76.8224 124.972 75.656 125.157 75.7209C125.422 75.8135 124.47 77.2935 124.47 77.2935C124.47 77.2935 125.175 76.1875 125.285 76.2706C125.536 76.4602 125.137 77.1551 124.74 77.6878C124.74 77.6878 125.45 77.0384 125.473 77.1554C125.554 77.5651 124.694 78.5578 124.694 78.5578L124.214 77.4606L124.214 76.8224Z" fill="#E2B097"/>
<path d="M123.645 77.9061C123.682 77.7634 123.867 74.9781 123.946 75.2423C124.025 75.5065 124.214 76.967 124.214 76.967L123.645 77.9061Z" fill="#E2B097"/>
<path d="M135.743 77.1376C135.743 77.1376 135.663 80.166 134.79 82.6101C134.1 84.5402 132.915 86.1059 130.882 85.5277C130.674 85.4685 130.473 85.405 130.277 85.3366C130.276 85.3357 130.275 85.3357 130.275 85.3357C126.144 83.8968 124.807 80.6031 124.807 80.6031C125.115 80.0959 126.006 79.9091 126.006 79.9091C126.838 79.9538 130.494 81.506 130.727 81.5533C131.573 81.7233 132.256 77.0769 132.805 75.4672C133.355 73.8576 135.604 73.1372 135.604 73.1372L135.743 77.1376Z" fill="#E77D3B"/>
<path d="M134.87 80.4297L134.79 82.6118C134.1 84.542 132.915 86.1077 130.882 85.5294C130.674 85.4702 130.473 85.4068 130.277 85.3384C130.342 85.3468 131.587 85.515 132.108 84.9943C132.643 84.4583 132.587 82.6829 133.573 81.4993C134.559 80.3156 134.87 80.4297 134.87 80.4297Z" fill="#D87131"/>
<path d="M134.984 120.337C134.984 120.337 136 121.265 135.802 121.924C135.603 122.584 134.686 123.023 134.562 123.829C134.438 124.635 133.942 125.074 133.496 125.074C133.05 125.074 131.368 125.074 131.368 125.074C131.368 125.074 131.039 124.507 131.833 124.336C132.626 124.165 132.926 123.218 132.876 122.339C132.826 121.461 132.95 120.289 132.95 120.289L134.636 119.898L134.984 120.337Z" fill="#E1558B"/>
<path d="M123.783 124.903H130.048C130.293 124.903 130.495 124.708 130.502 124.463C130.512 124.095 130.482 123.562 130.278 123.111C129.944 122.37 129.732 122.24 131.145 120.083C130.72 120.52 129.575 120.32 128.609 120.19C128.49 120.382 126.697 123.152 126.302 123.436C125.865 123.75 123.917 123.638 123.783 124.903Z" fill="#D23E7D"/>
<path d="M133.545 90.161C133.545 90.161 129.002 98.7325 127.768 103.452C126.81 107.116 132.657 121.291 132.657 121.291C132.657 121.291 133.135 121.259 133.915 120.953C134.68 120.652 134.972 119.845 134.972 119.845C134.972 119.845 134.625 109.709 133.441 104.806C133.176 103.705 134.728 100.155 137.349 98.2107C139.97 96.2662 141.061 90.0101 139.501 89.5874C137.941 89.1647 133.545 90.161 133.545 90.161Z" fill="#D23E7D"/>
<path d="M137.434 87.7271C137.434 87.7271 132.658 105.233 131.21 109.164C129.761 113.095 127.464 121.438 127.464 121.438C127.464 121.438 128.916 122.12 130.776 121.797C130.776 121.797 137.759 111.568 138.063 107.046C138.203 104.957 145.227 96.6717 144.444 91.2693L137.434 87.7271Z" fill="#E1558B"/>
<path d="M144.433 93.1886C144.433 93.1886 143.417 93.7008 141.62 93.8514H141.619C139.562 94.0239 136.481 93.7211 132.729 91.6321C132.729 91.6321 131.682 90.7699 132.968 87.1025C133.941 84.326 134.416 78.4723 135.603 73.1377C135.603 73.1377 139.457 71.9288 142.549 72.9738C144.911 73.7727 144.676 77.3979 145.112 81.1726C145.152 81.5252 145.199 81.8786 145.254 82.2311C145.899 86.3635 144.433 93.1886 144.433 93.1886Z" fill="#E77D3B"/>
<path d="M134.245 65.2395C134.245 65.2395 136.875 60.9582 138.912 63.1615C138.912 63.1615 140.243 63.5016 141.006 65.5748C141.784 67.6899 140.572 69.5576 139.763 69.2558C139.244 69.0623 139.001 69.9569 139.001 69.9569L134.245 65.2395Z" fill="#412013"/>
<path d="M138.508 62.8248C138.508 62.8248 138.689 61.0523 141.279 61.2247C141.279 61.2247 140.055 61.2466 139.792 61.7575C139.792 61.7575 140.682 61.1835 141.332 61.4627C141.982 61.742 142.257 62.9575 142.222 63.3446C142.187 63.7317 141.688 64.9406 141.251 65.0035C140.815 65.0666 140.242 64.7578 140.242 64.7578L138.508 62.8248Z" fill="#412013"/>
<path d="M139.813 72.8665C139.57 72.2182 139.208 71.5375 138.917 69.4668L138.761 69.5214L136.147 70.4421C136.147 70.4421 136.33 71.2802 136.447 72.0778C136.495 72.4039 136.529 72.9859 136.551 73.4943C136.574 74.0139 137.085 74.0629 137.605 74.0389C138.987 73.975 139.749 73.4595 139.813 72.8665Z" fill="#E2B097"/>
<path d="M136.147 70.4428C136.147 70.4428 136.33 71.2809 136.447 72.0785C137.947 71.819 138.545 70.3304 138.761 69.522L136.147 70.4428Z" fill="#DA9F84"/>
<path d="M138.997 69.187C138.997 69.187 139.607 67.8262 139.642 66.7327C139.668 65.9519 138.873 63.1861 136.096 64.0012C136.096 64.0012 135.285 64.201 134.586 64.8355C134.03 65.3401 133.271 66.3657 134.619 68.6849L134.997 69.4794L138.997 69.187Z" fill="#412013"/>
<path d="M135.753 71.2688C135.753 71.2688 139.325 70.8139 139.007 68.5942C138.69 66.3744 138.937 64.8206 136.643 65.0173C134.349 65.2138 134.028 66.1241 133.954 66.8907C133.88 67.6574 134.816 71.3299 135.753 71.2688Z" fill="#E2B097"/>
<path d="M135.012 65.1966C135.012 65.1966 136.363 67.6598 137.916 67.829C139.468 67.9982 140.06 67.5035 140.06 67.5035C140.06 67.5035 138.78 66.7568 138.312 65.1986C138.312 65.1986 135.569 63.8511 135.012 65.1966Z" fill="#412013"/>
<path d="M135.285 65.3747C135.285 65.3747 134.64 66.061 134.544 66.6518C134.448 67.2426 134.535 68.4176 134.191 68.427C134.191 68.427 133.2 66.7631 133.882 65.6428C134.605 64.455 135.285 65.3747 135.285 65.3747Z" fill="#412013"/>
<path d="M135.162 65.4816C135.162 65.4816 136.25 68.1082 138.265 68.7091C138.265 68.7091 136.135 67.3061 135.715 65.5293C135.295 63.7525 135.162 65.4816 135.162 65.4816Z" fill="#412013"/>
<path d="M144.433 93.1888C144.433 93.1888 143.417 93.701 141.62 93.8516H141.618C141.618 93.8516 140.142 92.0011 141.789 89.9272C143.436 87.8534 141.661 84.0269 142.929 81.9456C143.812 80.4973 144.67 80.8347 145.112 81.1729C145.152 81.5254 145.199 81.8788 145.254 82.2314C145.899 86.3637 144.433 93.1888 144.433 93.1888Z" fill="#D87131"/>
<path d="M150.912 90.1147C150.912 90.1147 151.131 90.6244 151.437 90.6586C151.936 90.7143 152.888 91.1328 153.037 91.2214C153.442 91.4618 153.414 92.5368 153.009 92.6379C152.605 92.739 152.402 91.8369 151.138 91.5953C150.709 91.5133 150.084 91.8098 149.831 90.7821L150.912 90.1147Z" fill="#E2B097"/>
<path d="M142.549 72.9747C146.226 74.3273 146.362 80.8422 148.002 83.7115C149.692 86.6705 151.339 90.5652 151.339 90.5652C151.339 90.5652 151.309 90.6818 150.679 90.8624C150.235 90.9896 149.771 90.9357 149.771 90.9357C149.771 90.9357 146.297 87.7926 145.353 86.5527C144.409 85.3127 142.183 79.5604 142.183 79.5604C142.183 79.5604 141.089 72.4377 142.549 72.9747Z" fill="#E77D3B"/>
<path d="M149.922 91.0356C149.922 91.0356 150.011 91.4734 150.554 91.8275C151.096 92.1816 151.531 92.5357 151.583 92.3165C151.635 92.0973 151.281 91.8612 151.197 91.4565C151.113 91.0517 149.922 91.0356 149.922 91.0356Z" fill="#E2B097"/>
<path d="M108.406 69.3413H55.0372V107.975H108.406V69.3413Z" fill="#E1558B"/>
<path d="M94.9692 118.459V123.671C94.9692 123.735 94.9679 123.799 94.9653 123.862H68.2779C68.2752 123.799 68.2739 123.735 68.2739 123.671V118.459C68.2739 116.081 69.8086 114.136 71.6841 114.136H91.5592C93.4347 114.136 94.9692 116.082 94.9692 118.459Z" fill="#F8D451"/>
<path d="M81.5949 120.769L79.877 119.231L80.3598 118.692L81.4693 119.685L83.0048 117.488L83.598 117.903L81.5949 120.769Z" fill="#FDF4DF"/>
<path d="M81.7374 122.415C79.9243 122.415 78.4492 120.94 78.4492 119.127C78.4492 117.314 79.9243 115.839 81.7374 115.839C83.5505 115.839 85.0255 117.314 85.0255 119.127C85.0255 120.94 83.5505 122.415 81.7374 122.415ZM81.7374 116.008C80.0176 116.008 78.6184 117.407 78.6184 119.127C78.6184 120.847 80.0176 122.246 81.7374 122.246C83.4572 122.246 84.8564 120.847 84.8564 119.127C84.8564 117.407 83.4572 116.008 81.7374 116.008Z" fill="#FDF4DF"/>
<path d="M59.8165 44.2062C59.8165 44.2062 61.0522 41.4545 64.0073 41.7602C64.0073 41.7602 68.2976 37.1739 72.8725 41.1487C72.8725 41.1487 77.7357 40.1638 81.3372 42.0014C83.7384 43.2266 84.5316 44.5119 84.5316 44.5119L59.8165 44.2062Z" fill="#EBF3FA"/>
<path d="M92.7498 37.497C92.7651 37.4964 92.7805 37.496 92.796 37.4957C92.9834 37.4927 93.1635 37.4253 93.3019 37.2987C93.9233 36.7308 95.8166 35.3175 97.8553 36.9409C98.0149 37.0679 98.2211 37.1206 98.4229 37.0911C99.2102 36.976 101.268 36.7897 102.878 37.6524C102.922 37.6759 102.965 37.6995 103.007 37.723C103.678 38.0991 103.396 39.1245 102.627 39.1145L92.7717 38.9865C91.8056 38.9742 91.7841 37.5331 92.7498 37.497Z" fill="#EBF3FA"/>
<path d="M101.84 102.304H91.2467C89.4193 102.304 87.9326 100.818 87.9326 98.9901V76.6179C87.9326 74.7904 89.4193 73.3037 91.2467 73.3037H101.84C103.668 73.3037 105.155 74.7904 105.155 76.6179V98.9901C105.154 100.818 103.668 102.304 101.84 102.304ZM91.2466 73.6418C89.6057 73.6418 88.2706 74.9769 88.2706 76.6179V98.9901C88.2706 100.631 89.6056 101.966 91.2466 101.966H101.84C103.481 101.966 104.816 100.631 104.816 98.9901V76.6179C104.816 74.977 103.481 73.6418 101.84 73.6418H91.2466Z" fill="#FDF4DF"/>
<path d="M83.1283 87.8883H67.8232C66.4764 87.8883 65.3848 86.7966 65.3848 85.4499V75.913C65.3848 74.5663 66.4764 73.4746 67.8232 73.4746H83.1283C84.475 73.4746 85.5667 74.5664 85.5667 75.913V85.4499C85.5667 86.7966 84.475 87.8883 83.1283 87.8883Z" fill="#FDF4DF"/>
<path d="M83.3539 102.307H67.5978C66.2843 102.307 65.2158 101.238 65.2158 99.9248V92.4796C65.2158 91.1662 66.2843 90.0977 67.5978 90.0977H83.3539C84.6673 90.0977 85.7359 91.1662 85.7359 92.4796V99.9248C85.7359 101.238 84.6673 102.307 83.3539 102.307ZM67.5978 90.4359C66.4709 90.4359 65.5539 91.3527 65.5539 92.4796V99.9248C65.5539 101.052 66.4708 101.969 67.5978 101.969H83.3539C84.4808 101.969 85.3978 101.052 85.3978 99.9248V92.4796C85.3978 91.3527 84.4808 90.4359 83.3539 90.4359H67.5978Z" fill="#FDF4DF"/>
<path d="M92.1395 81.4958C92.1395 84.1111 96.5435 88.2917 96.5435 88.2917C96.5435 88.2917 100.948 84.1112 100.948 81.4958C100.948 78.8805 98.9759 76.7598 96.5435 76.7598C94.1111 76.7598 92.1395 78.8805 92.1395 81.4958ZM93.9486 81.2181C93.9486 79.7884 95.114 78.623 96.5435 78.623C97.9799 78.623 99.1385 79.7884 99.1385 81.2181C99.1385 82.6543 97.9799 83.8131 96.5435 83.8131C95.114 83.8131 93.9486 82.6544 93.9486 81.2181Z" fill="#FDF4DF"/>
<path d="M83.5109 83.015L83.3024 83.017C83.2952 83.0171 83.2881 83.0181 83.281 83.02L81.6822 83.4567C81.6626 83.462 81.6418 83.4601 81.6235 83.4513L79.3765 82.5862C79.319 82.5585 79.6667 82.3889 79.7183 82.3513C80.2802 81.9424 82.062 80.9461 82.7316 80.5034C82.8387 80.4326 82.8091 80.268 82.6841 80.2388C82.6238 80.2248 82.5607 80.2285 82.5026 80.2496L79.2297 81.438L78.7898 81.1592C78.7259 81.1186 78.6406 81.1379 78.6001 81.2018L78.3846 81.5429C78.3449 81.6058 78.3629 81.6892 78.4239 81.7304L78.0023 81.8836C77.9822 81.8909 77.9602 81.8903 77.9404 81.8819L75.9264 81.0229C75.748 80.9468 75.5489 80.9349 75.3629 80.9892C75.2875 81.0112 75.2062 81.035 75.1309 81.0573C74.9749 81.1033 74.8888 81.2703 74.9415 81.4244L74.968 81.5018C75.0543 81.7543 75.2489 81.955 75.4986 82.0489L77.1317 82.6634C77.164 82.6755 77.1857 82.7061 77.1864 82.7407L77.201 83.4466L77.1076 83.3874C77.0437 83.3469 76.9584 83.3661 76.918 83.4301L76.7024 83.7713C76.662 83.8352 76.6812 83.9207 76.7451 83.9611L77.2178 84.2607L77.2406 85.362C77.2424 85.451 77.2704 85.5375 77.3213 85.6104C77.386 85.7034 77.4543 85.8064 77.4782 85.7957C77.556 85.7609 78.2957 84.0649 78.5474 83.3977C78.5618 83.3598 78.8826 83.4792 78.9205 83.4934L81.147 84.1743C81.1756 84.185 81.1962 84.2105 81.2008 84.2407L81.2997 84.8903C81.3108 84.9631 81.3462 85.0299 81.4003 85.0798L81.4025 85.0817C81.4409 85.117 81.5016 85.1094 81.5301 85.0658L82.0479 84.2725C82.0629 84.2494 82.0882 84.2352 82.1157 84.2343L82.3549 84.2269C82.4295 84.2245 82.4643 84.1335 82.4105 84.0817L82.3522 84.0255L83.5604 83.1683C83.628 83.1205 83.5935 83.0142 83.5109 83.015Z" fill="#E1558B"/>
<path d="M80.3022 99.4978C78.4858 99.4978 77.0081 98.0201 77.0081 96.2038C77.0081 94.3874 78.4858 92.9097 80.3022 92.9097C82.1186 92.9097 83.5963 94.3874 83.5963 96.2038C83.5963 98.0201 82.1186 99.4978 80.3022 99.4978ZM80.3022 93.2706C78.6847 93.2706 77.3689 94.5864 77.3689 96.2038C77.3689 97.8211 78.6847 99.137 80.3022 99.137C81.9196 99.137 83.2355 97.8211 83.2355 96.2038C83.2354 94.5864 81.9196 93.2706 80.3022 93.2706Z" fill="#FDF4DF"/>
<path d="M80.3035 96.6425H80.2583C80.1954 96.6425 80.1439 96.5909 80.1439 96.5281V94.693C80.1439 94.6299 80.1955 94.5786 80.2583 94.5786H80.3035C80.3664 94.5786 80.4178 94.63 80.4178 94.693V96.5281C80.4178 96.5909 80.3664 96.6425 80.3035 96.6425Z" fill="#FDF4DF"/>
<path d="M80.2414 96.5837L80.2376 96.5798C80.212 96.5542 80.212 96.5124 80.2376 96.4868L82.0689 94.6554C82.0945 94.6298 82.1364 94.6298 82.162 94.6554L82.1658 94.6592C82.1914 94.6848 82.1914 94.7266 82.1658 94.7522L80.3344 96.5837C80.3089 96.6092 80.267 96.6092 80.2414 96.5837Z" fill="#FDF4DF"/>
<path d="M80.1008 96.518C80.1008 96.4186 80.1814 96.3379 80.2809 96.3379C80.3803 96.3379 80.461 96.4185 80.461 96.518C80.461 96.6174 80.3804 96.6981 80.2809 96.6981C80.1815 96.6981 80.1008 96.6175 80.1008 96.518Z" fill="#FDF4DF"/>
<path d="M74.7994 92.2554H67.5569V93.0066H74.7994V92.2554Z" fill="#FDF4DF"/>
<path d="M74.7992 93.9707H67.5568V94.727H74.7992V93.9707Z" fill="#FDF4DF"/>
<path d="M71.8995 95.6899H67.5568V96.4464H71.8995V95.6899Z" fill="#FDF4DF"/>
<path d="M100.165 92.2871H92.9224V93.0383H100.165V92.2871Z" fill="#FDF4DF"/>
<path d="M100.165 94.002H92.9222V94.7584H100.165V94.002Z" fill="#FDF4DF"/>
<path d="M97.2649 95.7222H92.9222V96.4785H97.2649V95.7222Z" fill="#FDF4DF"/>
<path d="M75.2485 76.79H68.0061V77.5414H75.2485V76.79Z" fill="#E1558B"/>
<path d="M75.2484 78.5039H68.006V79.2603H75.2484V78.5039Z" fill="#E1558B"/>
<path d="M72.3487 80.2231H68.006V80.9795H72.3487V80.2231Z" fill="#E1558B"/>
<path d="M55.0598 54.0408C55.0598 54.0408 57.3639 53.8813 57.8659 55.6889C57.8659 55.6889 59.6402 52.074 63.3878 52.3718C67.1354 52.6697 67.8276 54.8739 67.8276 54.8739C67.8276 54.8739 69.9749 54.1363 71.758 55.1197C73.5411 56.1032 73.4265 57.9061 73.4265 57.9061C73.4265 57.9061 75.0614 55.6114 78.3474 56.431C78.3474 56.431 77.6918 53.113 81.6436 52.3544C85.5953 51.5957 87.2734 52.907 87.2734 52.907C87.2734 52.907 91.7489 50.0248 95.7108 53.6377C95.7108 53.6377 98.6138 53.074 100.033 54.862C100.033 54.862 102.941 51.3477 108.412 51.9649V69.3391H55.0372L55.0598 54.0408Z" fill="#E3FFFA"/>
<path d="M55.0591 62.7126C55.0591 62.7126 58.934 61.7325 62.393 64.0151C62.393 64.0151 63.2361 63.0107 65.4317 63.2593C67.6274 63.5078 68.232 65.5362 68.232 65.5362C68.232 65.5362 75.9143 62.9992 79.7178 69.3406H55.0372L55.0591 62.7126Z" fill="#BBFFF2"/>
<path d="M84.4453 69.3407C84.4453 69.3407 84.6416 65.4525 88.7015 64.5225C88.7015 64.5225 86.5991 63.5925 87.6589 61.2817C88.7188 58.9709 91.293 58.8018 91.293 58.8018C91.293 58.8018 91.5619 54.6211 98.8615 55.3431C100.911 55.5457 103.08 56.7729 103.42 58.9146C103.42 58.9146 104.211 57.6123 105.851 57.6999C105.851 57.6999 106.054 55.3227 108.412 55.3433V69.3408L84.4453 69.3407Z" fill="#BBFFF2"/>
<path d="M94.29 35.4175L91.2263 46.0319L91.1296 46.0201L80.6617 44.7485C80.6617 44.7485 85.5101 43.7401 86.0138 43.1583C86.4885 42.61 91.5228 36.1057 92.9953 35.4105C93.0856 35.3679 93.1627 35.3472 93.2243 35.351C94.29 35.4175 94.29 35.4175 94.29 35.4175Z" fill="#E8B241"/>
<path d="M91.1296 46.0202L80.6617 44.7486C80.6617 44.7486 85.5101 43.7402 86.0138 43.1584C86.4885 42.6101 91.5228 36.1058 92.9953 35.4106C91.6915 37.3038 88.6698 41.8536 88.798 43.1765C88.92 44.4363 90.3941 45.5425 91.1296 46.0202Z" fill="#F8D451"/>
<path d="M92.2605 49.2165C91.9033 49.3386 90.8355 49.6752 89.3702 50.1015C85.1576 51.3267 77.6641 53.294 74.3573 53.0509C71.3909 52.8331 55.703 51.6352 44.8514 50.684C47.4771 46.0727 50.7509 43.5249 53.7472 42.1284C66.39 43.1642 82.9241 44.564 85.0279 44.9704C88.4885 45.6394 93.0793 46.1832 93.0793 46.1832C93.0793 46.1832 93.1104 46.3236 93.14 46.5464C93.2376 47.2697 93.3195 48.8522 92.2605 49.2165Z" fill="#E58638"/>
<path d="M93.1939 47.314C93.1931 47.3398 93.1931 47.3672 93.1923 47.3938C93.1832 47.9695 93.0661 48.6114 92.6592 48.981C92.6456 48.994 92.6311 49.0061 92.6166 49.0183C92.5878 49.0419 92.5574 49.0648 92.5261 49.0853C92.5261 49.0853 92.5261 49.0853 92.5254 49.0853V49.0861C92.5102 49.096 92.4934 49.1058 92.4767 49.1165C92.4607 49.1257 92.4441 49.1355 92.4266 49.1447C92.4266 49.1447 92.4266 49.1447 92.4258 49.1447C92.4091 49.1538 92.3915 49.1622 92.3734 49.1706C92.3551 49.179 92.3369 49.1873 92.3179 49.195C92.2996 49.2026 92.2799 49.2094 92.2608 49.2163C92.2548 49.2185 92.2494 49.2201 92.2433 49.2216V49.2224C92.2373 49.2238 92.2311 49.2262 92.225 49.2284C92.219 49.2307 92.2122 49.2323 92.2061 49.2345V49.2353C92.1992 49.2368 92.1923 49.2391 92.1856 49.2414V49.2422C92.1787 49.2437 92.171 49.246 92.1643 49.2491C92.1566 49.2513 92.149 49.2536 92.1422 49.2559C92.1422 49.2559 92.1422 49.2559 92.1415 49.2559V49.2567C92.1338 49.259 92.1263 49.2613 92.1186 49.2643C92.1103 49.2666 92.1026 49.2696 92.0943 49.2719H92.0936C92.0852 49.275 92.0776 49.2772 92.0685 49.2803C92.0601 49.2833 92.0511 49.2856 92.0426 49.2886C92.0243 49.2947 92.006 49.3008 91.9871 49.3069H91.9863C91.9771 49.3099 91.9673 49.313 91.9582 49.316H91.9575V49.3168C91.9476 49.3198 91.9377 49.3229 91.9279 49.3259C91.9202 49.3282 91.9133 49.3304 91.9058 49.3328C91.8267 49.3586 91.7385 49.3868 91.6419 49.4172C91.6236 49.4225 91.6062 49.4278 91.5872 49.434C91.3339 49.5138 91.0266 49.609 90.6729 49.7154C90.6364 49.7261 90.6 49.7375 90.562 49.7489C90.5003 49.7679 90.4372 49.7868 90.3726 49.8059C90.359 49.8097 90.3452 49.8142 90.3308 49.8181C90.3119 49.8241 90.2912 49.8302 90.2714 49.8363C90.2517 49.8424 90.2319 49.8478 90.2113 49.8538C90.1908 49.8599 90.171 49.866 90.1505 49.8721C90.1307 49.8781 90.1094 49.8842 90.0889 49.8903C90.0684 49.8964 90.0479 49.9025 90.0272 49.9086C90.0059 49.9147 89.9847 49.9215 89.9642 49.9276C89.9429 49.9337 89.9216 49.9398 89.901 49.9459C89.9003 49.9459 89.9003 49.9467 89.9003 49.9467C89.879 49.9528 89.8577 49.9588 89.8364 49.9649C89.8212 49.9694 89.806 49.9741 89.79 49.9794C89.784 49.9802 89.7778 49.9824 89.7717 49.9847C89.7497 49.9907 89.7284 49.9968 89.7063 50.0029C89.5969 50.0356 89.485 50.0683 89.3703 50.101C89.3048 50.1207 89.2379 50.1398 89.1701 50.1596C89.1124 50.1763 89.0538 50.1931 88.9953 50.2098C88.9512 50.2227 88.907 50.2356 88.8621 50.2485C88.688 50.298 88.5093 50.349 88.3267 50.4007C88.2894 50.4113 88.2529 50.4212 88.2164 50.4318C88.1525 50.4501 88.0886 50.4676 88.024 50.4858C87.9662 50.5026 87.9076 50.5185 87.8483 50.5353C87.7829 50.5536 87.7174 50.5718 87.6514 50.59C85.4617 51.1977 82.8075 51.8791 80.3465 52.3742C80.2606 52.3917 80.1738 52.4084 80.0879 52.4259C80.0453 52.4343 80.0026 52.4427 79.9601 52.4511C79.8741 52.4678 79.789 52.4837 79.7038 52.4997C79.4491 52.5484 79.1966 52.5948 78.9479 52.6382C78.865 52.6526 78.7829 52.6671 78.7008 52.6808C78.6597 52.6876 78.6186 52.6944 78.5783 52.7013C78.4969 52.7149 78.4155 52.7279 78.3349 52.7416C78.2543 52.7546 78.1737 52.7667 78.0938 52.7789C78.0148 52.7911 77.9356 52.8033 77.8565 52.8147C77.7783 52.8269 77.6991 52.8382 77.6224 52.8489C77.544 52.8596 77.4671 52.8702 77.3912 52.8809C77.3143 52.8908 77.2383 52.9007 77.163 52.9106C77.1258 52.9152 77.0877 52.9197 77.0504 52.9242C76.9014 52.9425 76.7538 52.9592 76.6101 52.9744C76.5736 52.9782 76.5378 52.9821 76.5021 52.9851C76.4306 52.992 76.3606 52.9989 76.29 53.0056C76.1501 53.0178 76.0131 53.0292 75.8793 53.0375C75.779 53.0452 75.6801 53.0505 75.5835 53.055C75.5188 53.0588 75.455 53.0611 75.3919 53.0634C75.2975 53.0672 75.2048 53.0694 75.115 53.0702C74.9942 53.0725 74.8771 53.0718 74.7645 53.0694C74.7074 53.0687 74.6519 53.0664 74.5972 53.0641C74.5698 53.0634 74.5432 53.0626 74.5158 53.0603C74.4618 53.058 74.4094 53.055 74.3576 53.0512C74.3394 53.0497 74.3203 53.0481 74.2998 53.0467C74.2952 53.0467 74.2907 53.0459 74.2862 53.0459C74.274 53.0443 74.261 53.0436 74.2482 53.0428C74.1996 53.039 74.1485 53.036 74.0938 53.0315C74.0794 53.0307 74.065 53.0292 74.0497 53.0284C74.0314 53.0269 74.0131 53.0254 73.9942 53.0239C73.966 53.0224 73.9364 53.0201 73.9067 53.0178C73.8907 53.0162 73.8748 53.0155 73.8588 53.014C73.8428 53.0132 73.8261 53.0117 73.8101 53.0101C73.7766 53.0079 73.7432 53.0055 73.709 53.0025C73.6748 53.0002 73.6399 52.9972 73.6041 52.9949C73.5858 52.9934 73.5675 52.9926 73.5493 52.9911C73.5044 52.9873 73.4587 52.9842 73.4116 52.9805C73.3895 52.9789 73.3675 52.9775 73.3455 52.9752C73.2991 52.9722 73.2512 52.9683 73.2025 52.9646C73.182 52.963 73.1615 52.9622 73.1402 52.9601C73.0801 52.9555 73.0193 52.9509 72.9562 52.9463C72.7821 52.9334 72.5965 52.9189 72.4003 52.9045C72.3767 52.9022 72.3524 52.9007 72.3272 52.8984C72.2785 52.8954 72.2292 52.8916 72.1782 52.8878C72.1037 52.8817 72.0268 52.8763 71.9486 52.8703C71.9166 52.8673 71.8847 52.865 71.8534 52.8627C71.7797 52.8574 71.7044 52.8513 71.6291 52.846C71.6017 52.8437 71.5737 52.8414 71.5463 52.8399C71.4945 52.8353 71.4421 52.8316 71.3888 52.8277L71.2154 52.814C71.1843 52.8117 71.1539 52.8095 71.1227 52.8071C71.0938 52.8049 71.0648 52.8026 71.036 52.8003C70.9895 52.7972 70.9432 52.7934 70.8961 52.7896C70.6261 52.7691 70.3454 52.7478 70.0534 52.7257C70.0107 52.7219 69.9689 52.7189 69.9256 52.7158C69.8609 52.7105 69.7956 52.7052 69.7294 52.7006C69.5773 52.6884 69.4213 52.677 69.264 52.6649C69.2518 52.6634 69.2396 52.6626 69.2274 52.6618C69.0905 52.6512 68.9521 52.6405 68.8122 52.6299C68.8053 52.6291 68.7985 52.6285 68.7923 52.6285C67.9565 52.5638 67.056 52.4939 66.1047 52.42C66.0567 52.4162 66.0087 52.4124 65.9601 52.4086C65.7677 52.3942 65.5731 52.379 65.3768 52.3638C65.2536 52.3539 65.1297 52.344 65.0057 52.3341C64.9988 52.3341 64.9921 52.3333 64.9852 52.3326C64.8437 52.322 64.7008 52.3106 64.5571 52.2991C64.5396 52.2983 64.5221 52.296 64.5038 52.2953C64.252 52.2755 63.9965 52.255 63.7387 52.2352C63.6725 52.2299 63.6064 52.2246 63.5402 52.2192C63.5197 52.2177 63.4999 52.2161 63.4794 52.2146C63.2543 52.1971 63.0262 52.1788 62.7972 52.1606C62.6968 52.1529 62.5972 52.1453 62.4968 52.137C62.4299 52.1317 62.3637 52.1264 62.2968 52.1218C62.1615 52.1104 62.0261 52.0997 61.8899 52.0891C61.6861 52.0731 61.4815 52.0571 61.2761 52.0404C61.2579 52.0397 61.2396 52.0374 61.2214 52.0366C61.1362 52.0289 61.0518 52.0229 60.9674 52.0161C60.9613 52.0153 60.9552 52.0153 60.9491 52.0146C60.6966 51.9947 60.4433 51.9742 60.1879 51.9545C60.181 51.9538 60.1741 51.953 60.1666 51.9522C60.14 51.95 60.1141 51.9484 60.0875 51.9461C59.9377 51.9348 59.7871 51.9226 59.6365 51.9104C59.5232 51.9013 59.4091 51.8929 59.295 51.883C59.2243 51.8777 59.1535 51.8724 59.0829 51.8663C58.7871 51.8436 58.4904 51.8192 58.1923 51.7957L58.1847 51.7949C57.6911 51.7545 57.1945 51.715 56.6956 51.6747C56.6272 51.6694 56.5595 51.6641 56.491 51.658L56.4766 51.6572C56.2576 51.6398 56.0393 51.6215 55.8195 51.604C55.7518 51.5987 55.6849 51.5933 55.6172 51.5872C55.4286 51.572 55.2399 51.5568 55.0513 51.5416C54.6679 51.5097 54.2839 51.4785 53.9006 51.4473C53.658 51.4275 53.4155 51.4078 53.1736 51.388C53.0215 51.3751 52.8693 51.3621 52.718 51.35C52.3553 51.3204 51.994 51.2907 51.6335 51.261C51.6161 51.2594 51.5993 51.258 51.5818 51.2565C51.3559 51.2374 51.1293 51.2192 50.9042 51.2002C50.5833 51.1736 50.2624 51.1462 49.9436 51.1196C49.8159 51.109 49.688 51.0983 49.5611 51.0877C49.5223 51.0847 49.4836 51.0809 49.4447 51.0778C49.1869 51.0565 48.9313 51.0345 48.6766 51.0132C48.6386 51.0102 48.6013 51.0071 48.564 51.0041C48.389 50.9889 48.2149 50.9744 48.0415 50.9592C47.3061 50.8969 46.5835 50.8352 45.8778 50.7737C45.7927 50.7668 45.7082 50.7592 45.623 50.7516C45.5713 50.747 45.5195 50.7425 45.4686 50.7387C45.3994 50.7319 45.3309 50.7266 45.2617 50.7205C45.1249 50.7083 44.9879 50.6969 44.8526 50.6847C42.2219 50.4542 39.8749 50.2376 38.0633 50.0535C37.8785 50.0352 37.699 50.017 37.5264 49.9987C37.0959 49.9538 36.7021 49.9112 36.3476 49.8702C35.3437 49.7569 34.66 49.6618 34.3884 49.5934C32.9229 49.2237 30.4785 48.2518 28.9795 47.2418C28.076 46.6327 27.5171 46.0098 27.7247 45.4964C27.9886 44.8431 28.562 44.4484 29.1506 44.1586C29.6609 43.9061 30.1827 43.7327 30.5242 43.5349C30.5439 43.5235 30.563 43.5121 30.582 43.5007C30.6451 43.4611 30.7006 43.4201 30.7478 43.3775C30.7555 43.3698 30.763 43.3638 30.7722 43.3547C30.9053 43.2337 31.1243 43.0315 31.4407 42.7942C31.6514 42.6361 31.9046 42.4626 32.2051 42.2862C32.2073 42.2847 32.2081 42.2847 32.2096 42.2831C33.5208 41.5157 35.7134 40.7035 39.0536 40.9445C39.0536 40.9445 45.5911 41.4609 53.747 42.1295C53.7478 42.1295 53.7478 42.1295 53.7478 42.1295C54.5607 42.1957 55.3897 42.2641 56.2294 42.3333C56.2301 42.3333 56.2301 42.3333 56.2301 42.3333C56.51 42.3561 56.7913 42.3789 57.0735 42.4025C57.4971 42.4374 57.923 42.4733 58.3504 42.5082C58.3504 42.5082 58.3504 42.5082 58.3512 42.5082C59.0638 42.5675 59.781 42.6268 60.5012 42.6869C60.6449 42.6991 60.7894 42.7113 60.9339 42.7226C61.2221 42.747 61.5104 42.7713 61.7986 42.7949C62.3767 42.8436 62.9539 42.8923 63.5311 42.9409C63.8185 42.9652 64.1061 42.9896 64.3935 43.0131C65.4202 43.0998 66.4409 43.1865 67.4479 43.2733H67.4524C70.3598 43.5227 73.1487 43.7661 75.622 43.9904C75.6228 43.9904 75.6228 43.9904 75.6228 43.9904C75.7535 44.0018 75.8836 44.014 76.0122 44.0254C77.4641 44.1577 78.8003 44.2825 79.9784 44.3966C80.542 44.452 81.0698 44.5046 81.5565 44.5541C83.3194 44.7335 84.5492 44.878 85.0291 44.9708C86.2757 45.2119 87.6689 45.437 88.9405 45.6256C89.0454 45.6416 89.1497 45.6568 89.2524 45.6713C89.2577 45.6727 89.263 45.6727 89.2684 45.6735C89.4258 45.6971 89.581 45.7192 89.7338 45.7413C89.7383 45.7419 89.7429 45.7427 89.7475 45.7435C89.9239 45.7685 90.0966 45.793 90.2646 45.8165C90.5103 45.8507 90.7461 45.8827 90.9689 45.9132C91.0654 45.9261 91.1591 45.939 91.251 45.9511C92.3492 46.0971 93.0801 46.1838 93.0801 46.1838C93.0801 46.1838 93.0847 46.2037 93.0915 46.2401C93.0923 46.2431 93.0931 46.2461 93.0938 46.2492C93.0953 46.2591 93.0976 46.2697 93.0998 46.2819C93.1036 46.3054 93.109 46.3328 93.1136 46.3641C93.1205 46.4051 93.128 46.4523 93.1348 46.5055C93.1348 46.5055 93.1348 46.5063 93.1356 46.5063C93.1371 46.5193 93.1393 46.5329 93.1409 46.5467C93.1469 46.5907 93.1531 46.6379 93.1584 46.6889C93.1621 46.7239 93.1659 46.7612 93.1698 46.7985C93.1712 46.819 93.1735 46.8403 93.175 46.8616C93.1773 46.8853 93.1789 46.9087 93.1804 46.9324C93.1826 46.9666 93.1849 47.0016 93.1872 47.0373C93.188 47.0518 93.1888 47.0663 93.1888 47.0807C93.1904 47.1058 93.1911 47.1317 93.1918 47.1568C93.1926 47.1704 93.1926 47.1834 93.1926 47.1964C93.1934 47.2222 93.1941 47.2489 93.1941 47.2747C93.1931 47.2866 93.1931 47.3002 93.1939 47.314Z" fill="#E2B097"/>
<path d="M93.194 47.3148C93.1932 47.3406 93.1932 47.368 93.1924 47.3946C93.1833 47.9703 93.0661 48.6123 92.6593 48.9819C92.6457 48.9948 92.6311 49.0069 92.6167 49.0192C92.5878 49.0427 92.5574 49.0656 92.5262 49.0861C92.5262 49.0861 92.5262 49.0861 92.5255 49.0861V49.0869C92.5103 49.0968 92.4935 49.1066 92.4768 49.1173C92.4608 49.1265 92.4441 49.1363 92.4266 49.1455C92.4266 49.1455 92.4267 49.1455 92.4259 49.1455C92.4092 49.1547 92.3916 49.163 92.3734 49.1714C92.3552 49.1798 92.3369 49.1881 92.318 49.1958C92.2997 49.2035 92.28 49.2102 92.2608 49.2171C92.2548 49.2193 92.2494 49.2209 92.2434 49.2224V49.2232C92.2374 49.2247 92.2312 49.227 92.2251 49.2293C92.2191 49.2315 92.2122 49.2331 92.2062 49.2354V49.2361C92.1993 49.2376 92.1924 49.24 92.1856 49.2422V49.243C92.1788 49.2445 92.1711 49.2468 92.1643 49.2499C92.1567 49.2521 92.1491 49.2544 92.1422 49.2568C92.1422 49.2568 92.1422 49.2568 92.1416 49.2568V49.2575C92.1339 49.2598 92.1263 49.2622 92.1187 49.2651C92.1103 49.2675 92.1027 49.2704 92.0943 49.2728H92.0936C92.0853 49.2758 92.0776 49.2781 92.0685 49.2811C92.0602 49.2841 92.0511 49.2864 92.0427 49.2895C92.0243 49.2955 92.0061 49.3016 91.9871 49.3077H91.9863C91.9772 49.3107 91.9674 49.3138 91.9583 49.3168H91.9576V49.3176C91.9477 49.3207 91.9377 49.3237 91.9279 49.3268C91.9203 49.329 91.9134 49.3313 91.9058 49.3336C91.8267 49.3594 91.7386 49.3876 91.642 49.418C91.6237 49.4234 91.6062 49.4287 91.5873 49.4348C91.334 49.5147 91.0267 49.6098 90.673 49.7162C90.6365 49.7269 90.6001 49.7383 90.5621 49.7497C90.5004 49.7687 90.4373 49.7877 90.3727 49.8067C90.359 49.8105 90.3453 49.8151 90.3309 49.8189C90.3119 49.825 90.2913 49.8311 90.2715 49.8372C90.2517 49.8432 90.232 49.8486 90.2114 49.8546C90.1909 49.8607 90.171 49.8668 90.1505 49.8729C90.1308 49.879 90.1095 49.8851 90.089 49.8911C90.0684 49.8972 90.0479 49.9033 90.0273 49.9094C90.006 49.9155 89.9848 49.9224 89.9643 49.9284C89.943 49.9345 89.9217 49.9406 89.9011 49.9467C89.9004 49.9467 89.9004 49.9475 89.9004 49.9475C89.8791 49.9536 89.8578 49.9597 89.8365 49.9658C89.8213 49.9703 89.806 49.9749 89.79 49.9802C89.784 49.981 89.7779 49.9832 89.7718 49.9855C89.7498 49.9916 89.7285 49.9977 89.7064 50.0038C89.5969 50.0364 89.4851 50.0691 89.3703 50.1018C89.3049 50.1216 89.238 50.1406 89.1702 50.1604C89.1124 50.1771 89.0538 50.1939 88.9953 50.2106C88.9512 50.2236 88.9071 50.2364 88.8622 50.2494C88.688 50.2989 88.5094 50.3498 88.3268 50.4015C88.2895 50.4122 88.2529 50.4221 88.2165 50.4327C88.1526 50.4509 88.0887 50.4684 88.0241 50.4867C87.9663 50.5034 87.9077 50.5194 87.8484 50.5361C87.783 50.5544 87.7175 50.5727 87.6514 50.5908C85.4618 51.1985 82.8076 51.8799 80.3465 52.375C80.2606 52.3925 80.1738 52.4093 80.0879 52.4267C80.0453 52.4351 80.0027 52.4435 79.9602 52.4519C79.8742 52.4687 79.7891 52.4846 79.7039 52.5006C79.4491 52.5493 79.1966 52.5956 78.9479 52.639C78.8651 52.6534 78.7829 52.668 78.7008 52.6816C78.6597 52.6885 78.6187 52.6952 78.5783 52.7021C78.4969 52.7158 78.4156 52.7287 78.335 52.7425C78.2544 52.7554 78.1738 52.7675 78.0938 52.7798C78.0148 52.7919 77.9357 52.8041 77.8566 52.8155C77.7783 52.8277 77.6992 52.8391 77.6224 52.8498C77.5441 52.8605 77.4672 52.8711 77.3912 52.8818C77.3144 52.8916 77.2384 52.9015 77.1631 52.9114C77.1259 52.916 77.0878 52.9206 77.0505 52.9251C76.9014 52.9433 76.7539 52.96 76.6102 52.9752C76.5736 52.9791 76.5379 52.9829 76.5022 52.9859C76.4307 52.9928 76.3607 52.9997 76.29 53.0065C76.1501 53.0186 76.0132 53.03 75.8794 53.0384C75.779 53.046 75.6802 53.0513 75.5836 53.0558C75.5189 53.0597 75.4551 53.0619 75.3919 53.0642C75.2976 53.068 75.2048 53.0703 75.1151 53.0711C74.9942 53.0733 74.8771 53.0726 74.7645 53.0703C74.7075 53.0695 74.6519 53.0672 74.5972 53.065C74.5698 53.0642 74.5432 53.0634 74.5158 53.0611C74.4619 53.0589 74.4094 53.0558 74.3577 53.052C74.3394 53.0505 74.3204 53.049 74.2999 53.0475C74.2953 53.0475 74.2907 53.0467 74.2862 53.0467C74.274 53.0451 74.2611 53.0444 74.2482 53.0437C74.1996 53.0398 74.1486 53.0368 74.0939 53.0323C74.0795 53.0315 74.065 53.03 74.0497 53.0292C74.0315 53.0278 74.0132 53.0262 73.9943 53.0247C73.9661 53.0232 73.9364 53.0209 73.9068 53.0186C73.8908 53.0171 73.8749 53.0164 73.8589 53.0148C73.8429 53.014 73.8262 53.0125 73.8102 53.011C73.7767 53.0087 73.7432 53.0064 73.7091 53.0033C73.6749 53.0011 73.64 52.998 73.6041 52.9958C73.5859 52.9942 73.5676 52.9934 73.5493 52.9919C73.5045 52.9881 73.4587 52.9851 73.4117 52.9813C73.3896 52.9798 73.3675 52.9783 73.3455 52.976C73.2992 52.973 73.2513 52.9691 73.2026 52.9654C73.1821 52.9638 73.1616 52.9631 73.1403 52.9609C73.0802 52.9563 73.0194 52.9518 72.9563 52.9472C72.7821 52.9342 72.5966 52.9198 72.4003 52.9053C72.3768 52.9031 72.3524 52.9015 72.3273 52.8993C72.2786 52.8962 72.2292 52.8924 72.1783 52.8886C72.1038 52.8826 72.0269 52.8772 71.9486 52.8712C71.9166 52.8681 71.8847 52.8659 71.8535 52.8635C71.7798 52.8582 71.7045 52.8521 71.6292 52.8468C71.6018 52.8446 71.5737 52.8422 71.5463 52.8407C71.4946 52.8361 71.4422 52.8324 71.3889 52.8286L71.2155 52.8148C71.1844 52.8126 71.1539 52.8103 71.1227 52.808C71.0938 52.8057 71.0649 52.8034 71.036 52.8011C70.9896 52.798 70.9433 52.7942 70.8961 52.7905C70.6262 52.77 70.3455 52.7487 70.0534 52.7266C70.0108 52.7227 69.969 52.7197 69.9257 52.7166C69.861 52.7113 69.7956 52.7061 69.7294 52.7014C69.5774 52.6893 69.4214 52.6779 69.264 52.6657C69.2518 52.6642 69.2397 52.6634 69.2275 52.6627C69.0905 52.6521 68.9522 52.6413 68.8122 52.6307C68.8053 52.63 68.7986 52.6293 68.7924 52.6293C67.9565 52.5646 67.0561 52.4947 66.1047 52.4209C66.0568 52.417 66.0088 52.4132 65.9602 52.4095C65.7678 52.395 65.5731 52.3798 65.3769 52.3646C65.2537 52.3547 65.1298 52.3449 65.0058 52.335C64.9989 52.335 64.9921 52.3342 64.9853 52.3334C64.8438 52.3228 64.7009 52.3114 64.5571 52.2999C64.5397 52.2991 64.5222 52.2969 64.5038 52.2961C64.2521 52.2763 63.9966 52.2558 63.7388 52.236C63.6726 52.2307 63.6064 52.2254 63.5403 52.22C63.5197 52.2185 63.5 52.217 63.4795 52.2154C63.2544 52.1979 63.0262 52.1796 62.7973 52.1614C62.6969 52.1537 62.5973 52.1462 62.4969 52.1378C62.4299 52.1325 62.3638 52.1272 62.2969 52.1226C62.1615 52.1112 62.0261 52.1005 61.89 52.0899C61.6862 52.0739 61.4816 52.0579 61.2762 52.0412C61.2579 52.0405 61.2397 52.0382 61.2214 52.0374C61.1363 52.0297 61.0519 52.0237 60.9674 52.0169C60.9614 52.0161 60.9553 52.0161 60.9492 52.0154C60.6967 51.9956 60.4434 51.975 60.188 51.9553C60.1811 51.9546 60.1742 51.9538 60.1666 51.9531C60.14 51.9508 60.1141 51.9492 60.0875 51.947C65.8128 48.755 67.4479 43.2739 67.4479 43.2739H67.4524C70.3599 43.5234 73.1488 43.7667 75.6221 43.9911C75.6228 43.9911 75.6228 43.9911 75.6228 43.9911C75.7536 44.0025 75.8837 44.0146 76.0123 44.026C77.4642 44.1584 78.8004 44.2831 79.9785 44.3972C80.5421 44.4527 81.0699 44.5052 81.5566 44.5547C83.3195 44.7341 84.5493 44.8787 85.0292 44.9714C86.2757 45.2125 87.669 45.4376 88.9405 45.6262C89.0455 45.6422 89.1497 45.6575 89.2524 45.6719C89.2577 45.6734 89.263 45.6734 89.2684 45.6741C89.4259 45.6977 89.581 45.7198 89.7339 45.7419C89.7384 45.7426 89.743 45.7434 89.7475 45.7441C89.9239 45.7692 90.0966 45.7936 90.2647 45.8172C90.5103 45.8513 90.7461 45.8834 90.969 45.9138C91.0655 45.9267 91.1591 45.9396 91.251 45.9518C92.3493 46.0978 93.0802 46.1844 93.0802 46.1844C93.0802 46.1844 93.0848 46.2043 93.0916 46.2407C93.0924 46.2437 93.0931 46.2468 93.0938 46.2498C93.0954 46.2597 93.0977 46.2703 93.0999 46.2825C93.1036 46.3061 93.109 46.3335 93.1137 46.3647C93.1205 46.4057 93.1281 46.4529 93.1349 46.5062C93.1349 46.5062 93.1349 46.5069 93.1357 46.5069C93.1371 46.5199 93.1394 46.5336 93.1409 46.5473C93.1469 46.5914 93.1531 46.6385 93.1584 46.6895C93.1622 46.7245 93.166 46.7618 93.1698 46.7991C93.1713 46.8196 93.1735 46.8409 93.1751 46.8622C93.1774 46.8859 93.179 46.9094 93.1804 46.933C93.1827 46.9673 93.1849 47.0022 93.1873 47.038C93.1881 47.0524 93.1889 47.0669 93.1889 47.0813C93.1904 47.1064 93.1911 47.1323 93.1919 47.1574C93.1927 47.1711 93.1927 47.184 93.1927 47.197C93.1935 47.2228 93.1942 47.2495 93.1942 47.2753C93.1932 47.2874 93.1932 47.3011 93.194 47.3148Z" fill="#E2B097"/>
<path opacity="0.5" d="M92.2605 49.2163C91.9033 49.3391 90.8353 49.6754 89.3705 50.1014C88.8812 48.0534 87.3049 47.1983 87.3049 47.1983L93.1403 46.5464C93.2374 47.2694 93.3198 48.8525 92.2605 49.2163Z" fill="#E27727"/>
<path d="M61.0578 46.5145C60.8673 46.498 60.7271 46.3098 60.7464 46.0963L60.7836 45.6852C60.803 45.4716 60.9748 45.3104 61.1653 45.3268C61.3559 45.3432 61.496 45.5314 61.4766 45.7451L61.4394 46.1562C61.4201 46.3697 61.2484 46.5309 61.0578 46.5145Z" fill="#F8D451"/>
<path d="M59.2702 46.3593C59.0797 46.3429 58.9396 46.1547 58.9589 45.9411L58.9961 45.53C59.0155 45.3164 59.1873 45.1552 59.3778 45.1716C59.5685 45.188 59.7085 45.3762 59.6892 45.5898L59.6519 46.0009C59.6326 46.2145 59.4609 46.3758 59.2702 46.3593Z" fill="#F8D451"/>
<path d="M57.4829 46.2055C57.2923 46.1891 57.1522 46.0009 57.1716 45.7873L57.2088 45.3762C57.2281 45.1626 57.3999 45.0014 57.5905 45.0177C57.781 45.0341 57.9211 45.2224 57.9018 45.436L57.8646 45.8471C57.8452 46.0607 57.6734 46.222 57.4829 46.2055Z" fill="#F8D451"/>
<path d="M55.6955 46.0517C55.505 46.0353 55.3649 45.8471 55.3842 45.6335L55.4214 45.2224C55.4408 45.0088 55.6125 44.8475 55.8031 44.8639C55.9937 44.8803 56.1338 45.0686 56.1144 45.2822L56.0772 45.6933C56.0578 45.9069 55.8861 46.0682 55.6955 46.0517Z" fill="#F8D451"/>
<path d="M53.908 45.8965C53.7175 45.88 53.5773 45.6918 53.5966 45.4782L53.6338 45.0671C53.6532 44.8536 53.825 44.6923 54.0155 44.7087C54.2061 44.7251 54.3462 44.9134 54.3268 45.1269L54.2896 45.538C54.2703 45.7516 54.0986 45.9129 53.908 45.8965Z" fill="#F8D451"/>
<path d="M52.1204 45.7417C51.9299 45.7252 51.7898 45.537 51.809 45.3235L51.8463 44.9123C51.8657 44.6988 52.0375 44.5375 52.228 44.5539C52.4186 44.5704 52.5587 44.7586 52.5393 44.9721L52.5021 45.3832C52.4828 45.5968 52.311 45.7581 52.1204 45.7417Z" fill="#F8D451"/>
<path d="M50.333 45.5898C50.1424 45.5733 50.0023 45.3851 50.0217 45.1716L50.0589 44.7605C50.0782 44.5468 50.25 44.3856 50.4406 44.402C50.6311 44.4185 50.7713 44.6066 50.752 44.8202L50.7148 45.2314C50.6953 45.445 50.5235 45.6063 50.333 45.5898Z" fill="#F8D451"/>
<path d="M48.5456 45.4341C48.3551 45.4177 48.215 45.2295 48.2343 45.0158L48.2715 44.6047C48.2909 44.3911 48.4626 44.2299 48.6532 44.2463C48.8438 44.2628 48.9839 44.451 48.9645 44.6645L48.9273 45.0756C48.9079 45.2892 48.7362 45.4504 48.5456 45.4341Z" fill="#F8D451"/>
<path d="M46.7582 45.2788C46.5676 45.2624 46.4275 45.0742 46.4469 44.8606L46.4841 44.4494C46.5034 44.2358 46.6752 44.0746 46.8658 44.091C47.0563 44.1074 47.1964 44.2957 47.1772 44.5092L47.1399 44.9204C47.1205 45.1339 46.9488 45.2952 46.7582 45.2788Z" fill="#F8D451"/>
<path d="M45.0063 45.1273C44.8158 45.1109 44.6757 44.9227 44.695 44.7091L44.7322 44.298C44.7516 44.0844 44.9234 43.9231 45.1139 43.9396C45.3045 43.9561 45.4446 44.1443 45.4252 44.3579L45.3879 44.769C45.3687 44.9824 45.197 45.1437 45.0063 45.1273Z" fill="#F8D451"/>
<path d="M43.2189 44.9751C43.0284 44.9587 42.8883 44.7704 42.9075 44.5569L42.9448 44.1457C42.9642 43.9321 43.1359 43.7709 43.3265 43.7873C43.5171 43.8038 43.6572 43.992 43.6378 44.2055L43.6006 44.6166C43.5813 44.8303 43.4095 44.9916 43.2189 44.9751Z" fill="#F8D451"/>
<path d="M41.4315 44.8198C41.2409 44.8034 41.1009 44.6152 41.1202 44.4016L41.1574 43.9904C41.1767 43.7768 41.3485 43.6156 41.5391 43.632C41.7296 43.6484 41.8698 43.8367 41.8505 44.0502L41.8133 44.4614C41.7939 44.675 41.6221 44.8363 41.4315 44.8198Z" fill="#F8D451"/>
<path d="M39.2171 44.6089C39.0266 44.5925 38.8865 44.4042 38.9058 44.1906L38.943 43.7795C38.9624 43.5659 39.1342 43.4047 39.3247 43.4211C39.5153 43.4376 39.6555 43.6258 39.6361 43.8393L39.5989 44.2504C39.5795 44.4641 39.4078 44.6254 39.2171 44.6089Z" fill="#F8D451"/>
<path d="M80.5605 48.4071C80.3699 48.3906 80.2298 48.2024 80.2491 47.9889L80.2864 47.5777C80.3057 47.3642 80.4774 47.2029 80.668 47.2194C80.8586 47.2359 80.9987 47.4241 80.9794 47.6376L80.9422 48.0488C80.9228 48.2623 80.751 48.4236 80.5605 48.4071Z" fill="#F8D451"/>
<path d="M78.7731 48.2523C78.5825 48.2358 78.4424 48.0476 78.4617 47.8341L78.499 47.423C78.5183 47.2094 78.69 47.0481 78.8807 47.0646C79.0712 47.0811 79.2113 47.2693 79.192 47.4829L79.1547 47.894C79.1353 48.1075 78.9636 48.2688 78.7731 48.2523Z" fill="#F8D451"/>
<path d="M76.9857 48.0976C76.795 48.0812 76.6549 47.893 76.6743 47.6794L76.7115 47.2683C76.7308 47.0546 76.9025 46.8934 77.0932 46.9098C77.2837 46.9263 77.4238 47.1145 77.4045 47.3281L77.3673 47.7392C77.3479 47.9528 77.1762 48.1141 76.9857 48.0976Z" fill="#F8D451"/>
<path d="M32.5265 42.3031L31.3079 43.4528L30.5807 43.5C30.6442 43.4602 30.6998 43.4193 30.7466 43.3768C30.7547 43.3694 30.7622 43.3628 30.7711 43.3541C30.9041 43.2327 31.1235 43.0307 31.4394 42.7935C31.6503 42.6353 31.9038 42.4619 32.2043 42.2854C32.2059 42.2844 32.2071 42.2837 32.2088 42.2827L32.5265 42.3031Z" fill="#F8D451"/>
<path d="M32.7922 42.3442L31.6023 43.505L32.9532 43.7916L33.3798 42.4668L32.7922 42.3442Z" fill="#F8D451"/>
<path d="M33.5071 42.5088L33.1932 43.7534L34.1944 43.4685L34.2587 42.6015L33.5071 42.5088Z" fill="#F8D451"/>
<path d="M57.8838 52.0463C58.4087 51.841 58.5465 50.9271 58.112 50.5352C57.6778 50.1435 57.0834 49.7497 56.4149 49.7013C55.0405 49.6018 55.5984 52.4001 56.0544 52.4579C56.3227 52.4918 57.1851 52.3196 57.8838 52.0463Z" fill="#E8B241"/>
<path d="M87.1872 46.6428C87.2424 46.5683 92.3582 44.8821 95.7016 45.6156L92.4817 47.6431L87.3048 47.198C87.3048 47.198 86.9114 47.0156 87.1872 46.6428Z" fill="#F8D451"/>
<path d="M84.7171 34.8379C84.7171 34.8379 81.2929 42.4055 80.641 43.554C79.9891 44.7027 78.5642 45.4361 78.5642 45.4361L78.5558 45.4391L69.4828 49.1252C69.4828 49.1252 58.166 48.2322 55.7032 47.9609C55.7032 47.9609 55.7032 47.9609 55.7027 47.9609C55.4795 47.936 55.3287 47.916 55.2665 47.9031C54.518 47.7436 54.1679 47.3965 54.3117 47.1236C54.4556 46.8507 71.8548 44.7642 73.7812 44.5494C73.7996 44.5472 73.8178 44.545 73.8361 44.5433C75.7111 44.3222 75.8855 43.6842 75.8855 43.6842L83.064 35.4567C83.1559 35.3048 83.3064 35.1903 83.4802 35.1037C83.9964 34.8469 84.7171 34.8379 84.7171 34.8379Z" fill="#DA9F84"/>
<path d="M83.4803 35.104C81.5485 37.4487 76.2052 43.9148 75.6978 44.3549C75.1521 44.8286 59.5392 47.338 55.7032 47.9611C55.7032 47.9611 55.7032 47.9611 55.7027 47.9611C55.4795 47.9361 55.3287 47.9162 55.2665 47.9032C54.518 47.7438 54.1679 47.3967 54.3117 47.1238C54.4556 46.8508 71.8548 44.7644 73.7812 44.5496C75.7076 44.3348 75.8855 43.6844 75.8855 43.6844L83.064 35.4568C83.156 35.305 83.3064 35.1905 83.4803 35.104Z" fill="#F8D451"/>
<path d="M84.717 34.8379C84.717 34.8379 81.2929 42.4055 80.641 43.554C79.989 44.7027 78.5642 45.4361 78.5642 45.4361L78.5558 45.4391C76.5849 45.3914 74.9238 44.9374 73.8362 44.5433C75.7112 44.3222 75.8855 43.6842 75.8855 43.6842L83.0641 35.4567C83.156 35.3048 83.3065 35.1903 83.4803 35.1037C83.9964 34.8469 84.717 34.8379 84.717 34.8379Z" fill="#DA9F84"/>
<path d="M56.726 49.0425L56.3816 52.8598C56.3816 52.8598 54.9229 53.3848 52.6422 53.2631C51.2458 53.1884 50.3158 52.8824 49.8043 52.6563C49.4801 52.5129 49.3242 52.4017 49.3242 52.4017L49.6853 48.4001C49.8139 48.2911 49.993 48.2113 50.2104 48.1556C52.0135 47.6933 56.4466 48.8884 56.4466 48.8884L56.726 49.0425Z" fill="#F8D451"/>
<path d="M50.2102 48.1553L49.8042 52.6559C49.48 52.5125 49.3241 52.4012 49.3241 52.4012L49.6852 48.3996C49.8138 48.2907 49.9928 48.2109 50.2102 48.1553Z" fill="#E8B241"/>
<path d="M26.623 118.704L51.6311 106.687C52.1605 106.432 52.4465 105.917 52.2667 105.542L26.9873 52.817C26.8074 52.4417 26.227 52.3429 25.6975 52.5973L0.68953 64.6143C0.160086 64.8688 -0.125989 65.3839 0.0539612 65.7592L25.3332 118.484C25.5131 118.859 26.0935 118.958 26.623 118.704Z" fill="#F8D451"/>
<path d="M26.623 118.702L28.6791 117.714L2.74553 63.6245L0.689408 64.6125C0.159964 64.867 -0.126111 65.3821 0.0538391 65.7574L25.3331 118.482C25.513 118.858 26.0935 118.957 26.623 118.702Z" fill="#373C52"/>
<path d="M26.9738 78.3606L19.3857 62.5332L16.1755 64.0723L23.7636 79.8997L26.9738 78.3606Z" fill="#373C52"/>
<path d="M37.3041 81.6404L26.5035 59.1123L23.2933 60.6514L34.0939 83.1795L37.3041 81.6404Z" fill="#373C52"/>
<path d="M27.8779 72.31L22.4775 61.0459L21.7619 61.389L27.1622 72.6531L27.8779 72.31Z" fill="#373C52"/>
<path d="M20.8072 75.7084L15.4069 64.4443L14.6912 64.7874L20.0916 76.0515L20.8072 75.7084Z" fill="#373C52"/>
<path d="M9.6748 66.8764L9.78229 67.0575C9.78602 67.0638 9.79054 67.0696 9.79565 67.0747L10.9878 68.2503C11.0023 68.2647 11.0112 68.2838 11.0129 68.3043L11.3961 70.7061C11.4011 70.7704 11.0765 70.5525 11.0175 70.5265C10.3755 70.2429 8.60167 69.1911 7.87529 68.8304C7.75925 68.7727 7.63035 68.882 7.66825 69.006C7.68651 69.0658 7.72175 69.119 7.76976 69.1591L10.4672 71.4164L10.4466 71.9421C10.4437 72.0185 10.5037 72.0833 10.58 72.0862L10.9875 72.1016C11.0625 72.1043 11.1263 72.0465 11.1314 71.9721L11.4789 72.263C11.4954 72.2767 11.5061 72.2964 11.5088 72.3179L11.7792 74.513C11.8032 74.7074 11.8937 74.8874 12.0355 75.0225C12.0929 75.0772 12.1549 75.1362 12.2126 75.1907C12.3319 75.3036 12.5215 75.2942 12.6294 75.1701L12.6835 75.1078C12.8603 74.9043 12.9371 74.6326 12.8925 74.3668L12.6015 72.6285C12.5957 72.5941 12.6115 72.5596 12.6414 72.5415L13.2507 72.171L13.2463 72.2825C13.2433 72.3589 13.3034 72.4237 13.3797 72.4266L13.7871 72.4419C13.8635 72.4449 13.9284 72.3847 13.9315 72.3083L13.9535 71.7435L14.9043 71.1652C14.981 71.1185 15.0424 71.0502 15.0804 70.9688C15.1288 70.865 15.1841 70.7532 15.1626 70.7376C15.0927 70.6873 13.236 70.9006 12.5254 71.019C12.485 71.0258 12.4267 70.6848 12.4199 70.6445L11.8861 68.3538C11.881 68.3234 11.8927 68.2926 11.9169 68.2732L12.4343 67.8575C12.4922 67.811 12.5327 67.7461 12.5488 67.6735L12.5495 67.6707C12.561 67.6192 12.5235 67.5698 12.4709 67.5672L11.5153 67.5169C11.4876 67.5155 11.4623 67.5005 11.4476 67.477L11.3198 67.2718C11.2799 67.2078 11.1827 67.2235 11.1647 67.2967L11.1451 67.3761L9.78357 66.755C9.70768 66.7207 9.63229 66.8046 9.6748 66.8764Z" fill="#373C52"/>
<path d="M39.7335 124.838H4.48511V76.0615H39.7973C41.1321 76.0615 42.2143 77.1437 42.2143 78.4785V122.358C42.2143 123.728 41.1036 124.838 39.7335 124.838Z" fill="#E77D3B"/>
<path d="M10.0129 82.2307V83.7585H9.29834V79.6465H10.8715C11.1106 79.6465 11.3229 79.6789 11.5083 79.7439C11.6937 79.8089 11.8504 79.8997 11.9785 80.0164C12.1066 80.1331 12.2041 80.2715 12.2709 80.4316C12.3378 80.5917 12.3711 80.7658 12.3711 80.9541C12.3711 81.1536 12.3377 81.3325 12.2709 81.4907C12.2041 81.6489 12.1067 81.7826 11.9785 81.8918C11.8505 82.001 11.6937 82.0848 11.5083 82.1431C11.3229 82.2015 11.1105 82.2307 10.8715 82.2307H10.0129ZM10.0129 81.6573H10.8715C11.0089 81.6573 11.1271 81.6405 11.226 81.6065C11.3248 81.5725 11.4062 81.5246 11.4702 81.4625C11.5342 81.4003 11.5808 81.3264 11.61 81.2408C11.6393 81.1552 11.6538 81.0614 11.6538 80.9597C11.6538 80.8637 11.6393 80.7715 11.61 80.683C11.5809 80.5945 11.5342 80.516 11.4702 80.4472C11.4062 80.3784 11.3248 80.3239 11.226 80.2834C11.1271 80.243 11.0089 80.2226 10.8715 80.2226H10.0129V81.6573Z" fill="#FDF4DF"/>
<path d="M14.7942 82.8012H13.2013L12.868 83.7585H12.1252L13.6785 79.6465H14.3197L15.8758 83.7585H15.1302L14.7942 82.8012ZM13.4018 82.225H14.5936L13.9977 80.5191L13.4018 82.225Z" fill="#FDF4DF"/>
<path d="M18.4913 82.7011C18.4913 82.6184 18.4791 82.5444 18.4546 82.4794C18.4301 82.4145 18.3854 82.3548 18.3204 82.3002C18.2555 82.2456 18.166 82.1933 18.0521 82.1434C17.9381 82.0935 17.7918 82.0413 17.613 81.9867C17.4171 81.9284 17.2364 81.8616 17.0708 81.7862C16.9051 81.7109 16.7624 81.6234 16.6428 81.5235C16.5233 81.4238 16.4296 81.3089 16.3619 81.179C16.2941 81.0491 16.2603 80.9003 16.2603 80.7328C16.2603 80.5671 16.2956 80.4146 16.3662 80.2753C16.4368 80.136 16.536 80.0154 16.6641 79.9137C16.7922 79.812 16.9456 79.733 17.1245 79.6765C17.3033 79.62 17.5011 79.5918 17.7175 79.5918C17.9491 79.5918 18.1572 79.6253 18.3417 79.6921C18.5263 79.7589 18.6821 79.8499 18.8091 79.9647C18.9362 80.0795 19.0336 80.2127 19.1015 80.3642C19.1692 80.5159 19.2031 80.6773 19.2031 80.8486H18.4914C18.4914 80.7488 18.4759 80.657 18.4448 80.5732C18.4138 80.4895 18.3662 80.4169 18.3022 80.3558C18.2381 80.2946 18.1572 80.2471 18.0593 80.2132C17.9614 80.1793 17.8456 80.1624 17.7118 80.1624C17.5857 80.1624 17.4764 80.1765 17.3842 80.2048C17.292 80.233 17.2152 80.2725 17.154 80.3234C17.0929 80.3742 17.0476 80.4345 17.0184 80.5041C16.9893 80.5738 16.9747 80.6491 16.9747 80.73C16.9747 80.8825 17.0466 81.0096 17.1907 81.1113C17.3348 81.213 17.5546 81.3072 17.8502 81.3937C18.0818 81.4615 18.2822 81.5368 18.4517 81.6196C18.6211 81.7026 18.7619 81.7962 18.8739 81.9007C18.9859 82.0052 19.0693 82.1229 19.1239 82.2537C19.1784 82.3846 19.2057 82.532 19.2057 82.6958C19.2057 82.869 19.1714 83.0248 19.1027 83.1631C19.0339 83.3015 18.9361 83.4192 18.8089 83.5161C18.6818 83.6131 18.528 83.6875 18.3471 83.7392C18.1664 83.791 17.9649 83.8168 17.7428 83.8168C17.5451 83.8168 17.3502 83.79 17.1581 83.7364C16.966 83.6827 16.7938 83.6018 16.6413 83.4935C16.4888 83.3852 16.3659 83.2502 16.2727 83.0881C16.1796 82.9262 16.1329 82.7361 16.1329 82.5176H16.8474C16.8474 82.6475 16.8705 82.7591 16.9166 82.8523C16.9628 82.9456 17.0258 83.0217 17.1058 83.081C17.1858 83.1404 17.2805 83.1836 17.3896 83.2109C17.4988 83.2382 17.6165 83.2519 17.7427 83.2519C17.9912 83.2519 18.1781 83.2015 18.3032 83.1008C18.4287 83.0001 18.4913 82.8668 18.4913 82.7011Z" fill="#FDF4DF"/>
<path d="M21.982 82.7011C21.982 82.6184 21.9697 82.5444 21.9453 82.4794C21.9208 82.4145 21.8762 82.3548 21.8112 82.3002C21.7462 82.2456 21.6567 82.1933 21.5429 82.1434C21.429 82.0935 21.2826 82.0413 21.1037 81.9867C20.9079 81.9284 20.7271 81.8616 20.5615 81.7862C20.3958 81.7109 20.2532 81.6234 20.1337 81.5235C20.0141 81.4238 19.9205 81.3089 19.8527 81.179C19.7849 81.0491 19.751 80.9003 19.751 80.7328C19.751 80.5671 19.7864 80.4146 19.8569 80.2753C19.9276 80.136 20.0268 80.0154 20.1549 79.9137C20.2829 79.812 20.4364 79.733 20.6152 79.6765C20.7941 79.62 20.9917 79.5918 21.2083 79.5918C21.4399 79.5918 21.6479 79.6253 21.8324 79.6921C22.0169 79.7589 22.1727 79.8499 22.2999 79.9647C22.427 80.0795 22.5244 80.2127 22.5921 80.3642C22.6599 80.5159 22.6937 80.6773 22.6937 80.8486H21.9821C21.9821 80.7488 21.9666 80.657 21.9354 80.5732C21.9043 80.4895 21.8568 80.4169 21.7928 80.3558C21.7287 80.2946 21.6478 80.2471 21.5499 80.2132C21.4519 80.1793 21.3362 80.1624 21.2025 80.1624C21.0763 80.1624 20.9672 80.1765 20.8749 80.2048C20.7826 80.233 20.7059 80.2725 20.6447 80.3234C20.5835 80.3742 20.5383 80.4345 20.5092 80.5041C20.4799 80.5738 20.4654 80.6491 20.4654 80.73C20.4654 80.8825 20.5375 81.0096 20.6815 81.1113C20.8255 81.213 21.0453 81.3072 21.3409 81.3937C21.5725 81.4615 21.7731 81.5368 21.9425 81.6196C22.1121 81.7026 22.2527 81.7962 22.3648 81.9007C22.4768 82.0052 22.56 82.1229 22.6147 82.2537C22.6693 82.3846 22.6966 82.532 22.6966 82.6958C22.6966 82.869 22.6622 83.0248 22.5935 83.1631C22.5247 83.3015 22.4269 83.4192 22.2998 83.5161C22.1726 83.6131 22.0187 83.6875 21.838 83.7392C21.6572 83.791 21.4557 83.8168 21.2336 83.8168C21.0359 83.8168 20.841 83.79 20.649 83.7364C20.457 83.6827 20.2847 83.6018 20.1321 83.4935C19.9797 83.3852 19.8567 83.2502 19.7636 83.0881C19.6704 82.9262 19.6238 82.7361 19.6238 82.5176H20.3383C20.3383 82.6475 20.3614 82.7591 20.4076 82.8523C20.4536 82.9456 20.5168 83.0217 20.5968 83.081C20.6768 83.1404 20.7713 83.1836 20.8806 83.2109C20.9898 83.2382 21.1074 83.2519 21.2336 83.2519C21.4821 83.2519 21.669 83.2015 21.7943 83.1008C21.9194 83.0001 21.982 82.8668 21.982 82.7011Z" fill="#FDF4DF"/>
<path d="M24.038 82.2307V83.7585H23.3234V79.6465H24.8965C25.1355 79.6465 25.3478 79.6789 25.5333 79.7439C25.7187 79.8089 25.8755 79.8997 26.0036 80.0164C26.1316 80.1331 26.229 80.2715 26.2958 80.4316C26.3627 80.5917 26.3961 80.7658 26.3961 80.9541C26.3961 81.1536 26.3627 81.3325 26.2958 81.4907C26.229 81.6489 26.1316 81.7826 26.0036 81.8918C25.8755 82.001 25.7188 82.0848 25.5333 82.1431C25.3478 82.2015 25.1355 82.2307 24.8965 82.2307H24.038ZM24.038 81.6573H24.8966C25.0339 81.6573 25.1521 81.6405 25.251 81.6065C25.3498 81.5726 25.4312 81.5246 25.4952 81.4625C25.5592 81.4003 25.6059 81.3264 25.635 81.2408C25.6642 81.1552 25.6787 81.0614 25.6787 80.9597C25.6787 80.8637 25.6641 80.7715 25.635 80.683C25.6058 80.5945 25.5591 80.516 25.4952 80.4472C25.4312 80.3784 25.3497 80.3239 25.251 80.2834C25.1521 80.243 25.0339 80.2226 24.8966 80.2226H24.038V81.6573Z" fill="#FDF4DF"/>
<path d="M30.3022 81.8117C30.3022 82.1243 30.2612 82.4043 30.1793 82.6519C30.0973 82.8995 29.982 83.1094 29.8332 83.2817C29.6845 83.4539 29.5056 83.5862 29.2966 83.6785C29.0876 83.7708 28.856 83.8169 28.6018 83.8169C28.3495 83.8169 28.1189 83.7708 27.9099 83.6785C27.7009 83.5862 27.5205 83.454 27.3691 83.2817C27.2175 83.1094 27.0998 82.8995 27.016 82.6519C26.9322 82.4043 26.8904 82.1243 26.8904 81.8117V81.6027C26.8904 81.2901 26.9322 81.0096 27.016 80.761C27.0999 80.5125 27.2166 80.3017 27.3663 80.1284C27.5159 79.9552 27.6953 79.8225 27.9043 79.7302C28.1133 79.6379 28.3439 79.5918 28.5962 79.5918C28.8504 79.5918 29.0824 79.6379 29.2924 79.7302C29.5023 79.8225 29.6821 79.9552 29.8318 80.1284C29.9815 80.3017 30.0973 80.5126 30.1793 80.761C30.2611 81.0095 30.3022 81.2901 30.3022 81.6027V81.8117ZM29.5876 81.597C29.5876 81.3673 29.5655 81.1644 29.5212 80.9884C29.477 80.8124 29.4124 80.665 29.3278 80.5464C29.2431 80.4277 29.139 80.3378 29.0157 80.2768C28.8924 80.2155 28.7526 80.185 28.5963 80.185C28.4438 80.185 28.3063 80.2156 28.1839 80.2768C28.0615 80.3379 27.9575 80.4278 27.8718 80.5464C27.7861 80.665 27.7202 80.8123 27.6741 80.9884C27.628 81.1644 27.6049 81.3673 27.6049 81.597V81.8117C27.6049 82.0414 27.628 82.2447 27.6741 82.4217C27.7202 82.5987 27.7866 82.747 27.8732 82.8665C27.9598 82.9862 28.0647 83.0765 28.1881 83.1377C28.3114 83.199 28.4494 83.2295 28.6018 83.2295C28.9181 83.2295 29.1615 83.109 29.3319 82.868C29.5023 82.6271 29.5875 82.275 29.5875 81.8118V81.597H29.5876Z" fill="#FDF4DF"/>
<path d="M32.5248 82.1741H31.7284V83.7585H31.0138V79.6465H32.4598C32.6951 79.6465 32.9051 79.6733 33.0896 79.727C33.2741 79.7806 33.4299 79.8597 33.557 79.9642C33.684 80.0687 33.7805 80.1981 33.8465 80.3525C33.9123 80.5069 33.9453 80.6857 33.9453 80.8891C33.9453 81.164 33.879 81.3942 33.7462 81.5796C33.6135 81.765 33.4285 81.9077 33.1913 82.0075L34.1149 83.7218V83.7585H33.3494L32.5248 82.1741ZM31.7284 81.6009H32.4627C32.5907 81.6009 32.7027 81.584 32.7988 81.55C32.8948 81.5162 32.9748 81.4691 33.0388 81.4089C33.1028 81.3486 33.1508 81.2771 33.1828 81.1942C33.2148 81.1114 33.2308 81.0201 33.2308 80.9203C33.2308 80.8148 33.2157 80.7192 33.1857 80.6336C33.1554 80.5479 33.1094 80.4745 33.0472 80.4133C32.9851 80.3521 32.9056 80.305 32.8086 80.272C32.7116 80.2391 32.5953 80.2226 32.4598 80.2226H31.7283V81.6009H31.7284Z" fill="#FDF4DF"/>
<path d="M37.453 80.2226H36.1708V83.7585H35.4619V80.2226H34.191V79.6465H37.453V80.2226Z" fill="#FDF4DF"/>
<path d="M26.2108 119.604H20.5409C20.3582 119.604 20.2102 119.456 20.2102 119.273C20.2102 119.09 20.3583 118.942 20.5409 118.942H26.2108C26.3935 118.942 26.5415 119.09 26.5415 119.273C26.5415 119.456 26.3934 119.604 26.2108 119.604Z" fill="#FDF4DF"/>
<path d="M30.2508 121.179H16.5007C16.3181 121.179 16.17 121.031 16.17 120.848C16.17 120.666 16.3181 120.518 16.5007 120.518H30.2508C30.4334 120.518 30.5815 120.666 30.5815 120.848C30.5815 121.031 30.4334 121.179 30.2508 121.179Z" fill="#FDF4DF"/>
<path d="M23.3756 114.786C19.7833 114.786 16.406 113.387 13.8658 110.846C11.3256 108.306 9.92676 104.929 9.92676 101.337C9.92676 97.7443 11.3257 94.367 13.8658 91.8268C16.406 89.2867 19.7833 87.8877 23.3756 87.8877C26.9679 87.8877 30.3453 89.2867 32.8854 91.8268C35.4256 94.367 36.8245 97.7443 36.8245 101.337C36.8245 104.929 35.4255 108.306 32.8854 110.846C30.3453 113.387 26.9679 114.786 23.3756 114.786ZM23.3756 88.0356C19.8228 88.0356 16.4826 89.4192 13.9704 91.9314C11.4582 94.4437 10.0746 97.7839 10.0746 101.337C10.0746 104.889 11.4582 108.23 13.9704 110.742C16.4826 113.254 19.8228 114.638 23.3756 114.638C26.9285 114.638 30.2686 113.254 32.7808 110.742C35.293 108.23 36.6765 104.889 36.6765 101.337C36.6765 97.7839 35.293 94.4437 32.7808 91.9314C30.2686 89.4192 26.9285 88.0356 23.3756 88.0356Z" fill="#FDF4DF"/>
<path opacity="0.5" d="M34.1592 101.336C34.1592 101.998 34.0995 102.648 33.9849 103.278C33.7094 104.791 33.1188 106.193 32.283 107.415C30.3411 110.255 27.0761 112.119 23.3758 112.119C18.9741 112.119 15.1883 109.482 13.5128 105.701C13.2917 105.203 13.1072 104.685 12.9636 104.151C12.721 103.253 12.5919 102.309 12.5919 101.336C12.5919 100.548 12.6763 99.7801 12.8367 99.041C12.8382 99.0324 12.8404 99.0244 12.8421 99.0157C13.2901 96.9717 14.3181 95.1455 15.7446 93.7167C16.1492 93.3112 16.5859 92.9379 17.0512 92.6006C17.2729 92.4398 17.5014 92.287 17.7355 92.1433C19.3761 91.1337 21.3077 90.5518 23.376 90.5518C23.6503 90.5518 23.922 90.5619 24.1909 90.5824C24.5706 90.6104 24.9445 90.6583 25.3119 90.7249C26.8589 91.0052 28.2903 91.6157 29.5318 92.4807H29.5324C30.3059 93.0191 31.0052 93.656 31.6125 94.3741C31.9314 94.7513 32.2252 95.1503 32.4903 95.5694C32.6554 95.8302 32.8099 96.0981 32.9529 96.3735C33.2966 97.0352 33.5731 97.7371 33.7748 98.4703C34.0252 99.3825 34.1592 100.344 34.1592 101.336Z" fill="#FFFBEE"/>
<path d="M19.7121 96.5082C19.2818 97.1897 19.8917 98.3732 18.6007 98.0504C17.3098 97.7276 16.5207 97.584 16.4491 98.301C16.377 99.0186 17.4174 99.0186 17.4174 99.7717C17.4174 100.525 16.9511 100.774 16.234 100.416C15.5165 100.058 15.3104 99.5383 14.4766 99.861C13.6428 100.184 13.1588 99.9686 12.9705 99.3231C12.9371 99.2096 12.8908 99.1176 12.8365 99.0408C12.8381 99.0321 12.8403 99.0241 12.8419 99.0154C13.29 96.9714 14.318 95.1453 15.7445 93.7165C16.1491 93.3109 16.5858 92.9377 17.0511 92.6004C17.2728 92.4395 17.5013 92.2867 17.7354 92.1431C18.0716 92.1554 18.4733 92.283 18.816 92.7068C19.5691 93.6395 20.071 93.1732 19.8919 94.249C19.7123 95.3248 19.9995 95.4685 20.609 95.4324C21.2184 95.3964 21.936 95.3964 22.0075 95.8628C22.0789 96.329 20.1425 95.8267 19.7121 96.5082Z" fill="#FFFBEE"/>
<path d="M24.1767 102.963C24.1767 102.963 23.2264 103.268 22.9754 102.605C22.7244 101.941 23.0112 101.798 22.1685 101.6C21.3258 101.403 21.2541 100.83 20.7162 100.901C20.1783 100.973 20.4472 101.188 19.8196 101.654C19.1921 102.12 18.6183 101.905 18.6363 102.766C18.6541 103.627 19.5866 103.761 19.7749 104.326C19.9632 104.891 19.6404 105.133 20.0439 105.563C20.4473 105.993 21.2003 105.805 20.8508 106.397C20.5011 106.988 19.9632 107.446 20.2322 108.36C20.5012 109.275 20.3129 109.328 20.7701 109.974C21.2272 110.619 22.1148 110.834 22.2493 110.404C22.3838 109.974 21.6307 109.409 21.8727 108.979C22.1148 108.548 22.5182 108.844 22.6796 108.199C22.841 107.553 23.4954 107.553 23.5492 107.105C23.603 106.657 22.7603 105.975 23.083 105.688C23.4057 105.402 24.0512 106.208 24.5533 105.491C25.0554 104.774 24.7146 104.2 25.2347 103.519C25.7547 102.838 24.5354 102.569 24.1767 102.963Z" fill="#FFFBEE"/>
<path d="M34.1593 101.336C34.1593 101.999 34.0996 102.648 33.985 103.279C33.7095 104.791 33.1189 106.194 32.2831 107.416C31.998 107.509 31.707 107.507 31.4208 107.393C30.0761 106.855 31.0711 105.402 31.609 104.676C32.1469 103.95 30.7753 104.273 29.7802 103.6C28.7851 102.928 29.8878 101.126 28.8657 101.422C27.8437 101.718 26.6065 102.094 26.0148 101.099C25.4231 100.104 26.5527 99.9425 26.0417 99.1087C25.5307 98.2749 26.3375 97.7909 27.3595 97.7102C28.3815 97.6295 28.247 96.9033 29.5112 96.7957C30.7753 96.6881 30.7484 98.3018 32.1469 98.1942C33.5455 98.0866 33.4826 98.4093 33.4826 98.4093C33.5832 98.4067 33.6811 98.4277 33.7746 98.4707C34.0253 99.383 34.1593 100.344 34.1593 101.336Z" fill="#FFFBEE"/>
<path d="M32.9527 96.3745C31.7898 96.9404 31.3228 95.4014 30.3288 95.8641C29.3267 96.3304 29.502 95.4337 28.7135 94.8598C27.9244 94.2864 26.3468 95.3262 26.4182 94.4295C26.4897 93.5334 27.6732 93.784 27.9244 93.067C28.1756 92.3499 29.323 92.5291 29.323 92.5291C29.3881 92.5042 29.458 92.4881 29.5317 92.4817C29.5317 92.4817 29.5317 92.4812 29.5323 92.4817C30.3058 93.0201 31.0051 93.657 31.6124 94.3751C31.9313 94.7523 32.2251 95.1513 32.4902 95.5704C32.6552 95.8312 32.8096 96.0991 32.9527 96.3745Z" fill="#FFFBEE"/>
<path d="M23.1548 93.2815C23.1548 93.2815 23.7644 92.402 22.7962 92.1424C21.8279 91.8829 21.8459 92.2226 21.0929 92.1424C20.3398 92.0623 20.0439 92.645 20.6088 93.2815C21.1736 93.9181 21.6308 95.1395 22.1419 94.4884C22.6528 93.8374 22.5541 93.3442 23.1548 93.2815Z" fill="#FFFBEE"/>
</svg>
