<svg width="246" height="161" viewBox="0 0 246 161" fill="none" xmlns="http://www.w3.org/2000/svg">
<path d="M241.23 37.816L237.391 56.3559L234.92 53.952L230.716 56.944L227.502 52.964L220.297 58.188L214.14 47.92L207.272 51.9319L204.548 48.188L195.827 53.088L193.203 47.484L199.317 17.96L232.092 24.708L241.23 37.816Z" fill="#EBEBEB"/>
<path d="M232.09 24.708L241.228 37.816L229.859 35.476L232.09 24.708Z" fill="#DBDBDB"/>
<path d="M236.573 60.06L230.944 87.26L186.797 78.172L192.385 51.192L195.009 56.792L203.734 51.892L206.454 55.636L213.326 51.628L219.479 61.896L226.688 56.672L229.897 60.648L234.106 57.66L236.573 60.06Z" fill="#EBEBEB"/>
<path d="M173.385 56.872L128.395 59.648L124.82 2.064L158.229 0L170.492 10.26L173.385 56.872Z" fill="#EBEBEB"/>
<path d="M158.23 0L170.494 10.26L158.908 10.976L158.23 0Z" fill="#DBDBDB"/>
<path d="M145.774 38.748L145.597 37.448C145.144 34.756 145.882 31.744 148.229 28.596C150.347 25.796 151.494 23.796 151.366 21.524C151.221 18.964 149.516 17.348 146.343 17.476C144.53 17.57 142.788 18.2117 141.349 19.316L139.965 16.224C141.569 14.924 144.378 13.964 147.045 13.824C152.834 13.504 155.65 16.92 155.871 20.732C156.063 24.144 154.29 26.708 152.036 29.704C149.966 32.436 149.288 34.688 149.581 37.236L149.705 38.54L145.774 38.748ZM145.06 45.832C144.955 43.976 146.139 42.6 147.9 42.504C149.661 42.408 150.945 43.64 151.049 45.5C151.145 47.256 150.066 48.672 148.205 48.776C146.428 48.876 145.144 47.588 145.044 45.832H145.06Z" fill="#DBDBDB"/>
<path d="M33.2411 28.952L28.716 26.908L28.0862 28.288C27.9932 28.4852 27.8481 28.6534 27.6665 28.7746C27.4849 28.8958 27.2736 28.9654 27.0552 28.976C26.8066 28.9841 26.5587 29.0081 26.3131 29.048C26.0975 29.0799 25.8773 29.0528 25.676 28.9697C25.4746 28.8866 25.2997 28.7505 25.1698 28.576L24.2832 27.34L20.2436 30.228L21.1301 31.464C21.2534 31.6424 21.326 31.8507 21.3401 32.0669C21.3543 32.2831 21.3094 32.4991 21.2104 32.692C21.096 32.9119 20.9929 33.1376 20.9015 33.368C20.822 33.5711 20.6885 33.7489 20.5153 33.8821C20.3422 34.0153 20.1359 34.0989 19.9186 34.124L18.4062 34.272L18.8917 39.204L20.412 39.052C20.6301 39.0346 20.8488 39.0768 21.0445 39.1741C21.2403 39.2713 21.4058 39.4199 21.5233 39.604C21.5874 39.708 21.6556 39.808 21.7279 39.908C21.8001 40.008 21.8723 40.104 21.9485 40.2C22.0869 40.3679 22.176 40.5708 22.2057 40.7862C22.2354 41.0016 22.2047 41.2209 22.117 41.42L21.4831 42.812L26.0122 44.86L26.6421 43.472C26.7359 43.2749 26.8819 43.1071 27.0643 42.9866C27.2466 42.8661 27.4585 42.7974 27.677 42.788C27.9229 42.7778 28.168 42.7538 28.4112 42.716C28.6267 42.684 28.847 42.7111 29.0483 42.7942C29.2497 42.8774 29.4246 43.0134 29.5545 43.188L30.441 44.424L34.4847 41.536L33.5982 40.3C33.4711 40.1232 33.3962 39.9144 33.382 39.6974C33.3678 39.4803 33.4149 39.2637 33.5179 39.072C33.6297 38.8532 33.7301 38.6289 33.8188 38.4C33.896 38.1953 34.0288 38.0161 34.2024 37.8826C34.376 37.7491 34.5835 37.6664 34.8016 37.644L36.322 37.492L35.8326 32.56L34.3122 32.708C34.0955 32.7269 33.8778 32.6858 33.6831 32.5891C33.4884 32.4924 33.3244 32.3439 33.209 32.16C33.1408 32.056 33.0726 31.956 33.0004 31.856C32.9282 31.756 32.856 31.656 32.7798 31.564C32.6423 31.3939 32.5539 31.1897 32.5242 30.9733C32.4946 30.7569 32.5247 30.5366 32.6113 30.336L33.2411 28.952ZM30.6737 33.516C31.1428 34.1687 31.4073 34.9455 31.4336 35.7481C31.4599 36.5507 31.2469 37.3431 30.8216 38.025C30.3963 38.707 29.7777 39.2478 29.044 39.5791C28.3104 39.9105 27.4947 40.0174 26.7001 39.8865C25.9055 39.7556 25.1677 39.3926 24.58 38.8436C23.9923 38.2945 23.5811 37.584 23.3984 36.8019C23.2157 36.0198 23.2697 35.2012 23.5536 34.4497C23.8375 33.6982 24.3385 33.0475 24.9933 32.58C25.8711 31.9531 26.9626 31.6996 28.0279 31.8752C29.0931 32.0507 30.0448 32.6409 30.6737 33.516Z" fill="#EBEBEB"/>
<path d="M237.792 94.392L234.775 96.128L235.309 97.048C235.388 97.18 235.428 97.3321 235.423 97.4861C235.418 97.6401 235.368 97.7893 235.28 97.916C235.188 98.06 235.1 98.208 235.02 98.364C234.954 98.502 234.85 98.6182 234.72 98.699C234.589 98.7799 234.439 98.8218 234.286 98.82H233.227V102.296H234.294C234.447 102.294 234.598 102.336 234.728 102.417C234.858 102.498 234.962 102.614 235.028 102.752C235.108 102.908 235.196 103.056 235.289 103.2C235.377 103.327 235.426 103.476 235.431 103.63C235.436 103.784 235.396 103.936 235.317 104.068L234.783 104.988L237.8 106.724L238.337 105.8C238.415 105.669 238.528 105.562 238.663 105.491C238.799 105.421 238.951 105.389 239.104 105.4H239.617C239.769 105.39 239.922 105.421 240.057 105.492C240.192 105.563 240.305 105.669 240.383 105.8L240.921 106.728L243.934 104.992L243.4 104.068C243.324 103.935 243.287 103.784 243.293 103.631C243.298 103.479 243.347 103.331 243.432 103.204C243.524 103.06 243.613 102.908 243.693 102.756C243.759 102.618 243.863 102.502 243.993 102.421C244.123 102.34 244.274 102.298 244.427 102.3H245.494V98.824H244.419C244.266 98.8258 244.115 98.7839 243.985 98.703C243.855 98.6222 243.751 98.506 243.685 98.368C243.605 98.216 243.516 98.064 243.424 97.92C243.338 97.7932 243.29 97.6452 243.285 97.4925C243.279 97.3399 243.316 97.1887 243.392 97.056L243.925 96.132L240.913 94.396L240.375 95.308C240.297 95.439 240.184 95.5459 240.049 95.6165C239.914 95.6872 239.761 95.7188 239.609 95.708H239.352H239.096C238.943 95.7182 238.79 95.6863 238.654 95.6158C238.518 95.5452 238.404 95.4387 238.325 95.308L237.792 94.392ZM239.352 97.712C239.918 97.7112 240.47 97.8776 240.941 98.1903C241.411 98.5029 241.778 98.9477 241.994 99.4682C242.211 99.9888 242.268 100.562 242.158 101.115C242.048 101.667 241.776 102.175 241.376 102.574C240.976 102.972 240.467 103.244 239.913 103.353C239.358 103.463 238.783 103.406 238.261 103.19C237.739 102.974 237.293 102.609 236.98 102.14C236.666 101.671 236.499 101.12 236.5 100.556C236.499 100.182 236.573 99.8119 236.716 99.4664C236.859 99.1209 237.069 98.8069 237.334 98.5424C237.599 98.2779 237.914 98.068 238.26 97.9248C238.606 97.7817 238.977 97.708 239.352 97.708V97.712Z" fill="#EBEBEB"/>
<path d="M42.3934 14.172L39.6294 16.284L40.2672 17.128C40.3623 17.2483 40.4209 17.3932 40.4358 17.5457C40.4507 17.6981 40.4215 17.8516 40.3515 17.988C40.2747 18.1437 40.2077 18.304 40.1509 18.468C40.1014 18.6125 40.0125 18.7403 39.8942 18.8371C39.7758 18.9339 39.6327 18.9959 39.4809 19.016L38.4219 19.152L38.8712 22.596L39.9302 22.46C40.0844 22.4386 40.2415 22.461 40.3834 22.5247C40.5254 22.5884 40.6464 22.6907 40.7326 22.82C40.8292 22.9591 40.9336 23.0927 41.0455 23.22C41.1488 23.3333 41.2174 23.4738 41.243 23.6249C41.2686 23.7759 41.2501 23.9311 41.1899 24.072L40.7887 25.056L43.998 26.388L44.3992 25.404C44.4589 25.2628 44.557 25.1412 44.6825 25.0528C44.808 24.9644 44.9558 24.9129 45.1092 24.904L45.366 24.876L45.6187 24.836C45.7671 24.8081 45.9204 24.8213 46.0619 24.8742C46.2033 24.9271 46.3275 25.0176 46.421 25.136L47.0749 25.988L49.8389 23.876L49.193 23.032C49.0997 22.9101 49.0424 22.7646 49.0275 22.6119C49.0126 22.4593 49.0408 22.3056 49.1088 22.168C49.1848 22.0133 49.2518 21.8544 49.3093 21.692C49.3588 21.5475 49.4477 21.4197 49.5661 21.3229C49.6844 21.2261 49.8275 21.1641 49.9793 21.144L51.0383 21.008L50.589 17.564L49.53 17.7C49.3762 17.7218 49.2194 17.7 49.0775 17.6371C48.9356 17.5741 48.8143 17.4725 48.7277 17.344C48.6274 17.2 48.5231 17.064 48.4107 16.944C48.3173 16.8282 48.2568 16.6895 48.2356 16.5424C48.2145 16.3954 48.2334 16.2453 48.2904 16.108L48.6916 15.124L45.4823 13.792L45.0811 14.776C45.0207 14.9166 44.9223 15.0378 44.797 15.126C44.6716 15.2143 44.5242 15.2662 44.3711 15.276L44.1143 15.3L43.8776 15.308C43.7292 15.3359 43.5759 15.3227 43.4344 15.2698C43.293 15.2169 43.1688 15.1263 43.0753 15.008L42.3934 14.172ZM44.3711 17.264C44.9299 17.1924 45.4974 17.2874 46.0022 17.537C46.5069 17.7866 46.9262 18.1797 47.2071 18.6667C47.488 19.1536 47.618 19.7126 47.5807 20.2732C47.5434 20.8337 47.3404 21.3707 46.9974 21.8163C46.6543 22.262 46.1866 22.5964 45.6532 22.7773C45.1199 22.9582 44.5447 22.9775 44.0003 22.8329C43.4559 22.6882 42.9666 22.386 42.5942 21.9644C42.2219 21.5429 41.9831 21.0208 41.908 20.464C41.8578 20.0924 41.8819 19.7147 41.9787 19.3524C42.0755 18.9902 42.2432 18.6506 42.4721 18.3532C42.701 18.0558 42.9866 17.8065 43.3125 17.6196C43.6384 17.4326 43.9982 17.3118 44.3711 17.264Z" fill="#EBEBEB"/>
<path d="M21.7428 104.42C21.8935 100.553 21.8399 96.6812 21.5823 92.82C21.0083 84.8469 19.7888 76.9331 17.9358 69.156C16.9168 64.78 15.6652 60.476 14.3574 56.176C14.3173 56.044 14.1087 56.08 14.1448 56.216C18.1845 71.376 21.4981 87.016 21.2694 102.776C21.2052 107.176 20.6917 111.516 20.2745 115.9C20.2745 116.016 20.455 116.064 20.4831 115.944C21.3135 112.18 21.5863 108.252 21.7428 104.42Z" fill="#EBEBEB"/>
<path d="M14.1445 56.204C14.1445 56.204 8.0308 71.684 9.39876 75.308C10.7667 78.932 13.5909 79.708 13.5909 79.708C13.5909 79.708 9.84806 85.036 12.4636 90.032C15.0792 95.028 20.888 94.792 21.2891 100.456C21.2771 100.484 21.598 76.8 14.1445 56.204Z" fill="#EBEBEB"/>
<path d="M20.6129 90.7039C20.6227 90.6782 20.6227 90.6497 20.6129 90.6239C19.8104 80.0555 17.8216 69.6102 14.6837 59.4839C14.6837 59.4559 14.6235 59.4639 14.6316 59.4839C15.8431 64.0173 16.9128 68.5693 17.8408 73.1399C17.0189 72.3636 16.0148 71.8052 14.9204 71.5159C14.9204 71.5159 14.8883 71.5399 14.9204 71.5479C16.0701 71.968 17.1038 72.6534 17.9371 73.5479C18.1136 74.4479 18.2901 75.3439 18.4546 76.2439C17.0867 74.7199 15.1932 73.9639 13.2957 73.2439C13.2914 73.2458 13.2878 73.2489 13.2852 73.2528C13.2826 73.2567 13.2812 73.2613 13.2812 73.2659C13.2812 73.2706 13.2826 73.2752 13.2852 73.2791C13.2878 73.283 13.2914 73.2861 13.2957 73.2879C15.2734 74.0879 17.2391 75.1199 18.579 76.8199C19.0443 79.3879 19.4535 81.9653 19.8065 84.5519C18.8188 83.5201 17.5521 82.7962 16.16 82.4679C16.1159 82.4679 16.0918 82.5199 16.1359 82.5319C17.5659 82.9519 18.8427 83.7774 19.8105 84.9079H19.8346C19.9549 85.8146 20.0699 86.7253 20.1796 87.6399C19.4155 86.9952 18.5528 86.4766 17.6242 86.1039C17.6001 86.1039 17.5841 86.1319 17.6242 86.1399C18.5718 86.5493 19.4396 87.122 20.1876 87.8319C20.1876 87.8319 20.2077 87.8319 20.2197 87.8319C20.32 88.6999 20.4203 89.5679 20.5085 90.4359C19.131 88.7755 17.3433 87.5016 15.3216 86.7399C15.313 86.7399 15.3049 86.7433 15.2989 86.7493C15.2928 86.7553 15.2895 86.7635 15.2895 86.7719C15.2895 86.7804 15.2928 86.7886 15.2989 86.7946C15.3049 86.8006 15.313 86.8039 15.3216 86.8039C17.3179 87.6813 19.0715 89.0277 20.4323 90.7279C20.4473 90.7466 20.4675 90.7604 20.4904 90.7675C20.5133 90.7746 20.5377 90.7748 20.5607 90.7679C20.6931 92.0999 20.8134 93.4319 20.9097 94.7679C20.9097 94.7879 20.9418 94.7879 20.9418 94.7679C20.8375 93.4266 20.7279 92.0719 20.6129 90.7039Z" fill="white"/>
<path d="M15.6987 69.992C14.5915 69.3049 13.3267 68.9112 12.0241 68.848C12.0177 68.848 12.0116 68.8505 12.0071 68.855C12.0025 68.8595 12 68.8657 12 68.872C12 68.8784 12.0025 68.8845 12.0071 68.889C12.0116 68.8935 12.0177 68.896 12.0241 68.896C13.2834 69.1341 14.5056 69.5377 15.6586 70.096C15.7067 70.108 15.7428 70.024 15.6987 69.992Z" fill="white"/>
<path d="M16.4379 86.3801C15.5869 85.8931 14.6499 85.5739 13.6779 85.4401C13.6458 85.4401 13.6418 85.4841 13.6779 85.4921C14.6271 85.6819 15.5451 86.0023 16.4058 86.4441C16.4419 86.4641 16.474 86.4001 16.4379 86.3801Z" fill="white"/>
<path d="M37.8221 75.576C35.2358 77.3586 32.8604 79.4278 30.7416 81.744C28.5565 84.1964 26.8711 87.0494 25.7793 90.144C23.4557 96.5912 22.2063 103.374 22.0806 110.224C22.0027 114.017 22.3675 117.807 23.1677 121.516C23.1742 121.543 23.1909 121.566 23.2142 121.581C23.2376 121.597 23.2658 121.602 23.2932 121.597C23.3205 121.592 23.3448 121.576 23.361 121.554C23.3772 121.531 23.3842 121.503 23.3804 121.476C22.3846 114.93 22.4225 108.27 23.4927 101.736C24.5437 95.336 26.1925 88.368 30.2763 83.164C32.4987 80.328 35.2707 78.1 38.0106 75.796C38.1551 75.668 37.9705 75.472 37.8221 75.576Z" fill="#EBEBEB"/>
<path d="M22.9766 105.608C24.4487 103.234 26.1788 101.028 28.1355 99.032C31.1963 95.98 33.7718 93.812 34.1729 91.796C34.5741 89.78 31.1081 88.292 31.1081 88.292C31.1081 88.292 35.3403 89.052 36.4996 87.28C37.659 85.508 38.2166 75.244 38.2166 75.244C38.2166 75.244 30.5143 80.728 26.924 88.416C23.3336 96.104 22.9766 105.608 22.9766 105.608Z" fill="#EBEBEB"/>
<path d="M35.455 84.872C34.9478 84.7967 34.4337 84.7793 33.9225 84.82C33.8624 84.82 33.8664 84.924 33.9225 84.928C34.428 84.928 34.9375 84.904 35.443 84.928C35.4487 84.9265 35.454 84.9234 35.4581 84.9191C35.4622 84.9148 35.4651 84.9095 35.4663 84.9037C35.4676 84.8979 35.4672 84.8918 35.4652 84.8862C35.4632 84.8806 35.4597 84.8757 35.455 84.872Z" fill="white"/>
<path d="M29.9217 94.828C29.1084 94.8445 28.3044 95.0043 27.5469 95.3C27.5469 95.3 27.5469 95.34 27.5469 95.336C28.3492 95.148 29.1234 95.072 29.9177 94.936C29.9281 94.9315 29.937 94.9241 29.9433 94.9148C29.9497 94.9055 29.9533 94.8945 29.9537 94.8833C29.9541 94.872 29.9514 94.8608 29.9457 94.8511C29.94 94.8413 29.9317 94.8333 29.9217 94.828Z" fill="white"/>
<path d="M28.2622 91.388C27.9245 91.3853 27.5874 91.4148 27.2553 91.476C27.2492 91.4783 27.2439 91.4823 27.2401 91.4877C27.2364 91.4931 27.2344 91.4994 27.2344 91.506C27.2344 91.5125 27.2364 91.5189 27.2401 91.5242C27.2439 91.5296 27.2492 91.5337 27.2553 91.536C27.5916 91.5554 27.9289 91.5406 28.2622 91.492C28.276 91.492 28.2893 91.4865 28.2991 91.4767C28.3089 91.467 28.3144 91.4538 28.3144 91.44C28.3144 91.4262 28.3089 91.413 28.2991 91.4032C28.2893 91.3935 28.276 91.388 28.2622 91.388Z" fill="white"/>
<path d="M0.397183 86.464C2.90411 87.3115 5.3064 88.44 7.55788 89.828C9.89399 91.3082 11.9198 93.2263 13.5231 95.476C16.8965 100.158 19.4792 105.359 21.1692 110.872C22.1117 113.925 22.6934 117.077 22.9022 120.264C22.8978 120.285 22.8865 120.303 22.87 120.316C22.8536 120.33 22.8331 120.337 22.812 120.337C22.7908 120.337 22.7703 120.33 22.7539 120.316C22.7374 120.303 22.7261 120.285 22.7217 120.264C22.0136 114.738 20.4407 109.356 18.0602 104.316C15.7215 99.376 12.773 94.12 8.26392 90.848C5.80882 89.068 3.04885 87.9 0.296894 86.668C0.152476 86.62 0.252766 86.416 0.397183 86.464Z" fill="#EBEBEB"/>
<path d="M19.372 107.348C17.6291 105.767 15.7175 104.381 13.6715 103.216C10.4863 101.452 7.89883 100.292 7.10854 98.752C6.31826 97.212 8.77737 95.212 8.77737 95.212C8.77737 95.212 5.52798 96.812 4.18008 95.632C2.83218 94.452 0 86.292 0 86.292C0 86.292 7.50569 88.952 12.1872 94.348C16.8688 99.744 19.372 107.348 19.372 107.348Z" fill="#EBEBEB"/>
<path d="M13.1432 99.836C12.4053 99.7847 11.6643 99.8757 10.9609 100.104C10.9609 100.104 10.9609 100.14 10.9609 100.136C11.6786 100.013 12.4036 99.9385 13.1312 99.9121C13.1834 99.9121 13.1954 99.84 13.1432 99.836Z" fill="white"/>
<path d="M6.5961 91.276C6.25948 91.2486 5.92067 91.2674 5.58919 91.332C5.55309 91.332 5.56512 91.3959 5.58919 91.3919C5.92216 91.356 6.2471 91.368 6.57605 91.36C6.58627 91.3604 6.59631 91.3572 6.60446 91.3511C6.6126 91.3449 6.61836 91.3361 6.62073 91.3262C6.62309 91.3163 6.62193 91.3058 6.61744 91.2967C6.61295 91.2875 6.60541 91.2802 6.5961 91.276Z" fill="white"/>
<path d="M29.0503 130.58H12.1094L14.5244 112.936L15.1421 108.412H26.0176L26.6354 112.936L29.0503 130.58Z" fill="#DBDBDB"/>
<path d="M26.6384 112.936H14.5273L15.1451 108.412H26.0206L26.6384 112.936Z" fill="#C7C7C7"/>
<path d="M27.5704 106.844H13.5859V110.676H27.5704V106.844Z" fill="#DBDBDB"/>
<path d="M1.33984 130.58L31.832 130.484L62.3241 130.448L123.308 130.38L184.293 130.448L214.785 130.484L245.277 130.58L214.785 130.68L184.293 130.712L123.308 130.78L62.3241 130.712L31.832 130.676L1.33984 130.58Z" fill="#263238"/>
<path d="M124.11 160.392C187.639 160.392 239.139 154.765 239.139 147.824C239.139 140.883 187.639 135.256 124.11 135.256C60.582 135.256 9.08203 140.883 9.08203 147.824C9.08203 154.765 60.582 160.392 124.11 160.392Z" fill="#F4F4F4"/>
<path d="M97.3349 145.744C96.4002 146.06 69.5987 146.144 68.5717 145.512C68.1706 145.272 67.9419 141.38 67.7694 136.668C67.7333 135.652 67.7052 134.6 67.6812 133.536L65.543 119.28L83.4628 119.164L85.1517 133.424L85.0835 136.56C85.0835 136.56 95.3612 141.1 96.4122 141.924C97.4633 142.748 98.2696 145.428 97.3349 145.744Z" fill="#E06A6D"/>
<path d="M97.333 145.744C96.3983 146.06 69.5968 146.144 68.5698 145.512C68.0965 145.216 67.8397 139.532 67.6953 133.536L85.1297 133.424L85.0615 136.56C85.0615 136.56 95.3392 141.1 96.3902 141.924C97.4413 142.748 98.2677 145.428 97.333 145.744Z" fill="white"/>
<path d="M97.335 145.744C96.4003 146.06 69.5988 146.144 68.5719 145.512C68.1707 145.272 67.942 141.38 67.7695 136.668L85.0475 136.56C85.0475 136.56 95.3252 141.1 96.3762 141.924C97.4273 142.748 98.2697 145.428 97.335 145.744Z" fill="#A6A6A6"/>
<path d="M96.9451 144.676C92.4521 144.58 74.3197 144.624 69.8708 144.872C69.8347 144.872 69.8347 144.896 69.8708 144.9C74.3237 145.088 92.4561 144.9 96.9451 144.748C97.0414 144.744 97.0414 144.676 96.9451 144.676Z" fill="#263238"/>
<path d="M94.663 140.968C94.1634 140.957 93.6669 141.049 93.2049 141.239C92.743 141.429 92.3256 141.713 91.9792 142.072C91.348 142.713 90.9913 143.574 90.9844 144.472C90.9844 144.5 91.0325 144.5 91.0365 144.472C91.1857 143.587 91.6179 142.774 92.2686 142.154C92.9193 141.534 93.7535 141.14 94.6469 141.032C94.6555 141.034 94.6645 141.033 94.672 141.028C94.6795 141.024 94.6849 141.017 94.6871 141.008C94.6892 141 94.6879 140.991 94.6833 140.983C94.6788 140.976 94.6715 140.97 94.663 140.968Z" fill="#263238"/>
<path d="M86.8021 137C85.005 136.98 82.9229 137.62 81.8077 139.092C81.7676 139.148 81.8478 139.208 81.9 139.18C83.4702 138.354 85.1243 137.697 86.8342 137.22C86.8607 137.213 86.8836 137.196 86.8986 137.173C86.9136 137.15 86.9197 137.123 86.9157 137.096C86.9118 137.069 86.8981 137.044 86.8771 137.026C86.8562 137.009 86.8295 136.999 86.8021 137Z" fill="#263238"/>
<path d="M88.1986 137.532C86.3974 137.532 84.3154 138.156 83.2041 139.624C83.16 139.684 83.2403 139.744 83.2964 139.716C84.8643 138.887 86.5173 138.228 88.2267 137.752C88.2528 137.745 88.2754 137.729 88.2904 137.706C88.3054 137.684 88.3118 137.657 88.3084 137.63C88.305 137.603 88.292 137.578 88.2718 137.56C88.2516 137.542 88.2256 137.532 88.1986 137.532Z" fill="#263238"/>
<path d="M89.5873 138.068C87.7901 138.068 85.7081 138.688 84.5929 140.16C84.5528 140.216 84.633 140.276 84.6852 140.248C86.2553 139.422 87.9094 138.765 89.6194 138.288C89.6458 138.281 89.6687 138.264 89.6837 138.241C89.6987 138.218 89.7049 138.191 89.7009 138.164C89.697 138.137 89.6832 138.112 89.6623 138.094C89.6414 138.077 89.6147 138.067 89.5873 138.068Z" fill="#263238"/>
<path d="M90.9795 138.604C89.1783 138.584 87.0962 139.224 85.985 140.696C85.9409 140.752 86.0251 140.812 86.0773 140.784C87.6472 139.957 89.3014 139.3 91.0116 138.824C91.038 138.817 91.0609 138.8 91.0759 138.777C91.0909 138.754 91.097 138.727 91.0931 138.7C91.0891 138.673 91.0754 138.648 91.0545 138.63C91.0336 138.613 91.0069 138.603 90.9795 138.604Z" fill="#263238"/>
<path d="M71.0004 140.612C68.9946 140.612 68.9946 143.752 71.0004 143.74C73.0062 143.728 73.0223 140.6 71.0004 140.612Z" fill="#263238"/>
<path d="M88.7319 132.208C87.8213 131.456 86.674 132.208 86.1164 132.98C85.1881 134.344 84.6349 135.928 84.5117 137.572C84.5117 137.608 84.5398 137.624 84.5679 137.624C84.575 137.658 84.5902 137.689 84.6121 137.716C84.634 137.743 84.6621 137.764 84.694 137.778C84.7258 137.792 84.7605 137.798 84.7951 137.795C84.8297 137.793 84.8632 137.782 84.8928 137.764C86.1685 136.88 87.6448 136.088 88.6116 134.836C89.1612 134.108 89.6104 132.908 88.7319 132.208ZM86.5416 136.024C85.9238 136.476 85.286 136.896 84.6842 137.372C85.0051 136.476 85.2819 135.572 85.6911 134.708C85.8802 134.294 86.0973 133.893 86.341 133.508C86.7422 132.912 88.4912 131.408 88.6758 133.356C88.7801 134.424 87.2757 135.488 86.5416 136.024Z" fill="#263238"/>
<path d="M80.0353 138.252C81.5999 138.484 83.2165 138.036 84.753 137.792C84.7863 137.783 84.8172 137.767 84.8431 137.744C84.8689 137.722 84.8891 137.693 84.902 137.661C84.9149 137.629 84.9201 137.595 84.9172 137.561C84.9143 137.526 84.9034 137.493 84.8853 137.464C84.8912 137.459 84.8959 137.454 84.8991 137.447C84.9024 137.441 84.9041 137.433 84.9041 137.426C84.9041 137.419 84.9024 137.411 84.8991 137.405C84.8959 137.398 84.8912 137.392 84.8853 137.388C83.6508 136.29 82.1483 135.536 80.5288 135.2C79.582 135.02 78.2422 135.28 78.1218 136.452C77.9774 137.556 79.1207 138.108 80.0353 138.252ZM78.9442 137.236C77.7407 135.7 80.0393 135.568 80.7293 135.728C81.177 135.84 81.6166 135.981 82.0451 136.152C82.9226 136.515 83.7808 136.922 84.6166 137.372C83.8544 137.448 83.1042 137.584 82.346 137.688C81.4394 137.808 79.6181 138.08 78.9442 137.236Z" fill="#263238"/>
<path d="M39.1914 53.3879C39.1914 53.3879 59.9995 88.684 60.5572 91.164C61.4116 94.972 65.9407 132.576 65.9407 132.576L87.6033 132.176C87.6033 132.176 83.8725 99.0199 80.3383 88.0959C77.795 80.2279 59.4299 54.1319 59.4299 54.1319L39.1914 53.3879Z" fill="#37474F"/>
<path d="M85.6351 128.88C82.5262 128.856 71.5063 128.732 67.3663 129.116C67.3342 129.116 67.3383 129.172 67.3663 129.176C68.7905 129.38 82.5221 129.064 85.6311 128.964C85.6376 128.966 85.6446 128.967 85.6514 128.966C85.6583 128.966 85.6649 128.963 85.6706 128.959C85.6764 128.955 85.6811 128.95 85.6845 128.944C85.6879 128.938 85.6899 128.932 85.6902 128.925C85.6905 128.918 85.6892 128.911 85.6864 128.905C85.6836 128.898 85.6793 128.893 85.674 128.889C85.6686 128.884 85.6623 128.881 85.6556 128.88C85.6488 128.878 85.6418 128.878 85.6351 128.88Z" fill="#263238"/>
<path d="M42.7426 56.6279C44.1065 58.7599 45.5507 60.8479 46.9387 62.9639C48.3267 65.0799 49.7227 67.1959 51.0987 69.3079C53.8426 73.5746 56.517 77.8692 59.1219 82.1919C60.3932 84.1956 61.4807 86.3095 62.3713 88.5079C63.1842 90.7068 63.7952 92.9748 64.1966 95.2839C64.6218 97.5999 64.9026 99.9399 65.1634 102.28C65.4308 104.768 65.7103 107.257 66.0018 109.748C66.5714 114.844 67.1424 119.94 67.7147 125.036C67.7829 125.66 67.8511 126.284 67.9153 126.912C67.9153 127.004 67.7589 127.02 67.7468 126.912C67.109 121.852 66.5795 116.772 66.0018 111.712C65.7129 109.187 65.4255 106.663 65.1393 104.14C64.8705 101.792 64.6138 99.4399 64.2487 97.1079C63.9137 94.8061 63.4041 92.5329 62.7243 90.3079C61.9753 88.0041 60.9715 85.7905 59.7317 83.7079C57.2244 79.3919 54.5687 75.1519 51.9131 70.9079C49.2574 66.6639 46.5295 62.3839 43.7294 58.1919C43.3844 57.6759 43.0354 57.1599 42.6744 56.6519C42.6463 56.6239 42.7185 56.5879 42.7426 56.6279Z" fill="#263238"/>
<path d="M46.0128 147.824C45.026 147.764 19.5363 137.468 18.8303 136.492C18.7988 136.434 18.7849 136.369 18.7902 136.304C18.7902 135.428 20.5593 132.372 22.0355 128.356C22.1278 128.1 22.7857 126.908 23.6963 125.304C26.2276 120.908 30.6404 113.336 30.6404 113.336L47.3005 119.936L39.3255 131.836L38.0859 134.716C38.0859 134.716 45.9045 142.776 46.5624 143.916C47.2203 145.056 46.9957 147.88 46.0128 147.824Z" fill="#E06A6D"/>
<path d="M46.0128 147.824C45.026 147.764 19.5363 137.468 18.8303 136.492C18.7988 136.435 18.7849 136.369 18.7902 136.304C18.7902 135.428 20.5593 132.372 22.0355 128.356C22.1278 128.1 22.7857 126.908 23.6963 125.304L39.3416 131.836L38.102 134.716C38.102 134.716 45.9206 142.776 46.5785 143.916C47.2364 145.056 46.9957 147.88 46.0128 147.824Z" fill="white"/>
<path d="M46.0113 147.824C45.0245 147.764 19.5348 137.468 18.8288 136.492C18.556 136.12 19.6953 132.652 22.0381 128.356L38.0844 134.72C38.0844 134.72 45.903 142.772 46.5649 143.92C47.2269 145.068 46.9942 147.88 46.0113 147.824Z" fill="#A6A6A6"/>
<path d="M46.0544 146.688C41.9265 144.92 25.1018 138.176 20.8856 136.744C20.8495 136.744 20.8415 136.744 20.8856 136.768C24.9414 138.608 41.8181 145.216 46.0383 146.768C46.1186 146.788 46.1426 146.724 46.0544 146.688Z" fill="#263238"/>
<path d="M45.3311 142.396C44.8734 142.195 44.3789 142.092 43.8789 142.092C43.379 142.092 42.8845 142.195 42.4267 142.396C41.6037 142.755 40.9514 143.417 40.6055 144.244C40.6055 144.268 40.6416 144.288 40.6536 144.264C41.1265 143.497 41.836 142.904 42.6757 142.573C43.5154 142.242 44.44 142.191 45.3111 142.428C45.3178 142.426 45.3236 142.422 45.3273 142.416C45.331 142.41 45.3324 142.403 45.3311 142.396Z" fill="#263238"/>
<path d="M39.5423 135.78C37.8856 135.088 35.7113 134.904 34.1267 135.852C34.0665 135.888 34.1267 135.972 34.1788 135.968C35.9453 135.789 37.7258 135.799 39.4902 135.996C39.5173 135.999 39.5446 135.992 39.567 135.976C39.5893 135.961 39.6052 135.937 39.6115 135.911C39.6179 135.884 39.6144 135.856 39.6017 135.832C39.589 135.808 39.5679 135.79 39.5423 135.78Z" fill="#263238"/>
<path d="M40.6283 136.796C38.9715 136.104 36.7972 135.92 35.2126 136.868C35.1525 136.904 35.2126 136.988 35.2648 136.984C37.0311 136.803 38.8118 136.813 40.5761 137.012C40.6033 137.015 40.6306 137.008 40.6529 136.992C40.6753 136.977 40.6911 136.953 40.6975 136.927C40.7039 136.9 40.7004 136.873 40.6876 136.848C40.6749 136.824 40.6538 136.806 40.6283 136.796Z" fill="#263238"/>
<path d="M41.72 137.812C40.0592 137.12 37.8849 136.936 36.3043 137.884C36.2402 137.92 36.3044 138.004 36.3525 138C38.1188 137.819 39.8995 137.829 41.6638 138.028C41.6915 138.033 41.72 138.027 41.7435 138.011C41.7671 137.996 41.7841 137.973 41.7911 137.946C41.7982 137.918 41.7948 137.89 41.7816 137.865C41.7685 137.84 41.7465 137.821 41.72 137.812Z" fill="#263238"/>
<path d="M42.8059 138.828C41.1451 138.136 38.9749 137.952 37.3903 138.896C37.3261 138.936 37.3903 139.02 37.4384 139.016C39.2048 138.835 40.9855 138.845 42.7498 139.044C42.7775 139.049 42.8059 139.043 42.8295 139.027C42.853 139.012 42.87 138.989 42.8771 138.962C42.8841 138.934 42.8807 138.906 42.8676 138.881C42.8544 138.856 42.8324 138.837 42.8059 138.828Z" fill="#263238"/>
<path d="M23.5304 133.216C21.657 132.472 20.4936 135.38 22.3751 136.124C24.2565 136.868 25.4239 133.96 23.5304 133.216Z" fill="#263238"/>
<path d="M43.1333 132.06C42.5676 131.024 41.2318 131.28 40.4174 131.796C39.0456 132.712 37.939 133.972 37.2081 135.448C37.2049 135.455 37.2032 135.462 37.2031 135.469C37.2031 135.476 37.2046 135.483 37.2077 135.49C37.2108 135.496 37.2153 135.502 37.2209 135.507C37.2266 135.511 37.2332 135.514 37.2402 135.516C37.2402 135.648 37.3285 135.804 37.4849 135.772C39.0053 135.424 40.6701 135.244 42.0341 134.444C42.8163 133.98 43.6668 133.04 43.1333 132.06ZM39.6632 134.776C38.9211 134.964 38.1749 135.116 37.4408 135.332C38.048 134.603 38.692 133.904 39.3704 133.24C39.7043 132.923 40.0595 132.629 40.4334 132.36C41.0151 131.96 43.2135 131.22 42.6519 133.096C42.343 134.132 40.5498 134.552 39.6632 134.776Z" fill="#263238"/>
<path d="M32.7939 134.408C34.1579 135.208 35.8227 135.396 37.3391 135.748C37.4955 135.784 37.5998 135.628 37.5878 135.492C37.5953 135.491 37.6025 135.488 37.6087 135.484C37.6148 135.48 37.6197 135.474 37.623 135.467C37.6262 135.46 37.6276 135.453 37.6271 135.445C37.6265 135.438 37.624 135.43 37.6199 135.424C36.8902 133.945 35.7835 132.683 34.4106 131.764C33.6083 131.244 32.2644 130.984 31.6947 132.016C31.1251 133.048 31.9956 133.94 32.7939 134.408ZM32.1681 133.056C31.6105 131.18 33.8048 131.924 34.3865 132.328C34.76 132.597 35.1139 132.893 35.4456 133.212C36.1226 133.878 36.7653 134.577 37.3711 135.308C36.637 135.092 35.8909 134.936 35.1487 134.748C34.2501 134.508 32.473 134.108 32.1681 133.056Z" fill="#263238"/>
<path d="M40.6226 131.172L21.9727 123.664C21.9727 123.664 45.0955 89.764 45.264 87.24C45.4164 85.008 35.2591 65.56 34.8619 59.892C34.4287 53.772 37.3812 49.04 40.6306 46.1L59.8662 54.256C59.8662 54.256 57.8363 57.492 54.6511 59.296C54.6511 59.296 64.5156 81.776 63.954 88.688C63.3924 95.6 40.6226 131.172 40.6226 131.172Z" fill="#37474F"/>
<path d="M41.4495 127.636C38.7537 126.48 39.544 126.772 36.8321 125.636C35.5083 125.084 26.8031 121.472 25.4633 121.172C25.4352 121.172 25.4151 121.212 25.4432 121.228C26.6026 121.936 35.3799 125.396 36.7158 125.924C39.4477 126.996 38.6735 126.66 41.4174 127.7C41.4215 127.705 41.4269 127.71 41.4332 127.713C41.4394 127.715 41.4463 127.716 41.4531 127.716C41.4599 127.715 41.4664 127.713 41.4721 127.709C41.4777 127.705 41.4823 127.7 41.4854 127.694C41.4884 127.688 41.4899 127.681 41.4896 127.674C41.4892 127.667 41.4872 127.661 41.4836 127.655C41.48 127.649 41.475 127.644 41.469 127.641C41.463 127.638 41.4563 127.636 41.4495 127.636Z" fill="#263238"/>
<path d="M57.8047 58.8839C55.802 59.3494 53.8427 59.9837 51.9477 60.7799C51.9401 60.7826 51.933 60.7867 51.927 60.792C51.9209 60.7974 51.916 60.8038 51.9125 60.8111C51.9089 60.8183 51.9069 60.8262 51.9064 60.8342C51.9059 60.8423 51.907 60.8503 51.9096 60.858C51.9122 60.8656 51.9164 60.8726 51.9217 60.8786C51.9271 60.8847 51.9336 60.8896 51.9408 60.8931C51.9481 60.8966 51.956 60.8987 51.9641 60.8992C51.9721 60.8997 51.9802 60.8986 51.9878 60.896C53.9535 60.324 55.9513 59.7879 57.8849 59.1119C58.0333 59.0599 57.9571 58.8519 57.8047 58.8839Z" fill="#263238"/>
<path d="M55.5118 58.108C55.3248 58.4395 55.16 58.7829 55.0184 59.136C54.8799 59.404 54.7941 59.6959 54.7656 59.996C54.7656 60.056 54.8459 60.068 54.882 60.032C55.0832 59.792 55.2456 59.5221 55.3633 59.232C55.5278 58.916 55.6963 58.604 55.8528 58.28C55.9611 58.044 55.6361 57.892 55.5118 58.108Z" fill="#263238"/>
<path d="M55.7525 56.2919C55.8728 55.9959 55.9891 55.7039 56.1135 55.4079C56.2379 55.1119 56.3943 54.8079 56.5146 54.4959C56.5146 54.4479 56.6109 54.4959 56.5909 54.5319C56.4705 54.8279 56.3943 55.1399 56.302 55.4439C56.2098 55.7479 56.1055 56.0519 56.0052 56.3559C55.8166 56.9199 55.604 57.4799 55.3433 58.0279C55.6589 58.0436 55.9741 57.989 56.2659 57.8679C56.564 57.6777 56.7931 57.3974 56.9198 57.0679C57.0883 56.7399 57.2448 56.4039 57.4173 56.0759C57.6296 55.7213 57.8082 55.3477 57.9508 54.9599C57.9508 54.9119 58.0471 54.9599 58.027 54.9959C57.7655 55.8158 57.4228 56.6077 57.0041 57.3599C56.8235 57.6519 56.6831 57.9599 56.3542 58.0719C55.9981 58.1712 55.6255 58.1971 55.259 58.1479C55.2109 58.1479 55.1547 58.1479 55.1708 58.0759C55.335 57.472 55.5292 56.8766 55.7525 56.2919Z" fill="#263238"/>
<path d="M54.9351 60.0279C55.6211 61.4719 56.2229 62.9119 56.8607 64.3519C57.4985 65.7919 58.0642 67.1839 58.6378 68.6159C59.7851 71.5039 60.8121 74.4479 61.7147 77.4159C62.16 78.8879 62.5732 80.3719 62.9423 81.8679C63.3488 83.3591 63.6464 84.8778 63.8328 86.4119C63.9938 87.9435 63.8576 89.4916 63.4317 90.9719C62.9893 92.4351 62.4215 93.8577 61.7348 95.2239C61.3136 96.0879 61.1732 95.9719 61.3737 95.5359C61.9474 94.2959 63.4517 90.5399 63.3434 87.3839C63.2557 85.873 63.0219 84.374 62.6454 82.9079C62.2951 81.3959 61.9006 79.8959 61.462 78.4079C60.6075 75.4719 59.5926 72.5959 58.5496 69.7239C57.9639 68.1239 57.3461 66.5239 56.7444 64.9239C56.1426 63.3239 55.5409 61.8519 54.8669 60.0839C54.8469 60.0119 54.9151 59.9839 54.9351 60.0279Z" fill="#263238"/>
<path d="M40.7782 55.256C41.1112 55.132 41.5805 55.336 41.9175 55.392C42.3539 55.4659 42.7949 55.51 43.2373 55.524C43.6751 55.5394 44.1134 55.5247 44.5491 55.48C44.9879 55.4687 45.418 55.355 45.8047 55.148C46.4393 54.6871 46.9833 54.1135 47.4094 53.456C47.9171 52.7842 48.3364 52.0502 48.657 51.272C48.657 51.224 48.7412 51.272 48.7252 51.304C48.5848 51.748 48.4804 52.196 48.324 52.632C48.1511 53.0417 47.9444 53.4363 47.7062 53.812C47.32 54.568 46.7488 55.2146 46.0454 55.692C45.2712 56.132 44.2763 56.092 43.4138 56.056C42.9136 56.0269 42.4162 55.9614 41.9255 55.86C41.5725 55.784 40.9788 55.728 40.7541 55.42C40.7436 55.4082 40.7357 55.3943 40.7311 55.3791C40.7266 55.364 40.7254 55.3481 40.7277 55.3324C40.73 55.3168 40.7357 55.3018 40.7444 55.2886C40.7532 55.2754 40.7647 55.2643 40.7782 55.256Z" fill="#263238"/>
<path d="M27.2936 120.108C30.3584 115.479 33.3671 110.812 36.3197 106.108C39.2722 101.404 42.1846 96.6639 45.0569 91.8879C45.7429 90.7479 46.5332 89.6119 46.9745 88.3479C47.4558 86.9759 47.1831 85.6439 46.7498 84.2999C45.9317 81.8481 44.9754 79.4443 43.8855 77.0999C42.8104 74.7359 41.6511 72.4119 40.5118 70.0799C39.3725 67.7479 38.181 65.4439 37.3025 63.0119C36.5002 60.6879 36.1752 58.28 36.8011 55.872C37.4269 53.464 38.7748 51.3359 40.1828 49.3319C40.5519 48.8039 40.933 48.28 41.3061 47.732C41.3342 47.692 41.3943 47.7319 41.3662 47.7799C39.8138 49.8679 38.3014 52.0799 37.3908 54.5319C36.9253 55.7406 36.665 57.018 36.6205 58.3119C36.6129 59.6253 36.8175 60.9314 37.2263 62.1799C37.9805 64.6119 39.1719 66.9119 40.2831 69.1999C41.3943 71.4879 42.5818 73.8559 43.6769 76.2119C44.8067 78.5831 45.811 81.0118 46.6856 83.4879C47.0587 84.588 47.4879 85.7399 47.4558 86.9199C47.4278 88.2119 46.81 89.3759 46.1681 90.464C43.36 95.2039 40.4837 99.8879 37.5552 104.544C34.6268 109.2 31.6141 113.856 28.5653 118.464L27.4099 120.204C27.3497 120.276 27.2454 120.192 27.2936 120.108Z" fill="#263238"/>
<path d="M60.9305 32.696C62.6675 36.496 71.4409 41.732 75.5488 42.296C78.5013 42.696 87.4792 42.84 90.5561 42.372C94.1666 41.82 91.4066 32.12 89.2764 32.372C83.4195 33.052 78.4451 33.812 76.8806 33.812C74.9711 33.812 64.6412 30.508 63.3977 30.04C60.3488 28.908 59.9477 30.54 60.9305 32.696Z" fill="#E06A6D"/>
<path d="M60.987 33.7079C63.1853 36.9519 70.4904 42.2559 70.4904 42.2559L71.5053 40.0159L74.8631 32.6079C74.8631 32.6079 68.1517 30.5079 63.7349 29.5479C63.2151 29.43 62.6865 29.3551 62.1543 29.3239C59.3342 29.1719 59.0895 30.9079 60.987 33.7079Z" fill="#FFD801"/>
<path d="M60.987 33.708C63.1853 36.952 70.4904 42.256 70.4904 42.256L71.5053 40.016C68.7815 36.86 64.5733 32.08 62.1543 29.332C59.3342 29.172 59.0895 30.908 60.987 33.708Z" fill="#263238"/>
<path d="M69.1772 40.752C69.7348 39.388 72.214 33.896 72.8318 32.752C72.8719 32.672 72.9361 32.68 72.9 32.752C71.8246 35.4831 70.6006 38.1538 69.2334 40.752C69.2173 40.8 69.1531 40.784 69.1772 40.752Z" fill="#263238"/>
<path d="M88.2031 32.4719C91.7654 32.0079 96.1742 31.2119 99.909 32.7919C100.328 32.9559 100.68 33.2561 100.908 33.6439C102.593 34.3239 102.777 35.3199 102.777 35.3199C104.153 36.4319 104.201 37.4799 104.201 37.4799C104.201 37.4799 106.175 38.2799 105.874 39.5679C105.545 40.9919 102.841 39.5679 100.876 39.6839C96.3627 39.9639 90.0444 41.6159 88.7407 41.8239L88.2031 32.4719Z" fill="#E06A6D"/>
<path d="M95.9427 36.6639C97.2623 36.574 98.5865 36.574 99.9061 36.6639C101.343 36.8437 102.765 37.1312 104.158 37.5239C104.167 37.5271 104.177 37.5266 104.186 37.5225C104.195 37.5183 104.201 37.5109 104.205 37.5019C104.208 37.4929 104.207 37.483 104.203 37.4744C104.199 37.4657 104.192 37.4591 104.182 37.4559C101.564 36.4316 98.7139 36.1438 95.9427 36.6239C95.8785 36.6159 95.8785 36.6679 95.9427 36.6639Z" fill="#263238"/>
<path d="M95.1015 32.508C97.3039 32.62 98.6798 32.972 100.894 33.636V33.612C98.4552 32.596 97.4563 32.5 95.0895 32.412C95.0132 32.444 95.0173 32.508 95.1015 32.508Z" fill="#263238"/>
<path d="M95.4616 40.364C94.888 40.632 95.0284 40.932 96.1235 41.184C97.2187 41.436 101.772 41.512 101.611 43.096C101.451 44.68 95.0284 44.48 93.2352 43.92C91.442 43.36 88.7422 41.824 88.7422 41.824C90.0139 41.612 92.9985 40.808 95.4616 40.364Z" fill="#E06A6D"/>
<path d="M65.6999 38.752C65.6718 39.436 65.6076 40.132 65.5114 40.824C65.5114 40.796 65.5114 40.772 65.5394 40.748C65.6718 40.388 65.8042 40.02 65.9647 39.672C65.9647 39.672 66.0048 39.672 66.0008 39.672C65.9237 40.0533 65.8081 40.4259 65.6558 40.784C65.5836 40.956 65.5154 41.124 65.4391 41.292C65.391 41.6 65.3348 41.904 65.2747 42.208C65.1543 42.78 64.6128 45.212 64.4724 45.624C64.4483 45.708 64.344 45.688 64.352 45.592C64.3801 45.144 64.8334 42.612 64.9257 42.036C65.1049 40.9238 65.3446 39.8222 65.6437 38.736C65.6638 38.716 65.7039 38.732 65.6999 38.752Z" fill="#263238"/>
<path d="M61.5313 56.94C60.4602 57.488 59.0802 58.34 52.8622 57.12C52.4611 57.04 52.084 56.944 51.6909 56.828C45.862 55.084 38.8538 48.248 38.4727 47.764C38.4727 47.764 47.7354 32.792 59.5817 28.084C61.0459 27.504 63.4689 28.624 64.7967 30.02C65.2741 30.52 66.3131 34.196 65.916 37.172C65.5188 40.148 62.5984 56.392 61.5313 56.94Z" fill="#FFD801"/>
<path d="M60.6966 37.036C60.7413 37.6687 60.6525 38.3037 60.4358 38.9C60.3849 38.2671 60.4739 37.6308 60.6966 37.036Z" fill="white"/>
<path d="M56.6546 47.2319C56.6801 47.5468 56.6693 47.8635 56.6225 48.1759C56.5839 48.4907 56.5071 48.7996 56.3938 49.0959C56.3662 48.7798 56.377 48.4615 56.4259 48.1479C56.4669 47.8349 56.5436 47.5276 56.6546 47.2319Z" fill="white"/>
<path d="M49.7901 39.5239C49.8353 40.1579 49.7464 40.7943 49.5293 41.3919C49.4789 40.7578 49.5679 40.1203 49.7901 39.5239Z" fill="white"/>
<path d="M63.3382 46.7119C63.3638 47.0281 63.353 47.3462 63.3061 47.6599C63.2674 47.9747 63.1907 48.2836 63.0774 48.5799C63.0498 48.2638 63.0606 47.9455 63.1095 47.6319C63.1501 47.3175 63.2268 47.0088 63.3382 46.7119Z" fill="white"/>
<path d="M54.5273 38.204C54.843 38.1772 55.1606 38.1866 55.4741 38.232C55.7899 38.2719 56.0997 38.3498 56.3968 38.464C55.7622 38.5094 55.1252 38.4208 54.5273 38.204Z" fill="white"/>
<path d="M46.7344 45.568C47.3689 45.5234 48.0057 45.612 48.6038 45.828C47.9691 45.8787 47.3309 45.79 46.7344 45.568Z" fill="white"/>
<path d="M55.9141 53.54C56.5486 53.4946 57.1856 53.5832 57.7835 53.8C57.1488 53.85 56.5108 53.7612 55.9141 53.54Z" fill="white"/>
<path d="M44.332 50.6439C44.9665 50.5993 45.6034 50.6879 46.2014 50.9039C45.5667 50.9539 44.9288 50.8651 44.332 50.6439Z" fill="white"/>
<path d="M60.6367 29.8679C61.2712 29.8233 61.9081 29.9119 62.5061 30.1279C61.8716 30.1725 61.2348 30.0839 60.6367 29.8679Z" fill="white"/>
<path d="M58.3673 32.4199C58.1645 32.663 57.9328 32.8806 57.6773 33.0679C57.4288 33.2596 57.1597 33.4233 56.875 33.5559C57.0765 33.3144 57.3053 33.0969 57.557 32.9079C57.8079 32.7155 58.0797 32.5518 58.3673 32.4199Z" fill="white"/>
<path d="M46.0158 39.672C45.8106 39.913 45.5776 40.1291 45.3218 40.316C45.0758 40.5113 44.8063 40.6752 44.5195 40.804C44.7259 40.564 44.9587 40.348 45.2135 40.16C45.4602 39.9655 45.7296 39.8017 46.0158 39.672Z" fill="white"/>
<path d="M61.4417 42.944C61.2364 43.1862 61.0035 43.4037 60.7476 43.592C60.501 43.7864 60.2316 43.9503 59.9453 44.08C60.1505 43.8377 60.3834 43.6203 60.6393 43.432C60.8873 43.2395 61.1565 43.0757 61.4417 42.944Z" fill="white"/>
<path d="M51.4534 49.2159C51.2481 49.4582 51.0152 49.6757 50.7593 49.8639C50.5123 50.0578 50.243 50.2217 49.957 50.352C50.1622 50.1097 50.3952 49.8922 50.651 49.7039C50.899 49.5114 51.1682 49.3477 51.4534 49.2159Z" fill="white"/>
<path d="M65.2698 34.376C65.0645 34.6182 64.8316 34.8357 64.5757 35.024C64.3272 35.2157 64.0581 35.3793 63.7734 35.512C63.9787 35.2697 64.2116 35.0523 64.4674 34.864C64.7145 34.6701 64.9838 34.5063 65.2698 34.376Z" fill="white"/>
<path d="M65.0612 41.644C64.8182 41.4394 64.6001 41.2071 64.4113 40.952C64.216 40.7062 64.0517 40.4376 63.9219 40.152C64.1657 40.3542 64.3839 40.5852 64.5718 40.84C64.7634 41.0897 64.9275 41.3592 65.0612 41.644Z" fill="white"/>
<path d="M42.7955 46.6519C42.5526 46.4473 42.3345 46.215 42.1457 45.9599C41.9526 45.7126 41.7884 45.4442 41.6562 45.1599C41.8992 45.3645 42.1173 45.5968 42.3061 45.8519C42.5006 46.0982 42.6649 46.3668 42.7955 46.6519Z" fill="white"/>
<path d="M62.3502 52.608C62.1064 52.4058 61.8882 52.1748 61.7003 51.92C61.5081 51.6721 61.344 51.4038 61.2109 51.12C61.4539 51.3246 61.672 51.5569 61.8608 51.812C62.0544 52.0575 62.2187 52.3246 62.3502 52.608Z" fill="white"/>
<path d="M52.5534 35.628C52.3105 35.4248 52.0924 35.1939 51.9035 34.94C51.7121 34.6916 51.548 34.4234 51.4141 34.14C51.6579 34.3422 51.8761 34.5733 52.0639 34.828C52.2553 35.0764 52.4194 35.3446 52.5534 35.628Z" fill="white"/>
<path d="M52.7252 55.9999C52.4823 55.7953 52.2642 55.5631 52.0753 55.3079C51.8829 55.0602 51.7188 54.7919 51.5859 54.5079C51.8297 54.7102 52.048 54.9412 52.2358 55.1959C52.4289 55.4447 52.593 55.7144 52.7252 55.9999Z" fill="white"/>
<path d="M54.3892 43.9839C54.1485 43.7782 53.9319 43.546 53.7433 43.2919C53.5475 43.0466 53.3831 42.7779 53.2539 42.4919C53.4956 42.6966 53.7124 42.9289 53.8998 43.1839C54.0948 43.4299 54.2591 43.6985 54.3892 43.9839Z" fill="white"/>
<path d="M62.6247 34.0079C61.1123 33.7279 59.6922 30.6119 59.5117 28.5159C59.5117 28.3719 60.2178 27.2319 61.0241 25.8039C61.5135 24.9359 62.031 23.9559 62.4442 23.0279C62.5284 22.8399 63.0219 23.4759 63.0219 23.4759L64.097 24.2759L67.6472 26.9919C66.8018 28.0035 66.0837 29.1144 65.509 30.2999C65.4523 30.4284 65.4093 30.5625 65.3807 30.6999C65.3791 30.7226 65.3791 30.7453 65.3807 30.7679C65.16 31.5599 64.0809 34.2759 62.6247 34.0079Z" fill="#E06A6D"/>
<path d="M65.3827 30.72C65.3811 30.7426 65.3811 30.7653 65.3827 30.788C65.1719 30.7263 64.9666 30.6474 64.7689 30.552C60.8817 28.736 62.5947 23.5439 62.5947 23.5439L64.1191 24.2959L67.6693 27.012C66.8239 28.0235 66.1058 29.1344 65.5311 30.32C65.4675 30.4476 65.4178 30.5817 65.3827 30.72Z" fill="#263238"/>
<path d="M71.7266 15.9399C71.7266 15.9399 73.5037 17.0639 73.5117 19.0639C73.5197 21.0639 72.7094 23.0199 72.5409 23.0919C72.3724 23.1639 71.7266 15.9399 71.7266 15.9399Z" fill="#3D1E1F"/>
<path d="M62.9088 16.98C61.8417 19.08 61.8978 25.7 63.2297 27.404C65.1633 29.8759 68.886 30.728 71.1365 28.284C73.3148 25.916 73.0902 17.292 71.5377 15.684C69.2792 13.308 64.4893 13.872 62.9088 16.98Z" fill="#E06A6D"/>
<path d="M68.5746 22.28C68.5746 22.28 68.5385 22.304 68.5425 22.32C68.5666 22.772 68.5185 23.292 68.1133 23.452C68.1133 23.452 68.1133 23.48 68.1133 23.476C68.6147 23.396 68.6709 22.704 68.5746 22.28Z" fill="#263238"/>
<path d="M68.1606 21.8199C67.4304 21.7799 67.4064 23.2359 68.0843 23.2719C68.7623 23.3079 68.7703 21.8519 68.1606 21.8199Z" fill="#263238"/>
<path d="M71.0478 22.2639C71.0478 22.2639 71.0839 22.2639 71.0839 22.3039C71.0598 22.7559 71.112 23.2759 71.5211 23.4319C71.5211 23.4319 71.5211 23.4599 71.5211 23.4559C71.0157 23.3799 70.9555 22.6879 71.0478 22.2639Z" fill="#263238"/>
<path d="M71.4616 21.7999C72.1877 21.7559 72.2238 23.2119 71.5499 23.2519C70.8759 23.2919 70.8519 21.8359 71.4616 21.7999Z" fill="#263238"/>
<path d="M67.7026 20.712C67.8943 20.6576 68.0831 20.5936 68.2682 20.52C68.4789 20.482 68.6709 20.375 68.8138 20.216C68.8485 20.1578 68.863 20.0898 68.855 20.0226C68.847 19.9553 68.817 19.8926 68.7697 19.844C68.6611 19.7617 68.5325 19.7098 68.3971 19.6937C68.2617 19.6775 68.1244 19.6976 67.9994 19.752C67.7287 19.8243 67.4944 19.9938 67.3415 20.228C67.311 20.2837 67.2972 20.347 67.3016 20.4103C67.306 20.4737 67.3286 20.5344 67.3666 20.5853C67.4046 20.6363 67.4564 20.6753 67.516 20.6977C67.5755 20.7202 67.6403 20.7252 67.7026 20.712Z" fill="#263238"/>
<path d="M71.9584 21.3559C71.7632 21.3125 71.5704 21.259 71.3807 21.1959C71.1693 21.1681 70.9732 21.071 70.8231 20.9199C70.7844 20.8643 70.7658 20.7973 70.7702 20.7298C70.7745 20.6622 70.8017 20.5982 70.8472 20.548C70.9506 20.4598 71.076 20.401 71.2101 20.3777C71.3442 20.3545 71.4821 20.3677 71.6094 20.416C71.8838 20.4727 72.127 20.6296 72.2913 20.856C72.3257 20.9095 72.3437 20.9719 72.3432 21.0355C72.3426 21.0991 72.3236 21.1612 72.2883 21.2141C72.253 21.2671 72.203 21.3087 72.1445 21.3339C72.0859 21.3591 72.0212 21.3668 71.9584 21.3559Z" fill="#263238"/>
<path d="M67.5468 26.556C67.6552 26.664 67.7595 26.808 67.9239 26.824C68.0926 26.8239 68.2593 26.7885 68.4133 26.72C68.4133 26.72 68.4414 26.72 68.4133 26.744C68.3476 26.8319 68.2591 26.9003 68.1573 26.9419C68.0556 26.9835 67.9444 26.9966 67.8357 26.98C67.744 26.9551 67.6617 26.9039 67.599 26.8328C67.5362 26.7617 67.4958 26.6738 67.4826 26.58C67.4795 26.5715 67.4798 26.5621 67.4835 26.5538C67.4873 26.5456 67.4942 26.5392 67.5027 26.536C67.5112 26.5328 67.5207 26.5331 67.5289 26.5369C67.5372 26.5406 67.5436 26.5475 67.5468 26.556Z" fill="#263238"/>
<path d="M70.1706 24.628C70.1706 24.628 70.1907 25.3 70.1706 25.616C69.5542 25.5508 68.9317 25.5723 68.3213 25.68C68.1768 25.712 68.1929 25.596 68.3574 25.52C68.849 25.2959 69.3967 25.2235 69.9299 25.312C69.962 25.228 69.8778 24.272 69.9299 24.276C70.1726 24.3235 70.4075 24.4042 70.6279 24.516C70.6279 23.108 70.4033 21.716 70.4233 20.308C70.4233 20.26 70.4996 20.252 70.5076 20.308C70.7927 21.7975 70.9271 23.3117 70.9087 24.828C70.9127 25 70.2909 24.692 70.1706 24.628Z" fill="#263238"/>
<path d="M69.2693 25.376C69.1094 25.7954 68.8127 26.149 68.4269 26.38C67.8211 26.624 67.6245 26.076 68.2343 25.58C68.5541 25.4188 68.9121 25.3483 69.2693 25.376Z" fill="#263238"/>
<path d="M68.6375 26.2559C68.5734 26.3079 68.5017 26.3497 68.4249 26.3799C67.8673 26.6039 67.6466 26.1599 68.0959 25.7119C68.4008 25.7359 68.7498 25.8479 68.6375 26.2559Z" fill="#FF99BA"/>
<path d="M62.6055 22.64C63.3397 22.864 64.1821 20.664 64.4228 19.84C64.6314 19.096 64.8721 16.732 64.9082 16.568C64.9443 16.404 68.1175 18.66 69.9548 18.124C71.7921 17.588 73.0397 15.928 73.0678 15.156C73.0958 14.384 70.7972 12.424 68.8115 12.324C66.8257 12.224 64.134 14.724 64.134 14.724C64.4591 14.356 64.7542 13.9628 65.0165 13.548C64.9844 13.46 63.7007 13.972 63.464 14.884C63.464 14.884 63.7208 13.736 63.6245 13.716C63.5282 13.696 62.5293 14.676 62.754 15.42C62.754 15.42 61.5986 16.416 61.4943 17.508C61.39 18.6 61.743 22.376 62.6055 22.64Z" fill="#3D1E1F"/>
<path d="M71.2694 17.708C70.723 18.0034 70.1345 18.2138 69.5243 18.332C68.8395 18.3929 68.1502 18.2829 67.5186 18.012C66.8823 17.7669 66.2912 17.4182 65.7695 16.98C65.3082 16.604 64.895 16.144 64.4016 15.808C64.2772 15.72 64.1368 15.9 64.213 16.012C65.0362 17.1714 66.2122 18.0355 67.5667 18.476C68.1958 18.6805 68.8673 18.7187 69.5156 18.5869C70.1639 18.4551 70.7668 18.1578 71.2654 17.724C71.2654 17.724 71.2774 17.708 71.2694 17.708Z" fill="#263238"/>
<path d="M63.3696 22.444C63.3696 22.444 62.2303 20.14 61.2033 20.512C60.1763 20.884 60.8022 24.072 61.8572 24.656C61.9864 24.7393 62.1312 24.7958 62.2829 24.822C62.4345 24.8483 62.5899 24.8437 62.7398 24.8086C62.8896 24.7735 63.0308 24.7085 63.1549 24.6177C63.279 24.5269 63.3834 24.412 63.4618 24.28L63.3696 22.444Z" fill="#E06A6D"/>
<path d="M61.4091 21.4199C61.4091 21.4199 61.3851 21.4199 61.4091 21.4519C62.1392 21.8839 62.4361 22.6519 62.6126 23.4519C62.5794 23.3672 62.5281 23.2908 62.4623 23.2278C62.3965 23.1648 62.3178 23.1168 62.2316 23.0871C62.1454 23.0575 62.0537 23.0468 61.963 23.0559C61.8722 23.065 61.7845 23.0937 61.706 23.1399C61.6819 23.1399 61.706 23.1839 61.706 23.1839C61.8495 23.1617 61.9964 23.1843 62.1264 23.2488C62.2565 23.3133 62.3633 23.4164 62.4321 23.5439C62.5469 23.7575 62.6384 23.9828 62.7049 24.2159C62.7289 24.2919 62.8613 24.2719 62.8493 24.1879C63.0218 23.1919 62.4602 21.6839 61.4091 21.4199Z" fill="#263238"/>
<path d="M55.8488 32.732C55.0464 37.264 59.9727 52.532 63.1298 55.384C67.8274 59.624 76.5125 62.412 79.6616 63.32C81.0335 63.72 84.8285 54.092 83.4405 53.456C80.4679 52.108 71.2332 49.228 70.3547 48.508C69.4761 47.788 64.1808 40.16 61.822 35.768C58.6649 29.856 56.2459 30.44 55.8488 32.732Z" fill="#E06A6D"/>
<path d="M81.1039 52.6079C81.1039 52.6079 85.2038 53.6519 87.8474 54.4559C89.3237 54.9079 91.7868 55.9039 92.7215 56.7279C94.1175 57.9639 99.1641 64.0119 97.7199 65.2639C96.4121 66.3999 92.7375 60.6519 92.7375 60.6519C92.7375 60.6519 96.9577 66.1239 95.1445 67.1999C93.3312 68.2759 90.0137 61.2319 90.0137 61.2319C90.0137 61.2319 94.2218 66.9519 92.1639 67.7639C90.6074 68.3759 87.2697 62.1639 87.2697 62.1639C87.2697 62.1639 90.8561 67.1039 89.2755 67.8039C87.5345 68.5799 84.0966 63.0359 84.0966 63.0359C79.7961 64.1439 77.2769 62.9159 75.6201 61.8359C75.231 61.5719 81.1039 52.6079 81.1039 52.6079Z" fill="#E06A6D"/>
<path d="M91.3945 58.664C91.916 59.288 92.4456 59.92 92.9069 60.588C93.3682 61.256 93.8055 61.944 94.2026 62.652C94.7407 63.5677 95.1715 64.5421 95.4864 65.556C94.7964 63.796 93.1797 61.376 92.7184 60.708C92.257 60.04 91.8278 59.348 91.3705 58.68C91.3584 58.664 91.3825 58.648 91.3945 58.664Z" fill="#263238"/>
<path d="M88.9456 60.284C89.8362 60.988 91.7016 63.604 92.4197 65.36C92.4518 65.432 92.4197 65.428 92.3675 65.36C91.8059 64.492 89.5273 61.132 88.9256 60.296C88.9136 60.284 88.9336 60.272 88.9456 60.284Z" fill="#263238"/>
<path d="M86.5911 61.3079C87.6976 62.4652 88.5718 63.8229 89.1665 65.3079C89.1946 65.3799 89.1384 65.3679 89.0943 65.3079C88.2639 63.9599 87.6221 62.9079 86.5469 61.3439C86.5309 61.3079 86.567 61.2719 86.5911 61.3079Z" fill="#263238"/>
<path d="M60.3264 33.064C56.6638 27.9 54.4735 29.812 55.2076 35.42C55.8976 40.664 57.739 46.912 57.739 46.912L66.9656 42.448C66.9656 42.448 62.6572 36.372 60.3264 33.064Z" fill="#FFD801"/>
<path d="M62.5525 35.0959C62.6741 35.3876 62.7616 35.6923 62.8133 36.0039C62.8696 36.3166 62.8898 36.6347 62.8734 36.9519C62.7531 36.6588 62.667 36.3527 62.6167 36.0399C62.557 35.729 62.5355 35.412 62.5525 35.0959Z" fill="white"/>
<path d="M57.0859 38.236C57.6747 37.9972 58.3083 37.8881 58.9433 37.916C58.6507 38.036 58.3451 38.1219 58.0327 38.172C57.7209 38.2314 57.403 38.2529 57.0859 38.236Z" fill="white"/>
<path d="M57.3215 30.204C57.0731 30.7886 56.7025 31.3136 56.2344 31.744C56.4828 31.1594 56.8534 30.6344 57.3215 30.204Z" fill="white"/>
<path d="M65.1418 40.6479C65.02 40.9405 64.8653 41.2183 64.6805 41.4759C64.5006 41.7369 64.2905 41.9759 64.0547 42.188C64.3031 41.6034 64.6737 41.0784 65.1418 40.6479Z" fill="white"/>
<path d="M58.7203 43.7799C58.4262 43.6599 58.1474 43.5055 57.8899 43.3199C57.628 43.1407 57.3884 42.9312 57.1758 42.6959C57.7621 42.9436 58.2886 43.3132 58.7203 43.7799Z" fill="white"/>
<path d="M61.5281 34.62C62.0215 35.296 62.531 35.956 63.0364 36.62C62.9081 36.284 62.7957 35.944 62.6995 35.6H62.7235C62.8238 35.864 62.9402 36.124 63.0364 36.4L63.1809 36.8C63.1933 36.8273 63.204 36.8554 63.213 36.884C63.6141 37.4 64.0153 37.916 64.3843 38.444C64.8377 39.076 65.2749 39.716 65.7162 40.356C66.1575 40.996 66.6028 41.792 67.0801 42.436C67.1243 42.492 66.2778 42.836 66.1856 42.88C66.0933 42.924 66.0451 42.848 66.1334 42.82C66.2217 42.792 66.8956 42.38 66.9036 42.372C66.4623 41.724 65.9529 41.128 65.4915 40.5C65.0302 39.872 64.5729 39.244 64.1276 38.608C63.225 37.312 62.3986 35.968 61.5 34.668L61.5281 34.62Z" fill="#263238"/>
<path d="M55.4237 39.132C55.5641 39.404 55.7165 39.672 55.8248 39.952L55.9773 40.2999C55.7647 39.3039 55.5761 38.3 55.3555 37.304C55.7807 38.904 56.2099 40.54 56.6031 42.1639C56.9762 43.7159 57.4295 45.2839 57.6461 46.8679C57.9258 46.7456 58.2158 46.6479 58.5126 46.5759C58.2147 46.7682 57.894 46.9227 57.5578 47.0359C57.0743 45.4252 56.6726 43.7911 56.3544 42.14C56.2541 41.692 56.1618 41.244 56.0655 40.796C55.9612 40.524 55.8369 40.264 55.7125 39.996C55.5881 39.728 55.4758 39.4279 55.3635 39.144C55.3876 39.128 55.4156 39.112 55.4237 39.132Z" fill="#263238"/>
<path d="M57.8753 45.368C59.159 44.648 64.5225 41.88 65.722 41.368C65.8062 41.332 65.8504 41.368 65.7661 41.424C63.2202 42.899 60.5954 44.2344 57.9034 45.424C57.8713 45.432 57.8392 45.388 57.8753 45.368Z" fill="#263238"/>
<path d="M204.874 150.528H82.6484L100.32 50.5879H222.545L204.874 150.528Z" fill="#FFD801"/>
<path d="M142.153 40.236H102.154L100.32 50.588H143.128L142.153 40.236Z" fill="#FFD801"/>
<g opacity="0.1">
<path d="M204.874 150.528H82.6484L100.32 50.5879H222.545L204.874 150.528Z" fill="#212221"/>
<path d="M142.153 40.236H102.154L100.32 50.588H143.128L142.153 40.236Z" fill="#212221"/>
</g>
<path d="M97.8373 44.46C97.5698 43.3153 97.5698 42.1247 97.8373 40.98C98.1048 42.1247 98.1048 43.3153 97.8373 44.46Z" fill="#263238"/>
<path d="M94.2803 45.4839C93.8719 45.0616 93.5199 44.5884 93.2333 44.0759C92.9326 43.5742 92.6968 43.0366 92.5312 42.476C92.9409 42.8958 93.293 43.3679 93.5783 43.8799C93.8783 44.3834 94.1141 44.9223 94.2803 45.4839Z" fill="#263238"/>
<path d="M91.716 48.1439C90.5888 47.8022 89.5553 47.2069 88.6953 46.4039C89.2577 46.5669 89.7969 46.8008 90.2999 47.0999C90.8139 47.3876 91.2896 47.7383 91.716 48.1439Z" fill="#263238"/>
<path d="M90.8143 51.728C89.6663 51.9947 88.4722 51.9947 87.3242 51.728C88.4722 51.4613 89.6663 51.4613 90.8143 51.728Z" fill="#263238"/>
<path d="M91.8605 55.272C91.4351 55.6771 90.9608 56.0278 90.4484 56.316C89.9454 56.6151 89.4061 56.849 88.8438 57.012C89.2673 56.6047 89.7419 56.2538 90.2558 55.968C90.7581 55.6674 91.2975 55.4335 91.8605 55.272Z" fill="#263238"/>
<path d="M94.5224 57.828C94.1809 58.9537 93.5837 59.9857 92.7773 60.844C92.9407 60.2825 93.1767 59.7447 93.4794 59.244C93.7653 58.7298 94.1158 58.2539 94.5224 57.828Z" fill="#263238"/>
<path d="M98.1157 58.7119C98.2556 59.2812 98.323 59.8658 98.3163 60.4519C98.325 61.0381 98.2575 61.623 98.1157 62.1919C97.972 61.6233 97.9045 61.0382 97.9151 60.4519C97.9085 59.8658 97.9759 59.2812 98.1157 58.7119Z" fill="#263238"/>
<path d="M101.672 57.708C102.08 58.1303 102.432 58.6036 102.719 59.116C103.02 59.6168 103.255 60.1546 103.417 60.716C102.611 59.8577 102.013 58.8256 101.672 57.7V57.708Z" fill="#263238"/>
<path d="M104.234 55.028C104.797 55.1894 105.337 55.4234 105.839 55.7239C106.353 56.0097 106.828 56.3607 107.251 56.7679C106.688 56.6065 106.149 56.3725 105.646 56.072C105.133 55.7862 104.658 55.4352 104.234 55.028Z" fill="#263238"/>
<path d="M105.121 51.444C106.27 51.1774 107.466 51.1774 108.615 51.444C107.466 51.7106 106.27 51.7106 105.121 51.444Z" fill="#263238"/>
<path d="M104.094 47.8999C104.519 47.4951 104.993 47.1456 105.506 46.8599C106.007 46.5565 106.547 46.3211 107.111 46.1599C106.25 46.964 105.215 47.5594 104.086 47.8999H104.094Z" fill="#263238"/>
<path d="M101.426 45.3439C101.591 44.7838 101.825 44.2463 102.124 43.7439C102.41 43.2315 102.762 42.7583 103.171 42.3359C103.009 42.8973 102.774 43.4351 102.473 43.9359C102.186 44.4484 101.834 44.9216 101.426 45.3439Z" fill="#263238"/>
<path d="M204.693 150.528H82.2068L64.8125 54.2159H187.303L204.693 150.528Z" fill="#FFD801"/>
<path d="M107.259 113.092C110.07 113.092 112.349 110.819 112.349 108.016C112.349 105.213 110.07 102.94 107.259 102.94C104.447 102.94 102.168 105.213 102.168 108.016C102.168 110.819 104.447 113.092 107.259 113.092Z" fill="#263238" fill-opacity="0.5"/>
<path d="M147.505 113.092C150.316 113.092 152.595 110.819 152.595 108.016C152.595 105.213 150.316 102.94 147.505 102.94C144.693 102.94 142.414 105.213 142.414 108.016C142.414 110.819 144.693 113.092 147.505 113.092Z" fill="#263238" fill-opacity="0.5"/>
<rect x="117.156" y="120.317" width="20" height="1.73914" fill="#263238" fill-opacity="0.5"/>
</svg>
