<svg width="70" height="70" viewBox="0 0 70 70" fill="none" xmlns="http://www.w3.org/2000/svg">
<ellipse cx="35" cy="35" rx="35" ry="35" fill="url(#paint0_linear_124_202)"/>
<path d="M22.75 24.15L24.7 22.85L25.9 23.45L29.4 19.95L31.5 21.7L26.25 26.6H24.5L22.75 24.15Z" fill="#F5DE5D"/>
<path d="M30.7999 45.15V39.9H32.8999L33.9499 40.95L33.2499 43.05L33.5999 44.8L32.5499 45.15L33.5999 47.25L32.1999 47.95L33.2499 49.7L32.1999 51.1H28.6999L27.6499 50.05L28.3499 48.3L27.6499 47.25L28.3499 45.5L30.7999 45.15Z" fill="#F5DE5D"/>
<path d="M38.8495 45.15V39.9H36.7495L35.6995 40.95L36.3995 43.05L36.0495 44.8L37.0995 45.15L36.0495 47.25L37.4495 47.95L36.3995 49.7L37.4495 51.1H40.9495L41.9995 50.05L41.2995 48.3L41.9995 47.25L41.2995 45.5L38.8495 45.15Z" fill="#F5DE5D"/>
<path d="M25.8998 36.4L25.5498 30.1H28.3498L28.6998 36.4H25.8998Z" fill="#F5DE5D"/>
<path d="M16.6583 40.684H19.8652C19.9712 40.684 20.0749 40.6535 20.1642 40.5963L22.2005 39.2891C22.4578 39.1239 22.5326 38.7814 22.3674 38.524C22.2022 38.2666 21.8598 38.192 21.6025 38.3571L19.7028 39.5766H16.6583C16.3526 39.5766 16.1047 39.8245 16.1047 40.1303C16.1047 40.4361 16.3526 40.684 16.6583 40.684V40.684Z" fill="#595959"/>
<path d="M34.4615 41.2116C34.4615 40.1224 33.5753 39.2362 32.4861 39.2362H31.3798V38.8229C31.3798 37.4326 30.3104 36.2881 28.9511 36.1671V30.3595C29.8353 30.1191 30.6685 29.7114 31.4161 29.1451C31.6599 28.9605 31.7078 28.6133 31.5232 28.3696C31.3386 28.1259 30.9913 28.0778 30.7476 28.2625C29.6726 29.0767 28.39 29.5071 27.0383 29.5071C23.6473 29.5071 20.8884 26.7482 20.8884 23.3572C20.8884 19.9661 23.6473 17.2073 27.0383 17.2073C30.4294 17.2073 33.1882 19.9661 33.1882 23.3572C33.1882 24.534 32.8549 25.6776 32.2241 26.6644C32.0594 26.922 32.1348 27.2643 32.3924 27.4289C32.6501 27.5935 32.9924 27.5182 33.157 27.2606C33.9017 26.0955 34.2954 24.7457 34.2954 23.3572C34.2953 19.3556 31.0398 16.1001 27.0382 16.1001C23.0366 16.1001 19.7811 19.3556 19.7811 23.3572C19.7811 26.672 22.0149 29.4747 25.0562 30.3392V36.3073C24.7349 36.4034 24.4268 36.5443 24.1409 36.7278L23.5959 37.0776C23.3386 37.2427 23.2638 37.5852 23.429 37.8425C23.5942 38.1 23.9368 38.1746 24.1939 38.0094L24.739 37.6596C25.1432 37.4002 25.6106 37.2631 26.0908 37.2631H28.7128C29.5728 37.2631 30.2725 37.9628 30.2725 38.8228V43.9929C30.2725 44.4997 29.8602 44.9121 29.3534 44.9121C28.8466 44.9121 28.4342 44.4998 28.4342 43.9929V41.8188C28.4342 41.5593 28.254 41.3346 28.0006 41.2783C27.7472 41.2219 27.4887 41.3494 27.379 41.5846C26.7513 42.9291 25.3398 43.7129 23.8667 43.5346L22.9938 43.429C22.6902 43.392 22.4144 43.6087 22.3777 43.9121C22.341 44.2156 22.5573 44.4915 22.8608 44.5282L23.7337 44.6337C24.1829 44.688 24.6274 44.6732 25.0562 44.5989V50.1397H22.7608C22.312 50.1397 21.8669 50.0256 21.4734 49.8099L18.8186 48.3545C18.737 48.3097 18.6455 48.2863 18.5525 48.2863H16.6581C16.3524 48.2863 16.1045 48.5342 16.1045 48.8399C16.1045 49.1457 16.3524 49.3936 16.6581 49.3936H18.4106L20.9411 50.7809C21.4973 51.0858 22.1265 51.247 22.7608 51.247H25.0563V53.3463C25.0563 53.652 25.3041 53.8999 25.6099 53.8999C25.9156 53.8999 26.1635 53.652 26.1635 53.3463V44.2568C26.5874 44.0629 26.9805 43.8049 27.3271 43.4891V43.993C27.3271 44.5357 27.5424 45.0285 27.8912 45.3926C27.4635 45.7551 27.191 46.2953 27.191 46.8986C27.191 47.4566 27.4242 47.9604 27.7976 48.3199C27.4241 48.6795 27.191 49.1839 27.191 49.7421C27.191 50.3231 27.4432 50.8462 27.8439 51.208V53.3463C27.8439 53.6521 28.0917 53.9 28.3975 53.9C28.7032 53.9 28.9511 53.6521 28.9511 53.3463V51.7055C29.0218 51.7132 29.0936 51.7175 29.1664 51.7175H31.6023C32.6915 51.7175 33.5777 50.8313 33.5777 49.7421C33.5777 49.2592 33.403 48.8168 33.114 48.4733C33.5906 48.1125 33.8993 47.5411 33.8993 46.8986C33.8993 46.4311 33.7353 46.0015 33.4627 45.6629C33.9648 45.3045 34.2928 44.7176 34.2928 44.0551C34.2928 43.5374 34.0924 43.0659 33.7655 42.7134C34.1905 42.3509 34.4615 41.8128 34.4615 41.2116V41.2116ZM26.1634 36.1559V30.5615C26.4502 30.5961 26.7421 30.6144 27.0382 30.6144C27.3094 30.6144 27.5781 30.5985 27.8438 30.5694V36.1559H26.1634ZM29.1663 46.0305H31.9238C32.4025 46.0305 32.792 46.4199 32.792 46.8986C32.792 47.3773 32.4025 47.7667 31.9238 47.7667H29.1663C28.6877 47.7667 28.2982 47.3773 28.2982 46.8986C28.2981 46.4199 28.6876 46.0305 29.1663 46.0305ZM31.6022 50.6102H29.1663C28.6876 50.6102 28.2981 50.2208 28.2981 49.7421C28.2981 49.2634 28.6876 48.874 29.1663 48.874H31.6022C32.0809 48.874 32.4703 49.2634 32.4703 49.7421C32.4703 50.2208 32.0809 50.6102 31.6022 50.6102ZM32.3173 44.9232H31.1524C31.2975 44.6445 31.3798 44.3283 31.3798 43.993V43.187H32.3173C32.796 43.187 33.1854 43.5764 33.1854 44.0551C33.1854 44.5338 32.796 44.9232 32.3173 44.9232V44.9232ZM32.4861 42.0797H31.3798V40.3435H32.4861C32.9648 40.3435 33.3542 40.7329 33.3542 41.2116C33.3542 41.6903 32.9648 42.0797 32.4861 42.0797V42.0797Z" fill="#595959"/>
<path d="M53.2314 48.2864H51.4109C51.3179 48.2864 51.2264 48.3098 51.1448 48.3545L48.49 49.81C48.0965 50.0257 47.6514 50.1398 47.2027 50.1398H44.9072V44.5991C45.336 44.6734 45.7805 44.6882 46.2296 44.6338L47.1025 44.5282C47.406 44.4914 47.6223 44.2157 47.5856 43.9121C47.5489 43.6086 47.2734 43.3923 46.9696 43.429L46.0967 43.5346C44.6233 43.7125 43.2121 42.9291 42.5844 41.5846C42.4745 41.3494 42.2162 41.2222 41.9628 41.2783C41.7094 41.3346 41.5291 41.5593 41.5291 41.8188V43.9929C41.5291 44.4997 41.1168 44.9121 40.61 44.9121C40.1031 44.9121 39.6908 44.4998 39.6908 43.9929V38.8228C39.6908 37.9628 40.3905 37.2631 41.2505 37.2631H43.8726C44.3527 37.2631 44.8202 37.4002 45.2243 37.6596L49.7994 40.5958C49.8886 40.6531 49.9924 40.6835 50.0984 40.6835H53.2314C53.5372 40.6835 53.785 40.4357 53.785 40.1299C53.785 39.8242 53.5372 39.5763 53.2314 39.5763H50.2608L45.8225 36.7278C45.5365 36.5443 45.2285 36.4035 44.9072 36.3073V34.7682C47.9485 33.9036 50.1823 31.1009 50.1823 27.7861C50.1823 26.3834 49.7809 25.0217 49.0216 23.8483C48.8555 23.5917 48.5128 23.5183 48.2561 23.6843C47.9993 23.8504 47.926 24.1932 48.0921 24.4498C48.7351 25.4435 49.075 26.5972 49.075 27.7861C49.075 31.1771 46.3161 33.936 42.9251 33.936C39.534 33.936 36.7752 31.1771 36.7752 27.7861C36.7752 24.395 39.534 21.6362 42.9251 21.6362C44.2682 21.6362 45.544 22.0613 46.6149 22.8657C46.8593 23.0493 47.2064 23 47.39 22.7556C47.5737 22.5111 47.5243 22.164 47.2799 21.9804C46.0159 21.0308 44.51 20.5289 42.9252 20.5289C38.9236 20.5289 35.668 23.7845 35.668 27.7861C35.668 31.1258 37.9359 33.9453 41.0123 34.7869V36.1671C39.653 36.2881 38.5836 37.4327 38.5836 38.8229V39.2362H37.4773C36.3881 39.2362 35.502 40.1224 35.502 41.2116C35.502 41.813 35.773 42.3513 36.1983 42.7137C35.8714 43.0663 35.6708 43.5375 35.6708 44.0551C35.6708 44.7174 35.9986 45.3041 36.5003 45.6627C36.2278 46.0013 36.0643 46.4311 36.0643 46.8986C36.0643 47.5415 36.3733 48.1129 36.8503 48.4738C36.5613 48.8171 36.386 49.2591 36.386 49.7421C36.386 50.8313 37.2721 51.7175 38.3613 51.7175H40.7972C40.87 51.7175 40.9417 51.7132 41.0125 51.7055V53.3464C41.0125 53.6521 41.2604 53.9 41.5661 53.9C41.8719 53.9 42.1198 53.6521 42.1198 53.3464V51.208C42.5204 50.8462 42.7727 50.3231 42.7727 49.7421C42.7727 49.1841 42.5393 48.6803 42.166 48.3207C42.5395 47.9611 42.7727 47.4567 42.7727 46.8986C42.7727 46.2956 42.5008 45.7552 42.0736 45.3926C42.422 45.0286 42.6366 44.5354 42.6366 43.993V43.4892C42.9832 43.8048 43.3763 44.0629 43.8002 44.2568V53.3464C43.8002 53.6521 44.0481 53.9 44.3538 53.9C44.6596 53.9 44.9075 53.6521 44.9075 53.3464V51.2471H47.203C47.8372 51.2471 48.4664 51.0858 49.0226 50.781L51.5531 49.3936H53.2318C53.5375 49.3936 53.7854 49.1458 53.7854 48.84C53.7854 48.5343 53.5372 48.2864 53.2314 48.2864V48.2864ZM42.9252 35.0432C43.2212 35.0432 43.5131 35.025 43.7999 34.9903V36.1559H42.1195V34.9982C42.3842 35.0276 42.6529 35.0432 42.9252 35.0432ZM40.7971 47.7667H38.0396C37.5609 47.7667 37.1714 47.3772 37.1714 46.8985C37.1714 46.4199 37.5609 46.0304 38.0396 46.0304H40.7971C41.2758 46.0304 41.6652 46.4199 41.6652 46.8985C41.6652 47.3772 41.2758 47.7667 40.7971 47.7667ZM37.6461 44.9232C37.1674 44.9232 36.7779 44.5337 36.7779 44.055C36.7779 43.5764 37.1674 43.1869 37.6461 43.1869H38.5836V43.9929C38.5836 44.3282 38.6661 44.6444 38.8109 44.9232H38.0395H37.6461ZM37.4773 40.3434H38.5836V42.0797H37.4773C36.9986 42.0797 36.6092 41.6902 36.6092 41.2115C36.6091 40.7328 36.9986 40.3434 37.4773 40.3434V40.3434ZM38.3612 50.6102C37.8825 50.6102 37.493 50.2207 37.493 49.742C37.493 49.2634 37.8825 48.8739 38.3612 48.8739H40.7971C41.2758 48.8739 41.6652 49.2634 41.6652 49.742C41.6652 50.2207 41.2758 50.6102 40.7971 50.6102H38.3612Z" fill="#595959"/>
<path d="M38.8835 30.5844L40.1273 31.8282C40.5062 32.207 41.1227 32.207 41.5015 31.8282L42.9256 30.4041L44.3497 31.8282C44.5391 32.0176 44.788 32.1124 45.0369 32.1124C45.2857 32.1124 45.5345 32.0177 45.7239 31.8282L46.9677 30.5844C47.3466 30.2055 47.3466 29.5891 46.9677 29.2102L45.5436 27.7861L46.9678 26.362C47.3466 25.9831 47.3466 25.3667 46.9678 24.9878L45.7241 23.7441C45.5406 23.5605 45.2966 23.4594 45.037 23.4594C44.7773 23.4594 44.5333 23.5606 44.3498 23.7441L42.9257 25.1682L41.5017 23.7441C41.3182 23.5606 41.0741 23.4595 40.8145 23.4595C40.555 23.4595 40.311 23.5606 40.1274 23.7441L38.8837 24.9878C38.5048 25.3667 38.5048 25.9831 38.8837 26.3621L40.3078 27.7862L38.8837 29.2103C38.5046 29.5891 38.5046 30.2055 38.8835 30.5844V30.5844ZM41.4819 28.1775C41.6982 27.9613 41.6982 27.6108 41.4819 27.3947L39.7622 25.6749L40.8143 24.6228L42.534 26.3426C42.7502 26.5588 43.1007 26.5588 43.3169 26.3426L45.0367 24.6228L46.0888 25.6749L44.369 27.3947C44.2651 27.4984 44.2068 27.6393 44.2068 27.7861C44.2068 27.9329 44.2651 28.0738 44.369 28.1775L46.0887 29.8973L45.0367 30.9494L43.3169 29.2296C43.2131 29.1258 43.0723 29.0675 42.9255 29.0675C42.7787 29.0675 42.6378 29.1258 42.534 29.2296L40.8143 30.9494L39.7622 29.8974L41.4819 28.1775Z" fill="#595959"/>
<path d="M29.762 19.4282C29.5563 19.4257 29.3578 19.5055 29.2103 19.6526L25.7128 23.1371L25.111 22.3791C24.8928 22.1044 24.489 22.0546 24.2111 22.2683L22.3673 23.6832C22.231 23.7878 22.1406 23.9456 22.1194 24.116C22.0981 24.2864 22.1468 24.4616 22.2532 24.5965L24.1227 26.9681C24.1625 27.0191 24.2064 27.0688 24.2568 27.1204C24.3609 27.2265 24.5034 27.2864 24.6521 27.2864H26.4443C26.5907 27.2864 26.7313 27.2283 26.835 27.1249L31.7361 22.2418C32.0313 21.9478 32.0366 21.4641 31.748 21.1636L30.3086 19.6647C30.1643 19.5145 29.9702 19.4305 29.762 19.4282V19.4282ZM26.2155 26.1791H24.9106L23.4116 24.2774L24.5258 23.4224L25.2311 24.3109C25.3291 24.4343 25.4751 24.5102 25.6325 24.5193C25.7901 24.5284 25.9437 24.4701 26.0554 24.3589L29.7482 20.6796L30.7198 21.6913L26.2155 26.1791Z" fill="#595959"/>
<defs>
<linearGradient id="paint0_linear_124_202" x1="35" y1="0" x2="35" y2="70" gradientUnits="userSpaceOnUse">
<stop stop-color="#F5F5F5"/>
<stop offset="1" stop-color="#F5F5F5" stop-opacity="0"/>
</linearGradient>
</defs>
</svg>
