<svg width="70" height="70" viewBox="0 0 70 70" fill="none" xmlns="http://www.w3.org/2000/svg">
<ellipse cx="35" cy="35" rx="35" ry="35" fill="url(#paint0_linear_124_201)"/>
<path d="M49.3503 29.75H41.6503V35.35L39.5503 37.1L38.8503 41.3L40.2503 42L40.6003 49H42.7003L43.4003 50.4H44.8003L45.8503 49H47.2503L48.3003 47.95H49.3503L50.7503 47.25V39.55L49.3503 35.35V29.75Z" fill="#F5DE5D"/>
<path d="M28.0006 40.6001H21.0006V35.0001L19.6006 32.5501V22.4002L21.3506 22.0502L22.4006 21.0002L24.5006 20.6502L25.9006 19.2502L27.6506 20.6502H29.4006L29.7506 28.0001L30.8006 28.7001L30.4506 32.5501L28.0006 35.0001V40.6001Z" fill="#F5DE5D"/>
<path d="M51.0999 25.818C51.0999 24.9492 50.5093 24.216 49.7087 23.9978C49.7945 23.7824 49.8421 23.548 49.8421 23.3024C49.8421 22.4335 49.2515 21.7004 48.4509 21.4821C48.5367 21.2668 48.5843 21.0323 48.5843 20.7867C48.5843 19.7464 47.7379 18.9 46.6975 18.9H39.9179C38.5095 18.9 37.0865 19.2357 35.8003 19.8721L35.2288 20.1578H28.3335C28.088 20.1578 27.8534 20.2055 27.6381 20.2912C27.4199 19.4906 26.6867 18.9 25.8179 18.9C24.949 18.9 24.2159 19.4906 23.9976 20.2912C23.7823 20.2055 23.5478 20.1578 23.3022 20.1578C22.4334 20.1578 21.7002 20.7484 21.482 21.549C21.2667 21.4633 21.0321 21.4157 20.7866 21.4157C19.7463 21.4157 18.8999 22.262 18.8999 23.3024V30.082C18.8999 32.7329 20.0405 34.4653 20.1577 34.7712V41.6664C20.1577 41.912 20.2054 42.1465 20.2911 42.3618C19.4904 42.58 18.8999 43.3132 18.8999 44.1821C18.8999 45.0509 19.4904 45.7841 20.2911 46.0023C20.2054 46.2176 20.1577 46.4522 20.1577 46.6977C20.1577 47.5665 20.7483 48.2997 21.5489 48.5179C21.4632 48.7333 21.4155 48.9678 21.4155 49.2133C21.4155 50.2536 22.2619 51.1 23.3022 51.1H24.8178C25.1652 51.1 25.4468 50.8185 25.4468 50.4711C25.4468 50.1238 25.1652 49.8422 24.8178 49.8422H23.3022C22.9555 49.8422 22.6733 49.5601 22.6733 49.2133C22.6733 48.8665 22.9555 48.5844 23.3022 48.5844H24.5601C24.9074 48.5844 25.189 48.3028 25.189 47.9555C25.189 47.6082 24.9074 47.3266 24.5601 47.3266C23.6802 47.3266 22.9243 47.3266 22.0444 47.3266C21.6977 47.3266 21.4155 47.0445 21.4155 46.6977C21.4155 46.3509 21.6977 46.0688 22.0444 46.0688H24.5601C24.9074 46.0688 25.189 45.7872 25.189 45.4399C25.189 45.0925 24.9074 44.811 24.5601 44.811C23.9878 44.811 21.7785 44.811 20.7866 44.811C20.4398 44.811 20.1577 44.5288 20.1577 44.1821C20.1577 43.8353 20.4398 43.5532 20.7866 43.5532H24.5601C24.9074 43.5532 25.189 43.2716 25.189 42.9242C25.189 42.5769 24.9074 42.2953 24.5601 42.2953H22.0444C21.6977 42.2953 21.4155 42.0132 21.4155 41.6664C21.4155 41.3197 21.6977 41.0375 22.0444 41.0375H28.3335C28.6808 41.0375 28.9624 40.756 28.9624 40.4086V39.7797H30.5472C32.0508 39.7797 33.3965 40.6097 34.0591 41.9459C34.1653 42.1599 34.3836 42.2953 34.6226 42.2953H39.7796V47.9555C39.7796 48.176 39.8179 48.3876 39.8878 48.5844H35.8804C35.7827 48.5844 35.6864 48.6071 35.5991 48.6508L34.8971 49.0018C33.7858 49.5516 32.5557 49.8422 31.3397 49.8422H30.4656C30.1183 49.8422 29.8367 50.1238 29.8367 50.4711C29.8367 50.8185 30.1183 51.1 30.4656 51.1H31.3397C32.7481 51.1 34.1711 50.7643 35.4572 50.128L36.0288 49.8422H41.6663C41.9118 49.8422 42.1463 49.7945 42.3617 49.7088C42.58 50.5095 43.3131 51.1 44.1819 51.1C45.0508 51.1 45.7839 50.5095 46.0022 49.7088C46.2176 49.7945 46.452 49.8422 46.6975 49.8422C47.5664 49.8422 48.2996 49.2517 48.5178 48.451C48.7332 48.5367 48.9676 48.5844 49.2132 48.5844C50.2535 48.5844 51.0999 47.738 51.0999 46.6977V39.1508C51.0999 39.0552 51.0779 38.965 51.0398 38.8839C50.9173 37.8216 50.6085 36.772 50.1279 35.8005L49.8421 35.2289V28.3336C49.8421 28.0881 49.7944 27.8536 49.7087 27.6382C50.5094 27.42 51.0999 26.6869 51.0999 25.818V25.818ZM27.7046 39.7797H22.0444C21.8239 39.7797 21.6124 39.8181 21.4155 39.8879V34.6227C21.4155 34.5251 21.3928 34.4288 21.3491 34.3414C21.2062 33.9763 20.1577 32.4347 20.1577 30.082V23.3024C20.1577 22.9556 20.4398 22.6735 20.7866 22.6735C21.1334 22.6735 21.4155 22.9556 21.4155 23.3024V24.5602C21.4155 24.9075 21.6971 25.1891 22.0444 25.1891C22.3918 25.1891 22.6733 24.9075 22.6733 24.5602V22.0446C22.6733 21.6978 22.9555 21.4157 23.3022 21.4157C23.649 21.4157 23.9312 21.6978 23.9312 22.0446V24.5602C23.9312 24.9075 24.2127 25.1891 24.5601 25.1891C24.9074 25.1891 25.189 24.9075 25.189 24.5602C25.189 23.9879 25.189 21.7787 25.189 20.7867C25.189 20.44 25.4711 20.1578 25.8179 20.1578C26.1646 20.1578 26.4468 20.44 26.4468 20.7867V24.5602C26.4468 24.9075 26.7283 25.1891 27.0757 25.1891C27.423 25.1891 27.7046 24.9075 27.7046 24.5602V22.0446C27.7046 21.6978 27.9867 21.4157 28.3335 21.4157C28.6803 21.4157 28.9624 21.6978 28.9624 22.0446V28.3336C28.9624 28.681 29.244 28.9625 29.5913 28.9625H30.2202V30.5474C30.2202 32.0281 29.3699 33.4066 28.0541 34.0592C27.84 34.1655 27.7046 34.3838 27.7046 34.6227V39.7797ZM30.5472 38.5219H28.9624V34.996C30.5237 34.0681 31.478 32.3978 31.478 30.5474V28.9625H35.004C35.9318 30.5238 37.6021 31.4782 39.4525 31.4782H41.0374V35.0041C39.4761 35.9319 38.5218 37.6022 38.5218 39.4527V41.0375H34.9959C34.068 39.4763 32.3977 38.5219 30.5472 38.5219ZM49.8421 46.6977C49.8421 47.0445 49.5599 47.3266 49.2132 47.3266C48.8664 47.3266 48.5843 47.0445 48.5843 46.6977V45.4399C48.5843 45.0925 48.3026 44.811 47.9554 44.811C47.6081 44.811 47.3265 45.0925 47.3265 45.4399V47.9555C47.3265 48.3023 47.0443 48.5844 46.6975 48.5844C46.3508 48.5844 46.0686 48.3023 46.0686 47.9555V45.4399C46.0686 45.0925 45.787 44.811 45.4397 44.811C45.0925 44.811 44.8108 45.0925 44.8108 45.4399V49.2133C44.8108 49.5601 44.5287 49.8422 44.1819 49.8422C43.8351 49.8422 43.553 49.5601 43.553 49.2133V45.4399C43.553 45.0925 43.2714 44.811 42.9241 44.811C42.5768 44.811 42.2952 45.0925 42.2952 45.4399V47.9555C42.2952 48.3023 42.0131 48.5844 41.6663 48.5844C41.3195 48.5844 41.0374 48.3023 41.0374 47.9555V41.6664C41.0374 41.3191 40.7558 41.0375 40.4085 41.0375H39.7796V39.4527C39.7796 37.9491 40.6096 36.6034 41.9457 35.9408C42.1598 35.8346 42.2952 35.6164 42.2952 35.3774V30.2203H47.9554C48.1759 30.2203 48.3874 30.182 48.5843 30.1122V35.3774C48.5843 35.475 48.607 35.5713 48.6507 35.6586L49.0017 36.3607C49.5515 37.4719 49.8421 38.7021 49.8421 39.9181V46.6977ZM49.2132 26.4469H45.4397C45.0925 26.4469 44.8108 26.7285 44.8108 27.0758C44.8108 27.4232 45.0925 27.7047 45.4397 27.7047H47.9554C48.3021 27.7047 48.5843 27.9868 48.5843 28.3336C48.5843 28.6804 48.3021 28.9625 47.9554 28.9625H41.6663C41.319 28.9625 41.0374 29.2441 41.0374 29.5914V30.2203H39.4525C37.9717 30.2203 36.5932 29.3701 35.9407 28.0542C35.8345 27.8402 35.6162 27.7047 35.3772 27.7047H30.2202V22.0446C30.2202 21.8241 30.1818 21.6125 30.112 21.4157H35.3772C35.4749 21.4157 35.5712 21.3929 35.6585 21.3492C36.0233 21.2065 37.5652 20.1578 39.9179 20.1578H46.6975C47.0443 20.1578 47.3265 20.44 47.3265 20.7867C47.3265 21.1335 47.0443 21.4157 46.6975 21.4157H45.4397C45.0925 21.4157 44.8108 21.6972 44.8108 22.0446C44.8108 22.3919 45.0925 22.6735 45.4397 22.6735H47.9554C48.3021 22.6735 48.5843 22.9556 48.5843 23.3024C48.5843 23.6491 48.3021 23.9313 47.9554 23.9313H45.4397C45.0925 23.9313 44.8108 24.2128 44.8108 24.5602C44.8108 24.9075 45.0925 25.1891 45.4397 25.1891H49.2132C49.5599 25.1891 49.8421 25.4712 49.8421 25.818C49.8421 26.1648 49.5599 26.4469 49.2132 26.4469V26.4469Z" fill="#595959"/>
<path d="M27.705 50.9119C28.0524 50.9119 28.334 50.6302 28.334 50.2827C28.334 49.9352 28.0524 49.6535 27.705 49.6535C27.3576 49.6535 27.0759 49.9352 27.0759 50.2827C27.0759 50.6302 27.3576 50.9119 27.705 50.9119Z" fill="#595959"/>
<defs>
<linearGradient id="paint0_linear_124_201" x1="35" y1="0" x2="35" y2="70" gradientUnits="userSpaceOnUse">
<stop stop-color="#F5F5F5"/>
<stop offset="1" stop-color="#F5F5F5" stop-opacity="0"/>
</linearGradient>
</defs>
</svg>
