<svg width="70" height="70" viewBox="0 0 70 70" fill="none" xmlns="http://www.w3.org/2000/svg">
<ellipse cx="35" cy="35" rx="35" ry="35" fill="url(#paint0_linear_124_203)"/>
<ellipse cx="33.9558" cy="26.2566" rx="4.55101" ry="4.5519" fill="#F5DE5D"/>
<path d="M47.6088 41.663L51.1096 39.212L51.8098 39.5621V43.4137L51.4597 46.9152L49.0092 50.0665L45.8584 51.8172L43.0578 51.4671L40.2572 49.3662L39.9071 45.8647L40.9574 43.7639L43.0578 42.0131L47.6088 41.663Z" fill="#F5DE5D"/>
<path d="M32.2054 42.3633L30.1049 41.3128L29.4048 44.8143L30.1049 46.9152L31.1552 49.3662L33.2556 51.1169L35.3561 52.1674L38.5068 51.4671L39.557 49.7163V47.6155L39.207 44.8143L38.8569 44.4642L37.1065 43.4137L34.656 43.0636L32.2054 42.3633Z" fill="#F5DE5D"/>
<path d="M52.1294 39.2191C52.093 39.0467 52.0073 38.8886 51.8827 38.764C51.7581 38.6393 51.6 38.5535 51.4276 38.517C51.2552 38.4805 51.0759 38.4949 50.9115 38.5583C50.7471 38.6218 50.6047 38.7316 50.5015 38.8744C49.9345 39.6585 49.1555 40.2643 48.256 40.6207C47.3811 40.9619 46.4477 41.1278 45.5089 41.1089C44.3021 41.0742 43.1075 41.3569 42.0443 41.9289C42.028 41.9377 42.0134 41.9482 41.9971 41.9569V18.6665C41.9971 18.3571 41.8742 18.0604 41.6554 17.8416C41.4367 17.6229 41.14 17.5 40.8306 17.5H23.2327C23.0029 17.4994 22.7752 17.5445 22.5628 17.6325C22.3505 17.7205 22.1577 17.8497 21.9956 18.0127L18.0132 21.9951C17.8501 22.1571 17.7208 22.3499 17.6328 22.5622C17.5448 22.7746 17.4998 23.0023 17.5005 23.2322V47.8291C17.5005 48.1385 17.6234 48.4352 17.8422 48.654C18.0609 48.8727 18.3576 48.9956 18.667 48.9956H30.4534C31.1477 50.156 32.1286 51.1184 33.302 51.7906C34.0895 52.2546 34.9869 52.4994 35.9009 52.4998C36.7449 52.5065 37.5762 52.2948 38.3141 51.8852C39.052 51.4755 39.6714 50.882 40.112 50.1621C40.1161 50.1563 40.1219 50.1522 40.126 50.1464C40.6495 50.8789 41.3413 51.4749 42.1431 51.8843C42.945 52.2938 43.8334 52.5047 44.7337 52.4992C45.7834 52.4989 46.8139 52.2182 47.7188 51.6862V51.6862C53.5735 48.2566 52.5744 41.2745 52.1294 39.2191ZM22.1665 19.4912V21.5827C22.1665 21.7374 22.1051 21.8858 21.9957 21.9952C21.8863 22.1045 21.738 22.166 21.5833 22.166H19.4917L22.1665 19.4912ZM18.667 47.8291V23.3325H21.5833C22.0473 23.3325 22.4924 23.1482 22.8205 22.82C23.1487 22.4919 23.333 22.0468 23.333 21.5827V18.6665H40.8306V42.8085C40.3416 43.2709 39.9414 43.8188 39.6495 44.4253C39.2598 43.9595 38.7846 43.5725 38.2497 43.285C37.3277 42.7871 36.291 42.5405 35.2436 42.5699C34.4477 42.586 33.6564 42.4447 32.9153 42.1541C32.1567 41.8554 31.5002 41.3445 31.0244 40.6825C30.9269 40.5477 30.7922 40.4442 30.6368 40.3848C30.4814 40.3253 30.3121 40.3124 30.1495 40.3477C29.986 40.3823 29.836 40.4632 29.7174 40.5808C29.5987 40.6984 29.5165 40.8478 29.4805 41.0109C28.9703 43.276 29.1084 45.6389 29.8789 47.8291H18.667ZM33.8899 50.7839C30.0153 48.5144 30.1209 44.1785 30.4989 41.8852C31.0499 42.4794 31.7277 42.9419 32.4819 43.2383C33.3491 43.579 34.2741 43.7479 35.2057 43.7359C36.0737 43.7032 36.9347 43.903 37.6997 44.3144C38.3321 44.6518 38.8512 45.1678 39.1922 45.7982C38.9868 46.8219 39.0721 47.8826 39.4384 48.8603C39.401 48.9671 39.3614 49.0738 39.3124 49.1799C35.2879 48.3051 33.95 46.3803 33.1439 45.2138C33.0539 45.0923 32.9202 45.0105 32.771 44.9857C32.6219 44.9609 32.4689 44.9949 32.3444 45.0807C32.2198 45.1665 32.1335 45.2973 32.1036 45.4455C32.0736 45.5938 32.1024 45.7478 32.1839 45.8752C33.0004 47.0592 34.4755 49.1939 38.6049 50.217C37.9938 50.822 37.1984 51.2062 36.3446 51.3089C35.4908 51.4115 34.6271 51.2268 33.8899 50.7839V50.7839ZM47.1297 50.6812C46.2254 51.2242 45.1623 51.4407 44.1177 51.2946C43.0731 51.1486 42.1101 50.6488 41.3894 49.8787C46.2992 48.7122 48.0384 46.1995 48.9915 44.8137C49.0387 44.7508 49.0727 44.6789 49.0914 44.6025C49.1101 44.5261 49.1131 44.4467 49.1004 44.369C49.0876 44.2914 49.0592 44.2172 49.017 44.1508C48.9748 44.0844 48.9196 44.0272 48.8547 43.9827C48.7898 43.9382 48.7166 43.9073 48.6394 43.8919C48.5623 43.8764 48.4828 43.8767 48.4058 43.8928C48.3288 43.9089 48.2558 43.9403 48.1913 43.9853C48.1267 44.0303 48.072 44.0879 48.0303 44.1546C47.0772 45.5369 45.4902 47.8204 40.693 48.8393C40.2167 47.8579 40.1168 46.7358 40.4124 45.6857C40.571 45.1067 40.8463 44.5662 41.2215 44.0975C41.5966 43.6288 42.0636 43.2417 42.5938 42.9601C43.4987 42.4739 44.5173 42.2385 45.5439 42.2783C46.619 42.2917 47.6866 42.0977 48.6882 41.7067C49.6154 41.3386 50.4409 40.7538 51.0958 40.0013C51.5694 42.644 51.8208 47.9324 47.1297 50.6812Z" fill="#595959"/>
<path d="M33.8315 31.4981C34.8698 31.4981 35.8847 31.1902 36.7479 30.6134C37.6111 30.0366 38.2839 29.2168 38.6812 28.2576C39.0785 27.2984 39.1825 26.243 38.98 25.2247C38.7774 24.2065 38.2775 23.2711 37.5433 22.537C36.8092 21.8029 35.8739 21.3029 34.8556 21.1004C33.8374 20.8978 32.7819 21.0018 31.8227 21.3991C30.8636 21.7964 30.0437 22.4692 29.4669 23.3325C28.8901 24.1957 28.5823 25.2106 28.5823 26.2488C28.5838 27.6405 29.1374 28.9748 30.1215 29.9589C31.1056 30.943 32.4398 31.4965 33.8315 31.4981ZM33.8315 30.3316C32.951 30.3315 32.0944 30.0449 31.3912 29.515L34.0742 26.8321H37.8677C37.7268 27.8026 37.2416 28.6902 36.5006 29.3327C35.7596 29.9751 34.8123 30.3297 33.8315 30.3316ZM37.8677 25.6655H34.4148V22.2127C35.2856 22.3393 36.0921 22.7438 36.7143 23.366C37.3365 23.9882 37.7411 24.7948 37.8677 25.6655ZM33.2483 22.2127V26.0073L30.5653 28.6903C30.1395 28.1246 29.8687 27.4576 29.7795 26.7553C29.6903 26.0529 29.7859 25.3394 30.0569 24.6853C30.3278 24.0311 30.7647 23.459 31.3244 23.0254C31.8841 22.5917 32.5472 22.3116 33.2483 22.2127Z" fill="#595959"/>
<path d="M21 25.6657H26.8325C26.9872 25.6657 27.1356 25.6043 27.2449 25.4949C27.3543 25.3855 27.4158 25.2371 27.4158 25.0824C27.4158 24.9277 27.3543 24.7793 27.2449 24.6699C27.1356 24.5605 26.9872 24.499 26.8325 24.499H21C20.8453 24.499 20.697 24.5605 20.5876 24.6699C20.4782 24.7793 20.4167 24.9277 20.4167 25.0824C20.4167 25.2371 20.4782 25.3855 20.5876 25.4949C20.697 25.6043 20.8453 25.6657 21 25.6657Z" fill="#595959"/>
<path d="M21 28.582H26.8325C26.9872 28.582 27.1356 28.5206 27.2449 28.4112C27.3543 28.3018 27.4158 28.1534 27.4158 27.9987C27.4158 27.8439 27.3543 27.6956 27.2449 27.5862C27.1356 27.4768 26.9872 27.4153 26.8325 27.4153H21C20.8453 27.4153 20.697 27.4768 20.5876 27.5862C20.4782 27.6956 20.4167 27.8439 20.4167 27.9987C20.4167 28.1534 20.4782 28.3018 20.5876 28.4112C20.697 28.5206 20.8453 28.582 21 28.582Z" fill="#595959"/>
<path d="M21 31.4983H26.8325C26.9872 31.4983 27.1356 31.4368 27.2449 31.3274C27.3543 31.218 27.4158 31.0696 27.4158 30.9149C27.4158 30.7602 27.3543 30.6118 27.2449 30.5024C27.1356 30.393 26.9872 30.3316 26.8325 30.3316H21C20.8453 30.3316 20.697 30.393 20.5876 30.5024C20.4782 30.6118 20.4167 30.7602 20.4167 30.9149C20.4167 31.0696 20.4782 31.218 20.5876 31.3274C20.697 31.4368 20.8453 31.4983 21 31.4983Z" fill="#595959"/>
<path d="M38.4978 32.6646H30.9155C30.7608 32.6646 30.6125 32.726 30.5031 32.8354C30.3937 32.9448 30.3323 33.0932 30.3323 33.2479C30.3323 33.4027 30.3937 33.551 30.5031 33.6604C30.6125 33.7698 30.7608 33.8313 30.9155 33.8313H38.4978C38.6525 33.8313 38.8009 33.7698 38.9102 33.6604C39.0196 33.551 39.0811 33.4027 39.0811 33.2479C39.0811 33.0932 39.0196 32.9448 38.9102 32.8354C38.8009 32.726 38.6525 32.6646 38.4978 32.6646Z" fill="#595959"/>
<path d="M21 34.4145H26.8325C26.9872 34.4145 27.1356 34.3531 27.2449 34.2437C27.3543 34.1343 27.4158 33.9859 27.4158 33.8312C27.4158 33.6765 27.3543 33.5281 27.2449 33.4187C27.1356 33.3093 26.9872 33.2478 26.8325 33.2478H21C20.8453 33.2478 20.697 33.3093 20.5876 33.4187C20.4782 33.5281 20.4167 33.6765 20.4167 33.8312C20.4167 33.9859 20.4782 34.1343 20.5876 34.2437C20.697 34.3531 20.8453 34.4145 21 34.4145Z" fill="#595959"/>
<path d="M38.4978 35.5808H30.9155C30.7608 35.5808 30.6125 35.6423 30.5031 35.7517C30.3937 35.8611 30.3323 36.0095 30.3323 36.1642C30.3323 36.3189 30.3937 36.4673 30.5031 36.5767C30.6125 36.6861 30.7608 36.7476 30.9155 36.7476H38.4978C38.6525 36.7476 38.8009 36.6861 38.9102 36.5767C39.0196 36.4673 39.0811 36.3189 39.0811 36.1642C39.0811 36.0095 39.0196 35.8611 38.9102 35.7517C38.8009 35.6423 38.6525 35.5808 38.4978 35.5808Z" fill="#595959"/>
<path d="M38.4978 38.4971H30.9155C30.7608 38.4971 30.6125 38.5585 30.5031 38.6679C30.3937 38.7773 30.3323 38.9257 30.3323 39.0804C30.3323 39.2352 30.3937 39.3835 30.5031 39.4929C30.6125 39.6023 30.7608 39.6638 30.9155 39.6638H38.4978C38.6525 39.6638 38.8009 39.6023 38.9102 39.4929C39.0196 39.3835 39.0811 39.2352 39.0811 39.0804C39.0811 38.9257 39.0196 38.7773 38.9102 38.6679C38.8009 38.5585 38.6525 38.4971 38.4978 38.4971Z" fill="#595959"/>
<path d="M27.4158 43.7464H21.5833V37.3306C21.5833 37.1759 21.5218 37.0275 21.4124 36.9182C21.303 36.8088 21.1547 36.7473 21 36.7473C20.8453 36.7473 20.697 36.8088 20.5876 36.9182C20.4782 37.0275 20.4167 37.1759 20.4167 37.3306V44.3296C20.4167 44.4843 20.4782 44.6327 20.5876 44.742C20.697 44.8514 20.8453 44.9129 21 44.9129H27.4158C27.5705 44.9129 27.7188 44.8514 27.8282 44.742C27.9376 44.6327 27.999 44.4843 27.999 44.3296C27.999 44.1749 27.9376 44.0266 27.8282 43.9172C27.7188 43.8078 27.5705 43.7464 27.4158 43.7464Z" fill="#595959"/>
<path d="M26.9158 38.78L25.5504 41.0552L24.9118 40.4164C24.8024 40.307 24.6541 40.2456 24.4994 40.2456C24.3448 40.2456 24.1964 40.307 24.0871 40.4164L22.9206 41.5831C22.8143 41.6931 22.7555 41.8405 22.7569 41.9934C22.7582 42.1464 22.8195 42.2927 22.9277 42.4009C23.0358 42.509 23.1821 42.5704 23.335 42.5717C23.4879 42.573 23.6353 42.5142 23.7453 42.408L24.4994 41.6554L25.2536 42.4097C25.3162 42.4724 25.3923 42.5199 25.4761 42.5487C25.5598 42.5776 25.6491 42.587 25.737 42.5762C25.8249 42.5654 25.9092 42.5347 25.9835 42.4864C26.0578 42.4382 26.1201 42.3737 26.1658 42.2977L27.9155 39.3809C27.9566 39.3152 27.9842 39.242 27.9967 39.1655C28.0092 39.089 28.0064 39.0108 27.9883 38.9355C27.9702 38.8601 27.9373 38.7891 27.8915 38.7266C27.8457 38.6641 27.7879 38.6113 27.7215 38.5714C27.6551 38.5315 27.5814 38.5052 27.5048 38.4941C27.4281 38.483 27.3499 38.4873 27.2749 38.5067C27.1999 38.5261 27.1295 38.5603 27.0679 38.6072C27.0062 38.6541 26.9545 38.7129 26.9158 38.78Z" fill="#595959"/>
<defs>
<linearGradient id="paint0_linear_124_203" x1="35" y1="0" x2="35" y2="70" gradientUnits="userSpaceOnUse">
<stop stop-color="#F5F5F5"/>
<stop offset="1" stop-color="#F5F5F5" stop-opacity="0"/>
</linearGradient>
</defs>
</svg>
