<svg width="70" height="70" viewBox="0 0 70 70" fill="none" xmlns="http://www.w3.org/2000/svg">
<ellipse cx="35" cy="35" rx="35" ry="35" fill="url(#paint0_linear_124_204)"/>
<path d="M46.9009 37.1006L47.9511 35.7L50.0516 37.4507L48.3012 38.8513L46.9009 37.1006Z" fill="#F5DE5D"/>
<ellipse cx="37.1" cy="49" rx="2.8" ry="2.8" fill="#F5DE5D"/>
<rect x="20.3005" y="34.3" width="4.9" height="5.6" fill="#F5DE5D"/>
<ellipse cx="31.5005" cy="22.4" rx="4.2" ry="4.2" fill="#F5DE5D"/>
<path d="M50.3714 36.354C50.3714 36.354 48.8736 34.8587 48.8597 34.8462V32.0375C48.8597 31.6592 48.5531 31.3526 48.1748 31.3526C47.7965 31.3526 47.4898 31.6592 47.4898 32.0375V34.8461C47.4759 34.8586 45.9782 36.3538 45.9782 36.3538C45.7841 36.5479 45.6772 36.8059 45.6772 37.0803C45.6772 37.3548 45.7841 37.6129 45.9781 37.8068C45.9781 37.8068 47.4759 39.3022 47.4898 39.3146V48.36C47.4898 48.3633 47.487 48.3661 47.4837 48.3661H40.3828C40.0642 46.7913 38.6697 45.6021 37.0024 45.6021C35.3351 45.6021 33.9406 46.7913 33.622 48.3661H32.1406V40.5595C33.7692 40.2394 35.0017 38.8015 35.0017 37.0805C35.0017 35.3673 33.7805 33.9341 32.1628 33.6054V31.3094H39.4844C39.4878 31.3094 39.4905 31.3122 39.4905 31.3155V33.5345H37.9903C37.2349 33.5345 36.6204 34.149 36.6204 34.9043V39.2566C36.6204 40.0119 37.2349 40.6265 37.9903 40.6265H42.3426C43.0979 40.6265 43.7124 40.0119 43.7124 39.2566V34.9043C43.7124 34.149 43.0979 33.5345 42.3426 33.5345H40.8603V31.3155C40.8603 30.5568 40.2431 29.9395 39.4844 29.9395H32.1628V27.6673C34.4319 27.3617 36.2323 25.5613 36.5379 23.2923H47.4837C47.4871 23.2923 47.4898 23.295 47.4898 23.2983V25.9074C47.4898 26.2857 47.7965 26.5924 48.1748 26.5924C48.5531 26.5924 48.8597 26.2857 48.8597 25.9074V23.2983C48.8597 22.5397 48.2425 21.9224 47.4838 21.9224H36.5379C36.2021 19.4291 34.0617 17.5 31.4779 17.5C28.6617 17.5 26.3706 19.7912 26.3706 22.6074C26.3706 25.1911 28.2997 27.3315 30.793 27.6674V29.9396H23.4804C22.7217 29.9396 22.1045 30.5568 22.1045 31.3155V33.5345H20.6133C19.8579 33.5345 19.2434 34.149 19.2434 34.9043V39.2566C19.2434 40.0119 19.8579 40.6265 20.6133 40.6265H24.9655C25.7209 40.6265 26.3353 40.0119 26.3353 39.2566V34.9043C26.3353 34.149 25.7209 33.5345 24.9655 33.5345H23.4743V31.3155C23.4743 31.3121 23.477 31.3094 23.4804 31.3094H30.793V33.5974C29.1535 33.9087 27.9097 35.3517 27.9097 37.0804C27.9097 38.8014 29.1422 40.2394 30.7708 40.5594V48.3661H29.2894C28.9709 46.7914 27.5763 45.6022 25.9091 45.6022C24.0073 45.6022 22.4601 47.1493 22.4601 49.0511C22.4601 50.9528 24.0073 52.5 25.9091 52.5C27.5763 52.5 28.9709 51.3108 29.2894 49.7361H33.622C33.9406 51.3108 35.3352 52.5 37.0024 52.5C38.6696 52.5 40.0642 51.3108 40.3828 49.7361H47.4837C48.2425 49.7361 48.8597 49.1188 48.8597 48.3601V39.3147C48.8736 39.3022 50.3713 37.8069 50.3713 37.8069C50.3713 37.8069 50.3713 37.8069 50.3714 37.8069C50.7719 37.4064 50.7719 36.7545 50.3714 36.354V36.354ZM42.3434 39.2566C42.3434 39.2566 42.3431 39.2566 42.3425 39.2566H37.9902V34.9043H42.3425L42.3434 39.2566ZM24.9664 39.2566C24.9664 39.2566 24.9661 39.2566 24.9655 39.2566H20.6133V34.9043H24.9655L24.9664 39.2566ZM27.7405 22.6074C27.7405 20.5465 29.4171 18.8699 31.4779 18.8699C33.5387 18.8699 35.2153 20.5465 35.2153 22.6074C35.2153 24.6682 33.5387 26.3448 31.4779 26.3448C29.4171 26.3448 27.7405 24.6682 27.7405 22.6074ZM29.2796 37.0804C29.2796 35.8805 30.2558 34.9043 31.4557 34.9043C32.6557 34.9043 33.632 35.8805 33.632 37.0804C33.632 38.2803 32.6557 39.2566 31.4557 39.2566C30.2558 39.2566 29.2796 38.2804 29.2796 37.0804ZM25.9091 51.1302C24.7627 51.1302 23.83 50.1976 23.83 49.0512C23.83 47.9048 24.7627 46.9721 25.9091 46.9721C27.0554 46.9721 27.9881 47.9048 27.9881 49.0512C27.9881 50.1976 27.0554 51.1302 25.9091 51.1302ZM37.0024 51.1302C35.856 51.1302 34.9233 50.1976 34.9233 49.0512C34.9233 47.9048 35.856 46.9721 37.0024 46.9721C38.1488 46.9721 39.0814 47.9048 39.0814 49.0512C39.0814 50.1976 38.1488 51.1302 37.0024 51.1302ZM48.1748 38.0662L47.189 37.0804L48.1748 36.0946L49.1606 37.0804L48.1748 38.0662Z" fill="#595959"/>
<path d="M48.1747 29.6397C48.5523 29.6397 48.8585 29.3335 48.8585 28.9558C48.8585 28.5781 48.5523 28.272 48.1747 28.272C47.7971 28.272 47.491 28.5781 47.491 28.9558C47.491 29.3335 47.7971 29.6397 48.1747 29.6397Z" fill="#595959"/>
<defs>
<linearGradient id="paint0_linear_124_204" x1="35" y1="0" x2="35" y2="70" gradientUnits="userSpaceOnUse">
<stop stop-color="#F5F5F5"/>
<stop offset="1" stop-color="#F5F5F5" stop-opacity="0"/>
</linearGradient>
</defs>
</svg>
