<svg width="148" height="124" viewBox="0 0 148 124" fill="none" xmlns="http://www.w3.org/2000/svg">
<g clip-path="url(#clip0_124_258)">
<path d="M129.024 0.233841C127.502 8.50194 126.268 9.73581 118 11.2579C126.268 12.7801 127.502 14.014 129.024 22.2821C130.546 14.014 131.78 12.7801 140.048 11.2579C131.78 9.73581 130.546 8.50194 129.024 0.233841Z" fill="#FFC91D"/>
<path d="M140.989 15.7443C140.021 21.0025 139.236 21.7873 133.978 22.7552C139.236 23.7232 140.021 24.508 140.989 29.7661C141.957 24.508 142.742 23.7231 148 22.7552C142.742 21.7873 141.957 21.0025 140.989 15.7443Z" fill="#FFC91D"/>
</g>
<g clip-path="url(#clip1_124_258)">
<circle cx="74" cy="66" r="58" fill="#29499A"/>
<path d="M56.3488 69.6897C58.4924 70.3129 61.9684 71.6809 65.9505 74.6259C71.1512 78.472 73.7701 85.4507 73.9846 91.6823C73.9902 91.6823 73.9958 91.6825 74.0017 91.6825C74.0062 91.6825 74.0106 91.6823 74.0151 91.6823C74.2295 85.4507 76.8484 78.4722 82.0492 74.6259C85.3539 72.1818 88.3072 70.8262 90.4426 70.0785C90.1251 68.7932 90.1581 67.0347 91.296 66.3046C91.9963 65.8551 92.9608 65.8884 93.9074 65.7227C96.0123 65.3542 97.8278 63.9114 98.5333 62.0467C99.2926 60.0386 98.6364 57.6018 97.0068 56.3784C96.7944 56.219 96.5687 56.0777 96.3505 55.941C94.9492 55.0642 94.7905 54.6798 95.4149 52.9291C95.6739 52.2023 95.9418 51.4509 95.785 50.653C95.5084 49.2477 94.24 48.6834 93.0135 48.1375C91.7336 47.568 91.3201 47.3533 90.6632 46.552C89.9807 45.7195 89.3692 45.2184 87.9461 45.2184C86.0715 45.2184 84.018 46.1629 83.1114 44.9927C82.667 44.4187 82.7423 43.5855 82.8217 42.7035C83.0765 39.8741 82.3412 38.2975 82.1533 35.8511C81.9074 32.65 83.0193 29.4067 85.1146 26.9943C81.6388 25.7638 77.8987 25.0919 74.0012 25.0919C71.0908 25.0919 68.268 25.4664 65.5773 26.1679C65.2534 26.7529 64.971 27.3653 64.7699 28.0094C64.1467 30.006 64.4565 32.0636 65.5785 33.3791C66.8645 34.8869 69.1562 35.5127 69.5022 37.1584C69.6979 38.0894 69.1867 39.0044 68.6455 39.9735C68.0985 40.9527 67.533 41.9652 67.6136 43.1235C67.7176 44.6191 68.8094 45.6236 69.865 46.5948C72.3953 48.9236 71.6577 49.2466 72.1274 50.4993C72.6733 51.955 74.3863 52.4605 74.9397 53.575C76.1233 55.9602 71.6301 61.0401 64.1666 61.8355C63.0126 61.9546 61.8182 62.0507 60.9327 62.8176C60.021 63.6067 60.3601 64.0173 58.0755 64.6905C57.5099 64.8571 56.9251 65.0294 56.3889 65.3317C55.0853 66.0674 54.4497 67.5451 54.4787 69.0062C55.0586 69.2664 55.6703 69.4926 56.3488 69.6897V69.6897Z" fill="#2EBCF6"/>
<path d="M82.0492 74.6259C82.4191 74.3523 82.7835 74.0945 83.1438 73.8477C70.8679 72.7675 69.3693 60.9883 69.3693 60.9883C69.3693 60.9883 69.3222 60.8181 69.2102 60.5242C67.7474 61.1596 66.0524 61.6345 64.1669 61.8355C63.0128 61.9546 61.8184 62.0507 60.933 62.8176C60.0213 63.6067 60.3604 64.0173 58.0759 64.6905C57.5104 64.8571 56.9256 65.0294 56.3894 65.3317C55.0858 66.0674 54.4502 67.5452 54.4792 69.0062C55.0586 69.2664 55.6701 69.4926 56.3488 69.6899C58.4924 70.3131 61.9684 71.6812 65.9502 74.6261C71.151 78.4724 73.7699 85.4507 73.9844 91.6825C73.99 91.6825 73.9956 91.6827 74.0015 91.6827C74.0059 91.6827 74.0104 91.6825 74.0151 91.6825C74.2295 85.4507 76.8484 78.4722 82.0492 74.6259Z" fill="#2A9DDD"/>
<path d="M44.0579 61.6263C49.7902 65.7358 51.7887 67.9293 54.9455 69.2057C54.852 67.8374 55.4072 66.4117 56.6145 65.7306C57.7911 65.0669 59.3178 65.0598 60.3137 64.1474C60.6448 63.8439 60.8935 63.4577 61.2329 63.1638C62.0295 62.4742 63.1679 62.4027 64.2155 62.2909C68.1584 61.8707 72.1625 60.2615 74.5397 57.0878C75.3411 56.0181 75.9444 54.5688 75.3502 53.3716C74.7319 52.1261 73.0447 51.6407 72.5565 50.3388C72.4037 49.9314 72.3891 49.4859 72.2813 49.0642C71.664 46.6523 68.2437 45.5758 68.071 43.0919C67.9219 40.9495 70.3927 39.1659 69.9509 37.0642C69.5544 35.1777 67.1785 34.5487 65.9276 33.082C64.801 31.7613 64.6906 29.8031 65.2079 28.1458C65.4422 27.3946 65.7875 26.6908 66.1906 26.0155C51.5712 29.5307 40.7065 42.689 40.7065 58.387C40.7065 58.6872 40.711 58.9865 40.719 59.2848C41.8039 59.9221 42.9319 60.7272 44.0579 61.6263V61.6263Z" fill="#85D249"/>
<path d="M56.6145 65.7306C57.7911 65.0669 59.3175 65.0601 60.3136 64.1474C60.6448 63.8439 60.8935 63.4577 61.2329 63.1638C62.0295 62.4742 63.1679 62.4025 64.2155 62.2909C65.9715 62.1039 67.7382 61.6792 69.3692 60.9873C69.3626 60.9639 68.1275 56.4993 62.9848 53.4977C57.8286 50.4878 66.2661 45.1012 58.8324 39.9527C54.5511 36.9873 54.9743 33.0862 56.1033 30.3102C46.8455 36.2233 40.7063 46.5876 40.7063 58.3874C40.7063 58.6877 40.7108 58.987 40.7187 59.2853C41.8039 59.9226 42.9319 60.7274 44.0579 61.6265C49.7902 65.736 51.7887 67.9295 54.9455 69.2059C54.852 67.8374 55.4072 66.4117 56.6145 65.7306V65.7306Z" fill="#60B550"/>
<path d="M82.4099 42.126C82.3405 43.206 82.0871 44.4173 82.7497 45.273C84.2368 47.193 87.721 44.6952 89.6565 46.1622C90.0791 46.4826 90.3577 46.9551 90.7363 47.3263C92.1465 48.7096 94.9548 48.8034 95.3361 50.7416C95.622 52.1955 94.157 53.6955 94.7485 55.0541C95.1003 55.8627 96.027 56.2152 96.7323 56.7447C98.2538 57.8866 98.7781 60.1054 98.1052 61.8848C97.4324 63.6641 95.7027 64.9436 93.8288 65.2717C92.8836 65.4372 91.8566 65.4011 91.0489 65.9193C89.7294 66.7661 89.622 68.6695 89.9992 70.1917C90.0027 70.2062 90.0069 70.2205 90.0104 70.2351C90.6172 70.0103 91.1694 69.8301 91.651 69.6899C95.7263 68.5049 97.4092 66.3098 103.942 61.6263C105.069 60.7265 106.198 59.9209 107.284 59.2834C107.292 58.9855 107.297 58.687 107.297 58.3872C107.297 43.724 97.8181 31.2749 84.6538 26.8326C82.561 29.3216 81.4478 32.6381 81.6971 35.8863C81.8577 37.9776 82.5444 40.0326 82.4099 42.126V42.126Z" fill="#85D249"/>
<path d="M77.465 19.4078C76.9041 19.0722 76.6079 18.4241 76.7262 17.781C77.285 14.7442 79.6906 6.15836 89.052 5.94274C95.089 5.80376 97.9604 4.87516 99.3181 4.08579C99.7789 3.8179 100.342 4.21516 100.249 4.73993C99.7419 7.60352 98.3977 13.2529 95.2646 17.087C91.119 22.1598 83.5226 23.0334 77.465 19.4078Z" fill="#85D249"/>
<path d="M121.399 38.2059C118.914 38.1498 117.113 40.2018 116.788 42.6663C115.978 48.8104 114.113 60.0138 114.113 60.0138L114.113 60.0147C113.905 59.3538 113.495 58.7184 112.818 58.1369C110.743 56.3559 107.056 58.278 103.397 61.1997C96.9832 65.7979 95.3309 67.9532 91.3299 69.1164C89.2252 69.7284 85.8125 71.0713 81.9031 73.9626C75.4739 78.7173 73.0594 88.3485 74.322 95.2506C74.6961 97.2953 76.5012 102.997 76.5846 105.074C76.5851 105.087 76.5856 105.1 76.5863 105.113C76.6083 105.648 76.6271 106.103 76.6432 106.496C76.7011 106.48 76.7602 106.467 76.8209 106.457L100.839 102.661L100.688 99.0456C100.654 98.2459 101.089 97.4978 101.803 97.1371C105.869 95.0852 112.861 88.5163 119.148 81.2106C124.138 75.4106 126.052 54.6979 125.986 43.3818C125.969 40.5679 124.203 38.2691 121.399 38.2059V38.2059Z" fill="#FBBC8D"/>
<path d="M100.688 99.0461C100.654 98.2464 101.088 97.4983 101.803 97.1376C78.6219 102.089 74.9434 84.9911 74.9434 84.9911L74.8716 85.0157C73.9309 88.5194 73.756 92.1587 74.3218 95.2509C74.6958 97.2955 76.501 102.997 76.5844 105.074C76.5849 105.087 76.5854 105.1 76.5861 105.113C76.6081 105.648 76.6269 106.103 76.643 106.496C76.7009 106.48 76.76 106.467 76.8207 106.457L100.839 102.662L100.688 99.0461Z" fill="#FCA870"/>
<path d="M26.6004 38.2059C29.0857 38.1498 30.8873 40.2018 31.2122 42.6663C32.0222 48.8104 33.8869 60.0138 33.8869 60.0138L33.8873 60.0147C34.0952 59.3538 34.5051 58.7184 35.1825 58.1369C37.2567 56.3559 40.9441 58.278 44.6029 61.1997C51.0169 65.7979 52.6692 67.9532 56.6702 69.1164C58.7749 69.7284 62.1874 71.0713 66.097 73.9626C72.5262 78.7173 74.9407 88.3485 73.6781 95.2506C73.304 97.2953 71.4989 102.997 71.4154 105.074C71.415 105.087 71.4143 105.1 71.4138 105.113C71.3918 105.648 71.373 106.103 71.3569 106.496C71.299 106.48 71.2399 106.467 71.1792 106.457L47.1614 102.661L47.3123 99.0456C47.3458 98.2459 46.9118 97.4978 46.1972 97.1371C42.1308 95.0852 35.1387 88.5163 28.8527 81.2106C23.8622 75.4106 21.9485 54.6979 22.0146 43.3818C22.0308 40.5679 23.7965 38.2691 26.6004 38.2059V38.2059Z" fill="#FBBC8D"/>
<path d="M47.3132 99.0461C47.3464 98.2464 46.9126 97.4983 46.198 97.1376C69.3789 102.089 73.0574 84.9911 73.0574 84.9911L73.1291 85.0157C74.0699 88.5194 74.2447 92.1587 73.6792 95.2509C73.3051 97.2955 71.5 102.997 71.4165 105.074C71.416 105.087 71.4153 105.1 71.4149 105.113C71.3928 105.648 71.3741 106.103 71.3579 106.496C71.3 106.48 71.241 106.467 71.1803 106.457L47.1622 102.662L47.3132 99.0461Z" fill="#FCA870"/>
<path d="M114.384 60.0137H114.113L114.112 60.0144C113.904 59.3535 113.494 58.7181 112.817 58.1366C112.046 57.475 111.053 57.3252 109.921 57.5472C109.921 57.5472 104.401 60.9698 107.983 64.552C110.047 66.6156 112.368 64.918 113.964 63.1082C114.426 61.6874 114.441 60.6081 114.384 60.0144L114.384 60.0137Z" fill="#FCD7C3"/>
<path d="M117.902 58.307C117.746 57.767 117.02 55.5484 115.17 53.4974C114.592 57.1356 114.113 60.0138 114.113 60.0138L114.112 60.0147C114.269 61.6354 113.897 66.8601 105.339 72.8289C95.5166 79.6804 95.4938 79.8112 95.3171 80.8281C94.9606 82.8838 97.5228 84.0892 98.8937 82.5691C99.1803 82.3253 100.687 81.1199 107.707 76.2234C120.294 67.4444 118.175 59.192 117.902 58.307V58.307Z" fill="#FCA870"/>
<path d="M33.6155 60.0137H33.887L33.8874 60.0144C34.0953 59.3535 34.5052 58.7181 35.1826 58.1366C35.9532 57.475 36.9467 57.3252 38.0785 57.5472C38.0785 57.5472 43.5987 60.9698 40.0166 64.552C37.9529 66.6156 35.6321 64.918 34.0351 63.1082C33.5738 61.6874 33.5584 60.6081 33.616 60.0144L33.6155 60.0137Z" fill="#FCD7C3"/>
<path d="M30.0983 58.307C30.2541 57.767 30.9798 55.5484 32.8302 53.4974C33.4079 57.1356 33.887 60.0138 33.887 60.0138L33.8877 60.0147C33.7306 61.6354 34.1031 66.8601 42.6606 72.8289C52.4834 79.6804 52.5062 79.8112 52.6829 80.8281C53.0394 82.8838 50.4772 84.0892 49.1063 82.5691C48.8197 82.3253 47.3129 81.1199 40.2927 76.2234C27.7056 67.4444 29.825 59.192 30.0983 58.307V58.307Z" fill="#FCA870"/>
<path d="M104.764 103.131C104.625 102.251 103.799 101.65 102.918 101.789L76.7983 105.917C75.9178 106.056 75.3166 106.883 75.4558 107.763L78.1875 123.847C88.6924 123.09 98.4126 119.506 106.596 113.853L104.764 103.131Z" fill="#2EBCF6"/>
<path d="M88.8782 105.42C88.7852 104.831 89.0238 104.268 89.4543 103.917L76.7981 105.917C75.9175 106.056 75.3164 106.883 75.4556 107.763L78.1872 123.847C82.822 123.513 87.3035 122.628 91.5682 121.259L88.8782 105.42Z" fill="#2A9DDD"/>
<path d="M71.2101 105.917L45.0904 101.789C44.2098 101.65 43.383 102.251 43.244 103.131L41.4119 113.858C49.5953 119.51 59.3158 123.092 69.8207 123.848L72.5526 107.763C72.6918 106.883 72.0906 106.056 71.2101 105.917V105.917Z" fill="#2EBCF6"/>
<path d="M71.21 105.917L59.5513 104.075C59.9516 104.428 60.1691 104.971 60.0798 105.537L57.3604 121.548C61.3478 122.754 65.5182 123.538 69.8207 123.848L72.5525 107.763C72.6918 106.883 72.0906 106.056 71.21 105.917V105.917Z" fill="#2A9DDD"/>
<path d="M88.178 13.6504C88.178 13.6504 89.8794 11.0969 87.2426 10.3352C84.6537 9.58728 85.3925 6.6297 85.4201 6.52235C79.0386 8.52696 77.2041 15.1827 76.7262 17.781C76.6079 18.4239 76.9041 19.072 77.465 19.4076C82.0899 22.1756 87.6101 22.3181 91.8083 19.9745C87.3069 18.1199 88.178 13.6504 88.178 13.6504V13.6504Z" fill="#60B550"/>
<path d="M75.3201 29.5396C74.2563 29.5396 73.3938 28.6774 73.3938 27.6133V24.1164C73.3938 20.7496 74.7555 17.4935 77.1295 15.1832C82.0361 10.4078 87.4582 10.1442 90.6982 8.9029C91.6915 8.52158 92.8057 9.01915 93.1863 10.0122C93.5669 11.0055 93.0703 12.1195 92.0768 12.5001C88.473 13.8817 83.8978 13.972 79.8166 17.9439C78.1833 19.5337 77.2467 21.7832 77.2467 24.1164V27.6133C77.2465 28.6771 76.384 29.5396 75.3201 29.5396Z" fill="#A3EA6E"/>
<path d="M73.1753 19.4078C73.7362 19.0722 74.0324 18.4241 73.9143 17.781C73.3556 14.7442 70.9497 6.15836 61.5885 5.94274C55.5513 5.80376 52.6802 4.87516 51.3224 4.08579C50.8617 3.8179 50.2989 4.21516 50.3917 4.73993C50.8987 7.60352 52.2428 13.2529 55.376 17.087C59.5213 22.1598 67.1177 23.0334 73.1753 19.4078V19.4078Z" fill="#85D249"/>
<path d="M62.4623 13.6504C62.4623 13.6504 60.7609 11.0969 63.3977 10.3352C65.9866 9.58728 65.2478 6.6297 65.2202 6.52235C71.6017 8.52696 73.4362 15.1827 73.9141 17.781C74.0324 18.4239 73.7362 19.072 73.1753 19.4076C68.5504 22.1756 63.0302 22.3181 58.832 19.9745C63.3334 18.1199 62.4623 13.6504 62.4623 13.6504V13.6504Z" fill="#60B550"/>
<path d="M75.3201 29.5396C76.384 29.5396 77.2465 28.6774 77.2465 27.6133V24.1164C77.2465 20.7496 75.8847 17.4935 73.5108 15.1832C68.6041 10.4078 63.1821 10.1442 59.9421 8.9029C58.9488 8.52158 57.8346 9.01915 57.454 10.0122C57.0733 11.0055 57.57 12.1195 58.5635 12.5001C62.1673 13.8817 66.7425 13.972 70.8237 17.9439C72.457 19.5337 73.3936 21.7832 73.3936 24.1164V27.6133C73.3938 28.6771 74.2563 29.5396 75.3201 29.5396V29.5396Z" fill="#A3EA6E"/>
<path d="M88.9332 28.6209C87.338 31.7502 84.8919 38.0697 89.938 39.9836C96.5316 42.4846 96.4276 54.4691 106.351 50.4763C104.018 40.9012 97.5437 32.9484 88.9332 28.6209V28.6209Z" fill="#A3EA6E"/>
</g>
<defs>
<clipPath id="clip0_124_258">
<rect width="30" height="30" fill="white" transform="translate(118)"/>
</clipPath>
<clipPath id="clip1_124_258">
<rect width="120" height="120" fill="white" transform="translate(14 4)"/>
</clipPath>
</defs>
</svg>
