<svg width="148" height="126" viewBox="0 0 148 126" fill="none" xmlns="http://www.w3.org/2000/svg">
<g clip-path="url(#clip0_124_289)">
<path d="M129.024 0.233841C127.502 8.50194 126.268 9.73581 118 11.2579C126.268 12.7801 127.502 14.014 129.024 22.2821C130.546 14.014 131.78 12.7801 140.048 11.2579C131.78 9.73581 130.546 8.50194 129.024 0.233841Z" fill="#FFC91D"/>
<path d="M140.989 15.7443C140.021 21.0025 139.236 21.7873 133.978 22.7552C139.236 23.7232 140.021 24.508 140.989 29.7661C141.957 24.508 142.742 23.7231 148 22.7552C142.742 21.7873 141.957 21.0025 140.989 15.7443Z" fill="#FFC91D"/>
</g>
<circle cx="74" cy="68" r="58" fill="#29499A"/>
<path d="M70.0958 18.7665L33.778 35.7437C30.6899 37.1865 28.7942 40.4766 29.0178 43.9941C29.6492 53.8758 32.0431 74.1324 41.1088 89.2426C52.5435 108.303 66.7424 113.292 71.7121 114.499C72.9116 114.789 74.1528 114.789 75.3514 114.499C80.3211 113.292 94.52 108.303 105.955 89.2426C115.021 74.1324 117.414 53.8744 118.045 43.9941C118.269 40.4762 116.372 37.1865 113.285 35.7437L76.9672 18.7665C74.7819 17.7446 72.2797 17.7446 70.0958 18.7665V18.7665Z" fill="#478CF7"/>
<path d="M38.201 37.719C37.8481 37.719 37.5101 37.5188 37.3512 37.1785C37.1318 36.7093 37.3343 36.1515 37.8035 35.9321L59.0356 26.0068C59.5048 25.7869 60.0626 25.9899 60.282 26.4591C60.5014 26.9283 60.2988 27.4862 59.8296 27.7055L38.5971 37.6304C38.4687 37.6904 38.3337 37.719 38.201 37.719V37.719ZM62.8301 26.2055C62.4771 26.2055 62.1392 26.0054 61.9803 25.6646C61.7614 25.1954 61.9639 24.6376 62.4326 24.4182L62.8132 24.2405C63.2829 24.0207 63.8403 24.2237 64.0596 24.6929C64.279 25.1621 64.076 25.7199 63.6073 25.9393L63.2267 26.1169C63.0978 26.1769 62.9628 26.2055 62.8301 26.2055V26.2055Z" fill="#5E9CF7"/>
<path d="M113.285 35.7437L112.747 35.4919C113.221 36.6723 113.443 37.973 113.358 39.3071C112.726 49.1874 110.333 69.4454 101.267 84.5555C89.8326 103.616 75.6337 108.605 70.664 109.812C69.4654 110.101 68.2242 110.101 67.0247 109.812C63.7659 109.02 56.5392 106.602 48.7261 99.6582C58.2075 110.264 67.8079 113.551 71.7122 114.499C72.9117 114.789 74.1529 114.789 75.3515 114.499C80.3212 113.292 94.5201 108.303 105.955 89.243C115.021 74.1329 117.414 53.8749 118.045 43.9946C118.268 40.4766 116.371 37.1865 113.285 35.7437V35.7437Z" fill="#377DE2"/>
<path d="M114.286 36.3071C115.299 37.838 115.824 39.7083 115.701 41.6504C115.07 51.5307 112.677 71.7887 103.61 86.8988C92.1758 105.959 77.9769 110.948 73.0072 112.155C71.8086 112.445 70.5674 112.445 69.3678 112.155C65.9427 111.323 58.1328 108.693 49.866 100.899C58.9672 110.523 67.9635 113.589 71.7116 114.499C72.9111 114.789 74.1524 114.789 75.351 114.499C80.3207 113.291 94.5196 108.303 105.954 89.2426C115.02 74.1324 117.413 53.8744 118.045 43.9941C118.243 40.876 116.773 37.9393 114.286 36.3071Z" fill="#2266D3"/>
<path d="M73.5312 27.0619C72.5792 27.0619 71.6267 27.2696 70.7393 27.6849L41.2273 41.4807C38.7181 42.653 37.1778 45.3268 37.3592 48.1852C37.6362 52.5216 38.3332 59.318 40.0742 66.586H73.5307V27.0619H73.5312Z" fill="#F79219"/>
<path d="M106.988 66.586C108.729 59.318 109.426 52.5212 109.703 48.1852C109.885 45.3268 108.343 42.653 105.835 41.4807L76.3236 27.6849C75.4358 27.2696 74.4838 27.0619 73.5312 27.0619V66.586H106.988Z" fill="#FFC91D"/>
<path d="M106.38 41.7718C107.091 42.9624 107.452 44.3766 107.359 45.8415C107.082 50.1774 106.385 56.9743 104.645 64.2422C104.459 65.019 104.261 65.8008 104.05 66.586H106.988C108.729 59.318 109.426 52.5211 109.703 48.1852C109.871 45.541 108.563 43.0576 106.38 41.7718Z" fill="#FFA91A"/>
<path d="M73.5312 66.586V105.654C74.0272 105.654 74.5231 105.596 75.0102 105.478C79.0484 104.497 90.5862 100.443 99.8783 84.9544C103.266 79.3069 105.506 72.7758 106.988 66.586H73.5312Z" fill="#F79219"/>
<path d="M97.5345 82.6107C88.8369 97.1091 78.1719 101.588 73.5312 102.906V105.654C74.0272 105.654 74.5231 105.596 75.0102 105.478C79.0484 104.497 90.5862 100.443 99.8783 84.9549C103.266 79.3074 105.506 72.7763 106.988 66.5865H104.05C102.582 72.0573 100.498 77.6719 97.5345 82.6107Z" fill="#EF7816"/>
<path d="M40.0747 66.586C41.5574 72.7758 43.7966 79.3069 47.1847 84.9544C56.4767 100.443 68.0146 104.497 72.0528 105.478C72.5399 105.596 73.0358 105.654 73.5313 105.654V66.586H40.0747Z" fill="#FFC91D"/>
<path d="M73.5313 81.6629C81.9838 81.6629 88.8359 74.8107 88.8359 66.3582C88.8359 57.9056 81.9838 51.0535 73.5313 51.0535C65.0787 51.0535 58.2266 57.9056 58.2266 66.3582C58.2266 74.8107 65.0787 81.6629 73.5313 81.6629Z" fill="#377DE2"/>
<path d="M83.1158 54.4299C85.2266 57.0535 86.4922 60.3854 86.4922 64.0144C86.4922 72.4669 79.6401 79.3191 71.1876 79.3191C67.5585 79.3191 64.2266 78.0535 61.603 75.9427C64.408 79.4293 68.7079 81.6629 73.5313 81.6629C81.9838 81.6629 88.836 74.8107 88.836 66.3582C88.836 61.5347 86.6029 57.2354 83.1158 54.4299V54.4299Z" fill="#2266D3"/>
<path d="M71.427 75.256C70.8299 75.256 70.2547 75.0197 69.8295 74.5946L63.8722 68.6382C62.9895 67.7555 62.9895 66.3249 63.8722 65.4427C64.7534 64.5601 66.1845 64.5605 67.0672 65.4422L71.1739 69.548L78.598 59.5538C79.3424 58.5516 80.757 58.3444 81.7592 59.0874C82.7609 59.8313 82.97 61.2469 82.2256 62.2487L73.2411 74.3438C72.8497 74.8707 72.2483 75.2016 71.5925 75.2494C71.5372 75.2541 71.4824 75.256 71.427 75.256Z" fill="white"/>
<defs>
<clipPath id="clip0_124_289">
<rect width="30" height="30" fill="white" transform="translate(118)"/>
</clipPath>
</defs>
</svg>
