<svg width="60" height="60" viewBox="0 0 60 60" fill="none" xmlns="http://www.w3.org/2000/svg">
<circle cx="30" cy="30" r="29.5" fill="white" stroke="#D8D8D8"/>
<g clip-path="url(#clip0_2103_237)">
<path d="M34.7611 27.5814C34.7198 27.5814 34.6795 27.5827 34.6404 27.5862C34.1097 27.6332 33.6867 28.3897 33.4744 28.5474L33.474 28.0935C33.474 27.6822 33.3586 27.3741 33.1831 27.1477C32.8059 26.6612 32.2415 26.5989 32.0333 26.5937C31.9927 26.5927 31.9632 26.6056 31.9537 26.6061C31.3817 26.6382 31.1652 27.0915 31.1072 27.1541C30.7406 27.549 30.5933 28.0555 30.592 28.1647C30.592 28.086 30.5919 27.848 30.5917 27.7625C30.5914 27.5374 30.5904 27.2126 30.5904 27.1738C30.5904 26.3847 29.8933 25.7448 29.227 25.7448C29.219 25.7448 29.2111 25.7449 29.2032 25.7451C28.4785 25.7619 28.1864 26.5455 27.7584 26.7985L27.7588 26.2026V22.1869C27.7588 21.1722 26.8673 20.7582 26.3173 20.7582C25.7497 20.7582 25.0195 21.3056 25.0195 22.422L24.8771 27.4657H24.0876C23.9012 27.4657 23.7148 27.495 23.546 27.5486C23.546 27.5486 22.385 28.6676 22.385 29.4676L22.4207 31.1859C22.4207 32.7087 23.1477 34.0764 24.3677 34.9743L24.6501 35.182C25.2838 35.6612 25.7409 36.4294 25.8074 37.2199C25.8166 37.3283 25.905 37.4127 26.0138 37.4127L34.3713 37.3777C34.4858 37.3777 34.5786 37.2849 34.5786 37.1704C34.5786 36.8695 34.6812 36.6607 34.7468 36.3704C34.7575 36.323 34.7767 36.2895 34.7891 36.2425C34.9114 35.7803 35.1219 35.3417 35.4009 34.9478C35.8817 34.269 36.1401 33.4557 36.1401 32.6216V28.9693C36.1401 27.9389 35.2577 27.5814 34.7611 27.5814Z" fill="#FFBE9D"/>
<path d="M35.0423 40.6357H25.3125C24.9767 40.6357 24.8564 40.5914 24.8564 40.2556V38.0512C24.8564 37.7154 24.9767 37.5951 25.3125 37.5951L25.7034 37.4431H35.0423C35.3781 37.4431 35.6504 37.7154 35.6504 38.0512V39.8755L35.4983 40.2556C35.4983 40.5914 35.3781 40.6357 35.0423 40.6357Z" fill="#99E6FC"/>
<path d="M31.8496 14.582C31.8496 14.9724 31.7654 15.343 31.6145 15.6769C31.6145 15.6769 31.3273 15.983 31.1937 16.152C30.7065 16.7686 30.0853 16.9671 29.2385 16.9671C27.7692 16.9671 26.8464 16.0604 26.8464 14.591C26.8464 13.721 27.0158 13.0213 27.6615 12.5359C27.8479 12.3958 28.2038 12.1103 28.2038 12.1103C28.5086 11.9887 28.841 11.9216 29.1892 11.9216C30.6585 11.9216 31.8496 13.1127 31.8496 14.582Z" fill="#FFE867"/>
<path d="M31.6146 15.6773C31.1976 16.6006 30.2685 17.2429 29.1893 17.2429C27.7201 17.2429 26.5288 16.0516 26.5288 14.5824C26.5288 13.4613 27.2223 12.502 28.2038 12.1107C28.0523 12.4443 27.9686 12.8151 27.9686 13.2052C27.9686 14.6744 29.1599 15.8656 30.6291 15.8656C30.9771 15.8656 31.3097 15.7988 31.6146 15.6773Z" fill="#FFE867"/>
<path d="M43.4795 19.3709C43.4795 19.7613 43.3953 20.1319 43.2443 20.4658C43.2443 20.4658 42.9572 20.7719 42.8236 20.9409C42.3364 21.5575 41.7152 21.756 40.8684 21.756C39.399 21.756 38.4763 20.8492 38.4763 19.3799C38.4763 18.5098 38.6457 17.8102 39.2914 17.3248C39.4778 17.1847 39.8337 16.8992 39.8337 16.8992C40.1385 16.7776 40.4709 16.7104 40.8191 16.7104C42.2884 16.7104 43.4795 17.9016 43.4795 19.3709Z" fill="#FFE867"/>
<path d="M43.2445 20.4661C42.8275 21.3894 41.8984 22.0317 40.8192 22.0317C39.35 22.0317 38.1587 20.8404 38.1587 19.3712C38.1587 18.2501 38.8522 17.2908 39.8337 16.8995C39.6822 17.2331 39.5985 17.604 39.5985 17.994C39.5985 19.4632 40.7897 20.6545 42.2589 20.6545C42.607 20.6545 42.9396 20.5876 43.2445 20.4661Z" fill="#FFE867"/>
<path d="M48.0784 30.8109C48.0784 31.2013 47.9942 31.5719 47.8432 31.9058C47.8432 31.9058 47.556 32.2119 47.4225 32.3809C46.9352 32.9975 46.3141 33.196 45.4673 33.196C43.9979 33.196 43.0752 32.2892 43.0752 30.8199C43.0752 29.9498 43.2446 29.2502 43.8903 28.7648C44.0767 28.6247 44.4326 28.3392 44.4326 28.3392C44.7374 28.2176 45.0698 28.1505 45.418 28.1505C46.8873 28.1505 48.0784 29.3416 48.0784 30.8109Z" fill="#FFE867"/>
<path d="M47.8433 31.9062C47.4264 32.8295 46.4973 33.4717 45.418 33.4717C43.9489 33.4717 42.7576 32.2805 42.7576 30.8113C42.7576 29.6901 43.451 28.7309 44.4326 28.3395C44.2811 28.6732 44.1973 29.044 44.1973 29.4341C44.1973 30.9032 45.3886 32.0945 46.8578 32.0945C47.2059 32.0945 47.5384 32.0276 47.8433 31.9062Z" fill="#FFE867"/>
<path d="M43.4795 42.403C43.4795 42.7934 43.3953 43.164 43.2443 43.4979C43.2443 43.4979 42.9572 43.804 42.8236 43.973C42.3364 44.5896 41.7152 44.7881 40.8684 44.7881C39.399 44.7881 38.4763 43.8813 38.4763 42.412C38.4763 41.5419 38.6457 40.8423 39.2914 40.3569C39.4778 40.2168 39.8337 39.9313 39.8337 39.9313C40.1385 39.8097 40.4709 39.7426 40.8191 39.7426C42.2884 39.7426 43.4795 40.9337 43.4795 42.403Z" fill="#FFE867"/>
<path d="M43.2445 43.4982C42.8275 44.4215 41.8984 45.0638 40.8192 45.0638C39.35 45.0638 38.1587 43.8725 38.1587 42.4033C38.1587 41.2822 38.8522 40.3229 39.8337 39.9316C39.6822 40.2652 39.5985 40.6361 39.5985 41.0261C39.5985 42.4953 40.7897 43.6866 42.2589 43.6866C42.607 43.6866 42.9396 43.6197 43.2445 43.4982Z" fill="#FFE867"/>
<path d="M31.8496 47.0398C31.8496 47.4301 31.7654 47.8008 31.6145 48.1347C31.6145 48.1347 31.3273 48.4407 31.1937 48.6098C30.7065 49.2263 30.0853 49.4249 29.2385 49.4249C27.7692 49.4249 26.8464 48.5181 26.8464 47.0488C26.8464 46.1787 27.0158 45.4791 27.6615 44.9937C27.8479 44.8536 28.2038 44.5681 28.2038 44.5681C28.5086 44.4465 28.841 44.3793 29.1892 44.3793C30.6585 44.3793 31.8496 45.5705 31.8496 47.0398Z" fill="#FFE867"/>
<path d="M31.6146 48.135C31.1976 49.0584 30.2685 49.7006 29.1893 49.7006C27.7201 49.7006 26.5288 48.5093 26.5288 47.0402C26.5288 45.919 27.2223 44.9597 28.2038 44.5684C28.0523 44.902 27.9686 45.2729 27.9686 45.6629C27.9686 47.1321 29.1599 48.3234 30.6291 48.3234C30.9771 48.3234 31.3097 48.2565 31.6146 48.135Z" fill="#FFE867"/>
<path d="M20.3714 42.403C20.3714 42.7934 20.2872 43.164 20.1362 43.4979C20.1362 43.4979 19.849 43.804 19.7155 43.973C19.2282 44.5896 18.607 44.7881 17.7602 44.7881C16.2909 44.7881 15.3682 43.8813 15.3682 42.412C15.3682 41.5419 15.5375 40.8423 16.1833 40.3569C16.3696 40.2168 16.7255 39.9313 16.7255 39.9313C17.0304 39.8097 17.3628 39.7426 17.711 39.7426C19.1802 39.7426 20.3714 40.9337 20.3714 42.403Z" fill="#FFE867"/>
<path d="M20.1363 43.4982C19.7194 44.4215 18.7902 45.0638 17.711 45.0638C16.2418 45.0638 15.0505 43.8725 15.0505 42.4033C15.0505 41.2822 15.744 40.3229 16.7256 39.9316C16.5741 40.2652 16.4903 40.6361 16.4903 41.0261C16.4903 42.4953 17.6816 43.6866 19.1508 43.6866C19.4988 43.6866 19.8314 43.6197 20.1363 43.4982Z" fill="#FFE867"/>
<path d="M15.6206 30.8109C15.6206 31.2013 15.5364 31.5719 15.3855 31.9058C15.3855 31.9058 15.0983 32.2119 14.9647 32.3809C14.4775 32.9975 13.8563 33.196 13.0095 33.196C11.5402 33.196 10.6174 32.2892 10.6174 30.8199C10.6174 29.9498 10.7868 29.2502 11.4325 28.7648C11.6189 28.6247 11.9748 28.3392 11.9748 28.3392C12.2796 28.2176 12.612 28.1505 12.9602 28.1505C14.4295 28.1505 15.6206 29.3416 15.6206 30.8109Z" fill="#FFE867"/>
<path d="M15.3856 31.9062C14.9686 32.8295 14.0395 33.4717 12.9603 33.4717C11.4911 33.4717 10.2998 32.2805 10.2998 30.8113C10.2998 29.6901 10.9933 28.7309 11.9748 28.3395C11.8233 28.6732 11.7396 29.044 11.7396 29.4341C11.7396 30.9032 12.9309 32.0945 14.4 32.0945C14.7481 32.0945 15.0807 32.0276 15.3856 31.9062Z" fill="#FFE867"/>
<path d="M20.3714 19.3709C20.3714 19.7613 20.2872 20.1319 20.1362 20.4658C20.1362 20.4658 19.849 20.7719 19.7155 20.9409C19.2282 21.5575 18.607 21.756 17.7602 21.756C16.2909 21.756 15.3682 20.8492 15.3682 19.3799C15.3682 18.5098 15.5375 17.8102 16.1833 17.3248C16.3696 17.1847 16.7255 16.8992 16.7255 16.8992C17.0304 16.7776 17.3628 16.7104 17.711 16.7104C19.1802 16.7104 20.3714 17.9016 20.3714 19.3709Z" fill="#FFE867"/>
<path d="M20.1363 20.4661C19.7194 21.3894 18.7902 22.0317 17.711 22.0317C16.2418 22.0317 15.0505 20.8404 15.0505 19.3712C15.0505 18.2501 15.744 17.2908 16.7256 16.8995C16.5741 17.2331 16.4903 17.604 16.4903 17.994C16.4903 19.4632 17.6816 20.6545 19.1508 20.6545C19.4988 20.6545 19.8314 20.5876 20.1363 20.4661Z" fill="#FFE867"/>
<path d="M29.1891 17.949C30.9704 17.949 32.4196 16.4998 32.4196 14.7184C32.4196 12.9371 30.9704 11.4879 29.1891 11.4879C27.4077 11.4879 25.9585 12.9371 25.9585 14.7184C25.9585 16.4998 27.4077 17.949 29.1891 17.949ZM29.1891 12.6281C30.3417 12.6281 31.2794 13.5658 31.2794 14.7184C31.2794 15.871 30.3417 16.8088 29.1891 16.8088C28.0365 16.8088 27.0987 15.871 27.0987 14.7184C27.0987 13.5658 28.0365 12.6281 29.1891 12.6281Z" fill="#595959"/>
<path d="M29.1891 43.9457C27.4077 43.9457 25.9585 45.3949 25.9585 47.1763C25.9585 48.4162 26.6498 49.527 27.7624 50.0755C27.8435 50.1154 27.9294 50.1343 28.0141 50.1343C28.2244 50.1343 28.4267 50.0175 28.5259 49.8161C28.665 49.5336 28.549 49.1918 28.2665 49.0526C27.5461 48.6977 27.0987 47.9787 27.0987 47.1762C27.0987 46.0236 28.0365 45.0858 29.1891 45.0858C30.3417 45.0858 31.2794 46.0236 31.2794 47.1762C31.2794 47.8717 30.9348 48.5199 30.3574 48.9099C30.0964 49.0862 30.0279 49.4405 30.2041 49.7014C30.3803 49.9624 30.7349 50.0309 30.9956 49.8547C31.8872 49.2523 32.4196 48.251 32.4196 47.1763C32.4196 45.395 30.9704 43.9457 29.1891 43.9457Z" fill="#595959"/>
<path d="M45.4181 27.7167C43.6367 27.7167 42.1875 29.1659 42.1875 30.9473C42.1875 32.7287 43.6367 34.1779 45.4181 34.1779C47.1995 34.1779 48.6486 32.7287 48.6486 30.9473C48.6486 29.1659 47.1995 27.7167 45.4181 27.7167ZM45.4181 33.0377C44.2655 33.0377 43.3277 32.0999 43.3277 30.9473C43.3277 29.7947 44.2655 28.8569 45.4181 28.8569C46.5707 28.8569 47.5084 29.7947 47.5084 30.9473C47.5084 32.0999 46.5707 33.0377 45.4181 33.0377Z" fill="#595959"/>
<path d="M40.8192 22.7377C42.6006 22.7377 44.0498 21.2885 44.0498 19.5071C44.0498 18.7793 43.8134 18.092 43.3663 17.5197C43.1723 17.2714 42.8141 17.2276 42.5661 17.4214C42.3179 17.6152 42.2739 17.9736 42.4678 18.2216C42.7569 18.5916 42.9096 19.0362 42.9096 19.5071C42.9096 20.6597 41.9718 21.5975 40.8192 21.5975C39.6666 21.5975 38.7288 20.6597 38.7288 19.5071C38.7288 18.4692 39.5025 17.5792 40.5284 17.4368C40.8403 17.3935 41.058 17.1056 41.0147 16.7937C40.9714 16.4818 40.6828 16.2639 40.3716 16.3074C38.7851 16.5276 37.5886 17.9032 37.5886 19.5071C37.5886 21.2885 39.0378 22.7377 40.8192 22.7377Z" fill="#595959"/>
<path d="M17.711 16.2767C15.9297 16.2767 14.4805 17.7259 14.4805 19.5073C14.4805 21.2887 15.9297 22.7379 17.711 22.7379C19.4924 22.7379 20.9416 21.2887 20.9416 19.5073C20.9416 17.7259 19.4924 16.2767 17.711 16.2767ZM17.711 21.5977C16.5585 21.5977 15.6207 20.6599 15.6207 19.5073C15.6207 18.3547 16.5585 17.4169 17.711 17.4169C18.8636 17.4169 19.8014 18.3547 19.8014 19.5073C19.8014 20.6599 18.8636 21.5977 17.711 21.5977Z" fill="#595959"/>
<path d="M17.711 39.3088C15.9297 39.3088 14.4805 40.758 14.4805 42.5394C14.4805 44.3208 15.9297 45.77 17.711 45.77C19.4924 45.77 20.9416 44.3208 20.9416 42.5394C20.9416 40.758 19.4924 39.3088 17.711 39.3088ZM17.711 44.6298C16.5585 44.6298 15.6207 43.692 15.6207 42.5394C15.6207 41.3868 16.5585 40.449 17.711 40.449C18.8636 40.449 19.8014 41.3868 19.8014 42.5394C19.8014 43.692 18.8636 44.6298 17.711 44.6298Z" fill="#595959"/>
<path d="M40.8192 39.3088C39.0378 39.3088 37.5886 40.758 37.5886 42.5394C37.5886 44.3208 39.0378 45.77 40.8192 45.77C42.6006 45.77 44.0498 44.3208 44.0498 42.5394C44.0498 40.758 42.6006 39.3088 40.8192 39.3088ZM40.8192 44.6298C39.6666 44.6298 38.7288 43.692 38.7288 42.5394C38.7288 41.3868 39.6666 40.449 40.8192 40.449C41.9718 40.449 42.9096 41.3868 42.9096 42.5394C42.9096 43.692 41.9718 44.6298 40.8192 44.6298Z" fill="#595959"/>
<path d="M15.7583 32.5631C15.916 32.2906 15.823 31.9419 15.5504 31.7842C15.278 31.6267 14.9292 31.7195 14.7715 31.9921C14.3983 32.637 13.7043 33.0377 12.9604 33.0377C11.8078 33.0377 10.87 32.0999 10.87 30.9473C10.87 29.7947 11.8078 28.8569 12.9604 28.8569C13.7043 28.8569 14.3983 29.2575 14.7714 29.9024C14.929 30.1749 15.2778 30.2681 15.5504 30.1102C15.8229 29.9526 15.916 29.6038 15.7582 29.3313C15.182 28.3353 14.1098 27.7167 12.9603 27.7167C11.1789 27.7167 9.72974 29.1659 9.72974 30.9473C9.72974 32.7287 11.1789 34.1779 12.9603 34.1779C14.1099 34.1779 15.182 33.5592 15.7583 32.5631Z" fill="#595959"/>
<path d="M34.7624 27.1483C34.4492 27.1483 34.1474 27.2261 33.8781 27.3647C33.5684 26.6566 32.858 26.16 32.0329 26.16C31.6431 26.16 31.2789 26.2708 30.9703 26.4624C30.6489 25.783 29.9534 25.3114 29.1493 25.3114C28.8599 25.3114 28.5815 25.3733 28.3289 25.4859V22.3233C28.3289 21.2211 27.4267 20.3245 26.3177 20.3245C25.2087 20.3245 24.3065 21.2211 24.3065 22.3233V27.0315H24.0879C22.7953 27.0315 21.7437 28.0896 21.7437 29.3901V31.3637C21.7437 33.0616 22.5562 34.6732 23.9172 35.6749C24.3601 35.9557 24.8476 36.4625 25.0377 37.0094H24.7042C24.3893 37.0094 24.1341 37.2646 24.1341 37.5795V41.0001C24.1341 41.3151 24.3893 41.5702 24.7042 41.5702H26.9836C27.2986 41.5702 27.5537 41.3151 27.5537 41.0001C27.5537 40.6852 27.2986 40.43 26.9836 40.43H25.2743V38.1496H35.0801V40.43H29.6441C29.3292 40.43 29.074 40.6852 29.074 41.0001C29.074 41.3151 29.3292 41.5702 29.6441 41.5702H35.6502C35.9651 41.5702 36.2203 41.3151 36.2203 41.0001V37.5795C36.2203 37.2646 35.9651 37.0094 35.6502 37.0094H35.2548C35.3208 36.4352 35.5289 35.8899 35.8663 35.4136C36.4184 34.6339 36.7103 33.7156 36.7103 32.758V29.1057C36.7103 28.0264 35.8365 27.1483 34.7624 27.1483ZM35.5701 32.758C35.5701 33.4782 35.3507 34.1687 34.9357 34.7546C34.461 35.4248 34.1792 36.1975 34.1091 37.0094H26.2189C26.0637 36.1886 25.388 35.2689 24.593 34.7566C23.5228 33.969 22.8839 32.7005 22.8839 31.3637V29.3901C22.8839 28.7183 23.424 28.1717 24.088 28.1717H24.3066V31.2983C24.3066 31.6105 24.5472 31.8827 24.8592 31.892C25.182 31.9017 25.4468 31.6429 25.4468 31.3222V22.3232C25.4468 21.8497 25.8375 21.4646 26.3178 21.4646C26.798 21.4646 27.1887 21.8497 27.1887 22.3232V29.3412C27.1887 29.6534 27.4293 29.9256 27.7413 29.9349C28.0642 29.9446 28.3289 29.6858 28.3289 29.3651V27.3422C28.3289 26.7101 28.8343 26.3071 29.4375 26.496C29.7682 26.5995 30.0113 26.8888 30.0202 27.3112C30.0204 27.8024 30.0256 28.8587 30.0268 29.367C30.0279 29.6811 30.2828 29.9352 30.5969 29.9352H30.5988C30.9133 29.9352 31.168 29.6796 31.167 29.3651L31.163 28.1407C31.173 27.6757 31.559 27.3003 32.033 27.3003C32.5132 27.3003 32.904 27.6854 32.904 28.1589V29.3501C32.904 29.6623 33.1445 29.9345 33.4566 29.9438C33.7794 29.9535 34.0442 29.6946 34.0442 29.3739V29.0307C34.0395 28.7235 34.3291 28.2859 34.7624 28.2886C35.2077 28.2886 35.5701 28.6552 35.5701 29.1058V32.758Z" fill="#595959"/>
</g>
<defs>
<clipPath id="clip0_2103_237">
<rect width="38.9189" height="38.9189" fill="white" transform="translate(9.72974 11.3513)"/>
</clipPath>
</defs>
</svg>
