<svg width="60" height="60" viewBox="0 0 60 60" fill="none" xmlns="http://www.w3.org/2000/svg">
<circle cx="30" cy="30" r="29.5" fill="white" stroke="#D8D8D8"/>
<g clip-path="url(#clip0_2103_196)">
<path d="M46.3856 44.0563H14.5348C13.9698 44.0563 13.5117 43.5982 13.5117 43.0332V19.3591C13.5117 18.7941 13.9698 18.3361 14.5348 18.3361H46.3856C46.9506 18.3361 47.4087 18.7941 47.4087 19.3591V43.0332C47.4087 43.5982 46.9506 44.0563 46.3856 44.0563Z" fill="#FDFCFC"/>
<path d="M47.4087 24.5607V19.3591C47.4087 18.7941 46.9506 18.3361 46.3856 18.3361H14.5348C13.9698 18.3361 13.5117 18.7941 13.5117 19.3591V24.5607H47.4087Z" fill="#FFE867"/>
<path d="M17.9166 21.4485C17.1607 21.4485 16.5479 20.8358 16.5479 20.0799V17.0014C16.5479 16.2455 17.1607 15.6327 17.9166 15.6327C18.6724 15.6327 19.2852 16.2455 19.2852 17.0014V20.0798C19.2852 20.8357 18.6724 21.4485 17.9166 21.4485Z" fill="#FFE867"/>
<path d="M23.4062 21.4485C22.6503 21.4485 22.0376 20.8358 22.0376 20.0799V17.0014C22.0376 16.2455 22.6503 15.6327 23.4062 15.6327C24.1621 15.6327 24.7749 16.2455 24.7749 17.0014V20.0798C24.7749 20.8357 24.1621 21.4485 23.4062 21.4485Z" fill="#FFE867"/>
<path d="M37.8067 21.4485C37.0508 21.4485 36.438 20.8358 36.438 20.0799V17.0014C36.438 16.2455 37.0507 15.6327 37.8067 15.6327C38.5626 15.6327 39.1754 16.2455 39.1754 17.0014V20.0798C39.1753 20.8357 38.5626 21.4485 37.8067 21.4485Z" fill="#FFE867"/>
<path d="M43.2964 21.4485C42.5405 21.4485 41.9277 20.8358 41.9277 20.0799V17.0014C41.9277 16.2455 42.5405 15.6327 43.2964 15.6327C44.0523 15.6327 44.6651 16.2455 44.6651 17.0014V20.0798C44.6651 20.8357 44.0523 21.4485 43.2964 21.4485Z" fill="#FFE867"/>
<path d="M19.9198 30.3385H18.1681C17.89 30.3385 17.6646 30.113 17.6646 29.835V28.0833C17.6646 27.8052 17.89 27.5797 18.1681 27.5797H19.9198C20.1979 27.5797 20.4234 27.8051 20.4234 28.0833V29.835C20.4234 30.113 20.198 30.3385 19.9198 30.3385Z" fill="#FFE867"/>
<path d="M19.9198 35.9447H18.1681C17.89 35.9447 17.6646 35.7193 17.6646 35.4412V33.6894C17.6646 33.4113 17.89 33.1859 18.1681 33.1859H19.9198C20.1979 33.1859 20.4234 33.4113 20.4234 33.6894V35.4412C20.4234 35.7193 20.198 35.9447 19.9198 35.9447Z" fill="#FFE867"/>
<path d="M25.6279 30.3383H23.8761C23.598 30.3383 23.3726 30.1129 23.3726 29.8348V28.0831C23.3726 27.805 23.598 27.5795 23.8761 27.5795H25.6279C25.906 27.5795 26.1314 27.8049 26.1314 28.0831V29.8348C26.1314 30.1129 25.906 30.3383 25.6279 30.3383Z" fill="#FFE867"/>
<path d="M25.6279 35.9447H23.8761C23.598 35.9447 23.3726 35.7193 23.3726 35.4412V33.6894C23.3726 33.4113 23.598 33.1859 23.8761 33.1859H25.6279C25.906 33.1859 26.1314 33.4113 26.1314 33.6894V35.4412C26.1314 35.7193 25.906 35.9447 25.6279 35.9447Z" fill="#FFE867"/>
<path d="M31.3354 30.3383H29.5836C29.3056 30.3383 29.0801 30.1129 29.0801 29.8348V28.0831C29.0801 27.805 29.3055 27.5795 29.5836 27.5795H31.3354C31.6136 27.5795 31.839 27.8049 31.839 28.0831V29.8348C31.839 30.1129 31.6136 30.3383 31.3354 30.3383Z" fill="#FFE867"/>
<path d="M31.3354 35.9447H29.5836C29.3056 35.9447 29.0801 35.7193 29.0801 35.4412V33.6894C29.0801 33.4113 29.3055 33.1859 29.5836 33.1859H31.3354C31.6136 33.1859 31.839 33.4113 31.839 33.6894V35.4412C31.839 35.7193 31.6136 35.9447 31.3354 35.9447Z" fill="#FFE867"/>
<path d="M37.0434 30.3383H35.2916C35.0136 30.3383 34.7881 30.1129 34.7881 29.8348V28.0831C34.7881 27.805 35.0135 27.5795 35.2916 27.5795H37.0434C37.3215 27.5795 37.547 27.8049 37.547 28.0831V29.8348C37.547 30.1129 37.3215 30.3383 37.0434 30.3383Z" fill="#FFE867"/>
<path d="M42.7514 30.3383H40.9996C40.7215 30.3383 40.4961 30.1129 40.4961 29.8348V28.0831C40.4961 27.805 40.7215 27.5795 40.9996 27.5795H42.7514C43.0295 27.5795 43.2549 27.8049 43.2549 28.0831V29.8348C43.2549 30.1129 43.0295 30.3383 42.7514 30.3383Z" fill="#FFE867"/>
<path d="M19.9198 41.5514H18.1681C17.89 41.5514 17.6646 41.326 17.6646 41.0479V39.2961C17.6646 39.018 17.89 38.7925 18.1681 38.7925H19.9198C20.1979 38.7925 20.4234 39.018 20.4234 39.2961V41.0479C20.4234 41.3259 20.198 41.5514 19.9198 41.5514Z" fill="#FFE867"/>
<path d="M25.6279 41.5514H23.8761C23.598 41.5514 23.3726 41.326 23.3726 41.0479V39.2961C23.3726 39.018 23.598 38.7925 23.8761 38.7925H25.6279C25.906 38.7925 26.1314 39.018 26.1314 39.2961V41.0479C26.1314 41.3259 25.906 41.5514 25.6279 41.5514Z" fill="#FFE867"/>
<path d="M31.3354 41.5514H29.5836C29.3056 41.5514 29.0801 41.326 29.0801 41.0479V39.2961C29.0801 39.018 29.3055 38.7925 29.5836 38.7925H31.3354C31.6136 38.7925 31.839 39.018 31.839 39.2961V41.0479C31.839 41.3259 31.6136 41.5514 31.3354 41.5514Z" fill="#FFE867"/>
<path d="M44.8049 38.3895C44.8049 35.6815 42.5778 33.4937 39.8553 33.5578C37.3435 33.617 35.2154 35.7312 35.1409 38.2426C35.0811 40.2552 36.2524 42.0011 37.9575 42.784C38.0529 42.8278 38.1344 42.897 38.1942 42.9832L39.688 45.1389C39.8253 45.3371 40.1183 45.3371 40.2556 45.1389L41.7495 42.9832C41.8095 42.8967 41.8914 42.8275 41.987 42.7836C43.65 42.0195 44.8049 40.3395 44.8049 38.3895Z" fill="#FFE867"/>
<path d="M41.9909 38.7551C42.1728 37.6468 41.4218 36.6009 40.3135 36.419C39.2052 36.2371 38.1592 36.9881 37.9773 38.0964C37.7954 39.2047 38.5464 40.2506 39.6547 40.4325C40.763 40.6144 41.809 39.8634 41.9909 38.7551Z" fill="#FDFCFC"/>
<path d="M46.3854 17.8245H45.1767V17.0013C45.1767 15.9646 44.3332 15.1211 43.2964 15.1211C42.2597 15.1211 41.4163 15.9646 41.4163 17.0013V17.8245H39.6868V17.0013C39.6868 15.9646 38.8433 15.1211 37.8066 15.1211C36.7699 15.1211 35.9265 15.9646 35.9265 17.0013V17.8245H31.0811C30.7986 17.8245 30.5695 18.0536 30.5695 18.3361C30.5695 18.6186 30.7986 18.8476 31.0811 18.8476H35.9265V20.0797C35.9265 21.1165 36.7699 21.96 37.8066 21.96C38.8434 21.96 39.6868 21.1165 39.6868 20.0797V18.8476H41.4163V20.0797C41.4163 21.1165 42.2598 21.96 43.2964 21.96C44.3332 21.96 45.1767 21.1165 45.1767 20.0797V18.8476H46.3854C46.6675 18.8476 46.8969 19.077 46.8969 19.3591V24.0492H14.023V19.3591C14.023 19.077 14.2525 18.8476 14.5346 18.8476H16.0363V20.0797C16.0363 21.1165 16.8797 21.96 17.9164 21.96C18.9532 21.96 19.7966 21.1165 19.7966 20.0797V18.8476H21.5261V20.0797C21.5261 21.1165 22.3695 21.96 23.4062 21.96C24.443 21.96 25.2865 21.1165 25.2865 20.0797V18.8476H29.0349C29.3174 18.8476 29.5464 18.6186 29.5464 18.3361C29.5464 18.0536 29.3174 17.8245 29.0349 17.8245H25.2865V17.0013C25.2865 15.9646 24.443 15.1211 23.4062 15.1211C22.3695 15.1211 21.5261 15.9646 21.5261 17.0013V17.8245H19.7966V17.0013C19.7966 15.9646 18.9531 15.1211 17.9164 15.1211C16.8797 15.1211 16.0363 15.9646 16.0363 17.0013V17.8245H14.5346C13.6884 17.8245 13 18.5129 13 19.3591V43.0332C13 43.8794 13.6884 44.5678 14.5346 44.5678H22.4307C22.7132 44.5678 22.9422 44.3388 22.9422 44.0563C22.9422 43.7738 22.7132 43.5447 22.4307 43.5447H14.5346C14.2525 43.5447 14.023 43.3153 14.023 43.0332V25.0722H46.8969V43.0332C46.8969 43.3153 46.6675 43.5447 46.3854 43.5447H41.9824L42.1697 43.2744C42.1778 43.2628 42.1884 43.2537 42.2003 43.2482C44.0931 42.3787 45.3162 40.4715 45.3162 38.3894C45.3162 36.938 44.7443 35.5801 43.7059 34.5657C42.6677 33.5518 41.2966 33.0128 39.843 33.0463C37.0511 33.112 34.7123 35.4362 34.6294 38.2272C34.5655 40.3796 35.788 42.3507 37.7439 43.2487C37.7553 43.2539 37.7655 43.2627 37.7735 43.2743L37.9608 43.5447H24.4768C24.1943 43.5447 23.9653 43.7737 23.9653 44.0562C23.9653 44.3387 24.1943 44.5677 24.4768 44.5677H38.6302C38.6431 44.5677 38.6558 44.5667 38.6684 44.5658L39.2673 45.43C39.4273 45.661 39.6906 45.7989 39.9716 45.7989C40.2525 45.7989 40.5158 45.661 40.6758 45.4301L41.2754 44.5648C41.2933 44.5667 41.3115 44.5677 41.3299 44.5677H46.3854C47.2316 44.5677 47.92 43.8794 47.92 43.0332V19.3591C47.92 18.5129 47.2316 17.8245 46.3854 17.8245ZM38.6637 20.0797C38.6637 20.5523 38.2792 20.9368 37.8066 20.9368C37.334 20.9368 36.9495 20.5523 36.9495 20.0797V17.0012C36.9495 16.5286 37.3341 16.1441 37.8066 16.1441C38.2793 16.1441 38.6637 16.5286 38.6637 17.0012V20.0797ZM44.1536 20.0797C44.1536 20.5523 43.7691 20.9368 43.2964 20.9368C42.8238 20.9368 42.4393 20.5523 42.4393 20.0797V17.0012C42.4393 16.5286 42.8239 16.1441 43.2964 16.1441C43.7691 16.1441 44.1536 16.5286 44.1536 17.0012V20.0797ZM22.5491 17.0012C22.5491 16.5286 22.9336 16.1441 23.4062 16.1441C23.8789 16.1441 24.2634 16.5286 24.2634 17.0012V20.0797C24.2634 20.5523 23.8789 20.9368 23.4062 20.9368C22.9336 20.9368 22.5491 20.5523 22.5491 20.0797V17.0012ZM17.0593 17.0012C17.0593 16.5286 17.4438 16.1441 17.9164 16.1441C18.3891 16.1441 18.7735 16.5286 18.7735 17.0012V20.0797C18.7735 20.5523 18.389 20.9368 17.9164 20.9368C17.4438 20.9368 17.0593 20.5523 17.0593 20.0797V17.0012ZM39.9716 44.6502L38.6145 42.6917C38.5022 42.5295 38.3488 42.4006 38.1708 42.3189C36.589 41.5927 35.6003 39.9985 35.652 38.2576C35.6841 37.1745 36.1432 36.1395 36.9445 35.3433C37.7458 34.5471 38.7837 34.0946 39.8671 34.0691C39.9023 34.0683 39.9372 34.0679 39.9723 34.0679C41.1082 34.0679 42.1767 34.5022 42.991 35.2976C43.8307 36.1178 44.2932 37.2158 44.2932 38.3895C44.2932 40.0731 43.3041 41.6154 41.7733 42.3186C41.595 42.4006 41.4413 42.5295 41.329 42.6916L39.9716 44.6502Z" fill="#595959"/>
<path d="M20.9352 28.0832C20.9352 27.5235 20.4798 27.0682 19.9201 27.0682H18.1684C17.6087 27.0682 17.1533 27.5235 17.1533 28.0832V29.835C17.1533 30.3947 17.6087 30.85 18.1684 30.85H19.9201C20.4798 30.85 20.9352 30.3947 20.9352 29.835V28.0832ZM19.9121 29.8271H18.1764V28.0913H19.9122L19.9121 29.8271Z" fill="#595959"/>
<path d="M20.9352 33.6896C20.9352 33.1299 20.4798 32.6745 19.9201 32.6745H18.1684C17.6087 32.6745 17.1533 33.1299 17.1533 33.6896V35.4414C17.1533 36.0011 17.6087 36.4564 18.1684 36.4564H19.9201C20.4798 36.4564 20.9352 36.0011 20.9352 35.4414V33.6896ZM19.9121 35.4334H18.1764V33.6975H19.9122L19.9121 35.4334Z" fill="#595959"/>
<path d="M23.8764 30.85H25.6282C26.1879 30.85 26.6433 30.3947 26.6433 29.835V28.0832C26.6433 27.5235 26.1879 27.0682 25.6282 27.0682H23.8764C23.3167 27.0682 22.8613 27.5235 22.8613 28.0832V29.835C22.8613 30.3946 23.3167 30.85 23.8764 30.85ZM23.8844 28.0912H25.6202V29.827H23.8844V28.0912Z" fill="#595959"/>
<path d="M22.8613 35.4414C22.8613 36.0011 23.3167 36.4564 23.8764 36.4564H25.6282C26.1879 36.4564 26.6433 36.0011 26.6433 35.4414V33.6896C26.6433 33.1299 26.1879 32.6745 25.6282 32.6745H23.8764C23.3167 32.6745 22.8613 33.1299 22.8613 33.6896V35.4414ZM23.8844 33.6975H25.6202V35.4334H23.8844V33.6975Z" fill="#595959"/>
<path d="M29.5839 30.85H31.3357C31.8955 30.85 32.3508 30.3947 32.3508 29.835V28.0832C32.3508 27.5235 31.8955 27.0682 31.3357 27.0682H29.5839C29.0242 27.0682 28.5688 27.5235 28.5688 28.0832V29.835C28.5688 30.3946 29.0242 30.85 29.5839 30.85ZM29.5919 28.0912H31.3277V29.827H29.5919V28.0912Z" fill="#595959"/>
<path d="M28.5688 35.4414C28.5688 36.0011 29.0242 36.4564 29.5839 36.4564H31.3357C31.8955 36.4564 32.3508 36.0011 32.3508 35.4414V33.6896C32.3508 33.1299 31.8955 32.6745 31.3357 32.6745H29.5839C29.0242 32.6745 28.5688 33.1299 28.5688 33.6896V35.4414ZM29.5919 33.6975H31.3277V35.4334H29.5919V33.6975Z" fill="#595959"/>
<path d="M37.0437 30.85C37.6034 30.85 38.0587 30.3947 38.0587 29.835V28.0832C38.0587 27.5235 37.6034 27.0682 37.0437 27.0682H35.2919C34.7322 27.0682 34.2769 27.5235 34.2769 28.0832V29.835C34.2769 30.3947 34.7322 30.85 35.2919 30.85H37.0437ZM35.2998 28.0912H37.0356V29.827H35.2998V28.0912Z" fill="#595959"/>
<path d="M42.7517 30.85C43.3114 30.85 43.7667 30.3947 43.7667 29.835V28.0832C43.7667 27.5235 43.3113 27.0682 42.7517 27.0682H40.9999C40.4403 27.0682 39.9849 27.5235 39.9849 28.0832V29.835C39.9849 30.3947 40.4403 30.85 40.9999 30.85H42.7517ZM41.0079 28.0912H42.7437V29.827H41.0079V28.0912Z" fill="#595959"/>
<path d="M19.9201 38.2812H18.1684C17.6087 38.2812 17.1533 38.7365 17.1533 39.2963V41.048C17.1533 41.6077 17.6087 42.0631 18.1684 42.0631H19.9201C20.4798 42.0631 20.9352 41.6077 20.9352 41.048V39.2963C20.9352 38.7366 20.4798 38.2812 19.9201 38.2812ZM19.9121 41.0401H18.1764V39.3043H19.9122L19.9121 41.0401Z" fill="#595959"/>
<path d="M26.6433 41.048V39.2963C26.6433 38.7365 26.1879 38.2812 25.6282 38.2812H23.8764C23.3167 38.2812 22.8613 38.7365 22.8613 39.2963V41.048C22.8613 41.6077 23.3167 42.0631 23.8764 42.0631H25.6282C26.1879 42.0631 26.6433 41.6077 26.6433 41.048ZM25.6202 41.04H23.8844V39.3042H25.6202V41.04Z" fill="#595959"/>
<path d="M28.5688 41.048C28.5688 41.6077 29.0242 42.0631 29.5839 42.0631H31.3357C31.8955 42.0631 32.3508 41.6077 32.3508 41.048V39.2963C32.3508 38.7365 31.8955 38.2812 31.3357 38.2812H29.5839C29.0242 38.2812 28.5688 38.7365 28.5688 39.2963V41.048ZM29.5919 39.3042H31.3277V41.0399H29.5919V39.3042Z" fill="#595959"/>
<path d="M42.5162 38.4218C42.5162 37.0187 41.3746 35.8771 39.9715 35.8771C38.5683 35.8771 37.4268 37.0187 37.4268 38.4218C37.4268 39.8249 38.5683 40.9665 39.9715 40.9665C41.3747 40.9665 42.5162 39.825 42.5162 38.4218ZM39.9716 39.9435C39.1325 39.9435 38.4499 39.2608 38.4499 38.4218C38.4499 37.5828 39.1324 36.9001 39.9716 36.9001C40.8106 36.9001 41.4932 37.5828 41.4932 38.4218C41.4932 39.2609 40.8106 39.9435 39.9716 39.9435Z" fill="#595959"/>
</g>
<defs>
<clipPath id="clip0_2103_196">
<rect width="34.92" height="34.92" fill="white" transform="translate(13 13)"/>
</clipPath>
</defs>
</svg>
