<svg width="60" height="60" viewBox="0 0 60 60" fill="none" xmlns="http://www.w3.org/2000/svg">
<circle cx="30" cy="30" r="29.5" fill="white" stroke="#D8D8D8"/>
<g clip-path="url(#clip0_2103_174)">
<path d="M40.771 27.6537H20.1492C15.9759 27.6537 12.5928 24.2705 12.5928 20.0973C12.5928 15.9239 15.9759 12.5408 20.1492 12.5408H40.771C44.9444 12.5408 48.3274 15.9239 48.3274 20.0972C48.3274 24.2705 44.9443 27.6537 40.771 27.6537Z" fill="#FFE867"/>
<path d="M17.5131 23.4612V17.059H20.6189C21.3332 17.059 21.8811 17.2073 22.2625 17.504C22.65 17.8006 22.8437 18.2032 22.8437 18.7118C22.8437 19.0871 22.7317 19.408 22.5077 19.6744C22.2898 19.9407 21.9901 20.1224 21.6087 20.2192V20.0739C22.0627 20.1526 22.4109 20.3282 22.653 20.6006C22.9012 20.867 23.0253 21.2151 23.0253 21.645C23.0253 22.208 22.8195 22.653 22.4078 22.9799C21.9961 23.3007 21.4331 23.4612 20.7187 23.4612H17.5131ZM19.1205 22.2352H20.5008C20.8156 22.2352 21.0487 22.1777 21.2 22.0627C21.3574 21.9477 21.4361 21.7691 21.4361 21.5269C21.4361 21.2787 21.3574 21.1001 21.2 20.9911C21.0487 20.8822 20.8156 20.8277 20.5008 20.8277H19.1205V22.2352ZM19.1205 19.6017H20.3101C20.631 19.6017 20.864 19.5472 21.0093 19.4383C21.1607 19.3293 21.2364 19.1628 21.2364 18.9388C21.2364 18.7148 21.1607 18.5513 21.0093 18.4484C20.864 18.3395 20.631 18.285 20.3101 18.285H19.1205V19.6017ZM23.708 20.2556C23.708 19.5896 23.8381 19.0115 24.0985 18.5211C24.3588 18.0246 24.7311 17.6402 25.2154 17.3678C25.6998 17.0953 26.2719 16.9591 26.9318 16.9591C27.5977 16.9591 28.1728 17.0953 28.6572 17.3678C29.1415 17.6402 29.5138 18.0246 29.7741 18.5211C30.0405 19.0115 30.1737 19.5896 30.1737 20.2556C30.1737 20.9155 30.0405 21.4936 29.7741 21.99C29.5138 22.4865 29.1415 22.8739 28.6572 23.1524C28.1728 23.4249 27.5977 23.5611 26.9318 23.5611C26.2719 23.5611 25.6998 23.4249 25.2154 23.1524C24.7372 22.8739 24.3648 22.4865 24.0985 21.99C23.8381 21.4936 23.708 20.9155 23.708 20.2556ZM25.4606 20.2556C25.4606 20.8549 25.5817 21.3241 25.8239 21.6631C26.066 21.9961 26.4353 22.1626 26.9318 22.1626C27.4282 22.1626 27.8005 21.9961 28.0487 21.6631C28.297 21.3241 28.4211 20.8549 28.4211 20.2556C28.4211 19.6562 28.297 19.19 28.0487 18.8571C27.8005 18.5241 27.4282 18.3576 26.9318 18.3576C26.4353 18.3576 26.066 18.5241 25.8239 18.8571C25.5817 19.184 25.4606 19.6502 25.4606 20.2556ZM31.0065 20.2556C31.0065 19.5896 31.1367 19.0115 31.397 18.5211C31.6574 18.0246 32.0297 17.6402 32.514 17.3678C32.9983 17.0953 33.5704 16.9591 34.2303 16.9591C34.8963 16.9591 35.4714 17.0953 35.9557 17.3678C36.4401 17.6402 36.8124 18.0246 37.0727 18.5211C37.3391 19.0115 37.4723 19.5896 37.4723 20.2556C37.4723 20.9155 37.3391 21.4936 37.0727 21.99C36.8124 22.4865 36.4401 22.8739 35.9557 23.1524C35.4714 23.4249 34.8963 23.5611 34.2303 23.5611C33.5704 23.5611 32.9983 23.4249 32.514 23.1524C32.0357 22.8739 31.6634 22.4865 31.397 21.99C31.1367 21.4936 31.0065 20.9155 31.0065 20.2556ZM32.7592 20.2556C32.7592 20.8549 32.8803 21.3241 33.1224 21.6631C33.3646 21.9961 33.7339 22.1626 34.2303 22.1626C34.7268 22.1626 35.0991 21.9961 35.3473 21.6631C35.5955 21.3241 35.7196 20.8549 35.7196 20.2556C35.7196 19.6562 35.5955 19.19 35.3473 18.8571C35.0991 18.5241 34.7268 18.3576 34.2303 18.3576C33.7339 18.3576 33.3646 18.5241 33.1224 18.8571C32.8803 19.184 32.7592 19.6502 32.7592 20.2556ZM38.4776 23.4612V17.059H40.1576V19.8015H40.1758L42.6277 17.059H44.5892L41.4835 20.4281V19.7652L44.7618 23.4612H42.7367L40.1758 20.5734H40.1576V23.4612H38.4776Z" fill="#595959"/>
<path d="M19.4805 37.5318L26.9014 44.9527C27.2441 45.2954 27.2441 45.8509 26.9014 46.1935L24.9728 48.122C24.6302 48.4647 24.0746 48.4647 23.732 48.122L16.3112 40.7011C15.9685 40.3585 15.9685 39.8029 16.3112 39.4603L18.2398 37.5318C18.5824 37.1892 19.1379 37.1892 19.4805 37.5318Z" fill="#99E6FC"/>
<path d="M35.57 22.4604C34.9757 21.8661 34.0122 21.8661 33.4179 22.4604L28.2266 27.6517L26.2171 27.7172C25.3744 27.7447 24.5836 28.1308 24.0437 28.7783C22.5307 30.5255 21.0407 32.4367 20.0734 34.5431C19.3784 35.9942 19.6745 37.7258 20.8122 38.8635L26.2345 44.2857L28.3761 43.7752C29.1861 43.5822 29.9266 43.1682 30.5153 42.5794L36.9905 36.1043C37.5847 35.51 37.5847 34.5465 36.9905 33.9523C36.3962 33.358 35.4327 33.358 34.8384 33.9523L35.4938 33.2969C36.0811 32.7096 36.1181 31.7517 35.546 31.1494C34.9545 30.5266 33.9697 30.517 33.366 31.1207C33.9602 30.5264 33.9602 29.5629 33.366 28.9686C32.7717 28.3744 31.8082 28.3744 31.2139 28.9686L35.5701 24.6125C36.1642 24.0182 36.1642 23.0547 35.57 22.4604Z" fill="#FFBE9D"/>
<path d="M17.1517 41.5417L16.3112 40.7012C15.9685 40.3585 15.9685 39.803 16.3112 39.4604L18.2398 37.5318C18.5824 37.1892 19.138 37.1892 19.4805 37.5318L26.9014 44.9527C27.2441 45.2954 27.2441 45.8509 26.9014 46.1935L24.9728 48.122C24.6302 48.4647 24.0746 48.4647 23.732 48.122L18.9417 43.3317" stroke="#595959" stroke-width="1.1402" stroke-miterlimit="10" stroke-linecap="round" stroke-linejoin="round"/>
<path d="M35.57 22.4604C34.9757 21.8661 34.0122 21.8661 33.4179 22.4604L28.2266 27.6517L26.2171 27.7172C25.3744 27.7447 24.5836 28.1308 24.0437 28.7783C22.5307 30.5255 21.0407 32.4367 20.0734 34.5431C19.3784 35.9942 19.6745 37.7258 20.8122 38.8635L26.2345 44.2857L28.3761 43.7752C29.1861 43.5822 29.9266 43.1682 30.5153 42.5794L36.9905 36.1043C37.5847 35.51 37.5847 34.5465 36.9905 33.9523C36.3962 33.358 35.4327 33.358 34.8384 33.9523L35.4938 33.2969C36.0811 32.7096 36.1181 31.7517 35.546 31.1494C34.9545 30.5266 33.9697 30.517 33.366 31.1207C33.9602 30.5264 33.9602 29.5629 33.366 28.9686C32.7717 28.3744 31.8082 28.3744 31.2139 28.9686L35.5701 24.6125C36.1642 24.0182 36.1642 23.0547 35.57 22.4604Z" stroke="#595959" stroke-width="1.1402" stroke-miterlimit="10" stroke-linecap="round" stroke-linejoin="round"/>
<path d="M28.2264 27.6518L26.4424 29.4359" stroke="#595959" stroke-width="1.1402" stroke-miterlimit="10" stroke-linecap="round" stroke-linejoin="round"/>
<path d="M40.771 27.6535C42.8571 27.6535 44.7463 26.8076 46.1143 25.4404C47.4815 24.0732 48.3273 22.184 48.3273 20.0971C48.3273 15.9241 44.9439 12.5408 40.771 12.5408H20.1491C18.063 12.5408 16.1737 13.3866 14.8058 14.7538C13.4386 16.1217 12.5928 18.011 12.5928 20.0971C12.5928 24.2708 15.9761 27.6535 20.1491 27.6535H28.1828" stroke="#595959" stroke-width="1.1402" stroke-miterlimit="10" stroke-linecap="round" stroke-linejoin="round"/>
<path d="M32.5288 27.6535H38.2424" stroke="#595959" stroke-width="1.1402" stroke-miterlimit="10" stroke-linecap="round" stroke-linejoin="round"/>
</g>
<defs>
<clipPath id="clip0_2103_174">
<rect width="36.92" height="36.92" fill="white" transform="translate(12 12)"/>
</clipPath>
</defs>
</svg>
