<svg width="160" height="7" viewBox="0 0 160 7" fill="none" xmlns="http://www.w3.org/2000/svg">
<path d="M95.6652 5.62943C95.0576 5.72601 94.1463 5.78637 94.2982 5.96746C94.2982 6.00368 93.9185 6.01575 93.6907 6.01575C92.4756 6.01575 92.0199 5.93124 92.0199 5.75015C92.0199 5.71393 92.0199 5.67772 91.7161 5.66564C91.4883 5.66564 91.1845 5.68979 91.2605 5.62943C91.2605 5.59321 91.4883 5.58114 91.7161 5.58114C92.1718 5.56906 92.5515 5.54492 92.3237 5.44834C92.1718 5.38797 91.5642 5.35176 90.9567 5.3759C90.9567 5.38798 90.9567 5.40005 90.9567 5.40005C91.1845 5.42419 91.6402 5.40005 91.7161 5.47248C91.7161 5.52077 91.3364 5.53285 91.1845 5.5087C90.8808 5.46041 90.1972 5.55699 90.1972 5.42419C90.1972 5.36383 90.1972 5.31554 89.9694 5.26725C89.8175 5.21896 89.5137 5.19481 89.21 5.19481C88.9062 5.19481 88.8302 5.2431 88.6784 5.27932C88.4505 5.31554 88.5265 5.52077 87.6911 5.35176C87.6152 5.32761 87.3873 5.33968 87.3114 5.36383C87.0835 5.40005 87.0835 5.44834 87.1595 5.49663C87.2354 5.53285 87.3873 5.53285 87.6152 5.52077C88.3746 5.47248 88.9062 5.49663 89.21 5.6415C89.3619 5.72601 89.8175 5.78637 90.1213 5.87088C89.6656 5.84673 89.21 5.81051 88.8302 5.89502C88.1468 5.82259 88.0708 5.87088 88.0708 5.96746C88.0708 6.00368 87.767 6.00368 87.6911 5.96746C87.3873 5.89502 87.3873 5.83466 87.843 5.76222C87.9949 5.73808 88.2986 5.68979 88.0708 5.6415C87.843 5.60528 87.6152 5.60528 87.2355 5.61735C86.7038 5.6415 86.2482 5.70186 85.8685 5.76222C85.4888 5.81051 85.9444 5.82259 86.2482 5.82259C86.6279 5.82259 86.9317 5.83466 86.7038 5.90709C86.7038 5.91917 86.5519 5.94331 86.5519 5.94331C86.0963 5.89502 85.6406 5.84673 85.2609 5.79844C84.9571 5.76222 85.0331 5.73808 85.2609 5.70186C85.5647 5.62943 85.5647 5.55699 85.0331 5.5087C84.8052 5.49663 84.7293 5.46041 84.6534 5.42419C84.3496 5.29139 84.2736 5.29139 83.6661 5.3759C83.3623 5.41212 82.9826 5.42419 82.6029 5.42419C82.375 5.42419 82.0713 5.43626 82.0713 5.38797C81.9954 5.35176 82.2991 5.35176 82.451 5.32761C82.8307 5.27932 82.8307 5.27932 82.5269 5.1586C82.451 5.35176 81.3878 5.31554 80.5524 5.42419C81.0081 5.27932 80.8562 5.20689 80.0967 5.20689C79.0335 5.20689 79.0336 5.33968 79.0336 5.46041C78.7298 5.46041 78.6538 5.42419 78.5779 5.40005C78.5019 5.33968 78.2741 5.31554 77.8944 5.31554C77.5147 5.32761 77.4387 5.36383 77.4387 5.41212C77.4387 5.44834 77.5147 5.49663 77.2109 5.5087C76.9071 5.52077 77.059 5.43626 76.9831 5.44834C76.6033 5.52077 76.0718 5.47248 75.6161 5.49663C75.0085 5.53285 75.3123 5.61735 75.4642 5.72601C74.4769 5.58114 73.7934 5.61735 73.3378 5.76222C72.9581 5.66564 73.3378 5.59321 73.4137 5.52077C73.6415 5.32761 73.4897 5.27932 72.2746 5.30347C71.1354 5.32761 69.9963 5.27932 68.8571 5.35176C68.4014 5.3759 68.0217 5.27932 67.4141 5.30347C66.1991 5.35176 66.0472 5.35176 66.1231 5.55699C66.1231 5.58114 66.1231 5.59321 66.1231 5.61735C65.4397 5.53285 65.4396 5.52077 65.6675 5.40005C65.8193 5.33968 65.7434 5.29139 65.2877 5.29139C64.4524 5.30347 63.617 5.2431 62.8575 5.29139C62.6297 5.30347 62.25 5.30347 62.1741 5.26725C61.7943 5.12238 61.3387 5.23103 61.1108 5.26725C60.5792 5.3759 60.4273 5.30347 60.3514 5.23103C60.2755 5.17067 60.1995 5.11031 59.7439 5.09823C59.516 5.12238 59.592 5.1586 59.516 5.18274C59.2882 5.29139 59.1363 5.42419 58.225 5.29139C57.9972 5.25518 57.7693 5.27932 57.5415 5.31554C56.5542 5.44834 55.567 5.42419 54.4278 5.36383C53.7443 5.32761 52.9849 5.26725 52.2255 5.35176C51.9217 5.38797 51.542 5.36383 51.3141 5.30347C51.1622 5.26725 51.0863 5.21896 50.7066 5.20689C50.7066 5.21896 50.6306 5.2431 50.7066 5.25518C50.7825 5.30347 51.1623 5.36383 50.7825 5.38797C50.4788 5.41212 50.099 5.36383 49.9471 5.31554C49.7193 5.2431 49.6434 5.25518 49.2637 5.29139C48.9599 5.32761 48.3523 5.38798 48.1245 5.31554C47.8967 5.2431 47.8967 5.12238 48.5802 5.07409C48.8839 5.04994 49.5674 5.06201 49.4155 4.96543C49.3396 4.88093 48.808 4.85678 48.3523 4.83264C47.6688 4.79642 47.0613 4.78435 46.5297 4.86885C45.9981 4.95336 45.2386 4.90507 44.6311 4.893C43.416 4.893 42.2768 4.90507 41.0617 4.90507C40.682 4.90507 40.2264 4.90507 39.9226 4.90507C38.8594 4.91714 37.7202 4.91714 36.733 4.98958C36.5811 5.00165 36.5051 5.0258 36.5811 5.04994C36.657 5.08616 36.8849 5.1103 37.1127 5.1103C38.1759 5.08616 39.315 5.1586 40.3783 5.06202C41.1377 5.00165 42.049 5.06201 42.8844 5.04994C43.2641 5.04994 43.4919 5.12238 43.6438 5.17067C43.7957 5.19481 43.7957 5.23103 43.5679 5.2431C43.3401 5.25518 43.1882 5.25518 43.1122 5.21896C42.8844 5.12238 42.6566 5.11031 42.2768 5.19481C42.2009 5.20689 41.9731 5.21896 41.9731 5.20689C41.1377 5.12238 40.8339 5.20689 40.3783 5.29139C39.5429 5.43626 39.6948 5.23103 39.2391 5.19481C39.0113 5.27932 38.7834 5.36383 38.3278 5.41212C38.1759 5.43626 37.9481 5.46041 37.7202 5.44834C37.5683 5.43626 37.4924 5.41212 37.5683 5.40005C37.7962 5.27932 37.5683 5.26725 36.9608 5.31554C36.8089 5.32761 36.657 5.31554 36.5811 5.27932C37.0367 5.14652 36.3532 4.94129 35.4419 4.96543C34.4547 4.98958 33.2395 4.95336 32.632 5.17067C32.4042 5.2431 31.7207 5.29139 31.6447 5.41212C31.6447 5.46041 31.341 5.5087 30.9613 5.49663C30.4296 5.46041 30.9613 5.43626 31.0372 5.40005C31.1131 5.33968 30.8853 5.33968 30.5815 5.32761C30.2778 5.32761 30.1259 5.29139 30.0499 5.25518C29.974 5.21896 30.1259 5.18274 30.4296 5.18274C30.7334 5.17067 31.0372 5.18274 31.0372 5.1103C31.0372 5.07409 30.8853 5.04994 30.6575 5.04994C30.2778 5.04994 29.8221 5.0258 29.5943 5.08616C29.5183 5.13445 29.5943 5.17067 29.1386 5.14652C28.8348 5.13445 28.8348 5.18274 28.8348 5.21896C28.8348 5.27932 28.8348 5.33968 29.2905 5.35176C29.5943 5.36383 29.974 5.3759 29.8221 5.43627C29.6702 5.5087 29.0627 5.5087 28.6829 5.54492C28.4551 5.56906 28.1513 5.54492 28.0754 5.49663C27.9994 5.42419 27.6197 5.36383 27.7716 5.29139C27.8476 5.2431 27.7716 5.21896 27.4678 5.20689C27.316 5.19481 27.0881 5.18274 26.9362 5.21896C26.7843 5.25518 27.0122 5.29139 27.0881 5.31554C27.1641 5.35176 27.24 5.3759 27.3919 5.41212C27.4678 5.44834 27.3919 5.49663 27.1641 5.47248C26.7084 5.41212 26.0249 5.47248 25.6452 5.3759C25.4933 5.32761 25.3414 5.33968 25.1136 5.3759C24.9617 5.40005 24.6579 5.42419 25.0376 5.44834C25.1895 5.46041 25.3414 5.47248 25.1895 5.5087C25.1136 5.52077 24.8858 5.53285 24.8098 5.52077C24.0504 5.40005 23.215 5.5087 22.4556 5.5087C21.848 5.5087 21.1645 5.42419 20.481 5.53284C20.3291 5.55699 19.4938 5.47248 19.0381 5.42419C18.8862 5.41212 18.9622 5.35176 19.2659 5.33968H19.3419C20.7848 5.47248 21.2405 5.26725 21.9999 5.12238C22.0758 5.27932 22.8353 5.30347 23.4428 5.36383C23.8985 5.41212 24.2023 5.32761 24.582 5.29139C24.7339 5.26725 24.8098 5.21896 24.7339 5.21896C24.1263 5.23103 23.9744 5.11031 23.3669 5.12238C22.2277 5.13445 21.0886 5.06201 20.1773 5.23103C19.9494 5.26725 19.7216 5.2431 19.4938 5.21896C19.0381 5.1586 18.3546 5.1586 17.9749 5.19481C17.2155 5.27932 16.456 5.27932 15.6206 5.25518C14.5574 5.21896 13.5702 5.26725 12.507 5.27932C12.1272 5.27932 11.5197 5.32761 11.7475 5.18274C11.8235 5.14652 11.5956 5.12238 11.3678 5.09823C11.064 5.07409 10.9122 5.03787 10.8362 5.00165C10.5324 4.893 10.9122 4.71191 9.69705 4.69984C9.84894 4.51875 8.70979 4.54289 8.17818 4.48253C7.41875 4.39802 7.11498 4.33766 7.49469 4.19279C7.64658 4.13243 7.79846 4.07206 7.79846 3.99963C7.79846 3.93927 7.64657 3.90305 7.26685 3.89098C6.50741 3.85476 5.89988 3.7944 5.97582 3.62538C6.05177 3.5288 5.52015 3.51673 4.98854 3.5288C4.68477 3.5288 4.22911 3.54087 4.22911 3.48051C4.22911 3.40807 4.68477 3.40807 5.06449 3.42015C5.36826 3.42015 5.74797 3.45636 5.67203 3.38393C5.67203 3.31149 5.14042 3.32357 4.91259 3.33564C4.15316 3.35978 3.46968 3.44429 2.55836 3.43222C2.25459 3.43222 1.79891 3.42015 1.9508 3.37186C2.55835 3.23906 1.34325 3.16662 1.57108 3.05797C1.64702 3.02175 1.34326 2.98553 1.03949 2.98553C0.659772 2.98553 0.735706 2.93724 0.887594 2.9131C1.57109 2.79237 0.963542 2.68372 0.583824 2.59921C0.28005 2.53885 0.28005 2.5147 0.583824 2.46641C1.11543 2.39398 1.57108 2.32154 1.11541 2.17667C0.887584 2.10424 1.64702 2.0318 1.87485 1.95937C1.95079 1.93522 2.10269 1.93522 1.9508 1.88693C1.57108 1.79035 1.03947 1.70584 1.49513 1.57304C1.49513 1.56097 1.49515 1.53683 1.41921 1.53683C0.280054 1.45232 0.81165 1.23501 0.128158 1.11429C-0.099673 1.07807 -0.0237387 1.02978 0.355979 1.02978C1.79891 1.00563 2.86213 0.836618 4.30505 0.812473C5.52015 0.788327 6.73524 0.776255 7.95034 0.824545C8.33005 0.836618 8.70979 0.84869 9.01357 0.800399C9.31734 0.764182 9.77299 0.75211 9.92487 0.764182C11.064 0.909053 12.2032 0.740037 13.2664 0.776255C15.0131 0.824545 16.7598 0.8004 18.4306 0.776255C20.7089 0.740037 22.9872 0.740037 25.2655 0.727964C26.8603 0.715892 28.5311 0.679674 30.1259 0.667601C32.5561 0.631384 34.9103 0.571021 37.3405 0.558948C40.9099 0.534803 44.4033 0.486513 47.9726 0.450296C49.8712 0.426151 51.7698 0.389933 53.6684 0.389933C55.9467 0.389933 58.225 0.32957 60.5792 0.341642C62.3259 0.341642 64.1486 0.293352 65.8953 0.28128C67.566 0.269207 69.2368 0.257134 70.9835 0.245061C72.4264 0.232989 73.9453 0.232989 75.3882 0.196771C76.2236 0.172626 76.9831 0.196771 77.7425 0.196771C79.1854 0.184698 80.6283 0.100191 81.9953 0.136408C84.1977 0.208844 86.4001 0.0639728 88.6024 0.136408C88.9821 0.148481 89.3619 0.136408 89.7416 0.124336C91.2604 0.0156827 92.8553 0.100191 94.3741 0.112263C94.7538 0.112263 95.0576 0.136409 95.5133 0.0881187C95.893 0.051901 96.5006 0.0156831 96.8803 0.0398282C97.7157 0.0881185 98.551 0.0156829 99.3104 0.0519006C100.601 0.112263 101.968 -0.00846258 103.26 0.0760454C103.411 0.0881179 103.563 0.0639732 103.715 0.0519006C104.475 -0.0205348 105.31 0.00360998 106.145 0.0156825C107.057 0.0398277 107.892 0.124336 108.879 0.0156825C109.259 -0.0205351 110.019 0.0156833 110.55 0.0277558C112.221 0.051901 113.816 0.0881179 115.486 0.0156825C115.942 -0.00846258 116.322 0.039828 116.777 0.0519006C117.309 0.0639732 117.917 0.172626 118.448 0.0519006C118.448 0.0519006 118.6 0.0519004 118.676 0.063973C119.815 0.160554 121.03 0.112264 122.169 0.0881187C123.385 0.0639735 124.6 0.136408 125.815 0.136408C127.258 0.124336 128.701 0.172626 130.068 0.184699C131.131 0.196771 132.27 0.148481 133.257 0.232989C133.713 0.269207 134.169 0.232989 134.548 0.232989C136.067 0.220917 137.586 0.269207 139.105 0.293352C141.079 0.32957 143.054 0.293352 145.028 0.353715C145.864 0.37786 146.699 0.402005 147.383 0.498585C147.535 0.52273 147.687 0.534803 147.914 0.522731C149.129 0.462368 150.421 0.510658 151.56 0.522731C153.154 0.546876 154.825 0.558949 156.42 0.571021C157.104 0.571021 157.483 0.655529 157.483 0.75211C157.559 0.945271 157.559 1.12636 158.471 1.2833C158.622 1.30745 158.698 1.36781 158.622 1.40403C158.395 1.52475 158.698 1.63341 159.078 1.72999C159.534 1.85071 159.154 1.91108 158.546 1.95937C156.876 2.09216 155.129 2.12838 153.23 2.06802C151.332 2.00766 149.433 2.01973 147.535 2.01973C146.775 2.01973 146.244 2.08009 146.471 2.22496C146.699 2.36983 146.471 2.52678 147.459 2.63543C147.762 2.67165 147.459 2.75616 147.383 2.80445C147.231 2.88895 147.307 2.93724 147.914 2.97346C148.978 3.0459 149.965 3.15455 151.256 3.10626C151.712 3.09419 152.015 3.10626 151.712 3.21491C151.332 3.31149 152.091 3.37186 152.395 3.396C153.306 3.45636 152.927 3.51673 152.547 3.58916C152.015 3.68574 152.091 3.77025 152.775 3.80647C153.306 3.83061 153.154 3.89098 152.851 3.91512C151.863 3.97548 152.091 4.03585 152.699 4.12035C152.775 4.13243 152.775 4.18072 152.775 4.20486C152.775 4.22901 152.851 4.26523 153.003 4.26523C153.914 4.22901 154.066 4.39802 154.521 4.42217C155.433 4.47046 156.04 4.59119 156.8 4.65155C157.559 4.72398 157.635 4.71191 157.711 4.54289C157.635 4.54289 157.559 4.53082 157.559 4.53082C157.331 4.54289 157.104 4.6274 156.8 4.55497C156.572 4.50668 156.8 4.47046 157.028 4.45839C157.407 4.42217 157.787 4.42217 158.167 4.48253C158.395 4.53082 158.167 4.57911 158.243 4.6274C158.698 4.65155 158.698 4.55497 159.078 4.56704C159.306 4.6274 159.154 4.69984 159.002 4.7602C158.85 4.82056 158.698 4.85678 159.002 4.91714C159.078 4.92922 159.154 4.95336 159.154 4.95336C158.167 5.11031 159.458 5.13445 159.762 5.20689C159.838 5.21896 159.989 5.23103 159.989 5.25518C160.141 5.36383 158.622 5.75015 158.091 5.73808C157.407 5.71393 156.648 5.79844 155.964 5.70186C155.509 5.62943 154.749 5.6415 154.218 5.68979C153.154 5.79844 152.471 5.71393 151.863 5.60528C151.787 5.59321 151.712 5.59321 151.636 5.58114C151.712 5.7743 151.712 5.7743 150.117 5.78637C150.724 5.66564 150.572 5.62943 149.585 5.58114C148.598 5.53285 147.762 5.55699 146.927 5.62943C146.699 5.65357 146.547 5.65357 146.395 5.61735C145.864 5.5087 145.104 5.53284 144.421 5.53284C144.117 5.53284 143.889 5.53285 143.586 5.5087C143.282 5.47248 142.902 5.3759 142.75 5.42419C142.598 5.49663 141.611 5.52077 142.219 5.6415C142.295 5.65357 141.763 5.75015 141.383 5.78637C141.155 5.81051 141.079 5.75015 141.003 5.71393C140.928 5.6415 140.7 5.60528 140.32 5.58114C140.244 5.58114 140.016 5.59321 139.94 5.61735C139.636 5.70186 140.244 5.71393 140.396 5.7743C140.016 5.81051 139.788 5.78637 139.561 5.75015C138.497 5.59321 137.51 5.47248 135.915 5.56906C135.611 5.58114 135.004 5.47248 134.548 5.41212C134.396 5.46041 134.624 5.5087 134.624 5.55699C134.776 5.72601 133.941 5.83466 132.953 5.7743C132.498 5.75015 132.194 5.79844 131.814 5.81051C131.283 5.82259 130.827 5.82259 130.903 5.70186C130.903 5.65357 131.055 5.59321 130.599 5.60528C130.219 5.61735 129.612 5.59321 129.688 5.71393C129.688 5.75015 129.916 5.82259 129.384 5.79844C129.156 5.78637 128.625 5.75015 128.928 5.68979C129.612 5.55699 129.08 5.49663 128.397 5.43627C128.169 5.41212 128.017 5.35176 127.637 5.35176C127.41 5.3759 127.486 5.41212 127.637 5.41212C128.549 5.5087 128.245 5.6415 128.093 5.75015C127.941 5.88295 127.258 5.83466 126.726 5.83466C126.119 5.83466 126.346 5.78637 126.498 5.72601C126.65 5.66564 126.422 5.58114 126.65 5.52077C126.65 5.5087 126.65 5.49663 126.65 5.49663C126.574 5.43627 124.676 5.27932 124.296 5.30347C124.144 5.31554 124.068 5.32761 123.992 5.35176C123.688 5.44834 123.309 5.43626 123.005 5.36383C122.625 5.26725 122.094 5.2431 121.486 5.26725C121.258 5.27932 120.954 5.27932 120.727 5.26725C120.423 5.25518 120.119 5.2431 120.195 5.32761C120.195 5.36383 120.195 5.41212 119.891 5.40005C119.587 5.40005 119.587 5.35176 119.587 5.31554C119.587 5.29139 119.511 5.25518 119.435 5.2431C119.132 5.20689 118.904 5.03787 118.296 5.21896C118.069 5.27932 117.461 5.30347 117.233 5.38797C117.157 5.42419 116.929 5.38798 116.777 5.3759C116.626 5.35176 116.398 5.33968 116.702 5.29139C117.005 5.2431 117.233 5.17067 117.157 5.06202C116.777 5.18274 116.018 5.17067 115.562 5.25518C115.259 5.31554 114.803 5.27932 114.423 5.26725C114.195 5.25518 113.968 5.2431 113.816 5.29139C113.74 5.30347 113.74 5.32761 113.816 5.35176C113.968 5.38797 114.195 5.3759 114.423 5.36383C115.486 5.27932 115.866 5.47248 116.626 5.5087C116.246 5.6415 117.005 5.73808 117.157 5.84673C117.309 5.91917 116.778 5.8588 116.626 5.89502C116.398 5.93124 116.17 5.93124 116.17 5.88295C116.17 5.81051 115.79 5.76222 115.638 5.70186C115.562 5.66564 115.486 5.6415 115.259 5.65357C115.031 5.66564 115.031 5.68979 115.031 5.72601C115.107 5.7743 114.879 5.81051 115.107 5.85881C115.335 5.9071 115.183 5.93124 114.879 5.94331C114.575 5.94331 114.423 5.91917 114.423 5.87088C114.423 5.84673 114.499 5.82259 114.499 5.79844C114.423 5.71393 114.347 5.65357 113.588 5.66564C112.752 5.68979 112.145 5.61735 111.765 5.49663C112.221 5.53285 112.601 5.52077 112.828 5.46041C113.056 5.40005 113.208 5.35176 112.904 5.27932C112.601 5.20689 112.525 5.11031 112.525 5.01373C112.525 4.96544 112.525 4.91715 112.145 4.893C111.917 5.06202 111.234 5.21896 112.145 5.3759C111.537 5.3759 111.31 5.33968 111.082 5.21896C110.93 5.17067 111.31 5.08616 110.854 5.07409C110.474 5.06202 109.867 5.07409 109.563 5.1103C109.183 5.17067 108.348 5.12238 108.196 5.25518C108.12 5.31554 107.74 5.2431 107.512 5.21896C107.133 5.17067 106.905 5.14652 106.601 5.2431C106.449 5.30347 105.842 5.33968 105.386 5.38797C105.158 5.32761 105.69 5.30347 105.462 5.25518C105.234 5.21896 105.006 5.25518 104.778 5.26725C104.171 5.29139 103.639 5.23103 103.032 5.2431C103.639 5.21896 103.26 5.12238 103.639 5.07409C103.715 5.06202 103.563 5.01372 103.411 5.00165C103.184 4.97751 103.108 5.01373 102.956 5.03787C102.272 5.17067 101.209 5.21896 100.298 5.14652C99.918 5.12238 99.7662 5.1586 99.5383 5.17067C99.1586 5.19481 98.7029 5.20689 98.2473 5.23103C97.9435 5.2431 97.5638 5.26725 97.6397 5.30347C97.3359 5.5087 96.3487 5.55699 95.6652 5.62943ZM93.4628 2.86481C93.311 2.82859 93.0831 2.81652 92.8552 2.82859C91.868 2.85274 90.8807 2.81652 89.8935 2.82859C89.0581 2.84066 88.2227 2.76823 87.5392 2.7803C85.7925 2.80445 84.1217 2.76823 82.375 2.76823C81.3118 2.7803 80.3246 2.70786 79.2614 2.73201C78.426 2.75615 77.5906 2.75616 76.7552 2.75616C73.9453 2.76823 71.0595 2.73201 68.2496 2.71994C67.2623 2.71994 66.1991 2.75616 65.2118 2.74408C63.5411 2.71994 61.8703 2.75616 60.1236 2.75616C59.2123 2.75616 58.3769 2.71994 57.4656 2.73201C54.9594 2.76823 52.5292 2.79237 50.0231 2.79237C48.3523 2.79237 46.7575 2.74408 45.0868 2.76823C41.9731 2.81652 38.8594 2.81652 35.7457 2.82859C35.2141 2.82859 34.6065 2.82859 34.1509 2.86481C33.0117 2.92517 31.8726 2.9131 30.7334 2.92517C29.8221 2.92517 28.8348 2.9131 27.9235 2.93724C26.7844 2.97346 25.5693 2.98553 24.3542 2.99761C23.4428 3.00968 22.4556 3.00968 21.5443 3.03382C20.0254 3.07004 18.5065 3.20284 16.9117 3.10626C16.7598 3.09419 16.456 3.11833 16.3041 3.1304C14.9371 3.22699 13.4942 3.16662 12.0513 3.20284C11.8994 3.20284 11.7475 3.20284 11.6716 3.19077C11.14 3.09419 10.6084 3.16662 10.1527 3.20284C9.84894 3.22699 9.54516 3.25113 9.6211 3.31149C9.69705 3.37186 10.0008 3.396 10.3046 3.396C11.2159 3.38393 12.3551 3.51673 13.1145 3.33564C13.1145 3.32357 13.2664 3.32357 13.2664 3.32357C14.3296 3.31149 15.3928 3.29942 16.456 3.28735C17.4433 3.2632 18.3546 3.396 19.4178 3.31149C19.4938 3.31149 19.5697 3.32357 19.7216 3.32357C20.1773 3.34771 20.6329 3.32357 21.1645 3.31149C23.1391 3.27528 25.0376 3.15455 27.0122 3.28735C27.316 3.31149 27.4678 3.27528 27.6957 3.2632C28.6829 3.20284 29.2146 3.22699 29.898 3.38393C30.0499 3.17869 30.8853 3.22699 31.6447 3.22699C32.1763 3.22699 32.708 3.20284 33.2396 3.19077C34.6825 3.14248 36.1254 3.11833 37.5683 3.2632C37.1127 3.07004 38.1759 3.20284 38.4037 3.11833C38.4797 3.20284 37.7962 3.21491 38.1759 3.27528C38.4797 3.32357 38.7834 3.27528 39.1632 3.2632C39.8466 3.22698 40.5301 3.11833 41.2136 3.2632C41.2896 3.28735 41.5934 3.28735 41.6693 3.27528C41.8212 3.16662 42.049 3.10626 42.7325 3.21491C42.8085 3.22698 42.9603 3.19077 43.0363 3.16662C43.1882 3.13041 43.416 3.10626 43.7198 3.11833C45.2386 3.15455 46.6816 3.11833 48.1245 3.08211C48.5042 3.07004 48.8839 3.07004 49.2637 3.07004C49.1118 3.16662 48.2004 3.1304 48.4283 3.27528C48.8839 3.15455 49.6434 3.19077 50.3269 3.16662C51.9976 3.09419 53.5924 2.99761 55.4151 3.03382C56.2505 3.0459 57.0858 2.97346 57.9212 3.05797C57.9971 3.07004 58.1491 3.05797 58.225 3.0459C59.516 2.94932 60.883 3.03382 62.1741 2.98553C62.326 2.97346 62.5538 2.97346 62.6297 2.98553C63.1613 3.05797 63.617 3.0459 64.3764 3.02175C65.4396 2.98553 66.6547 2.94932 67.8698 2.98553C68.3255 2.99761 68.7052 3.05797 69.1609 3.05797C69.6165 3.05797 70.7557 3.03382 71.0595 3.05797C71.2873 3.07004 71.5151 3.08211 71.4392 3.02175C71.4392 2.97346 71.667 2.97346 71.8189 2.98553C72.1986 3.00968 72.5783 2.97346 72.9581 2.97346C73.7175 2.96139 74.5529 2.93724 75.3123 2.97346C75.4642 2.98553 75.768 2.96139 75.6161 3.02175C75.5402 3.07004 75.5401 3.09419 75.8439 3.09419C76.0717 3.09419 76.2236 3.09419 76.2996 3.05797C76.6033 2.94932 77.2109 2.93724 77.8184 2.94932C79.4132 2.98553 81.084 2.99761 82.6788 2.96139C82.8307 2.96139 83.0586 2.97346 83.2104 2.98553C83.3623 3.00968 83.5142 3.00968 83.6661 2.98553C84.8052 2.85274 86.0204 2.98553 87.2355 2.94932C87.6911 2.93724 88.2227 2.99761 88.6784 2.93724C88.9062 2.9131 89.21 2.92517 89.5138 2.94932C90.8048 2.98553 92.2477 3.03382 93.4628 2.86481ZM116.777 4.56704C117.233 4.66362 117.765 4.68777 118.22 4.63948C118.904 4.55497 119.587 4.4946 120.423 4.56704C120.651 4.59119 120.878 4.56704 120.954 4.51875C121.03 4.47046 120.954 4.43424 120.575 4.43424C120.195 4.43424 119.815 4.43424 119.435 4.42217C118.98 4.4101 118.6 4.39802 118.448 4.49461C118.372 4.5429 118.069 4.56704 117.765 4.50668C117.081 4.4101 116.094 4.38595 115.335 4.4101C114.423 4.43424 113.512 4.55497 112.525 4.43424C112.373 4.42217 112.221 4.43424 112.069 4.43424C110.55 4.4101 109.031 4.51875 107.436 4.43424C107.209 4.42217 106.905 4.42217 106.905 4.47046C106.829 4.50668 107.057 4.55497 107.209 4.55497C108.196 4.57911 108.424 4.67569 108.12 4.83264C108.803 4.66362 110.17 4.60326 110.702 4.68777C111.461 4.82056 112.601 4.60326 112.98 4.78435C113.056 4.77227 113.208 4.7602 113.284 4.74813C113.512 4.72398 113.74 4.68777 113.968 4.66362C114.499 4.61533 115.107 4.55497 115.638 4.6274C116.474 4.73606 116.626 4.68777 116.777 4.56704ZM74.0972 4.55497C73.7175 4.55497 73.4137 4.54289 73.034 4.54289C72.7302 4.54289 72.4265 4.56704 72.4265 4.61533C72.4265 4.69984 72.8062 4.77227 73.1859 4.82056C73.5656 4.86885 73.7934 4.79642 74.0972 4.77227C75.0845 4.67569 76.8312 4.72398 77.2868 4.88093C77.3628 4.91714 77.3628 4.97751 77.7425 4.95336C78.0463 4.94129 78.0463 4.88093 77.9703 4.84471C77.8184 4.7602 77.9703 4.7602 78.5019 4.74813C79.4133 4.72398 80.4005 4.77227 81.3119 4.68777C81.5397 4.66362 81.9194 4.68777 81.8434 4.6274C81.8434 4.56704 81.4637 4.54289 81.2359 4.56704C80.5524 4.60326 80.0208 4.55497 79.5651 4.50668C79.1095 4.47046 78.7298 4.47046 78.35 4.49461C76.9831 4.60326 75.5401 4.53082 74.0972 4.55497ZM86.476 4.86885C86.7798 4.84471 87.0835 4.82056 87.3114 4.79642C88.2227 4.69984 90.3491 4.66362 91.4123 4.72398C92.0199 4.7602 92.7793 4.74813 93.3109 4.69984C93.9185 4.65155 92.9312 4.6274 93.0071 4.56704C93.0071 4.54289 93.4628 4.47046 92.9312 4.47046C91.6402 4.48253 90.2732 4.42217 88.9821 4.51875C88.7543 4.54289 88.3746 4.57911 88.2986 4.50668C88.2227 4.36181 87.6152 4.42217 87.2355 4.43424C86.7038 4.45839 86.8557 4.53082 87.0836 4.59119C87.4633 4.68777 87.3114 4.74813 86.7038 4.78435C86.5519 4.79642 86.476 4.82056 86.476 4.86885ZM106.753 4.6274C106.297 4.61533 105.993 4.56704 105.766 4.55497C105.006 4.51875 104.247 4.43424 103.487 4.48253C102.652 4.53082 101.893 4.53082 101.209 4.45839C100.829 4.42217 100.677 4.47046 100.45 4.49461C100.222 4.53082 100.222 4.57911 100.45 4.60326C100.829 4.63947 101.133 4.69984 101.665 4.67569C102.804 4.6274 103.943 4.65155 105.006 4.69984C105.614 4.71191 106.145 4.69984 106.753 4.6274ZM51.466 4.79642C51.0863 4.78435 50.6306 4.82056 50.4028 4.86885C50.2509 4.91714 50.6306 4.95336 50.8585 4.98958C51.0863 5.0258 51.3141 5.0258 51.542 4.98958C51.7698 4.95336 51.9976 4.92922 52.3773 4.94129C53.5165 4.96544 54.5797 4.893 55.7189 4.86885C55.9467 4.86885 56.0986 4.84471 56.0986 4.80849C56.0986 4.7602 55.9467 4.7602 55.7189 4.7602C55.3391 4.74813 54.8835 4.73606 54.5038 4.77227C53.6684 4.84471 52.5292 4.66362 51.7698 4.83264C51.8457 4.82056 51.6179 4.80849 51.466 4.79642ZM83.742 4.71191C83.9698 4.72398 84.2737 4.72398 84.3496 4.68777C84.7293 4.48253 85.109 4.65155 85.4888 4.68777C85.7166 4.69984 85.7925 4.77227 86.0963 4.73606C86.552 4.68777 86.4001 4.6274 86.3241 4.55497C86.2482 4.49461 86.0203 4.45839 85.7925 4.47046C85.109 4.51875 84.3496 4.4946 83.6661 4.53082C83.3623 4.54289 82.9826 4.56704 82.9826 4.6274C82.9826 4.68777 83.4382 4.69984 83.742 4.71191Z" fill="#29499A"/>
</svg>
