<svg width="141" height="140" viewBox="0 0 141 140" fill="none" xmlns="http://www.w3.org/2000/svg">
<path d="M28.8414 22.6765C13.6229 64.3147 27.9828 113.321 49.7871 121.509C96.1768 133.584 139.999 20.5947 106.959 22.6766C73.919 24.7585 47.8645 -29.3711 28.8414 22.6765Z" fill="#DBE8EC"/>
<path d="M136.775 67.6732V62.0752C136.775 61.0077 136.351 59.9839 135.596 59.2291C134.841 58.4742 133.816 58.0502 132.748 58.0502H118.534C117.466 58.0502 116.442 57.6261 115.687 56.8713C114.932 56.1165 114.507 55.0927 114.507 54.0252V48.4272C114.507 47.3597 114.932 46.3359 115.687 45.5811C116.442 44.8262 117.466 44.4022 118.534 44.4022H118.983C119.512 44.4022 120.036 44.2981 120.524 44.0958C121.013 43.8935 121.457 43.5971 121.831 43.2233C122.205 42.8495 122.501 42.4058 122.704 41.9175C122.906 41.4292 123.01 40.9058 123.01 40.3772V34.7792C123.01 34.2506 122.906 33.7272 122.704 33.2389C122.501 32.7505 122.205 32.3068 121.831 31.9331C121.457 31.5593 121.013 31.2628 120.524 31.0606C120.036 30.8583 119.512 30.7542 118.983 30.7542L25.4911 30.7542C24.4231 30.7542 23.3988 31.1782 22.6436 31.933C21.8884 32.6879 21.4642 33.7116 21.4642 34.7791V40.3772C21.4642 40.9057 21.5683 41.4291 21.7707 41.9175C21.9731 42.4058 22.2697 42.8495 22.6436 43.2233C23.0176 43.597 23.4615 43.8935 23.9501 44.0958C24.4387 44.298 24.9623 44.4022 25.4911 44.4021V44.4021C26.5592 44.4022 27.5834 44.8262 28.3386 45.581C29.0939 46.3359 29.5181 47.3596 29.5181 48.4271V54.0252C29.5181 54.5537 29.414 55.0771 29.2116 55.5655C29.0092 56.0538 28.7126 56.4975 28.3386 56.8713C27.9647 57.245 27.5208 57.5415 27.0322 57.7438C26.5436 57.946 26.02 58.0501 25.4911 58.0501H9.91844C8.85042 58.0501 7.82614 58.4742 7.07093 59.229C6.31573 59.9839 5.89146 61.0076 5.89145 62.0751V67.6731C5.89145 68.7406 6.31572 69.7644 7.07093 70.5192C7.82613 71.2741 8.85041 71.6981 9.91843 71.6981H16.0289C17.0969 71.6981 18.1212 72.1222 18.8764 72.877C19.6316 73.6319 20.0559 74.6556 20.0559 75.7231V81.3212C20.0559 82.3887 19.6316 83.4124 18.8764 84.1673C18.1212 84.9221 17.0969 85.3462 16.0289 85.3462H16.0142C15.4853 85.3462 14.9617 85.4503 14.4731 85.6526C13.9845 85.8548 13.5406 86.1513 13.1666 86.5251C12.7927 86.8988 12.4961 87.3425 12.2937 87.8309C12.0913 88.3192 11.9872 88.8426 11.9872 89.3711V94.9691C11.9872 96.0366 12.4114 97.0604 13.1666 97.8152C13.9219 98.5701 14.9461 98.9941 16.0142 98.9941H16.8982C17.9662 98.9941 18.9905 99.4182 19.7457 100.173C20.5009 100.928 20.9252 101.952 20.9252 103.019V108.617C20.9252 109.146 20.821 109.669 20.6187 110.157C20.4163 110.646 20.1197 111.09 19.7457 111.463C19.3718 111.837 18.9278 112.134 18.4393 112.336C17.9507 112.538 17.427 112.642 16.8982 112.642H7.94397C7.41514 112.642 6.89149 112.746 6.40291 112.949C5.91434 113.151 5.47041 113.447 5.09647 113.821C4.72253 114.195 4.4259 114.639 4.22353 115.127C4.02115 115.615 3.91699 116.139 3.91699 116.667V122.265C3.91699 123.333 4.34126 124.356 5.09647 125.111C5.85167 125.866 6.87595 126.29 7.94397 126.29L121.145 126.29C121.674 126.29 122.198 126.186 122.686 125.984C123.175 125.782 123.619 125.485 123.993 125.111C124.367 124.738 124.663 124.294 124.866 123.806C125.068 123.317 125.172 122.794 125.172 122.265V116.667C125.172 116.139 125.068 115.615 124.866 115.127C124.663 114.639 124.367 114.195 123.993 113.821C123.619 113.447 123.175 113.151 122.686 112.949C122.198 112.746 121.674 112.642 121.145 112.642H117.654C117.125 112.642 116.601 112.538 116.113 112.336C115.624 112.134 115.18 111.837 114.806 111.463C114.432 111.09 114.135 110.646 113.933 110.158C113.731 109.669 113.627 109.146 113.627 108.617V103.019C113.627 102.491 113.731 101.967 113.933 101.479C114.135 100.991 114.432 100.547 114.806 100.173C115.18 99.7993 115.624 99.5028 116.113 99.3006C116.601 99.0983 117.125 98.9942 117.654 98.9942H125.886C126.954 98.9942 127.979 98.5701 128.734 97.8153C129.489 97.0604 129.913 96.0367 129.913 94.9692V89.3712C129.913 88.3037 129.489 87.2799 128.734 86.5251C127.979 85.7703 126.954 85.3462 125.886 85.3462H123.389C122.321 85.3462 121.297 84.9221 120.541 84.1673C119.786 83.4125 119.362 82.3887 119.362 81.3212V75.7232C119.362 74.6557 119.786 73.6319 120.541 72.8771C121.297 72.1223 122.321 71.6982 123.389 71.6982H132.748C133.277 71.6982 133.801 71.5941 134.289 71.3918C134.778 71.1895 135.222 70.8931 135.596 70.5193C135.97 70.1455 136.266 69.7018 136.469 69.2135C136.671 68.7252 136.775 68.2018 136.775 67.6732V67.6732Z" fill="#DBE8EC"/>
<path fill-rule="evenodd" clip-rule="evenodd" d="M111.64 28.1357C111.64 26.1286 110.682 24.2038 108.979 22.7843C107.275 21.3648 104.965 20.5667 102.555 20.5654H35.5264C33.1169 20.5667 30.8065 21.3648 29.103 22.7843C27.3995 24.2038 26.4422 26.1286 26.4414 28.1357V107.008C26.4422 109.015 27.3995 110.94 29.103 112.359C30.8065 113.779 33.1168 114.577 35.5264 114.578H102.556C104.965 114.577 107.276 113.779 108.979 112.359C110.683 110.94 111.64 109.015 111.641 107.008L111.64 28.1357Z" fill="white"/>
<path fill-rule="evenodd" clip-rule="evenodd" d="M111.909 32.9371V22.1357C111.909 21.3273 111.098 20.6711 110.1 20.6711H26.3702C25.3731 20.6711 24.5615 21.3273 24.5615 22.1356V32.9371C24.5615 33.7454 25.3731 34.4016 26.3702 34.4016H110.1C111.098 34.4016 111.909 33.7453 111.909 32.9371Z" fill="#FFD800"/>
<path d="M40.773 29.3966C41.8004 29.3966 42.6333 28.5637 42.6333 27.5362C42.6333 26.5088 41.8004 25.6758 40.773 25.6758C39.7455 25.6758 38.9126 26.5088 38.9126 27.5362C38.9126 28.5637 39.7455 29.3966 40.773 29.3966Z" fill="white"/>
<path d="M46.667 29.3966C47.6945 29.3966 48.5274 28.5637 48.5274 27.5362C48.5274 26.5088 47.6945 25.6758 46.667 25.6758C45.6396 25.6758 44.8066 26.5088 44.8066 27.5362C44.8066 28.5637 45.6396 29.3966 46.667 29.3966Z" fill="white"/>
<path d="M52.7398 29.3966C53.7672 29.3966 54.6001 28.5637 54.6001 27.5362C54.6001 26.5088 53.7672 25.6758 52.7398 25.6758C51.7123 25.6758 50.8794 26.5088 50.8794 27.5362C50.8794 28.5637 51.7123 29.3966 52.7398 29.3966Z" fill="white"/>
<path d="M134.023 81.1352C135.554 81.1352 136.794 79.895 136.794 78.3651C136.794 76.8353 135.554 75.5951 134.023 75.5951C132.492 75.5951 131.251 76.8353 131.251 78.3651C131.251 79.895 132.492 81.1352 134.023 81.1352Z" fill="#B9D4DB"/>
<path d="M127.09 72.5029C128.592 72.5029 129.809 71.2863 129.809 69.7855C129.809 68.2847 128.592 67.0681 127.09 67.0681C125.589 67.0681 124.372 68.2847 124.372 69.7855C124.372 71.2863 125.589 72.5029 127.09 72.5029Z" fill="#B9D4DB"/>
<path d="M136.97 74.1082C139.046 74.1082 140.729 72.4258 140.729 70.3505C140.729 68.2751 139.046 66.5927 136.97 66.5927C134.893 66.5927 133.21 68.2751 133.21 70.3505C133.21 72.4258 134.893 74.1082 136.97 74.1082Z" fill="#B9D4DB"/>
<path d="M15.1412 79.872C15.2411 78.3447 14.0845 77.0256 12.5579 76.9258C11.0313 76.826 9.7128 77.9832 9.61294 79.5106C9.51308 81.038 10.6697 82.357 12.1963 82.4568C13.7229 82.5567 15.0414 81.3994 15.1412 79.872Z" fill="#B9D4DB"/>
<path d="M6.07529 86.2262C6.17325 84.7279 5.03862 83.4339 3.54101 83.3359C2.04341 83.238 0.749947 84.3733 0.651985 85.8717C0.554023 87.37 1.68866 88.664 3.18626 88.7619C4.68387 88.8599 5.97733 87.7246 6.07529 86.2262Z" fill="#B9D4DB"/>
<path d="M8.32153 76.4731C8.45699 74.4011 6.88797 72.6116 4.81702 72.4762C2.74607 72.3408 0.957409 73.9108 0.821943 75.9827C0.686477 78.0547 2.2555 79.8441 4.32645 79.9795C6.39741 80.1149 8.18606 78.545 8.32153 76.4731Z" fill="#B9D4DB"/>
<path d="M53.4159 67.4344C60.4856 67.4344 66.2167 61.7034 66.2167 54.6337C66.2167 47.5641 60.4856 41.833 53.4159 41.833C46.3463 41.833 40.6152 47.5641 40.6152 54.6337C40.6152 61.7034 46.3463 67.4344 53.4159 67.4344Z" fill="#E3E3FE"/>
<path fill-rule="evenodd" clip-rule="evenodd" d="M40.7186 60.9835C46.9945 51.0105 49.8932 50.4698 53.4144 54.4347C56.9402 58.4 58.0179 59.5655 62.0454 57.7361C66.0683 55.9068 67.945 57.8895 69.1855 60.6227C70.426 63.356 53.8467 70.8364 50.7806 70.776C47.7145 70.7157 34.4381 70.9565 40.7186 60.9835Z" fill="url(#paint0_linear_930_3563)"/>
<path d="M60.6243 52.1334C63.1084 52.1334 65.1222 50.1196 65.1222 47.6355C65.1222 45.1514 63.1084 43.1376 60.6243 43.1376C58.1402 43.1376 56.1265 45.1514 56.1265 47.6355C56.1265 50.1196 58.1402 52.1334 60.6243 52.1334Z" fill="#FFD800"/>
<path fill-rule="evenodd" clip-rule="evenodd" d="M65.7072 77.5765C65.7077 77.428 65.6788 77.281 65.6222 77.1438C65.5656 77.0066 65.4824 76.8819 65.3773 76.777C65.2723 76.6722 65.1475 76.5891 65.0102 76.5327C64.8729 76.4763 64.7257 76.4477 64.5773 76.4484H44.2885C44.1404 76.4483 43.9938 76.4774 43.857 76.5341C43.7203 76.5908 43.596 76.6739 43.4915 76.7787C43.3869 76.8835 43.3041 77.0079 43.2477 77.1448C43.1914 77.2817 43.1626 77.4284 43.1631 77.5765V77.5773C43.1626 77.7254 43.1913 77.872 43.2476 78.0089C43.304 78.1458 43.3868 78.2703 43.4914 78.3751C43.596 78.4799 43.7202 78.563 43.857 78.6196C43.9938 78.6762 44.1404 78.7053 44.2885 78.7051H64.5773C64.7257 78.7059 64.8729 78.6773 65.0102 78.621C65.1475 78.5646 65.2723 78.4816 65.3774 78.3767C65.4824 78.2719 65.5657 78.1472 65.6223 78.01C65.6789 77.8728 65.7078 77.7257 65.7072 77.5773V77.5765Z" fill="#E3E3FE"/>
<path fill-rule="evenodd" clip-rule="evenodd" d="M100.186 56.7537C100.186 55.852 99.827 54.9875 99.1892 54.3502C98.5513 53.7129 97.6865 53.355 96.7848 53.3552H73.3105C72.8644 53.3552 72.4226 53.4431 72.0104 53.6139C71.5983 53.7847 71.2238 54.0351 70.9085 54.3508C70.5931 54.6664 70.3431 55.0411 70.1726 55.4534C70.0022 55.8657 69.9146 56.3075 69.915 56.7537V56.7546C69.9147 57.2007 70.0022 57.6425 70.1727 58.0548C70.3432 58.467 70.5932 58.8416 70.9086 59.1572C71.2239 59.4727 71.5984 59.723 72.0105 59.8938C72.4227 60.0645 72.8644 60.1524 73.3105 60.1523H96.7848C97.6864 60.1527 98.5512 59.7949 99.1891 59.1578C99.827 58.5206 100.186 57.6562 100.186 56.7546V56.7537Z" fill="#EFEFFE"/>
<path fill-rule="evenodd" clip-rule="evenodd" d="M64.2965 93.3173C64.2965 93.0185 64.1779 92.7318 63.9668 92.5203C63.7556 92.3088 63.4692 92.1897 63.1703 92.1892H43.6599C43.361 92.1897 43.0746 92.3088 42.8634 92.5203C42.6523 92.7318 42.5337 93.0185 42.5337 93.3173C42.5337 93.6162 42.6523 93.9036 42.8635 94.1151C43.0746 94.3266 43.3611 94.4456 43.6599 94.4461H63.1706C63.4694 94.4456 63.7559 94.3266 63.967 94.1151C64.1782 93.9036 64.2965 93.6162 64.2965 93.3173ZM90.9489 93.19C90.9489 92.8912 90.8303 92.6045 90.6191 92.393C90.408 92.1815 90.1216 92.0624 89.8227 92.0619H70.3123C70.0134 92.0625 69.727 92.1815 69.5159 92.393C69.3047 92.6045 69.1861 92.8912 69.1861 93.19C69.1861 93.4889 69.3047 93.7763 69.5159 93.9878C69.727 94.1993 70.0134 94.3183 70.3123 94.3188H89.823C90.1218 94.3183 90.4083 94.1993 90.6194 93.9878C90.8306 93.7763 90.9489 93.4889 90.9489 93.19ZM90.948 81.7629C90.9486 81.6149 90.9199 81.4682 90.8636 81.3313C90.8072 81.1945 90.7244 81.0701 90.6197 80.9654C90.4066 80.7538 90.1185 80.635 89.8182 80.6348H44.2934C43.9931 80.6349 43.705 80.7538 43.4919 80.9654C43.3872 81.07 43.3043 81.1944 43.2479 81.3313C43.1915 81.4682 43.1628 81.6149 43.1635 81.7629C43.1629 81.911 43.1916 82.0586 43.248 82.1955C43.3043 82.3323 43.3872 82.4567 43.4919 82.5614C43.705 82.7729 43.9931 82.8917 44.2934 82.8917H89.8182C90.1185 82.8916 90.4066 82.7729 90.6197 82.5614C90.7243 82.4567 90.8072 82.3323 90.8635 82.1954C90.9199 82.0585 90.9486 81.911 90.948 81.7629ZM64.2965 97.5037C64.2965 97.2048 64.1779 96.9182 63.9668 96.7067C63.7556 96.4952 63.4692 96.3761 63.1703 96.3756H43.6599C43.361 96.3761 43.0746 96.4952 42.8635 96.7067C42.6523 96.9182 42.5337 97.2048 42.5337 97.5037C42.5337 97.8025 42.6523 98.09 42.8635 98.3015C43.0746 98.5129 43.3611 98.632 43.6599 98.6324H63.1706C63.4694 98.632 63.7559 98.5129 63.967 98.3015C64.1782 98.09 64.2965 97.8025 64.2965 97.5037ZM90.9489 97.3764C90.9489 97.0776 90.8303 96.7909 90.6192 96.5794C90.408 96.3679 90.1216 96.2488 89.8227 96.2483H70.3123C70.0134 96.2488 69.727 96.3679 69.5158 96.5794C69.3047 96.7909 69.1861 97.0776 69.1861 97.3764C69.1861 97.6753 69.3047 97.9627 69.5159 98.1742C69.727 98.3856 70.0135 98.5046 70.3123 98.5051H89.823C90.1218 98.5047 90.4083 98.3857 90.6194 98.1742C90.8306 97.9627 90.9489 97.6753 90.9489 97.3764ZM90.948 86.2034C90.9486 86.0554 90.9199 85.9087 90.8636 85.7718C90.8073 85.6349 90.7244 85.5106 90.6197 85.4059C90.4066 85.1943 90.1185 85.0755 89.8182 85.0753H44.2934C43.9931 85.0754 43.705 85.1942 43.4919 85.4059C43.3872 85.5105 43.3043 85.6349 43.2479 85.7718C43.1915 85.9087 43.1628 86.0554 43.1635 86.2034C43.1629 86.3515 43.1916 86.499 43.248 86.6359C43.3043 86.7728 43.3872 86.8972 43.4919 87.0019C43.705 87.2134 43.9931 87.3321 44.2934 87.3322H89.8182C90.1185 87.3321 90.4066 87.2134 90.6197 87.0019C90.7243 86.8972 90.8072 86.7728 90.8636 86.6359C90.9199 86.499 90.9486 86.3515 90.948 86.2034ZM64.2965 101.944C64.2965 101.645 64.1779 101.359 63.9668 101.147C63.7556 100.936 63.4692 100.817 63.1703 100.816H43.6599C43.361 100.817 43.0746 100.936 42.8634 101.147C42.6523 101.359 42.5337 101.645 42.5337 101.944C42.5337 102.243 42.6523 102.53 42.8635 102.742C43.0746 102.953 43.3611 103.072 43.6599 103.073H63.1706C63.4694 103.072 63.7559 102.953 63.967 102.742C64.1782 102.53 64.2965 102.243 64.2965 101.944ZM90.9489 101.817C90.9489 101.518 90.8303 101.231 90.6192 101.02C90.408 100.808 90.1216 100.689 89.8227 100.689H70.3123C70.0134 100.689 69.727 100.808 69.5158 101.02C69.3047 101.231 69.1861 101.518 69.1861 101.817C69.1861 102.116 69.3047 102.403 69.5159 102.615C69.727 102.826 70.0135 102.945 70.3123 102.946H89.823C90.1218 102.945 90.4083 102.826 90.6194 102.615C90.8306 102.403 90.9489 102.116 90.9489 101.817Z" fill="#E3E3FE"/>
<path fill-rule="evenodd" clip-rule="evenodd" d="M113.657 49.7437C113.656 48.4293 113.134 47.1687 112.204 46.2392C111.275 45.3097 110.014 44.7872 108.7 44.7865H80.5074C79.1926 44.7865 77.9316 45.3088 77.0018 46.2385C76.0721 47.1683 75.5498 48.4292 75.5498 49.7441C75.5498 51.0589 76.0721 52.3199 77.0018 53.2496C77.9316 54.1793 79.1926 54.7017 80.5074 54.7017H108.7C110.015 54.701 111.275 54.1783 112.204 53.2487C113.134 52.319 113.656 51.0583 113.657 49.7437V49.7437Z" fill="#FFD800"/>
<path d="M82.9124 47.5813V48.3121C82.7363 48.2781 82.5575 48.2599 82.3782 48.2577C81.9044 48.2577 81.5559 48.3588 81.333 48.5611C81.11 48.7638 80.98 49.1046 80.952 49.5853H80.9892C81.1796 49.255 81.5001 49.0898 81.9508 49.0898C82.3364 49.0898 82.643 49.211 82.8706 49.4535C83.0982 49.696 83.2097 50.0279 83.2097 50.449C83.2097 50.9108 83.0796 51.2754 82.8195 51.543C82.5593 51.811 82.2017 51.9448 81.7511 51.9448C81.4551 51.9518 81.1639 51.8699 80.9149 51.7098C80.6702 51.5443 80.4821 51.3077 80.376 51.032C80.2553 50.7366 80.1949 50.3803 80.1948 49.9631C80.1948 49.1674 80.3714 48.5649 80.7337 48.1565C81.0961 47.7482 81.6303 47.5434 82.341 47.5434C82.5321 47.5413 82.7232 47.554 82.9124 47.5813ZM82.4107 50.4712C82.4107 50.2468 82.3549 50.0743 82.2434 49.9537C82.1273 49.8329 81.9648 49.7726 81.7511 49.7726C81.559 49.7663 81.3716 49.8327 81.2261 49.9584C81.1606 50.0089 81.1074 50.0736 81.0704 50.1476C81.0334 50.2216 81.0136 50.303 81.0124 50.3857C81.0046 50.6037 81.0755 50.8173 81.2122 50.9873C81.2747 51.0588 81.3509 51.1171 81.4363 51.1587C81.5217 51.2002 81.6146 51.2242 81.7095 51.2293C81.8043 51.2343 81.8992 51.2202 81.9886 51.1879C82.0779 51.1556 82.1598 51.1057 82.2295 51.0412C82.3503 50.9153 82.4107 50.7253 82.4107 50.4712ZM87.2328 49.6299V49.6518C87.9157 49.7368 88.2595 50.0787 88.2595 50.6775C88.2595 51.0716 88.1154 51.3813 87.8182 51.6066C87.5254 51.8318 87.1028 51.9448 86.5546 51.9448C86.0854 51.9448 85.6766 51.8675 85.3283 51.7129V50.9507C85.6945 51.1297 86.0959 51.2252 86.5036 51.2303C86.8147 51.2303 87.047 51.1815 87.2003 51.0839C87.2759 51.0365 87.3372 50.9697 87.3781 50.8904C87.419 50.8112 87.4378 50.7224 87.4326 50.6334C87.4326 50.4067 87.3443 50.2469 87.1724 50.1541C87.0005 50.0612 86.7265 50.0142 86.3456 50.0142H85.9828V49.3442H86.3265C86.6609 49.3442 86.9118 49.301 87.0837 49.2141C87.2556 49.1272 87.3438 48.9739 87.3438 48.7538C87.3468 48.6849 87.3341 48.6163 87.3067 48.5531C87.2794 48.4898 87.2381 48.4336 87.1859 48.3886C87.0837 48.3018 86.9212 48.2581 86.7027 48.2581C86.5419 48.2586 86.3821 48.2839 86.229 48.3329C86.0554 48.3917 85.8899 48.4722 85.7365 48.5726L85.3324 47.9599C85.7558 47.6899 86.2471 47.5456 86.7492 47.5437C87.1859 47.5437 87.5296 47.6353 87.7805 47.8187C87.9006 47.9021 87.9979 48.0142 88.0636 48.1448C88.1293 48.2754 88.1614 48.4204 88.1568 48.5665C88.1619 48.8144 88.076 49.0556 87.9152 49.2443C87.7575 49.4292 87.5252 49.5579 87.2328 49.6299ZM92.505 49.6235C92.8209 49.7883 93.0485 49.9649 93.1926 50.1521C93.3608 50.3736 93.4342 50.6529 93.3968 50.9285C93.3593 51.2041 93.214 51.4537 92.9928 51.6223C92.7141 51.8374 92.3517 51.9447 91.9104 51.9447C91.4366 51.9447 91.0649 51.843 90.8002 51.64C90.54 51.4365 90.4053 51.155 90.4053 50.795C90.4017 50.5597 90.4733 50.3294 90.6097 50.1377C90.7398 49.9495 90.9488 49.7874 91.2275 49.6518C90.7676 49.3661 90.5354 49.0084 90.5354 48.5787C90.532 48.4308 90.5655 48.2844 90.6328 48.1527C90.7001 48.0209 90.7991 47.908 90.921 47.8241C91.1764 47.6369 91.5063 47.5432 91.9104 47.5431C92.3146 47.5431 92.6444 47.636 92.8952 47.8214C93.0169 47.9072 93.1154 48.022 93.1819 48.1552C93.2484 48.2885 93.2807 48.4362 93.2761 48.585C93.2761 49.0297 93.0159 49.3758 92.505 49.6235ZM91.9104 49.2743C92.1288 49.1833 92.2774 49.0885 92.3609 48.99C92.4431 48.8954 92.4877 48.7739 92.4863 48.6486C92.4889 48.5853 92.4758 48.5224 92.4482 48.4653C92.4207 48.4083 92.3795 48.3589 92.3284 48.3216C92.2029 48.2358 92.0528 48.1934 91.901 48.2008C91.7542 48.1947 91.6093 48.2359 91.4876 48.3183C91.4359 48.3559 91.3944 48.4058 91.3668 48.4634C91.3392 48.5211 91.3264 48.5848 91.3297 48.6486C91.3283 48.7743 91.3748 48.8959 91.4597 48.9886C91.5896 49.1126 91.7428 49.2096 91.9104 49.2741V49.2743ZM91.8594 49.9951C91.4134 50.1832 91.1904 50.433 91.1904 50.7444C91.1869 50.8211 91.2019 50.8975 91.2343 50.9671C91.2666 51.0367 91.3153 51.0975 91.3762 51.1442C91.497 51.2417 91.6735 51.2906 91.8965 51.2906C92.1288 51.2906 92.3053 51.2433 92.4307 51.1495C92.492 51.1033 92.541 51.0428 92.5734 50.9733C92.6058 50.9038 92.6206 50.8274 92.6166 50.7508C92.6135 50.6141 92.5587 50.4837 92.4632 50.3857C92.3564 50.271 92.1845 50.1555 91.9476 50.0392L91.8594 49.9951ZM98.5394 51.8811H95.5524V51.2491L96.6626 50.1505C97.0761 49.7399 97.3362 49.4551 97.4383 49.2962C97.5378 49.151 97.5927 48.9798 97.5963 48.8038C97.6002 48.7328 97.5885 48.6617 97.562 48.5957C97.5355 48.5296 97.4949 48.4702 97.443 48.4215C97.3331 48.3249 97.1897 48.2752 97.0435 48.2831C96.8744 48.2832 96.707 48.3172 96.5511 48.383C96.3524 48.4729 96.1665 48.5888 95.9983 48.7277L95.5384 48.153C95.7081 48.0208 95.8866 47.9004 96.0726 47.7927C96.2148 47.7145 96.3661 47.6543 96.5231 47.6133C96.7003 47.5654 96.8831 47.5419 97.0666 47.5432C97.4708 47.5432 97.796 47.6533 98.0421 47.8735C98.1622 47.9778 98.2577 48.1074 98.322 48.2528C98.3862 48.3983 98.4176 48.5562 98.4138 48.7152C98.414 48.9198 98.3729 49.1224 98.293 49.3108C98.2017 49.5185 98.0779 49.7103 97.926 49.8789C97.6894 50.1459 97.4382 50.3997 97.1735 50.6391L96.6718 51.1059V51.1407H98.5392L98.5394 51.8811ZM100.908 51.9066V51.1731C101.084 51.2132 101.263 51.2324 101.443 51.2303C101.921 51.2303 102.274 51.126 102.502 50.9176C102.729 50.7093 102.85 50.3621 102.869 49.8775H102.832C102.72 50.0703 102.59 50.2041 102.432 50.2794C102.251 50.3597 102.054 50.3982 101.856 50.392C101.466 50.392 101.159 50.2698 100.941 50.0255C100.718 49.7807 100.606 49.4392 100.606 49.0012C100.606 48.5501 100.737 48.1948 101.001 47.9342C101.262 47.674 101.619 47.5435 102.061 47.5435C102.544 47.5435 102.925 47.715 103.203 48.0582C103.487 48.401 103.626 48.8892 103.626 49.5222C103.626 50.3119 103.445 50.9131 103.087 51.326C102.729 51.7389 102.195 51.9454 101.484 51.9454C101.292 51.9478 101.099 51.9348 100.908 51.9066V51.9066ZM101.405 48.9884C101.405 49.4687 101.624 49.7092 102.056 49.7092C102.251 49.7155 102.442 49.6487 102.59 49.5219C102.655 49.4715 102.708 49.4071 102.745 49.3335C102.782 49.2598 102.802 49.1788 102.804 49.0964C102.809 48.8831 102.738 48.6751 102.604 48.5087C102.543 48.4355 102.467 48.3756 102.381 48.3326C102.295 48.2897 102.202 48.2647 102.106 48.2591C102.011 48.2535 101.915 48.2674 101.825 48.3C101.735 48.3327 101.652 48.3833 101.582 48.4488C101.466 48.5755 101.405 48.7552 101.405 48.9884V48.9884ZM107.245 51.9447C106.752 51.9447 106.381 51.7595 106.13 51.3892C105.879 51.0188 105.754 50.4736 105.754 49.7535C105.754 49.0084 105.879 48.4537 106.125 48.0895C106.371 47.7253 106.748 47.5433 107.245 47.5433C108.239 47.5433 108.741 48.2782 108.741 49.7475C108.741 50.5117 108.615 51.0686 108.373 51.4194C108.127 51.7696 107.751 51.9447 107.245 51.9447ZM107.245 51.2303C107.486 51.2303 107.658 51.1143 107.76 50.8823C107.867 50.6505 107.918 50.2724 107.918 49.7474C107.918 49.2137 107.867 48.8323 107.76 48.6024C107.658 48.3729 107.486 48.258 107.245 48.2577C107.169 48.2538 107.094 48.2666 107.024 48.2952C106.954 48.3238 106.892 48.3675 106.841 48.4231C106.743 48.5332 106.673 48.6962 106.631 48.9122C106.588 49.1905 106.568 49.4719 106.571 49.7535C106.571 50.2742 106.627 50.6505 106.729 50.8823C106.836 51.1141 107.008 51.2301 107.245 51.2303Z" fill="#5F5F5F"/>
<path d="M102.096 140C111.286 140 118.737 132.549 118.737 123.358C118.737 114.168 111.286 106.717 102.096 106.717C92.9048 106.717 85.4541 114.168 85.4541 123.358C85.4541 132.549 92.9048 140 102.096 140Z" fill="url(#paint1_linear_930_3563)"/>
<path fill-rule="evenodd" clip-rule="evenodd" d="M92.3458 124.812L97.8552 131.683C98.0813 131.965 98.3701 132.19 98.6987 132.341C99.0273 132.492 99.3865 132.564 99.7478 132.551C100.109 132.539 100.462 132.442 100.78 132.269C101.097 132.096 101.37 131.851 101.576 131.554L111.866 116.727C112.217 116.221 112.352 115.596 112.243 114.989C112.133 114.383 111.787 113.845 111.28 113.494C110.774 113.143 110.149 113.007 109.543 113.117C108.936 113.227 108.398 113.573 108.047 114.079L99.5321 126.349L95.9692 121.906C95.5827 121.429 95.0231 121.124 94.4128 121.059C93.8025 120.993 93.1911 121.172 92.7122 121.556C92.2334 121.94 91.926 122.498 91.8574 123.108C91.7887 123.718 91.9643 124.33 92.3458 124.811V124.812Z" fill="white"/>
<defs>
<linearGradient id="paint0_linear_930_3563" x1="57.9686" y1="56.2122" x2="49.0882" y2="72.2488" gradientUnits="userSpaceOnUse">
<stop stop-color="#FFD800"/>
<stop offset="1" stop-color="#DCC023"/>
</linearGradient>
<linearGradient id="paint1_linear_930_3563" x1="106.302" y1="113.999" x2="87.7073" y2="134.728" gradientUnits="userSpaceOnUse">
<stop stop-color="#FFD800"/>
<stop offset="1" stop-color="#DCC023"/>
</linearGradient>
</defs>
</svg>
