<svg width="335" height="302" viewBox="0 0 335 302" fill="none" xmlns="http://www.w3.org/2000/svg">
<ellipse cx="183.729" cy="158.117" rx="1.81963" ry="3.31815" transform="rotate(10.6037 183.729 158.117)" fill="#9D9D9D"/>
<path d="M162.021 14.5657V92.8456C162.021 94.6647 163.376 96.0618 164.964 96.0618H287.739C289.335 96.0618 290.682 94.6558 290.682 92.8456V14.5548C290.682 12.7357 289.327 11.3386 287.739 11.3386H164.964C163.369 11.3386 162.021 12.7436 162.021 14.5657Z" fill="white" stroke="#EAEAEA"/>
<path d="M161.52 14.5657V21.0936H291.191V14.5548C291.191 12.4951 289.646 10.8386 287.748 10.8386H164.973C163.065 10.8386 161.53 12.506 161.53 14.5657H161.52Z" fill="#708CD5" fill-opacity="0.6"/>
<g opacity="0.6">
<path d="M248.979 32.0786H256.25V55.0954H248.979V32.0786Z" fill="#708CD5"/>
<path d="M256.25 49.0254C253.675 48.4363 251.251 47.385 248.979 46.2517V55.0946H256.25V49.0254Z" fill="#294992"/>
<path d="M260.864 38.4753H268.134V55.0949H260.864V38.4753Z" fill="#708CD5"/>
<path d="M262.207 49.4136C261.752 49.4658 261.308 49.4956 260.864 49.503V55.0951H268.134V49.5552C266.852 49.2421 264.963 49.1153 262.207 49.4136Z" fill="#294992"/>
<path d="M237.082 25.2039H244.353V55.0951H237.082V25.2039Z" fill="#708CD5"/>
<path d="M237.082 41.5852V55.0956H244.353V43.8817C241.768 42.5844 239.354 41.5778 237.082 41.5852Z" fill="#294992"/>
</g>
<path d="M275.564 86.1509V83.9432C275.564 83.6869 275.356 83.479 275.1 83.479C274.843 83.479 274.636 83.6869 274.636 83.9432V86.1509H275.564Z" fill="#E9E9E9"/>
<path d="M253.126 86.1509V83.9432C253.126 83.6869 252.919 83.479 252.662 83.479C252.406 83.479 252.198 83.6869 252.198 83.9432V86.1509H253.126Z" fill="#E9E9E9"/>
<path d="M257.613 86.1509V83.9432C257.613 83.6869 257.405 83.479 257.149 83.479C256.893 83.479 256.685 83.6869 256.685 83.9432V86.1509H257.613Z" fill="#E9E9E9"/>
<path d="M172.353 86.1506V83.943C172.353 83.6866 172.145 83.4788 171.888 83.4788C171.632 83.4788 171.424 83.6866 171.424 83.943V86.1506H172.353Z" fill="#E9E9E9"/>
<path d="M280.05 86.1509V83.9432C280.05 83.6869 279.842 83.479 279.586 83.479C279.33 83.479 279.122 83.6869 279.122 83.9432V86.1509H280.05Z" fill="#E9E9E9"/>
<path d="M266.589 86.1509V83.9432C266.589 83.6869 266.381 83.479 266.125 83.479C265.868 83.479 265.66 83.6869 265.66 83.9432V86.1509H266.589Z" fill="#E9E9E9"/>
<path d="M226.203 86.1506V83.943C226.203 83.6866 225.995 83.4788 225.738 83.4788C225.482 83.4788 225.274 83.6866 225.274 83.943V86.1506H226.203Z" fill="#E9E9E9"/>
<path d="M176.841 86.1506V83.943C176.841 83.6866 176.633 83.4788 176.377 83.4788C176.12 83.4788 175.912 83.6866 175.912 83.943V86.1506H176.841Z" fill="#E9E9E9"/>
<path d="M181.328 86.1506V83.943C181.328 83.6866 181.12 83.4788 180.864 83.4788C180.608 83.4788 180.4 83.6866 180.4 83.943V86.1506H181.328Z" fill="#E9E9E9"/>
<path d="M185.815 86.1506V83.943C185.815 83.6866 185.607 83.4788 185.351 83.4788C185.094 83.4788 184.887 83.6866 184.887 83.943V86.1506H185.815Z" fill="#E9E9E9"/>
<path d="M190.303 86.1506V83.943C190.303 83.6866 190.095 83.4788 189.839 83.4788C189.583 83.4788 189.375 83.6866 189.375 83.943V86.1506H190.303Z" fill="#E9E9E9"/>
<path d="M194.79 86.1506V83.943C194.79 83.6866 194.582 83.4788 194.326 83.4788C194.069 83.4788 193.862 83.6866 193.862 83.943V86.1506H194.79Z" fill="#E9E9E9"/>
<path d="M199.278 86.1506V83.943C199.278 83.6866 199.07 83.4788 198.814 83.4788C198.557 83.4788 198.349 83.6866 198.349 83.943V86.1506H199.278Z" fill="#E9E9E9"/>
<path d="M203.765 86.1506V83.943C203.765 83.6866 203.557 83.4788 203.3 83.4788C203.044 83.4788 202.836 83.6866 202.836 83.943V86.1506H203.765Z" fill="#E9E9E9"/>
<path d="M208.253 86.1506V83.943C208.253 83.6866 208.045 83.4788 207.789 83.4788C207.532 83.4788 207.325 83.6866 207.325 83.943V86.1506H208.253Z" fill="#E9E9E9"/>
<path d="M212.74 86.1506V83.943C212.74 83.6866 212.532 83.4788 212.276 83.4788C212.02 83.4788 211.812 83.6866 211.812 83.943V86.1506H212.74Z" fill="#E9E9E9"/>
<path d="M217.228 86.1506V83.943C217.228 83.6866 217.02 83.4788 216.763 83.4788C216.507 83.4788 216.299 83.6866 216.299 83.943V86.1506H217.228Z" fill="#E9E9E9"/>
<path d="M221.714 86.1506V83.943C221.714 83.6866 221.507 83.4788 221.25 83.4788C220.994 83.4788 220.786 83.6866 220.786 83.943V86.1506H221.714Z" fill="#E9E9E9"/>
<path d="M248.639 86.1506V83.943C248.639 83.6866 248.431 83.4788 248.174 83.4788C247.918 83.4788 247.71 83.6866 247.71 83.943V86.1506H248.639Z" fill="#E9E9E9"/>
<path d="M239.664 86.1506V83.943C239.664 83.6866 239.456 83.4788 239.2 83.4788C238.943 83.4788 238.736 83.6866 238.736 83.943V86.1506H239.664Z" fill="#E9E9E9"/>
<path d="M262.102 86.1509V83.9432C262.102 83.6869 261.894 83.479 261.637 83.479C261.381 83.479 261.173 83.6869 261.173 83.9432V86.1509H262.102Z" fill="#E9E9E9"/>
<path d="M230.689 86.1506V83.943C230.689 83.6866 230.481 83.4788 230.225 83.4788C229.968 83.4788 229.761 83.6866 229.761 83.943V86.1506H230.689Z" fill="#E9E9E9"/>
<path d="M271.076 86.1509V83.9432C271.076 83.6869 270.868 83.479 270.612 83.479C270.356 83.479 270.148 83.6869 270.148 83.9432V86.1509H271.076Z" fill="#E9E9E9"/>
<path d="M235.177 86.1506V83.943C235.177 83.6866 234.969 83.4788 234.713 83.4788C234.456 83.4788 234.248 83.6866 234.248 83.943V86.1506H235.177Z" fill="#E9E9E9"/>
<path d="M244.151 86.1506V83.943C244.151 83.6866 243.944 83.4788 243.687 83.4788C243.431 83.4788 243.223 83.6866 243.223 83.943V86.1506H244.151Z" fill="#E9E9E9"/>
<path d="M167.866 86.1506V83.943C167.866 83.6866 167.658 83.4788 167.402 83.4788C167.145 83.4788 166.937 83.6866 166.937 83.943V86.1506H167.866Z" fill="#E9E9E9"/>
<path d="M283.146 78.4697H281.481C281.204 78.4697 280.98 78.694 280.98 78.9707C280.98 79.2474 281.204 79.4717 281.481 79.4717H283.146V78.4697Z" fill="#E9E9E9"/>
<path d="M283.146 73.7942H281.481C281.204 73.7942 280.98 74.0185 280.98 74.2952C280.98 74.5718 281.204 74.7961 281.481 74.7961H283.146V73.7942Z" fill="#E9E9E9"/>
<path d="M283.146 69.1184H281.481C281.204 69.1184 280.98 69.3427 280.98 69.6194C280.98 69.8961 281.204 70.1204 281.481 70.1204H283.146V69.1184Z" fill="#E9E9E9"/>
<path d="M283.146 64.4429H281.481C281.204 64.4429 280.98 64.6672 280.98 64.9438C280.98 65.2205 281.204 65.4448 281.481 65.4448H283.146V64.4429Z" fill="#E9E9E9"/>
<path d="M182.2 5.43345L184.911 17.5086L193.245 8.93786L182.2 5.43345Z" fill="#212221"/>
<rect width="31.5917" height="2.04148" rx="1.02074" transform="matrix(-0.667917 -0.705069 -0.692687 0.755885 274.014 84.6089)" fill="#212221"/>
<rect width="83.8176" height="2.04791" rx="1.02396" transform="matrix(-0.668037 -0.70496 -0.692842 0.755752 244.15 69.9236)" fill="#212221"/>
<rect width="13.1586" height="1.8692" rx="0.934599" transform="matrix(-0.796621 0.651353 0.548645 0.79877 252.796 62.0945)" fill="#212221"/>
<path opacity="0.15" d="M76.8199 265.569C76.8199 260.549 124.834 256.481 184.062 256.481C243.289 256.481 291.303 260.551 291.303 265.569C291.303 269.641 259.714 273.085 216.175 274.243C211.433 281.487 219.348 290.151 225.414 293.277C236.066 293.771 243.71 294.876 242.505 297.23C236.813 308.362 188.436 296.518 188.436 296.518C188.436 296.518 169.52 297.614 169.52 295.937C169.52 295.167 172.851 294.463 178.331 293.927L177.926 293.906L198.348 274.579C193.673 274.633 188.905 274.661 184.059 274.661C124.832 274.661 76.8176 270.591 76.8176 265.573L76.8199 265.569Z" fill="#1F3C88"/>
<path d="M67.3469 198.812C68.7606 220.534 80.5188 242.241 99.7939 254.186C122.77 268.427 154.895 265.275 181.06 267.089C203.679 268.658 226.472 270.004 249.098 267.763C267.638 265.922 286.338 259.082 295.195 242.32C304.068 225.52 305.027 203.198 296.156 186.194C293.329 180.768 289.54 175.944 285.088 171.74C284.363 171.049 283.609 170.374 282.846 169.717C282.329 169.274 281.807 168.835 281.272 168.407C280.456 167.748 279.617 167.105 278.766 166.48C278.486 166.277 278.203 166.073 277.915 165.87C277.633 165.667 277.345 165.468 277.058 165.271C276.771 165.074 276.483 164.875 276.191 164.682C275.973 164.536 275.755 164.393 275.536 164.25C275.175 164.008 274.808 163.772 274.433 163.543C271.127 161.467 267.645 159.643 264.054 158.074C260.56 156.539 256.962 155.241 253.342 154.194C241.439 150.754 229.009 149.534 216.727 148.029C190.666 144.844 164.132 143.758 137.864 143.773C116.428 143.78 92.2907 146.766 77.958 163.901C69.8663 173.577 66.54 186.438 67.3492 198.812H67.3469Z" fill="#98C5FE"/>
<path d="M111.477 162.122C111.477 162.122 105.948 157.286 103.017 154.486C100.086 151.686 106.479 151.596 109.631 155.085C112.782 158.574 111.477 162.124 111.477 162.124V162.122Z" fill="#F9B384"/>
<path d="M264.052 158.074C267.642 159.643 271.127 161.467 274.431 163.543C274.805 163.775 275.171 164.01 275.534 164.25C275.752 164.395 275.971 164.539 276.189 164.682C276.481 164.875 276.769 165.072 277.056 165.271C277.343 165.47 277.631 165.667 277.913 165.87C278.201 166.074 278.483 166.277 278.764 166.48C279.603 167.101 280.426 167.739 281.235 168.392L281.27 168.409C281.805 168.837 282.327 169.276 282.844 169.719C283.607 170.379 284.361 171.053 285.085 171.742C285.023 172.31 284.626 172.856 283.975 172.98C279.663 173.793 277.502 177.625 274.026 179.804C271.447 181.421 268.396 181.866 265.477 180.939C268.619 187.139 270.355 193.287 268.996 200.227C268.583 202.325 267.868 204.367 266.891 206.296C270.93 203.502 274.821 197.517 276.421 191.448C276.649 190.587 277.582 190.046 278.506 190.273C279.431 190.485 279.996 191.354 279.771 192.214C277.789 199.728 272.746 206.949 267.507 209.773C266.259 210.445 264.992 210.873 263.737 211.07C262.698 212.309 261.539 213.459 260.268 214.491L252.521 216.507L246.2 178.509L264.056 158.076L264.052 158.074Z" fill="#89B1E4"/>
<path d="M241.598 183.592C257.616 177.782 268.735 171.604 275.19 167.491C279.373 164.824 281.491 160.123 280.633 155.469L272.374 110.633C271.523 106.018 268.238 102.096 263.618 100.25C250.368 94.9585 237.465 91.9358 226.081 90.4694C226.081 90.4694 219.705 89.9899 211.572 90.737C206.22 91.2293 193.965 94.5903 186.177 96.8445C181.777 98.1183 178.244 101.186 176.578 105.187C173.311 113.026 168.005 126.265 166.314 133.419C160.47 158.128 161.429 156.299 161.429 156.299L155.394 194.298L219.472 197.641L235.851 190.684L241.598 183.594V183.592Z" fill="#F26C59"/>
<path d="M201.944 47.7872C201.944 47.7872 207.62 36.9508 222.704 41.9002C233.623 39.6931 241.956 51.7347 233.911 68.1243L218.753 71.4017L201.944 47.7872Z" fill="#102048"/>
<path d="M209.99 78.4272V97.5976C209.99 102.082 213.898 105.722 218.713 105.722C225.242 105.722 230.534 100.792 230.534 94.7119V78.4272H209.99Z" fill="#F9B384"/>
<path d="M209.99 86.38V96.8375C219.144 96.8803 225.219 85.8555 225.219 85.8555L209.99 86.38Z" fill="#E28B6D"/>
<path d="M200.933 76.0151C201.485 78.6696 202.271 81.3884 203.405 83.7796C205.382 87.9797 208.397 91.1801 213.006 91.2722C223.795 91.4862 232.114 77.7598 232.114 77.7598L230.39 59.0283L222.202 50.4653L199.646 63.4425C199.646 63.4425 199.584 69.5329 200.933 76.0151Z" fill="#F9B384"/>
<path d="M230.751 72.2732C230.751 72.2732 228.523 63.843 220.765 58.3584C220.765 58.3584 209.487 72.072 197.561 65.4486C185.635 58.8251 190.81 45.7794 201.943 47.7874L214.728 46.4495L230.748 51.1998L233.477 62.9075L230.748 72.2732H230.751Z" fill="#102048"/>
<path opacity="0.4" d="M219.428 169.421C230.294 147.556 243.99 157.992 247.344 149.964C252.04 138.717 251.151 125.99 251.176 122.135L257.721 156.453C257.721 156.453 243.11 157.746 237.705 165.941L219.428 169.421Z" fill="#D96150"/>
<path d="M250.844 121.549C251.251 124.484 251.731 127.408 252.228 130.33C252.71 133.254 253.278 136.163 253.798 139.081C254.343 141.995 254.917 144.904 255.529 147.805L256.464 152.155C256.802 153.6 257.117 155.051 257.483 156.492L257.958 156.413C257.768 154.942 257.531 153.48 257.315 152.014L256.591 147.627C256.096 144.705 255.563 141.789 255.002 138.88C254.416 135.973 253.878 133.059 253.253 130.159C252.644 127.256 252.016 124.357 251.317 121.467L250.842 121.546L250.844 121.549Z" fill="#707070"/>
<path d="M187.356 116.122C186.487 119.934 185.683 123.76 184.896 127.585C184.097 131.411 183.375 135.247 182.612 139.079C181.883 142.915 181.168 146.753 180.476 150.596L179.474 156.365C179.163 158.292 178.832 160.217 178.547 162.148L178.989 162.22C179.437 160.315 179.839 158.403 180.264 156.496L181.464 150.759C182.239 146.929 182.993 143.097 183.733 139.263C184.437 135.423 185.184 131.588 185.853 127.744C186.535 123.899 187.2 120.052 187.8 116.194L187.358 116.122H187.356Z" fill="#707070"/>
<path opacity="0.4" d="M184.32 133.819C183.555 140.777 184.704 176.812 202.71 177.347L202.52 185.197L174.169 183.592L184.323 133.819H184.32Z" fill="#D96150"/>
<path d="M221.341 176.366C208.555 171.282 206.109 171.47 204.387 171.55C198.498 171.817 190.02 182.788 190.02 182.788L190.163 184.797H222.488L221.338 176.366H221.341Z" fill="#E28B6D"/>
<path d="M172.157 182.833H211.953V188.453H172.157V182.833Z" fill="white"/>
<path d="M118.039 188.457H187.192L171.676 130.906H102.522L118.039 188.457Z" fill="#D2D2D2"/>
<path d="M111.774 164.92C118.615 163.967 140.74 159.686 186.334 185.555L187.387 189.123L118.04 188.46L111.774 164.922V164.92Z" fill="#C4C4C4"/>
<path d="M110.46 177.705C110.89 180.415 111.035 184.394 120.051 183.893L122.708 182.622L120.193 180.046L114.77 177.471L110.46 177.705Z" fill="#F9B384"/>
<path d="M109.609 170.389C109.609 170.389 104.676 176.392 109.632 178.24C115.021 180.248 120.193 180.046 120.193 180.046C117.894 174.027 110.423 174.427 110.423 174.427L109.609 170.392V170.389Z" fill="#F9B384"/>
<path d="M109.466 166.51C109.466 166.51 102.667 172.397 108.988 174.048C117.917 176.379 120.673 176.546 120.673 176.546C121.151 172.132 112.291 169.276 112.291 169.276L109.466 166.51Z" fill="#F9B384"/>
<path d="M110.855 161.381C110.855 161.381 101.563 166.643 110.28 169.587C118.997 172.53 121.055 172.485 121.055 172.485C121.533 168.071 112.195 166.553 112.195 166.553L110.855 161.379V161.381Z" fill="#F9B384"/>
<path d="M121.057 172.485C121.057 172.485 110.928 171.147 107.91 168.871" stroke="#E28B6D" stroke-width="2.5" stroke-miterlimit="10"/>
<path d="M120.673 176.544C120.673 176.544 110.138 175.161 106.833 173.021" stroke="#E28B6D" stroke-width="2.5" stroke-miterlimit="10"/>
<path d="M120.195 180.046C120.195 180.046 113.945 180.247 110.426 178.642" stroke="#E28B6D" stroke-width="2.5" stroke-miterlimit="10"/>
<path d="M218.322 264.404C217.269 263.869 200.603 267.258 182.117 254.503L205.966 248.171L218.322 264.404Z" fill="#102048"/>
<path d="M112.426 190.735C111.633 189.682 110.948 188.13 111.95 187.241C112.989 186.31 114.69 187.13 115.782 188.008C117.706 189.549 119.455 191.24 121.069 193.038L161.332 200.007L216.502 212.493L207.017 223.769C179.432 225.642 163.72 226.124 146.459 223.287C137.659 221.842 129.795 220.35 123.926 215.897C122.531 214.831 121.209 213.044 122.117 211.594C122.731 210.616 124.007 210.359 125.29 210.368C122.343 209.721 119.481 208.773 116.761 207.538C115.547 206.992 114.198 206.135 114.226 204.883C114.242 203.984 115.023 203.224 115.92 202.903C116.816 202.582 117.805 202.608 118.763 202.674C122.441 202.931 126.078 203.68 129.533 204.89C123.246 200.801 116.851 196.568 112.426 190.739V190.735ZM129.62 204.939C129.62 204.928 129.613 204.922 129.602 204.911C129.586 204.907 129.563 204.9 129.545 204.89C129.568 204.905 129.595 204.922 129.618 204.939H129.62Z" fill="#89B1E4"/>
<path d="M204.818 195.633C204.818 195.633 151.084 171.817 133.556 172.887C116.028 173.958 116.603 194.295 123.212 203.125C129.821 211.956 145.338 223.73 202.519 220.251L204.818 195.633Z" fill="#263238"/>
<path d="M177.928 293.904C180.836 294.67 184.963 294.857 190.641 294.015C190.641 294.015 197.997 295.792 205.238 297.19C210.139 298.136 214.984 298.907 217.46 298.832C217.672 298.828 217.885 298.817 218.104 298.8C222.855 298.485 228.844 296.177 232.023 292.881C232.027 292.87 232.034 292.859 232.046 292.855C232.919 291.945 233.579 290.956 233.935 289.918C235.659 284.919 232.016 278.857 212.288 280.103C212.288 280.103 205.778 278.679 204.242 274.216C202.709 269.759 214.012 248.351 214.012 248.351L197.921 238.183L182.117 254.506C182.117 254.506 179.721 269.223 179.721 274.04C179.721 274.04 173.021 282.961 172.06 286.885C171.446 289.389 172.791 292.551 177.928 293.906V293.904Z" fill="#D3DFFF"/>
<path d="M268.401 158.361C266.557 157.699 264.679 157.166 262.78 156.676C261.831 156.434 260.872 156.207 259.9 156.029C259.413 155.937 258.923 155.86 258.424 155.796C258.174 155.764 257.925 155.74 257.663 155.721C257.388 155.708 257.116 155.71 256.859 155.736C254.795 155.937 252.923 156.541 251.064 157.181C249.215 157.838 247.404 158.573 245.627 159.367C243.843 160.152 242.11 161.026 240.402 161.944C238.696 162.863 237.018 163.826 235.386 164.858C232.145 166.941 229.025 169.229 226.34 171.926L226.681 172.245C228.124 171.027 229.63 169.878 231.193 168.801C232.745 167.709 234.352 166.686 235.993 165.714C239.25 163.732 242.671 161.989 246.153 160.381C247.896 159.579 249.671 158.836 251.471 158.174C253.27 157.547 255.114 156.875 256.948 156.644C257.178 156.614 257.397 156.607 257.608 156.607C257.836 156.618 258.075 156.635 258.309 156.659C258.783 156.708 259.259 156.77 259.735 156.847C260.686 157.001 261.638 157.181 262.587 157.38C264.484 157.783 266.376 158.251 268.233 158.787L268.396 158.363L268.401 158.361Z" fill="#707070"/>
<path d="M258.839 228.414C252.375 228.012 246.021 228.444 241.407 226.941C236.474 225.336 223.592 226.406 223.592 226.406L230.679 216.906L259.414 223.595L258.839 228.412V228.414Z" fill="#89B1E4"/>
<path d="M258.551 210.886C265.16 200.985 265.16 181.451 256.827 172.621C247.303 162.529 226.943 158.706 216.311 170.48C205.679 182.254 186.14 225.336 182.117 254.504C182.117 254.504 203.668 247.814 218.322 264.405C218.322 264.405 237.574 223.463 241.597 208.478L252.516 216.506L258.551 210.886Z" fill="#263238"/>
<path d="M241.597 208.478C241.597 208.478 244.471 207.497 248.493 209.993C248.493 209.993 279.911 209.368 286.901 215.97C293.894 222.57 288.529 231.401 278.281 232.383C269.679 233.207 252.981 226.993 247.836 224.974C246.79 224.565 245.68 224.317 244.549 224.248L236.041 223.73L241.597 208.478Z" fill="#D3DFFF"/>
<path d="M229.051 72.819C229.051 72.819 231.159 66.3155 235.793 67.9424C240.43 69.5672 237.961 78.0339 228.809 80.3887L229.051 72.8212V72.819Z" fill="#F9B384"/>
<path d="M233.988 108.679C231.701 110.181 229.262 111.474 226.676 112.391C224.092 113.292 221.366 113.864 218.63 113.804C215.902 113.774 213.201 113.146 210.762 111.984L209.845 111.549C209.543 111.395 209.268 111.2 208.978 111.029C208.406 110.674 207.812 110.338 207.302 109.901L206.495 109.291L206.091 108.985C205.96 108.88 205.842 108.758 205.718 108.647C205.229 108.188 204.73 107.732 204.224 107.281L203.882 107.55C204.334 108.06 204.794 108.565 205.263 109.068C205.38 109.192 205.491 109.325 205.617 109.443L206.006 109.785L206.787 110.473C207.295 110.948 207.891 111.325 208.47 111.723C208.764 111.915 209.042 112.132 209.35 112.307L210.291 112.808C212.81 114.131 215.716 114.846 218.619 114.861C221.522 114.868 224.403 114.281 227.039 113.226C229.683 112.181 232.115 110.732 234.267 109.006L233.991 108.677L233.988 108.679Z" fill="#707070"/>
<path d="M246.36 191.392L243.871 199.506C243.025 202.205 242.232 204.918 241.347 207.604C240.48 210.295 239.618 212.986 238.708 215.664C238.253 217.002 237.804 218.344 237.305 219.667C237.062 220.331 236.843 221.005 236.586 221.663C236.328 222.322 236.078 222.983 235.834 223.649L236.248 223.81C236.889 222.53 237.492 221.232 238.059 219.922C238.625 218.612 239.138 217.283 239.659 215.958C240.68 213.299 241.583 210.606 242.439 207.9C243.268 205.187 244.087 202.475 244.809 199.737C245.537 197.001 246.225 194.257 246.799 191.487L246.363 191.39L246.36 191.392Z" fill="#102048"/>
<path opacity="0.1" d="M177.929 293.904C180.837 294.67 184.963 294.856 190.641 294.015C190.641 294.015 202.806 296.916 210.493 298.052C202.592 296.58 191.099 287.481 192.39 281.729C181.041 285.208 177.952 290.493 177.929 293.902V293.904Z" fill="#1F3C88"/>
<path opacity="0.4" d="M208.484 294.91C209.948 296.59 212.132 297.729 214.426 298.303C215.628 298.603 216.863 298.763 218.104 298.802C222.856 298.487 228.844 296.179 232.023 292.883C232.028 292.872 232.035 292.861 232.046 292.857C232.384 292.429 232.701 291.984 232.977 291.525C231.287 292.992 229.448 294.191 227.465 295.107C226.472 295.546 225.465 295.967 224.414 296.263C223.904 296.445 223.368 296.552 222.84 296.691C222.318 296.841 221.771 296.899 221.23 296.991C216.939 297.665 212.38 297.248 208.484 294.914V294.91Z" fill="#1F3C88"/>
<path d="M231.134 73.7411C231.239 73.1566 231.536 72.6108 231.883 72.1141C232.237 71.6217 232.66 71.1636 233.15 70.8404C233.639 70.5214 234.17 70.363 234.619 70.5878C235.09 70.8061 235.462 71.337 235.786 71.8765L236.104 71.7737C235.966 71.1401 235.715 70.44 235 69.9798C234.648 69.7507 234.166 69.6694 233.747 69.74C233.327 69.8107 232.959 69.9798 232.648 70.1896C232.028 70.6156 231.573 71.1679 231.244 71.7716C230.924 72.3731 230.692 73.0517 230.796 73.7475L231.134 73.7411Z" fill="#E28B6D"/>
<path d="M203.789 73.579C203.992 74.5016 204.739 75.1396 205.458 75.0026C206.178 74.8655 206.596 74.0071 206.394 73.0844C206.192 72.1618 205.445 71.5238 204.725 71.6609C204.005 71.7979 203.587 72.6563 203.789 73.579Z" fill="#102048"/>
<path d="M214.992 73.1708C214.829 72.2408 215.284 71.3977 216.009 71.2878C216.733 71.1778 217.452 71.8426 217.615 72.7726C217.778 73.7026 217.323 74.5457 216.598 74.6557C215.874 74.7656 215.155 74.1008 214.992 73.1708Z" fill="#102048"/>
<path d="M210.236 74.4309C210.167 75.1909 210.135 75.9465 210.126 76.6872C210.094 76.9698 209.951 77.2117 209.698 77.4708C209.452 77.7255 209.137 77.9931 208.864 78.3656C208.726 78.5497 208.62 78.783 208.567 79.0142C208.51 79.2433 208.503 79.4723 208.519 79.695C208.56 80.1403 208.728 80.5791 209.048 80.9388C209.204 81.1207 209.411 81.2684 209.639 81.3776C209.873 81.4718 210.128 81.5317 210.372 81.521C210.864 81.5018 211.285 81.3241 211.636 81.095L211.478 80.8189C211.105 80.9323 210.733 81.018 210.406 80.9602C210.08 80.9174 209.823 80.7568 209.648 80.5063C209.296 80.0182 209.246 79.254 209.583 78.8002C209.76 78.5368 210.055 78.2885 210.333 77.961C210.613 77.6527 210.882 77.186 210.864 76.7001C210.802 75.923 210.703 75.1609 210.574 74.4031L210.239 74.4288L210.236 74.4309Z" fill="#E28B6D"/>
<path d="M219.499 69.9503C219.042 69.5243 218.497 69.171 217.885 68.9184C217.276 68.6637 216.587 68.5224 215.885 68.5631C215.184 68.6016 214.497 68.8435 213.95 69.2224C213.398 69.5992 212.973 70.0894 212.658 70.616L212.925 70.8087C213.4 70.4319 213.858 70.0787 214.359 69.8154C214.858 69.5542 215.393 69.3937 215.945 69.3594C217.06 69.2802 218.193 69.6934 219.301 70.205L219.499 69.9503Z" fill="#102048"/>
<path d="M207.806 70.8658C207.615 70.2964 207.107 69.8468 206.546 69.5792C205.981 69.3031 205.344 69.1875 204.712 69.1982C204.082 69.211 203.448 69.363 202.898 69.6627C202.349 69.9581 201.894 70.412 201.657 70.9386L201.94 71.1099C202.721 70.3777 203.703 70.0288 204.735 69.9967C205.751 69.9753 206.829 70.2364 207.503 71.005L207.804 70.8658H207.806Z" fill="#102048"/>
<path d="M215.652 83.4326L208.029 83.9378C208.029 83.9378 212.282 89.1912 215.652 83.4326Z" fill="white"/>
<ellipse cx="181.803" cy="158.973" rx="1.60556" ry="4.17445" transform="rotate(12.4273 181.803 158.973)" fill="#C1C0C0"/>
<path d="M149.072 99.4953C157.94 90.628 157.94 76.2514 149.072 67.3841C140.205 58.5169 125.829 58.5169 116.961 67.3841C108.094 76.2514 108.094 90.628 116.961 99.4953C125.829 108.363 140.205 108.363 149.072 99.4953Z" fill="#FFB93E"/>
<path d="M133.018 104.395C128.231 104.395 123.593 102.735 119.893 99.699C116.193 96.6626 113.661 92.4372 112.727 87.7428C111.793 83.0485 112.516 78.1756 114.773 73.9545C117.029 69.7333 120.679 66.4252 125.101 64.5936C129.523 62.7621 134.443 62.5205 139.024 63.9101C143.604 65.2996 147.561 68.2343 150.22 72.2141C152.878 76.1939 154.075 80.9725 153.606 85.7358C153.137 90.499 151.03 94.9522 147.645 98.3364C145.729 100.263 143.449 101.791 140.938 102.831C138.428 103.871 135.735 104.403 133.018 104.395ZM133.018 64.2544C129.17 64.2544 125.409 65.3954 122.209 67.5331C119.01 69.6709 116.517 72.7093 115.044 76.2641C113.572 79.819 113.187 83.7307 113.937 87.5045C114.688 91.2783 116.541 94.7447 119.262 97.4653C121.983 100.186 125.449 102.039 129.223 102.789C132.997 103.54 136.909 103.154 140.463 101.681C144.018 100.209 147.056 97.7151 149.194 94.5156C151.331 91.3162 152.472 87.5548 152.472 83.7071C152.466 78.5494 150.415 73.6046 146.767 69.9577C143.12 66.3108 138.175 64.2597 133.018 64.2544Z" fill="#FFA412"/>
<path d="M132.967 95.0098C132.571 94.9462 132.329 94.7722 132.108 94.4663L125.474 85.2919C125.142 84.8331 125.095 84.285 125.443 83.8004C125.66 83.2946 126.229 83.1158 126.756 83.2005L130.708 83.8356C131.762 84.005 132.879 83.7792 133.665 83.0946C134.561 82.5629 135.126 81.5726 135.295 80.5187C135.465 79.4648 135.239 78.3474 134.554 77.5616C134.023 76.6654 133.032 76.1008 131.978 75.9314L128.026 75.2963C127.236 75.1693 126.794 74.5576 126.921 73.7672C127.048 72.9768 127.659 72.5345 128.45 72.6615L142.941 74.9903C143.731 75.1174 144.173 75.729 144.046 76.5194C143.919 77.3099 143.308 77.7521 142.517 77.6251L137.248 76.7783C137.848 78.0909 138.163 79.493 137.93 80.9421C137.655 82.6547 136.721 84.2614 135.213 85.2353C133.816 86.3622 131.997 86.7456 130.285 86.4704L129.494 86.3434L134.249 92.9184C134.691 93.5301 134.564 94.3205 133.952 94.7627C133.646 94.9839 133.362 95.0733 132.967 95.0098Z" fill="#333333"/>
<path d="M141.67 82.8947L127.179 80.5659C126.389 80.4389 125.946 79.8273 126.073 79.0369C126.2 78.2464 126.812 77.8042 127.603 77.9312L142.094 80.26C142.884 80.387 143.326 80.9987 143.199 81.7891C143.072 82.5795 142.461 83.0218 141.67 82.8947Z" fill="#333333"/>
<path d="M115.911 28.8151C117.293 22.6523 113.029 16.1475 106.387 14.2863C99.7449 12.4251 93.2401 15.9122 91.8582 22.0751C90.4762 28.2379 94.7405 34.7427 101.383 36.6039C108.025 38.4651 114.529 34.978 115.911 28.8151Z" fill="#FFB93E"/>
<path d="M112.27 33.3558C110.555 35.0938 108.22 36.1435 105.664 36.3259C103.107 36.5083 100.487 35.8123 98.2502 34.3563C96.0129 32.9003 94.2969 30.7746 93.3945 28.3412C92.4922 25.9078 92.4593 23.3174 93.3014 21.0113C94.1436 18.7053 95.8087 16.8262 98.0131 15.6944C100.217 14.5626 102.825 14.248 105.391 14.8042C107.956 15.3604 110.322 16.7531 112.084 18.7449C113.847 20.7367 114.897 23.2044 115.056 25.7274C115.15 27.1602 114.953 28.5721 114.474 29.8815C113.996 31.1909 113.247 32.3718 112.27 33.3558ZM96.0006 18.007C94.6219 19.4042 93.7366 21.2063 93.4566 23.1854C93.1767 25.1645 93.5147 27.2318 94.428 29.1258C95.3412 31.0197 96.7887 32.6553 98.5872 33.8257C100.386 34.9961 102.455 35.6487 104.532 35.701C106.61 35.7533 108.603 35.2029 110.26 34.1195C111.916 33.0361 113.161 31.4684 113.838 29.6144C114.515 27.7605 114.593 25.7037 114.062 23.7042C113.531 21.7046 112.415 19.8521 110.856 18.381C108.763 16.4109 106.024 15.2651 103.239 15.1949C100.454 15.1248 97.8508 16.1361 96.0006 18.007Z" fill="#FFA412"/>
<g clip-path="url(#clip0_1856_9255)">
<path d="M107.252 30.3626C107.077 30.4641 106.926 30.4732 106.741 30.4236L101.193 28.9372C100.916 28.8629 100.722 28.6623 100.704 28.3601C100.627 28.0918 100.794 27.8393 101.028 27.7039L102.787 26.6886C103.256 26.4179 103.623 25.9713 103.713 25.4505C103.896 24.9543 103.801 24.3839 103.53 23.915C103.259 23.4461 102.813 23.0787 102.292 22.9886C101.796 22.8062 101.225 22.901 100.756 23.1718L98.9978 24.187C98.6461 24.3901 98.2763 24.291 98.0732 23.9393C97.8702 23.5876 97.9693 23.2178 98.3209 23.0147L104.769 19.2922C105.12 19.0891 105.49 19.1882 105.693 19.5399C105.896 19.8916 105.797 20.2614 105.445 20.4645L103.101 21.8181C103.757 22.1426 104.33 22.5934 104.702 23.2381C105.142 24.0001 105.289 24.9313 105.007 25.7973C104.818 26.688 104.225 27.421 103.464 27.8609L103.112 28.064L107.087 29.1293C107.457 29.2283 107.66 29.58 107.561 29.9499C107.512 30.1348 107.428 30.2611 107.252 30.3626Z" fill="#333333"/>
<path d="M106.799 22.8091L100.351 26.5316C99.9997 26.7347 99.6298 26.6356 99.4268 26.2839C99.2237 25.9322 99.3228 25.5624 99.6745 25.3593L106.122 21.6368C106.474 21.4338 106.844 21.5329 107.047 21.8845C107.25 22.2362 107.151 22.6061 106.799 22.8091Z" fill="#333333"/>
</g>
<path d="M174.538 56.1364C182.454 54.2511 187.76 46.723 186.389 39.3219C185.018 31.9209 177.49 27.4494 169.575 29.3347C161.659 31.22 156.353 38.748 157.723 46.1491C159.094 53.5502 166.622 58.0216 174.538 56.1364Z" fill="#FFB93E"/>
<path d="M176.698 54.2221C173.738 55.4548 170.501 55.7176 167.537 54.9659C164.572 54.2142 162.065 52.4944 160.441 50.0996C158.817 47.7047 158.178 44.7831 158.631 41.8324C159.085 38.8817 160.604 36.0846 162.93 33.9176C165.255 31.7506 168.243 30.3479 171.385 29.9484C174.526 29.5489 177.626 30.1774 180.158 31.7267C182.689 33.2761 184.494 35.6504 185.266 38.4453C186.037 41.2401 185.728 44.2824 184.39 47.0539C183.635 48.6292 182.566 50.0739 181.246 51.3043C179.925 52.5347 178.379 53.5265 176.698 54.2221ZM167.748 31.6884C165.37 32.6793 163.299 34.2885 161.797 36.3125C160.296 38.3364 159.432 40.6843 159.314 43.0591C159.197 45.4338 159.83 47.7289 161.136 49.6541C162.441 51.5792 164.36 53.0479 166.649 53.8745C168.937 54.7011 171.493 54.8484 173.994 54.2978C176.494 53.7472 178.826 52.5235 180.696 50.7813C182.565 49.0391 183.887 46.8568 184.496 44.5102C185.104 42.1637 184.97 39.7584 184.112 37.5985C182.959 34.7046 180.588 32.4571 177.52 31.3491C174.453 30.2411 170.938 30.3631 167.748 31.6884Z" fill="#FFA412"/>
<path d="M171.155 49.8721C170.911 49.8067 170.77 49.6817 170.651 49.4754L167.077 43.2858C166.898 42.9763 166.904 42.6291 167.154 42.3473C167.323 42.0436 167.692 41.9681 168.017 42.0553L170.458 42.7093C171.109 42.8837 171.825 42.814 172.363 42.4349C172.96 42.1589 173.378 41.5734 173.553 40.9225C173.727 40.2716 173.658 39.5554 173.278 39.0178C173.002 38.4206 172.417 38.0021 171.766 37.8277L169.325 37.1737C168.837 37.0429 168.599 36.6303 168.73 36.1421C168.86 35.654 169.273 35.4157 169.761 35.5465L178.711 37.9446C179.199 38.0754 179.437 38.488 179.306 38.9762C179.176 39.4643 178.763 39.7025 178.275 39.5717L175.02 38.6997C175.312 39.5628 175.42 40.4636 175.18 41.3585C174.897 42.4162 174.206 43.3649 173.197 43.8791C172.246 44.4965 171.08 44.6199 170.022 44.3365L169.534 44.2057L172.095 48.6416C172.333 49.0542 172.202 49.5424 171.79 49.7806C171.583 49.8997 171.399 49.9375 171.155 49.8721Z" fill="#333333"/>
<path d="M177.403 42.8262L168.453 40.4282C167.965 40.2974 167.727 39.8848 167.858 39.3966C167.988 38.9084 168.401 38.6702 168.889 38.801L177.839 41.199C178.327 41.3298 178.565 41.7425 178.434 42.2306C178.304 42.7188 177.891 42.957 177.403 42.8262Z" fill="#333333"/>
<defs>
<clipPath id="clip0_1856_9255">
<rect width="16.2438" height="16.2438" fill="white" transform="translate(92.8643 23.0391) rotate(-30)"/>
</clipPath>
</defs>
</svg>
