<svg width="184" height="137" viewBox="0 0 184 137" fill="none" xmlns="http://www.w3.org/2000/svg">
<path d="M183.867 119.61H0.866699V119.701H183.867V119.61Z" fill="#EBEBEB"/>
<path d="M165.53 125.467H153.408V125.558H165.53V125.467Z" fill="#EBEBEB"/>
<path d="M122.093 126.457H118.913V126.548H122.093V126.457Z" fill="#EBEBEB"/>
<path d="M153.042 122.089H146.019V122.18H153.042V122.089Z" fill="#EBEBEB"/>
<path d="M35.8744 122.701H20.0669V122.792H35.8744V122.701Z" fill="#EBEBEB"/>
<path d="M41.4525 122.701H39.1357V122.792H41.4525V122.701Z" fill="#EBEBEB"/>
<path d="M83.2717 124.237H48.9849V124.328H83.2717V124.237Z" fill="#EBEBEB"/>
<path d="M87.6087 103.376H16.9378C16.3841 103.375 15.8535 103.156 15.4624 102.766C15.0712 102.376 14.8516 101.848 14.8516 101.298V2.49713C14.8564 1.94968 15.0782 1.42623 15.4688 1.04048C15.8594 0.654728 16.3873 0.437827 16.9378 0.43689H87.6087C88.163 0.43689 88.6945 0.655868 89.0865 1.04565C89.4784 1.43543 89.6986 1.96409 89.6986 2.51533V101.298C89.6986 101.849 89.4784 102.378 89.0865 102.767C88.6945 103.157 88.163 103.376 87.6087 103.376ZM16.9378 0.50969C16.4084 0.510654 15.901 0.720469 15.5271 1.09308C15.1531 1.4657 14.9431 1.97066 14.9431 2.49713V101.298C14.9431 101.824 15.1531 102.329 15.5271 102.702C15.901 103.074 16.4084 103.284 16.9378 103.285H87.6087C88.1384 103.284 88.6461 103.074 89.0207 102.702C89.3952 102.329 89.6061 101.824 89.6071 101.298V2.49713C89.6061 1.97032 89.3952 1.46537 89.0207 1.09286C88.6461 0.720351 88.1384 0.510652 87.6087 0.50969H16.9378Z" fill="#EBEBEB"/>
<path d="M166.778 103.376H96.1035C95.5496 103.375 95.0186 103.156 94.6269 102.766C94.2351 102.377 94.0146 101.849 94.0137 101.298V2.49713C94.0194 1.94935 94.2421 1.42591 94.6333 1.04025C95.0245 0.654601 95.5527 0.437817 96.1035 0.43689H166.778C167.328 0.438784 167.855 0.656108 168.245 1.04176C168.635 1.42741 168.856 1.95031 168.861 2.49713V101.298C168.861 101.848 168.641 102.375 168.251 102.765C167.861 103.154 167.331 103.374 166.778 103.376ZM96.1035 0.50969C95.5738 0.510652 95.0661 0.720351 94.6915 1.09286C94.317 1.46537 94.1061 1.97032 94.1052 2.49713V101.298C94.1061 101.824 94.317 102.329 94.6915 102.702C95.0661 103.074 95.5738 103.284 96.1035 103.285H166.778C167.308 103.284 167.816 103.074 168.19 102.702C168.565 102.329 168.776 101.824 168.776 101.298V2.49713C168.776 1.97032 168.565 1.46537 168.19 1.09286C167.816 0.720351 167.308 0.510652 166.778 0.50969H96.1035Z" fill="#EBEBEB"/>
<path d="M98.8741 119.61H111.721V72.0248H98.8741V119.61Z" fill="#E6E6E6"/>
<path d="M101.011 119.61H98.874V115.326H103.255L101.011 119.61Z" fill="#F0F0F0"/>
<path d="M151.161 119.61H164.007V72.0248H151.161V119.61Z" fill="#E6E6E6"/>
<path d="M98.874 117.965H153.027V72.0248H98.874V117.965Z" fill="#F0F0F0"/>
<path d="M100.536 86.6576H151.37V74.0596H100.536V86.6576Z" fill="#E6E6E6"/>
<path d="M123.55 77.9689H128.352C130.438 77.9689 132.433 76.4146 133.867 73.67H118.034C119.469 76.4219 121.464 77.9689 123.55 77.9689Z" fill="#F0F0F0"/>
<path d="M150.89 119.61H153.028V115.326H148.646L150.89 119.61Z" fill="#F0F0F0"/>
<path d="M100.536 101.294H151.37V88.6959H100.536V101.294Z" fill="#E6E6E6"/>
<path d="M123.55 92.609H128.352C130.438 92.609 132.433 91.0547 133.867 88.3102H118.034C119.469 91.0729 121.464 92.609 123.55 92.609Z" fill="#F0F0F0"/>
<path d="M100.536 115.93H151.37V103.332H100.536V115.93Z" fill="#E6E6E6"/>
<path d="M123.55 107.245H128.352C130.438 107.245 132.433 105.691 133.867 102.947H118.034C119.469 105.691 121.464 107.245 123.55 107.245Z" fill="#F0F0F0"/>
<path d="M29.4111 61.2322L78.4697 61.2322V11.8629L29.4111 11.8629L29.4111 61.2322Z" fill="#E6E6E6"/>
<path d="M26.0033 61.2322L77.5654 61.2322V11.8629L26.0033 11.8629L26.0033 61.2322Z" fill="#F0F0F0"/>
<path d="M73.2505 56.937V16.1581L30.3297 16.1581V56.937H73.2505Z" fill="white"/>
<path d="M51.4916 21.5489L43.6153 29.3967C41.7119 31.2944 40.6431 33.8653 40.6431 36.5457C40.6431 39.226 41.7119 41.797 43.6153 43.6946L51.4916 51.5315C51.53 51.5698 51.5756 51.6002 51.6259 51.621C51.6761 51.6417 51.73 51.6524 51.7844 51.6524C51.8388 51.6524 51.8926 51.6417 51.9429 51.621C51.9931 51.6002 52.0388 51.5698 52.0772 51.5315L59.9572 43.6946C61.8605 41.797 62.9294 39.226 62.9294 36.5457C62.9294 33.8653 61.8605 31.2944 59.9572 29.3967L52.0808 21.5489C52.0022 21.4722 51.8964 21.4292 51.7862 21.4292C51.676 21.4292 51.5703 21.4722 51.4916 21.5489ZM44.2009 43.0977C42.4533 41.3549 41.472 38.9941 41.472 36.5329C41.472 34.0717 42.4533 31.7109 44.2009 29.9682V43.0977ZM59.3716 43.0977V29.9827C61.1191 31.7255 62.1005 34.0862 62.1005 36.5475C62.1005 39.0087 61.1191 41.3695 59.3716 43.1122V43.0977Z" fill="#F0F0F0"/>
<path d="M149.774 55.0369H122.364L120.801 71.1329H148.211L149.774 55.0369Z" fill="#E6E6E6"/>
<path d="M148.211 71.1329L148.101 72.0247H120.688L120.801 71.1329H148.211Z" fill="#E6E6E6"/>
<path d="M148.932 55.0369H121.522L119.956 71.1329H147.365L148.932 55.0369Z" fill="#F0F0F0"/>
<path d="M146.813 70.0847L147.959 56.1289C147.961 56.0825 147.955 56.0359 147.939 55.9921C147.923 55.9483 147.899 55.9081 147.867 55.874C147.835 55.84 147.797 55.8127 147.754 55.7939C147.711 55.7752 147.665 55.7653 147.618 55.7649H122.419C122.333 55.7646 122.249 55.7966 122.186 55.8546C122.122 55.9126 122.082 55.9923 122.075 56.0779L120.915 70.0301C120.912 70.0768 120.918 70.1236 120.934 70.1677C120.95 70.2118 120.975 70.2521 121.007 70.2862C121.04 70.3204 121.079 70.3475 121.122 70.3661C121.165 70.3846 121.212 70.3942 121.259 70.3941H146.458C146.546 70.3981 146.632 70.3682 146.698 70.3105C146.764 70.2528 146.805 70.1719 146.813 70.0847Z" fill="white"/>
<path d="M140.225 71.1329L140.115 72.0247H109.931L110.041 71.1329H140.225Z" fill="#F0F0F0"/>
<path d="M103.38 46.4319L154.85 46.4319V12.4015L103.38 12.4015V46.4319Z" fill="#E6E6E6"/>
<path d="M102.238 46.4319L153.708 46.4319V12.4015L102.238 12.4015V46.4319Z" fill="#F5F5F5"/>
<path d="M151.655 44.1387V14.6984L104.291 14.6984V44.1387H151.655Z" fill="white"/>
<path d="M105.151 44.1351V14.6948H104.287V44.1351H105.151Z" fill="#E6E6E6"/>
<path d="M103.087 40.233L152.859 40.233V37.1536L103.087 37.1536V40.233Z" fill="#F5F5F5"/>
<path d="M99.9976 8.60864H157.094C157.177 8.60959 157.256 8.64287 157.315 8.70138C157.374 8.75988 157.407 8.83895 157.408 8.92168C157.408 9.00471 157.375 9.08433 157.316 9.14304C157.257 9.20174 157.177 9.23472 157.094 9.23472H99.9976C99.956 9.2352 99.9147 9.22746 99.876 9.21195C99.8374 9.19643 99.8023 9.17345 99.7727 9.14433C99.7431 9.11522 99.7196 9.08054 99.7035 9.04233C99.6875 9.00411 99.6792 8.9631 99.6792 8.92168C99.6802 8.83833 99.7141 8.75871 99.7737 8.70011C99.8333 8.6415 99.9138 8.60864 99.9976 8.60864Z" fill="#E6E6E6"/>
<path d="M98.8926 8.92175C98.8926 9.07709 98.9389 9.22896 99.0256 9.35818C99.1123 9.48739 99.2355 9.58817 99.3798 9.64778C99.524 9.7074 99.6828 9.72318 99.836 9.69313C99.9893 9.66309 100.13 9.58857 100.241 9.47898C100.352 9.36938 100.427 9.22963 100.458 9.07735C100.489 8.92508 100.474 8.76711 100.415 8.62338C100.355 8.47965 100.255 8.35661 100.125 8.26978C99.9955 8.18295 99.843 8.13623 99.6868 8.13551C99.5827 8.13503 99.4795 8.15501 99.3831 8.19431C99.2868 8.2336 99.1992 8.29144 99.1254 8.3645C99.0516 8.43756 98.9931 8.52439 98.9531 8.62002C98.9131 8.71565 98.8926 8.81819 98.8926 8.92175Z" fill="#E6E6E6"/>
<path d="M154.422 10.6834C154.534 10.6835 154.642 10.6396 154.722 10.5613C154.802 10.483 154.848 10.3765 154.85 10.2648V9.35483C154.85 9.24188 154.805 9.13356 154.725 9.05369C154.645 8.97382 154.536 8.92896 154.422 8.92896C154.366 8.92895 154.311 8.93999 154.259 8.96144C154.207 8.98289 154.16 9.01432 154.121 9.05391C154.081 9.09351 154.05 9.14048 154.029 9.19213C154.008 9.24378 153.997 9.29908 153.998 9.35483V10.2648C153.999 10.3759 154.045 10.4818 154.124 10.56C154.204 10.6382 154.31 10.6825 154.422 10.6834Z" fill="#E6E6E6"/>
<path d="M104.763 10.6834C104.872 10.6789 104.976 10.6331 105.053 10.5553C105.13 10.4776 105.174 10.3738 105.177 10.2648V9.35483C105.177 9.24188 105.131 9.13356 105.051 9.05369C104.971 8.97382 104.862 8.92896 104.748 8.92896C104.692 8.92895 104.637 8.93999 104.585 8.96144C104.533 8.98289 104.486 9.01432 104.447 9.05391C104.407 9.09351 104.376 9.14048 104.355 9.19213C104.334 9.24378 104.323 9.29908 104.324 9.35483V10.2648C104.325 10.3211 104.337 10.3766 104.359 10.4281C104.382 10.4797 104.415 10.5263 104.456 10.5652C104.496 10.6041 104.545 10.6346 104.597 10.6549C104.65 10.6752 104.706 10.6849 104.763 10.6834Z" fill="#E6E6E6"/>
<path opacity="0.4" d="M100.1 41.9839L152.859 41.9839V8.92177L100.1 8.92177V41.9839Z" fill="#E0E0E0"/>
<path d="M148.551 8.92174C148.551 9.07724 148.598 9.22925 148.684 9.35855C148.771 9.48785 148.895 9.58862 149.039 9.64813C149.184 9.70764 149.343 9.72321 149.496 9.69287C149.649 9.66253 149.79 9.58765 149.901 9.47769C150.011 9.36773 150.087 9.22764 150.117 9.07512C150.148 8.92261 150.132 8.76452 150.072 8.62086C150.012 8.47719 149.911 8.35439 149.781 8.268C149.651 8.18161 149.498 8.1355 149.342 8.1355C149.132 8.1355 148.931 8.21833 148.783 8.36578C148.635 8.51323 148.551 8.71321 148.551 8.92174Z" fill="#E6E6E6"/>
<path d="M73.8838 117.252H78.1147V80.7534H73.8838V117.252Z" fill="#F0F0F0"/>
<path d="M27.9874 119.563H76.4897V117.252H27.9874V119.563Z" fill="#F0F0F0"/>
<path d="M73.8837 80.7535H26.3623V117.252H73.8837V80.7535Z" fill="#F5F5F5"/>
<path d="M67.9506 85.2452H32.2949C30.8557 85.2452 29.689 86.4056 29.689 87.8369V94.6219C29.689 96.0532 30.8557 97.2136 32.2949 97.2136H67.9506C69.3898 97.2136 70.5565 96.0532 70.5565 94.6219V87.8369C70.5565 86.4056 69.3898 85.2452 67.9506 85.2452Z" fill="#F0F0F0"/>
<path d="M67.9506 100.788H32.2949C30.8557 100.788 29.689 101.948 29.689 103.38V110.165C29.689 111.596 30.8557 112.756 32.2949 112.756H67.9506C69.3898 112.756 70.5565 111.596 70.5565 110.165V103.38C70.5565 101.948 69.3898 100.788 67.9506 100.788Z" fill="#F0F0F0"/>
<path d="M41.2695 92.052H58.9766C59.1954 92.052 59.4052 91.9659 59.5602 91.8124C59.7152 91.6589 59.8028 91.4506 59.8038 91.233C59.8028 91.0152 59.7154 90.8065 59.5605 90.6524C59.4055 90.4983 59.1957 90.4114 58.9766 90.4104H41.2695C41.0505 90.4114 40.8406 90.4983 40.6857 90.6524C40.5308 90.8065 40.4433 91.0152 40.4424 91.233C40.4434 91.4506 40.5309 91.6589 40.6859 91.8124C40.841 91.9659 41.0508 92.052 41.2695 92.052Z" fill="#F5F5F5"/>
<path d="M41.2695 107.595H58.9766C59.1954 107.595 59.4052 107.509 59.5602 107.355C59.7152 107.202 59.8028 106.993 59.8038 106.776C59.8028 106.558 59.7154 106.349 59.5605 106.195C59.4055 106.041 59.1957 105.954 58.9766 105.953H41.2695C41.0505 105.954 40.8406 106.041 40.6857 106.195C40.5308 106.349 40.4433 106.558 40.4424 106.776C40.4434 106.993 40.5309 107.202 40.6859 107.355C40.841 107.509 41.0508 107.595 41.2695 107.595Z" fill="#F5F5F5"/>
<path d="M92.3666 136.048C131.559 136.048 163.33 134.203 163.33 131.928C163.33 129.652 131.559 127.807 92.3666 127.807C53.1744 127.807 21.4028 129.652 21.4028 131.928C21.4028 134.203 53.1744 136.048 92.3666 136.048Z" fill="#F5F5F5"/>
<path d="M108.05 17.3435H40.4131L45.6688 108.951H113.302L108.05 17.3435Z" fill="#263238"/>
<path d="M109.364 17.3435H41.7271L46.9828 108.951H114.62L109.364 17.3435Z" fill="#333333"/>
<path opacity="0.5" d="M104.705 20.423H44.8198L49.113 103.346H110.553L104.705 20.423Z" fill="black"/>
<path d="M44.8198 20.423C49.2704 48.0651 46.2179 75.7073 50.6758 103.346H112.109C107.658 75.7073 110.711 48.0651 106.253 20.423H44.8198Z" fill="white"/>
<g opacity="0.3">
<path d="M57.3809 45.2696C58.7375 45.2804 60.0383 45.8086 61.0149 46.7453C61.9915 47.682 62.5693 48.9557 62.6293 50.3037C62.6566 50.9522 62.551 51.5994 62.3188 52.2059C62.0866 52.8125 61.7328 53.3657 61.2787 53.8319C60.8247 54.298 60.28 54.6674 59.6779 54.9176C59.0757 55.1677 58.4287 55.2934 57.7761 55.2869C56.4278 55.2758 55.1355 54.749 54.1672 53.8158C53.1989 52.8826 52.6288 51.6146 52.5753 50.2746C52.5471 49.6281 52.6502 48.9825 52.8784 48.3765C53.1067 47.7705 53.4555 47.2164 53.9039 46.7475C54.3536 46.2827 54.8939 45.9139 55.4917 45.6636C56.0895 45.4132 56.7323 45.2866 57.3809 45.2915M57.3442 44.2395C56.5553 44.2346 55.7737 44.3898 55.0472 44.6955C54.3206 45.0013 53.6644 45.4512 53.1187 46.0178C52.573 46.5844 52.1492 47.2558 51.8733 47.9908C51.5973 48.7259 51.475 49.5092 51.5139 50.2928C51.5778 51.9106 52.2654 53.4419 53.4341 54.5689C54.6028 55.696 56.1629 56.3324 57.7908 56.3461C58.5833 56.3527 59.3689 56.1991 60.0999 55.8948C60.831 55.5906 61.4924 55.1419 62.044 54.5759C62.5956 54.01 63.026 53.3385 63.309 52.6023C63.5921 51.8661 63.7219 51.0804 63.6907 50.2928C63.6121 48.668 62.9103 47.1349 61.7298 46.0089C60.5494 44.8829 58.9799 44.2497 57.3442 44.2395Z" fill="#333333"/>
</g>
<path d="M91.3495 90.6786H71.9515C71.8064 90.6762 71.6624 90.7045 71.5292 90.7618C71.396 90.819 71.2765 90.9039 71.1789 91.0106C71.0812 91.1174 71.0075 91.2437 70.9628 91.381C70.9181 91.5183 70.9033 91.6636 70.9194 91.807C70.9547 92.1139 71.1006 92.3976 71.3301 92.6057C71.5595 92.8138 71.857 92.9323 72.1675 92.939H91.5655C91.7107 92.9417 91.8548 92.9133 91.988 92.8558C92.1212 92.7982 92.2404 92.7129 92.3376 92.6056C92.4348 92.4982 92.5076 92.3714 92.5512 92.2336C92.5948 92.0958 92.6081 91.9503 92.5903 91.807C92.5558 91.5014 92.4111 91.2187 92.1829 91.0112C91.9547 90.8037 91.6586 90.6855 91.3495 90.6786Z" fill="#E0E0E0"/>
<path d="M101.725 85.9284H71.5596C71.4136 85.9257 71.2687 85.9537 71.1343 86.0106C71 86.0675 70.8793 86.152 70.7801 86.2585C70.6809 86.3651 70.6055 86.4913 70.5588 86.6289C70.5121 86.7664 70.4952 86.9123 70.5091 87.0568C70.5354 87.3627 70.6751 87.6479 70.901 87.8571C71.1269 88.0663 71.4229 88.1845 71.7316 88.1888H101.883C102.029 88.193 102.174 88.1663 102.309 88.1106C102.445 88.0548 102.566 87.9712 102.666 87.8653C102.767 87.7594 102.843 87.6336 102.891 87.4961C102.939 87.3586 102.957 87.2126 102.944 87.0677C102.92 86.7609 102.782 86.4739 102.557 86.2631C102.331 86.0523 102.035 85.9329 101.725 85.9284Z" fill="#E0E0E0"/>
<g opacity="0.3">
<path d="M57.9994 64.8637C59.3461 64.8732 60.637 65.4001 61.6022 66.3343C62.5673 67.2684 63.1321 68.5374 63.1783 69.876C63.203 70.524 63.0961 71.1703 62.8641 71.7763C62.632 72.3823 62.2796 72.9356 61.8278 73.4031C61.3756 73.8688 60.8329 74.2381 60.2326 74.4884C59.6323 74.7387 58.987 74.8649 58.3361 74.8591C56.9862 74.8499 55.6916 74.3241 54.7211 73.3908C53.7507 72.4575 53.1788 71.1884 53.1243 69.8469C53.1021 69.1979 53.212 68.5511 53.4474 67.9454C53.6828 67.3397 54.0389 66.7876 54.4942 66.3221C54.9495 65.8567 55.4947 65.4876 56.0971 65.237C56.6994 64.9864 57.3465 64.8594 57.9994 64.8637ZM57.9994 63.8081C57.2064 63.8032 56.4205 63.9577 55.689 64.2623C54.9575 64.5669 54.2954 65.0153 53.7423 65.5806C53.1893 66.1459 52.7568 66.8164 52.4707 67.552C52.1846 68.2876 52.0509 69.0731 52.0775 69.8614C52.1425 71.4836 52.8339 73.0185 54.0077 74.1466C55.1816 75.2748 56.7477 75.9094 58.3801 75.9184C59.1707 75.9215 59.9538 75.7653 60.6822 75.4592C61.4105 75.1532 62.069 74.7036 62.6179 74.1376C63.1668 73.5716 63.5948 72.901 63.8761 72.166C64.1573 71.4311 64.286 70.6471 64.2544 69.8614C64.1996 68.2444 63.5178 66.7111 62.3519 65.5828C61.1859 64.4544 59.6262 63.8185 57.9994 63.8081Z" fill="#333333"/>
</g>
<path d="M80.5816 49.0261H70.2055C69.9006 49.0235 69.6083 48.9047 69.389 48.694C69.1697 48.4834 69.0401 48.197 69.027 47.894C69.0221 47.7476 69.0468 47.6017 69.0998 47.4649C69.1528 47.3282 69.2329 47.2035 69.3353 47.0982C69.4378 46.9929 69.5605 46.9092 69.6962 46.8521C69.8318 46.7949 69.9777 46.7655 70.125 46.7656H80.4974C80.8024 46.768 81.095 46.8861 81.3154 47.0958C81.5358 47.3056 81.6674 47.5911 81.6833 47.894C81.6887 48.0411 81.6642 48.1877 81.6112 48.3251C81.5582 48.4625 81.4779 48.5878 81.375 48.6935C81.2721 48.7992 81.1488 48.8832 81.0124 48.9404C80.8761 48.9975 80.7296 49.0267 80.5816 49.0261Z" fill="#E0E0E0"/>
<path d="M92.5572 49.0261H85.53C85.2247 49.0236 84.932 48.9049 84.7121 48.6943C84.4922 48.4837 84.3618 48.1973 84.3478 47.894C84.3429 47.7476 84.3676 47.6017 84.4206 47.4649C84.4736 47.3282 84.5537 47.2035 84.6561 47.0982C84.7586 46.9929 84.8813 46.9092 85.017 46.8521C85.1526 46.7949 85.2985 46.7655 85.4458 46.7656H92.4766C92.7813 46.768 93.0735 46.8863 93.2933 47.0961C93.5131 47.3059 93.6439 47.5914 93.6588 47.894C93.6642 48.0411 93.6397 48.1877 93.5868 48.3251C93.5338 48.4625 93.4534 48.5878 93.3505 48.6935C93.2476 48.7992 93.1243 48.8832 92.988 48.9404C92.8517 48.9975 92.7051 49.0267 92.5572 49.0261Z" fill="#E0E0E0"/>
<path d="M98.2229 53.7763H70.3703C70.0655 53.7746 69.7731 53.656 69.5542 53.445C69.3353 53.2341 69.2068 52.9472 69.1954 52.6443C69.1905 52.4978 69.2153 52.3519 69.2683 52.2152C69.3212 52.0785 69.4013 51.9538 69.5038 51.8485C69.6063 51.7432 69.729 51.6595 69.8646 51.6023C70.0003 51.5452 70.1461 51.5158 70.2934 51.5159H98.1424C98.4462 51.5175 98.7376 51.6358 98.9559 51.8461C99.1741 52.0563 99.3023 52.3423 99.3136 52.6443C99.319 52.7904 99.2948 52.9361 99.2425 53.0728C99.1902 53.2094 99.1108 53.3343 99.0091 53.4398C98.9074 53.5454 98.7854 53.6296 98.6503 53.6874C98.5153 53.7452 98.3699 53.7754 98.2229 53.7763Z" fill="#E0E0E0"/>
<g opacity="0.3">
<path d="M58.7937 84.4323C60.159 84.4589 61.4665 84.9854 62.4659 85.9108C63.4653 86.8363 64.0865 88.0957 64.2105 89.4482C64.2762 90.0819 64.2089 90.7222 64.013 91.3287C63.8171 91.9352 63.4967 92.4947 63.0723 92.9717C62.6442 93.4405 62.1204 93.813 61.5359 94.0641C60.9514 94.3152 60.3197 94.4392 59.6831 94.4277C58.306 94.4056 56.9844 93.884 55.9667 92.961C54.949 92.0381 54.3053 90.7772 54.1565 89.4155C54.0937 88.7771 54.1676 88.1327 54.3732 87.5248C54.5789 86.9169 54.9117 86.3591 55.3496 85.8883C55.7904 85.4208 56.3243 85.0498 56.9173 84.7991C57.5103 84.5484 58.1494 84.4235 58.7937 84.4323ZM58.7425 83.3803C57.9587 83.3651 57.1804 83.5147 56.4588 83.8195C55.7373 84.1243 55.0886 84.5773 54.5554 85.1489C54.0221 85.7204 53.6164 86.3976 53.3647 87.136C53.1131 87.8745 53.0212 88.6574 53.0951 89.4337C53.3769 92.7752 56.4257 95.487 59.7856 95.487C63.1454 95.487 65.5537 92.7752 65.2756 89.4337C65.1304 87.8011 64.3832 86.2796 63.1777 85.1621C61.9723 84.0445 60.3938 83.4099 58.7461 83.3803H58.7425Z" fill="#333333"/>
</g>
<path d="M102.981 71.0991H70.8423C70.6949 71.099 70.5491 71.1284 70.4134 71.1855C70.2778 71.2427 70.1551 71.3264 70.0526 71.4317C69.9502 71.5369 69.8701 71.6617 69.8171 71.7984C69.7641 71.9351 69.7394 72.081 69.7443 72.2275C69.7574 72.5294 69.8866 72.8149 70.1052 73.0249C70.3239 73.2349 70.6152 73.3533 70.9191 73.3559H103.072C103.22 73.3559 103.365 73.3265 103.501 73.2694C103.637 73.2123 103.759 73.1285 103.862 73.0233C103.964 72.918 104.044 72.7933 104.097 72.6565C104.15 72.5198 104.175 72.3739 104.17 72.2275C104.159 71.9223 104.028 71.6337 103.806 71.423C103.584 71.2122 103.288 71.096 102.981 71.0991Z" fill="#E0E0E0"/>
<path d="M95.3643 66.3452H70.7032C70.5556 66.3451 70.4094 66.3746 70.2735 66.432C70.1376 66.4894 70.0147 66.5734 69.9122 66.6791C69.8097 66.7848 69.7297 66.9099 69.677 67.0471C69.6242 67.1842 69.5998 67.3305 69.6052 67.4772C69.6156 67.7789 69.743 68.0648 69.9606 68.2752C70.1783 68.4855 70.4693 68.6039 70.7728 68.6057H95.4375C95.5848 68.6057 95.7307 68.5763 95.8663 68.5192C96.002 68.462 96.1247 68.3783 96.2271 68.2731C96.3296 68.1678 96.4097 68.043 96.4627 67.9063C96.5156 67.7696 96.5404 67.6237 96.5355 67.4772C96.5269 67.174 96.3998 66.8861 96.181 66.6747C95.9623 66.4633 95.6693 66.3451 95.3643 66.3452Z" fill="#E0E0E0"/>
<path d="M57.9371 53.8418L57.5052 53.1356C56.5573 51.5959 54.5772 50.2236 53.8965 49.8196L54.4089 48.9169C55.7532 49.7262 56.951 50.7549 57.9518 51.9599C59.5073 49.8815 61.7801 47.7448 64.8582 45.437L65.5206 46.2888C62.2266 48.7531 59.8916 51.0208 58.3946 53.1793C58.2446 53.4013 58.0908 53.6234 57.9371 53.8418Z" fill="#333333"/>
<path d="M58.4862 73.425C58.3435 73.1884 58.1971 72.9518 58.0507 72.7188C57.0991 71.1791 55.1227 69.8068 54.4492 69.3992L54.9689 68.4964C56.3064 69.308 57.4977 70.3366 58.4935 71.5395C60.0527 69.4647 62.3438 67.3244 65.4695 65.0166L66.1173 65.8684C62.7794 68.3326 60.4297 70.6004 58.94 72.7589L58.4862 73.425Z" fill="#333333"/>
<path d="M59.7417 93.0519L59.2585 92.3457C58.2045 90.806 56.1622 89.4337 55.4595 89.0297L55.9353 88.1269C57.3183 88.942 58.5644 89.9676 59.6282 91.1663C61.0629 89.0915 63.2443 86.9512 66.2748 84.6471L66.9592 85.4989C63.7238 87.9631 61.5021 90.2309 60.1516 92.3894L59.7417 93.0519Z" fill="#333333"/>
<path d="M82.8873 27.3717C82.2431 28.7695 81.5831 30.166 80.9072 31.5613C82.3005 32.2506 83.4918 33.2852 84.3662 34.5654C85.2406 35.8456 85.7687 37.3283 85.8995 38.8705H90.7636C90.4415 33.9237 87.2427 29.6176 82.8873 27.3717Z" fill="#333333"/>
<path d="M64.3568 38.8777H69.2209C69.1016 37.5094 69.3523 36.1343 69.9469 34.8946C70.5415 33.655 71.4584 32.5959 72.6027 31.8271C71.656 30.4293 70.6946 29.0315 69.7186 27.6338C66.1684 29.9197 64.0457 34.1093 64.3568 38.8777Z" fill="#263238"/>
<path d="M76.3068 25.7483C73.973 25.7253 71.6833 26.3806 69.7188 27.6338C70.6948 29.0315 71.6561 30.4293 72.6028 31.8271C73.8709 31.0029 75.3556 30.5698 76.8704 30.5822C78.2719 30.5903 79.6515 30.9283 80.8964 31.5686C81.5698 30.1709 82.2299 28.7743 82.8765 27.379C80.8487 26.3219 78.5961 25.7627 76.3068 25.7483Z" fill="#333333"/>
<path opacity="0.5" d="M76.3068 25.7483C73.973 25.7253 71.6833 26.3806 69.7188 27.6338C70.6948 29.0315 71.6561 30.4293 72.6028 31.8271C73.8709 31.0029 75.3556 30.5698 76.8704 30.5822C78.2719 30.5903 79.6515 30.9283 80.8964 31.5686C81.5698 30.1709 82.2299 28.7743 82.8765 27.379C80.8487 26.3219 78.5961 25.7627 76.3068 25.7483Z" fill="#263238"/>
<path d="M82.2506 35.5653C82.2506 35.5653 77.3389 37.5637 76.8192 37.9277C76.695 38.0212 76.591 38.1384 76.5131 38.2725C76.4352 38.4066 76.385 38.5548 76.3656 38.7084C76.3461 38.8621 76.3578 39.018 76.3999 39.1671C76.4419 39.3162 76.5136 39.4554 76.6106 39.5766C76.7939 39.8355 77.0714 40.0134 77.3842 40.0725C77.6971 40.1316 78.0208 40.0673 78.2868 39.8933C78.8249 39.5074 82.2579 35.5653 82.2506 35.5653ZM77.09 39.2053C77.0422 39.1457 77.007 39.0772 76.9862 39.0038C76.9655 38.9304 76.9597 38.8536 76.9693 38.778C76.9788 38.7023 77.0035 38.6294 77.0418 38.5633C77.0802 38.4973 77.1314 38.4396 77.1925 38.3936C77.3243 38.3093 77.4836 38.2785 77.6375 38.3076C77.7914 38.3367 77.9282 38.4235 78.0197 38.5501C78.0674 38.6097 78.1027 38.6783 78.1235 38.7516C78.1442 38.825 78.15 38.9018 78.1404 38.9774C78.1309 39.0531 78.1062 39.1261 78.0678 39.1921C78.0295 39.2581 77.9783 39.3158 77.9172 39.3618C77.7871 39.4477 77.629 39.4808 77.4752 39.4544C77.3214 39.428 77.1836 39.3441 77.09 39.2199V39.2053Z" fill="#263238"/>
<path d="M88.0735 33.254C88.0974 33.4731 88.0742 33.6948 88.0052 33.9042C87.9363 34.1137 87.8232 34.3061 87.6736 34.4687C87.524 34.6313 87.3412 34.7603 87.1376 34.8471C86.9339 34.9339 86.7139 34.9765 86.4923 34.9721C86.0229 34.9629 85.573 34.783 85.2277 34.4665C84.8825 34.15 84.6657 33.7186 84.6184 33.254C84.5934 33.0361 84.6154 32.8154 84.6831 32.6066C84.7507 32.3978 84.8625 32.2059 85.0108 32.0435C85.1591 31.8812 85.3406 31.7523 85.5431 31.6654C85.7456 31.5784 85.9644 31.5356 86.1849 31.5396C86.6557 31.5475 87.1073 31.726 87.4551 32.0417C87.8028 32.3574 88.0227 32.7885 88.0735 33.254Z" fill="white"/>
<path d="M85.9326 32.8608C85.9362 32.8954 85.9324 32.9304 85.9215 32.9634C85.9107 32.9964 85.8929 33.0268 85.8694 33.0526C85.8459 33.0783 85.8173 33.0989 85.7853 33.1129C85.7533 33.1269 85.7187 33.134 85.6837 33.1338C85.6086 33.1333 85.5364 33.1051 85.4809 33.0547C85.4255 33.0042 85.3908 32.9352 85.3836 32.8608C85.3794 32.8261 85.3827 32.791 85.3934 32.7577C85.4041 32.7244 85.4218 32.6937 85.4454 32.6678C85.469 32.6419 85.4979 32.6214 85.5302 32.6076C85.5625 32.5938 85.5974 32.5871 85.6325 32.5878C85.7076 32.5884 85.7798 32.6166 85.8353 32.667C85.8907 32.7174 85.9254 32.7865 85.9326 32.8608Z" fill="#263238"/>
<path d="M87.2429 32.8608C87.2465 32.8957 87.2427 32.931 87.2316 32.9643C87.2205 32.9975 87.2024 33.0281 87.1785 33.0539C87.1546 33.0797 87.1255 33.1002 87.0931 33.114C87.0606 33.1278 87.0256 33.1345 86.9904 33.1338C86.9157 33.1317 86.8443 33.103 86.7892 33.0528C86.7341 33.0027 86.699 32.9346 86.6903 32.8608C86.686 32.8258 86.6894 32.7903 86.7003 32.7567C86.7112 32.7232 86.7292 32.6924 86.7532 32.6664C86.7772 32.6405 86.8066 32.62 86.8393 32.6064C86.8721 32.5929 86.9074 32.5865 86.9428 32.5878C87.0179 32.5884 87.0901 32.6166 87.1456 32.667C87.201 32.7174 87.2357 32.7865 87.2429 32.8608Z" fill="#263238"/>
<path d="M86.4264 34.2877C86.0644 34.2848 85.7162 34.1487 85.4492 33.9055C85.4242 33.8803 85.4102 33.8463 85.4102 33.8108C85.4102 33.7754 85.4242 33.7414 85.4492 33.7162C85.4615 33.7034 85.4763 33.6933 85.4926 33.6863C85.509 33.6794 85.5266 33.6758 85.5444 33.6758C85.5622 33.6758 85.5798 33.6794 85.5961 33.6863C85.6125 33.6933 85.6272 33.7034 85.6395 33.7162C85.8562 33.9147 86.1392 34.0263 86.4338 34.0292C86.5705 34.0323 86.7064 34.0066 86.8325 33.9539C86.9587 33.9012 87.0722 33.8227 87.1658 33.7235C87.1905 33.6974 87.2247 33.6822 87.2607 33.6812C87.2785 33.6807 87.2963 33.6836 87.313 33.69C87.3297 33.6963 87.3449 33.7058 87.3579 33.718C87.3709 33.7302 87.3813 33.7448 87.3886 33.761C87.3959 33.7772 87.3999 33.7947 87.4005 33.8124C87.401 33.8302 87.398 33.8478 87.3916 33.8644C87.3852 33.881 87.3757 33.8962 87.3634 33.9091C87.2429 34.0343 87.0971 34.1327 86.9356 34.198C86.7741 34.2632 86.6006 34.2938 86.4264 34.2877Z" fill="#263238"/>
<path d="M78.3195 28.1361C78.3497 28.3527 78.3323 28.5732 78.2685 28.7825C78.2047 28.9917 78.0959 29.1847 77.9497 29.3481C77.8036 29.5115 77.6235 29.6413 77.4219 29.7287C77.2203 29.8161 77.0021 29.8589 76.7823 29.8542C76.3088 29.8432 75.855 29.6638 75.5032 29.3486C75.1513 29.0334 74.9247 28.6032 74.8644 28.1361C74.8317 27.9205 74.847 27.7004 74.909 27.4912C74.971 27.2821 75.0784 27.089 75.2235 26.9256C75.3687 26.7622 75.5481 26.6323 75.7491 26.5453C75.9501 26.4582 76.1678 26.416 76.387 26.4216C76.8613 26.4327 77.3162 26.6113 77.6702 26.9254C78.0243 27.2395 78.2544 27.6687 78.3195 28.1361Z" fill="white"/>
<path d="M76.1676 27.7357C76.1723 27.7699 76.1696 27.8047 76.1596 27.8378C76.1496 27.8708 76.1325 27.9013 76.1096 27.9272C76.0867 27.9531 76.0584 27.9738 76.0267 27.9879C75.9951 28.0019 75.9607 28.0091 75.926 28.0087C75.8505 28.0069 75.7782 27.9784 75.7219 27.9284C75.6656 27.8784 75.629 27.8101 75.6186 27.7357C75.6132 27.7014 75.6155 27.6664 75.6252 27.6331C75.635 27.5998 75.652 27.569 75.675 27.5429C75.6981 27.5169 75.7266 27.4962 75.7586 27.4823C75.7906 27.4685 75.8252 27.4618 75.8601 27.4627C75.9358 27.4639 76.0086 27.4921 76.065 27.5422C76.1215 27.5924 76.1579 27.6611 76.1676 27.7357Z" fill="#263238"/>
<path d="M77.4744 27.7357C77.4791 27.7702 77.4763 27.8053 77.4661 27.8386C77.4559 27.8719 77.4385 27.9026 77.4152 27.9286C77.3919 27.9546 77.3632 27.9752 77.331 27.989C77.2989 28.0029 77.2641 28.0096 77.2291 28.0087C77.1539 28.0061 77.0819 27.9774 77.0258 27.9275C76.9696 27.8777 76.9328 27.8098 76.9217 27.7357C76.9169 27.7012 76.9197 27.6661 76.9299 27.6328C76.9402 27.5995 76.9575 27.5688 76.9808 27.5428C77.0042 27.5169 77.0329 27.4963 77.065 27.4824C77.0972 27.4686 77.1319 27.4619 77.1669 27.4627C77.2424 27.4646 77.3147 27.4931 77.371 27.5431C77.4274 27.5931 77.464 27.6614 77.4744 27.7357Z" fill="#263238"/>
<path d="M77.5106 28.8277H75.7977C75.7652 28.8224 75.7356 28.8057 75.7142 28.7807C75.6929 28.7557 75.6812 28.724 75.6812 28.6912C75.6812 28.6584 75.6929 28.6266 75.7142 28.6016C75.7356 28.5766 75.7652 28.56 75.7977 28.5547H77.5106C77.5432 28.56 77.5728 28.5766 77.5941 28.6016C77.6155 28.6266 77.6272 28.6584 77.6272 28.6912C77.6272 28.724 77.6155 28.7557 77.5941 28.7807C77.5728 28.8057 77.5432 28.8224 77.5106 28.8277Z" fill="#263238"/>
<path d="M69.6272 33.254C69.6512 33.4731 69.6279 33.6948 69.5589 33.9042C69.49 34.1137 69.3769 34.3061 69.2273 34.4687C69.0777 34.6313 68.895 34.7603 68.6913 34.8471C68.4876 34.9339 68.2676 34.9765 68.0461 34.9721C67.5766 34.9629 67.1267 34.783 66.7815 34.4665C66.4362 34.15 66.2195 33.7186 66.1721 33.254C66.1471 33.0361 66.1691 32.8154 66.2368 32.6066C66.3045 32.3978 66.4162 32.2059 66.5645 32.0435C66.7128 31.8812 66.8943 31.7523 67.0968 31.6654C67.2993 31.5784 67.5181 31.5356 67.7386 31.5396C68.2091 31.5483 68.6604 31.7271 69.008 32.0426C69.3555 32.3581 69.5757 32.7888 69.6272 33.254Z" fill="white"/>
<path d="M67.479 32.8608C67.4826 32.8954 67.4788 32.9304 67.4679 32.9634C67.457 32.9964 67.4393 33.0268 67.4158 33.0526C67.3923 33.0783 67.3637 33.0989 67.3317 33.1129C67.2997 33.1269 67.2651 33.134 67.2301 33.1338C67.155 33.1333 67.0828 33.1051 67.0273 33.0547C66.9719 33.0042 66.9372 32.9352 66.93 32.8608C66.9258 32.8261 66.9291 32.791 66.9398 32.7577C66.9504 32.7244 66.9682 32.6937 66.9918 32.6678C67.0154 32.6419 67.0443 32.6214 67.0766 32.6076C67.1088 32.5938 67.1437 32.5871 67.1789 32.5878C67.254 32.5884 67.3262 32.6166 67.3816 32.667C67.4371 32.7174 67.4717 32.7865 67.479 32.8608Z" fill="#263238"/>
<path d="M68.789 32.8608C68.7932 32.8955 68.7899 32.9307 68.7792 32.964C68.7686 32.9973 68.7509 33.0279 68.7273 33.0538C68.7037 33.0797 68.6747 33.1002 68.6425 33.114C68.6102 33.1279 68.5753 33.1346 68.5402 33.1338C68.4655 33.1317 68.3941 33.103 68.339 33.0529C68.2839 33.0027 68.2488 32.9346 68.24 32.8608C68.2358 32.8261 68.2392 32.791 68.2498 32.7577C68.2605 32.7244 68.2782 32.6937 68.3018 32.6678C68.3254 32.6419 68.3544 32.6214 68.3866 32.6076C68.4189 32.5938 68.4538 32.5871 68.4889 32.5878C68.5643 32.5876 68.637 32.6155 68.6926 32.6661C68.7482 32.7166 68.7826 32.7862 68.789 32.8608Z" fill="#263238"/>
<path d="M67.113 34.2877C67.0961 34.2879 67.0793 34.2848 67.0636 34.2786C67.0479 34.2723 67.0336 34.263 67.0215 34.2513C66.9965 34.2261 66.9824 34.1921 66.9824 34.1566C66.9824 34.1212 66.9965 34.0872 67.0215 34.062C67.1402 33.9365 67.2838 33.8367 67.4431 33.7691C67.6025 33.7014 67.7742 33.6673 67.9475 33.6689C68.31 33.6727 68.6582 33.8102 68.9247 34.0547C68.9375 34.0669 68.9478 34.0816 68.9547 34.0979C68.9617 34.1142 68.9653 34.1317 68.9653 34.1494C68.9653 34.167 68.9617 34.1845 68.9547 34.2008C68.9478 34.2171 68.9375 34.2318 68.9247 34.244C68.8983 34.2683 68.8637 34.2818 68.8277 34.2818C68.7917 34.2818 68.7571 34.2683 68.7307 34.244C68.5141 34.0431 68.229 33.9312 67.9328 33.931C67.7964 33.9279 67.6608 33.9532 67.5348 34.0052C67.4087 34.0572 67.295 34.1348 67.2008 34.2331C67.1795 34.2616 67.1481 34.2811 67.113 34.2877Z" fill="#263238"/>
<path d="M94.8335 20.6595C93.6916 18.2681 91.0271 16.6847 88.154 16.6847H82.298C81.896 16.7023 81.4963 16.614 81.1396 16.4286C80.7829 16.2433 80.4818 15.9674 80.2667 15.6291C79.4506 14.1075 77.5034 13.0228 75.2928 13.0228C73.0822 13.0228 71.2668 14.1148 70.6226 15.6291C70.3555 16.2697 69.5905 16.6847 68.7121 16.6847H62.8561C59.983 16.6847 57.4979 18.2681 56.6341 20.6595C56.6021 20.743 56.5896 20.8326 56.5975 20.9216C56.6069 21.1083 56.6882 21.2843 56.8244 21.413C56.9607 21.5418 57.1416 21.6135 57.3295 21.6132H94.2516C94.3644 21.6135 94.4754 21.5848 94.5738 21.5298C94.6722 21.4749 94.7546 21.3956 94.8132 21.2997C94.8717 21.2038 94.9043 21.0944 94.9079 20.9823C94.9115 20.8701 94.8859 20.759 94.8335 20.6595ZM75.5307 17.3435C75.0939 17.3345 74.6762 17.1633 74.3599 16.8636C74.0436 16.5638 73.8516 16.1572 73.8215 15.7237C73.8068 15.5149 73.8358 15.3054 73.9066 15.1083C73.9775 14.9112 74.0886 14.7309 74.2331 14.5787C74.3775 14.4265 74.5521 14.3057 74.7458 14.224C74.9396 14.1423 75.1483 14.1014 75.3587 14.1039C75.7983 14.1084 76.22 14.2777 76.5396 14.578C76.8592 14.8783 77.0531 15.2874 77.0825 15.7237C77.0974 15.9337 77.068 16.1445 76.9962 16.3426C76.9245 16.5407 76.8121 16.7217 76.666 16.8742C76.52 17.0266 76.3436 17.1471 76.1481 17.2279C75.9526 17.3087 75.7424 17.3481 75.5307 17.3435Z" fill="#263238"/>
<path d="M132.78 129.331C132.494 129.366 132.205 129.295 131.968 129.131C131.937 129.093 131.918 129.046 131.913 128.997C131.909 128.947 131.919 128.898 131.942 128.854C131.96 128.817 131.986 128.784 132.018 128.758C132.051 128.732 132.088 128.714 132.129 128.705C132.561 128.585 133.56 129.116 133.593 129.142C133.605 129.147 133.616 129.157 133.622 129.169C133.629 129.18 133.632 129.194 133.63 129.207C133.629 129.22 133.624 129.231 133.616 129.24C133.608 129.25 133.598 129.256 133.586 129.258C133.32 129.306 133.05 129.33 132.78 129.331ZM132.297 128.814C132.257 128.808 132.217 128.808 132.177 128.814C132.152 128.819 132.128 128.829 132.108 128.844C132.087 128.86 132.071 128.879 132.059 128.902C132.023 128.982 132.059 129.022 132.059 129.044C132.206 129.215 132.887 129.218 133.377 129.149C133.04 128.974 132.675 128.861 132.297 128.814Z" fill="#FFD801"/>
<path d="M133.586 129.258H133.56C133.22 129.113 132.51 128.53 132.525 128.232C132.525 128.159 132.569 128.072 132.744 128.054C132.876 128.042 133.007 128.082 133.11 128.163C133.384 128.448 133.569 128.806 133.645 129.193C133.649 129.202 133.651 129.212 133.651 129.222C133.651 129.232 133.649 129.242 133.645 129.251C133.636 129.257 133.626 129.261 133.616 129.262C133.606 129.263 133.596 129.262 133.586 129.258ZM132.806 128.166H132.77C132.656 128.166 132.653 128.221 132.653 128.236C132.653 128.418 133.132 128.873 133.487 129.069C133.418 128.758 133.262 128.473 133.037 128.247C132.971 128.197 132.889 128.171 132.806 128.174V128.166Z" fill="#FFD801"/>
<path d="M136.536 129.197H133.846L132.883 123.001H135.573L136.536 129.197Z" fill="#FFC3BD"/>
<path d="M133.827 128.887H136.755C136.811 128.889 136.864 128.907 136.908 128.939C136.953 128.972 136.986 129.017 137.004 129.069L137.802 131.446C137.819 131.499 137.823 131.556 137.815 131.611C137.806 131.666 137.785 131.719 137.753 131.764C137.721 131.81 137.678 131.848 137.629 131.875C137.58 131.902 137.525 131.917 137.469 131.919C136.408 131.919 134.87 131.843 133.538 131.843C131.983 131.843 132.122 131.927 130.296 131.927C129.198 131.927 128.762 130.816 129.198 130.714C131.251 130.259 131.489 130.209 133.18 129.095C133.369 128.961 133.595 128.889 133.827 128.887Z" fill="#263238"/>
<path opacity="0.2" d="M132.883 123.005L133.381 126.197H136.071L135.573 123.005H132.883Z" fill="black"/>
<path d="M136.228 62.479L134.398 64.3172L137.202 65.3036C137.202 65.3036 138.3 63.804 137.528 62.7775L136.228 62.479Z" fill="#FFC3BD"/>
<path d="M133.784 66.8871L136.584 67.2948L137.209 65.3037L134.406 64.3173L133.784 66.8871Z" fill="#FFC3BD"/>
<path d="M137.451 39.8455C137.689 40.3551 137.879 40.7882 138.07 41.2614C138.26 41.7346 138.436 42.1896 138.619 42.6555C138.966 43.591 139.277 44.5447 139.566 45.5093C139.861 46.4852 140.105 47.4754 140.298 48.4759L140.438 49.2403L140.551 50.0193C140.591 50.2777 140.617 50.5471 140.639 50.8128C140.661 51.0785 140.697 51.3187 140.697 51.6536V52.1268V52.5454L140.675 52.9567L140.635 53.3462C140.588 53.8704 140.518 54.3618 140.452 54.8605C140.306 55.8433 140.137 56.8042 139.951 57.7725C139.563 59.6762 139.138 61.5362 138.626 63.4108L135.292 62.7556C135.504 60.9065 135.723 59.0283 135.899 57.1791C135.983 56.2546 136.075 55.3337 136.126 54.4309C136.148 53.9869 136.174 53.5355 136.174 53.1096V52.7893V52.4945V52.1996L136.148 51.9594C136.131 51.7676 136.104 51.5768 136.067 51.3879C136.035 51.1841 136.005 50.9802 135.958 50.7727L135.822 50.1503L135.665 49.5242C135.438 48.687 135.182 47.8462 134.889 47.0053C134.596 46.1645 134.27 45.3273 133.926 44.4974C133.758 44.0788 133.582 43.6638 133.399 43.2561C133.216 42.8485 133.033 42.4226 132.854 42.0695L137.451 39.8455Z" fill="#F86D70"/>
<path d="M124.813 61.1759C124.813 61.1759 125.26 81.6473 126.467 89.8009C127.726 98.2821 132.323 125.578 132.323 125.578H136.876C136.876 125.578 135.244 99.5997 134.724 91.2532C134.157 82.1532 134.281 61.1759 134.281 61.1759H124.813Z" fill="#263238"/>
<path d="M131.229 123.773C131.207 123.773 131.697 125.655 131.697 125.655H137.238L137.198 123.977L131.229 123.773Z" fill="#263238"/>
<path d="M123.787 27.9897C123.801 27.763 123.691 27.5718 123.542 27.5626C123.393 27.5535 123.26 27.7299 123.246 27.9567C123.232 28.1834 123.342 28.3746 123.491 28.3837C123.64 28.3929 123.773 28.2165 123.787 27.9897Z" fill="#263238"/>
<path d="M123.675 28.3832C123.378 29.0771 122.989 29.7284 122.518 30.3197C122.672 30.4307 122.848 30.5066 123.035 30.5418C123.222 30.5771 123.414 30.5708 123.598 30.5235L123.675 28.3832Z" fill="#ED847E"/>
<path d="M124.641 26.716C124.613 26.716 124.585 26.7085 124.56 26.6941C124.429 26.5916 124.275 26.5222 124.112 26.4918C123.948 26.4614 123.779 26.4708 123.62 26.5194C123.603 26.5258 123.586 26.5289 123.568 26.5285C123.551 26.5282 123.534 26.5243 123.518 26.5172C123.502 26.5101 123.487 26.4998 123.475 26.4871C123.463 26.4743 123.454 26.4593 123.448 26.443C123.442 26.4262 123.44 26.4085 123.441 26.3909C123.442 26.3732 123.446 26.356 123.454 26.3401C123.462 26.3242 123.473 26.31 123.486 26.2983C123.5 26.2866 123.515 26.2776 123.532 26.2719C123.733 26.207 123.946 26.1916 124.154 26.2271C124.362 26.2627 124.558 26.348 124.725 26.4757C124.753 26.4973 124.771 26.5287 124.776 26.5634C124.78 26.598 124.772 26.6332 124.751 26.6614C124.738 26.6782 124.721 26.6919 124.702 26.7014C124.683 26.7108 124.662 26.7158 124.641 26.716Z" fill="#263238"/>
<path d="M130.907 30.4725C130.453 32.4309 129.94 36.0163 131.273 37.3194C131.273 37.3194 130.665 39.3032 127.009 39.3032C122.983 39.3032 125.16 37.3194 125.16 37.3194C127.356 36.7989 127.375 35.1827 127.045 33.6612L130.907 30.4725Z" fill="#FFC3BD"/>
<path d="M132.689 38.2366C133.084 37.4395 133.52 36.5222 132.689 36.2383C131.781 35.9216 126.763 35.6013 125.003 36.1909C124.533 36.3102 124.129 36.6103 123.881 37.0254C123.634 37.4404 123.562 37.9363 123.682 38.4041L132.689 38.2366Z" fill="#263238"/>
<path d="M136.539 38.0873C138.856 39.1502 140.035 47.2092 140.035 47.2092L135.368 48.6652C134.534 46.5329 133.858 44.3431 133.344 42.1132C132.627 38.7498 134.168 37.0026 136.539 38.0873Z" fill="#F86D70"/>
<path d="M107.86 50.6272L105.708 48.7854L103.771 51.5882C103.771 51.5882 105.51 52.975 107.431 52.4072L107.86 50.6272Z" fill="#FFC3BD"/>
<path d="M102.871 47.8936L102.575 50.6636L103.772 51.5882L105.708 48.7854L102.871 47.8936Z" fill="#FFC3BD"/>
<path d="M131.401 27.4914C131.13 30.2723 131.112 31.9103 129.648 33.3372C129.176 33.8018 128.586 34.13 127.942 34.2869C127.297 34.4437 126.621 34.4233 125.988 34.2277C125.354 34.0321 124.785 33.6688 124.343 33.1766C123.901 32.6844 123.601 32.0819 123.477 31.4335C122.964 28.9365 123.477 24.8087 126.269 23.7021C126.864 23.4472 127.515 23.3522 128.158 23.4266C128.801 23.501 129.413 23.7421 129.933 24.126C130.453 24.5098 130.862 25.0227 131.12 25.6134C131.377 26.2041 131.474 26.8517 131.401 27.4914Z" fill="#FFC3BD"/>
<path d="M125.673 28.3831C125.428 26.4612 125.468 25.7332 126.5 25.3073C125.428 25.0962 124.498 25.0671 124.055 24.4447C123.613 23.8222 123.506 22.2315 125.658 21.5035C125.461 21.8675 126.087 22.6247 128.067 21.9403C130.047 21.256 132.931 21.1832 133.191 23.1852C134.237 22.8212 135.991 26.0353 133.923 28.3831C132.199 30.3487 131.05 31.7065 130.709 32.7511C130.693 32.8001 130.667 32.8451 130.632 32.8832C130.598 32.9214 130.555 32.9518 130.508 32.9724C130.461 32.993 130.409 33.0035 130.358 33.003C130.306 33.0025 130.255 32.9911 130.208 32.9695C129.494 32.6383 128.217 32.9222 127.646 33.0751C127.565 33.0958 127.48 33.0888 127.404 33.055C127.329 33.0213 127.267 32.9629 127.229 32.8895C126.859 32.1323 125.86 29.9702 125.673 28.3831Z" fill="#263238"/>
<path d="M132.803 23.4291C132.803 23.4291 133.652 22.2388 135.281 23.1234C134.443 23.0845 133.605 23.1879 132.803 23.4291Z" fill="#263238"/>
<path d="M132.942 23.6839C132.942 23.6839 134.124 22.9559 133.202 21.5836C133.258 22.294 133.17 23.0084 132.942 23.6839Z" fill="#263238"/>
<path d="M127.042 28.4632C126.913 29.1514 126.57 29.7818 126.061 30.265C125.384 30.902 124.798 30.4507 124.78 29.6317C124.762 28.9037 125.091 27.6733 125.878 27.3457C126.665 27.0181 127.181 27.6406 127.042 28.4632Z" fill="#FFC3BD"/>
<path opacity="0.3" d="M125.19 72.5509C125.453 78.6588 125.867 85.7495 126.467 89.8009C126.698 91.3442 127.035 93.5064 127.437 96.0143C129.055 87.2347 130.021 75.9215 125.19 72.5509Z" fill="black"/>
<path d="M123.173 129.331C122.829 129.331 122.496 129.284 122.39 129.131C122.362 129.09 122.348 129.042 122.348 128.993C122.348 128.943 122.362 128.895 122.39 128.854C122.439 128.781 122.513 128.728 122.599 128.705C123.049 128.585 123.971 129.116 124.012 129.142C124.023 129.148 124.032 129.158 124.036 129.17C124.041 129.182 124.041 129.195 124.037 129.207C124.035 129.22 124.028 129.232 124.019 129.241C124.01 129.25 123.999 129.256 123.986 129.258C123.718 129.305 123.446 129.329 123.173 129.331ZM122.767 128.814C122.726 128.808 122.684 128.808 122.643 128.814C122.616 128.819 122.592 128.83 122.569 128.845C122.547 128.86 122.529 128.879 122.515 128.902C122.467 128.982 122.482 129.022 122.496 129.044C122.617 129.215 123.294 129.218 123.799 129.149C123.481 128.971 123.13 128.858 122.767 128.814Z" fill="#FFD801"/>
<path d="M123.989 129.258H123.964C123.645 129.113 123.019 128.53 123.081 128.232C123.081 128.159 123.147 128.072 123.323 128.054C123.388 128.045 123.455 128.051 123.518 128.07C123.581 128.089 123.639 128.12 123.689 128.163C124.022 128.443 124.055 129.164 124.055 129.193C124.055 129.204 124.052 129.215 124.047 129.225C124.042 129.235 124.035 129.244 124.026 129.251C124.014 129.257 124.002 129.259 123.989 129.258ZM123.371 128.166H123.334C123.217 128.166 123.21 128.221 123.206 128.236C123.169 128.418 123.59 128.873 123.916 129.069C123.896 128.768 123.782 128.481 123.59 128.247C123.528 128.197 123.45 128.171 123.371 128.174V128.166Z" fill="#FFD801"/>
<path d="M126.947 129.197H124.26L124.209 123.001H126.899L126.947 129.197Z" fill="#FFC3BD"/>
<path d="M124.286 128.887H127.214C127.266 128.886 127.317 128.904 127.357 128.938C127.398 128.971 127.424 129.018 127.433 129.069L127.883 131.446C127.894 131.505 127.891 131.565 127.875 131.622C127.859 131.679 127.831 131.733 127.792 131.778C127.753 131.823 127.705 131.859 127.65 131.883C127.596 131.908 127.537 131.92 127.477 131.919C126.419 131.919 124.889 131.843 123.561 131.843C122.002 131.843 120.655 131.927 118.829 131.927C117.731 131.927 117.46 130.816 117.924 130.715C120.044 130.26 121.764 130.209 123.619 129.095C123.818 128.967 124.049 128.895 124.286 128.887Z" fill="#263238"/>
<path opacity="0.2" d="M124.212 123.005L124.234 126.197H126.924L126.902 123.005H124.212Z" fill="black"/>
<path d="M120.015 61.1759C120.015 61.1759 118.917 81.1704 118.939 89.324C118.939 97.8052 123.258 125.578 123.258 125.578H127.811C127.811 125.578 126.625 98.3003 127.137 89.9792C127.683 80.8792 130.325 61.1832 130.325 61.1832L120.015 61.1759Z" fill="#263238"/>
<path d="M122.445 123.773C122.423 123.773 122.632 125.655 122.632 125.655H128.173L128.385 123.977L122.445 123.773Z" fill="#263238"/>
<path d="M120.995 38.0619C120.995 38.0619 116.413 49.5752 118.408 69.4751H135.141C135.317 67.2911 133.567 48.2685 136.064 37.9236C134.48 37.6187 132.879 37.4169 131.269 37.3194C129.233 37.2028 127.192 37.2028 125.157 37.3194C123.752 37.4599 122.361 37.7081 120.995 38.0619Z" fill="#F86D70"/>
<path opacity="0.2" d="M118.628 48.4833C118.379 50.3033 118.174 52.3817 118.042 54.6713C121.292 51.701 122.405 44.3009 122.405 44.3009L118.628 48.4833Z" fill="black"/>
<path d="M122.719 43.5437C122.061 45.2472 121.395 46.8888 120.663 48.5378C119.931 50.1867 119.173 51.8138 118.32 53.4445L117.987 54.0524L117.819 54.3581C117.749 54.4819 117.757 54.4892 117.566 54.8058C117.238 55.3191 116.783 55.7401 116.245 56.0289C115.8 56.2616 115.314 56.4074 114.814 56.4584C114.126 56.521 113.433 56.4656 112.764 56.2946C112.236 56.1644 111.717 55.9966 111.212 55.7923C110.307 55.4194 109.43 54.9815 108.588 54.4819C108.175 54.2453 107.779 53.9905 107.388 53.7539C106.996 53.5173 106.641 53.2152 106.22 52.924L108.197 49.91C109.615 50.6873 111.104 51.3296 112.644 51.8283C112.97 51.9288 113.304 52.0042 113.643 52.054C113.836 52.0949 114.035 52.0949 114.228 52.054C114.25 52.054 114.181 52.0322 114.06 52.094C113.913 52.1686 113.787 52.2788 113.694 52.4144C113.617 52.5418 113.716 52.3525 113.749 52.2797L113.881 51.9921L114.144 51.4206C114.84 49.8773 115.484 48.2793 116.11 46.6886C116.735 45.098 117.343 43.4381 117.903 41.8329L122.719 43.5437Z" fill="#F86D70"/>
<path d="M124.538 39.2704C125.395 41.651 119.334 51.2351 119.334 51.2351L115.74 47.6934C115.74 47.6934 116.658 44.6831 117.87 41.0576C119.063 37.4941 123.722 36.9954 124.538 39.2704Z" fill="#F86D70"/>
</svg>
