<svg width="176" height="105" viewBox="0 0 176 105" fill="none" xmlns="http://www.w3.org/2000/svg">
<ellipse cx="88.3533" cy="100.107" rx="87.5847" ry="4.7079" fill="#E9E9E9"/>
<path d="M48.6078 0.939453H49.0265C49.1496 4.70619 48.9033 18.2311 49.0757 21.9725C49.1004 23.4893 49.1742 24.9809 49.1496 26.4977C50.7504 26.4977 52.3266 26.4724 53.9274 26.4471C54.6908 27.8375 55.4296 29.2279 56.1685 30.6183C55.0602 30.6436 53.9766 30.8206 52.893 30.947C52.5728 30.947 52.5728 31.3767 52.4251 31.579C51.9325 32.4891 51.0706 33.3233 50.0116 33.3992C49.2481 33.475 48.5586 33.1211 47.9182 32.7924C47.2779 32.4385 46.81 31.8571 46.4652 31.2251C45.9234 31.1492 45.357 31.1745 44.8152 31.2251C43.9286 31.2503 43.042 31.3009 42.1554 31.3262C42.1308 31.2756 42.0569 31.1492 42.0323 31.0734C41.8352 31.0734 41.5151 31.0481 41.6136 30.77C42.2293 29.2785 43.239 28.0145 43.9532 26.5988C45.554 26.5482 47.1302 26.5735 48.7309 26.523C48.7556 25.0061 48.6817 23.4893 48.6571 21.9473C48.4354 18.2058 48.7063 4.70619 48.6078 0.939453ZM50.0116 27.1297C48.3369 27.155 46.6622 27.2308 44.9876 27.2814C44.8152 27.2814 44.4458 27.2814 44.4704 27.5594C44.4211 27.787 44.7167 27.8628 44.8891 27.8122C47.5981 27.7364 50.3317 27.6606 53.0408 27.5594C53.3609 27.61 53.4102 27.0791 53.09 27.0286C52.0803 27.0791 51.0459 27.0791 50.0116 27.1297Z" fill="#D2D2D2"/>
<path d="M40.5342 16.4607C40.9283 16.0562 41.4208 15.677 42.0119 15.677C42.5291 15.7023 42.9231 16.2079 42.9477 16.7388C43.0216 17.6489 42.7014 18.5337 42.332 19.3173C41.5932 20.8089 40.5096 22.0982 39.229 23.1599C40.1156 22.7049 41.0514 22.351 41.9872 22.0982C42.9723 21.8454 44.0313 21.542 45.0411 21.7695C45.4844 21.8706 45.9276 22.2498 45.903 22.7554C45.8045 23.5897 45.1642 24.2217 44.5239 24.6767C42.8 25.8902 40.4357 25.7385 38.6625 24.702C39.0073 25.6121 39.2536 26.5727 39.2043 27.5587C39.2043 28.039 38.9827 28.5699 38.5394 28.8227C37.7513 29.2777 36.717 29.2019 35.9535 28.7468C35.5841 28.5193 35.2393 28.1654 35.2147 27.6851C35.2147 27.1036 35.4856 26.5727 35.7811 26.1177C36.249 25.4099 36.8155 24.7526 37.4558 24.1964C36.3475 23.4127 35.1901 22.6796 34.3773 21.5673C33.7617 20.7078 33.1952 19.7471 33.0475 18.6853C32.9982 18.2809 32.9489 17.7753 33.3184 17.4972C33.6631 17.2697 34.1064 17.4213 34.4512 17.6236C35.2147 18.1039 35.8304 18.8117 36.3968 19.5196C37.111 20.4297 37.6035 21.4662 37.9976 22.5532C38.1454 21.4409 38.367 20.3285 38.761 19.2415C39.1551 18.205 39.7708 17.2444 40.5342 16.4607ZM40.9036 16.7388C40.1402 17.4719 39.5491 18.4073 39.1797 19.3932C38.7364 20.6572 38.5148 21.9718 38.367 23.3116C38.7857 22.9071 39.2536 22.5785 39.6476 22.174C40.5835 21.2892 41.3716 20.2274 41.938 19.0645C42.2581 18.382 42.5291 17.6236 42.5044 16.8399C42.5044 16.5365 42.3567 16.1573 42.0119 16.132C41.5686 16.132 41.1992 16.4607 40.9036 16.7388ZM33.5893 17.8764C33.3676 18.2809 33.5646 18.7612 33.6385 19.1909C34.1803 20.7078 35.1901 22.0476 36.4953 22.983C36.9632 23.3116 37.4065 23.6908 37.9237 23.9183C37.4558 21.719 36.2983 19.646 34.5744 18.2556C34.2788 18.0281 33.9341 17.75 33.5893 17.8764ZM43.1201 22.3004C42.0858 22.5279 41.0514 22.8313 40.0909 23.261C39.5245 23.5138 38.9827 23.8172 38.3916 23.9942C39.0566 24.4492 39.7954 24.8031 40.5835 24.9801C41.5686 25.1318 42.6029 25.1823 43.5388 24.7526C44.3269 24.3987 45.1149 23.8425 45.4597 22.983C45.6321 22.6543 45.3612 22.3004 45.0411 22.2498C44.3761 22.0982 43.7358 22.1487 43.1201 22.3004ZM37.9483 24.3734C37.3819 24.8284 36.8894 25.3593 36.4461 25.9407C36.1013 26.4211 35.7565 26.9267 35.6826 27.5334C35.658 27.862 35.9289 28.1148 36.1752 28.2918C36.8155 28.7216 37.7267 28.7974 38.3916 28.3676C38.8103 28.0896 38.8103 27.5334 38.7857 27.0783C38.7118 26.1177 38.4655 25.1571 38.0222 24.3228L37.9483 24.3734Z" fill="#D2D2D2"/>
<path d="M126.433 17.9788C126.408 17.8524 126.482 17.6249 126.654 17.6754C126.876 17.6501 126.851 17.9282 126.901 18.0799C132.934 17.9535 138.968 17.8777 145.002 17.7513C146.849 17.7513 148.696 17.6754 150.543 17.6754C150.863 17.6754 150.74 18.2063 150.445 18.1052C142.588 18.2569 134.732 18.3833 126.876 18.5349C126.876 19.2934 126.901 20.0518 126.901 20.8102C129.856 20.8102 132.811 20.7849 135.767 20.7849C138.574 20.7343 141.382 20.7849 144.189 20.7343C145.962 20.7343 147.735 20.6838 149.509 20.709C149.73 20.7343 150.026 20.6332 150.174 20.8607C150.223 21.0124 150.124 21.1641 149.977 21.1388C144.583 21.1894 139.165 21.2146 133.772 21.2399C131.481 21.2905 129.191 21.2399 126.925 21.2905C126.999 31.7312 127.147 42.1972 127.27 52.6379C127.245 54.1041 127.27 55.5704 127.369 57.0113C127.369 57.0619 127.319 57.1377 127.319 57.1883H127.27C127.122 57.0366 126.999 56.8849 126.925 56.6827C126.851 55.2417 126.876 53.826 126.851 52.3851C126.728 42.0202 126.605 31.6301 126.507 21.2652C122.418 21.3158 118.355 21.2905 114.267 21.341C114.02 21.3158 113.626 21.4169 113.651 21.0377C113.848 20.7596 114.242 20.9871 114.488 20.7596C115.523 20.9871 116.557 20.8354 117.616 20.8607C120.571 20.886 123.527 20.8354 126.507 20.8354C126.457 19.8748 126.408 18.9394 126.433 17.9788Z" fill="#D2D2D2"/>
<path d="M150.223 18.6613C150.223 18.5096 150.223 18.2568 150.42 18.2568C150.715 18.2315 150.642 18.6107 150.666 18.7877C150.691 20.5826 150.666 22.3775 150.715 24.1724C151.848 22.7314 153.08 21.341 154.557 20.2792C155.222 19.8242 155.937 19.3691 156.774 19.3691C157.266 19.3439 157.759 19.6219 157.931 20.1023C158.178 20.7596 157.956 21.4927 157.71 22.1247C156.922 23.9196 155.542 25.2847 154.213 26.6498C153.498 27.4082 152.686 28.0655 151.873 28.7228C153.868 27.8886 155.937 27.206 158.054 26.8773C159.015 26.7509 160.049 26.6498 160.985 26.9532C161.552 27.1301 162.093 27.5346 162.241 28.1414C162.414 28.6975 162.143 29.2537 161.773 29.6329C161.059 30.4418 160.074 30.9222 159.089 31.3267C156.454 32.2873 153.597 32.5148 150.814 32.3379C150.789 35.1945 150.888 38.0512 150.863 40.9078C150.937 48.1379 150.986 55.3681 151.06 62.5982C154.286 62.4718 157.537 62.3959 160.788 62.2948C160.961 62.2948 161.133 62.2443 161.305 62.3454C161.379 62.4718 161.355 62.674 161.207 62.7246C157.833 62.8257 154.459 62.9268 151.085 63.028C151.085 63.7358 151.159 64.4436 151.11 65.1515C151.11 65.4043 150.666 65.4296 150.691 65.1515C150.666 64.4436 150.666 63.7358 150.642 63.028C150.346 63.0532 150.075 63.028 149.804 62.9521C146.406 63.0027 143.007 63.0532 139.608 63.1544C139.485 64.0139 139.633 64.8987 140.027 65.6571C140.495 66.5419 141.037 67.3761 141.48 68.2609C142.071 69.4238 142.736 70.6626 142.712 72.0277C142.712 73.0642 142.096 73.9743 141.973 74.9855C141.825 75.845 142.12 76.6792 142.416 77.4629C142.859 78.6511 143.475 79.7887 143.746 81.0274C144.091 82.5695 144.238 84.2633 143.524 85.7295C142.909 84.4402 142.318 83.1257 141.677 81.8364C141.505 81.4572 141.234 81.1285 141.012 80.7999C140.717 80.3701 140.495 79.8645 140.249 79.4095C139.436 78.2719 138.279 77.4124 137.072 76.8056C137.047 75.845 137.195 74.8843 137.564 74.0248C138.648 74.0248 139.633 73.4686 140.692 73.317C140.988 73.2917 140.988 72.8114 140.692 72.7861C139.682 72.9125 138.771 73.3675 137.786 73.5445C138.402 72.5586 139.19 71.5979 139.362 70.4097C139.608 69.3733 139.239 68.3621 139.165 67.3256C139.116 67.1486 139.165 66.8453 138.919 66.7947C138.747 66.7188 138.525 66.8958 138.574 67.0728C138.648 67.8059 138.796 68.5137 138.87 69.2469C138.993 70.3592 138.549 71.4462 137.909 72.3563C137.392 73.0894 136.924 73.8731 136.702 74.7579C136.087 73.949 135.496 73.14 134.979 72.2552C134.831 72.053 134.954 71.6738 134.658 71.6232C134.412 71.6738 134.141 71.9518 134.314 72.2046C134.979 73.317 135.767 74.3535 136.555 75.3899C136.505 75.7691 136.481 76.1736 136.456 76.5781C135.225 76.0725 133.969 75.6175 132.762 75.0613C132.245 74.8338 131.728 74.6315 131.211 74.4293C131.383 73.1653 131.605 71.8507 132.368 70.8142C132.885 70.0558 133.673 69.5249 134.486 69.1205C135.471 68.6654 136.21 67.7301 136.604 66.7189C136.998 65.5812 136.752 64.3931 136.752 63.2049C134.412 63.2049 132.097 63.2808 129.757 63.3313C129.634 63.306 129.363 63.3566 129.363 63.1544C129.29 62.9016 129.61 62.8763 129.757 62.9016C132.097 62.851 134.461 62.8004 136.801 62.7752C137.023 61.7134 137.688 60.8286 138.377 60.0196C138.722 59.6657 139.067 59.3118 139.535 59.1348C139.83 58.9831 140.2 59.2106 140.323 59.514C140.47 59.8679 140.323 60.2471 140.249 60.6011C140.003 61.3089 139.781 62.0167 139.633 62.7246C143.278 62.6235 146.947 62.5982 150.592 62.5224C150.518 52.4356 150.395 42.3741 150.346 32.2873C149.804 32.1862 149.262 32.0345 148.745 31.8575C149.336 32.7171 149.73 33.8041 149.533 34.8912C149.435 35.2198 149.262 35.6243 148.893 35.7254C148.573 35.8012 148.327 35.5484 148.13 35.3209C147.563 34.6384 147.391 33.703 147.292 32.8435C146.874 33.5766 146.332 34.2086 145.79 34.8153C145.125 35.5737 144.386 36.2563 143.5 36.7619C142.687 37.2169 141.48 36.9894 141.062 36.1046C140.717 35.4726 140.914 34.6636 141.308 34.1075C141.874 33.1974 142.785 32.5654 143.746 32.1609C144.682 31.7817 145.642 31.4783 146.627 31.2003C145.839 30.8969 145.051 30.4924 144.435 29.8857C143.204 28.6722 142.096 27.206 141.628 25.4869C141.48 24.9055 141.431 24.2229 141.8 23.692C142.096 23.2876 142.662 23.2623 143.081 23.4392C144.214 23.869 145.15 24.7033 145.79 25.765C146.553 27.029 147.243 28.3689 147.612 29.8098C148.228 28.015 149.164 26.3717 150.223 24.8549C150.272 23.5404 150.149 22.2258 150.223 20.9112C150.223 20.1023 150.248 19.3944 150.223 18.6613ZM154.533 20.8354C153.055 21.9983 151.824 23.414 150.691 24.9308C150.765 26.2706 150.691 27.6105 150.74 28.925C151.848 28.1414 152.932 27.2818 153.868 26.2959C155.148 24.9813 156.478 23.6668 157.266 21.9477C157.488 21.4168 157.71 20.8101 157.513 20.254C157.39 19.8747 156.971 19.7483 156.626 19.7989C155.838 19.9 155.148 20.3551 154.533 20.8354ZM142.12 23.9449C141.874 24.3746 141.948 24.9308 142.071 25.3858C142.539 27.0037 143.574 28.3436 144.731 29.5065C145.445 30.2143 146.406 30.5935 147.342 30.9474C147.218 29.2031 146.406 27.6358 145.544 26.1695C144.953 25.1077 144.017 24.1977 142.859 23.7932C142.638 23.6668 142.293 23.692 142.12 23.9449ZM147.834 30.5682C148.622 30.0879 149.484 29.7087 150.297 29.2284C150.297 27.9897 150.297 26.7509 150.297 25.5122C149.238 27.0796 148.302 28.7481 147.834 30.5682ZM157.611 27.3577C155.222 27.8127 152.932 28.6217 150.74 29.6834C150.765 30.3913 150.715 31.1244 150.765 31.8323C153.351 32.0345 155.986 31.807 158.473 30.998C159.483 30.6441 160.493 30.2143 161.281 29.4306C161.601 29.102 161.946 28.647 161.773 28.1414C161.601 27.6105 161.059 27.3577 160.566 27.2313C159.606 27.0796 158.596 27.206 157.611 27.3577ZM148.105 30.9727C148.721 31.4783 149.583 31.5542 150.321 31.7564C150.321 31.1244 150.297 30.5177 150.297 29.8857C149.583 30.2649 148.844 30.6188 148.105 30.9727ZM144.756 32.1862C143.869 32.4895 142.958 32.8687 142.268 33.5513C141.85 33.9811 141.456 34.4614 141.332 35.0681C141.185 35.7254 141.702 36.3827 142.318 36.4585C143.056 36.6102 143.672 36.0793 144.214 35.6748C145.199 34.8659 146.036 33.8799 146.75 32.8182C146.997 32.3884 147.366 32.0092 147.292 31.4783C146.43 31.6047 145.593 31.9081 144.756 32.1862ZM147.686 32.1103C147.686 32.9699 147.809 33.8547 148.203 34.6131C148.351 34.8406 148.499 35.0934 148.745 35.2198C149.016 35.1187 149.065 34.7648 149.115 34.4867C149.213 33.3743 148.622 32.3631 147.957 31.5289C147.883 31.7311 147.76 31.9081 147.686 32.1103Z" fill="#D2D2D2"/>
<path d="M101.286 58.781C101.237 55.2671 101.237 51.7784 101.212 48.2645L100.769 48.1381C100.794 50.0846 100.794 52.0312 100.794 54.0031C100.818 56.3288 100.843 58.6546 100.843 60.9804C100.991 61.0057 101.138 61.0309 101.286 61.0562C101.286 60.2725 101.286 59.5141 101.286 58.781Z" fill="#D2D2D2"/>
<path d="M100.622 25.6894C100.647 26.6248 100.622 27.5602 100.622 28.4955H101.066C101.066 27.5602 101.066 26.6501 101.066 25.7147C101.016 25.563 101.016 25.2849 100.819 25.2344C99.8588 25.2091 98.8983 25.2849 97.9379 25.2849C94.9579 25.3608 92.0026 25.4619 89.0227 25.5377C88.604 23.5659 87.0771 21.8721 85.1808 21.2907C83.5308 20.7598 81.6591 21.1137 80.2799 22.1502C79.1224 23.0097 78.3097 24.3749 78.0635 25.8411C77.1522 25.8664 76.2657 25.8664 75.3544 25.9169C75.1574 25.9169 75.1328 26.1697 75.2559 26.2961C75.4037 26.372 75.5761 26.3467 75.7239 26.3467C76.4873 26.3214 77.2508 26.2709 78.0142 26.2961C77.8911 27.8382 78.4083 29.4309 79.418 30.5685C80.477 31.8072 82.1024 32.5151 83.7032 32.4645C85.501 32.4392 87.2495 31.428 88.21 29.8859C88.9488 28.7483 89.2443 27.3326 89.072 25.9675C92.9385 25.9169 96.7804 25.7653 100.622 25.6894ZM80.9941 22.2513C82.4718 21.3412 84.3927 21.2907 85.9196 22.1249C87.2495 22.8075 88.2346 24.1221 88.5794 25.5883C85.2301 25.6894 81.8807 25.7653 78.5314 25.8664C78.8023 24.3496 79.7135 23.0097 80.9941 22.2513ZM87.7913 29.7848C86.8555 31.1752 85.2547 32.06 83.6293 32.0347C82.1024 32.0853 80.6247 31.3522 79.6396 30.164C78.7777 29.1022 78.3344 27.6866 78.4821 26.3214C81.8807 26.2203 85.2793 26.1445 88.6779 26.0433C88.8257 27.3326 88.5302 28.6978 87.7913 29.7848Z" fill="#D2D2D2"/>
<path d="M74.6407 25.8137C74.7884 25.7379 75.0347 25.7126 75.0593 25.9401C75.0347 29.1254 75.0347 32.336 74.9854 35.5213C74.9854 39.7684 74.9115 44.0154 74.9115 48.2625C74.8623 51.2203 74.8377 54.1781 74.8623 57.1358C74.813 60.1694 74.813 63.1778 74.813 66.2114C80.8468 66.1608 86.9051 66.085 92.9389 66.0092C93.1852 65.9586 93.3083 66.3884 93.0374 66.4389C90.2052 66.54 87.3484 66.4895 84.4917 66.5653C82.152 66.54 79.837 66.6412 77.4974 66.6159C76.5862 66.6412 75.675 66.6159 74.7884 66.6664C74.7884 69.1439 74.7392 71.6213 74.7638 74.0988C74.7392 76.7785 74.7145 79.4835 74.7145 82.1632C74.6406 82.1632 74.5175 82.1632 74.4436 82.1632C74.3944 82.1126 74.3205 82.0368 74.2712 82.0115C74.2466 79.0284 74.2959 76.0707 74.3205 73.0876C74.2959 70.9388 74.3451 68.8153 74.3451 66.6664C72.3995 66.6412 70.454 66.717 68.5084 66.717C68.2129 66.7928 68.1144 66.3125 68.4099 66.2872C70.3801 66.262 72.3749 66.2114 74.3697 66.2114C74.4436 54.7848 74.5175 43.3834 74.5914 31.9568C74.6406 29.9344 74.5668 27.8614 74.6407 25.8137Z" fill="#D2D2D2"/>
<path d="M38.3398 30.3135C38.5861 30.3135 38.857 30.2629 39.1033 30.3388C39.3003 30.4905 39.1279 30.7938 38.9063 30.7433C30.0157 31.0466 21.1498 31.3247 12.2593 31.6028C11.9145 31.6786 11.9391 31.0972 12.2839 31.173C20.9528 30.8697 29.6463 30.5916 38.3398 30.3135Z" fill="#D2D2D2"/>
<path d="M100.893 64.7951C101.016 64.2137 101.14 63.6322 101.287 63.0508C101.361 67.3484 101.337 71.646 101.386 75.9184C101.213 75.5645 101.066 75.1852 100.918 74.8313C100.918 72.7078 100.869 70.5843 100.893 68.4607C100.918 67.222 100.844 66.0086 100.893 64.7951Z" fill="#D2D2D2"/>
<path d="M120.891 65.8064C121.507 65.7305 122.147 65.68 122.763 65.5789C122.516 66.0592 122.443 66.767 121.876 66.944C121.581 67.0704 121.137 67.1462 120.916 66.8176C120.842 66.4889 120.891 66.1603 120.891 65.8064Z" fill="#D2D2D2"/>
<path d="M23.2672 66.2101C23.4889 65.9068 23.8337 65.6034 24.2523 65.7045C24.6217 65.7298 24.8926 66.0079 25.2128 66.1596C28.3651 66.1343 31.4928 66.1343 34.6451 66.109C34.6451 66.2607 34.6698 66.4124 34.6698 66.5388C31.6406 66.5893 28.6114 66.5641 25.6068 66.5893C27.0352 68.2578 27.7987 70.3561 28.439 72.429C28.7592 73.5666 28.9808 74.7295 29.2024 75.9177C29.4734 77.2828 29.4734 78.6732 29.498 80.0384C29.5226 83.1478 29.1532 86.232 28.636 89.2656C28.3651 90.8835 27.9957 92.5015 27.3554 93.993C27.5278 93.993 27.7248 93.993 27.8972 93.993C28.7838 93.0576 29.8428 92.2992 31.0249 91.8695C31.5913 92.906 32.3301 93.8919 33.266 94.625C33.1429 95.1306 32.7981 95.5856 32.6749 96.0913C32.601 96.3693 32.5518 96.6727 32.4779 96.9508C32.01 96.7991 31.4928 96.6727 31.0003 96.7233C30.6555 96.7738 30.3599 97.0772 30.3599 97.4564C30.3353 97.8356 30.6308 98.1642 30.9756 98.2148C31.3204 98.2653 31.6652 98.2148 32.01 98.1895C31.6898 98.7962 31.1973 99.3271 30.6555 99.7063C29.0547 99.7063 27.4785 99.7316 25.8777 99.7316C25.6068 99.4535 25.3606 99.1249 25.1143 98.7962C27.2323 98.8721 29.0301 97.4564 30.4585 95.9901C30.6555 95.6868 30.2614 95.2823 29.9659 95.4845C29.695 95.8132 29.498 96.2177 29.1778 96.4957C28.0203 97.5575 26.5181 98.3159 24.9173 98.3412C24.4493 97.2541 24.1046 96.1165 23.9814 94.9284C23.7844 93.4874 23.9322 92.0464 23.809 90.6055C23.7351 89.5943 23.7598 88.5578 23.5874 87.5466C23.2426 85.7011 22.4545 83.9062 21.1985 82.5411C20.2873 81.6057 19.3022 80.6957 18.0954 80.2153C18.391 80.7209 18.9328 80.9737 19.3514 81.3529C20.2134 82.1366 21.1493 82.8697 21.7403 83.9062C22.4053 84.9427 22.7254 86.1562 23.0209 87.3696C23.2426 88.3808 23.2672 89.4426 23.2672 90.5043C23.2672 92.5773 22.8978 94.7261 23.5381 96.7233C23.9075 97.785 24.2769 98.8973 25.0404 99.7316C22.8239 99.7822 20.6075 99.7316 18.391 99.7822C17.6275 99.3271 16.9626 98.7457 16.2976 98.1389C15.7066 97.5828 15.214 96.9255 14.9185 96.1671C14.82 95.9901 14.8692 95.7373 15.0909 95.6868C15.8543 95.7373 16.6178 95.7879 17.3812 95.889C17.5783 96.3693 17.7753 96.8749 17.9477 97.3805C18.0954 97.7597 18.7604 97.5322 18.588 97.1277C18.3417 96.7485 18.194 96.3441 18.0216 95.9396C19.2529 96.0407 20.4843 96.3693 21.5926 96.9508C21.0261 96.1418 20.4843 95.3329 19.9918 94.4733C18.8096 94.4986 17.6521 94.4733 16.47 94.4986C16.4454 94.6503 16.2484 94.8778 16.1006 94.7008C15.9529 94.625 16.0267 94.4228 16.0021 94.2711C16.0021 91.92 15.9775 89.569 15.9529 87.2179C15.9775 84.8416 15.9282 82.4905 15.9036 80.1142C15.4849 79.6592 14.9924 79.28 14.5737 78.8502C14.4259 78.6985 14.4752 78.4204 14.6722 78.3446C15.0663 78.1929 15.4849 78.2182 15.9036 78.1929C15.8543 74.3503 15.8543 70.5078 15.8051 66.6652C15.879 66.3365 16.2976 66.3112 16.5439 66.1848C18.8096 66.2101 21.0507 66.1849 23.2672 66.2101ZM24.0307 66.0837C23.7351 66.2354 24.1784 66.4376 24.3016 66.2607C24.3755 66.109 24.1292 66.0332 24.0307 66.0837ZM16.7902 66.6905C16.6424 66.8169 16.47 66.8421 16.2976 66.7916C16.3223 70.6089 16.3469 74.4262 16.3961 78.2688C17.5783 78.3193 18.785 78.5216 19.9179 78.9008C20.8045 79.2294 21.6172 79.7097 22.356 80.2659C24.0799 81.454 25.5083 83.1731 26.2225 85.1702C26.7643 86.7882 27.0845 88.4819 27.1584 90.1757C26.4934 90.7571 25.9762 91.4903 25.4098 92.1728C25.2128 92.4004 25.2374 92.8048 25.5083 92.9818C25.7546 93.1588 26.0748 93.0324 26.2225 92.8048C26.5427 92.3498 26.8382 91.8695 27.2076 91.4397C27.2569 92.1223 27.1584 92.8048 27.1584 93.5127C27.4785 92.5268 27.7741 91.5408 27.9711 90.5043C27.7987 87.0662 27.7248 83.5017 26.4688 80.2406C25.6068 77.6873 24.6956 75.1593 23.7844 72.6313C23.218 70.6847 22.7008 68.637 23.0948 66.5893C21.0015 66.6399 18.9082 66.6652 16.7902 66.6905ZM23.5874 66.6399C23.1441 68.5612 23.6613 70.533 24.1784 72.3532C24.9665 74.6537 25.8039 76.9289 26.5919 79.2294C26.8875 80.1142 27.2323 80.9737 27.4539 81.8838C27.8479 83.3248 28.0203 84.8416 28.1927 86.3331C28.1188 85.0944 28.1435 83.8304 28.0203 82.5917C27.7741 79.9878 27.4293 77.3587 26.6904 74.8307C26.2964 73.5666 25.9762 72.2774 25.4591 71.0639C25.3113 70.6847 25.1389 70.3308 25.0158 69.9263C24.9419 69.6735 25.2374 69.6229 25.3852 69.5218C25.5822 69.6229 25.5576 69.8252 25.533 70.0022C25.8039 70.6847 26.0994 71.342 26.321 72.0246C26.9613 74.0217 27.577 76.0441 27.9218 78.1171C28.2912 80.5187 28.6114 82.9709 28.5868 85.3978C28.5868 85.8275 28.5375 86.2573 28.636 86.687C28.8823 84.4877 29.1286 82.263 29.0793 80.0636C29.0301 78.6732 29.0301 77.3081 28.7592 75.943C28.4636 74.4515 28.1927 72.9346 27.6755 71.519C27.0845 69.7494 26.321 67.9797 25.0158 66.6399C24.5479 66.6399 24.0553 66.6399 23.5874 66.6399ZM16.3961 80.6198C16.4454 83.6534 16.4454 86.7123 16.47 89.7459C16.5193 91.1869 16.4947 92.6279 16.4947 94.0941C17.6029 94.0941 18.7111 94.0941 19.8194 94.0688C19.1052 92.6532 18.5634 91.1111 18.3417 89.5437C18.1447 88.1027 18.5141 86.687 18.588 85.2461C18.9082 85.6506 19.1544 86.1814 19.5977 86.4595C20.0656 86.7123 20.5582 86.0803 20.2873 85.6506C19.6962 84.7658 18.9328 84.0073 18.1447 83.2995C17.6275 82.3389 17.135 81.3782 16.3961 80.6198ZM28.2912 88.7095C28.3405 88.4819 28.3897 88.2544 28.3897 88.0269C28.242 88.2038 28.3159 88.4819 28.2912 88.7095ZM27.0599 94.4733C27.0352 94.7514 26.986 95.0295 26.9613 95.2823C27.1337 95.0042 27.3308 94.7261 27.5524 94.448C27.38 94.4733 27.2323 94.4733 27.0599 94.4733ZM19.8194 98.1642C19.7209 98.5182 20.1642 98.6951 20.3858 98.8721C20.9769 99.1754 21.6172 99.403 22.2821 99.4535C22.5284 99.4535 22.6515 99.2007 22.5777 98.9732C22.4053 98.7457 22.0851 98.8215 21.8388 98.771C21.3216 98.6698 20.7798 98.5434 20.3365 98.2653C20.1642 98.1895 19.9671 98.0378 19.8194 98.1642Z" fill="#D2D2D2"/>
<path d="M107 66.2629C109.019 65.9849 111.113 66.1113 113.058 66.7433C113.92 67.0466 114.831 67.4511 115.373 68.2348C115.718 68.7404 115.644 69.4482 115.225 69.9033C114.536 70.687 113.501 71.0156 112.516 71.2431C110.645 71.6223 108.674 71.597 106.803 71.2178C105.768 70.965 104.685 70.6364 103.847 69.9286C103.429 69.5746 103.084 69.0438 103.182 68.4623C103.281 67.8809 103.749 67.4764 104.192 67.1983C105.054 66.6421 106.039 66.4146 107 66.2629ZM106.975 66.718C106.409 66.7938 105.867 66.9455 105.325 67.1225C104.709 67.35 103.995 67.6786 103.675 68.3106C103.478 68.791 103.774 69.2713 104.143 69.5746C105.103 70.333 106.31 70.6364 107.468 70.8639C109.389 71.1673 111.383 71.142 113.231 70.5606C113.895 70.3078 114.634 70.0297 115.028 69.3724C115.25 68.9932 115.078 68.5129 114.782 68.2348C114.265 67.6786 113.551 67.4005 112.861 67.1477C110.965 66.541 108.945 66.4399 106.975 66.718Z" fill="#D2D2D2"/>
<path d="M61.2944 68.0063C61.5161 67.9052 61.6885 68.1074 61.8855 68.2086C62.2549 68.4614 62.6982 68.4361 63.1169 68.5625C63.1907 68.8153 62.846 68.8658 62.6982 68.967C62.3042 69.0934 61.8855 69.3967 61.4668 69.2198C61.2698 68.8658 61.1959 68.3855 61.2944 68.0063Z" fill="#D2D2D2"/>
<path d="M95.4264 82.2648V82.2395C95.4264 82.7704 95.1555 83.3013 95.2294 83.8321C95.254 84.1861 95.1309 84.5147 95.057 84.8686C93.9981 89.2421 92.9391 93.6408 91.8801 98.0396L91.8062 98.0143C91.486 97.9385 91.1413 97.9132 90.8211 97.9385C88.0136 97.9385 85.206 97.989 82.3985 97.9637C77.7685 98.0396 73.1632 98.0143 68.5332 98.0649C69.6661 92.933 70.7989 87.8264 71.9072 82.6945C79.6895 82.6945 87.4964 82.6945 95.2787 82.6945C95.3279 82.5176 95.3772 82.3912 95.4264 82.2648Z" fill="#D2D2D2"/>
<path d="M83.161 91.8465C84.0859 91.8465 84.8357 91.0769 84.8357 90.1275C84.8357 89.1781 84.0859 88.4084 83.161 88.4084C82.2361 88.4084 81.4863 89.1781 81.4863 90.1275C81.4863 91.0769 82.2361 91.8465 83.161 91.8465Z" fill="#848484"/>
<path d="M101.043 92.1235C101.191 92.2499 101.339 92.3511 101.486 92.4522C101.486 94.7527 101.486 97.0279 101.511 99.3284C101.412 99.3284 101.191 99.3284 101.068 99.3284C101.068 96.9268 101.092 94.5251 101.043 92.1235Z" fill="#D2D2D2"/>
<path d="M45.2846 95.5621C45.4324 95.4357 45.6786 95.6885 45.5555 95.8402C45.4077 95.9413 45.2107 95.7138 45.2846 95.5621Z" fill="#D2D2D2"/>
<path d="M157.832 91.8194H151.404C150.936 91.8194 150.542 91.4402 150.542 90.9346V90.7829C150.542 90.3026 150.911 89.8981 151.404 89.8981H157.832C158.3 89.8981 158.694 90.2773 158.694 90.7829V90.9346C158.694 91.4402 158.3 91.8194 157.832 91.8194Z" fill="#D2D2D2"/>
<path d="M151.38 91.8208L152.168 98.9498H157.093L157.906 91.8208H151.38Z" fill="#D2D2D2"/>
<path d="M154.68 91.8208L151.774 95.3853L151.38 91.8208H154.68Z" fill="#848484"/>
<path d="M33.6367 43.0545C33.5382 42.7259 33.7598 42.1191 34.1785 42.3214C34.7696 43.282 35.2868 44.2932 35.8286 45.3044C36.0256 45.7848 36.2718 46.2145 36.5181 46.6696H36.592C36.395 45.9112 36.0995 45.178 35.8286 44.4196C35.6315 43.914 35.4838 43.3579 35.6808 42.827C35.7547 42.5489 36.1241 42.4731 36.3211 42.65C37.0846 44.6219 37.848 46.5937 38.5376 48.6161C38.3898 48.9953 38.2174 49.3745 37.8973 49.6273C37.4047 50.0571 36.7644 50.3605 36.4442 50.9925C36.1487 51.6497 36.1487 52.4081 36.2965 53.0907C36.3457 53.293 36.5428 53.3435 36.6905 53.2171C36.6905 52.5851 36.5181 51.9025 36.789 51.2705C37.0846 50.588 37.8234 50.3352 38.2913 49.8296C38.513 49.6021 38.6853 49.2987 38.8085 48.9953C38.907 48.7172 39.1286 48.515 39.1533 48.2116C39.2272 47.5291 39.2025 46.7454 39.6458 46.164C39.8182 45.9112 40.2369 45.8859 40.3846 46.164C40.5817 46.5684 40.6063 47.0235 40.5817 47.4532C40.557 48.4392 40.4585 49.4251 40.3846 50.4363C40.36 51.22 39.9906 51.9278 40.0152 52.7115C39.9167 53.6722 40.0152 54.6581 39.9413 55.644C39.9413 55.9474 39.966 56.2507 39.9413 56.5541C39.5227 56.908 38.9562 57.0091 38.4144 57.0597C37.5279 57.1355 36.6413 57.0091 35.8286 56.6299C35.7547 56.4277 35.7054 56.2255 35.6808 56.0485C35.4591 55.3406 35.336 54.5822 35.0158 53.8997C35.4591 54.1525 35.8778 54.6328 36.395 54.6328C36.5674 54.3042 36.1487 54.1525 35.9517 54.0008C35.4591 53.7227 35.0405 53.3435 34.5479 53.0149C34.1293 52.7115 33.9322 52.1806 33.7352 51.7256C33.1442 50.2593 32.5777 48.7678 32.0359 47.251C31.8635 46.6948 31.6665 46.1134 31.6665 45.5319C31.6911 45.2033 32.1098 45.2286 32.2822 45.4308C32.8486 46.1387 33.1934 46.9729 33.7352 47.706C33.8584 47.883 34.0554 48.0094 34.2524 48.0852C33.7106 46.8212 32.9964 45.6078 32.5777 44.2932C32.4792 44.0404 32.4546 43.6865 32.7255 43.5348C32.9964 43.3579 33.3165 43.5601 33.4643 43.7876C34.1293 44.9505 34.6218 46.2398 35.336 47.3774C35.1882 46.6443 34.8681 45.9617 34.5233 45.3297C34.1293 44.6219 33.9076 43.8382 33.6367 43.0545Z" fill="#FFBE9D"/>
<path d="M95.1078 57.2872C95.0339 56.9586 95.1325 56.4782 95.5019 56.4024C95.6989 56.3266 95.7728 56.5541 95.822 56.7058C96.1914 57.6917 96.5855 58.6776 96.9303 59.6635C97.0534 60.1944 97.2504 60.6747 97.4721 61.1803C97.4721 59.9416 96.8318 58.7534 97.0041 57.5147C97.0288 57.1355 97.4474 56.8069 97.7676 57.1102C98.2355 59.1832 98.7773 61.2562 99.1221 63.3797C98.9251 63.7842 98.6296 64.1128 98.2601 64.3404C97.7183 64.6437 97.1027 64.8712 96.7332 65.4274C96.3638 66.0089 96.2653 66.742 96.3146 67.4498C96.2899 67.7279 96.5608 67.6521 96.7332 67.6268C96.7086 66.9695 96.7086 66.2617 97.078 65.7055C97.4721 65.1493 98.1616 64.9976 98.6542 64.5932C98.9497 64.3909 99.1467 64.1128 99.3438 63.8095C99.5162 63.5061 99.8117 63.2786 99.8363 62.8994C99.9841 62.2168 100.107 61.3067 100.821 60.9781C100.969 61.0034 101.117 61.0287 101.265 61.0539C101.486 61.7112 101.363 62.3938 101.265 63.0511C101.117 63.6325 100.994 64.214 100.871 64.7954C100.748 65.478 100.575 66.1352 100.28 66.7673C99.9102 67.9807 99.8117 69.27 99.6147 70.5087C99.8363 72.0002 100.403 73.4159 100.92 74.8316C101.068 75.2108 101.215 75.5647 101.388 75.9187C101.536 76.2726 101.683 76.6518 101.905 76.9552C102.077 77.1827 102.299 77.4102 102.496 77.6377C101.733 78.6489 100.551 79.2051 99.4176 79.6601C98.6049 79.9888 97.743 80.191 96.881 80.1657C96.7332 80.1152 96.6101 80.0393 96.487 79.9635C96.3392 79.6348 96.3392 79.2556 96.2899 78.9017C95.9452 75.6911 95.6004 72.4806 95.2063 69.27C95.1571 68.8402 95.1078 68.4357 94.9601 68.0313C95.2556 68.4105 95.625 68.7138 95.9944 68.9666C96.1176 69.0677 96.3392 68.9919 96.3146 68.7897C96.2161 68.5874 96.019 68.461 95.8466 68.3093C95.3787 67.9554 95.0093 67.5004 94.566 67.0959C94.3197 66.8431 94.2212 66.4639 94.0981 66.1352C93.8026 65.0735 93.5563 63.9612 93.31 62.8741C93.0884 61.7365 92.7436 60.5989 92.7928 59.436C92.8175 59.0568 93.31 59.0821 93.4578 59.3602C93.9011 60.1186 94.1474 61.0034 94.566 61.7871C94.6645 61.9893 94.8123 62.141 95.0093 62.2168C94.6399 60.877 94.0981 59.5877 93.8518 58.2226C93.8272 57.995 93.8272 57.6917 94.0488 57.54C94.3444 57.3378 94.6892 57.6411 94.8123 57.9192C95.2556 59.1326 95.6004 60.3967 96.0929 61.6101C96.1176 61.6101 96.1422 61.5848 96.1668 61.5848C96.0437 60.8517 95.8713 60.1186 95.6004 59.436C95.3541 58.7534 95.2556 58.0203 95.1078 57.2872Z" fill="#FFBE9D"/>
<path d="M119.267 60.826C119.464 60.2193 120.055 59.7642 120.695 59.739C121.212 59.6631 121.631 60.0676 122.124 60.0676C122.493 60.0423 122.887 59.9918 123.257 59.9412C123.281 60.5985 123.257 61.3569 123.798 61.8119C124.143 62.1659 124.66 62.1153 125.104 62.1911C125.301 62.5198 125.325 63.1012 125.793 63.1265C126.163 63.0507 126.384 62.6715 126.68 62.4439C127.025 62.6715 127.419 62.9243 127.517 63.354C127.591 63.7332 127.566 64.2388 127.197 64.4158C126.951 64.5928 126.557 64.5928 126.483 64.9214C126.409 65.3764 126.261 65.9326 126.63 66.2865C126.63 67.8539 126.631 69.396 126.606 70.9633C126.261 71.3425 126.138 71.8734 125.916 72.3285C125.473 73.2133 125.03 74.1992 124.168 74.7301C123.158 75.3621 121.804 75.1851 120.818 74.6037C120.252 74.2498 120.104 73.5419 119.932 72.9352C119.932 72.379 119.981 71.8481 120.055 71.292C120.745 71.2414 121.311 70.8369 121.853 70.4072C122.936 69.5729 123.897 68.5365 124.611 67.323C123.7 67.8286 122.764 68.3089 121.779 68.6123C121.262 68.764 120.695 68.8904 120.203 68.6376C119.809 68.3595 119.538 67.9297 119.415 67.4494C119.119 66.7921 118.947 66.059 118.897 65.3259L118.971 65.2248C119.193 64.8456 119.193 64.3905 119.218 63.9607C119.119 62.9495 118.922 61.8625 119.267 60.826ZM119.956 61.4327C119.759 61.4833 119.538 61.6097 119.415 61.7867C119.341 61.9383 119.39 62.09 119.562 62.1153C119.784 62.0142 119.981 61.8119 120.252 61.8372C120.449 61.8119 120.72 61.8878 120.769 61.635C120.621 61.2811 120.203 61.4075 119.956 61.4327ZM121.976 61.7867C122.271 61.7614 122.542 61.7867 122.813 61.9383C122.961 62.0647 123.281 61.9636 123.158 61.7361C122.912 61.458 122.493 61.3063 122.124 61.3822C121.927 61.4075 121.951 61.635 121.976 61.7867ZM121.163 62.5956C121.015 62.8737 121.163 63.2529 121.04 63.5563C120.942 63.8849 120.621 64.1377 120.572 64.4664C120.646 64.8456 121.065 64.972 121.385 65.0984C121.582 65.1995 121.804 65.0225 121.779 64.795C121.557 64.6433 121.262 64.5928 121.015 64.4664C121.409 63.9102 121.656 63.2276 121.434 62.5451C121.36 62.5451 121.212 62.5703 121.163 62.5956ZM122.198 62.5703C122.198 62.9495 122.05 63.3793 122.296 63.7079C122.444 63.9102 122.789 63.7838 122.789 63.531C122.936 63.1265 122.739 62.4187 122.198 62.5703ZM120.055 62.6715C119.809 62.9243 119.932 63.5815 120.35 63.5563C120.646 63.4299 120.621 63.0254 120.548 62.7473C120.474 62.5451 120.178 62.4945 120.055 62.6715ZM120.892 65.8062C120.892 66.1348 120.843 66.4888 120.917 66.8174C121.139 67.146 121.557 67.0449 121.877 66.9438C122.444 66.7668 122.518 66.059 122.764 65.5787C122.148 65.7051 121.508 65.7304 120.892 65.8062Z" fill="#FFBE9D"/>
<path d="M59.7422 62.9488C60.5549 62.3926 61.5646 62.3421 62.5005 62.4685C62.8453 62.519 63.2393 62.5949 63.5102 62.873C63.8304 63.2269 64.0274 63.7072 64.4214 63.9853C64.6923 64.2128 65.0371 64.3139 65.3819 64.4151C65.5297 65.7802 65.5543 67.1706 65.4558 68.5357C65.2341 69.5722 64.6923 70.5076 63.9781 71.266C63.5595 71.7463 62.8699 71.5693 62.3773 71.3418C61.343 70.8615 60.4318 70.1789 59.5452 69.4711C60.087 70.9373 61.0475 72.2266 62.1064 73.3137C62.4512 73.6929 62.8945 73.9457 63.3871 74.1226C63.3871 74.2743 63.3624 74.4513 63.3624 74.6029C63.3378 75.0074 63.2886 75.4119 63.2639 75.8417C63.2639 76.0186 63.2393 76.2209 63.2393 76.3978C63.19 76.7518 63.2393 77.131 62.993 77.409C62.6975 77.7377 62.3281 78.0411 61.9833 78.3444C61.2198 78.6731 60.3333 78.6478 59.5944 78.218C58.6093 77.6366 57.6735 76.9034 57.1317 75.8417C56.8854 75.3614 56.5899 74.8558 56.6884 74.2996C56.713 74.1479 56.7376 73.9962 56.7623 73.8698C56.8362 73.3895 56.91 72.8839 56.9839 72.4036C57.0332 72.1255 57.0824 71.8474 57.1809 71.5946C57.6489 70.5834 57.9936 69.4711 58.0183 68.3335C58.0429 67.752 57.7474 67.2212 57.4765 66.7155C57.2056 66.2352 57.1809 65.6538 57.3041 65.1229C57.3533 64.8954 57.5257 64.6426 57.772 64.6931C58.1168 64.769 58.0675 65.2999 58.4369 65.3251C58.6093 65.1482 58.6093 64.8954 58.6832 64.6931C58.8064 64.0106 59.1511 63.328 59.7422 62.9488ZM61.2445 63.8336C60.9982 63.9095 60.5056 64.1117 60.7519 64.4403C60.9489 64.4656 61.1213 64.3139 61.3184 64.2634C61.6631 64.1117 62.0326 64.2887 62.3773 64.2887C62.5005 64.2381 62.5251 64.0611 62.4512 63.96C62.1064 63.7578 61.6385 63.7325 61.2445 63.8336ZM63.6826 64.2887C63.658 64.3392 63.6087 64.4151 63.5841 64.4403C63.7072 64.7943 64.2244 64.7184 64.5446 64.769C64.7662 64.3139 63.9781 64.2128 63.6826 64.2887ZM62.8453 65.7043C62.796 66.3111 63.1408 66.7914 63.5102 67.2212C63.5102 67.7015 62.9191 67.2464 62.6729 67.4234C62.6729 67.4992 62.6482 67.6509 62.6236 67.7268C62.9684 67.752 63.3132 67.8279 63.658 67.8279C63.9535 67.6256 64.0766 67.1959 63.8304 66.9178C63.5102 66.5639 63.2147 66.1088 63.2639 65.6032C63.2393 65.401 63.3871 65.1229 63.1901 64.9712C62.796 64.8954 62.8453 65.4515 62.8453 65.7043ZM61.6139 65.8813C61.737 65.8813 61.8602 65.8813 62.0079 65.8813C61.9587 65.6285 62.1311 65.1229 61.7617 65.0976C61.4908 65.2746 61.6139 65.6285 61.6139 65.8813ZM63.6333 65.6032C63.5348 65.8813 63.5348 66.3363 63.9289 66.2605C63.9781 65.9824 64.0028 65.7043 64.0028 65.4515C63.8796 65.4515 63.6333 65.3757 63.6333 65.6032ZM61.2937 68.0048C61.1706 68.384 61.2445 68.8644 61.4415 69.193C61.8355 69.37 62.2788 69.0666 62.6729 68.9402C62.8206 68.8391 63.1654 68.7885 63.0915 68.5357C62.6729 68.4346 62.2296 68.4346 61.8602 68.1818C61.6878 68.106 61.5154 67.929 61.2937 68.0048Z" fill="#FFBE9D"/>
<path d="M113.825 93.717C113.579 93.5148 113.48 93.0091 113.8 92.8322C114.17 92.6805 114.589 92.8069 114.958 92.908C115.943 93.2367 116.904 93.6664 117.889 94.0709C118.578 94.3237 119.12 94.8546 119.81 95.0821C120.696 95.4613 121.657 95.6636 122.543 96.0428C122.568 96.422 122.592 96.8012 122.691 97.1551C122.691 97.3321 123.06 97.3826 123.06 97.1551C123.06 96.7759 122.986 96.3967 122.937 96.0428C124.784 95.9164 126.607 95.5372 128.405 95.0568C128.922 94.9304 129.39 94.6776 129.784 94.349C130.301 94.6271 130.449 95.2338 130.72 95.7394C131.163 96.8264 131.409 97.9893 131.483 99.1522C128.429 99.1775 125.375 99.2281 122.322 99.2028C119.465 99.2281 116.633 99.2533 113.776 99.2533C113.357 99.2533 112.914 99.2786 112.495 99.2028C112.865 98.8994 113.333 98.7225 113.702 98.4444C113.8 98.2674 113.628 98.0399 113.456 98.141C112.791 98.4444 112.2 98.8741 111.559 99.2533C110.771 99.3039 110.008 99.2533 109.22 99.2786C109.392 98.95 109.589 98.6213 109.786 98.318C109.983 97.9641 110.328 97.7365 110.574 97.4584C110.919 97.0287 111.436 96.9023 111.879 96.6242C112.003 96.5736 112.101 96.4978 112.224 96.4472C113.012 96.068 113.8 95.613 114.589 95.2591C115.106 95.1074 115.623 94.9304 116.091 94.6776C116.288 94.6018 116.214 94.3743 116.066 94.2732C115.648 94.3743 115.253 94.5512 114.835 94.7029C114.613 94.2984 114.194 94.0456 113.825 93.717Z" fill="#FFBE9D"/>
<path d="M38.5149 48.6179C38.5888 48.7443 38.6873 48.8707 38.7858 48.9971C38.6627 49.3005 38.5149 49.6038 38.2686 49.8314C37.8007 50.337 37.0619 50.5898 36.7664 51.2723C36.4955 51.8791 36.6679 52.5616 36.6679 53.2189C36.5201 53.32 36.2984 53.2947 36.2738 53.0925C36.1261 52.4099 36.1261 51.6515 36.4216 50.9943C36.7171 50.3622 37.3821 50.0842 37.8746 49.6291C38.1948 49.351 38.3672 48.9971 38.5149 48.6179Z" fill="#3D1E1F"/>
<path d="M34.5723 53.0427C35.0402 53.3714 35.4589 53.7506 35.976 54.0286C36.1977 54.1803 36.5917 54.3067 36.4193 54.6607C35.8775 54.6607 35.4835 54.1803 35.0402 53.9275C34.917 53.5989 34.7693 53.2955 34.5723 53.0427Z" fill="#3D1E1F"/>
<path d="M122.37 55.9475C122.912 55.3913 123.7 55.1638 124.439 55.1638C125.079 55.1638 125.695 55.4672 126.262 55.7453C126.434 56.0992 126.754 56.3014 126.902 56.6806C127 56.8576 127.124 57.0345 127.247 57.1862C127.665 57.7171 128.355 57.8941 128.798 58.3997C129.217 58.88 129.611 59.5878 129.34 60.2451C129.192 60.7255 128.65 60.8771 128.429 61.2816C128.724 62.04 129.094 62.8237 128.995 63.6832C128.946 64.2647 128.626 64.7703 128.182 65.1495C127.69 65.5792 127.173 65.9837 126.606 66.3376C126.237 65.9837 126.385 65.4276 126.459 64.9725C126.532 64.6439 126.926 64.6186 127.173 64.4669C127.567 64.2647 127.567 63.7591 127.493 63.4051C127.394 62.9501 127 62.6973 126.656 62.4951C126.36 62.7226 126.138 63.1018 125.769 63.1776C125.276 63.1776 125.252 62.5709 125.079 62.2423C124.636 62.1664 124.119 62.217 123.774 61.8631C123.232 61.408 123.282 60.6496 123.232 59.9923C122.863 60.0176 122.469 60.0934 122.1 60.1187C121.607 60.1187 121.164 59.7395 120.671 59.7901C120.031 59.8154 119.44 60.2704 119.243 60.8771C118.898 61.9136 119.095 63.0007 119.12 64.0372C119.095 64.4669 119.095 64.922 118.873 65.3012C118.356 64.745 117.593 64.5175 117.125 63.9108C116.657 63.4051 116.706 62.6467 116.632 61.9895C116.706 61.6355 117.026 61.3575 116.903 60.9783C116.681 60.321 115.869 60.1946 115.573 59.5878C115.376 59.2086 115.499 58.7536 115.622 58.3491C115.795 57.8688 116.017 57.3885 116.337 57.0093C117.125 56.175 118.405 55.9475 119.44 56.3267C119.957 56.4784 120.425 56.8323 120.991 56.8576C121.582 56.7565 122.001 56.3267 122.37 55.9475Z" fill="#3D1E1F"/>
<path d="M39.9668 55.645C40.287 55.7967 40.484 56.1253 40.5825 56.454C40.5333 56.5551 40.484 56.6562 40.4101 56.7321C39.6959 57.3135 38.7601 57.4146 37.8981 57.4399C37.0115 57.3894 36.1003 57.2629 35.263 56.9343C35.2384 56.8837 35.1891 56.7826 35.1645 56.7321C35.0167 56.7321 34.869 56.7573 34.7212 56.7573C34.7458 56.7068 34.7704 56.6309 34.7704 56.6057C34.869 56.6057 35.0413 56.5804 35.1152 56.5804C35.1152 56.2517 35.4354 56.1253 35.6817 56.0495C35.7309 56.2517 35.7802 56.454 35.8294 56.6309C36.6175 57.0101 37.5287 57.1365 38.4153 57.0607C38.9325 56.9849 39.4989 56.909 39.9422 56.5551C39.9915 56.2517 39.9668 55.9484 39.9668 55.645Z" fill="#3D1E1F"/>
<path d="M40.3604 57.4155L40.4835 57.2891C40.5327 57.466 40.582 57.6177 40.6313 57.7947C40.582 57.8452 40.4835 57.9211 40.4342 57.9716C40.1633 58.1739 39.8432 58.3003 39.523 58.4267C39.5477 58.5531 39.5476 58.6795 39.5723 58.8059C39.6462 59.5896 39.6708 60.3985 39.8924 61.1569C39.9909 61.5361 40.2618 61.8142 40.5081 62.1176C40.9268 62.5979 41.1731 63.2299 41.1731 63.8872C41.1977 64.3675 41.1484 64.8984 41.3701 65.3281C42.0104 66.5163 42.232 67.8814 42.7739 69.1202C43.0694 69.8533 43.5127 70.5359 44.0545 71.092C44.35 70.5106 44.6209 69.9039 44.8672 69.2971C44.9903 69.373 45.1135 69.4741 45.2612 69.5499C44.9657 70.1819 44.6948 70.8139 44.4239 71.4459C45.3844 72.1285 46.5419 72.356 47.6747 72.4824C48.8076 72.6594 49.8912 72.988 50.9748 73.3167C51.5166 73.5189 52.083 73.342 52.6495 73.3167C53.5853 73.2156 54.4965 73.3672 55.4078 73.5948C55.5555 73.62 55.7033 73.6706 55.8511 73.6959C56.1466 73.7717 56.4421 73.8223 56.7376 73.8728C56.713 74.0245 56.6884 74.1509 56.6638 74.3026C56.3929 74.252 56.122 74.2015 55.8511 74.1509C55.6787 74.1004 55.5063 74.0751 55.3339 74.0245C54.4473 73.797 53.5607 73.6453 52.6495 73.7464C52.083 73.7717 51.5166 73.9487 50.9748 73.7717C49.6203 73.3672 48.2658 72.9627 46.862 72.8111C45.8769 72.6341 44.8918 72.3307 44.0791 71.7493C43.5619 71.2437 43.094 70.6875 42.7492 70.0555C41.9611 68.6146 41.7395 66.9461 40.976 65.4798C40.5574 64.6961 40.9268 63.7608 40.5327 62.9771C40.2865 62.3957 39.72 62.0164 39.523 61.4097C39.2767 60.6008 39.2521 59.716 39.1782 58.8817C39.1782 58.7806 39.1536 58.6036 39.129 58.5278C38.4148 58.6289 37.7006 58.6542 36.9864 58.5025C36.8386 58.4772 36.7401 58.3256 36.6416 58.2244C36.6909 58.1739 36.7894 58.0727 36.8633 58.0222C37.4543 58.1233 38.0454 58.1991 38.6611 58.1233C39.2767 58.0475 39.9417 57.9211 40.3604 57.4155Z" fill="#3D1E1F"/>
<path d="M58.9295 58.3766C60.1117 57.7952 61.4169 57.2643 62.7468 57.5677C64.52 57.7446 66.2193 58.7558 67.1305 60.3232C67.0566 60.4749 66.9581 60.6266 66.9827 60.8035C67.0074 61.6125 67.2536 62.3962 67.229 63.2051C67.2044 64.2163 66.8842 65.2023 66.4902 66.1124C66.1208 66.9466 66.0223 67.882 65.9976 68.7921C65.973 69.9044 66.2193 71.042 66.7118 72.0279C67.7216 73.9998 69.3962 75.5419 70.3075 77.5643C70.4552 77.8929 70.603 78.2468 70.7261 78.6007C70.1104 77.9182 69.3716 77.3873 68.5589 76.9575C67.6969 76.5025 66.835 76.0222 65.9484 75.6683C65.0864 75.3143 64.1752 75.0362 63.3379 74.6318C63.3379 74.4801 63.3625 74.3031 63.3625 74.1514C62.8946 73.9998 62.4513 73.7217 62.0819 73.3425C60.9983 72.2301 60.0624 70.9661 59.5206 69.4999C60.4072 70.2077 61.343 70.8903 62.3528 71.3706C62.8453 71.5981 63.5349 71.7751 63.9536 71.2948C64.6677 70.5364 65.2096 69.601 65.4312 68.5645C65.5297 67.1994 65.5051 65.809 65.3573 64.4439C65.0372 64.3427 64.6924 64.2416 64.3969 64.0141C64.0028 63.7107 63.8058 63.2557 63.4856 62.9018C63.2147 62.6237 62.8207 62.5731 62.4759 62.4973C61.5401 62.3709 60.5057 62.4215 59.7176 62.9776C59.1266 63.3568 58.7818 64.0394 58.634 64.6967C58.5848 64.9242 58.5601 65.177 58.3877 65.3287C58.0183 65.3034 58.043 64.7725 57.7228 64.6967C57.4519 64.6461 57.2795 64.8989 57.2549 65.1264C57.1317 65.6573 57.181 66.2388 57.4273 66.7191C57.6982 67.2247 57.9691 67.7556 57.9691 68.337C57.9444 69.4746 57.575 70.5617 57.1317 71.5981C57.0086 71.8509 56.9593 72.129 56.9347 72.4071C56.6884 72.2807 56.4668 72.1796 56.1959 72.0785C56.0974 72.0532 55.925 72.0026 55.8511 71.9773C55.0384 71.7751 54.2257 71.5476 53.413 71.4212C52.551 71.2948 51.6891 71.4465 50.8271 71.3453C49.8912 71.2442 48.98 71.0167 48.0934 70.6628C47.7733 70.5364 47.4039 70.4605 47.0591 70.3847C48.6845 69.2218 49.9898 67.6797 51.2211 66.0871C52.2801 64.722 53.1667 63.2557 54.2996 61.9664C55.6048 60.4749 57.181 59.2362 58.9295 58.3766Z" fill="#3D1E1F"/>
<path d="M119.955 61.4342C120.226 61.3837 120.62 61.2826 120.768 61.6112C120.694 61.864 120.423 61.7882 120.25 61.8134C119.98 61.8134 119.783 61.9904 119.561 62.0915C119.389 62.0662 119.339 61.9146 119.413 61.7629C119.536 61.6112 119.733 61.4848 119.955 61.4342Z" fill="#3D1E1F"/>
<path d="M121.974 61.7889C121.95 61.6372 121.925 61.4097 122.122 61.3844C122.492 61.3086 122.886 61.435 123.157 61.7383C123.28 61.9911 122.96 62.067 122.812 61.9406C122.541 61.7889 122.27 61.7383 121.974 61.7889Z" fill="#3D1E1F"/>
<path d="M121.164 62.5972C121.238 62.5972 121.361 62.5719 121.435 62.5719C121.657 63.2545 121.386 63.937 121.017 64.4932C121.263 64.6196 121.534 64.6701 121.78 64.8218C121.829 65.0494 121.583 65.201 121.386 65.1252C121.066 64.9988 120.647 64.8724 120.573 64.4932C120.622 64.1393 120.943 63.9117 121.041 63.5831C121.164 63.2545 121.017 62.8753 121.164 62.5972Z" fill="#3D1E1F"/>
<path d="M122.197 62.573C122.739 62.396 122.936 63.1291 122.788 63.5336C122.764 63.7864 122.443 63.9128 122.296 63.7106C122.074 63.3819 122.197 62.9522 122.197 62.573Z" fill="#3D1E1F"/>
<path d="M120.055 62.6749C120.178 62.4726 120.474 62.5485 120.547 62.7507C120.621 63.0035 120.646 63.4333 120.35 63.5597C119.932 63.6102 119.784 62.9277 120.055 62.6749Z" fill="#3D1E1F"/>
<path d="M98.2589 64.3405C98.6283 64.113 98.9239 63.7844 99.1209 63.3799C99.1948 63.5063 99.2933 63.6327 99.3672 63.7591C99.1948 64.0624 98.9731 64.3405 98.6776 64.5428C98.1604 64.9473 97.4708 65.0989 97.1014 65.6551C96.732 66.2113 96.732 66.9191 96.7566 67.5764C96.5842 67.6017 96.3133 67.6775 96.338 67.3994C96.2887 66.7169 96.3872 65.9837 96.7566 65.377C97.1014 64.8714 97.7417 64.6439 98.2589 64.3405Z" fill="#3D1E1F"/>
<path d="M61.2449 63.8358C61.6389 63.7094 62.0822 63.7599 62.4516 63.9622C62.5255 64.0633 62.5009 64.2402 62.3777 64.2908C62.033 64.2908 61.6635 64.0886 61.3188 64.2655C61.1217 64.3161 60.9493 64.4678 60.7523 64.4425C60.5307 64.1138 60.9986 63.9116 61.2449 63.8358Z" fill="#3D1E1F"/>
<path d="M63.6842 64.2909C63.9797 64.2151 64.7678 64.3162 64.5215 64.7713C64.2013 64.7207 63.7088 64.7965 63.561 64.4426C63.6103 64.4173 63.6595 64.3415 63.6842 64.2909Z" fill="#3D1E1F"/>
<path d="M62.8449 65.7073C62.8695 65.4545 62.7957 64.8983 63.1651 64.9489C63.3621 65.1006 63.2143 65.3787 63.2389 65.5809C63.1651 66.1118 63.4606 66.5416 63.8054 66.8955C64.0763 67.1736 63.9285 67.6286 63.633 67.8056C63.2882 67.8056 62.9434 67.755 62.5986 67.7044C62.5986 67.6286 62.6233 67.4769 62.6479 67.4011C62.8942 67.2241 63.4852 67.6539 63.4852 67.1988C63.1404 66.8196 62.7957 66.314 62.8449 65.7073Z" fill="#3D1E1F"/>
<path d="M61.6139 65.8838C61.6139 65.631 61.4907 65.2518 61.7616 65.1001C62.131 65.1254 61.934 65.631 62.0079 65.8838C61.8601 65.8838 61.737 65.8838 61.6139 65.8838Z" fill="#3D1E1F"/>
<path d="M63.6329 65.6067C63.6329 65.3792 63.8791 65.455 64.0023 65.455C64.0023 65.7331 63.9776 66.0112 63.9284 66.264C63.5343 66.3398 63.5343 65.8848 63.6329 65.6067Z" fill="#3D1E1F"/>
<path d="M94.5898 67.0729C95.0085 67.4774 95.4025 67.9324 95.8705 68.2863C96.0429 68.438 96.2399 68.5644 96.3384 68.7666C96.363 68.9689 96.1414 69.0447 96.0182 68.9436C95.6242 68.6908 95.2794 68.3622 94.9839 68.0082C94.8854 67.6796 94.7622 67.3762 94.5898 67.0729Z" fill="#3D1E1F"/>
<path d="M121.729 68.6388C122.714 68.3354 123.65 67.8551 124.561 67.3495C123.847 68.5377 122.886 69.5741 121.803 70.4337C121.286 70.8634 120.694 71.2426 120.005 71.3185C120.103 70.5853 120.103 69.8522 120.276 69.1444C120.35 68.9674 120.227 68.8157 120.128 68.6893C120.645 68.9169 121.212 68.7904 121.729 68.6388Z" fill="#3D1E1F"/>
<path d="M125.916 72.3307C126.162 71.8757 126.286 71.3701 126.606 70.9656C126.778 71.0667 126.926 71.1931 127.074 71.3448C126.704 72.811 125.867 74.1509 124.66 75.0357C125.227 75.4907 125.768 76.0216 126.212 76.603C127.394 75.8699 128.453 74.884 129.192 73.6706C129.29 73.6958 129.413 73.7211 129.512 73.7464C129.512 73.8222 129.536 73.9739 129.536 74.0498C129.068 74.6312 128.625 75.2632 128.083 75.7688C127.492 76.2744 126.877 76.78 126.138 77.0581C125.842 77.1845 125.621 76.8811 125.448 76.6789C125.128 76.1986 124.586 75.9458 124.044 75.8194C123.478 77.0834 122.813 78.2968 122.296 79.5608C122.271 79.6114 122.222 79.7378 122.197 79.7883C122.099 79.7378 122.025 79.7125 121.926 79.6619C121.754 79.1563 121.68 78.6507 121.557 78.1451C121.434 77.5131 121.261 76.8811 121.114 76.2491C120.695 76.6536 120.252 77.0328 119.833 77.4373C119.685 77.5384 119.538 77.7659 119.316 77.6901C118.602 76.6789 118.282 75.4402 118.134 74.2267C118.232 74.2014 118.355 74.1762 118.479 74.1509C118.503 74.1003 118.528 73.9739 118.528 73.9234L118.725 74.0245C118.651 74.1003 118.577 74.1509 118.528 74.2267C118.676 75.1115 118.823 75.9963 119.267 76.78C119.784 76.2238 120.252 75.6171 120.72 75.0104C120.079 74.5806 119.587 73.7717 119.685 72.9627L119.956 72.8869C120.104 73.4936 120.276 74.2014 120.843 74.5554C121.828 75.1621 123.182 75.3138 124.192 74.6818C125.005 74.2014 125.448 73.2155 125.916 72.3307ZM121.36 75.3896C121.631 76.5272 121.828 77.7154 122.148 78.8277C122.69 77.7154 123.109 76.5525 123.675 75.4654C122.912 75.6424 122.123 75.6171 121.36 75.3896Z" fill="#3D1E1F"/>
<path d="M36.6415 75.744C36.74 75.8704 36.8139 75.9715 36.9124 76.0979C37.7743 77.1091 38.6609 78.0951 39.7199 78.904C40.4095 79.4349 41.0744 79.9658 41.8132 80.3956C43.0446 81.0781 44.3252 81.6596 45.5566 82.3421C46.1231 82.7466 46.7141 83.1511 47.2559 83.5809C47.4529 83.7073 47.3298 83.9348 47.2313 84.0865C46.8865 84.5921 46.5417 85.0724 46.1723 85.5274C45.9014 85.1988 45.5566 85.0218 45.1379 85.0218C44.3991 86.033 43.6603 87.0695 43.1924 88.2577C42.8968 88.9908 42.6013 89.6987 42.3058 90.4065C41.4438 92.707 41.1729 95.1845 40.4095 97.5355C38.587 97.2069 36.7892 96.6507 35.1146 95.8417C34.4742 95.5384 33.8585 95.1339 33.3167 94.6788C32.3809 93.9204 31.6667 92.9598 31.0756 91.9233C29.9428 89.7745 29.598 87.2212 29.8935 84.7943C30.1152 82.9741 30.8047 81.2045 31.9622 79.8141C33.2675 78.1709 34.8929 76.8563 36.6415 75.744Z" fill="#3D1E1F"/>
<path d="M63.189 76.4004C63.189 76.2234 63.2136 76.0212 63.2136 75.8442C63.6076 76.2487 64.1494 76.451 64.642 76.7038C65.7256 77.2599 66.9077 77.7403 67.7451 78.6756C68.4593 79.3835 68.7794 80.3441 69.3212 81.1531C69.863 82.0126 70.5526 82.7457 71.2422 83.4536C71.316 83.1249 71.3653 82.771 71.4884 82.4676C71.981 82.0632 72.6213 82.2654 73.1877 82.1643C73.5818 82.2148 74.0004 82.2148 74.3945 82.2148C74.4684 82.2148 74.5915 82.2148 74.6654 82.2148C81.4133 82.2148 88.1613 82.2148 94.8846 82.1896C95.057 82.1896 95.2047 82.2148 95.3525 82.2654C95.3032 82.3918 95.2786 82.5182 95.2294 82.6699C87.4471 82.6699 79.6401 82.6699 71.8578 82.6699C70.725 87.8017 69.6167 92.9083 68.4839 98.0402C73.1139 97.9896 77.7192 98.0149 82.3492 97.9391C85.1567 97.9644 87.9642 97.9138 90.7718 97.9138C90.7718 98.0149 90.7718 98.2172 90.7718 98.3183C88.5307 98.3941 86.2649 98.3688 84.0238 98.3688C78.8767 98.4194 73.7295 98.4447 68.5824 98.4447C68.5824 98.7986 68.5824 99.1525 68.5824 99.5065C68.4593 99.5065 68.3361 99.5065 68.1883 99.5065C68.1637 99.1525 68.1637 98.7986 68.1391 98.4447C67.0801 98.47 66.0458 98.47 64.9868 98.47C64.9621 98.8239 64.9375 99.1778 64.9375 99.5317C64.8144 99.5317 64.6666 99.5317 64.5435 99.5317C64.5189 99.0514 64.5435 98.5711 64.5435 98.0908C64.7159 98.0402 64.8636 98.0149 65.036 97.9644C65.1099 97.1301 65.2823 96.3212 65.4301 95.5122C65.5039 95.0066 65.6025 94.501 65.6763 93.9954C65.8487 93.2117 66.0211 92.4027 66.1196 91.6191C66.4891 88.9141 66.8585 86.2344 67.3264 83.5547C67.4003 83.5294 67.548 83.4536 67.6219 83.4283C67.6465 83.5547 67.6712 83.6558 67.6712 83.7822C67.3018 86.3861 66.9077 88.9646 66.5629 91.5685C67.1294 92.4533 67.6219 93.3887 68.1637 94.2987C67.8436 94.6779 67.4742 95.0319 67.351 95.5375C66.957 96.1695 66.1935 96.3717 65.6517 96.852C65.5286 97.2312 65.5286 97.6357 65.4793 98.0402C66.3167 98.0402 67.1786 98.0402 68.016 98.0149C68.2376 97.0543 68.4592 96.0684 68.6563 95.1077C68.9025 94.0712 69.1242 93.0095 69.3458 91.973C69.9369 89.3438 70.5033 86.6894 71.0944 84.035C70.7004 83.5041 70.2078 83.0744 69.7891 82.5688C69.1488 81.8356 68.6316 81.0014 68.1883 80.1166C67.7204 79.2318 67.0062 78.4987 66.1443 77.9931C65.504 77.6138 64.839 77.2852 64.1494 76.9566C63.8785 76.7796 63.5338 76.6026 63.189 76.4004Z" fill="#3D1E1F"/>
<path d="M101.928 76.9574C102.297 76.8563 102.667 76.831 103.011 77.0332C102.839 77.2355 102.667 77.4377 102.494 77.6399C102.297 77.4124 102.1 77.1849 101.928 76.9574Z" fill="#3D1E1F"/>
<path d="M95.2068 80.1669C95.1822 79.5096 95.7732 79.1304 96.2904 78.8776C96.3397 79.2315 96.3397 79.6107 96.4874 79.9393C96.6106 80.0152 96.7583 80.091 96.8815 80.1416C96.315 80.1669 95.7732 80.1921 95.2068 80.1669Z" fill="#3D1E1F"/>
<path d="M134.043 79.9903C134.264 79.6111 134.486 79.1561 134.905 78.9539C135.151 79.0297 135.052 79.2825 134.929 79.4089C134.141 80.3443 133.87 81.583 133.649 82.7712C133.476 83.7065 133.55 84.6924 133.722 85.6278C134.166 87.9283 135.274 90.0013 136.358 92.0237C136.53 92.3018 136.628 92.6304 136.899 92.8074C138.402 92.8074 139.929 92.6051 141.431 92.5799C141.726 92.7315 141.48 93.0855 141.234 93.0096C137.49 93.2371 133.747 93.4647 130.004 93.6416C130.545 94.0967 130.89 94.7287 131.137 95.386C131.358 96.0685 131.678 96.7258 131.801 97.4589C131.925 97.9898 131.974 98.546 131.974 99.0769C132.393 99.0769 132.836 99.0769 133.255 99.0769C132.663 99.1021 132.097 99.1021 131.531 99.0769C131.457 97.914 131.21 96.7258 130.767 95.664C130.496 95.1837 130.348 94.5517 129.831 94.2736C129.413 94.6023 128.945 94.8551 128.452 94.9815C128.452 94.6275 128.452 94.2231 128.698 93.9197C128.895 93.6669 129.117 93.4141 129.388 93.2371C130.398 93.1613 131.407 93.1107 132.393 93.0602C133.722 92.9843 135.028 92.9085 136.358 92.8327C135.397 91.0883 134.486 89.3187 133.796 87.448C133.304 85.9817 133.008 84.3891 133.205 82.8217C133.378 81.8864 133.575 80.8751 134.043 79.9903Z" fill="#3D1E1F"/>
<path d="M105.279 80.7727C105.452 80.7727 105.599 80.7727 105.772 80.7222C106.289 81.5564 106.831 82.3907 107.299 83.2502C107.447 83.5283 106.979 83.6547 106.905 83.4019C106.338 82.5423 105.87 81.6322 105.279 80.7727Z" fill="#3D1E1F"/>
<path d="M111.68 82.3166C111.655 82.1396 111.852 81.9879 112 82.1396C112.098 82.4177 112.024 82.721 112.024 83.0244C111.877 84.5918 111.877 86.1591 111.852 87.7265C111.778 90.6337 111.877 93.5662 112.271 96.4482C112.148 96.4987 112.049 96.5746 111.926 96.6251C111.655 94.9061 111.335 93.2123 111.039 91.5185C110.67 91.5944 110.301 91.6702 109.931 91.7461C110.276 90.7854 110.768 89.8753 111.064 88.9147C111.163 88.8641 111.236 88.7883 111.335 88.7377C111.384 88.4091 111.409 88.1057 111.409 87.7771C111.409 85.9316 111.483 84.1367 111.68 82.3166Z" fill="#3D1E1F"/>
<path d="M114.908 94.6788C115.302 94.5271 115.696 94.3249 116.14 94.249C116.263 94.3501 116.361 94.5777 116.164 94.6535C115.696 94.9063 115.179 95.058 114.662 95.2349C114.835 95.1591 115.032 95.058 115.204 94.9821C115.105 94.881 115.007 94.7799 114.908 94.6788Z" fill="#3D1E1F"/>
<path d="M122.541 96.0435C122.664 96.0435 122.811 96.0435 122.935 96.0435C122.984 96.4227 123.058 96.7766 123.058 97.1558C123.058 97.358 122.688 97.3327 122.688 97.1558C122.59 96.7766 122.59 96.3974 122.541 96.0435Z" fill="#3D1E1F"/>
<path d="M91.5605 99.3805C91.6344 98.9255 91.4128 98.3188 91.8068 97.9901L91.8807 98.0154C92.0777 98.4199 91.93 98.9255 91.9546 99.3805C91.8315 99.3805 91.6837 99.3805 91.5605 99.3805Z" fill="#3D1E1F"/>
<path d="M111.608 99.2548C112.224 98.8756 112.839 98.4459 113.504 98.1425C113.701 98.0161 113.874 98.2689 113.751 98.4459C113.381 98.724 112.913 98.9009 112.544 99.2043C112.224 99.2548 111.903 99.2295 111.608 99.2548Z" fill="#3D1E1F"/>
<path d="M37.8971 57.4627C38.759 57.4374 39.6949 57.3363 40.4091 56.7549C40.3845 56.9824 40.3598 57.2099 40.3598 57.4122C39.9412 57.9178 39.2762 58.0442 38.6605 58.12C38.0695 58.1958 37.4538 58.12 36.8627 58.0189C36.8135 58.0695 36.715 58.1706 36.6411 58.2211C36.2963 58.0947 35.9515 57.9936 35.6313 57.8672C35.7052 57.5133 35.3112 57.2858 35.2373 56.9318C36.0993 57.2858 37.0105 57.4122 37.8971 57.4627Z" fill="#FDDC03"/>
<path d="M39.5977 58.8035C39.9917 58.6518 40.3857 58.5254 40.7305 58.2726C41.1492 59.0563 41.5925 59.8147 42.0112 60.5731C42.4052 61.2809 42.5037 62.0899 42.7007 62.8736C42.947 64.0365 43.2918 65.1488 43.5873 66.2864C43.7351 66.8931 44.0799 67.424 44.3754 67.9549C44.6217 68.3594 44.6956 68.865 44.9172 69.2947C44.6463 69.9014 44.4 70.5082 44.1045 71.0896C43.5627 70.5335 43.1194 69.8509 42.8239 69.1178C42.2821 67.879 42.0604 66.5139 41.4201 65.3257C41.1738 64.896 41.2477 64.3651 41.2231 63.8848C41.2231 63.2275 40.9768 62.5955 40.5581 62.1152C40.3119 61.8118 40.041 61.5337 39.9424 61.1545C39.6962 60.3961 39.6715 59.5871 39.5977 58.8035Z" fill="#FDDC03"/>
<path d="M37.4799 59.4844C37.9232 58.9788 38.6374 59.1305 39.2038 58.8777C39.3023 59.7372 39.3023 60.5967 39.5486 61.4057C39.7456 62.0124 40.3121 62.3916 40.5583 62.9731C40.9524 63.7568 40.583 64.6921 41.0016 65.4758C41.7651 66.9168 41.9867 68.6105 42.7748 70.0515C43.1196 70.6835 43.6121 71.2397 44.1047 71.7453C44.9174 72.3267 45.9025 72.6301 46.8876 72.807C48.2914 72.9334 49.6459 73.3632 51.0004 73.7677C51.5422 73.9447 52.1086 73.793 52.6751 73.7424C53.5617 73.6413 54.4729 73.793 55.3595 74.0205C55.3841 75.1075 55.458 76.2199 55.9013 77.2058C56.3199 78.217 57.0341 79.0765 57.9453 79.658C59.1028 80.3911 60.679 80.3911 61.8365 79.658C62.5261 79.2282 63.1418 78.5962 63.5358 77.8631C63.7082 77.5091 63.9545 77.2058 64.2746 76.9783C64.9396 77.3069 65.6045 77.6355 66.2694 78.0148C67.1314 78.4951 67.8456 79.2282 68.3135 80.1383C68.7568 81.0231 69.274 81.8573 69.9143 82.5905C70.333 83.0961 70.8255 83.5258 71.2196 84.0567C70.6285 86.7111 70.0621 89.3403 69.471 91.9947C69.0277 91.3121 68.8061 90.5284 68.412 89.8206C68.2396 89.4919 68.0673 89.138 68.0426 88.7588C67.9441 87.4442 68.0426 86.1044 68.0426 84.7646C68.0426 84.3095 68.0673 83.8292 68.1165 83.3741C67.9934 83.3994 67.8456 83.4247 67.7225 83.4753C67.6486 83.5005 67.5008 83.5764 67.4269 83.6017C66.959 86.2814 66.5896 88.9863 66.2202 91.666C65.9493 92.1464 65.8262 92.7025 65.6045 93.1828C65.2597 93.9665 64.9149 94.7502 64.5701 95.5339C64.1761 96.3429 63.7821 97.1518 63.4619 97.9861C62.9694 98.0113 62.4276 97.6069 62.5014 97.0507C62.6738 96.3429 63.3388 95.7108 63.0186 94.9272C62.6985 94.2952 61.8857 94.371 61.2947 94.4216C59.226 94.6744 57.2311 95.3569 55.1871 95.812C53.9803 96.1153 52.7489 96.3681 51.5176 96.6209C50.1877 96.9496 48.8578 97.2529 47.5279 97.5057C46.6167 97.6827 45.6808 97.7333 44.7696 97.8344C44.0801 97.9355 43.3166 97.7585 42.8733 97.1771C42.3808 96.5451 42.3561 95.6856 42.4546 94.9019C42.8733 92.3739 44.3263 90.1998 45.1637 87.7982C45.5331 87.0398 45.7794 86.2308 46.2473 85.523C46.6167 85.0679 46.9861 84.5623 47.3063 84.082C47.4048 83.9303 47.5279 83.7028 47.3309 83.5764C46.7645 83.1466 46.198 82.7421 45.6316 82.3377C44.4002 81.6551 43.1196 81.0736 41.8882 80.3911C41.1494 79.9613 40.4598 79.4304 39.7949 78.8996C38.7359 78.0906 37.8493 77.1047 36.9873 76.0935C36.9627 75.5879 36.8396 75.1075 36.7903 74.6019C36.5933 73.0851 36.5687 71.5683 36.4455 70.0515C36.347 68.5853 36.1993 67.1443 36.0269 65.678C35.9284 64.7932 35.8298 63.8832 35.9037 62.9731C35.953 62.2399 36.0022 61.4815 36.3224 60.799C36.544 60.2681 37.0612 59.9142 37.4799 59.4844ZM45.2868 95.5592C45.2129 95.7108 45.4099 95.9131 45.5577 95.8373C45.6809 95.6856 45.4346 95.4328 45.2868 95.5592Z" fill="#FFD801"/>
<path d="M44.4233 71.442C44.7189 70.81 44.9898 70.178 45.2607 69.546C45.8517 69.8999 46.492 70.1275 47.1077 70.4055C47.4525 70.5067 47.7973 70.5572 48.1421 70.6836C49.0041 71.0375 49.9399 71.2651 50.8757 71.3662C51.7377 71.4673 52.5997 71.3156 53.4616 71.442C54.2743 71.5684 55.0871 71.796 55.8998 71.9982C55.6535 72.5038 55.5303 73.0347 55.4318 73.5908C54.5452 73.3633 53.6094 73.2116 52.6736 73.3128C52.1318 73.338 51.5407 73.515 50.9989 73.3128C49.9153 72.9841 48.807 72.6555 47.6988 72.4785C46.5659 72.3521 45.3838 72.0993 44.4233 71.442Z" fill="#FDDC03"/>
<path d="M127.074 71.3424C127.69 71.8733 128.157 72.6064 128.724 73.1626C128.872 73.3143 129.019 73.4912 129.167 73.6682C128.428 74.8816 127.369 75.8675 126.187 76.6007C125.744 76.0192 125.227 75.4884 124.636 75.0333C125.867 74.1485 126.704 72.8087 127.074 71.3424Z" fill="#FDDC03"/>
<path d="M56.22 72.0742C56.4663 72.1501 56.7125 72.2765 56.9588 72.4029C56.8849 72.8832 56.8111 73.3888 56.7372 73.8691C56.4416 73.8185 56.1461 73.7427 55.8506 73.6921C55.9491 73.136 56.0969 72.6051 56.22 72.0742Z" fill="#FDDC03"/>
<path d="M118.699 74.071C119.019 73.7424 119.364 73.4137 119.635 73.0345C119.536 73.8435 120.029 74.6525 120.669 75.0822C120.201 75.689 119.733 76.2957 119.216 76.8518C118.797 76.0682 118.625 75.1834 118.477 74.2986C118.576 74.1974 118.625 74.1469 118.699 74.071ZM118.822 74.5261C118.699 74.5261 118.6 74.8041 118.773 74.8294C118.896 74.8041 118.994 74.5261 118.822 74.5261Z" fill="#FDDC03"/>
<path d="M56.6637 77.7623C56.0234 76.7005 55.7033 75.3859 55.851 74.1472C56.1219 74.1978 56.3928 74.2483 56.6637 74.2989C56.5652 74.8551 56.8608 75.3607 57.107 75.841C57.6242 76.9027 58.5847 77.6359 59.5698 78.2173C60.284 78.6471 61.1952 78.6724 61.9587 78.3437C62.3034 78.2426 62.6482 78.0909 62.993 77.8887C62.3281 78.9504 61.1706 79.7594 59.8899 79.7594C58.5354 79.81 57.3287 78.8999 56.6637 77.7623Z" fill="#FDDC03"/>
<path d="M117.148 74.4279C117.444 74.3015 117.789 74.3268 118.109 74.2762C118.256 75.4897 118.552 76.7284 119.291 77.7396C119.512 77.8155 119.66 77.5879 119.808 77.4868C120.399 77.7143 120.941 78.043 121.532 78.1694C121.655 78.675 121.729 79.2059 121.901 79.6862C122 79.7368 122.074 79.7873 122.172 79.8126C122.197 79.762 122.246 79.6356 122.271 79.5851C123.059 79.307 123.576 78.5991 124.167 78.0177C124.586 77.5879 125.029 77.1582 125.423 76.7031C125.595 76.9054 125.817 77.2087 126.113 77.0823C126.851 76.8043 127.467 76.2987 128.058 75.7931C129.043 75.8942 129.979 75.5908 130.94 75.4139C131.555 75.2622 132.196 75.2874 132.762 75.0094C133.969 75.5655 135.225 76.0206 136.456 76.5262C136.629 76.602 136.826 76.6779 136.998 76.779C138.229 77.3857 139.387 78.2452 140.175 79.3828C140.446 79.8379 140.643 80.3182 140.938 80.7732C141.16 81.1019 141.431 81.4305 141.603 81.8097C142.244 83.099 142.81 84.4136 143.45 85.7029C143.894 86.7394 144.362 87.7758 144.83 88.787C145.741 90.5314 147.021 92.0735 147.686 93.9695C148.105 95.0565 148.327 96.1941 148.351 97.357C147.539 97.1548 146.701 97.3065 145.888 97.2812C143.303 97.2812 140.692 97.4076 138.106 97.4076C136.013 97.4581 133.92 97.5593 131.802 97.4834C131.654 96.7756 131.358 96.093 131.137 95.4104C130.89 94.7532 130.546 94.1212 130.004 93.6661C133.747 93.4639 137.491 93.2363 141.234 93.0341C141.505 93.1099 141.751 92.7308 141.431 92.6044C139.929 92.6296 138.402 92.8066 136.899 92.8319C136.629 92.6549 136.505 92.3263 136.358 92.0482C135.299 90.0005 134.166 87.9275 133.722 85.6523C133.55 84.7169 133.476 83.7563 133.649 82.7956C133.846 81.6075 134.141 80.3688 134.929 79.4334C135.077 79.307 135.176 79.0289 134.905 78.9784C134.486 79.1806 134.264 79.6356 134.043 80.0148C133.575 80.8996 133.378 81.9108 133.181 82.8715C132.811 83.4024 132.713 84.0597 132.491 84.6917C131.851 86.7394 131.678 88.9134 131.9 91.0117C131.974 91.7195 132.196 92.4021 132.368 93.11C131.358 93.1858 130.349 93.2111 129.363 93.2869C129.093 93.4639 128.896 93.7167 128.674 93.9695C128.428 94.2728 128.452 94.6773 128.428 95.0312C126.63 95.5116 124.807 95.8908 122.96 96.0172C122.837 96.0172 122.689 96.0172 122.566 96.0172C121.68 95.638 120.719 95.4357 119.833 95.0565C119.143 94.829 118.601 94.2981 117.912 94.0453C116.927 93.6408 115.966 93.2111 114.981 92.8824C114.612 92.7813 114.193 92.6549 113.823 92.8066C113.503 92.9835 113.602 93.4639 113.848 93.6914C114.193 94.02 114.612 94.2728 114.932 94.6773C115.03 94.7784 115.129 94.8796 115.203 94.9807C115.03 95.0565 114.833 95.1324 114.661 95.2335C113.848 95.6127 113.085 96.0425 112.297 96.4217C111.878 93.5397 111.804 90.6072 111.878 87.7C111.903 86.1326 111.903 84.5653 112.05 82.9979C112.05 82.7198 112.124 82.3912 112.026 82.1131C111.903 81.9867 111.681 82.1131 111.706 82.29C111.508 84.0849 111.435 85.9051 111.459 87.7253C110.523 88.0286 109.686 88.6101 108.75 88.964C107.076 89.6466 105.499 90.5819 103.726 90.9864C102.963 91.1887 102.175 91.4667 101.387 91.2139C100.672 91.037 100.303 90.3291 99.8843 89.7983C99.7858 89.6213 99.5888 89.5455 99.3918 89.4696H99.3671C98.8007 88.2562 98.2096 87.0427 97.7417 85.7534C97.1999 84.2366 96.6088 82.7198 96.0917 81.1777C96.0178 80.8996 95.7469 80.8238 95.5499 80.6721C95.3775 80.5457 95.3036 80.3435 95.2051 80.1665C95.7715 80.1918 96.3133 80.1665 96.8797 80.1665C97.7417 80.1918 98.6283 80.0148 99.4164 79.6609C100.549 79.2059 101.731 78.6244 102.495 77.6385C102.667 77.4363 102.84 77.234 103.012 77.0318L103.037 77.0065C103.234 77.2087 103.406 77.4363 103.529 77.6891C103.923 78.498 104.465 79.2312 104.834 80.0654C104.958 80.3182 105.105 80.571 105.278 80.7985C105.844 81.658 106.337 82.5681 106.903 83.4277C106.977 83.7057 107.42 83.5541 107.297 83.276C106.829 82.4165 106.287 81.5822 105.77 80.748C107.199 79.484 108.996 78.8014 110.647 77.866C112.026 76.8295 113.454 75.8183 115.03 75.1105C115.72 74.7818 116.459 74.7313 117.148 74.4279ZM111.09 82.3406C111.09 81.6833 111.262 81.0513 111.213 80.394C111.139 81.0513 110.967 81.7086 111.09 82.3406Z" fill="#FFD801"/>
<path d="M121.358 75.3862C122.097 75.6138 122.91 75.639 123.673 75.4621C123.107 76.5491 122.688 77.712 122.146 78.8243C121.826 77.6867 121.654 76.5238 121.358 75.3862Z" fill="#FDDC03"/>
<path d="M64.668 76.7014C65.062 76.3222 65.456 75.9177 65.9486 75.6649C66.8598 76.0188 67.6971 76.4992 68.5591 76.9542C69.3718 77.384 70.1106 77.9149 70.7263 78.5974C71.2928 79.103 71.9085 79.5833 72.4256 80.1648C73.0167 80.8221 73.6078 81.4793 74.2727 82.0608C74.322 82.1114 74.3958 82.1872 74.4451 82.2125C74.051 82.2125 73.6324 82.2125 73.2383 82.1619C72.6719 82.263 72.007 82.0608 71.539 82.4653C71.4159 82.7686 71.3667 83.1226 71.2928 83.4512C70.5786 82.7434 69.889 82.0102 69.3718 81.1507C68.8054 80.3417 68.5099 79.3558 67.7957 78.6733C66.9337 77.7379 65.7516 77.2576 64.668 76.7014Z" fill="#FDDC03"/>
<path d="M65.1851 95.2066C65.2343 94.7768 65.4313 94.3723 65.7022 94.0437C65.6284 94.5493 65.5545 95.0549 65.456 95.5605C65.3821 95.4341 65.2836 95.3077 65.1851 95.2066Z" fill="#FDDC03"/>
<path d="M55.4819 99.6048C55.7282 99.529 55.9745 99.4531 56.2208 99.4531C57.4768 99.4531 58.7574 99.4026 60.0134 99.4279C60.2843 99.4279 60.5552 99.5037 60.8261 99.5543C59.0283 99.6048 57.2551 99.5795 55.4819 99.6048Z" fill="#FDDC03"/>
<path d="M35.6538 57.8711C35.9986 57.9975 36.3434 58.0986 36.6636 58.225C36.7621 58.3261 36.8606 58.4778 37.0084 58.5031C37.6979 58.6548 38.4368 58.6295 39.151 58.5284C39.151 58.6295 39.1756 58.8065 39.2002 58.8823C38.6338 59.1351 37.9196 58.9834 37.4763 59.489C37.0576 59.9188 36.5404 60.298 36.2449 60.8289C35.9247 61.4862 35.8755 62.2698 35.8262 63.003C35.7524 63.913 35.8755 64.7979 35.9494 65.7079C36.1218 67.1489 36.2695 68.6152 36.368 70.0814C36.4912 71.5982 36.5158 73.115 36.7128 74.6318C36.7621 75.1374 36.8852 75.6178 36.9098 76.1234C36.8113 75.997 36.7128 75.8958 36.6389 75.7694C36.4419 75.4914 36.2942 75.2133 36.2203 74.8846C35.8509 73.4184 35.5307 71.9016 35.2352 70.41C35.0628 69.7022 35.0874 68.9438 34.8904 68.236C34.7673 67.7051 34.7673 67.1489 34.718 66.5927C34.718 66.4411 34.6934 66.2894 34.6934 66.163C34.5949 64.2923 34.3978 62.4215 34.7919 60.5761C34.9643 59.6154 35.4322 58.8065 35.6538 57.8711Z" fill="#FDB301"/>
<path d="M39.5459 58.4281C39.8661 58.3017 40.1616 58.1753 40.4571 57.9731C40.5064 57.9478 40.5803 57.9225 40.6049 57.8972C40.6295 57.9983 40.7034 58.1753 40.728 58.2764C40.3832 58.5292 39.9892 58.6809 39.5952 58.8073C39.5705 58.6809 39.5459 58.5545 39.5459 58.4281Z" fill="#FDB301"/>
<path d="M55.4053 73.5941C55.5038 73.0632 55.6269 72.5071 55.8732 72.0015C55.9717 72.0267 56.1441 72.0773 56.218 72.1026C56.0702 72.6335 55.9471 73.1643 55.8486 73.6952C55.7008 73.6447 55.553 73.6194 55.4053 73.5941Z" fill="#FDB301"/>
<path d="M129.51 74.0763C129.682 74.0004 129.904 73.8235 130.101 73.9246C130.47 74.0763 130.84 74.228 131.209 74.3796C131.726 74.5819 132.243 74.7841 132.761 75.0116C132.194 75.2897 131.529 75.2644 130.938 75.4161C129.978 75.5931 129.042 75.8712 128.057 75.7953C128.598 75.2897 129.042 74.683 129.51 74.0763Z" fill="#FDB301"/>
<path d="M55.3311 74.0244C55.5034 74.075 55.6758 74.1003 55.8482 74.1508C55.7005 75.4148 56.0453 76.7041 56.6609 77.7659C57.3259 78.9035 58.5326 79.8136 59.8625 79.763C61.1431 79.763 62.3006 78.9793 62.9656 77.8923C62.6454 78.0692 62.3006 78.2209 61.9312 78.3473C62.276 78.044 62.6208 77.7659 62.941 77.412C63.1872 77.1339 63.1626 76.7547 63.1872 76.4007C63.532 76.603 63.8768 76.78 64.2216 76.9569C63.9261 77.2097 63.6552 77.4878 63.4828 77.8417C63.0887 78.6001 62.4977 79.2068 61.7835 79.6366C60.626 80.3697 59.0498 80.3697 57.8923 79.6366C56.9811 79.0552 56.2669 78.1956 55.8482 77.1844C55.4296 76.2238 55.3557 75.1115 55.3311 74.0244Z" fill="#FDB301"/>
<path d="M118.822 74.5297C118.995 74.5297 118.896 74.8077 118.773 74.833C118.6 74.8077 118.699 74.5297 118.822 74.5297Z" fill="#FDB301"/>
<path d="M63.3358 74.632C64.1731 75.0364 65.0844 75.3398 65.9463 75.6684C65.4538 75.9212 65.0844 76.3257 64.6657 76.7049C64.1732 76.4521 63.6313 76.2499 63.2373 75.8454C63.2619 75.4409 63.3112 75.0364 63.3358 74.632Z" fill="#FDB301"/>
<path d="M122.269 79.6124C122.786 78.3232 123.426 77.1097 124.017 75.871C124.559 75.9974 125.101 76.2502 125.421 76.7305C125.027 77.1855 124.584 77.6153 124.165 78.0451C123.574 78.6265 123.057 79.3344 122.269 79.6124Z" fill="#FDB301"/>
<path d="M121.088 76.326C121.236 76.9581 121.408 77.5648 121.532 78.2221C120.916 78.0704 120.374 77.7417 119.808 77.5395C120.226 77.1097 120.67 76.7305 121.088 76.326Z" fill="#FDB301"/>
<path d="M111.089 82.3426C110.965 81.6853 111.138 81.0533 111.212 80.396C111.261 81.0533 111.089 81.7106 111.089 82.3426Z" fill="#FDB301"/>
<path d="M132.489 84.6681C132.71 84.0614 132.809 83.4041 133.178 82.8479C132.981 84.4153 133.277 85.9826 133.769 87.4742C134.459 89.3449 135.345 91.1398 136.33 92.8588C135.001 92.9347 133.695 93.0105 132.365 93.0864C132.193 92.3785 131.971 91.696 131.898 90.9881C131.651 88.8899 131.848 86.7158 132.489 84.6681Z" fill="#FDB301"/>
<path d="M67.6452 83.4562C67.7683 83.4057 67.9161 83.3804 68.0392 83.3551C68.0146 83.8101 67.9654 84.2652 67.9654 84.7455C67.9654 86.0854 67.8915 87.3999 67.9654 88.7398C67.99 89.119 68.1377 89.4729 68.3348 89.8015C68.7288 90.5094 68.9505 91.2931 69.3937 91.9756C69.1721 93.0374 68.9258 94.0739 68.7042 95.1104C68.5318 94.8323 68.3594 94.5795 68.2116 94.3014C67.6698 93.3913 67.1526 92.4812 66.6108 91.5711C66.9556 88.9673 67.3497 86.3887 67.7191 83.7849C67.7191 83.6837 67.6944 83.5573 67.6452 83.4562Z" fill="#FDB301"/>
<path d="M45.1371 84.9972C45.5558 84.9972 45.9006 85.1994 46.1715 85.5028C45.7036 86.2106 45.4573 87.0196 45.0879 87.778C44.2505 90.1796 42.8222 92.3537 42.3789 94.8817C42.2557 95.6654 42.2803 96.5249 42.7975 97.1569C43.2162 97.7384 44.0043 97.9153 44.6938 97.8142C45.6051 97.6878 46.5409 97.6625 47.4521 97.4856C48.782 97.2075 50.1365 96.9294 51.4418 96.6008C52.6732 96.348 53.8799 96.1205 55.1113 95.7918C57.1554 95.3368 59.1502 94.6795 61.2189 94.4014C61.81 94.3508 62.6227 94.275 62.9428 94.907C63.263 95.6654 62.598 96.3227 62.4257 97.0305C62.3518 97.5867 62.8936 97.9912 63.3861 97.9659C63.7063 97.1317 64.1003 96.3227 64.4944 95.5137C64.8391 94.73 65.1839 93.9464 65.5287 93.1627C65.7504 92.6571 65.8735 92.1262 66.1444 91.6459C66.0459 92.4548 65.8735 93.2385 65.7011 94.0222C65.4302 94.3508 65.2086 94.7553 65.1839 95.1851C65.2824 95.3115 65.3563 95.4126 65.4795 95.5137C65.3317 96.3227 65.1839 97.1569 65.0854 97.9659C64.913 97.9912 64.7653 98.0417 64.5929 98.0923C64.5929 98.5726 64.5682 99.053 64.5929 99.5333C63.3369 99.508 62.0809 99.5586 60.8249 99.5586C60.554 99.4827 60.2831 99.4322 60.0122 99.4322C58.7561 99.4069 57.4755 99.4574 56.2195 99.4574C55.9732 99.4574 55.727 99.5333 55.4807 99.6091C52.8455 99.6597 50.2104 99.6597 47.5506 99.6597C45.1864 99.7102 42.8222 99.685 40.4579 99.7355C40.2609 99.7355 40.0392 99.7355 39.8422 99.6344L39.793 99.6091C39.9407 98.9013 40.187 98.244 40.384 97.5361C41.1475 95.2104 41.443 92.7329 42.2803 90.4071C42.5759 89.674 42.8714 88.9662 43.1669 88.2583C43.6595 87.0449 44.3737 86.0084 45.1371 84.9972Z" fill="#FDB301"/>
<path d="M108.724 88.9906C109.66 88.6366 110.497 88.0552 111.433 87.7518C111.433 88.0805 111.383 88.3838 111.359 88.7125C111.26 88.763 111.186 88.8136 111.088 88.8894C110.792 89.8754 110.3 90.7602 109.955 91.7208C108.699 91.9989 107.418 92.2517 106.138 92.4792C105.177 92.6309 104.217 92.9595 103.232 92.8837C102.616 92.8837 102 92.7573 101.483 92.4287C101.335 92.3275 101.163 92.2264 101.04 92.1C100.252 91.4175 99.8085 90.4063 99.3652 89.4709C99.5376 89.5467 99.7346 89.6226 99.8578 89.7995C100.276 90.3304 100.646 91.0383 101.36 91.2152C102.148 91.4427 102.936 91.1647 103.7 90.9877C105.473 90.6085 107.049 89.6731 108.724 88.9906Z" fill="#FDB301"/>
<path d="M138.105 97.4104C140.691 97.4104 143.302 97.284 145.888 97.284C146.7 97.284 147.538 97.1576 148.35 97.3598C148.326 97.6379 148.301 97.916 148.277 98.1941C148.104 98.4722 147.981 98.7503 147.833 99.0536C142.982 99.0789 138.105 99.1042 133.254 99.1295C132.835 99.1042 132.392 99.1042 131.973 99.1295C131.973 98.5733 131.924 98.0424 131.801 97.5115C133.894 97.5874 135.987 97.461 138.105 97.4104Z" fill="#FDB301"/>
<path d="M24.0311 66.0843C24.1296 66.0337 24.3759 66.0843 24.302 66.2612C24.2035 66.4635 23.7356 66.2359 24.0311 66.0843Z" fill="#9966B4"/>
<path d="M90.8205 97.8872C91.1406 97.8872 91.4854 97.8872 91.8056 97.963C91.4115 98.2917 91.6578 98.8984 91.5593 99.3535C88.0129 99.404 84.4912 99.3787 80.9448 99.4293C78.8022 99.4799 76.6596 99.3535 74.4924 99.4546C72.5222 99.4546 70.5766 99.5051 68.6064 99.4799C68.6064 99.1259 68.6064 98.772 68.6064 98.4181C73.7536 98.3928 78.9007 98.3675 84.0479 98.3422C86.289 98.3422 88.5547 98.3423 90.7958 98.2917C90.7958 98.2159 90.8205 98.0136 90.8205 97.8872Z" fill="#9966B4"/>
<path d="M64.9854 99.5536C65.01 99.1997 65.01 98.8458 65.0346 98.4918C66.0936 98.4918 67.1279 98.5171 68.1869 98.4666C68.2116 98.8205 68.2116 99.1744 68.2362 99.5283C67.1526 99.5283 66.069 99.503 64.9854 99.5536Z" fill="#9966B4"/>
<path d="M146.996 74.3021C146.996 74.3021 146.676 81.5575 150.665 85.3243C150.69 85.3243 148.892 75.2628 146.996 74.3021Z" fill="#848484"/>
<path d="M146.996 74.3028C149.557 77.5133 148.104 82.1143 150.665 85.3249C153.448 84.339 156.256 83.353 159.038 82.3671C156.477 79.1565 157.93 74.5555 155.369 71.345C152.586 72.3562 149.803 73.3421 146.996 74.3028ZM153.793 80.9767C152.758 81.3306 151.749 81.7098 150.714 82.0638C150.69 81.9626 150.665 81.8362 150.64 81.7351C151.675 81.3812 152.685 81.002 153.719 80.6481C153.719 80.7745 153.744 80.8756 153.793 80.9767ZM156.28 78.9037C154.335 79.5863 152.389 80.2689 150.468 80.9514C150.443 80.8503 150.419 80.7239 150.419 80.6228C152.364 79.9402 154.31 79.2577 156.231 78.5751C156.256 78.6762 156.256 78.8026 156.28 78.9037ZM156.108 77.7661C154.162 78.4487 152.217 79.1313 150.296 79.8138C150.271 79.7127 150.271 79.5863 150.246 79.4852C152.192 78.8026 154.138 78.1201 156.059 77.4375C156.083 77.5386 156.083 77.665 156.108 77.7661ZM155.935 76.6285C153.99 77.3111 152.044 77.9936 150.123 78.6762C150.099 78.5751 150.099 78.4487 150.074 78.3476C152.02 77.665 153.965 76.9824 155.886 76.2999C155.911 76.4263 155.935 76.5274 155.935 76.6285ZM155.763 75.5162C153.817 76.1988 151.872 76.8813 149.951 77.5639C149.926 77.4628 149.902 77.3364 149.877 77.2352C151.823 76.5527 153.768 75.8701 155.689 75.1876C155.714 75.2887 155.738 75.3898 155.763 75.5162ZM155.492 74.4039C153.547 75.0864 151.601 75.769 149.68 76.4516C149.655 76.3504 149.606 76.224 149.581 76.1229C151.527 75.4404 153.473 74.7578 155.394 74.0752C155.418 74.2016 155.467 74.3027 155.492 74.4039ZM155.123 73.3421C153.177 74.0247 151.232 74.7072 149.311 75.3898C149.261 75.2887 149.212 75.1875 149.163 75.0864C151.108 74.4039 153.054 73.7213 154.975 73.0387C155.024 73.1399 155.073 73.241 155.123 73.3421Z" fill="#D2D2D2"/>
<path d="M60.8115 82.8442L61.9545 82.9468L63.0046 86.0907L61.8418 85.9864L60.8115 82.8442Z" fill="#212221"/>
<path d="M62.492 84.1154L63.0868 83.105C63.1981 83.178 63.3286 83.214 63.4606 83.2082C63.738 83.2231 63.8687 83.1528 64.1958 83.1648C64.39 83.1713 64.5827 83.202 64.7697 83.2561L64.1676 84.2956C64.038 84.2188 63.8911 84.1782 63.7414 84.1777C63.4474 84.1592 63.3376 84.2547 63.0289 84.2381C62.8444 84.2286 62.6629 84.1871 62.4919 84.1154" fill="#212221"/>
<path d="M127.059 81.3264L128.202 81.429L129.252 84.5729L128.089 84.4686L127.059 81.3264Z" fill="#212221"/>
<path d="M128.74 82.5975L129.334 81.5872C129.446 81.6602 129.576 81.6962 129.708 81.6904C129.986 81.7053 130.116 81.635 130.443 81.6469C130.638 81.6535 130.83 81.6842 131.017 81.7382L130.415 82.7778C130.286 82.701 130.139 82.6604 129.989 82.6599C129.695 82.6414 129.585 82.7368 129.276 82.7203C129.092 82.7108 128.91 82.6693 128.739 82.5976" fill="#212221"/>
</svg>
