<svg width="156" height="112" viewBox="0 0 156 112" fill="none" xmlns="http://www.w3.org/2000/svg">
<path d="M140.234 106.567H129.983V106.644H140.234V106.567Z" fill="#EBEBEB"/>
<path d="M103.503 107.407H100.814V107.485H103.503V107.407Z" fill="#EBEBEB"/>
<path d="M129.674 103.695H123.735V103.773H129.674V103.695Z" fill="#EBEBEB"/>
<path d="M30.5969 104.214H17.23V104.292H30.5969V104.214Z" fill="#EBEBEB"/>
<path d="M35.3131 104.214H33.354V104.292H35.3131V104.214Z" fill="#EBEBEB"/>
<path d="M70.6753 105.521H41.6821V105.598H70.6753V105.521Z" fill="#EBEBEB"/>
<path d="M74.3432 87.7834H14.5865C14.1178 87.7834 13.6684 87.5973 13.3369 87.2658C13.0055 86.9344 12.8193 86.4849 12.8193 86.0162V2.01088C12.8234 1.54488 13.0114 1.09935 13.3424 0.771273C13.6733 0.443198 14.1205 0.259137 14.5865 0.259155H74.3432C74.8119 0.259155 75.2614 0.445342 75.5928 0.776756C75.9242 1.10817 76.1104 1.55766 76.1104 2.02635V86.0162C76.1104 86.4849 75.9242 86.9344 75.5928 87.2658C75.2614 87.5973 74.8119 87.7834 74.3432 87.7834ZM14.5865 0.321054C14.1386 0.321872 13.7093 0.500169 13.3926 0.816895C13.0758 1.13362 12.8975 1.56296 12.8967 2.01088V86.0162C12.8975 86.4641 13.0758 86.8935 13.3926 87.2102C13.7093 87.5269 14.1386 87.7052 14.5865 87.7061H74.3432C74.7911 87.7052 75.2205 87.5269 75.5372 87.2102C75.8539 86.8935 76.0322 86.4641 76.033 86.0162V2.01088C76.0322 1.56296 75.8539 1.13362 75.5372 0.816895C75.2205 0.500169 74.7911 0.321872 74.3432 0.321054H14.5865Z" fill="#EBEBEB"/>
<path d="M141.289 87.7834H81.5265C81.058 87.7826 80.609 87.5962 80.2778 87.2649C79.9465 86.9337 79.7601 86.4847 79.7593 86.0162V2.01088C79.7642 1.54513 79.9524 1.10007 80.2832 0.772167C80.614 0.444265 81.0607 0.259944 81.5265 0.259155H141.289C141.754 0.260766 142.2 0.445546 142.53 0.773446C142.859 1.10135 143.046 1.54595 143.05 2.01088V86.0162C143.05 86.4838 142.865 86.9324 142.535 87.2636C142.205 87.5949 141.757 87.7818 141.289 87.7834ZM81.5265 0.321054C81.0786 0.321872 80.6492 0.500169 80.3325 0.816895C80.0158 1.13362 79.8375 1.56296 79.8367 2.01088V86.0162C79.8375 86.4641 80.0158 86.8935 80.3325 87.2102C80.6492 87.5269 81.0786 87.7052 81.5265 87.7061H141.289C141.737 87.7052 142.167 87.5269 142.483 87.2102C142.8 86.8935 142.978 86.4641 142.979 86.0162V2.01088C142.978 1.56296 142.8 1.13362 142.483 0.816895C142.167 0.500169 141.737 0.321872 141.289 0.321054H81.5265Z" fill="#EBEBEB"/>
<path d="M155.74 101.586H0.993652V101.664H155.74V101.586Z" fill="#EBEBEB"/>
<path d="M95.042 15.3033H94.4849V58.7467H95.042V15.3033Z" fill="#E0E0E0"/>
<path d="M129.721 15.3033H129.164V58.7467H129.721V15.3033Z" fill="#E0E0E0"/>
<path d="M131.902 18.0346H92.3029L91.4673 16.0848H132.738L131.902 18.0346Z" fill="#EBEBEB"/>
<path d="M131.902 20.7144H92.3029L91.4673 18.7646H132.738L131.902 20.7144Z" fill="#EBEBEB"/>
<path d="M131.902 23.3904H92.3029L91.4673 21.4406H132.738L131.902 23.3904Z" fill="#EBEBEB"/>
<path d="M131.902 26.0651H92.3029L91.4673 24.1184H132.738L131.902 26.0651Z" fill="#EBEBEB"/>
<path d="M131.902 28.741H92.3029L91.4673 26.7943H132.738L131.902 28.741Z" fill="#EBEBEB"/>
<path d="M131.902 31.4182H92.3029L91.4673 29.4684H132.738L131.902 31.4182Z" fill="#EBEBEB"/>
<path d="M131.902 34.096H92.3029L91.4673 32.1462H132.738L131.902 34.096Z" fill="#EBEBEB"/>
<path d="M131.902 36.7719H92.3029L91.4673 34.8221H132.738L131.902 36.7719Z" fill="#EBEBEB"/>
<path d="M131.902 39.4498H92.3029L91.4673 37.5H132.738L131.902 39.4498Z" fill="#EBEBEB"/>
<path d="M131.902 42.1257H92.3029L91.4673 40.1759H132.738L131.902 42.1257Z" fill="#EBEBEB"/>
<path d="M131.902 44.8055H92.3029L91.4673 42.8557H132.738L131.902 44.8055Z" fill="#EBEBEB"/>
<path d="M131.902 47.4814H92.3029L91.4673 45.5316H132.738L131.902 47.4814Z" fill="#EBEBEB"/>
<path d="M131.902 50.1593H92.3029L91.4673 48.2095H132.738L131.902 50.1593Z" fill="#EBEBEB"/>
<path d="M131.902 52.8352H92.3029L91.4673 50.8854H132.738L131.902 52.8352Z" fill="#EBEBEB"/>
<path d="M131.902 55.513H92.3029L91.4673 53.5632H132.738L131.902 55.513Z" fill="#EBEBEB"/>
<path d="M131.902 58.1889H92.3029L91.4673 56.2391H132.738L131.902 58.1889Z" fill="#EBEBEB"/>
<path d="M132.738 58.191H91.4673V59.3052H132.738V58.191Z" fill="#E0E0E0"/>
<path d="M134.177 13.6445H90.0283V16.2443H134.177V13.6445Z" fill="#E0E0E0"/>
<path d="M90.4831 39.8171C90.4239 39.8176 90.3652 39.8063 90.3104 39.7839C90.2556 39.7615 90.2058 39.7285 90.1638 39.6868C90.1218 39.6451 90.0885 39.5955 90.0657 39.5408C90.043 39.4862 90.0312 39.4276 90.0313 39.3684V24.2033C90.0312 24.1441 90.043 24.0855 90.0657 24.0308C90.0885 23.9762 90.1218 23.9266 90.1638 23.8849C90.2058 23.8432 90.2556 23.8102 90.3104 23.7878C90.3652 23.7654 90.4239 23.7541 90.4831 23.7545C90.6021 23.7545 90.7163 23.8018 90.8004 23.886C90.8846 23.9701 90.9319 24.0843 90.9319 24.2033V39.3684C90.9319 39.4874 90.8846 39.6015 90.8004 39.6857C90.7163 39.7699 90.6021 39.8171 90.4831 39.8171Z" fill="#E0E0E0"/>
<path d="M90.6443 15.7209H90.3193V24.7272H90.6443V15.7209Z" fill="#E0E0E0"/>
<path d="M21.352 6.3197H67.5777C68.1055 6.3197 68.6119 6.52874 68.986 6.90109C69.3601 7.27345 69.5715 7.77882 69.5739 8.30664V18.8974H19.3589V8.30664C19.3613 7.77935 19.5723 7.27446 19.9457 6.90219C20.3192 6.52992 20.8247 6.32051 21.352 6.3197Z" fill="#F5F5F5"/>
<path d="M19.3586 19.7568H69.5736V21.5705C69.5736 22.0999 69.3633 22.6076 68.9889 22.982C68.6146 23.3564 68.1068 23.5667 67.5774 23.5667H21.3517C20.8223 23.5667 20.3145 23.3564 19.9401 22.982C19.5658 22.6076 19.3555 22.0999 19.3555 21.5705V19.7568H19.3586Z" fill="#F0F0F0"/>
<path d="M26.6103 14.679H22.036C21.6429 14.679 21.3242 14.9977 21.3242 15.3908V16.5235C21.3242 16.9167 21.6429 17.2354 22.036 17.2354H26.6103C27.0035 17.2354 27.3222 16.9167 27.3222 16.5235V15.3908C27.3222 14.9977 27.0035 14.679 26.6103 14.679Z" fill="#E0E0E0"/>
<path d="M66.8285 14.679H65.4018C65.0086 14.679 64.6899 14.9977 64.6899 15.3908V16.5235C64.6899 16.9167 65.0086 17.2354 65.4018 17.2354H66.8285C67.2217 17.2354 67.5404 16.9167 67.5404 16.5235V15.3908C67.5404 14.9977 67.2217 14.679 66.8285 14.679Z" fill="#E0E0E0"/>
<path d="M68.3297 20.8771H20.439L21.2251 20.481H67.5436L68.3297 20.8771Z" fill="#E0E0E0"/>
<path d="M68.3297 21.8616H20.439L21.2251 21.4655H67.5436L68.3297 21.8616Z" fill="#E0E0E0"/>
<path d="M68.3297 22.8462H20.439L21.2251 22.4501H67.5436L68.3297 22.8462Z" fill="#E0E0E0"/>
<path d="M37.4917 85.2496H22.3483C21.9133 85.2496 21.4961 85.0768 21.1884 84.7692C20.8808 84.4616 20.708 84.0444 20.708 83.6093C20.7076 83.3937 20.7497 83.18 20.832 82.9807C20.9142 82.7813 21.035 82.6001 21.1873 82.4475C21.3397 82.2948 21.5207 82.1737 21.7199 82.0911C21.9191 82.0085 22.1326 81.9659 22.3483 81.9659H37.4887C37.9245 81.9659 38.3425 82.1391 38.6507 82.4473C38.9589 82.7555 39.1321 83.1735 39.1321 83.6093C39.1321 84.0444 38.9592 84.4616 38.6516 84.7692C38.344 85.0768 37.9268 85.2496 37.4917 85.2496Z" fill="#EBEBEB"/>
<path d="M19.6808 76.3937L18.8637 64.7104C18.8339 64.2758 18.9779 63.8472 19.264 63.5188C19.5501 63.1903 19.9549 62.9888 20.3895 62.9587C20.8236 62.9289 21.2517 63.0725 21.5801 63.3579C21.9085 63.6434 22.1103 64.0474 22.1412 64.4814L22.9676 76.1647C22.9982 76.5993 22.855 77.0283 22.5695 77.3573C22.2839 77.6864 21.8794 77.8886 21.4449 77.9195C21.2288 77.9355 21.0116 77.9087 20.8059 77.8407C20.6002 77.7726 20.41 77.6646 20.2461 77.5229C20.0822 77.3811 19.9479 77.2084 19.8509 77.0146C19.7539 76.8209 19.6961 76.6099 19.6808 76.3937Z" fill="#EBEBEB"/>
<path d="M28.8481 86.1618H21.1758C20.514 86.1618 19.8791 85.899 19.4108 85.4313C18.9425 84.9636 18.679 84.3291 18.6782 83.6673V72.4451C18.6782 72.3851 18.6901 72.3257 18.7131 72.2703C18.7362 72.2149 18.77 72.1646 18.8126 72.1223C18.8551 72.08 18.9057 72.0466 18.9612 72.0239C19.0168 72.0012 19.0763 71.9897 19.1363 71.9901C19.196 71.9901 19.2552 72.0019 19.3104 72.0248C19.3656 72.0476 19.4157 72.0811 19.458 72.1234C19.5002 72.1656 19.5337 72.2158 19.5566 72.271C19.5795 72.3262 19.5912 72.3853 19.5912 72.4451V83.6673C19.5912 84.0875 19.7582 84.4906 20.0553 84.7877C20.3525 85.0849 20.7556 85.2518 21.1758 85.2518H28.8481V86.1618Z" fill="#E0E0E0"/>
<path d="M31.0453 96.9174V86.4689L31.6643 86.2771C32.0003 86.1703 32.2937 85.9596 32.5022 85.6754C32.7108 85.3912 32.8238 85.0481 32.8249 84.6956H27.0281C27.0293 85.0481 27.1422 85.3912 27.3508 85.6754C27.5594 85.9596 27.8528 86.1703 28.1887 86.2771L28.8077 86.4689V96.9174L23.9951 99.0838V99.9968L29.9281 97.9201L35.8641 99.9968V99.0807L31.0453 96.9174Z" fill="#E0E0E0"/>
<path d="M25.0255 100.633C25.028 100.84 24.969 101.042 24.8561 101.215C24.7432 101.387 24.5815 101.523 24.3915 101.603C24.2015 101.684 23.9919 101.706 23.7893 101.667C23.5867 101.628 23.4002 101.529 23.2537 101.384C23.1071 101.239 23.0071 101.053 22.9663 100.851C22.9255 100.649 22.9458 100.439 23.0246 100.248C23.1034 100.058 23.2372 99.8948 23.4089 99.7804C23.5805 99.6659 23.7824 99.6051 23.9887 99.6057C24.2621 99.6057 24.5244 99.7137 24.7186 99.9061C24.9128 100.099 25.0231 100.36 25.0255 100.633Z" fill="#E0E0E0"/>
<path d="M36.8947 100.634C36.8947 100.84 36.8337 101.041 36.7195 101.212C36.6052 101.383 36.4428 101.516 36.2528 101.595C36.0628 101.674 35.8537 101.694 35.652 101.654C35.4502 101.614 35.265 101.515 35.1195 101.369C34.9741 101.224 34.875 101.039 34.8349 100.837C34.7948 100.635 34.8154 100.426 34.8941 100.236C34.9728 100.046 35.1061 99.8838 35.2771 99.7695C35.4481 99.6552 35.6492 99.5942 35.8548 99.5942C35.9915 99.5938 36.1269 99.6205 36.2533 99.6726C36.3796 99.7247 36.4944 99.8013 36.5911 99.8979C36.6877 99.9946 36.7643 100.109 36.8164 100.236C36.8685 100.362 36.8951 100.497 36.8947 100.634Z" fill="#E0E0E0"/>
<path d="M72.9413 85.2496H88.0816C88.2973 85.2501 88.5109 85.2079 88.7103 85.1257C88.9096 85.0434 89.0908 84.9227 89.2435 84.7703C89.3961 84.618 89.5172 84.437 89.5998 84.2378C89.6825 84.0386 89.725 83.825 89.725 83.6093C89.725 83.1735 89.5519 82.7555 89.2437 82.4473C88.9355 82.1391 88.5175 81.9659 88.0816 81.9659H72.9413C72.5054 81.9659 72.0874 82.1391 71.7792 82.4473C71.471 82.7555 71.2979 83.1735 71.2979 83.6093C71.2979 83.825 71.3404 84.0386 71.423 84.2378C71.5056 84.437 71.6267 84.618 71.7794 84.7703C71.932 84.9227 72.1132 85.0434 72.3126 85.1257C72.512 85.2079 72.7256 85.2501 72.9413 85.2496Z" fill="#EBEBEB"/>
<path d="M90.7462 76.3939L91.5633 64.7106C91.5931 64.2766 91.4495 63.8484 91.164 63.52C90.8786 63.1916 90.4746 62.9898 90.0406 62.9589C89.606 62.9283 89.177 63.0715 88.8479 63.357C88.5189 63.6425 88.3167 64.047 88.2857 64.4816L87.4687 76.1649C87.4389 76.5998 87.5828 77.0288 87.8688 77.3577C88.1549 77.6867 88.5597 77.8888 88.9945 77.9197C89.4291 77.9495 89.8577 77.8055 90.1861 77.5194C90.5146 77.2333 90.7161 76.8285 90.7462 76.3939Z" fill="#EBEBEB"/>
<path d="M81.5854 86.1618H89.2578C89.5856 86.1622 89.9103 86.0979 90.2133 85.9728C90.5163 85.8476 90.7917 85.6639 91.0236 85.4322C91.2556 85.2006 91.4396 84.9254 91.5652 84.6226C91.6907 84.3197 91.7554 83.9951 91.7554 83.6673V72.4451C91.7554 72.3853 91.7436 72.3262 91.7207 72.271C91.6979 72.2158 91.6643 72.1656 91.6221 72.1234C91.5798 72.0811 91.5297 72.0476 91.4745 72.0248C91.4193 72.0019 91.3601 71.9901 91.3004 71.9901C91.2404 71.9897 91.1809 72.0012 91.1253 72.0239C91.0698 72.0466 91.0193 72.08 90.9767 72.1223C90.9341 72.1646 90.9003 72.2149 90.8773 72.2703C90.8542 72.3257 90.8423 72.3851 90.8424 72.4451V83.6673C90.8424 84.0875 90.6754 84.4906 90.3782 84.7877C90.0811 85.0849 89.678 85.2518 89.2578 85.2518H81.5854V86.1618Z" fill="#E0E0E0"/>
<path d="M79.3907 96.9174V86.4689L78.7717 86.2771C78.4361 86.1701 78.1431 85.9593 77.9351 85.6751C77.727 85.3908 77.6147 85.0478 77.6143 84.6956H83.4017C83.4013 85.0478 83.289 85.3908 83.0809 85.6751C82.8729 85.9593 82.5799 86.1701 82.2442 86.2771L81.6253 86.4689V96.9174L86.441 99.0838V99.9968L80.5049 97.9201L74.5688 99.9968V99.0807L79.3907 96.9174Z" fill="#E0E0E0"/>
<path d="M85.4077 100.634C85.4077 100.84 85.4687 101.041 85.583 101.212C85.6972 101.383 85.8596 101.516 86.0497 101.595C86.2397 101.674 86.4488 101.694 86.6505 101.654C86.8522 101.614 87.0375 101.515 87.1829 101.369C87.3284 101.224 87.4274 101.039 87.4675 100.837C87.5076 100.635 87.487 100.426 87.4083 100.236C87.3296 100.046 87.1963 99.8838 87.0253 99.7695C86.8543 99.6552 86.6533 99.5942 86.4476 99.5942C86.1718 99.5942 85.9073 99.7038 85.7123 99.8988C85.5173 100.094 85.4077 100.358 85.4077 100.634Z" fill="#E0E0E0"/>
<path d="M73.5386 100.634C73.5386 100.84 73.5996 101.041 73.7141 101.212C73.8285 101.383 73.991 101.517 74.1812 101.595C74.3714 101.674 74.5807 101.694 74.7825 101.654C74.9843 101.613 75.1696 101.514 75.3149 101.368C75.4602 101.223 75.559 101.037 75.5988 100.835C75.6385 100.633 75.6175 100.424 75.5383 100.234C75.4591 100.044 75.3254 99.8819 75.154 99.768C74.9825 99.6541 74.7812 99.5936 74.5754 99.5942C74.439 99.5942 74.3039 99.6212 74.1779 99.6735C74.0519 99.7258 73.9375 99.8024 73.8412 99.899C73.7448 99.9956 73.6685 100.11 73.6166 100.236C73.5647 100.363 73.5382 100.498 73.5386 100.634Z" fill="#E0E0E0"/>
<path d="M73.891 74.0206H37.0615V77.9048H73.891V74.0206Z" fill="#EBEBEB"/>
<path d="M81.5294 72.8617H29.5596V75.1767H81.5294V72.8617Z" fill="#F5F5F5"/>
<path d="M76.6984 102.012H79.0474L74.9838 75.1794H72.2324L76.6984 102.012Z" fill="#E6E6E6"/>
<path d="M38.8541 75.1794H36.0996L32.0391 102.012H34.385L38.8541 75.1794Z" fill="#E6E6E6"/>
<path d="M109.544 75.6277H48.791V78.8495H109.544V75.6277Z" fill="#263238"/>
<path d="M109.544 75.6277H48.791V78.8495H109.544V75.6277Z" fill="#263238"/>
<path d="M109.544 77.8707H48.791V78.8487H109.544V77.8707Z" fill="black"/>
<path d="M97.1032 97.6501H61.23L61.982 94.3324H96.3511L97.1032 97.6501Z" fill="#263238"/>
<path d="M94.8467 94.3324L95.5987 97.6501H97.1029L96.3508 94.3324H94.8467Z" fill="black"/>
<path d="M61.982 94.3324L61.23 97.6501H62.7372L63.4893 94.3324H61.982Z" fill="black"/>
<path d="M58.6824 109.82C58.2027 109.82 57.8561 109.226 57.9923 108.632L64.7485 78.8495H66.2526L59.3819 109.149C59.3593 109.324 59.2776 109.486 59.1504 109.608C59.0232 109.73 58.8581 109.805 58.6824 109.82Z" fill="#263238"/>
<path d="M64.3745 80.4619H65.8817L66.2469 78.8495H64.7397L64.3745 80.4619Z" fill="black"/>
<path d="M99.6502 109.82C100.133 109.82 100.48 109.226 100.344 108.632L93.5935 78.8495H92.0894L98.957 109.149C98.9799 109.322 99.0608 109.483 99.1866 109.605C99.3125 109.727 99.4759 109.803 99.6502 109.82Z" fill="#263238"/>
<path d="M93.5935 78.8495H92.0894L92.4546 80.4619H93.9587L93.5935 78.8495Z" fill="black"/>
<path d="M106.979 35.4083H51.3574V77.4002H106.979V35.4083Z" fill="#407BFF"/>
<path d="M106.979 35.4083H51.3574V77.4002H106.979V35.4083Z" fill="#E0E0E0"/>
<path opacity="0.7" d="M91.3654 63.0582C91.3654 63.5403 91.2704 64.0176 91.086 64.4629C90.9015 64.9082 90.6311 65.3129 90.2903 65.6537C89.9495 65.9946 89.5448 66.2649 89.0995 66.4494C88.6542 66.6339 88.1769 66.7288 87.6948 66.7288V63.0582H91.3654Z" fill="white"/>
<path d="M67.0294 48.8974V48.5198H59.5088V48.8974H63.0834V60.1783H59.5088V60.5528H63.0834V71.8338H59.5088V72.2114H67.0294V71.8338H63.4579V60.5528H67.0294V60.1783H63.4579V48.8974H67.0294Z" fill="#263238"/>
<path d="M67.9588 55.8503H65.9687V53.2197H67.9588C68.1952 53.2197 68.4219 53.3136 68.589 53.4807C68.7562 53.6479 68.8501 53.8746 68.8501 54.111V54.959C68.8501 55.1954 68.7562 55.4221 68.589 55.5893C68.4219 55.7564 68.1952 55.8503 67.9588 55.8503Z" fill="#BCBCBC"/>
<path d="M67.9588 67.5099H65.9687V64.8761H67.9588C68.1952 64.8761 68.4219 64.97 68.589 65.1372C68.7562 65.3043 68.8501 65.5311 68.8501 65.7674V66.6155C68.8505 66.7328 68.8277 66.849 68.7831 66.9575C68.7385 67.066 68.6729 67.1646 68.5901 67.2477C68.5073 67.3308 68.4089 67.3968 68.3006 67.4417C68.1922 67.4867 68.0761 67.5099 67.9588 67.5099Z" fill="#BCBCBC"/>
<path d="M58.5837 64.8761H60.5738V67.5099H58.5837C58.3473 67.5099 58.1206 67.416 57.9535 67.2488C57.7863 67.0817 57.6924 66.8549 57.6924 66.6185V65.7705C57.692 65.6532 57.7147 65.537 57.7593 65.4285C57.804 65.32 57.8696 65.2214 57.9524 65.1383C58.0352 65.0552 58.1336 64.9892 58.2419 64.9442C58.3503 64.8993 58.4664 64.8761 58.5837 64.8761Z" fill="#BCBCBC"/>
<path d="M58.5837 53.2184H60.5738V55.8491H58.5837C58.3473 55.8491 58.1206 55.7552 57.9535 55.588C57.7863 55.4208 57.6924 55.1941 57.6924 54.9577V54.1097C57.6924 53.8733 57.7863 53.6466 57.9535 53.4795C58.1206 53.3123 58.3473 53.2184 58.5837 53.2184Z" fill="#BCBCBC"/>
<path d="M59.8376 39.7449H61.8277V42.3786H59.8376C59.6012 42.3786 59.3745 42.2847 59.2074 42.1176C59.0402 41.9504 58.9463 41.7237 58.9463 41.4873V40.6393C58.9459 40.522 58.9686 40.4058 59.0133 40.2973C59.0579 40.1888 59.1235 40.0901 59.2063 40.007C59.2891 39.9239 59.3875 39.858 59.4958 39.813C59.6042 39.768 59.7203 39.7449 59.8376 39.7449Z" fill="#263238"/>
<path d="M94.7573 69.8154V67.8254H97.3911V69.8154C97.3911 70.0518 97.2972 70.2786 97.13 70.4457C96.9629 70.6129 96.7362 70.7068 96.4998 70.7068H95.6518C95.5344 70.7072 95.4182 70.6844 95.3097 70.6398C95.2012 70.5952 95.1026 70.5296 95.0195 70.4468C94.9364 70.364 94.8705 70.2656 94.8255 70.1573C94.7805 70.0489 94.7573 69.9328 94.7573 69.8154Z" fill="#263238"/>
<path d="M81.9039 48.8974V48.5198H74.3833V48.8974H77.9579V60.1783H74.3833V60.5528H77.9579V71.8338H74.3833V72.2114H81.9039V71.8338H78.3324V60.5528H81.9039V60.1783H78.3324V48.8974H81.9039Z" fill="#263238"/>
<path d="M82.8323 55.8503H80.8423V53.2197H82.8323C83.0687 53.2197 83.2954 53.3136 83.4626 53.4807C83.6297 53.6479 83.7236 53.8746 83.7236 54.111V54.959C83.7236 55.1954 83.6297 55.4221 83.4626 55.5893C83.2954 55.7564 83.0687 55.8503 82.8323 55.8503Z" fill="#BCBCBC"/>
<path d="M93.0867 52.4675H95.0767V55.0982H93.0867C92.8503 55.0982 92.6235 55.0043 92.4564 54.8371C92.2892 54.67 92.1953 54.4433 92.1953 54.2069V53.3589C92.1953 53.1225 92.2892 52.8958 92.4564 52.7286C92.6235 52.5614 92.8503 52.4675 93.0867 52.4675Z" fill="#263238"/>
<path d="M93.0867 46.225H95.0767V48.8495H93.0867C92.8503 48.8495 92.6235 48.7556 92.4564 48.5884C92.2892 48.4212 92.1953 48.1945 92.1953 47.9581V47.1163C92.1953 46.8799 92.2892 46.6532 92.4564 46.486C92.6235 46.3189 92.8503 46.225 93.0867 46.225Z" fill="#263238"/>
<path d="M97.8209 55.0974H95.8432V52.4668H97.8333C98.0697 52.4668 98.2964 52.5607 98.4635 52.7278C98.6307 52.895 98.7246 53.1217 98.7246 53.3581V54.2061C98.7246 54.3242 98.7012 54.4411 98.6556 54.5501C98.61 54.6591 98.5433 54.7579 98.4592 54.8408C98.3751 54.9237 98.2754 54.9891 98.1658 55.0332C98.0562 55.0772 97.939 55.0991 97.8209 55.0974Z" fill="#263238"/>
<path d="M94.293 58.721V56.7309H96.9267V58.721C96.9267 58.9574 96.8328 59.1841 96.6657 59.3512C96.4985 59.5184 96.2718 59.6123 96.0354 59.6123H95.1874C95.0701 59.6127 94.9539 59.59 94.8454 59.5453C94.7369 59.5007 94.6382 59.4351 94.5551 59.3523C94.472 59.2695 94.4061 59.1711 94.3611 59.0628C94.3161 58.9544 94.293 58.8383 94.293 58.721Z" fill="#263238"/>
<path d="M97.8209 48.8549H95.8432V46.2304H97.8333C98.0697 46.2304 98.2964 46.3243 98.4635 46.4915C98.6307 46.6586 98.7246 46.8853 98.7246 47.1217V47.9636C98.7246 48.0817 98.7012 48.1986 98.6556 48.3075C98.61 48.4165 98.5433 48.5153 98.4592 48.5982C98.3751 48.6812 98.2754 48.7466 98.1658 48.7906C98.0562 48.8347 97.939 48.8565 97.8209 48.8549Z" fill="#263238"/>
<path d="M82.8323 67.5099H80.8423V64.8761H82.8323C83.0687 64.8761 83.2954 64.97 83.4626 65.1372C83.6297 65.3043 83.7236 65.5311 83.7236 65.7674V66.6155C83.724 66.7328 83.7013 66.849 83.6567 66.9575C83.6121 67.066 83.5465 67.1646 83.4637 67.2477C83.3808 67.3308 83.2824 67.3968 83.1741 67.4417C83.0658 67.4867 82.9496 67.5099 82.8323 67.5099Z" fill="#263238"/>
<path d="M73.4582 64.8761H75.4483V67.5099H73.4582C73.2218 67.5099 72.9951 67.416 72.828 67.2488C72.6608 67.0817 72.5669 66.8549 72.5669 66.6185V65.7705C72.5665 65.6532 72.5892 65.537 72.6339 65.4285C72.6785 65.32 72.7441 65.2214 72.8269 65.1383C72.9097 65.0552 73.0081 64.9892 73.1164 64.9442C73.2248 64.8993 73.3409 64.8761 73.4582 64.8761Z" fill="#BCBCBC"/>
<path d="M73.4582 53.2184H75.4483V55.8491H73.4582C73.2218 55.8491 72.9951 55.7552 72.828 55.588C72.6608 55.4208 72.5669 55.1941 72.5669 54.9577V54.1097C72.5669 53.8733 72.6608 53.6466 72.828 53.4795C72.9951 53.3123 73.2218 53.2184 73.4582 53.2184Z" fill="#BCBCBC"/>
<path opacity="0.7" d="M70.7004 37.726C70.7004 38.2078 70.6054 38.685 70.4209 39.1302C70.2364 39.5753 69.966 39.9797 69.6251 40.3203C69.2842 40.6609 68.8795 40.931 68.4342 41.1152C67.9889 41.2993 67.5117 41.3938 67.0298 41.3934V37.726H70.7004Z" fill="white"/>
<path opacity="0.7" d="M70.7007 37.726C70.7007 38.2078 70.7956 38.685 70.9801 39.1302C71.1647 39.5753 71.4351 39.9797 71.776 40.3203C72.1168 40.6609 72.5215 40.931 72.9668 41.1152C73.4121 41.2993 73.8894 41.3938 74.3713 41.3934V37.726H70.7007Z" fill="white"/>
<path opacity="0.7" d="M87.2052 44.3905C86.2317 44.3905 85.2981 44.0038 84.6097 43.3155C83.9214 42.6271 83.5347 41.6935 83.5347 40.72H87.2052V44.3905Z" fill="white"/>
<path opacity="0.7" d="M87.2052 44.39C86.2323 44.39 85.2991 44.7763 84.6108 45.464C83.9226 46.1517 83.5355 47.0845 83.5347 48.0575H87.2052V44.39Z" fill="white"/>
<path d="M67.2808 57.6698V51.4026H64.647V57.6698H67.2808Z" fill="#407BFF"/>
<path d="M67.2837 69.3293V63.0621H64.6499V69.3293H67.2837Z" fill="#407BFF"/>
<path d="M59.2588 63.0585V69.3257H61.8926V63.0585H59.2588Z" fill="#407BFF"/>
<path d="M59.2588 51.4028V57.67H61.8926V51.4028H59.2588Z" fill="#407BFF"/>
<path d="M60.5118 37.9291V43.0666H56.8784V45.7004H63.1456V37.9291H60.5118Z" fill="#407BFF"/>
<path d="M82.1548 57.6698V51.4026H79.521V57.6698H82.1548Z" fill="#407BFF"/>
<path d="M82.1572 69.3293V63.0621H79.5234V69.3293H82.1572Z" fill="#407BFF"/>
<path d="M74.1323 63.0585V69.3257H76.763V63.0585H74.1323Z" fill="#407BFF"/>
<path d="M74.1323 51.4028V57.67H76.763V51.4028H74.1323Z" fill="#407BFF"/>
<path d="M90.9014 66.5061V72.7733H93.5351V69.1368H98.6108V72.7733H101.245V66.5061H90.9014Z" fill="#407BFF"/>
<path d="M67.2808 57.6698V51.4026H64.647V57.6698H67.2808Z" fill="#BCBCBC"/>
<path d="M67.2837 69.3293V63.0621H64.6499V69.3293H67.2837Z" fill="#BCBCBC"/>
<path d="M59.2588 63.0585V69.3257H61.8926V63.0585H59.2588Z" fill="#BCBCBC"/>
<path d="M59.2588 51.4028V57.67H61.8926V51.4028H59.2588Z" fill="#BCBCBC"/>
<path d="M60.5118 37.9291V43.0666H56.8784V45.7004H63.1456V37.9291H60.5118Z" fill="white"/>
<path d="M82.1548 57.6698V51.4026H79.521V57.6698H82.1548Z" fill="#BCBCBC"/>
<path d="M82.1572 69.3293V63.0621H79.5234V69.3293H82.1572Z" fill="#BCBCBC"/>
<path d="M74.1323 63.0585V69.3257H76.763V63.0585H74.1323Z" fill="#BCBCBC"/>
<path d="M74.1323 51.4028V57.67H76.763V51.4028H74.1323Z" fill="#BCBCBC"/>
<path d="M90.9014 66.5081V72.7753H93.5351V69.1387H98.6108V72.7753H101.245V66.5081H90.9014Z" fill="white"/>
<path d="M94.293 43.0899V57.67H96.927V43.0899H94.293Z" fill="#263238"/>
<path d="M74.5109 36.6169H66.9067V37.8487H74.5109V36.6169Z" fill="#263238"/>
<path d="M88.3099 40.5973H87.0781V48.2015H88.3099V40.5973Z" fill="#263238"/>
<path d="M91.489 62.4415H87.5615V63.6733H91.489V62.4415Z" fill="#263238"/>
<path d="M54.7461 36.8602V76.1378H103.38V36.8602H54.7461ZM102.628 62.6842H88.0815V37.6154H102.628V62.6842ZM55.4982 37.6154H87.3201V75.3858H55.4982V37.6154ZM88.0722 75.3858V63.4363H102.618V75.3858H88.0722Z" fill="#263238"/>
<path d="M99.2324 42.17L100.201 39.4465C99.7716 38.5962 99.6595 37.6207 99.8849 36.6952C100.11 35.7697 100.658 34.955 101.431 34.3975C102.203 33.8399 103.149 33.5762 104.098 33.6536C105.048 33.7311 105.938 34.1446 106.61 34.82C107.282 35.4953 107.691 36.3881 107.763 37.3379C107.836 38.2877 107.567 39.2321 107.005 40.0015C106.444 40.7709 105.626 41.3147 104.699 41.5352C103.773 41.7557 102.798 41.6384 101.95 41.2044L99.2324 42.17Z" fill="#407BFF"/>
<path d="M99.2324 42.17L100.201 39.4465C99.7716 38.5962 99.6595 37.6207 99.8849 36.6952C100.11 35.7697 100.658 34.955 101.431 34.3975C102.203 33.8399 103.149 33.5762 104.098 33.6536C105.048 33.7311 105.938 34.1446 106.61 34.82C107.282 35.4953 107.691 36.3881 107.763 37.3379C107.836 38.2877 107.567 39.2321 107.005 40.0015C106.444 40.7709 105.626 41.3147 104.699 41.5352C103.773 41.7557 102.798 41.6384 101.95 41.2044L99.2324 42.17Z" fill="#294992"/>
<path d="M103.336 37.3962C103.219 37.2738 103.128 37.1277 103.072 36.9675C103.015 36.8073 102.994 36.6369 103.008 36.4677C103.008 35.8766 103.234 35.3969 103.754 35.3969C104.274 35.3969 104.503 35.8766 104.503 36.4677C104.518 36.6371 104.496 36.8077 104.438 36.9679C104.381 37.1281 104.29 37.2741 104.172 37.3962C105.101 37.4952 105.819 37.944 105.819 38.8384H101.69C101.69 37.9471 102.399 37.4983 103.336 37.3962Z" fill="white"/>
<path d="M68.2646 49.795L69.2334 47.0715C68.7998 46.2169 68.6855 45.2356 68.911 44.3042C69.1365 43.3728 69.6871 42.5525 70.4636 41.9909C71.2401 41.4293 72.1916 41.1633 73.1467 41.2408C74.1019 41.3183 74.998 41.7342 75.6739 42.4136C76.3497 43.0931 76.7608 43.9914 76.8332 44.9469C76.9057 45.9025 76.6347 46.8525 76.069 47.6261C75.5033 48.3996 74.6801 48.9458 73.7475 49.1664C72.815 49.387 71.8343 49.2675 70.982 48.8294L68.2646 49.795Z" fill="#407BFF"/>
<path d="M68.2646 49.795L69.2334 47.0715C68.7998 46.2169 68.6855 45.2356 68.911 44.3042C69.1365 43.3728 69.6871 42.5525 70.4636 41.9909C71.2401 41.4293 72.1916 41.1633 73.1467 41.2408C74.1019 41.3183 74.998 41.7342 75.6739 42.4136C76.3497 43.0931 76.7608 43.9914 76.8332 44.9469C76.9057 45.9025 76.6347 46.8525 76.069 47.6261C75.5033 48.3996 74.6801 48.9458 73.7475 49.1664C72.815 49.387 71.8343 49.2675 70.982 48.8294L68.2646 49.795Z" fill="#294992"/>
<path d="M72.3687 45.0306C72.2502 44.9086 72.1594 44.7625 72.1023 44.6023C72.0452 44.4421 72.0231 44.2716 72.0375 44.1021C72.0375 43.5079 72.2665 43.0282 72.7865 43.0282C73.3064 43.0282 73.5324 43.5079 73.5324 44.1021C73.5472 44.2714 73.5256 44.4418 73.469 44.6019C73.4124 44.7621 73.3222 44.9083 73.2043 45.0306C74.1328 45.1266 74.8508 45.5753 74.8508 46.4697H70.7222C70.7222 45.5753 71.4278 45.1358 72.3687 45.0306Z" fill="white"/>
<path d="M89.6784 67.9428L88.7128 65.2193C89.1056 64.4415 89.2339 63.5568 89.0781 62.6994C88.9223 61.8421 88.491 61.0591 87.8495 60.4693C87.2081 59.8794 86.3917 59.5151 85.5243 59.4316C84.657 59.3481 83.7861 59.55 83.0439 60.0066C82.3018 60.4632 81.7289 61.1496 81.4124 61.9615C81.096 62.7733 81.0531 63.6663 81.2904 64.5048C81.5277 65.3432 82.0322 66.0813 82.7272 66.6068C83.4223 67.1324 84.2699 67.4167 85.1412 67.4167C85.7741 67.4166 86.3979 67.266 86.961 66.9772L89.6784 67.9428Z" fill="#263238"/>
<path opacity="0.5" d="M89.6784 67.9428L88.7128 65.2193C89.1056 64.4415 89.2339 63.5568 89.0781 62.6994C88.9223 61.8421 88.491 61.0591 87.8495 60.4693C87.2081 59.8794 86.3917 59.5151 85.5243 59.4316C84.657 59.3481 83.7861 59.55 83.0439 60.0066C82.3018 60.4632 81.7289 61.1496 81.4124 61.9615C81.096 62.7733 81.0531 63.6663 81.2904 64.5048C81.5277 65.3432 82.0322 66.0813 82.7272 66.6068C83.4223 67.1324 84.2699 67.4167 85.1412 67.4167C85.7741 67.4166 86.3979 67.266 86.961 66.9772L89.6784 67.9428Z" fill="#294992"/>
<path d="M85.5747 63.1721C85.6931 63.05 85.784 62.904 85.8411 62.7438C85.8982 62.5836 85.9203 62.4131 85.9059 62.2436C85.9059 61.6525 85.68 61.1697 85.1569 61.1697C84.6339 61.1697 84.411 61.6525 84.411 62.2436C84.3962 62.4128 84.4178 62.5833 84.4744 62.7434C84.531 62.9036 84.6212 63.0498 84.7391 63.1721C83.8106 63.2711 83.0957 63.7168 83.0957 64.6112H87.2212C87.2212 63.7044 86.5156 63.2711 85.5747 63.1721Z" fill="white"/>
<path d="M111.125 46.9078L111.19 46.8632V46.7839V46.657C111.19 46.2305 111.36 45.8215 111.661 45.52C111.963 45.2185 112.372 45.049 112.798 45.049H122.027C122.454 45.049 122.863 45.2185 123.164 45.52C123.466 45.8215 123.635 46.2305 123.635 46.657V48.9503C123.635 49.3767 123.466 49.7857 123.164 50.0873C122.863 50.3888 122.454 50.5582 122.027 50.5582H112.798C112.372 50.5582 111.963 50.3888 111.661 50.0873C111.36 49.7857 111.19 49.3767 111.19 48.9503V48.8203V48.741L111.125 48.6963L109.812 47.8021L111.125 46.9078Z" fill="#E0E0E0" stroke="#C7C7C7" stroke-width="0.3"/>
<path d="M119.898 46.7618H117.5C117.393 46.7618 117.291 46.7198 117.216 46.645C117.141 46.5703 117.098 46.4687 117.097 46.3625C117.097 46.3097 117.108 46.2574 117.128 46.2086C117.148 46.1598 117.178 46.1154 117.215 46.078C117.252 46.0407 117.297 46.011 117.346 45.9908C117.394 45.9706 117.447 45.9602 117.5 45.9602H119.898C120.004 45.961 120.106 46.0038 120.181 46.0791C120.255 46.1545 120.297 46.2564 120.297 46.3625C120.297 46.4684 120.255 46.57 120.18 46.6448C120.106 46.7197 120.004 46.7618 119.898 46.7618Z" fill="white"/>
<path d="M121.439 48.123H117.5C117.393 48.123 117.29 48.0806 117.215 48.0052C117.14 47.9297 117.097 47.8274 117.097 47.7207C117.097 47.614 117.14 47.5117 117.215 47.4362C117.29 47.3607 117.393 47.3184 117.5 47.3184H121.439C121.546 47.3184 121.648 47.3607 121.724 47.4362C121.799 47.5117 121.842 47.614 121.842 47.7207C121.842 47.8274 121.799 47.9297 121.724 48.0052C121.648 48.0806 121.546 48.123 121.439 48.123Z" fill="white"/>
<path d="M120.498 49.4703H117.5C117.393 49.4703 117.29 49.4279 117.215 49.3524C117.14 49.277 117.097 49.1747 117.097 49.0679C117.098 48.9618 117.141 48.8602 117.216 48.7854C117.291 48.7107 117.393 48.6687 117.5 48.6687H120.498C120.605 48.6687 120.707 48.7107 120.782 48.7854C120.857 48.8602 120.9 48.9618 120.901 49.0679C120.901 49.1208 120.89 49.1731 120.87 49.2219C120.85 49.2707 120.82 49.3151 120.783 49.3524C120.746 49.3898 120.701 49.4194 120.652 49.4397C120.604 49.4599 120.551 49.4703 120.498 49.4703Z" fill="white"/>
<g opacity="0.8">
<path d="M113.423 49.1618C113.452 49.2714 113.517 49.3684 113.607 49.4376C113.696 49.5068 113.807 49.5444 113.92 49.5444C114.033 49.5444 114.144 49.5068 114.234 49.4376C114.323 49.3684 114.388 49.2714 114.417 49.1618C114.086 49.1432 113.754 49.1432 113.423 49.1618Z" fill="white"/>
<path d="M115.429 48.8292C115.305 48.3557 115.119 47.6593 115.092 47.3436C115.076 47.0733 114.974 46.8152 114.8 46.6077C114.626 46.4003 114.389 46.2546 114.126 46.1923C114.126 46.1923 114.126 46.1923 114.126 46.1707C114.126 46.1148 114.104 46.0613 114.064 46.0218C114.025 45.9824 113.971 45.9602 113.915 45.9602C113.86 45.9602 113.806 45.9824 113.767 46.0218C113.727 46.0613 113.705 46.1148 113.705 46.1707C113.704 46.1778 113.704 46.1851 113.705 46.1923C113.441 46.2545 113.204 46.4 113.03 46.6074C112.855 46.8149 112.752 47.073 112.736 47.3436C112.65 47.8443 112.537 48.3402 112.399 48.8292C112.389 48.8659 112.389 48.9045 112.397 48.9414C112.406 48.9783 112.425 49.0124 112.45 49.0405C112.476 49.0686 112.508 49.0898 112.544 49.102C112.58 49.1143 112.618 49.1174 112.656 49.1108C113.487 48.9953 114.331 48.9953 115.163 49.1108C115.201 49.1192 115.24 49.1176 115.278 49.1061C115.315 49.0947 115.349 49.0737 115.376 49.0454C115.402 49.017 115.421 48.9822 115.431 48.9443C115.44 48.9064 115.439 48.8668 115.429 48.8292Z" fill="white"/>
</g>
<path d="M35.8646 25.106L36.0151 25.3289L37.4265 23.2608H41.3725C42.0603 23.2608 42.72 22.9876 43.2064 22.5012C43.6928 22.0148 43.966 21.3551 43.966 20.6673V17.2814C43.9685 16.5941 43.698 15.9339 43.2141 15.4459C42.7301 14.9578 42.0722 14.6819 41.3849 14.6786M35.8646 25.106L37.22 23.1199L37.2944 23.0108H37.4265H41.3725C41.994 23.0108 42.5901 22.7639 43.0296 22.3244C43.4691 21.8849 43.716 21.2888 43.716 20.6673V17.2814V17.2805C43.7183 16.6595 43.4739 16.0629 43.0365 15.6219C42.5994 15.1811 42.0051 14.9317 41.3843 14.9286M35.8646 25.106L34.5232 23.1208L34.4489 23.0108H34.3161H27.761C27.1395 23.0108 26.5434 22.7639 26.1039 22.3244C25.6644 21.8849 25.4175 21.2888 25.4175 20.6673L25.4175 17.2814L25.4175 17.2805C25.4164 16.9716 25.4764 16.6655 25.594 16.3798C25.7116 16.0942 25.8846 15.8346 26.1029 15.616C26.3212 15.3974 26.5806 15.2241 26.8661 15.1062C27.1517 14.9882 27.4577 14.9279 27.7666 14.9286H27.7672H41.3843M35.8646 25.106L35.713 25.3282L34.3161 23.2608H27.761C27.0732 23.2608 26.4135 22.9876 25.9271 22.5012C25.4407 22.0148 25.1675 21.3551 25.1675 20.6673V17.2814C25.1663 16.9395 25.2327 16.6008 25.3628 16.2846C25.493 15.9685 25.6844 15.6812 25.926 15.4393C26.1676 15.1974 26.4547 15.0057 26.7707 14.8751C27.0867 14.7446 27.4253 14.6778 27.7672 14.6786H41.3849M41.3843 14.9286H41.3849V14.6786M41.3843 14.9286C41.3841 14.9286 41.3839 14.9286 41.3837 14.9286L41.3849 14.6786" fill="#E0E0E0" stroke="#D5D5D5" stroke-width="0.5"/>
<path d="M32.7004 18.8447C32.7004 19.4899 32.509 20.1205 32.1506 20.657C31.7922 21.1934 31.2827 21.6115 30.6866 21.8584C30.0906 22.1053 29.4347 22.1699 28.8019 22.044C28.1691 21.9182 27.5879 21.6075 27.1317 21.1513C26.6755 20.6951 26.3648 20.1139 26.239 19.4811C26.1131 18.8483 26.1777 18.1924 26.4246 17.5964C26.6715 17.0003 27.0896 16.4908 27.626 16.1324C28.1625 15.774 28.7931 15.5826 29.4383 15.5826C29.8667 15.5826 30.2909 15.667 30.6866 15.8309C31.0824 15.9949 31.442 16.2352 31.7449 16.5381C32.0478 16.841 32.2881 17.2006 32.452 17.5964C32.616 17.9921 32.7004 18.4163 32.7004 18.8447Z" fill="#407BFF"/>
<path opacity="0.9" d="M32.7004 18.8447C32.7004 19.4899 32.509 20.1205 32.1506 20.657C31.7922 21.1934 31.2827 21.6115 30.6866 21.8584C30.0906 22.1053 29.4347 22.1699 28.8019 22.044C28.1691 21.9182 27.5879 21.6075 27.1317 21.1513C26.6755 20.6951 26.3648 20.1139 26.239 19.4811C26.1131 18.8483 26.1777 18.1924 26.4246 17.5964C26.6715 17.0003 27.0896 16.4908 27.626 16.1324C28.1625 15.774 28.7931 15.5826 29.4383 15.5826C29.8667 15.5826 30.2909 15.667 30.6866 15.8309C31.0824 15.9949 31.442 16.2352 31.7449 16.5381C32.0478 16.841 32.2881 17.2006 32.452 17.5964C32.616 17.9921 32.7004 18.4163 32.7004 18.8447Z" fill="#263238"/>
<path d="M32.0349 18.8433C32.0349 19.3576 31.8824 19.8603 31.5966 20.2879C31.3108 20.7155 30.9046 21.0487 30.4293 21.2454C29.9541 21.4421 29.4312 21.4934 28.9269 21.3928C28.4225 21.2922 27.9593 21.0443 27.5958 20.6805C27.2323 20.3166 26.985 19.853 26.885 19.3485C26.7851 18.844 26.837 18.3212 27.0342 17.8462C27.2315 17.3713 27.5652 16.9654 27.9931 16.6802C28.421 16.3949 28.924 16.2429 29.4383 16.2435C29.7795 16.2435 30.1174 16.3108 30.4327 16.4415C30.7479 16.5722 31.0343 16.7637 31.2755 17.0052C31.5166 17.2466 31.7078 17.5332 31.8381 17.8486C31.9685 18.164 32.0353 18.502 32.0349 18.8433Z" fill="#407BFF"/>
<path d="M32.0349 18.8433C32.0349 19.3576 31.8824 19.8603 31.5966 20.2879C31.3108 20.7155 30.9046 21.0487 30.4293 21.2454C29.9541 21.4421 29.4312 21.4934 28.9269 21.3928C28.4225 21.2922 27.9593 21.0443 27.5958 20.6805C27.2323 20.3166 26.985 19.853 26.885 19.3485C26.7851 18.844 26.837 18.3212 27.0342 17.8462C27.2315 17.3713 27.5652 16.9654 27.9931 16.6802C28.421 16.3949 28.924 16.2429 29.4383 16.2435C29.7795 16.2435 30.1174 16.3108 30.4327 16.4415C30.7479 16.5722 31.0343 16.7637 31.2755 17.0052C31.5166 17.2466 31.7078 17.5332 31.8381 17.8486C31.9685 18.164 32.0353 18.502 32.0349 18.8433Z" fill="white"/>
<path d="M31.1097 18.9853H29.293V16.7817H29.5808V18.6975H31.1097V18.9853Z" fill="#263238"/>
<path d="M38.2403 17.4289H34.6966C34.5401 17.4281 34.3902 17.3655 34.2795 17.2548C34.1688 17.1442 34.1063 16.9943 34.1055 16.8378C34.1055 16.6807 34.1676 16.53 34.2784 16.4187C34.3892 16.3073 34.5395 16.2443 34.6966 16.2435H38.2403C38.3973 16.2443 38.5477 16.3073 38.6585 16.4187C38.7692 16.53 38.8314 16.6807 38.8314 16.8378C38.8306 16.9943 38.7681 17.1442 38.6574 17.2548C38.5467 17.3655 38.3968 17.4281 38.2403 17.4289Z" fill="white"/>
<path d="M40.515 19.4485H34.6966C34.5398 19.4485 34.3895 19.3862 34.2786 19.2754C34.1677 19.1645 34.1055 19.0141 34.1055 18.8574C34.1055 18.7006 34.1677 18.5502 34.2786 18.4394C34.3895 18.3285 34.5398 18.2662 34.6966 18.2662H40.515C40.5929 18.2658 40.6701 18.2808 40.7422 18.3103C40.8143 18.3399 40.8798 18.3834 40.935 18.4383C40.9903 18.4932 41.0341 18.5585 41.064 18.6304C41.0939 18.7024 41.1093 18.7795 41.1093 18.8574C41.1093 18.9353 41.0939 19.0124 41.064 19.0843C41.0341 19.1562 40.9903 19.2215 40.935 19.2765C40.8798 19.3314 40.8143 19.3749 40.7422 19.4044C40.6701 19.4339 40.5929 19.4489 40.515 19.4485Z" fill="white"/>
<path d="M39.1254 21.4438H34.6966C34.5395 21.443 34.3892 21.38 34.2784 21.2686C34.1676 21.1573 34.1055 21.0066 34.1055 20.8496C34.1063 20.693 34.1688 20.5431 34.2795 20.4325C34.3902 20.3218 34.5401 20.2592 34.6966 20.2584H39.1254C39.2822 20.2584 39.4326 20.3207 39.5434 20.4316C39.6543 20.5424 39.7166 20.6928 39.7166 20.8496C39.717 20.9274 39.702 21.0046 39.6725 21.0767C39.6429 21.1488 39.5994 21.2143 39.5445 21.2695C39.4896 21.3248 39.4243 21.3686 39.3524 21.3985C39.2804 21.4284 39.2033 21.4438 39.1254 21.4438Z" fill="white"/>
<path d="M31.85 38.0189C31.85 38.0189 29.6402 37.6723 29.9683 35.2335C29.9683 35.2335 29.2781 35.4811 29.1419 34.4845C29.0057 33.4879 29.7609 32.4357 29.7609 32.4357C29.7609 32.4357 29.4762 30.2692 31.33 29.8514C32.5309 29.5821 32.4782 30.1114 32.4782 30.1114C32.4782 30.1114 32.9734 27.9635 35.4803 28.4556C36.7183 28.6939 36.4769 29.415 36.4769 29.415C36.4769 29.415 37.5446 28.9786 38.4607 30.1702C39.1571 31.0801 38.0553 31.0986 38.0553 31.0986C38.0553 31.0986 40.067 33.6736 38.3864 34.0852C36.7059 34.4969 35.0996 31.176 35.0996 31.176L32.8094 33.1351C32.8094 33.1351 31.85 35.1468 31.8809 35.2335C31.9119 35.3201 31.85 38.0189 31.85 38.0189Z" fill="#263238"/>
<path d="M45.1489 104.339L41.0388 104.017L40.915 108.892L44.3504 109.167L45.1489 104.339Z" fill="#FFBE9D"/>
<path opacity="0.2" d="M45.1454 104.342L41.0354 104.017L40.9673 106.747L44.6998 107.044L45.1454 104.342Z" fill="black"/>
<path d="M40.364 86.4606C38.2192 80.4441 34.6167 74.344 36.4396 68.1015L47.8413 66.5541C47.8413 66.5541 48.7698 80.2274 49.1102 85.9933C49.4785 91.9881 45.2323 106.24 45.2323 106.24L40.5311 105.841C40.5311 105.841 40.1814 93.2292 40.364 86.4606Z" fill="#263238"/>
<path opacity="0.4" d="M40.1568 85.8878C38.8662 82.4122 37.1702 78.9057 36.3779 75.3651C40.0795 70.079 40.8006 79.7723 40.1568 85.8878Z" fill="black"/>
<path d="M31.0762 105.004L26.9507 105.044L26.7681 109.909L30.2158 109.881L31.0762 105.004Z" fill="#FFBE9D"/>
<path opacity="0.2" d="M31.0765 105.004L26.9478 105.044L26.8457 107.77L30.5936 107.736L31.0765 105.004Z" fill="black"/>
<path d="M26.5885 86.052C26.2542 79.8065 25.8024 70.4629 27.8945 67.5908L40.7446 67.303C40.7446 67.303 37.1731 80.9794 35.8392 86.7422C34.4527 92.7339 31.0544 106.896 31.0544 106.896H26.5916C26.5916 106.896 24.911 93.1827 26.5885 86.052Z" fill="#263238"/>
<path d="M58.2499 42.5467C57.9695 42.2719 57.5917 42.1192 57.1991 42.1221C56.8065 42.125 56.431 42.2832 56.1547 42.5622L56.0154 42.7045C55.8297 42.8902 55.6193 43.1316 55.4212 43.3452C55.2231 43.5587 55.0188 43.7847 54.8208 43.9982C54.4184 44.4253 54.0192 44.84 53.6168 45.2145C53.2418 45.5752 52.8438 45.9112 52.4253 46.2204C52.317 46.2977 52.2117 46.3689 52.1158 46.437C51.7405 46.395 51.3676 46.3341 50.9985 46.2544C50.4864 46.1332 49.9837 45.975 49.4944 45.7809C49 45.5829 48.5192 45.3524 48.0553 45.0907C47.8201 44.9607 47.5941 44.8184 47.3744 44.6791C47.2661 44.611 47.1608 44.5367 47.0649 44.4686L46.9225 44.3727L46.8637 44.3294H46.839C46.839 44.3294 46.839 44.3294 46.839 44.3479C46.551 44.0907 46.2152 43.8926 45.8507 43.7651C45.4862 43.6376 45.1002 43.5832 44.7147 43.6049C44.3291 43.6266 43.9516 43.724 43.6038 43.8916C43.2559 44.0592 42.9444 44.2936 42.6871 44.5816C42.4299 44.8696 42.2318 45.2054 42.1043 45.5698C41.9769 45.9343 41.9224 46.3204 41.9441 46.7059C41.9658 47.0914 42.0632 47.4689 42.2308 47.8168C42.3984 48.1647 42.6328 48.4762 42.9208 48.7334L43.1127 48.9036L43.2581 49.0244L43.5336 49.2441C43.7162 49.3834 43.8988 49.5133 44.0814 49.6371C44.444 49.8822 44.819 50.1085 45.2049 50.3149C45.9718 50.726 46.7773 51.0608 47.6096 51.3146C48.0274 51.4415 48.4545 51.5467 48.8847 51.6241C49.3149 51.7015 49.7513 51.7664 50.1908 51.8098C51.0704 51.8938 51.9564 51.8834 52.8338 51.7788L53.1619 51.7417C53.4608 51.7052 53.747 51.5992 53.9975 51.4322C54.7163 50.9571 55.3591 50.3759 55.904 49.7083C56.379 49.1286 56.8006 48.5071 57.1636 47.8514C57.5036 47.2352 57.8004 46.5961 58.0519 45.9387C58.1757 45.6292 58.284 45.2888 58.3892 44.9576C58.4944 44.6265 58.5687 44.3077 58.6554 43.9239C58.7094 43.6788 58.7005 43.424 58.6296 43.1832C58.5588 42.9424 58.4281 42.7235 58.2499 42.5467Z" fill="#FFBE9D"/>
<path d="M57.8629 44.5832L56.6621 43.3267C55.9533 41.643 58.2714 41.1045 58.2714 41.1045L59.7199 40.0523C59.9069 39.9396 60.1276 39.8965 60.3432 39.9305C60.5589 39.9645 60.7557 40.0733 60.899 40.2379L61.7439 41.1107C61.9279 41.2799 62.0388 41.514 62.0533 41.7636C62.0677 42.0131 61.9845 42.2584 61.8213 42.4477L60.6143 43.5464C60.3912 43.7662 60.1167 43.9268 59.8158 44.0137L57.8629 44.5832Z" fill="#FFBE9D"/>
<path d="M41.5369 41.8868C44.3223 41.7228 48.4076 44.9291 48.4076 44.9291C48.7945 45.9969 47.8444 49.9646 46.1391 51.6977C46.1391 51.6977 44.18 52.165 42.4654 50.0976C40.6084 47.8476 38.5782 42.057 41.5369 41.8868Z" fill="#FFD801"/>
<path d="M40.9768 41.7975C37.1647 41.4348 33.3242 41.4961 29.5256 41.9801C29.0053 42.0572 28.5062 42.2398 28.0589 42.5165C27.6117 42.7932 27.2255 43.1583 26.9242 43.5894C26.6229 44.0205 26.4127 44.5085 26.3066 45.0237C26.2004 45.5388 26.2005 46.0702 26.3069 46.5853C28.0895 55.5606 26.7556 65.585 27.91 67.5905C27.91 67.5905 40.6271 67.8134 48.027 67.3027C50.0573 57.5599 46.0648 51.5929 44.0593 43.9825C43.7034 42.6826 42.3138 41.9368 40.9768 41.7975Z" fill="#FFD801"/>
<path d="M39.1726 42.4564C38.92 41.9729 38.5124 41.5882 38.0151 41.3639C37.828 40.8801 37.8138 40.3466 37.9749 39.8536L32.3267 38.0554C32.7816 39.9124 33.1406 41.3979 32.4474 42.3047C33.5553 42.9825 35.5918 44.2019 37.8109 44.1369C40.0299 44.0719 39.5347 43.2394 39.1726 42.4564Z" fill="#FFBE9D"/>
<path opacity="0.2" d="M37.9314 40.0301L33.6914 39.7794C35.016 41.1969 37.0246 41.7292 37.9438 41.1536C37.8448 40.7862 37.8405 40.3996 37.9314 40.0301Z" fill="black"/>
<path d="M37.9438 44.1323L37.0153 43.371L35.7773 43.99C35.7773 43.99 36.5851 44.7265 37.9438 44.1323Z" fill="#FFD801"/>
<path d="M31.2248 35.195C31.8995 37.6276 32.4133 39.2648 34.1681 40.0478C37.6561 41.5953 39.2159 39.9519 39.3397 37.3862C39.448 35.0774 38.3277 31.4873 35.5268 30.9674C32.7259 30.4474 30.5501 32.7562 31.2248 35.195Z" fill="#FFBE9D"/>
<path d="M35.9661 34.8742C36.0063 35.0908 36.1548 35.2456 36.2972 35.2177C36.4396 35.1899 36.52 34.9918 36.4798 34.7751C36.4396 34.5585 36.291 34.4068 36.1486 34.4347C36.0063 34.4625 35.9227 34.6575 35.9661 34.8742Z" fill="#263238"/>
<path d="M38.213 34.5152C38.2532 34.7318 38.4018 34.8835 38.541 34.8556C38.6803 34.8278 38.767 34.6297 38.7236 34.4131C38.6803 34.1964 38.538 34.0448 38.3956 34.0726C38.2532 34.1005 38.1728 34.3047 38.213 34.5152Z" fill="#263238"/>
<path d="M37.5137 34.8259L37.8386 36.6488C38.0567 36.6538 38.274 36.6235 38.4824 36.5591C38.5237 36.5439 38.5601 36.5177 38.5877 36.4833C38.6152 36.4489 38.6328 36.4076 38.6385 36.3639C38.6442 36.3203 38.6379 36.2758 38.6202 36.2355C38.6025 36.1952 38.5741 36.1604 38.5381 36.1351C38.1148 35.7695 37.7668 35.3248 37.5137 34.8259Z" fill="#A02724"/>
<path d="M34.6975 34.473C34.6762 34.4789 34.6538 34.4789 34.6325 34.473C34.6018 34.4577 34.5785 34.4309 34.5674 34.3984C34.5564 34.3659 34.5587 34.3304 34.5737 34.2996C34.6604 34.1139 34.7896 33.9513 34.9509 33.8249C35.1123 33.6985 35.3011 33.612 35.5022 33.5723C35.5189 33.5702 35.5358 33.5714 35.552 33.5758C35.5683 33.5803 35.5834 33.5879 35.5967 33.5983C35.6099 33.6086 35.621 33.6215 35.6292 33.6362C35.6374 33.6509 35.6426 33.667 35.6445 33.6838C35.6489 33.7178 35.6397 33.7522 35.6188 33.7795C35.598 33.8067 35.5671 33.8246 35.5331 33.8292C35.3729 33.8617 35.2227 33.9317 35.0947 34.0334C34.9667 34.135 34.8645 34.2655 34.7965 34.4142C34.7857 34.4309 34.7711 34.4449 34.7539 34.4551C34.7367 34.4653 34.7174 34.4714 34.6975 34.473Z" fill="#263238"/>
<path d="M38.965 33.7616C38.9441 33.7649 38.9227 33.763 38.9027 33.756C38.8827 33.749 38.8647 33.7371 38.8505 33.7213C38.7429 33.5999 38.6079 33.5059 38.4566 33.4472C38.3053 33.3885 38.1422 33.3668 37.9809 33.384C37.9472 33.3894 37.9129 33.3814 37.8851 33.3617C37.8573 33.342 37.8384 33.3122 37.8323 33.2787C37.8277 33.2452 37.836 33.2113 37.8555 33.1837C37.8751 33.1561 37.9044 33.137 37.9375 33.1302C38.141 33.106 38.3473 33.131 38.539 33.2032C38.7308 33.2753 38.9023 33.3925 39.0393 33.5449C39.0516 33.5567 39.0613 33.5709 39.068 33.5866C39.0747 33.6023 39.0781 33.6192 39.0781 33.6362C39.0781 33.6533 39.0747 33.6701 39.068 33.6858C39.0613 33.7015 39.0516 33.7157 39.0393 33.7275C39.0193 33.7471 38.993 33.7592 38.965 33.7616Z" fill="#263238"/>
<path d="M37.9438 44.1309L38.9806 43.2024L40.2991 43.5893C40.2991 43.5893 39.3056 44.7251 37.9438 44.1309Z" fill="#FFD801"/>
<path d="M56.2165 42.9398C55.8203 41.5006 56.8354 40.6093 57.3802 39.6777C57.4761 39.5199 57.9589 39.6066 57.9837 39.9377C58.0161 40.1413 58.0071 40.3493 57.9571 40.5493C57.9071 40.7493 57.8172 40.9371 57.6927 41.1014C57.9837 41.4666 58.4169 42.7448 57.3832 43.5773C56.9298 43.5136 56.515 43.287 56.2165 42.9398Z" fill="#FFBE9D"/>
<path d="M38.8752 37.32C38.8752 37.32 37.9467 37.2457 35.3779 37.6295C35.7926 38.3537 36.4426 38.8984 37.7486 38.691C37.9152 38.682 38.0781 38.6384 38.227 38.563C38.3759 38.4876 38.5074 38.3821 38.6134 38.2532C38.7193 38.1243 38.7973 37.9748 38.8423 37.8141C38.8874 37.6535 38.8986 37.4852 38.8752 37.32Z" fill="#263238"/>
<path d="M37.0524 38.1735C37.5509 38.0699 38.0693 38.1251 38.5348 38.3314C38.318 38.5293 38.0437 38.6528 37.7518 38.6842C37.2545 38.7908 36.7361 38.7355 36.2725 38.5264C36.4888 38.3296 36.7618 38.2062 37.0524 38.1735Z" fill="#A02724"/>
<path d="M38.7518 37.316C38.7408 37.4139 38.7028 37.5068 38.6422 37.5844C38.5815 37.662 38.5006 37.7212 38.4082 37.7555C37.6503 37.8687 36.8842 37.9174 36.118 37.901C35.9988 37.9078 35.8797 37.8848 35.7717 37.834C35.6636 37.7832 35.5699 37.7062 35.499 37.6101C36.5741 37.4285 37.6616 37.3302 38.7518 37.316Z" fill="white"/>
<path d="M32.8189 37.3164C32.9824 37.28 33.1365 37.2097 33.2711 37.1099C33.4057 37.0101 33.5177 36.8831 33.6 36.7371C33.6823 36.5912 33.733 36.4296 33.7488 36.2628C33.7646 36.096 33.7451 35.9277 33.6916 35.769C33.3821 34.4815 33.2738 34.0667 33.2738 34.0667L35.6569 31.8291C35.6569 31.8291 35.3722 32.9278 35.9076 32.8566C36.443 32.7855 36.5637 31.8291 36.5637 31.8291C36.5637 31.8291 37.4612 32.8969 38.0152 32.6369C38.5692 32.3769 37.5015 31.4515 37.5015 31.4515C37.5015 31.4515 37.2817 29.8731 34.8213 30.4209C32.3608 30.9687 28.52 34.0049 31.9956 37.5981L32.8189 37.3164Z" fill="#263238"/>
<path d="M30.7235 38.0435C30.9529 38.2901 31.2287 38.489 31.5352 38.6287C31.8416 38.7684 32.1727 38.8461 32.5093 38.8575C33.413 38.8822 33.6513 38.0187 33.2211 37.2791C32.8373 36.6167 31.9027 35.8028 31.0825 36.1339C30.2624 36.4651 30.1633 37.4307 30.7235 38.0435Z" fill="#FFBE9D"/>
<path d="M44.6229 54.2797H37.6903L34.1621 62.769L34.3788 62.9578H41.3145L44.8427 54.4685L44.6229 54.2797Z" fill="#263238"/>
<path opacity="0.4" d="M44.6229 54.2797H37.6903L34.1621 62.769L34.3788 62.9578H41.3145L44.8427 54.4685L44.6229 54.2797Z" fill="white"/>
<path d="M41.3141 62.9586H34.3784L37.9066 54.4692H44.8423L41.3141 62.9586Z" fill="#263238"/>
<path d="M42.8276 54.157H40.1877L39.7822 55.1319L39.872 55.2093H42.515L42.9205 54.2344L42.8276 54.157Z" fill="#407BFF"/>
<path opacity="0.5" d="M42.8276 54.157H40.1877L39.7822 55.1319L39.872 55.2093H42.515L42.9205 54.2344L42.8276 54.157Z" fill="black"/>
<path d="M42.5151 55.2066L42.9206 54.2317H40.2775L39.8721 55.2066H42.5151Z" fill="#407BFF"/>
<path opacity="0.2" d="M42.5151 55.2066L42.9206 54.2317H40.2775L39.8721 55.2066H42.5151Z" fill="white"/>
<path d="M32.3327 59.6061L32.1655 61.3362C32.6421 63.0972 34.8024 62.0914 34.8024 62.0914L36.0404 62.0264C36.257 61.9998 36.4573 61.8977 36.6061 61.7381C36.755 61.5785 36.8429 61.3715 36.8543 61.1536L36.9812 59.9466C37.0221 59.6996 36.9652 59.4464 36.8224 59.2406C36.6797 59.0349 36.4625 58.8929 36.2168 58.8448L35.1459 58.7241C34.8307 58.6885 34.5116 58.7321 34.2175 58.851L32.3327 59.6061Z" fill="#FFBE9D"/>
<path d="M32.8713 59.504L32.7506 59.4792L31.5962 59.2254C31.2031 59.1388 30.8163 59.0428 30.4325 58.9438C29.6981 58.759 28.9748 58.5327 28.2661 58.266C27.6523 58.0484 27.068 57.7552 26.5267 57.3932C26.4176 57.3128 26.3142 57.2249 26.2172 57.1302C26.2702 56.6258 26.3739 56.1281 26.5267 55.6446C26.6357 55.2828 26.7648 54.9273 26.9136 54.58C27.059 54.2178 27.2231 53.8526 27.4088 53.4874C27.7771 52.757 28.1918 52.0174 28.6467 51.2931C28.8696 50.9279 29.111 50.5689 29.3462 50.213L29.7083 49.6869L30.0394 49.2134L30.1509 49.0555C30.6175 48.4313 30.817 47.6472 30.7056 46.8759C30.5942 46.1045 30.1809 45.409 29.5566 44.9424C28.9324 44.4757 28.1484 44.2762 27.377 44.3876C26.6056 44.4991 25.9101 44.9124 25.4435 45.5366L25.134 45.8894L24.8833 46.1989C24.7224 46.4156 24.5738 46.6322 24.416 46.8488C24.1065 47.2821 23.8279 47.7309 23.5525 48.1859C22.9921 49.1081 22.4977 50.0689 22.0731 51.061C21.6177 52.1079 21.2713 53.199 21.0394 54.3169C20.7678 55.5719 20.7248 56.8657 20.9125 58.136L20.9404 58.3217C20.9757 58.5495 21.0478 58.7701 21.1539 58.9747C21.508 59.6505 21.9955 60.2475 22.5869 60.7296C23.0807 61.1342 23.6248 61.4733 24.2055 61.7385C24.7039 61.9655 25.2218 62.1468 25.753 62.2801C26.2423 62.4058 26.7383 62.5039 27.2385 62.5741C28.1785 62.694 29.1266 62.7365 30.0735 62.701C30.5377 62.6855 31.002 62.6484 31.4507 62.602C31.8995 62.5556 32.3421 62.4844 32.8373 62.3884C33.1698 62.3242 33.47 62.1473 33.6874 61.8876C33.9047 61.6279 34.026 61.3012 34.0307 60.9626C34.0355 60.6239 33.9234 60.294 33.7133 60.0283C33.5033 59.7627 33.2081 59.5775 32.8775 59.504H32.8713Z" fill="#FFBE9D"/>
<path d="M28.5384 42.2561C25.9077 43.1846 23.4287 47.6505 23.4287 47.6505C23.5525 49.2723 26.1182 52.9429 27.9473 53.7352C29.2216 52.6424 30.1659 51.2158 30.6739 49.6158C31.491 46.818 29.8754 42.6615 28.5384 42.2561Z" fill="#FFD801"/>
<path d="M36.6887 43.4393C36.1477 43.7812 35.8134 44.259 35.6108 44.6713C35.4923 44.9126 35.4181 45.1328 35.3735 45.293C35.3575 45.3502 35.3453 45.3999 35.3362 45.4403C35.3307 45.4382 35.3249 45.4361 35.3189 45.4338C35.2391 45.4039 35.1237 45.3574 34.9833 45.2918C34.7022 45.1604 34.3213 44.9529 33.9233 44.6487C33.1352 44.0463 32.2821 43.0664 31.9993 41.5464C32.0942 41.4265 32.2142 41.3286 32.3511 41.2597C32.4872 41.1912 32.6363 41.1532 32.7882 41.1481C32.8019 41.1639 32.82 41.1845 32.8423 41.2094C32.8978 41.2711 32.9793 41.359 33.0844 41.4647C33.2946 41.6759 33.5998 41.9586 33.98 42.2451C34.669 42.7641 35.6121 43.3011 36.6887 43.4393Z" fill="#FFD801" stroke="black" stroke-width="0.2"/>
<path d="M38.2171 41.4521C38.497 41.4516 38.7739 41.518 39.0243 41.6469C39.8694 42.2544 40.2455 43.1214 40.4098 43.8441C40.4784 44.1457 40.5097 44.4208 40.5229 44.639C40.4638 44.5162 40.3911 44.3781 40.3045 44.2361C40.0396 43.8012 39.6335 43.3099 39.075 43.1259C39.0318 42.7284 38.7915 42.2822 38.5678 41.939C38.4475 41.7544 38.3285 41.5944 38.2396 41.4807C38.2319 41.4708 38.2243 41.4612 38.2171 41.4521Z" fill="#FFD801" stroke="black" stroke-width="0.2"/>
<path d="M33.4499 110.905L33.3353 110.286C33.3228 110.218 33.2923 110.155 33.2471 110.103C33.2019 110.052 33.1437 110.013 33.0785 109.992L30.3766 109.106C29.1702 109.433 27.903 109.466 26.6813 109.202L26.1118 110.852C26.0899 110.911 26.0829 110.975 26.0914 111.037C26.1 111.1 26.1239 111.159 26.1609 111.211C26.1979 111.262 26.247 111.303 26.3038 111.33C26.3605 111.358 26.4232 111.371 26.4863 111.369H33.0723C33.1299 111.37 33.187 111.358 33.2392 111.333C33.2914 111.309 33.3374 111.273 33.3738 111.228C33.4102 111.184 33.4359 111.131 33.4491 111.075C33.4622 111.019 33.4625 110.961 33.4499 110.905Z" fill="#263238"/>
<path d="M31.2279 109.402C30.9294 109.394 30.6325 109.353 30.3428 109.281C30.3285 109.278 30.3157 109.27 30.3062 109.259C30.2967 109.248 30.2911 109.234 30.2902 109.219C30.2894 109.204 30.2924 109.189 30.2989 109.176C30.3054 109.162 30.3151 109.15 30.3273 109.142C30.4418 109.067 31.4507 108.417 31.8469 108.578C31.8914 108.597 31.93 108.627 31.9584 108.665C31.9869 108.704 32.004 108.75 32.0078 108.798C32.0231 108.875 32.019 108.954 31.9957 109.029C31.9725 109.103 31.9309 109.171 31.8748 109.225C31.6863 109.358 31.4575 109.42 31.2279 109.402ZM30.5687 109.166C31.1598 109.287 31.6024 109.269 31.7726 109.114C31.8082 109.077 31.8342 109.032 31.8483 108.983C31.8623 108.934 31.864 108.882 31.8531 108.832C31.8518 108.809 31.8439 108.786 31.8302 108.767C31.8165 108.748 31.7976 108.733 31.7757 108.724C31.5622 108.637 30.9803 108.919 30.5687 109.166Z" fill="#407BFF"/>
<path d="M30.3612 109.285C30.3501 109.289 30.3383 109.289 30.3272 109.285C30.3158 109.28 30.3063 109.271 30.2997 109.26C30.2932 109.249 30.2898 109.236 30.2901 109.223C30.2901 109.18 30.2901 108.214 30.6645 107.89C30.7101 107.847 30.7646 107.815 30.824 107.796C30.8835 107.778 30.9464 107.772 31.0081 107.781C31.0729 107.782 31.1352 107.806 31.1835 107.85C31.2318 107.893 31.2629 107.952 31.2711 108.016C31.3145 108.382 30.7543 109.084 30.4015 109.282C30.3887 109.287 30.3746 109.288 30.3612 109.285ZM30.94 107.924C30.8747 107.923 30.8116 107.947 30.7636 107.992C30.5438 108.187 30.4541 108.741 30.4541 109.059C30.7636 108.812 31.1473 108.279 31.1164 108.041C31.1164 107.995 31.0916 107.939 30.9771 107.927L30.94 107.924Z" fill="#407BFF"/>
<path d="M47.5751 110.635L47.5163 110.016C47.5062 109.948 47.479 109.884 47.4373 109.83C47.3956 109.776 47.3408 109.733 47.278 109.706L44.6009 108.561C43.3415 108.779 42.0483 108.694 40.8282 108.313L40.1009 109.951C40.0764 110.007 40.0653 110.068 40.0684 110.129C40.0714 110.19 40.0887 110.25 40.1186 110.303C40.1486 110.356 40.1906 110.402 40.2412 110.437C40.2918 110.471 40.3497 110.493 40.4104 110.502L47.1357 111.09C47.1968 111.098 47.2592 111.093 47.3176 111.073C47.376 111.053 47.4289 111.019 47.4718 110.975C47.5147 110.93 47.5465 110.876 47.5644 110.817C47.5824 110.758 47.5861 110.695 47.5751 110.635Z" fill="#263238"/>
<path d="M45.4429 108.892C45.1391 108.859 44.84 108.792 44.5515 108.691C44.5368 108.687 44.524 108.678 44.515 108.665C44.506 108.653 44.5014 108.638 44.502 108.623C44.5024 108.607 44.507 108.592 44.5151 108.579C44.5233 108.566 44.5348 108.556 44.5484 108.549C44.6722 108.48 45.7585 107.908 46.1485 108.109C46.1924 108.131 46.2293 108.165 46.255 108.208C46.2807 108.25 46.2942 108.298 46.294 108.347C46.3035 108.427 46.2923 108.508 46.2614 108.583C46.2305 108.657 46.181 108.722 46.1175 108.771C45.9143 108.891 45.6749 108.934 45.4429 108.892ZM44.7898 108.583C45.3841 108.759 45.839 108.781 46.0278 108.635C46.0679 108.602 46.0989 108.559 46.1178 108.51C46.1368 108.461 46.143 108.408 46.1361 108.357C46.1375 108.333 46.1318 108.309 46.1197 108.288C46.1076 108.267 46.0896 108.25 46.068 108.239C45.87 108.152 45.2324 108.388 44.7898 108.604V108.583Z" fill="#407BFF"/>
<path d="M44.5697 108.703C44.5577 108.707 44.5446 108.707 44.5326 108.703C44.5216 108.697 44.5128 108.687 44.5073 108.676C44.5018 108.664 44.4998 108.651 44.5016 108.638C44.5016 108.595 44.6007 107.611 45.0061 107.311C45.0563 107.272 45.1145 107.244 45.1766 107.23C45.2387 107.216 45.303 107.216 45.3651 107.23C45.4312 107.237 45.4926 107.267 45.5381 107.316C45.5836 107.364 45.6101 107.427 45.6127 107.493C45.6127 107.874 44.9937 108.536 44.61 108.71C44.5962 108.712 44.5821 108.71 44.5697 108.703ZM45.2816 107.366C45.2148 107.36 45.1483 107.38 45.0959 107.422C44.8545 107.602 44.7276 108.159 44.6811 108.484C45.0216 108.258 45.458 107.75 45.4487 107.503C45.4487 107.453 45.4301 107.397 45.3187 107.373L45.2816 107.366Z" fill="#407BFF"/>
<path d="M59.4878 40.4196C59.4878 40.4196 59.2186 39.2652 59.1195 38.6896C59.0948 38.5379 59.0422 38.442 58.9648 38.4141C58.8874 38.3862 58.6863 38.4822 58.6863 38.4822L58.6089 38.3801C58.6655 38.3358 58.7314 38.305 58.8016 38.29C58.8719 38.275 58.9446 38.2761 59.0143 38.2934C59.0823 38.3301 59.1396 38.384 59.1803 38.4497C59.221 38.5154 59.2438 38.5906 59.2464 38.6679C59.3424 39.2374 59.6116 40.3763 59.6147 40.3887L59.4878 40.4196Z" fill="#263238"/>
<path d="M58.3558 37.5195L58.1499 37.5632L58.3713 38.6046L58.5771 38.5609L58.3558 37.5195Z" fill="#263238"/>
<path d="M59.5405 41.4545C59.9676 43.4693 60.1192 45.1405 59.8809 45.1932C59.6426 45.2458 59.0979 43.6457 58.6677 41.6402C58.2375 39.6347 58.089 37.9541 58.3304 37.9015C58.5718 37.8489 59.1134 39.4428 59.5405 41.4545Z" fill="#407BFF"/>
<path opacity="0.5" d="M59.5405 41.4545C59.9676 43.4693 60.1192 45.1405 59.8809 45.1932C59.6426 45.2458 59.0979 43.6457 58.6677 41.6402C58.2375 39.6347 58.089 37.9541 58.3304 37.9015C58.5718 37.8489 59.1134 39.4428 59.5405 41.4545Z" fill="black"/>
<path opacity="0.5" d="M58.3425 39.8198L59.0976 39.6588C59.0698 39.5629 59.045 39.47 59.0172 39.3772L58.3022 39.5288C58.3146 39.6248 58.327 39.7207 58.3425 39.8198Z" fill="white"/>
<path d="M132.496 52.6877L133.734 52.8838L133.93 51.6458L132.692 51.4497L132.496 52.6877Z" fill="#263238"/>
<path opacity="0.5" d="M132.496 52.6877L133.734 52.8838L133.93 51.6458L132.692 51.4497L132.496 52.6877Z" fill="white"/>
<path opacity="0.3" d="M132.692 51.4455L132.584 52.1272L133.822 52.3233L133.93 51.6416L132.692 51.4455Z" fill="black"/>
<path d="M132.488 51.7706L134.029 52.0146C134.201 52.0419 134.363 51.9244 134.39 51.7522L134.483 51.1683C134.51 50.9961 134.392 50.8344 134.22 50.8071L132.68 50.5631C132.507 50.5358 132.346 50.6533 132.318 50.8255L132.226 51.4094C132.199 51.5816 132.316 51.7433 132.488 51.7706Z" fill="#263238"/>
<path opacity="0.5" d="M132.488 51.7706L134.029 52.0146C134.201 52.0419 134.363 51.9244 134.39 51.7522L134.483 51.1683C134.51 50.9961 134.392 50.8344 134.22 50.8071L132.68 50.5631C132.507 50.5358 132.346 50.6533 132.318 50.8255L132.226 51.4094C132.199 51.5816 132.316 51.7433 132.488 51.7706Z" fill="white"/>
<path d="M129.803 53.4135L130.889 53.1022L130.577 52.0163L129.491 52.3277L129.803 53.4135Z" fill="#263238"/>
<path opacity="0.5" d="M129.803 53.4135L130.889 53.1022L130.577 52.0163L129.491 52.3277L129.803 53.4135Z" fill="white"/>
<path opacity="0.3" d="M130.579 52.0227L129.493 52.3341L129.664 52.9321L130.75 52.6207L130.579 52.0227Z" fill="black"/>
<path d="M129.48 52.666L130.768 52.2966C130.936 52.2486 131.033 52.0737 130.985 51.9061L130.855 51.4539C130.807 51.2863 130.632 51.1894 130.465 51.2375L129.176 51.6069C129.009 51.6549 128.912 51.8298 128.96 51.9973L129.09 52.4496C129.138 52.6171 129.313 52.714 129.48 52.666Z" fill="#263238"/>
<path opacity="0.5" d="M129.48 52.666L130.768 52.2966C130.936 52.2486 131.033 52.0737 130.985 51.9061L130.855 51.4539C130.807 51.2863 130.632 51.1894 130.465 51.2375L129.176 51.6069C129.009 51.6549 128.912 51.8298 128.96 51.9973L129.09 52.4496C129.138 52.6171 129.313 52.714 129.48 52.666Z" fill="white"/>
<path d="M136.667 53.4657L135.731 52.834L135.099 53.7705L136.036 54.4022L136.667 53.4657Z" fill="#263238"/>
<path opacity="0.5" d="M136.667 53.4657L135.731 52.834L135.099 53.7705L136.036 54.4022L136.667 53.4657Z" fill="white"/>
<path opacity="0.3" d="M135.734 52.8355L135.386 53.3512L136.322 53.9829L136.67 53.4672L135.734 52.8355Z" fill="black"/>
<path d="M137.194 52.873L136.083 52.1237C135.938 52.0262 135.742 52.0643 135.644 52.2089L135.381 52.5989C135.284 52.7434 135.322 52.9396 135.466 53.0371L136.577 53.7865C136.722 53.884 136.918 53.8458 137.016 53.7013L137.279 53.3113C137.376 53.1667 137.338 52.9705 137.194 52.873Z" fill="#263238"/>
<path opacity="0.5" d="M137.194 52.873L136.083 52.1237C135.938 52.0262 135.742 52.0643 135.644 52.2089L135.381 52.5989C135.284 52.7434 135.322 52.9396 135.466 53.0371L136.577 53.7865C136.722 53.884 136.918 53.8458 137.016 53.7013L137.279 53.3113C137.376 53.1667 137.338 52.9705 137.194 52.873Z" fill="white"/>
<path d="M133.091 61.8775C135.647 61.5004 137.414 59.122 137.037 56.5652C136.66 54.0085 134.282 52.2415 131.725 52.6186C129.168 52.9957 127.401 55.3741 127.778 57.9308C128.156 60.4876 130.534 62.2546 133.091 61.8775Z" fill="#263238"/>
<path d="M136.139 57.3213C136.182 55.262 134.547 53.5583 132.488 53.5159C130.428 53.4735 128.725 55.1084 128.682 57.1677C128.64 59.2269 130.275 60.9306 132.334 60.973C134.393 61.0155 136.097 59.3805 136.139 57.3213Z" fill="#407BFF"/>
<path d="M136.139 57.3213C136.182 55.262 134.547 53.5583 132.488 53.5159C130.428 53.4735 128.725 55.1084 128.682 57.1677C128.64 59.2269 130.275 60.9306 132.334 60.973C134.393 61.0155 136.097 59.3805 136.139 57.3213Z" fill="white"/>
<path d="M130.216 57.1033L132.583 57.4778L133.044 54.5531C133.052 54.4994 133.039 54.4447 133.007 54.4007C132.975 54.3567 132.928 54.327 132.874 54.3179C132.847 54.313 132.82 54.3137 132.793 54.3199C132.766 54.3261 132.741 54.3377 132.719 54.3539C132.697 54.3701 132.679 54.3907 132.665 54.4143C132.651 54.4379 132.642 54.464 132.639 54.4912L132.24 57.0043L130.281 56.6948C130.226 56.6858 130.171 56.6987 130.126 56.7306C130.082 56.7625 130.051 56.8108 130.042 56.865C130.034 56.9195 130.048 56.975 130.08 57.0195C130.113 57.0641 130.161 57.0942 130.216 57.1033Z" fill="#263238"/>
<path d="M134.192 61.5693L134.449 62.5845H135.158V60.9039L134.192 61.4827V61.5693Z" fill="#263238"/>
<path d="M130.674 61.5693L130.417 62.5845H129.708V60.9039L130.674 61.4827V61.5693Z" fill="#263238"/>
<path d="M133.784 62.5857H114.144V101.628H133.784V62.5857Z" fill="#407BFF"/>
<path d="M133.784 62.5857H114.144V101.628H133.784V62.5857Z" fill="#DADADA"/>
<path d="M137.529 62.5857H133.784V101.628H137.529V62.5857Z" fill="#D9D9D9"/>
<path d="M132.509 65.4819H115.521V74.9617H132.509V65.4819Z" fill="#E6E6E6"/>
<path d="M121.8 65.4819L121.875 66.7447C121.899 67.1625 122.131 67.4813 122.413 67.4813H125.616C125.898 67.4813 126.13 67.1718 126.155 66.7447L126.229 65.4819H121.8Z" fill="#CBCBCB"/>
<path d="M132.509 75.9979H115.521V85.4777H132.509V75.9979Z" fill="#E6E6E6"/>
<path d="M121.8 75.9979L121.875 77.2606C121.899 77.6785 122.131 77.9972 122.413 77.9972H125.616C125.898 77.9972 126.13 77.6877 126.155 77.2606L126.229 75.9979H121.8Z" fill="#CBCBCB"/>
<path d="M132.509 86.5159H115.521V95.9956H132.509V86.5159Z" fill="#E6E6E6"/>
<path d="M121.8 86.5159L121.875 87.7786C121.899 88.1964 122.131 88.5152 122.413 88.5152H125.616C125.898 88.5152 126.13 88.2057 126.155 87.7786L126.229 86.5159H121.8Z" fill="#CBCBCB"/>
</svg>
