<svg width="154" height="154" viewBox="0 0 154 154" fill="none" xmlns="http://www.w3.org/2000/svg">
<g clip-path="url(#clip0_1514_52031)">
<path d="M136.935 107.171H81.6374C81.1621 107.17 80.7064 106.981 80.3703 106.645C80.0342 106.309 79.845 105.853 79.8442 105.378V24.814C79.8459 24.3392 80.0354 23.8844 80.3714 23.5489C80.7074 23.2135 81.1626 23.0247 81.6374 23.0239H136.935C137.409 23.0247 137.865 23.2135 138.201 23.5489C138.537 23.8844 138.726 24.3392 138.728 24.814V105.378C138.727 105.853 138.538 106.309 138.202 106.645C137.866 106.981 137.41 107.17 136.935 107.171ZM81.6374 23.1004C81.4112 23.0988 81.1869 23.1419 80.9774 23.2273C80.7679 23.3126 80.5774 23.4386 80.4167 23.5978C80.256 23.757 80.1284 23.9465 80.0412 24.1552C79.954 24.3639 79.9089 24.5878 79.9085 24.814V105.378C79.9085 105.833 80.0894 106.27 80.4113 106.592C80.7332 106.914 81.1699 107.094 81.6252 107.094H136.935C137.39 107.094 137.827 106.914 138.149 106.592C138.47 106.27 138.651 105.833 138.651 105.378V24.814C138.651 24.3587 138.47 23.9221 138.149 23.6002C137.827 23.2782 137.39 23.0974 136.935 23.0974L81.6374 23.1004Z" fill="#F0F0F0"/>
<path d="M73.1554 107.171H17.8459C17.3706 107.17 16.9149 106.981 16.5788 106.645C16.2427 106.309 16.0535 105.853 16.0527 105.378V24.814C16.0535 24.3387 16.2427 23.8831 16.5788 23.547C16.9149 23.2109 17.3706 23.0217 17.8459 23.0209H73.1554C73.6307 23.0217 74.0863 23.2109 74.4225 23.547C74.7586 23.8831 74.9477 24.3387 74.9486 24.814V105.378C74.9477 105.853 74.7586 106.309 74.4225 106.645C74.0863 106.981 73.6307 107.17 73.1554 107.171ZM17.8459 23.1004C17.3911 23.1004 16.955 23.2809 16.6331 23.6022C16.3113 23.9234 16.13 24.3593 16.1292 24.814V105.378C16.1292 105.833 16.3101 106.27 16.632 106.592C16.954 106.914 17.3906 107.094 17.8459 107.094H73.1554C73.6107 107.094 74.0473 106.914 74.3693 106.592C74.6912 106.27 74.8721 105.833 74.8721 105.378V24.814C74.8721 24.3587 74.6912 23.9221 74.3693 23.6002C74.0473 23.2782 73.6107 23.0974 73.1554 23.0974L17.8459 23.1004Z" fill="#F0F0F0"/>
<path d="M154.095 125.858H1.09521V125.935H154.095V125.858Z" fill="#E0E0E0"/>
<path d="M144.796 89.5116H86.6558C86.6558 89.9839 86.8434 90.4369 87.1774 90.7709C87.5114 91.1049 87.9644 91.2925 88.4367 91.2925H143.012C143.484 91.2925 143.938 91.105 144.272 90.7711C144.607 90.4372 144.795 89.9842 144.796 89.5116Z" fill="#E0E0E0"/>
<path d="M133.376 106.366H98.5991V108.015H133.376V106.366Z" fill="#E0E0E0"/>
<path d="M132.146 125.88L136.886 91.2925H135.221L130.481 125.88H132.146Z" fill="#E6E6E6"/>
<path d="M136.041 125.88L131.225 91.2925H132.889L137.706 125.88H136.041Z" fill="#E6E6E6"/>
<path d="M95.94 125.88L100.882 91.2925H99.2173L94.2754 125.88H95.94Z" fill="#E6E6E6"/>
<path d="M99.8352 125.88L95.0952 91.2925H96.7599L101.5 125.88H99.8352Z" fill="#E6E6E6"/>
<path d="M146.745 86.6505H84.7036V89.5208H146.745V86.6505Z" fill="#E6E6E6"/>
<path d="M107.063 86.6597H133.991L134.269 86.014C134.453 85.6009 133.963 85.1848 133.309 85.1848H108.477C108.289 85.1682 108.1 85.2034 107.931 85.2865C107.761 85.3695 107.618 85.4973 107.516 85.656L107.063 86.6597Z" fill="#E0E0E0"/>
<path d="M141.369 67.9202L137.923 82.495C137.879 82.6838 137.772 82.8521 137.619 82.9726C137.467 83.0931 137.279 83.1587 137.085 83.159H115.855C115.725 83.1587 115.597 83.1291 115.48 83.0725C115.363 83.0158 115.261 82.9336 115.18 82.8318C115.099 82.73 115.043 82.6114 115.015 82.4848C114.986 82.3581 114.987 82.2267 115.016 82.1002L118.462 67.5224C118.507 67.3341 118.614 67.1666 118.766 67.0467C118.919 66.9268 119.107 66.8616 119.3 66.8615H140.53C140.66 66.8612 140.789 66.8904 140.906 66.9468C141.023 67.0033 141.126 67.0856 141.206 67.1875C141.287 67.2894 141.344 67.4083 141.372 67.5352C141.4 67.6621 141.399 67.7937 141.369 67.9202Z" fill="#F0F0F0"/>
<path d="M131.054 75.5794C130.996 76.0299 130.779 76.4449 130.443 76.7496C130.106 77.0543 129.672 77.2286 129.218 77.241C129.006 77.2457 128.796 77.2044 128.602 77.1199C128.408 77.0355 128.235 76.9099 128.095 76.7518C127.954 76.5938 127.849 76.4071 127.788 76.2047C127.727 76.0022 127.71 75.7889 127.74 75.5794C127.797 75.129 128.014 74.7139 128.351 74.4092C128.687 74.1045 129.122 73.9302 129.576 73.9178C129.787 73.9131 129.997 73.9545 130.191 74.0389C130.385 74.1234 130.558 74.249 130.699 74.407C130.839 74.565 130.944 74.7517 131.005 74.9542C131.066 75.1566 131.083 75.37 131.054 75.5794Z" fill="#E0E0E0"/>
<path d="M120.142 66.8615L116.47 83.159H115.858C115.728 83.1587 115.6 83.1291 115.483 83.0725C115.366 83.0158 115.264 82.9336 115.183 82.8318C115.102 82.73 115.046 82.6114 115.017 82.4848C114.989 82.3581 114.99 82.2267 115.019 82.1002L118.465 67.5224C118.51 67.3341 118.617 67.1666 118.769 67.0467C118.921 66.9268 119.109 66.8616 119.303 66.8615H120.142Z" fill="#E0E0E0"/>
<path d="M126.292 83.1591L125.567 86.6199H127.694L128.419 83.1591H126.292Z" fill="#E0E0E0"/>
<path d="M122.464 86.0354L122.898 85.4234C122.975 85.3153 123.076 85.2272 123.194 85.1665C123.312 85.1058 123.442 85.0743 123.575 85.0746H129.407C129.558 85.0745 129.707 85.1159 129.836 85.1941C129.966 85.2723 130.071 85.3844 130.141 85.5183L130.447 86.0813C130.478 86.1413 130.493 86.2083 130.491 86.2757C130.489 86.3431 130.469 86.4088 130.434 86.4665C130.399 86.5242 130.35 86.572 130.291 86.6053C130.232 86.6386 130.166 86.6562 130.099 86.6566H122.785C122.713 86.6573 122.641 86.6379 122.579 86.6005C122.517 86.5632 122.467 86.5093 122.433 86.4449C122.4 86.3805 122.385 86.3081 122.391 86.2358C122.396 86.1635 122.421 86.0942 122.464 86.0354Z" fill="#E0E0E0"/>
<path d="M113.795 39.7468L113.621 39.4683L123.865 33.0117L133.863 39.6121L133.679 39.8875L123.862 33.4034L113.795 39.7468Z" fill="#F0F0F0"/>
<path d="M134.08 39.4836H113.443V52.3907H134.08V39.4836Z" fill="#E0E0E0"/>
<path d="M133.507 51.8185V40.0559H114.015V51.8185H133.507Z" fill="white"/>
<path d="M116.784 43.7432H115.539V44.9886H116.784V43.7432Z" fill="#F0F0F0"/>
<path d="M118.706 43.7432H117.461V44.9886H118.706V43.7432Z" fill="#F0F0F0"/>
<path d="M120.625 43.7432H119.379V44.9886H120.625V43.7432Z" fill="#F0F0F0"/>
<path d="M122.547 43.7432H121.301V44.9886H122.547V43.7432Z" fill="#F0F0F0"/>
<path d="M124.465 43.7432H123.22V44.9886H124.465V43.7432Z" fill="#F0F0F0"/>
<path d="M126.387 43.7432H125.142V44.9886H126.387V43.7432Z" fill="#F0F0F0"/>
<path d="M128.305 43.7432H127.06V44.9886H128.305V43.7432Z" fill="#F0F0F0"/>
<path d="M130.227 43.7432H128.982V44.9886H130.227V43.7432Z" fill="#F0F0F0"/>
<path d="M132.146 43.7432H130.9V44.9886H132.146V43.7432Z" fill="#F0F0F0"/>
<path d="M116.784 45.4568H115.539V46.7022H116.784V45.4568Z" fill="#F0F0F0"/>
<path d="M118.706 45.4568H117.461V46.7022H118.706V45.4568Z" fill="#F0F0F0"/>
<path d="M120.625 45.4568H119.379V46.7022H120.625V45.4568Z" fill="#F0F0F0"/>
<path d="M122.547 45.4568H121.301V46.7022H122.547V45.4568Z" fill="#F0F0F0"/>
<path d="M124.465 45.4568H123.22V46.7022H124.465V45.4568Z" fill="#F0F0F0"/>
<path d="M126.387 45.4568H125.142V46.7022H126.387V45.4568Z" fill="#F0F0F0"/>
<path d="M128.305 45.4568H127.06V46.7022H128.305V45.4568Z" fill="#F0F0F0"/>
<path d="M130.227 45.4568H128.982V46.7022H130.227V45.4568Z" fill="#F0F0F0"/>
<path d="M132.146 45.4568H130.9V46.7022H132.146V45.4568Z" fill="#F0F0F0"/>
<path d="M116.784 47.1704H115.539V48.4158H116.784V47.1704Z" fill="#F0F0F0"/>
<path d="M118.706 47.1704H117.461V48.4158H118.706V47.1704Z" fill="#F0F0F0"/>
<path d="M120.625 47.1704H119.379V48.4158H120.625V47.1704Z" fill="#F0F0F0"/>
<path d="M122.547 47.1704H121.301V48.4158H122.547V47.1704Z" fill="#F0F0F0"/>
<path d="M124.465 47.1704H123.22V48.4158H124.465V47.1704Z" fill="#F0F0F0"/>
<path d="M126.387 47.1704H125.142V48.4158H126.387V47.1704Z" fill="#F0F0F0"/>
<path d="M128.305 47.1704H127.06V48.4158H128.305V47.1704Z" fill="#F0F0F0"/>
<path d="M130.227 47.1704H128.982V48.4158H130.227V47.1704Z" fill="#F0F0F0"/>
<path d="M132.146 47.1704H130.9V48.4158H132.146V47.1704Z" fill="#F0F0F0"/>
<path d="M116.784 49.0156H115.539V50.261H116.784V49.0156Z" fill="#F0F0F0"/>
<path d="M118.706 49.0156H117.461V50.261H118.706V49.0156Z" fill="#F0F0F0"/>
<path d="M120.625 49.0156H119.379V50.261H120.625V49.0156Z" fill="#F0F0F0"/>
<path d="M122.547 49.0156H121.301V50.261H122.547V49.0156Z" fill="#F0F0F0"/>
<path d="M129.383 41.2064H118.302V42.2835H129.383V41.2064Z" fill="#E0E0E0"/>
<path d="M124.523 33.1281C124.523 33.2492 124.487 33.3675 124.42 33.4681C124.353 33.5688 124.257 33.6472 124.146 33.6935C124.034 33.7398 123.911 33.752 123.792 33.7284C123.673 33.7047 123.564 33.6465 123.479 33.5609C123.393 33.4753 123.335 33.3662 123.311 33.2475C123.287 33.1288 123.3 33.0057 123.346 32.8939C123.392 32.7821 123.471 32.6865 123.571 32.6193C123.672 32.552 123.79 32.5161 123.911 32.5161C124.074 32.5161 124.229 32.5806 124.344 32.6954C124.459 32.8101 124.523 32.9658 124.523 33.1281Z" fill="#E0E0E0"/>
<path d="M105.854 26.7755H84.3364V79.0556H105.854V26.7755Z" fill="#F0F0F0"/>
<path d="M104.541 28.0913H85.6489V77.7459H104.541V28.0913Z" fill="#FAFAFA"/>
<path d="M104.541 30.218V33.9665L85.6489 52.862V49.1105L104.541 30.218Z" fill="white"/>
<path d="M104.541 43.1832V48.4709L85.6489 67.3603V62.0695L104.541 43.1832Z" fill="white"/>
<path d="M95.7473 26.7755H94.4468V79.0556H95.7473V26.7755Z" fill="#F0F0F0"/>
<path d="M68.0326 26.7755H46.5146V79.0556H68.0326V26.7755Z" fill="#F0F0F0"/>
<path d="M66.7201 28.0913H47.8276V77.7459H66.7201V28.0913Z" fill="#FAFAFA"/>
<path d="M66.7201 30.218V33.9665L47.8276 52.862V49.1105L66.7201 30.218Z" fill="white"/>
<path d="M66.7201 43.1832V48.4709L47.8276 67.3603V62.0695L66.7201 43.1832Z" fill="white"/>
<path d="M57.9226 26.7755H56.6221V79.0556H57.9226V26.7755Z" fill="#F0F0F0"/>
<path d="M53.2223 118.875C53.2223 118.875 50.6213 119.454 51.0069 117.651C51.3924 115.849 51.3649 115.167 50.3092 114.344C49.2535 113.52 48.1886 113.12 48.9964 111.804C49.8043 110.488 48.2712 109.484 47.4664 108.78C46.6617 108.077 47.5705 107.556 47.7724 106.219C47.9744 104.882 46.5484 105.09 46.4383 103.416C46.3281 101.742 48.0264 99.7871 46.5668 97.4829C46.5668 97.4829 48.5283 98.5019 49.1739 100.289C49.8196 102.076 49.2994 103.459 50.4591 104.138C51.6189 104.818 52.3441 105.996 51.9493 107.198C51.5546 108.401 52.1146 109.034 53.0662 109.925C54.0179 110.815 53.7639 111.149 53.6476 112.232C53.5314 113.315 53.767 113.055 54.8533 114.524C55.9396 115.993 55.9885 118.395 53.2223 118.875Z" fill="#F0F0F0"/>
<path d="M53.5926 118.796C53.5916 118.787 53.5916 118.777 53.5926 118.768L48.3906 102.973C48.3854 102.956 48.3834 102.939 48.3847 102.923C48.386 102.906 48.3906 102.889 48.3983 102.874C48.406 102.859 48.4165 102.846 48.4294 102.835C48.4423 102.824 48.4572 102.816 48.4732 102.81C48.4891 102.805 48.5059 102.803 48.5225 102.804C48.5391 102.806 48.5554 102.81 48.5702 102.818C48.585 102.826 48.5981 102.836 48.6088 102.849C48.6195 102.862 48.6275 102.877 48.6324 102.893L53.8344 118.686C53.8356 118.699 53.8356 118.712 53.8344 118.725L53.5926 118.796Z" fill="#E0E0E0"/>
<path d="M57.9131 118.845C57.9131 118.845 60.5019 119.417 60.1163 117.621C59.7308 115.825 59.7614 115.151 60.811 114.331C61.8605 113.511 62.9224 113.107 62.1145 111.807C61.3067 110.506 62.8397 109.497 63.6445 108.799C64.4493 108.101 63.5405 107.575 63.3385 106.25C63.1366 104.925 64.5625 105.127 64.6635 103.462C64.7645 101.798 63.0845 99.8514 64.538 97.5594C64.538 97.5594 62.5858 98.5723 61.9432 100.353C61.3006 102.134 61.8177 103.505 60.6641 104.181C59.5105 104.858 58.7883 106.017 59.183 107.241C59.5778 108.465 59.0178 109.077 58.0723 109.952C57.1267 110.828 57.3776 111.176 57.4939 112.247C57.6102 113.318 57.3746 113.064 56.2944 114.527C55.2142 115.99 55.1622 118.364 57.9131 118.845Z" fill="#F0F0F0"/>
<path d="M57.3074 118.695C57.3057 118.682 57.3057 118.668 57.3074 118.655L62.4849 102.945C62.4898 102.929 62.4978 102.914 62.5085 102.901C62.5192 102.888 62.5323 102.878 62.5471 102.87C62.562 102.863 62.5782 102.858 62.5948 102.856C62.6114 102.855 62.6282 102.857 62.6441 102.862C62.6601 102.868 62.6751 102.876 62.6879 102.887C62.7008 102.898 62.7114 102.911 62.719 102.926C62.7267 102.941 62.7313 102.958 62.7326 102.975C62.734 102.991 62.7319 103.008 62.7267 103.025L57.5492 118.735C57.5509 118.745 57.5509 118.755 57.5492 118.765L57.3074 118.695Z" fill="#E0E0E0"/>
<path d="M55.0432 118.514C55.0432 118.514 52.0658 118.27 53.0817 116.455C54.0977 114.64 54.2904 113.912 53.4306 112.679C52.5707 111.446 51.5701 110.653 52.8706 109.524C54.1711 108.395 52.8706 106.798 52.2586 105.782C51.6466 104.766 52.7788 104.493 53.4428 103.141C54.1068 101.788 52.5248 101.528 52.9471 99.6984C53.3694 97.8685 55.8541 96.3324 55.0554 93.3856C55.0554 93.3856 56.818 95.1268 56.9159 97.2565C57.0138 99.3863 55.9979 100.693 57.0138 101.807C58.0298 102.921 58.4153 104.42 57.5922 105.583C56.769 106.746 57.1577 107.615 57.8982 108.872C58.6387 110.13 58.2378 110.424 57.7544 111.534C57.2709 112.645 57.6075 112.452 58.2868 114.393C58.9661 116.333 58.1644 118.918 55.0432 118.514Z" fill="#F5F5F5"/>
<path d="M55.4652 118.551C55.4634 118.54 55.4634 118.528 55.4652 118.517L55.1377 99.8727C55.1373 99.8536 55.1407 99.8345 55.1478 99.8167C55.1548 99.7989 55.1654 99.7827 55.1788 99.769C55.1922 99.7553 55.2081 99.7445 55.2258 99.7371C55.2434 99.7296 55.2624 99.7258 55.2815 99.7258C55.3192 99.7258 55.3553 99.7405 55.3822 99.7669C55.4091 99.7932 55.4246 99.829 55.4254 99.8666L55.7528 118.511C55.7558 118.526 55.7558 118.542 55.7528 118.557L55.4652 118.551Z" fill="#E0E0E0"/>
<path d="M63.1459 117.076H48.5894C48.4937 117.079 48.3999 117.104 48.3156 117.149C48.2313 117.195 48.1588 117.259 48.1041 117.338C48.0493 117.416 48.0137 117.507 48.0002 117.602C47.9868 117.696 47.9957 117.793 48.0264 117.884L48.2437 118.456L48.3783 118.82L48.77 119.858L48.9077 120.219L49.3085 121.284L49.4432 121.645L51.0466 125.898H60.6887L62.2921 121.645L62.4268 121.284L62.8276 120.219L62.9653 119.858L63.357 118.82L63.4916 118.456L63.7089 117.884C63.7396 117.793 63.7485 117.696 63.7351 117.602C63.7216 117.507 63.686 117.416 63.6312 117.338C63.5765 117.259 63.504 117.195 63.4197 117.149C63.3354 117.104 63.2416 117.079 63.1459 117.076Z" fill="#E6E6E6"/>
<path d="M28.3661 39.6214C31.2644 39.6214 33.614 37.2718 33.614 34.3735C33.614 31.4752 31.2644 29.1256 28.3661 29.1256C25.4677 29.1256 23.1182 31.4752 23.1182 34.3735C23.1182 37.2718 25.4677 39.6214 28.3661 39.6214Z" fill="#E0E0E0"/>
<path d="M33.1374 35.1795C33.5795 32.5462 31.8031 30.0531 29.1698 29.611C26.5365 29.1689 24.0433 30.9453 23.6013 33.5786C23.1592 36.2119 24.9355 38.7051 27.5689 39.1471C30.2022 39.5892 32.6953 37.8129 33.1374 35.1795Z" fill="#FAFAFA"/>
<path d="M28.3812 29.9762H28.2007V30.986H28.3812V29.9762Z" fill="#E0E0E0"/>
<path d="M28.3812 37.7334H28.2007V38.7432H28.3812V37.7334Z" fill="#E0E0E0"/>
<path d="M24.9175 34.2694H23.9077V34.4499H24.9175V34.2694Z" fill="#E0E0E0"/>
<path d="M32.6743 34.2694H31.6646V34.4499H32.6743V34.2694Z" fill="#E0E0E0"/>
<path d="M31.3287 31.1938L30.6147 31.908L30.7424 32.0356L31.4563 31.3214L31.3287 31.1938Z" fill="#E0E0E0"/>
<path d="M25.8409 36.6772L25.127 37.3914L25.2546 37.519L25.9685 36.8048L25.8409 36.6772Z" fill="#E0E0E0"/>
<path d="M25.2561 31.2L25.1284 31.3276L25.8425 32.0417L25.9701 31.914L25.2561 31.2Z" fill="#E0E0E0"/>
<path d="M30.7399 36.6793L30.6123 36.807L31.3265 37.5209L31.4541 37.3932L30.7399 36.6793Z" fill="#E0E0E0"/>
<path d="M28.2564 34.2367L28.1992 34.382L29.9076 35.0546L29.9648 34.9093L28.2564 34.2367Z" fill="#E0E0E0"/>
<path d="M28.3692 34.4377H25.5479V34.2817H28.2131V32.0938H28.3692V34.4377Z" fill="#E0E0E0"/>
<path d="M143.982 139.797C143.982 140.607 114.257 141.262 77.5952 141.262C40.9333 141.262 11.2085 140.607 11.2085 139.797C11.2085 138.986 40.9395 138.34 77.5952 138.34C114.251 138.34 143.982 138.989 143.982 139.797Z" fill="#F5F5F5"/>
<path d="M125.827 132.526L126.136 137.443L124.037 137.609L122.629 132.774L125.827 132.526Z" fill="#CE7A63"/>
<path d="M124.527 137.116C124.442 137.009 124.329 136.927 124.2 136.881C124.071 136.835 123.932 136.826 123.799 136.856C123.392 136.991 122.856 137.658 122.856 137.658C122.856 137.658 120.647 138.368 120.05 138.404C119.453 138.441 119.059 138.823 119.01 139.934H126.528C126.528 139.934 126.528 137.327 126.274 136.874C126.054 136.483 125.61 136.987 125.61 136.987L124.527 137.116Z" fill="#263238"/>
<path d="M119.181 139.595L120.488 139.579L126.192 139.521C126.204 139.518 126.216 139.511 126.224 139.501C126.232 139.49 126.236 139.478 126.236 139.465C126.236 139.451 126.232 139.439 126.224 139.428C126.216 139.418 126.204 139.411 126.192 139.408H125.803C125.686 139.127 125.681 138.811 125.79 138.527C125.899 138.242 126.113 138.01 126.387 137.878C126.394 137.875 126.401 137.87 126.406 137.864C126.411 137.859 126.415 137.852 126.417 137.845C126.419 137.837 126.42 137.83 126.419 137.822C126.418 137.814 126.416 137.807 126.412 137.8C126.408 137.794 126.403 137.788 126.397 137.783C126.39 137.779 126.383 137.776 126.376 137.774C126.368 137.773 126.361 137.773 126.353 137.774C126.346 137.776 126.339 137.779 126.332 137.783C126.039 137.926 125.809 138.173 125.69 138.477C125.571 138.781 125.571 139.119 125.69 139.423H124.885L119.181 139.485C119.17 139.488 119.16 139.496 119.153 139.506C119.145 139.516 119.142 139.527 119.142 139.54C119.142 139.552 119.145 139.564 119.153 139.573C119.16 139.583 119.17 139.591 119.181 139.595Z" fill="white"/>
<path d="M123.113 138.117C123.062 138.032 122.993 137.959 122.911 137.902C122.829 137.846 122.736 137.808 122.638 137.79C122.54 137.772 122.44 137.776 122.343 137.8C122.247 137.824 122.157 137.868 122.079 137.93C122.021 137.973 121.966 137.875 122.024 137.832C122.115 137.763 122.219 137.714 122.33 137.688C122.441 137.662 122.556 137.66 122.668 137.681C122.78 137.703 122.886 137.747 122.979 137.812C123.073 137.877 123.152 137.961 123.211 138.059C123.251 138.117 123.156 138.175 123.113 138.117Z" fill="white"/>
<path d="M122.489 138.303C122.437 138.219 122.368 138.146 122.286 138.09C122.204 138.034 122.111 137.996 122.013 137.978C121.916 137.96 121.815 137.964 121.719 137.988C121.623 138.011 121.532 138.055 121.454 138.117C121.396 138.159 121.341 138.062 121.399 138.019C121.49 137.95 121.595 137.901 121.706 137.875C121.817 137.85 121.932 137.848 122.044 137.869C122.156 137.891 122.262 137.936 122.355 138.001C122.449 138.066 122.528 138.151 122.587 138.248C122.626 138.306 122.531 138.361 122.489 138.303Z" fill="white"/>
<path d="M121.846 138.493C121.795 138.408 121.726 138.335 121.644 138.279C121.562 138.222 121.469 138.184 121.371 138.166C121.273 138.149 121.173 138.152 121.076 138.176C120.98 138.2 120.89 138.245 120.812 138.306C120.754 138.349 120.699 138.251 120.754 138.208C120.845 138.14 120.949 138.091 121.06 138.065C121.171 138.039 121.286 138.036 121.398 138.058C121.51 138.079 121.616 138.124 121.709 138.189C121.803 138.254 121.882 138.338 121.941 138.435C121.984 138.493 121.886 138.551 121.846 138.493Z" fill="white"/>
<path d="M109.753 132.474L109.463 137.44L107.345 137.609L106.525 132.725L109.753 132.474Z" fill="#CE7A63"/>
<path d="M107.831 137.116C107.747 137.009 107.633 136.927 107.505 136.881C107.376 136.835 107.237 136.826 107.103 136.856C106.696 136.991 106.161 137.658 106.161 137.658C106.161 137.658 103.951 138.368 103.355 138.404C102.758 138.441 102.235 138.778 102.011 139.934H109.251C109.251 139.934 109.536 137.321 109.579 136.874C109.621 136.427 108.915 136.987 108.915 136.987L107.831 137.116Z" fill="#263238"/>
<path d="M102.226 139.595L103.529 139.579L109.233 139.521C109.246 139.518 109.257 139.511 109.265 139.501C109.273 139.49 109.278 139.478 109.278 139.465C109.278 139.451 109.273 139.439 109.265 139.428C109.257 139.418 109.246 139.411 109.233 139.408H108.847C108.731 139.126 108.727 138.81 108.836 138.526C108.945 138.241 109.16 138.009 109.435 137.878C109.442 137.875 109.448 137.87 109.453 137.864C109.458 137.859 109.462 137.852 109.464 137.845C109.467 137.837 109.467 137.83 109.467 137.822C109.466 137.814 109.463 137.807 109.459 137.8C109.456 137.794 109.45 137.788 109.444 137.783C109.438 137.779 109.431 137.776 109.423 137.774C109.416 137.773 109.408 137.773 109.401 137.774C109.393 137.776 109.386 137.779 109.38 137.783C109.086 137.926 108.857 138.173 108.738 138.477C108.618 138.781 108.618 139.119 108.737 139.423H107.932L102.229 139.485C102.217 139.488 102.207 139.495 102.199 139.505C102.192 139.515 102.188 139.526 102.188 139.538C102.187 139.551 102.191 139.563 102.197 139.573C102.204 139.583 102.214 139.59 102.226 139.595Z" fill="white"/>
<path d="M106.424 138.117C106.372 138.032 106.303 137.959 106.221 137.902C106.139 137.846 106.046 137.808 105.949 137.79C105.851 137.772 105.75 137.776 105.654 137.8C105.558 137.824 105.467 137.868 105.389 137.93C105.331 137.973 105.276 137.875 105.334 137.832C105.425 137.763 105.529 137.714 105.64 137.688C105.751 137.662 105.866 137.66 105.978 137.681C106.09 137.703 106.196 137.747 106.29 137.812C106.384 137.877 106.462 137.961 106.522 138.059C106.564 138.117 106.467 138.175 106.424 138.117Z" fill="white"/>
<path d="M105.794 138.303C105.742 138.219 105.673 138.146 105.592 138.09C105.51 138.034 105.417 137.996 105.32 137.978C105.223 137.961 105.122 137.964 105.026 137.988C104.93 138.011 104.84 138.055 104.762 138.117C104.704 138.159 104.646 138.062 104.704 138.019C104.795 137.95 104.9 137.901 105.011 137.875C105.122 137.85 105.237 137.848 105.349 137.869C105.461 137.891 105.567 137.936 105.66 138.001C105.754 138.066 105.833 138.151 105.892 138.248C105.934 138.306 105.836 138.361 105.794 138.303Z" fill="white"/>
<path d="M105.151 138.493C105.099 138.408 105.03 138.335 104.948 138.279C104.866 138.222 104.774 138.184 104.676 138.166C104.578 138.149 104.477 138.152 104.381 138.176C104.285 138.2 104.194 138.245 104.116 138.306C104.058 138.349 104.003 138.251 104.061 138.208C104.152 138.14 104.256 138.091 104.367 138.065C104.478 138.039 104.593 138.036 104.705 138.058C104.817 138.079 104.923 138.124 105.017 138.189C105.111 138.254 105.19 138.338 105.249 138.435C105.288 138.493 105.194 138.551 105.151 138.493Z" fill="white"/>
<path d="M104.82 80.7079C104.82 80.7079 103.596 97.3084 103.666 104.6C103.752 112.183 106.225 134.255 106.225 134.255H110.276C110.276 134.255 111.023 112.572 111.384 105.124C111.779 97.0024 114.205 79.3768 114.205 79.3768L104.82 80.7079Z" fill="#263238"/>
<path opacity="0.2" d="M112.158 96.0907C112.464 93.1102 112.84 90.0319 113.171 87.3421L112.697 84.5024C112.697 84.5024 111.108 88.9333 112.158 96.0907Z" fill="black"/>
<path d="M110.579 133.028C110.579 133.465 110.54 134.338 110.54 134.338H105.873L105.732 133.028H110.579Z" fill="#7C7C7C"/>
<path d="M111.733 79.3768C111.733 79.3768 112.957 97.6603 114.285 104.509C115.732 112.003 122.302 134.255 122.302 134.255H126.681C126.681 134.255 123.866 112.667 123.119 105.243C122.305 97.1891 121.953 80.9221 121.953 80.9221L111.733 79.3768Z" fill="#263238"/>
<path d="M126.877 132.997C126.919 133.444 126.987 134.338 126.987 134.338H121.858L121.552 132.997H126.877Z" fill="#7C7C7C"/>
<path d="M122.697 82.4797C113.942 83.0764 107.36 83.1223 103.872 81.8065C103.63 66.3902 104.178 56.8002 104.894 54.4562C104.99 54.1436 105.147 53.8534 105.357 53.6031C105.568 53.3529 105.826 53.1476 106.118 52.9997C106.983 52.5651 107.913 52.2756 108.872 52.1429C110.708 51.8705 113.74 51.791 115.843 51.7971C116.996 51.7971 118.18 51.8889 119.157 51.9868C120.381 52.1123 121.161 53.1955 121.109 54.4134C121.005 56.7573 120.996 59.1288 121.051 61.4514C121.084 62.7917 121.136 64.1136 121.204 65.408C121.635 73.6761 122.682 80.6774 122.697 82.4797Z" fill="#767D9F"/>
<path d="M121.198 65.411L117.44 57.149L121.045 61.4575C121.078 62.7947 121.13 64.1167 121.198 65.411Z" fill="#4C4981"/>
<path d="M110.133 39.808C109.671 39.3061 108.119 39.2633 107.379 40.2303C106.589 41.2645 105.589 43.174 104.952 42.6783C105.046 42.9641 105.225 43.2146 105.465 43.3965C105.705 43.5785 105.995 43.6833 106.295 43.6972C106.295 43.6972 105.65 44.4041 104.817 44.144C104.963 44.5538 105.22 44.9145 105.56 45.185C105.901 45.4555 106.31 45.625 106.742 45.674C108.165 45.8821 110.148 41.8031 110.463 41.136C110.463 40.3741 110.402 40.42 110.133 39.808Z" fill="#263238"/>
<path d="M111.014 39.9763C111.641 39.9004 112.278 39.955 112.883 40.1367C113.489 40.3184 114.051 40.6232 114.533 41.032C115.163 41.5767 115.653 42.2927 115.435 43.1495C114.927 45.1446 113.581 48.3515 113.581 48.3515L107.541 43.7034C107.541 43.7034 107.51 41.7664 108.48 40.8055C108.988 40.3068 110.096 40.0803 111.014 39.9763Z" fill="#263238"/>
<path d="M109.909 39.8662C109.909 39.8662 111.99 38.3821 114.759 40.4414C117.529 42.5008 114.759 46.2279 114.759 46.2279C114.759 46.2279 113.872 47.8772 114.655 48.2842C114.38 48.3907 114.087 48.4416 113.792 48.4342C113.792 48.4342 114.062 48.936 114.404 48.8901C114.404 48.8901 113.924 49.0829 113.073 48.7034C112.223 48.324 109.909 39.8662 109.909 39.8662Z" fill="#263238"/>
<path d="M110.041 50.1477C110.041 50.1477 110.041 50.1477 110.041 50.1753L110.206 51.3809C110.202 51.6194 110.177 51.8571 110.129 52.0908C110.091 52.28 110.039 52.4661 109.973 52.6477C109.667 52.969 109.45 53.7524 110.365 53.8717C111.519 54.0217 113.841 52.5957 113.982 52.0969C113.642 50.4537 113.422 48.5565 113.694 47.0602L112.204 48.3209L110.041 50.1477Z" fill="#BE6F72"/>
<path opacity="0.2" d="M110.047 50.1783L110.212 51.384C110.974 51.1453 111.819 50.5272 112.085 49.7805C112.275 49.242 112.085 48.6912 111.871 48.6361L110.047 50.1783Z" fill="black"/>
<path d="M107.43 47.3662C107.467 47.6294 107.513 47.8895 107.562 48.1465C108.021 50.4201 110.689 50.9495 112.562 49.548C112.732 49.4209 112.891 49.2808 113.039 49.1288C114.279 47.8589 114.144 46.7512 114.285 44.2879C114.323 43.7164 114.214 43.1448 113.969 42.6271C113.724 42.1095 113.351 41.6628 112.885 41.3295C112.42 40.9962 111.877 40.7871 111.308 40.7222C110.739 40.6573 110.162 40.7387 109.634 40.9586C107.455 41.8521 107.057 44.7377 107.43 47.3662Z" fill="#BE6F72"/>
<path d="M110.377 45.3619C110.377 45.5608 110.28 45.723 110.148 45.7261C110.016 45.7291 109.912 45.5669 109.909 45.368C109.906 45.1691 110.01 45.007 110.139 45.007C110.267 45.007 110.377 45.163 110.377 45.3619Z" fill="#263238"/>
<path d="M108.217 45.3834C108.217 45.5823 108.116 45.7445 107.987 45.7475C107.859 45.7506 107.749 45.5884 107.746 45.3895C107.743 45.1906 107.847 45.0284 107.978 45.0284C108.11 45.0284 108.214 45.1845 108.217 45.3834Z" fill="#263238"/>
<path d="M109.597 48.07H109.527C109.508 48.065 109.492 48.0531 109.481 48.0368C109.47 48.0204 109.466 48.0006 109.469 47.9813C109.471 47.9714 109.475 47.9621 109.481 47.9538C109.487 47.9455 109.494 47.9385 109.502 47.9331C109.511 47.9277 109.52 47.924 109.53 47.9223C109.54 47.9206 109.551 47.9209 109.56 47.9231C109.706 47.9516 109.856 47.9502 110.002 47.9191C110.147 47.8879 110.284 47.8276 110.406 47.7418C110.527 47.6559 110.63 47.5464 110.707 47.4198C110.785 47.2932 110.836 47.1521 110.858 47.0051C110.86 46.9953 110.864 46.9859 110.87 46.9777C110.876 46.9694 110.883 46.9623 110.892 46.9569C110.9 46.9515 110.91 46.9479 110.92 46.9462C110.93 46.9445 110.94 46.9447 110.95 46.947C110.969 46.9527 110.985 46.9653 110.995 46.9822C111.005 46.9992 111.009 47.0194 111.005 47.0388C110.953 47.3612 110.776 47.6501 110.512 47.8431C110.249 48.0361 109.92 48.1176 109.597 48.07Z" fill="#263238"/>
<path d="M114.288 44.5143C113.933 44.7867 113.673 45.165 113.547 45.5945C113.544 45.6413 113.526 45.686 113.497 45.7226C113.467 45.7592 113.427 45.786 113.382 45.7995L112.489 45.8729C112.489 45.8729 113.033 43.4984 112.397 43.4494C111.76 43.4004 112.58 42.4059 112.219 42.2009C111.369 41.7205 108.921 41.387 107.792 42.7456C107.792 42.7456 108.226 41.3196 109.487 40.6832C110.747 40.0467 113.107 40.1752 113.905 41.442C114.704 42.7089 114.288 44.5143 114.288 44.5143Z" fill="#263238"/>
<path d="M115.353 45.928C115.181 46.5228 114.78 47.0255 114.239 47.3264C113.517 47.7181 112.972 47.1183 113.015 46.3411C113.058 45.6403 113.483 44.5938 114.282 44.5234C115.081 44.4531 115.552 45.1966 115.347 45.928" fill="#CE7A63"/>
<path d="M107.626 44.5602C107.643 44.5605 107.66 44.556 107.675 44.5474C107.689 44.5387 107.701 44.5262 107.709 44.5112C107.739 44.4484 107.782 44.3924 107.835 44.3467C107.887 44.3009 107.949 44.2663 108.015 44.245C108.15 44.219 108.29 44.2395 108.413 44.3032C108.424 44.3102 108.436 44.315 108.449 44.3171C108.462 44.3193 108.475 44.3188 108.487 44.3156C108.5 44.3125 108.512 44.3067 108.522 44.2988C108.532 44.2909 108.541 44.2809 108.547 44.2695C108.554 44.2585 108.558 44.2462 108.56 44.2335C108.562 44.2207 108.562 44.2077 108.558 44.1952C108.555 44.1827 108.55 44.1709 108.542 44.1606C108.534 44.1502 108.525 44.1415 108.514 44.1349C108.346 44.0439 108.152 44.0167 107.966 44.0584C107.874 44.0849 107.789 44.1305 107.716 44.1922C107.644 44.2539 107.585 44.3303 107.544 44.4164C107.537 44.4272 107.532 44.4395 107.53 44.4522C107.528 44.4649 107.529 44.4779 107.533 44.4904C107.536 44.5028 107.542 44.5143 107.55 44.5242C107.559 44.5342 107.569 44.5422 107.58 44.548C107.594 44.5561 107.61 44.5604 107.626 44.5602Z" fill="#263238"/>
<path d="M111.381 44.4837C111.395 44.4813 111.409 44.4761 111.421 44.4684C111.432 44.4627 111.443 44.4546 111.451 44.4447C111.459 44.4347 111.465 44.4232 111.469 44.4108C111.472 44.3984 111.473 44.3854 111.471 44.3726C111.469 44.3599 111.465 44.3477 111.458 44.3368C111.358 44.1737 111.203 44.0528 111.02 43.9971C110.927 43.9755 110.831 43.9733 110.737 43.9907C110.643 44.0081 110.554 44.0447 110.475 44.0981C110.453 44.1115 110.437 44.1332 110.431 44.1585C110.424 44.1837 110.428 44.2104 110.442 44.2328C110.455 44.2551 110.477 44.2712 110.502 44.2775C110.527 44.2838 110.554 44.2798 110.576 44.2664C110.633 44.2263 110.697 44.1985 110.765 44.1848C110.833 44.1711 110.903 44.1718 110.971 44.1869C111.099 44.2309 111.207 44.3187 111.277 44.4347C111.287 44.4531 111.302 44.4679 111.321 44.4768C111.34 44.4856 111.361 44.488 111.381 44.4837Z" fill="#263238"/>
<path d="M109.193 45.1936C109.086 45.6011 108.862 45.9688 108.551 46.2524C108.049 46.6777 109.043 47.048 109.043 47.048L109.193 45.1936Z" fill="#FFBE9D"/>
<path d="M113.462 44.9886C112.692 44.8842 111.909 45.0427 111.24 45.4384C111.182 44.8937 110.827 44.4714 110.393 44.4714C109.958 44.4714 109.566 44.9396 109.542 45.5302C109.414 45.4376 109.26 45.3878 109.101 45.3878C108.943 45.3878 108.789 45.4376 108.661 45.5302C108.63 44.9488 108.26 44.4867 107.807 44.4867C107.354 44.4867 106.95 44.9886 106.95 45.6098C106.95 46.2309 107.336 46.7328 107.807 46.7328C108.278 46.7328 108.658 46.2371 108.664 45.6251C108.707 45.5853 109.019 45.3038 109.539 45.6251C109.539 46.2371 109.928 46.7267 110.393 46.7267C110.858 46.7267 111.253 46.2218 111.253 45.6036C111.254 45.5802 111.254 45.5567 111.253 45.5333C111.912 45.1253 112.694 44.9628 113.462 45.0743C113.467 45.0751 113.472 45.0749 113.477 45.0737C113.482 45.0724 113.487 45.0701 113.491 45.0669C113.495 45.0638 113.498 45.0598 113.501 45.0552C113.503 45.0507 113.504 45.0457 113.505 45.0406C113.506 45.0343 113.506 45.0277 113.505 45.0214C113.503 45.0151 113.5 45.0092 113.496 45.0042C113.492 44.9992 113.487 44.9952 113.481 44.9925C113.475 44.9898 113.468 44.9884 113.462 44.9886ZM107.807 46.641C107.376 46.641 107.027 46.1697 107.027 45.5945C107.027 45.0192 107.376 44.5479 107.807 44.5479C108.238 44.5479 108.59 45.0161 108.59 45.5945C108.59 46.1728 108.229 46.641 107.798 46.641H107.807ZM110.393 46.641C109.964 46.641 109.612 46.1697 109.612 45.5945C109.612 45.0192 109.964 44.5479 110.393 44.5479C110.821 44.5479 111.176 45.0161 111.176 45.5945C111.176 46.1728 110.815 46.641 110.384 46.641H110.393Z" fill="white"/>
<path d="M104.738 55.0713L102.112 61.3565C101.672 62.3969 101.222 63.4312 100.766 64.4441C100.539 64.949 100.304 65.4477 100.068 65.9282C99.8326 66.4086 99.5909 66.8798 99.3614 67.2654C99.2995 67.3709 99.2321 67.473 99.1594 67.5714L98.8197 67.7336L98.4464 67.9019L97.6814 68.2354L94.5327 69.5696C92.4182 70.4661 90.3007 71.3903 88.2046 72.3664L88.9451 74.6736C91.2309 74.2391 93.4892 73.7281 95.7414 73.1436C96.8644 72.8376 97.9874 72.5561 99.1074 72.2256L99.9642 71.9655L100.399 71.8278L100.861 71.6687L101.035 71.6045L101.115 71.5708L101.421 71.4331L101.586 71.3566C101.653 71.3168 101.718 71.2801 101.779 71.2373C101.84 71.1944 101.907 71.1516 101.944 71.124C102.092 71.0113 102.232 70.8886 102.363 70.7568C102.501 70.6161 102.614 70.4876 102.712 70.3682C102.899 70.1448 103.033 69.9521 103.171 69.7562C103.404 69.4196 103.606 69.0953 103.783 68.7801C103.924 68.5506 104.052 68.3272 104.181 68.1038C104.487 67.5653 104.762 67.0328 105.035 66.5034C105.582 65.4416 106.081 64.3614 106.565 63.3119C107.535 61.1699 108.437 59.0462 109.26 56.8461L104.738 55.0713ZM99.3002 67.5132H99.2818L99.3124 67.4918L99.3399 67.4765L99.3002 67.5132Z" fill="#767D9F"/>
<path d="M104.502 58.9177C104.248 60.7537 103.814 68.777 103.814 68.777C103.814 68.7842 103.814 68.7913 103.814 68.7985C103.624 69.1045 103.422 69.438 103.202 69.7746C103.064 69.9674 102.929 70.1602 102.743 70.3866C102.896 66.5249 104.502 58.9177 104.502 58.9177Z" fill="#4C4981"/>
<path d="M89.1317 73.9607C89.0644 73.5072 88.9463 73.0628 88.7798 72.6357C88.4085 72.247 87.9125 72.0011 87.3783 71.9411C86.6133 71.9227 86.0044 71.7055 85.4322 71.733C84.8599 71.7605 85.4689 72.2348 85.8422 72.4246C86.2155 72.6143 86.6408 72.8285 86.4542 73.0886C86.2675 73.3487 83.7706 74.4717 83.5503 74.8603C83.3299 75.2489 83.795 75.1908 83.795 75.1908C83.795 75.1908 83.2351 75.4478 83.2443 75.7508C83.2534 76.0537 83.6543 75.9986 83.6543 75.9986C83.6543 75.9986 83.284 76.1822 83.4462 76.427C83.5288 76.5556 84.1653 76.4546 84.7651 76.3322C84.6396 76.3934 84.5539 76.4668 84.5386 76.5586C84.4836 76.9319 85.3098 76.8095 85.9707 76.7239C86.6529 76.6461 87.2869 76.3334 87.7639 75.8395C88.2198 75.3377 89.2541 74.7379 89.1317 73.9607ZM85.8116 76.1027C85.8309 76.1005 85.8504 76.1005 85.8697 76.1027H85.8116Z" fill="#BE6F72"/>
<path d="M83.7585 76.017C84.398 75.7293 85.0467 75.46 85.6985 75.2183C85.7677 75.3874 85.8496 75.5511 85.9433 75.7079C85.9892 75.7875 86.0902 75.6865 86.0443 75.61C85.759 75.1158 85.5847 74.5656 85.5333 73.9974C85.5333 73.9025 85.3986 73.9331 85.4078 74.028C85.4223 74.1719 85.4448 74.3149 85.4751 74.4564C85.4633 74.4519 85.4502 74.4519 85.4384 74.4564C84.9042 74.6091 84.3905 74.8259 83.9084 75.102C83.835 75.1449 83.8839 75.2795 83.9604 75.2367C84.4288 74.9664 84.9282 74.7537 85.4476 74.6032C85.4564 74.6002 85.4645 74.5954 85.4713 74.5891C85.4782 74.5827 85.4836 74.5751 85.4874 74.5665C85.5253 74.7445 85.5765 74.9194 85.6404 75.0898C84.9855 75.3315 84.3399 75.5977 83.6973 75.8884C83.6299 75.916 83.6789 76.0537 83.7585 76.017Z" fill="#BA4D3C"/>
<path d="M86.2096 74.536C86.4119 74.2248 86.7124 73.9901 87.0633 73.8692C87.4143 73.7483 87.7956 73.7482 88.1466 73.8689C88.2231 73.8995 88.2721 73.7588 88.1956 73.7282C87.4428 73.4497 86.6441 73.7282 86.1056 74.4534C86.0984 74.4599 86.0926 74.468 86.0888 74.477C86.085 74.486 86.0832 74.4957 86.0835 74.5054C86.0839 74.5152 86.0863 74.5248 86.0907 74.5335C86.0951 74.5422 86.1013 74.5499 86.109 74.556C86.1166 74.562 86.1255 74.5664 86.135 74.5687C86.1444 74.571 86.1543 74.5712 86.1639 74.5693C86.1735 74.5674 86.1825 74.5634 86.1904 74.5577C86.1983 74.5519 86.2049 74.5445 86.2096 74.536Z" fill="#BA4D3C"/>
<path d="M120.686 52.9171C122.183 54.8602 123.612 56.8431 125.022 58.8474C125.732 59.845 126.427 60.8548 127.118 61.8707C127.81 62.8866 128.486 63.8964 129.181 64.9827L129.316 65.1908L129.478 65.457L129.557 65.5916L129.579 65.6253L129.649 65.7569L129.726 65.916C129.75 65.9711 129.771 66.0262 129.781 66.0537C129.825 66.1761 129.863 66.3007 129.894 66.427L129.928 66.5739L129.949 66.6932C129.987 66.9332 130.009 67.1755 130.013 67.4185C130.013 67.6204 130.013 67.8101 130.013 67.9876C129.995 68.6975 129.94 69.334 129.879 69.9736C129.753 71.2435 129.573 72.4736 129.389 73.7006C129.006 76.1486 128.526 78.5691 127.96 80.9834L125.393 80.6774C125.393 78.2294 125.42 75.7814 125.457 73.3702C125.457 72.1462 125.478 70.9558 125.457 69.7808C125.457 69.1994 125.429 68.6149 125.383 68.1039C125.383 67.9754 125.359 67.8591 125.344 67.7551C125.338 67.6931 125.324 67.6323 125.301 67.5745V67.6112C125.311 67.6647 125.326 67.717 125.347 67.7673L125.38 67.8499C125.395 67.8864 125.411 67.9222 125.429 67.957L125.475 68.0396V68.0243L125.429 67.9662L125.218 67.6786C124.527 66.7606 123.762 65.7783 123.033 64.8113C122.305 63.8444 121.555 62.8774 120.824 61.9013C119.355 59.9521 117.899 57.9937 116.494 55.9955L120.686 52.9171Z" fill="#767D9F"/>
<path d="M127.911 80.8273C127.351 79.3769 126.1 79.7471 125.733 80.1143C125.733 80.1143 124.815 81.0568 124.616 81.5954C124.417 82.1339 124.151 82.6603 124.245 82.9051C124.291 83.0213 124.453 82.9051 124.613 82.7398C124.533 82.9353 124.484 83.1416 124.466 83.3518C124.466 83.3518 124.606 84.839 125.185 85.3041C125.763 85.7692 125.653 84.432 125.653 84.432C125.653 84.432 125.723 85.757 127.122 85.3286C127.66 85.1664 128.254 83.5783 128.346 82.6939C128.594 81.9473 127.911 80.8273 127.911 80.8273Z" fill="#BE6F72"/>
<path d="M110.237 51.6257C110.237 51.6257 109.046 51.4972 108.401 52.2224C108.144 53.1129 108.707 54.1717 109.319 55.2427L110.638 53.881C110.732 53.884 110.047 52.7182 110.237 51.6257Z" fill="#7C7C7C"/>
<path d="M110.237 51.6257C110.237 51.6257 109.046 51.4972 108.401 52.2224C108.144 53.1129 108.707 54.1717 109.319 55.2427L110.638 53.881C110.732 53.884 110.047 52.7182 110.237 51.6257Z" fill="#4C4981"/>
<path d="M113.783 50.977C113.22 52.2775 112.014 53.1373 110.644 53.8809L111.387 55.2426L115.977 51.7971C115.977 51.7971 114.661 50.6281 113.783 50.977Z" fill="#7C7C7C"/>
<path d="M113.783 50.977C113.22 52.2775 112.014 53.1373 110.644 53.8809L111.387 55.2426L115.977 51.7971C115.977 51.7971 114.661 50.6281 113.783 50.977Z" fill="#4C4981"/>
<path opacity="0.2" d="M110.649 55.8455C110.649 55.8922 110.636 55.9379 110.61 55.9767C110.584 56.0155 110.547 56.0457 110.503 56.0635C110.46 56.0812 110.413 56.0857 110.367 56.0763C110.321 56.067 110.279 56.0443 110.246 56.011C110.213 55.9777 110.191 55.9355 110.182 55.8896C110.174 55.8437 110.179 55.7962 110.197 55.7532C110.215 55.7102 110.246 55.6736 110.285 55.6481C110.324 55.6226 110.37 55.6093 110.417 55.6099C110.479 55.6107 110.538 55.6359 110.582 55.68C110.625 55.7241 110.649 55.7835 110.649 55.8455Z" fill="black"/>
<path opacity="0.2" d="M110.649 57.3816C110.649 57.4284 110.636 57.474 110.61 57.5129C110.584 57.5517 110.547 57.5819 110.503 57.5996C110.46 57.6173 110.413 57.6218 110.367 57.6125C110.321 57.6031 110.279 57.5804 110.246 57.5471C110.213 57.5139 110.191 57.4716 110.182 57.4257C110.174 57.3798 110.179 57.3323 110.197 57.2893C110.215 57.2463 110.246 57.2097 110.285 57.1842C110.324 57.1587 110.37 57.1454 110.417 57.146C110.479 57.1468 110.538 57.172 110.582 57.2161C110.625 57.2602 110.649 57.3197 110.649 57.3816Z" fill="black"/>
<path opacity="0.2" d="M110.649 58.9178C110.649 58.9645 110.636 59.0102 110.61 59.049C110.584 59.0878 110.547 59.118 110.503 59.1357C110.46 59.1535 110.413 59.158 110.367 59.1486C110.321 59.1393 110.279 59.1165 110.246 59.0833C110.213 59.05 110.191 59.0077 110.182 58.9618C110.174 58.9159 110.179 58.8685 110.197 58.8255C110.215 58.7825 110.246 58.7459 110.285 58.7204C110.324 58.6948 110.37 58.6815 110.417 58.6821C110.479 58.683 110.538 58.7081 110.582 58.7522C110.625 58.7963 110.649 58.8558 110.649 58.9178Z" fill="black"/>
<path d="M81.356 134.374L81.9863 137.551H83.6632L83.8866 134.374H81.356Z" fill="#FFC3BD"/>
<path d="M83.4426 137.147C83.5266 137.04 83.6388 136.959 83.7665 136.913C83.8941 136.867 84.0321 136.858 84.1648 136.886C84.5687 137.021 85.0828 137.682 85.0828 137.682C85.0828 137.682 87.2737 138.386 87.8643 138.423C88.4549 138.459 88.9751 138.793 89.1954 139.953H82.0381C82.0381 139.953 81.7565 137.367 81.7106 136.923C81.6647 136.479 82.3716 137.033 82.3716 137.033L83.4426 137.147Z" fill="#263238"/>
<path d="M88.9813 139.595H87.6899L82.0412 139.536C81.9708 139.536 81.9708 139.423 82.0412 139.426H82.4237C82.5439 139.146 82.5505 138.829 82.4421 138.544C82.3336 138.258 82.1186 138.026 81.8423 137.896C81.778 137.863 81.8423 137.765 81.8974 137.801C82.188 137.943 82.4147 138.189 82.5326 138.49C82.6505 138.791 82.651 139.125 82.5338 139.426C82.8001 139.426 83.0663 139.426 83.3325 139.426L88.9782 139.484C88.9854 139.484 88.9926 139.485 88.9994 139.488C89.0062 139.491 89.0123 139.495 89.0176 139.5C89.0229 139.504 89.0271 139.51 89.03 139.517C89.033 139.524 89.0346 139.531 89.0348 139.538C89.035 139.545 89.0338 139.552 89.0312 139.559C89.0286 139.566 89.0247 139.572 89.0198 139.577C89.0148 139.583 89.0088 139.587 89.0022 139.59C88.9956 139.593 88.9885 139.594 88.9813 139.595Z" fill="#7C7C7C"/>
<path d="M84.8412 138.132C84.8927 138.048 84.9613 137.976 85.0426 137.921C85.1238 137.865 85.2158 137.828 85.3126 137.81C85.4094 137.793 85.5088 137.796 85.6042 137.82C85.6996 137.844 85.789 137.888 85.8663 137.948C85.9245 137.991 85.9795 137.893 85.9214 137.85C85.8314 137.782 85.7281 137.734 85.6182 137.708C85.5083 137.683 85.3943 137.681 85.2834 137.702C85.1726 137.723 85.0676 137.768 84.975 137.832C84.8825 137.897 84.8046 137.98 84.7464 138.077C84.7066 138.135 84.8014 138.19 84.8412 138.132Z" fill="white"/>
<path d="M85.4595 138.319C85.511 138.235 85.5796 138.163 85.6608 138.107C85.7421 138.052 85.8341 138.014 85.9309 137.997C86.0277 137.98 86.1271 137.983 86.2225 138.007C86.3179 138.031 86.4072 138.074 86.4846 138.135C86.5427 138.178 86.5978 138.08 86.5397 138.037C86.4497 137.969 86.3464 137.921 86.2365 137.895C86.1266 137.869 86.0125 137.867 85.9017 137.889C85.7909 137.91 85.6858 137.954 85.5933 138.019C85.5008 138.084 85.4229 138.167 85.3646 138.264C85.3218 138.322 85.4197 138.377 85.4595 138.319Z" fill="white"/>
<path d="M86.0987 138.505C86.1498 138.421 86.2183 138.349 86.2995 138.293C86.3807 138.237 86.4729 138.2 86.5698 138.182C86.6667 138.165 86.7663 138.168 86.8618 138.192C86.9573 138.216 87.0466 138.261 87.1238 138.322C87.1788 138.365 87.2339 138.267 87.1788 138.224C87.0886 138.156 86.9851 138.107 86.8749 138.082C86.7648 138.056 86.6505 138.054 86.5394 138.075C86.4284 138.096 86.3231 138.141 86.2303 138.205C86.1375 138.27 86.0593 138.353 86.0007 138.45C85.961 138.508 86.0558 138.563 86.0987 138.505Z" fill="white"/>
<path d="M66.3403 134.396L66.6892 137.55H68.3661L68.8679 134.396H66.3403Z" fill="#FFC3BD"/>
<path d="M68.1457 137.147C68.2297 137.04 68.3419 136.959 68.4696 136.913C68.5972 136.867 68.7352 136.858 68.8679 136.886C69.2718 137.021 69.7859 137.682 69.7859 137.682C69.7859 137.682 71.9768 138.386 72.5674 138.423C73.158 138.459 73.6751 138.793 73.8985 139.953H66.7412C66.7412 139.953 66.4597 137.367 66.4138 136.923C66.3679 136.479 67.0747 137.033 67.0747 137.033L68.1457 137.147Z" fill="#263238"/>
<path d="M73.6966 139.595H72.4053L66.7565 139.536C66.7419 139.536 66.7279 139.531 66.7176 139.52C66.7072 139.51 66.7014 139.496 66.7014 139.481C66.7014 139.467 66.7072 139.453 66.7176 139.442C66.7279 139.432 66.7419 139.426 66.7565 139.426H67.139C67.2593 139.146 67.2659 138.829 67.1574 138.544C67.0489 138.258 66.8339 138.026 66.5576 137.896C66.4934 137.863 66.5576 137.765 66.6127 137.801C66.9033 137.943 67.1301 138.189 67.248 138.49C67.3659 138.791 67.3663 139.125 67.2492 139.426C67.5154 139.426 67.7816 139.426 68.0478 139.426L73.6935 139.484C73.7008 139.484 73.708 139.485 73.7147 139.488C73.7215 139.491 73.7277 139.495 73.7329 139.5C73.7382 139.504 73.7424 139.51 73.7454 139.517C73.7483 139.524 73.7499 139.531 73.7501 139.538C73.7503 139.545 73.7491 139.552 73.7465 139.559C73.744 139.566 73.7401 139.572 73.7351 139.577C73.7301 139.583 73.7242 139.587 73.7176 139.59C73.7109 139.593 73.7038 139.594 73.6966 139.595Z" fill="#7C7C7C"/>
<path d="M69.5443 138.132C69.5958 138.048 69.6644 137.976 69.7457 137.921C69.8269 137.865 69.919 137.828 70.0158 137.81C70.1126 137.793 70.2119 137.796 70.3073 137.82C70.4028 137.844 70.4921 137.888 70.5695 137.948C70.6276 137.991 70.6827 137.893 70.6245 137.85C70.5345 137.782 70.4313 137.734 70.3213 137.708C70.2114 137.683 70.0974 137.681 69.9866 137.702C69.8758 137.723 69.7707 137.768 69.6782 137.832C69.5856 137.897 69.5077 137.98 69.4495 138.077C69.4097 138.135 69.5046 138.19 69.5443 138.132Z" fill="white"/>
<path d="M70.1621 138.319C70.2136 138.235 70.2822 138.163 70.3635 138.107C70.4447 138.052 70.5367 138.014 70.6335 137.997C70.7303 137.98 70.8297 137.983 70.9251 138.007C71.0205 138.031 71.1099 138.074 71.1872 138.135C71.2454 138.178 71.3004 138.08 71.2423 138.037C71.1523 137.969 71.049 137.921 70.9391 137.895C70.8292 137.869 70.7152 137.867 70.6043 137.889C70.4935 137.91 70.3885 137.954 70.2959 138.019C70.2034 138.084 70.1255 138.167 70.0673 138.264C70.0244 138.322 70.1223 138.377 70.1621 138.319Z" fill="white"/>
<path d="M70.8018 138.505C70.853 138.422 70.9213 138.35 71.0023 138.294C71.0832 138.239 71.175 138.201 71.2716 138.184C71.3681 138.167 71.4673 138.17 71.5625 138.194C71.6576 138.217 71.7467 138.261 71.8238 138.322C71.882 138.365 71.937 138.267 71.882 138.224C71.7917 138.156 71.6882 138.107 71.5781 138.082C71.4679 138.056 71.3536 138.054 71.2426 138.075C71.1315 138.096 71.0262 138.141 70.9334 138.205C70.8406 138.27 70.7624 138.353 70.7039 138.45C70.6641 138.508 70.7589 138.563 70.8018 138.505Z" fill="white"/>
<path d="M80.7989 134.484H84.5015C84.8228 129.717 85.7255 113.909 85.0125 106.088C85.5297 95.2368 83.8712 80.8303 83.8712 80.8303H72.1514C72.1514 80.8303 73.0112 90.4724 76.8729 105.922C76.8301 118.184 79.8197 130.43 80.7989 134.484Z" fill="#7C7C7C"/>
<path d="M80.7989 134.484H84.5015C84.8228 129.717 85.7255 113.909 85.0125 106.088C85.5297 95.2368 83.8712 80.8303 83.8712 80.8303H72.1514C72.1514 80.8303 73.0112 90.4724 76.8729 105.922C76.8301 118.184 79.8197 130.43 80.7989 134.484Z" fill="#333333"/>
<path opacity="0.2" d="M76.224 103.334C78.3446 94.6707 76.481 83.4436 76.481 83.4436L74.645 96.2772L76.224 103.334Z" fill="black"/>
<path d="M80.3584 134.393L80.6307 135.8L84.878 135.782L84.8811 134.374L80.3584 134.393Z" fill="#263238"/>
<path d="M65.8112 134.622H69.5169C70.8358 129.726 73.4949 113.94 73.9111 106.118C76.0102 95.2643 77.0139 80.8303 77.0139 80.8303H65.2788C65.2788 80.8303 64.1864 90.5825 65.7929 106.042C65.4808 119.524 65.7256 130.43 65.8112 134.622Z" fill="#7C7C7C"/>
<path d="M65.8112 134.622H69.5169C70.8358 129.726 73.4949 113.94 73.9111 106.118C76.0102 95.2643 77.0139 80.8303 77.0139 80.8303H65.2788C65.2788 80.8303 64.1864 90.5825 65.7929 106.042C65.4808 119.524 65.7256 130.43 65.8112 134.622Z" fill="#333333"/>
<path d="M65.4866 134.39L65.4805 135.785H69.7614L69.9848 134.39H65.4866Z" fill="#263238"/>
<path d="M85.4044 82.6021C77.2648 85.7294 64.0059 83.462 64.0059 83.462C64.0946 81.2312 64.1772 77.7796 64.2231 74.0188C64.2231 73.009 64.2445 71.9778 64.2507 70.9405C64.2507 68.9515 64.2507 66.9441 64.2507 65.05C64.2507 64.897 64.2507 64.744 64.2507 64.594C64.2507 63.676 64.2262 62.758 64.2078 61.9135C64.2078 61.8094 64.2078 61.7054 64.2078 61.6075C64.1711 59.9336 64.1099 58.4526 64.0334 57.2684C63.8835 55.0376 65.0983 52.9599 67.3045 52.5896C67.9747 52.4764 68.6999 52.3754 69.4465 52.2836C69.624 52.2622 69.8076 52.2469 69.9912 52.2286C72.1437 52.0171 74.3071 51.9384 76.4692 51.9929H76.7752H76.9405H77.2128C78.1308 52.0297 79.0305 52.1 79.823 52.2041C81.6223 52.4366 83.2196 53.8565 83.2502 55.6741C83.2777 57.3388 83.4399 60.8547 83.6755 64.8205C83.7673 66.3199 83.8683 67.8805 83.9815 69.4441C84.3916 75.61 84.9454 81.5311 85.4044 82.6021Z" fill="#FFD801"/>
<path opacity="0.2" d="M68.7855 58.9177C68.7855 58.9177 68.6111 67.5592 69.1863 68.6087C69.7616 69.6583 80.8786 72.8315 80.8786 72.8315C75.3125 72.0757 69.9299 71.2281 67.0811 69.1075L68.7855 58.9177Z" fill="black"/>
<path opacity="0.2" d="M81.2454 75.3713C74.7674 76.9013 67.1909 74.9368 64.2227 74.0188C64.2227 73.009 64.2441 71.9778 64.2502 70.9404C68.8127 74.3156 81.2454 75.3713 81.2454 75.3713Z" fill="black"/>
<path d="M78.3967 40.1844C77.7685 39.9536 77.0996 39.8546 76.4315 39.8935C75.7635 39.9325 75.1106 40.1086 74.5135 40.4108C73.7302 40.8178 73.0509 41.4421 73.0692 42.3784C73.1059 44.5602 73.7149 48.2108 73.7149 48.2108L81.0834 44.8815C81.0834 44.8815 81.6188 43.0455 80.7559 41.8858C80.1665 41.0861 79.3415 40.4912 78.3967 40.1844Z" fill="#263238"/>
<path d="M75.6459 40.0008C75.6459 40.0008 74.6484 39.447 73.6508 40.4782C72.8154 41.3381 73.1796 44.1502 73.1796 44.1502L75.6459 40.0008Z" fill="#263238"/>
<path d="M74.9053 40.2303C74.9053 40.2303 75.1929 38.5657 78.2315 39.0644C81.2701 39.5632 83.6814 42.0724 82.5736 43.3852C81.4659 44.6979 78.2315 42.5437 78.2315 42.5437L74.9053 40.2303Z" fill="#263238"/>
<path d="M76.9339 50.9251C76.935 50.9332 76.935 50.9414 76.9339 50.9495L76.4719 52.1552C76.4179 52.4028 76.3861 52.6547 76.377 52.9079C76.3722 53.1123 76.3814 53.3168 76.4045 53.5199C76.6371 53.9239 76.6738 54.7868 75.7038 54.6858C74.4798 54.5603 72.399 52.6356 72.3745 52.0848C73.1242 50.4722 73.8372 48.4556 73.9045 46.843L75.1285 48.5077L76.9339 50.9251Z" fill="#FFBE9D"/>
<path d="M77.8315 52.1079C77.9932 53.3717 77.8871 54.655 77.5206 55.8744L76.1219 54.6583C76.2533 54.3429 76.3202 54.0031 76.3655 53.6647C76.3882 53.496 76.4056 53.3262 76.4227 53.1594C76.424 53.1466 76.4253 53.1338 76.4266 53.121C76.4451 52.9412 76.4637 52.7654 76.4885 52.5949L76.4886 52.5949L76.4891 52.5904C76.5131 52.3518 76.5726 52.1181 76.6655 51.8972C76.6866 51.8935 76.7139 51.8891 76.7464 51.8848C76.829 51.8738 76.9438 51.8637 77.073 51.8668C77.3239 51.8728 77.6138 51.9282 77.8315 52.1079Z" fill="#FFD801" stroke="black" stroke-width="0.2"/>
<path d="M71.4559 52.1323C71.4593 52.1261 71.4632 52.119 71.4676 52.1112C71.4874 52.0763 71.5168 52.026 71.5551 51.9649C71.6316 51.8425 71.7431 51.678 71.8827 51.5089C72.1417 51.1952 72.4843 50.8822 72.8687 50.7754C72.9362 51.5303 73.1325 52.2188 73.5832 52.8653C74.0423 53.5237 74.7599 54.131 75.8559 54.7218L74.6269 56.543C72.8206 55.0487 71.8128 53.5806 71.4559 52.1323Z" fill="#FFD801" stroke="black" stroke-width="0.2"/>
<g opacity="0.2">
<path d="M76.9219 50.9525L76.4598 52.1581C75.7285 51.7267 75.0094 50.8852 74.9145 50.0467C74.8502 49.4347 75.1746 48.9237 75.4163 48.9176L76.9219 50.9525Z" fill="black"/>
</g>
<path d="M80.3092 48.682C80.2052 48.9451 80.095 49.2022 79.9818 49.4561C78.9567 51.6899 76.0711 51.5981 74.4738 49.6887C74.329 49.5167 74.1981 49.3335 74.0821 49.141C73.1121 47.5314 73.519 46.4176 73.9719 43.841C74.0708 43.2412 74.3214 42.6765 74.6998 42.2006C75.0782 41.7247 75.5719 41.3535 76.1342 41.122C76.6964 40.8906 77.3084 40.8066 77.9122 40.8782C78.5159 40.9497 79.0914 41.1743 79.584 41.5308C81.6372 42.9843 81.3312 46.0626 80.3092 48.682Z" fill="#FFBE9D"/>
<path d="M75.4594 44.8264C75.4594 44.8264 75.4441 46.9684 76.2856 47.2744C77.1271 47.5804 77.7544 46.8674 78.6785 47.7579C78.8642 47.6687 79.0705 47.6313 79.2757 47.6496C79.4809 47.6679 79.6774 47.7413 79.8443 47.862C80.4013 48.2812 80.3095 48.5321 80.3095 48.5321C80.3095 48.5321 80.0953 51.742 77.1577 51.3687C74.2201 50.9954 73.8651 48.1159 74.0671 46.5859L74.6485 44.6857L75.4594 44.8264Z" fill="#263238"/>
<path d="M77.3686 47.8282C77.9663 48.0334 78.5739 48.2081 79.1893 48.3515C79.1373 48.4702 79.0615 48.5769 78.9666 48.6652C78.8717 48.7534 78.7597 48.8213 78.6375 48.8646C78.5154 48.9079 78.3857 48.9257 78.2564 48.9169C78.1271 48.9081 78.001 48.873 77.8858 48.8136C77.2952 48.5596 77.3686 47.8282 77.3686 47.8282Z" fill="white"/>
<path d="M79.8014 41.286C78.6539 40.319 76.1875 39.8814 75.0523 40.98C73.917 42.0785 73.9109 44.0583 73.9109 44.0583C73.8973 44.2721 73.965 44.4831 74.1006 44.6489C74.129 44.6784 74.1537 44.7113 74.1741 44.7468L75.4531 44.9549C75.5541 44.4286 75.7591 43.4708 76.1233 43.4249C76.7965 43.3331 76.3375 42.5926 76.4844 42.1764C76.9525 40.8239 80.6276 41.748 81.0499 43.8166C81.056 43.8258 80.955 42.256 79.8014 41.286Z" fill="#263238"/>
<path d="M72.4756 45.267C72.5108 45.924 72.8032 46.5407 73.2896 46.9837C73.9414 47.562 74.6482 47.0724 74.7859 46.2585C74.9114 45.5271 74.7247 44.3429 73.9169 44.0736C73.109 43.8043 72.445 44.4622 72.4756 45.267Z" fill="#FFBE9D"/>
<path d="M77.7421 45.417C77.6931 45.6159 77.7605 45.7995 77.889 45.8332C78.0175 45.8668 78.1613 45.7291 78.2103 45.5272C78.2592 45.3252 78.1889 45.1447 78.0603 45.1141C77.9318 45.0835 77.788 45.2181 77.7543 45.4201" fill="#263238"/>
<path d="M79.829 45.9097C79.78 46.1086 79.8474 46.2922 79.9759 46.3258C80.1044 46.3595 80.2482 46.2218 80.2972 46.0198C80.3461 45.8179 80.2758 45.6373 80.1472 45.6067C80.0187 45.5761 79.8749 45.7108 79.8412 45.9127" fill="#263238"/>
<path d="M80.7194 45.316C80.7018 45.3112 80.6857 45.3019 80.6728 45.2891C80.66 45.2762 80.6507 45.2601 80.646 45.2425C80.6306 45.1709 80.6007 45.1033 80.5581 45.0438C80.5154 44.9843 80.461 44.9342 80.3981 44.8967C80.2658 44.8322 80.1142 44.8191 79.9728 44.86C79.9464 44.8679 79.918 44.8652 79.8935 44.8527C79.869 44.8402 79.8503 44.8187 79.8412 44.7927C79.8341 44.7663 79.8371 44.7383 79.8495 44.7139C79.8619 44.6896 79.883 44.6708 79.9085 44.6611C80.1042 44.6067 80.3129 44.6252 80.496 44.7131C80.5831 44.7639 80.6589 44.8319 80.7188 44.9129C80.7788 44.9939 80.8217 45.0863 80.8449 45.1844C80.8524 45.2108 80.8493 45.2391 80.8361 45.2631C80.8229 45.2872 80.8008 45.3051 80.7745 45.3129C80.7566 45.3184 80.7377 45.3195 80.7194 45.316Z" fill="#263238"/>
<path d="M77.3168 44.4989C77.3001 44.4956 77.2843 44.4882 77.2709 44.4775C77.25 44.4563 77.2383 44.4278 77.2383 44.398C77.2383 44.3682 77.25 44.3396 77.2709 44.3184C77.4143 44.1503 77.6149 44.0413 77.834 44.0124C77.9432 44.0065 78.0525 44.023 78.1551 44.0609C78.2577 44.0988 78.3515 44.1572 78.4307 44.2327C78.4516 44.2539 78.4634 44.2825 78.4634 44.3123C78.4634 44.3421 78.4516 44.3707 78.4307 44.3918C78.4207 44.4025 78.4086 44.411 78.3952 44.4168C78.3817 44.4226 78.3673 44.4256 78.3527 44.4256C78.338 44.4256 78.3236 44.4226 78.3102 44.4168C78.2967 44.411 78.2846 44.4025 78.2746 44.3918C78.2178 44.3362 78.1502 44.2926 78.0761 44.2636C78.0019 44.2347 77.9227 44.2211 77.8432 44.2235C77.685 44.2445 77.5401 44.3229 77.4362 44.4439C77.4242 44.464 77.4063 44.4801 77.385 44.4899C77.3637 44.4997 77.34 44.5029 77.3168 44.4989Z" fill="#263238"/>
<path d="M79.1158 45.472C79.1773 46.0033 79.3058 46.5245 79.4983 47.0235C79.7768 47.6599 78.6782 47.4213 78.6782 47.4213L79.1158 45.472Z" fill="#BE6F72"/>
<path d="M87.3594 74.8052C86.9494 74.0953 85.453 73.4466 85.453 73.4466C85.0485 73.3796 84.6367 73.3683 84.229 73.4129H84.2872C84.2872 73.4129 85.2664 72.8499 85.0216 72.7152C84.7768 72.5806 84.177 72.7978 83.5803 72.9233C83.1166 73.0613 82.6849 73.2902 82.3104 73.5965C81.8729 73.8627 81.6189 74.6859 81.9279 75.7752C81.9279 75.7752 83.1764 76.9625 84.0699 77.1277C84.9482 77.3419 86.7413 77.4521 87.1299 76.9044C87.9684 75.7538 86.4231 74.946 86.4231 74.946C86.4231 74.946 87.7572 75.5151 87.3594 74.8052Z" fill="#FFC3BD"/>
<path d="M81.8209 73.0732L81.4721 75.4692C78.9292 75.3315 76.42 75.102 73.8955 74.7654C72.6318 74.6002 71.371 74.3982 70.095 74.1534C69.4555 74.0341 68.8159 73.8964 68.1611 73.7342C67.4653 73.5744 66.7805 73.3699 66.1109 73.1222C65.9242 73.0488 65.7284 72.9661 65.5142 72.8621C65.2542 72.7331 65.0072 72.5794 64.7767 72.4031C64.5854 72.2578 64.4109 72.0915 64.2565 71.9074C64.1392 71.7619 64.0367 71.6051 63.9505 71.4392C63.8925 71.3283 63.8414 71.2138 63.7975 71.0965L63.7333 70.8945L63.718 70.8272C63.6525 70.5625 63.6055 70.2936 63.5772 70.0224C63.4915 69.2176 63.4762 68.5781 63.4609 67.911C63.4609 66.5983 63.4609 65.3284 63.5191 64.0554C63.6048 61.5126 63.7884 59.0095 64.0454 56.485L68.923 56.9103C68.8527 58.1343 68.7394 59.3859 68.6599 60.6221L68.3722 64.3278C68.2804 65.5518 68.1795 66.7758 68.1274 67.9814C68.106 68.4006 68.0877 68.8321 68.0846 69.2054C68.4579 69.3798 68.9077 69.5512 69.3576 69.7072C69.9084 69.897 70.4806 70.0744 71.0589 70.2519C72.2156 70.6038 73.4059 70.9221 74.5993 71.2403C76.98 71.8554 79.4097 72.4674 81.8209 73.0732Z" fill="#FFD801"/>
<path d="M103.311 57.1093C101.668 58.6607 99.9604 60.1173 98.1948 61.5218C97.3166 62.2318 96.4108 62.908 95.4775 63.5904C95.0032 63.9209 94.5259 64.2514 93.9842 64.5849C93.8465 64.6675 93.7058 64.7501 93.5497 64.8358C93.3661 64.9406 93.176 65.0336 92.9806 65.1143C92.8011 65.187 92.6158 65.2443 92.4267 65.2856L92.3012 65.3071L92.136 65.3254C91.9611 65.3443 91.7846 65.3443 91.6097 65.3254H91.5209L91.3955 65.3009C91.3146 65.2821 91.2349 65.2586 91.1568 65.2306H91.114L91.0283 65.1999C90.9242 65.1602 90.7865 65.1112 90.707 65.0745L90.4438 64.9582C89.792 64.6522 89.2841 64.3676 88.7639 64.0708C88.2437 63.774 87.7541 63.4772 87.2706 63.1528C86.3036 62.5408 85.355 61.9288 84.4309 61.2648L84.284 61.1638L83.4303 60.5518C81.9278 59.4808 80.4682 58.3761 79.0361 57.2011L82.0288 53.3271C83.8128 54.6001 85.5784 55.9435 87.3257 57.2654C88.2039 57.9172 89.0699 58.5873 89.942 59.2207C90.3796 59.5267 90.8079 59.8572 91.2333 60.1571C91.5393 60.3713 91.8453 60.5885 92.1513 60.7691C92.5399 60.5885 92.953 60.3743 93.3753 60.1571C94.3331 59.6705 95.2939 59.132 96.267 58.6087C98.207 57.553 100.168 56.4667 102.164 55.4753L103.311 57.1093Z" fill="#FFD801"/>
<path opacity="0.2" d="M84.2844 61.1362L83.4306 60.5242L83.1675 56.3473L84.2844 61.1362Z" fill="black"/>
<path d="M103.115 57.146C103.287 57.1334 103.453 57.085 103.605 57.0038C103.756 56.9226 103.888 56.8105 103.994 56.6747C104.502 55.8455 105.303 55.6925 105.625 55.515C105.946 55.3375 105.579 54.7928 104.765 54.9672C104.765 54.9672 105.114 53.832 105.395 53.5566C105.677 53.2812 107.158 52.6937 107.13 52.4825C107.103 52.2714 105.955 52.6141 105.294 52.917C104.633 53.22 103.268 54.8999 102.044 55.5027C102.035 55.5027 101.552 56.7757 103.115 57.146Z" fill="#FFC3BD"/>
<path d="M44.8777 55.8209C45.144 57.8375 45.3429 59.8632 45.5203 61.8889C45.6152 62.8987 45.6856 63.9146 45.7713 64.9214L45.8845 66.433L45.9946 67.7794C46.0101 67.9366 46.043 68.0915 46.0926 68.2415C46.1476 68.4434 46.215 68.6699 46.2884 68.8932C46.4322 69.3431 46.5944 69.8112 46.7627 70.2733C47.0871 71.2127 47.4481 72.1521 47.7909 73.1038C48.4947 74.9979 49.2076 76.9104 49.8717 78.8382L47.6991 79.9154C46.5607 78.1895 45.5081 76.43 44.4952 74.6277C43.9842 73.7311 43.5038 72.8162 43.0234 71.8737C42.7847 71.4055 42.5552 70.9281 42.3288 70.4324C42.2155 70.1815 42.1023 69.9306 41.9922 69.6521C41.8539 69.3269 41.7414 68.9913 41.6556 68.6484L41.6127 68.4648L41.5944 68.3516L41.5546 68.1435L41.4842 67.7427L41.3557 66.9716L41.1109 65.4416C40.964 64.4256 40.8049 63.4158 40.6794 62.403C40.4101 60.3773 40.1715 58.3546 40.0093 56.3197L44.8777 55.8209Z" fill="#FFD801"/>
<path d="M47.688 67.7165L53.693 74.8049C53.7654 74.8904 53.8009 75.0011 53.7917 75.1127C53.7824 75.2243 53.7292 75.3277 53.6438 75.4001L43.6602 83.8578C43.5747 83.9302 43.464 83.9657 43.3524 83.9565C43.2408 83.9472 43.1374 83.894 43.065 83.8086L37.06 76.7201C36.9881 76.6353 36.9529 76.5254 36.962 76.4146C36.9712 76.3038 37.024 76.2011 37.1088 76.1293L47.0948 67.6696C47.1796 67.5977 47.2895 67.5625 47.4003 67.5716C47.5111 67.5808 47.6138 67.6336 47.6856 67.7185L47.688 67.7165Z" fill="#263238"/>
<path opacity="0.2" d="M47.688 67.7165L53.693 74.8049C53.7654 74.8904 53.8009 75.0011 53.7917 75.1127C53.7824 75.2243 53.7292 75.3277 53.6438 75.4001L43.6602 83.8578C43.5747 83.9302 43.464 83.9657 43.3524 83.9565C43.2408 83.9472 43.1374 83.894 43.065 83.8086L37.06 76.7201C36.9881 76.6353 36.9529 76.5254 36.962 76.4146C36.9712 76.3038 37.024 76.2011 37.1088 76.1293L47.0948 67.6696C47.1796 67.5977 47.2895 67.5625 47.4003 67.5716C47.5111 67.5808 47.6138 67.6336 47.6856 67.7185L47.688 67.7165Z" fill="white"/>
<path d="M46.6924 75.7568C46.693 76.0178 46.6162 76.2731 46.4716 76.4904C46.3271 76.7077 46.1213 76.8772 45.8804 76.9775C45.6394 77.0778 45.3742 77.1043 45.1181 77.0538C44.8621 77.0032 44.6268 76.8779 44.4421 76.6936C44.2573 76.5092 44.1314 76.2742 44.0803 76.0183C44.0291 75.7624 44.0551 75.4971 44.1548 75.2559C44.2545 75.0147 44.4236 74.8086 44.6405 74.6635C44.8575 74.5185 45.1126 74.441 45.3735 74.441C45.7228 74.441 46.0578 74.5796 46.305 74.8262C46.5523 75.0729 46.6916 75.4076 46.6924 75.7568Z" fill="#263238"/>
<path d="M38.7333 40.2823C38.7333 40.2823 36.4169 40.2547 35.8539 42.868C35.2694 45.5914 35.0981 44.5204 33.8526 45.8178C32.6072 47.1153 33.9689 48.8778 31.8208 49.8509C31.8208 49.8509 33.6109 51.589 37.0932 50.9066C40.5755 50.2242 40.0889 52.7028 44.5841 52.048C44.3874 51.653 44.3088 51.2097 44.3577 50.7712C44.4065 50.3327 44.5807 49.9175 44.8595 49.5755C45.8387 48.4066 45.1104 47.5528 45.1502 46.3105C45.1899 45.0681 45.5112 42.3661 43.8038 41.2033C42.0963 40.0405 40.5908 40.5485 40.5908 40.5485C40.0002 40.3187 39.3647 40.2276 38.7333 40.2823Z" fill="#263238"/>
<path d="M44.7827 133.771L45.6579 137.382H47.5612L47.6469 133.771H44.7827Z" fill="#FF8B7B"/>
<path d="M53.0818 139.937C52.9808 138.759 52.4698 138.407 51.8241 138.371C51.1785 138.334 48.7917 137.535 48.7917 137.535C48.7917 137.535 48.296 136.786 47.8737 136.636C47.4514 136.486 47.0169 136.926 47.0169 136.926L45.8235 136.782C45.8235 136.782 45.4655 136.244 45.2115 136.715C44.832 137.443 44.8779 139.469 44.9055 139.937H53.0818Z" fill="#7C7C7C"/>
<path d="M52.9284 139.628H51.4443L44.9571 139.595C44.8745 139.595 44.8929 139.469 44.9724 139.472H45.4131V139.457C45.5063 139.317 45.5693 139.16 45.5979 138.994C45.6265 138.829 45.6201 138.659 45.5792 138.496C45.5382 138.333 45.4637 138.181 45.3602 138.048C45.2568 137.916 45.1268 137.807 44.9786 137.728C44.9112 137.691 44.9786 137.581 45.0551 137.621C45.2112 137.706 45.3484 137.822 45.4583 137.961C45.5682 138.101 45.6485 138.262 45.6943 138.434C45.7401 138.605 45.7505 138.785 45.7247 138.961C45.699 139.137 45.6377 139.305 45.5447 139.457H46.4627L52.9468 139.491C53.0264 139.506 53.0111 139.631 52.9284 139.628Z" fill="black"/>
<path d="M48.4336 138.034C48.7702 137.636 49.2629 137.526 49.6209 137.823C49.6791 137.872 49.7586 137.765 49.7005 137.716C49.2874 137.373 48.7152 137.523 48.3327 137.97C48.2776 138.037 48.3755 138.098 48.4336 138.034Z" fill="white"/>
<path d="M49.1037 138.254C49.4403 137.856 49.933 137.746 50.291 138.043C50.3492 138.092 50.4287 137.982 50.3706 137.936C49.9575 137.593 49.3853 137.74 49.0028 138.19C48.9477 138.257 49.0487 138.319 49.1037 138.254Z" fill="white"/>
<path d="M49.7951 138.465C50.1347 138.068 50.6274 137.954 50.9854 138.254C51.0436 138.303 51.1201 138.193 51.065 138.147C50.6519 137.805 50.0797 137.951 49.6972 138.401C49.639 138.465 49.74 138.53 49.7951 138.465Z" fill="white"/>
<path d="M36.9157 86.4669C37.4765 91.314 38.3194 96.1244 39.4402 100.873C39.8482 102.634 40.3021 104.511 40.8019 106.504C39.4035 118.064 44.8809 134.763 44.8809 134.763L47.8154 134.699C47.8154 134.699 48.1826 116.033 47.8368 106.265C47.2738 90.2582 45.3215 74.998 45.3215 74.998L37.3318 74.9674C37.3318 74.9674 35.9518 77.3848 36.9157 86.4669Z" fill="#263238"/>
<path opacity="0.2" d="M36.9155 86.4669C37.4763 91.3141 38.3192 96.1244 39.44 100.873C41.12 94.4688 38.0783 80.8059 38.0783 80.8059L36.9155 86.4669Z" fill="black"/>
<path d="M48.152 135.39L48.2438 134.132H44.3301L44.5535 135.39H48.152Z" fill="#263238"/>
<path d="M32.6162 133.771L33.4944 137.382H35.3947L35.4834 133.771H32.6162Z" fill="#FF8B7B"/>
<path d="M36.0588 135.39L36.1506 134.132H32.2368L32.4571 135.39H36.0588Z" fill="#263238"/>
<path d="M40.9179 139.937C40.8139 138.759 40.306 138.407 39.6603 138.371C39.0146 138.334 36.6248 137.535 36.6248 137.535C36.6248 137.535 36.1291 136.786 35.7068 136.636C35.2845 136.486 34.8469 136.926 34.8469 136.926L33.6535 136.782C33.6535 136.782 33.2955 136.244 33.0415 136.715C32.659 137.443 32.7049 139.469 32.7355 139.937H40.9179Z" fill="#7C7C7C"/>
<path d="M40.7621 139.628H39.2811L32.7939 139.595C32.7082 139.595 32.7266 139.469 32.8092 139.472H33.2468V139.457C33.3365 139.317 33.3965 139.161 33.4227 138.997C33.449 138.833 33.441 138.665 33.3993 138.505C33.3576 138.344 33.2832 138.194 33.1805 138.063C33.0779 137.933 32.9494 137.825 32.8031 137.746C32.7357 137.71 32.8031 137.599 32.8826 137.639C33.0388 137.724 33.1761 137.84 33.2859 137.98C33.3957 138.12 33.4759 138.281 33.5214 138.452C33.567 138.624 33.577 138.804 33.5508 138.98C33.5246 139.155 33.4628 139.324 33.3692 139.475H34.2872L40.7744 139.509C40.8631 139.506 40.8447 139.631 40.7621 139.628Z" fill="black"/>
<path d="M36.2668 138.034C36.6034 137.636 37.096 137.526 37.4571 137.823C37.5152 137.872 37.5917 137.765 37.5336 137.716C37.1236 137.373 36.5483 137.523 36.1688 137.97C36.1107 138.037 36.2117 138.098 36.2668 138.034Z" fill="white"/>
<path d="M36.9372 138.254C37.2738 137.856 37.7664 137.746 38.1275 138.043C38.1857 138.092 38.2622 137.982 38.204 137.936C37.794 137.593 37.2187 137.74 36.8393 138.19C36.7811 138.257 36.8821 138.319 36.9372 138.254Z" fill="white"/>
<path d="M37.6316 138.465C37.9682 138.068 38.4608 137.954 38.8188 138.254C38.877 138.303 38.9565 138.193 38.8984 138.147C38.4853 137.805 37.9131 137.951 37.5306 138.401C37.4755 138.465 37.5765 138.53 37.6316 138.465Z" fill="white"/>
<path d="M39.6667 75.6253C39.6667 75.6253 38.1857 97.7215 37.6838 106.516C37.1269 116.55 35.8693 133.652 35.701 134.772H32.6777C33.0235 135.112 28.7854 119.76 30.4959 107.263C28.8925 95.3072 26.9432 86.5556 29.4555 75.2979L39.6667 75.6253Z" fill="#263238"/>
<path d="M28.5342 76.1577C34.9082 78.263 45.6182 77.5714 45.6182 76.1118C45.6182 72.0022 44.1616 67.3785 44.5533 64.701C47.5674 62.5927 45.2112 60.6863 45.4713 57.5621C45.5616 56.4092 45.2173 55.2644 44.506 54.3526C43.7948 53.4409 42.7681 52.8283 41.6279 52.6355C41.0863 52.5437 40.5202 52.4519 39.9663 52.3815C39.8531 52.3631 39.7399 52.3509 39.6297 52.3386C38.1509 52.1702 36.6625 52.0997 35.1744 52.1275C34.6297 52.1275 34.0667 52.1275 33.4761 52.1459C32.8855 52.1642 32.3163 52.1795 31.7717 52.2193C31.2924 52.2531 30.8256 52.3873 30.4015 52.6131C29.9775 52.839 29.6056 53.1515 29.3102 53.5303C29.0147 53.9092 28.8022 54.346 28.6864 54.8123C28.5707 55.2786 28.5542 55.764 28.6382 56.2371C29.122 58.9797 29.4287 61.7507 29.5562 64.5327C29.5807 65.108 29.6021 65.6619 29.6082 66.2066C29.6473 68.1115 29.5604 70.0169 29.3481 71.9104C29.3481 71.9441 29.3481 71.9808 29.3481 72.0144C29.2563 72.7672 29.1452 73.4618 29.0146 74.0983C28.9748 74.3003 28.932 74.49 28.8861 74.6766C28.7943 75.0714 28.6413 75.766 28.5342 76.1577Z" fill="#7C7C7C"/>
<path d="M45.6185 76.1118C45.6185 77.5714 34.9085 78.2538 28.5376 76.1577C28.6416 75.766 28.7946 75.0714 28.8864 74.6766C28.9323 74.49 28.9752 74.3003 29.015 74.0983C29.1455 73.4618 29.2567 72.7672 29.3485 72.0144C29.3485 71.9808 29.3485 71.9441 29.3485 71.9104C29.5622 70.017 29.6522 68.1117 29.6178 66.2066C29.6178 65.6619 29.5933 65.108 29.5658 64.5327C29.529 63.6912 29.474 62.8253 29.3913 61.9317C29.3424 61.3565 29.2842 60.7689 29.2139 60.1753C29.067 58.9023 28.8773 57.5865 28.6386 56.2371C28.5546 55.764 28.571 55.2786 28.6868 54.8123C28.8025 54.346 29.015 53.9092 29.3105 53.5303C29.606 53.1515 29.9778 52.839 30.4019 52.6131C30.8259 52.3873 31.2927 52.2531 31.772 52.2193C32.3167 52.1795 32.8889 52.155 33.4764 52.1459C34.064 52.1367 34.6301 52.1275 35.1747 52.1275C36.6629 52.0997 38.1512 52.1702 39.6301 52.3386C39.7433 52.3386 39.8535 52.3631 39.9667 52.3815C40.5206 52.4519 41.0867 52.5437 41.6313 52.6355C42.7703 52.8283 43.7961 53.4399 44.5073 54.3503C45.2184 55.2608 45.5634 56.4041 45.4747 57.5559C45.2146 60.6802 47.5677 62.5866 44.5567 64.6949C44.165 67.3785 45.6185 72.0022 45.6185 76.1118Z" fill="#FFD801"/>
<path opacity="0.2" d="M32.5736 57.1428L29.3943 61.9317C29.3453 61.3564 29.2872 60.7689 29.2168 60.1753L32.5736 57.1428Z" fill="black"/>
<path d="M39.9697 57.5958C39.9697 57.6501 39.9913 57.7023 40.0298 57.7407C40.0682 57.7792 40.1204 57.8008 40.1747 57.8008C40.2291 57.8008 40.2813 57.7792 40.3197 57.7407C40.3582 57.7023 40.3798 57.6501 40.3798 57.5958C40.3798 57.5414 40.3582 57.4892 40.3197 57.4508C40.2813 57.4123 40.2291 57.3907 40.1747 57.3907C40.1204 57.3907 40.0682 57.4123 40.0298 57.4508C39.9913 57.4892 39.9697 57.5414 39.9697 57.5958Z" fill="black"/>
<path d="M40.3002 59.6367C40.4135 59.6367 40.5053 59.5449 40.5053 59.4317C40.5053 59.3185 40.4135 59.2267 40.3002 59.2267C40.187 59.2267 40.0952 59.3185 40.0952 59.4317C40.0952 59.5449 40.187 59.6367 40.3002 59.6367Z" fill="black"/>
<path d="M40.3002 61.5065C40.4135 61.5065 40.5053 61.4147 40.5053 61.3015C40.5053 61.1882 40.4135 61.0964 40.3002 61.0964C40.187 61.0964 40.0952 61.1882 40.0952 61.3015C40.0952 61.4147 40.187 61.5065 40.3002 61.5065Z" fill="black"/>
<path d="M35.1777 52.1275C36.6863 54.7805 40.2359 56.3686 40.2359 56.3686C40.7163 55.1783 40.5664 53.275 39.9697 52.3906C39.8565 52.3723 39.7433 52.36 39.6331 52.3478C38.1545 52.1763 36.6661 52.1027 35.1777 52.1275Z" fill="#FFBE9D"/>
<path d="M40.0215 53.171C40.0359 53.213 40.0554 53.2531 40.0797 53.2903C40.5907 54.1012 40.0338 54.8387 39.1617 54.7775C39.0772 54.7714 38.9934 54.7592 38.9107 54.7407C38.5921 54.6768 38.3012 54.5153 38.0784 54.2787C37.3994 53.5497 36.6648 52.8745 35.8813 52.2591C37.2094 51.5461 37.6959 49.0185 37.8183 47.4396L39.8777 50.0651L40.2633 50.6373C40.0747 50.956 39.9248 51.296 39.8165 51.6501C39.7249 51.9013 39.6957 52.1709 39.7314 52.4358C39.7671 52.7008 39.8667 52.9531 40.0215 53.171Z" fill="#FFBE9D"/>
<path d="M36.0588 52.1276C36.0588 52.1276 34.8348 51.8216 33.8525 52.1276L35.8538 55.567C36.9095 54.799 38.1151 55.7965 40.2357 56.3687C38.4812 55.3644 37.0363 53.8972 36.0588 52.1276Z" fill="#7C7C7C"/>
<path d="M35.8863 55.424L34.0038 52.1887C34.4454 52.0758 34.9277 52.0779 35.3151 52.1124C35.5258 52.1312 35.7064 52.1594 35.8341 52.1829C35.898 52.1946 35.9485 52.2052 35.9828 52.2127C35.9864 52.2135 35.9897 52.2142 35.9929 52.2149C36.8534 53.7581 38.0669 55.0712 39.5301 56.0492C39.2878 55.9675 39.0584 55.8832 38.8403 55.8005C38.7343 55.7604 38.6308 55.7206 38.5295 55.6817C38.2246 55.5645 37.9406 55.4553 37.6761 55.3701C37.0075 55.1548 36.4282 55.0807 35.8863 55.424Z" fill="#FFD801" stroke="black" stroke-width="0.2"/>
<path d="M39.7153 52.2837C39.7153 52.2837 40.9393 52.0603 41.6462 52.6355C41.9032 53.5231 42.0955 54.4282 42.2215 55.3437C42.2215 55.3437 41.0434 54.7561 40.2508 56.3687C40.2355 56.3687 40.6333 53.8014 39.7153 52.2837Z" fill="#7C7C7C"/>
<path d="M42.0991 55.1932C42.0832 55.1887 42.0664 55.1842 42.0487 55.1799C41.9168 55.1478 41.7318 55.1229 41.5196 55.1524C41.1661 55.2015 40.7537 55.3991 40.3914 55.9271C40.4116 55.6624 40.43 55.3005 40.4216 54.8933C40.4052 54.1031 40.2879 53.1276 39.8755 52.3626C39.8916 52.3608 39.9088 52.359 39.9271 52.3573C40.0496 52.3456 40.22 52.336 40.4116 52.3438C40.7892 52.3592 41.2327 52.4418 41.559 52.694C41.7949 53.514 41.9754 54.349 42.0991 55.1932Z" fill="#FFD801" stroke="black" stroke-width="0.2"/>
<g opacity="0.2">
<path d="M39.789 51.6471C39.8972 51.293 40.0472 50.953 40.2357 50.6342L39.8502 50.062L38.5527 50.0926C38.7817 50.7331 39.2165 51.2798 39.789 51.6471Z" fill="black"/>
</g>
<path d="M37.4113 44.6244C37.2063 47.2193 37.0655 48.2964 38.1518 49.8111C39.7889 52.0663 42.9622 51.7389 43.923 49.2572C44.789 47.0234 44.9818 43.1556 42.6562 41.7847C40.3306 40.4138 37.6194 42.0295 37.4113 44.6244Z" fill="#FFBE9D"/>
<path d="M37.9837 46.3227C36.6832 45.9769 37.1942 44.6335 37.1942 44.6335L39.1097 44.9395C39.1097 44.9395 39.2842 46.6654 37.9837 46.3227Z" fill="#263238"/>
<path d="M43.2348 42.0265C43.2348 42.0265 43.2011 43.4616 41.4416 43.5381C39.6821 43.6146 39.8351 46.2156 37.8645 45.8025C35.8938 45.3894 36.87 42.9445 37.7115 42.2927C38.553 41.6409 40.6338 39.6917 43.2348 42.0265Z" fill="#263238"/>
<path d="M42.843 48.6239C42.843 48.6239 41.5792 48.0517 41.313 47.5009C41.313 47.5009 41.1294 48.4862 41.7903 48.8473C41.9621 48.9479 42.1652 48.9808 42.3599 48.9395C42.5546 48.8981 42.7269 48.7856 42.843 48.6239Z" fill="white"/>
<path d="M41.6799 45.7811C41.6524 45.9922 41.7381 46.1758 41.8758 46.1942C42.0135 46.2126 42.1481 46.0596 42.1818 45.8515C42.2154 45.6434 42.1267 45.4567 41.989 45.4384C41.8513 45.42 41.7167 45.573 41.683 45.7811" fill="#263238"/>
<path d="M43.8098 46.1269C43.7792 46.3381 43.8679 46.5217 44.0025 46.5431C44.1372 46.5645 44.2749 46.4054 44.3085 46.1973C44.3422 45.9892 44.2504 45.8026 44.1127 45.7842C43.975 45.7658 43.8404 45.9188 43.8067 46.1269" fill="#263238"/>
<path d="M44.0483 45.7872L44.5716 45.7107C44.5716 45.7107 44.2656 46.0687 44.0483 45.7872Z" fill="#263238"/>
<path d="M43.0297 46.084C43.0297 46.084 43.3112 46.696 43.6417 47.2254C43.6693 47.2654 43.687 47.3114 43.6933 47.3597C43.6996 47.4079 43.6943 47.4569 43.6778 47.5027C43.6614 47.5485 43.6342 47.5896 43.5987 47.6228C43.5631 47.656 43.5202 47.6803 43.4734 47.6935C43.2516 47.763 43.0227 47.8071 42.791 47.8251L43.0297 46.084Z" fill="#BE6F72"/>
<path d="M36.2487 46.2768C36.3129 46.5046 36.4249 46.7161 36.5775 46.8971C36.73 47.0782 36.9194 47.2245 37.1331 47.3264C37.6839 47.5681 38.0511 46.9806 37.9837 46.3227C37.9195 45.729 37.5584 44.8875 36.9678 44.9334C36.3772 44.9793 36.0498 45.677 36.2487 46.2768Z" fill="#FFBE9D"/>
<path d="M41.108 44.9426C41.1246 44.9432 41.1411 44.9402 41.1564 44.9338C41.1717 44.9275 41.1854 44.918 41.1968 44.9059C41.3011 44.7894 41.4313 44.6991 41.577 44.6422C41.7226 44.5854 41.8796 44.5635 42.0352 44.5785C42.0655 44.5795 42.0951 44.5696 42.1186 44.5505C42.1421 44.5315 42.1579 44.5045 42.1632 44.4747C42.1684 44.4449 42.1626 44.4142 42.147 44.3883C42.1313 44.3623 42.1069 44.343 42.078 44.3337C41.8818 44.3098 41.6828 44.3338 41.4979 44.4036C41.313 44.4734 41.1477 44.587 41.0162 44.7345C40.9936 44.7579 40.981 44.7892 40.981 44.8217C40.981 44.8543 40.9936 44.8856 41.0162 44.909C41.0275 44.9201 41.0409 44.9288 41.0556 44.9346C41.0703 44.9404 41.0861 44.9431 41.1019 44.9426" fill="#263238"/>
<path d="M44.7858 45.3159C44.8173 45.3185 44.8487 45.3098 44.8745 45.2914C44.9 45.27 44.9161 45.2395 44.9195 45.2064C44.9229 45.1733 44.9134 45.1402 44.8929 45.114C44.7733 44.9573 44.6177 44.8318 44.4392 44.7481C44.2607 44.6645 44.0647 44.6252 43.8678 44.6336C43.8514 44.6347 43.8354 44.6391 43.8208 44.6466C43.8062 44.654 43.7932 44.6643 43.7826 44.6769C43.7721 44.6894 43.7641 44.704 43.7593 44.7197C43.7545 44.7354 43.7529 44.7519 43.7545 44.7682C43.7561 44.7847 43.7609 44.8007 43.7686 44.8154C43.7764 44.83 43.787 44.843 43.7998 44.8535C43.8126 44.864 43.8274 44.8719 43.8432 44.8767C43.8591 44.8815 43.8758 44.8831 43.8922 44.8814C44.0482 44.8769 44.2029 44.9099 44.3434 44.9775C44.484 45.0451 44.6063 45.1454 44.7001 45.27C44.7104 45.2833 44.7233 45.2942 44.738 45.3021C44.7528 45.31 44.7691 45.3147 44.7858 45.3159Z" fill="#263238"/>
<path d="M41.9219 45.4415L42.4451 45.365C42.4451 45.365 42.1391 45.723 41.9219 45.4415Z" fill="#263238"/>
<path d="M26.0129 68.3639C27.0808 70.0775 28.2712 71.8003 29.437 73.4986L27.6347 75.1204C26.0239 73.6839 24.51 72.1424 23.1028 70.5059C22.3585 69.6531 21.6735 68.7503 21.0526 67.8039C20.8904 67.5499 20.7313 67.2868 20.5783 66.993C20.4027 66.6699 20.2533 66.3332 20.1316 65.9863C20.054 65.759 19.9956 65.5256 19.9571 65.2886C19.8971 64.9351 19.8971 64.5741 19.9571 64.2206C20.0123 63.9045 20.1058 63.5962 20.2356 63.3026C20.3196 63.1092 20.4136 62.9202 20.5171 62.7365C20.8393 62.1846 21.2014 61.6568 21.6004 61.1576C21.9614 60.6955 22.3225 60.2641 22.6867 59.8448C23.4272 59.0186 24.1677 58.2261 24.9358 57.4672C26.4658 55.9372 28.0202 54.5113 29.6941 53.1404L32.8734 56.8644L28.2834 60.9832C27.5337 61.6778 26.7809 62.3571 26.0802 63.0578C25.7252 63.4006 25.3795 63.7463 25.0612 64.0891C24.779 64.3863 24.5134 64.6989 24.2656 65.0254V65.0407C24.287 65.0989 24.3085 65.1631 24.3329 65.2274C24.4033 65.4079 24.489 65.6068 24.5808 65.8118C25.0126 66.6873 25.4906 67.5392 26.0129 68.3639Z" fill="#7C7C7C"/>
<path d="M26.0129 68.3639C27.0808 70.0775 28.2712 71.8003 29.437 73.4986L27.6347 75.1204C26.0239 73.6839 24.51 72.1424 23.1028 70.5059C22.3585 69.6531 21.6735 68.7503 21.0526 67.8039C20.8904 67.5499 20.7313 67.2868 20.5783 66.993C20.4027 66.6699 20.2533 66.3332 20.1316 65.9863C20.054 65.759 19.9956 65.5256 19.9571 65.2886C19.8971 64.9351 19.8971 64.5741 19.9571 64.2206C20.0123 63.9045 20.1058 63.5962 20.2356 63.3026C20.3196 63.1092 20.4136 62.9202 20.5171 62.7365C20.8393 62.1846 21.2014 61.6568 21.6004 61.1576C21.9614 60.6955 22.3225 60.2641 22.6867 59.8448C23.4272 59.0186 24.1677 58.2261 24.9358 57.4672C26.4658 55.9372 28.0202 54.5113 29.6941 53.1404L32.8734 56.8644L28.2834 60.9832C27.5337 61.6778 26.7809 62.3571 26.0802 63.0578C25.7252 63.4006 25.3795 63.7463 25.0612 64.0891C24.779 64.3863 24.5134 64.6989 24.2656 65.0254V65.0407C24.287 65.0989 24.3085 65.1631 24.3329 65.2274C24.4033 65.4079 24.489 65.6068 24.5808 65.8118C25.0126 66.6873 25.4906 67.5392 26.0129 68.3639Z" fill="#FFD801"/>
<path d="M29.3116 72.7397C29.3116 72.7397 31.3435 73.4925 31.6556 73.8903C31.9677 74.2881 29.9756 76.5341 29.2076 76.8463C28.4395 77.1584 28.8343 76.2343 28.8343 76.2343C28.8343 76.2343 27.8336 76.4699 27.3655 75.708C26.8973 74.946 27.4481 72.856 29.3116 72.7397Z" fill="#FFBE9D"/>
<path d="M50.955 78.5598C50.955 78.5598 51.1417 78.517 51.4966 78.0304C51.7158 77.7037 51.8329 77.3192 51.8332 76.9258L50.548 78.0151C50.548 78.0151 49.4066 77.5776 48.712 78.0947C47.2922 79.1382 47.693 80.3132 47.8583 80.6529C48.0235 80.9925 49.1955 80.7844 50.0003 80.1082C50.4823 79.713 50.8184 79.168 50.955 78.5598Z" fill="#FFBE9D"/>
<path d="M78.5664 59.5215L79.5123 59.4921L80.6705 61.8984L79.7082 61.9283L78.5664 59.5215Z" fill="#212221"/>
<path d="M80.0633 60.3719L80.4546 59.5078C80.5527 59.5552 80.6631 59.5712 80.7706 59.5537C80.9992 59.5386 81.0996 59.4699 81.3687 59.4475C81.5284 59.4338 81.6891 59.4396 81.8474 59.4645L81.4528 60.3526C81.3394 60.304 81.2152 60.2858 81.0926 60.3C80.85 60.3139 80.7691 60.4007 80.5147 60.4176C80.3627 60.4279 80.2101 60.4125 80.0632 60.3719" fill="#212221"/>
<path d="M41.873 59.3076L42.747 59.2948L43.7801 61.5346L42.891 61.5477L41.873 59.3076Z" fill="#212221"/>
<path d="M43.2421 60.1158L43.6166 59.3238C43.7065 59.369 43.8081 59.3855 43.9077 59.371C44.119 59.3605 44.2128 59.2985 44.4616 59.282C44.6093 59.2718 44.7576 59.2795 44.9034 59.3049L44.5256 60.1191C44.4216 60.0724 44.3071 60.0538 44.1937 60.0651C43.9695 60.0742 43.8935 60.1531 43.6583 60.1648C43.5177 60.1721 43.377 60.1555 43.242 60.1159" fill="#212221"/>
</g>
<defs>
<clipPath id="clip0_1514_52031">
<rect width="153" height="153" fill="white" transform="translate(0.853516 0.333984)"/>
</clipPath>
</defs>
</svg>
