<svg width="162" height="162" viewBox="0 0 162 162" fill="none" xmlns="http://www.w3.org/2000/svg">
<g clip-path="url(#clip0_1514_52288)">
<path d="M161.521 122.432H-13.9224V122.519H161.521V122.432Z" fill="#EBEBEB"/>
<path d="M43.8303 127.844H32.209V127.932H43.8303V127.844Z" fill="#EBEBEB"/>
<path d="M76.9013 126.891H73.8521V126.979H76.9013V126.891Z" fill="#EBEBEB"/>
<path d="M11.2184 125.412H4.48486V125.5H11.2184V125.412Z" fill="#EBEBEB"/>
<path d="M131.969 124.823H122.818V124.911H131.969V124.823Z" fill="#EBEBEB"/>
<path d="M119.692 124.823H111.467V124.911H119.692V124.823Z" fill="#EBEBEB"/>
<path d="M143.945 129.033H111.074V129.121H143.945V129.033Z" fill="#EBEBEB"/>
<path d="M69.2375 106.783H1.48491C0.954146 106.782 0.445434 106.571 0.0704517 106.195C-0.30453 105.819 -0.515138 105.31 -0.515137 104.779V9.53838C-0.510516 9.01066 -0.29787 8.50607 0.0766129 8.13421C0.451096 7.76236 0.957171 7.55327 1.48491 7.55237H69.2375C69.7689 7.55237 70.2785 7.76346 70.6543 8.1392C71.03 8.51494 71.2411 9.02455 71.2411 9.55593V104.779C71.2411 105.311 71.03 105.82 70.6543 106.196C70.2785 106.572 69.7689 106.783 69.2375 106.783ZM1.48491 7.62255C0.977411 7.62348 0.491011 7.82573 0.13248 8.18492C-0.226051 8.54411 -0.427416 9.03088 -0.427415 9.53838V104.779C-0.427416 105.287 -0.226051 105.774 0.13248 106.133C0.491011 106.492 0.977411 106.694 1.48491 106.695H69.2375C69.7454 106.694 70.2321 106.492 70.5912 106.133C70.9503 105.774 71.1524 105.287 71.1534 104.779V9.53838C71.1524 9.03056 70.9503 8.54379 70.5912 8.18471C70.2321 7.82562 69.7454 7.62347 69.2375 7.62255H1.48491Z" fill="#EBEBEB"/>
<path d="M145.138 106.783H77.382C76.8509 106.782 76.3418 106.571 75.9663 106.195C75.5907 105.82 75.3793 105.311 75.3784 104.779V9.53838C75.384 9.01034 75.5974 8.50575 75.9724 8.13399C76.3475 7.76224 76.8539 7.55326 77.382 7.55237H145.138C145.665 7.55419 146.17 7.76369 146.544 8.13545C146.918 8.5072 147.13 9.01127 147.135 9.53838V104.779C147.135 105.31 146.925 105.818 146.55 106.194C146.176 106.569 145.668 106.781 145.138 106.783ZM77.382 7.62255C76.8741 7.62347 76.3874 7.82562 76.0283 8.18471C75.6692 8.54379 75.4671 9.03056 75.4661 9.53838V104.779C75.4671 105.287 75.6692 105.774 76.0283 106.133C76.3874 106.492 76.8741 106.694 77.382 106.695H145.138C145.646 106.694 146.133 106.492 146.492 106.133C146.851 105.774 147.053 105.287 147.054 104.779V9.53838C147.053 9.03056 146.851 8.54379 146.492 8.18471C146.133 7.82562 145.646 7.62347 145.138 7.62255H77.382Z" fill="#EBEBEB"/>
<path d="M97.8699 121.387H106.133V85.2321H97.8699V121.387Z" fill="#F0F0F0"/>
<path d="M68.1674 122.432H104.551V121.386H68.1674V122.432Z" fill="#F0F0F0"/>
<path d="M97.8702 85.2324H66.5781V121.388H97.8702V85.2324Z" fill="#F5F5F5"/>
<path d="M94.6208 87.2604H69.8271V102.503H94.6208V87.2604Z" fill="#F0F0F0"/>
<path d="M94.6208 104.115H69.8271V119.358H94.6208V104.115Z" fill="#F0F0F0"/>
<path d="M88.6523 89.9153H75.7993C75.3974 89.9158 74.9994 89.8368 74.6281 89.6829C74.2568 89.529 73.9197 89.3032 73.636 89.0185C73.3523 88.7338 73.1276 88.3958 72.975 88.0241C72.8224 87.6523 72.7448 87.254 72.7466 86.8521H91.6945C91.6963 87.2531 91.619 87.6505 91.4671 88.0216C91.3151 88.3927 91.0914 88.7302 90.8088 89.0148C90.5263 89.2993 90.1903 89.5253 89.8203 89.6798C89.4502 89.8344 89.0533 89.9144 88.6523 89.9153Z" fill="#F5F5F5"/>
<path d="M88.6522 106.772H75.7992C74.9905 106.772 74.2149 106.451 73.6431 105.879C73.0713 105.307 72.75 104.531 72.75 103.723H91.6979C91.6979 104.531 91.3771 105.306 90.806 105.878C90.2349 106.449 89.4603 106.771 88.6522 106.772Z" fill="#F5F5F5"/>
<path d="M131.618 121.387H139.882V85.2321H131.618V121.387Z" fill="#F0F0F0"/>
<path d="M101.913 122.432H138.296V121.386H101.913V122.432Z" fill="#F0F0F0"/>
<path d="M131.618 85.2324H100.326V121.388H131.618V85.2324Z" fill="#F5F5F5"/>
<path d="M128.369 87.2604H103.575V102.503H128.369V87.2604Z" fill="#F0F0F0"/>
<path d="M128.369 104.115H103.575V119.358H128.369V104.115Z" fill="#F0F0F0"/>
<path d="M122.397 89.9169H109.544C108.736 89.9169 107.96 89.5956 107.388 89.0238C106.816 88.4519 106.495 87.6764 106.495 86.8677H125.443C125.443 87.6758 125.122 88.4508 124.551 89.0225C123.98 89.5943 123.205 89.9159 122.397 89.9169Z" fill="#F5F5F5"/>
<path d="M122.397 106.772H109.544C108.736 106.772 107.96 106.451 107.388 105.879C106.816 105.307 106.495 104.531 106.495 103.723H125.443C125.443 104.531 125.122 105.306 124.551 105.878C123.98 106.449 123.205 106.771 122.397 106.772Z" fill="#F5F5F5"/>
<path d="M25.1734 36.6553H39.3281V20.2934H25.1734V36.6553Z" fill="#E6E6E6"/>
<path d="M23.5593 36.6553H38.9492V20.2934L23.5593 20.2934V36.6553Z" fill="#F5F5F5"/>
<path d="M37.6577 35.368V21.5852H24.8469V35.368H37.6577Z" fill="white"/>
<path d="M34.5562 32.0269V31.5251C34.5553 29.7749 33.8596 28.0967 32.6221 26.8591C31.3845 25.6215 29.7062 24.9259 27.9561 24.9249V25.4267C27.9561 27.1772 28.6514 28.8559 29.8892 30.0937C31.127 31.3315 32.8058 32.0269 34.5562 32.0269Z" fill="#F5F5F5"/>
<path d="M86.6558 67.5364H139.885V17.7456L86.6558 17.7456V67.5364Z" fill="#E6E6E6"/>
<path d="M85.0066 67.5364H139.113V17.7456L85.0066 17.7456V67.5364Z" fill="#F0F0F0"/>
<path d="M86.6558 69.3123H139.885V67.5368H86.6558V69.3123Z" fill="#E6E6E6"/>
<path d="M82.2556 69.3123H136.362V67.5368H82.2556V69.3123Z" fill="#F0F0F0"/>
<path d="M136.801 64.8616V20.4183L87.3118 20.4183V64.8616H136.801Z" fill="#FAFAFA"/>
<path d="M122.769 64.8651L114.527 20.4183H100.947L109.19 64.8651H122.769Z" fill="white"/>
<path d="M106.27 64.8651L98.0312 20.4183H92.7363L100.975 64.8651H106.27Z" fill="white"/>
<path d="M87.6069 64.8616V20.4183H87.3122V64.8616H87.6069Z" fill="#E6E6E6"/>
<path d="M15.1378 63.3466H26.1802V50.6761H15.1378L15.1378 63.3466Z" fill="#E6E6E6"/>
<path d="M13.889 63.3466H25.8086V50.6761H13.889L13.889 63.3466Z" fill="#F5F5F5"/>
<path d="M24.812 62.346V51.672H14.8889V62.346H24.812Z" fill="white"/>
<path d="M22.405 57.206V56.8165C22.405 56.4808 22.3388 56.1483 22.2102 55.8382C22.0816 55.528 21.8932 55.2463 21.6556 55.009C21.418 54.7718 21.136 54.5837 20.8257 54.4555C20.5154 54.3274 20.1828 54.2616 19.8471 54.2621C19.172 54.2658 18.5259 54.5366 18.0499 55.0152C17.5738 55.4939 17.3066 56.1415 17.3066 56.8165V57.206C17.3066 57.8835 17.5758 58.5332 18.0548 59.0123C18.5339 59.4913 19.1836 59.7605 19.8611 59.7605C20.5367 59.7577 21.1838 59.4873 21.6606 59.0086C22.1373 58.5298 22.405 57.8817 22.405 57.206Z" fill="#F5F5F5"/>
<path d="M42.679 58.8066H57.8408V41.3395H42.679V58.8066Z" fill="#E6E6E6"/>
<path d="M40.9597 58.8066H57.3882V41.3395H40.9597V58.8066Z" fill="#F5F5F5"/>
<path d="M56.0127 57.434V42.7213H42.3352V57.434H56.0127Z" fill="white"/>
<path d="M49.7458 47.3457L52.3424 51.844C52.4003 51.9444 52.4308 52.0582 52.4308 52.174C52.4307 52.2899 52.4002 52.4037 52.3422 52.504C52.2842 52.6043 52.2009 52.6876 52.1005 52.7454C52.0001 52.8033 51.8863 52.8337 51.7704 52.8335H46.5773C46.4615 52.8337 46.3476 52.8033 46.2472 52.7454C46.1469 52.6876 46.0635 52.6043 46.0055 52.504C45.9476 52.4037 45.917 52.2899 45.917 52.174C45.917 52.0582 45.9474 51.9444 46.0054 51.844L48.6019 47.3457C48.6604 47.246 48.744 47.1633 48.8443 47.1059C48.9447 47.0484 49.0583 47.0182 49.1739 47.0182C49.2895 47.0182 49.4031 47.0484 49.5034 47.1059C49.6037 47.1633 49.6873 47.246 49.7458 47.3457Z" fill="#F5F5F5"/>
<path d="M17.6645 122.429H25.998L25.998 96.155H17.6645L17.6645 122.429Z" fill="#E6E6E6"/>
<path d="M19.247 122.434H17.6646V117.932H20.9067L19.247 122.434Z" fill="#F0F0F0"/>
<path d="M48.8056 122.429H57.1392V96.155H48.8056V122.429Z" fill="#E6E6E6"/>
<path d="M17.6679 119.667H50.188V96.1545H17.6679V119.667Z" fill="#F0F0F0"/>
<path d="M18.8926 97.6321V114.043H33.3947V97.6321H18.8926Z" fill="#E6E6E6"/>
<path d="M34.458 97.6321V114.043H48.9601V97.6321H34.458Z" fill="#E6E6E6"/>
<path d="M40.2757 98.8906H43.1425C43.7582 98.8925 44.3678 98.769 44.9342 98.5277C45.5007 98.2864 46.0121 97.9323 46.4373 97.4871H36.9634C37.3904 97.9348 37.9046 98.2903 38.4743 98.5317C39.0439 98.7731 39.657 98.8953 40.2757 98.8906Z" fill="#F0F0F0"/>
<path d="M24.5633 98.8906H27.4335C28.0492 98.8923 28.6587 98.7687 29.2251 98.5274C29.7916 98.2861 30.303 97.9322 30.7283 97.4871H21.2544C21.6812 97.9341 22.1949 98.2891 22.7639 98.5305C23.3329 98.7718 23.9452 98.8944 24.5633 98.8906Z" fill="#F0F0F0"/>
<path d="M48.6055 122.434H50.188V117.932H46.9458L48.6055 122.434Z" fill="#F0F0F0"/>
<path d="M40.0264 92.6357C40.0257 92.9933 40.1311 93.343 40.3292 93.6406C40.5273 93.9382 40.8093 94.1704 41.1395 94.3077C41.4696 94.445 41.8331 94.4813 42.1838 94.412C42.5346 94.3427 42.8569 94.1708 43.11 93.9182C43.3631 93.6657 43.5355 93.3437 43.6055 92.9931C43.6755 92.6424 43.6399 92.2789 43.5033 91.9485C43.3666 91.6181 43.135 91.3357 42.8377 91.1369C42.5405 90.9382 42.191 90.8322 41.8334 90.8322C41.3551 90.8331 40.8965 91.0233 40.5579 91.3612C40.2193 91.6991 40.0282 92.1573 40.0264 92.6357Z" fill="#E0E0E0"/>
<path d="M42.6512 93.268C43.6473 93.268 44.4548 92.4605 44.4548 91.4644C44.4548 90.4684 43.6473 89.6609 42.6512 89.6609C41.6551 89.6609 40.8477 90.4684 40.8477 91.4644C40.8477 92.4605 41.6551 93.268 42.6512 93.268Z" fill="#E0E0E0"/>
<path d="M30.9912 92.9257C30.9912 93.2825 31.097 93.6311 31.2952 93.9277C31.4933 94.2243 31.775 94.4555 32.1046 94.592C32.4341 94.7285 32.7968 94.7642 33.1466 94.6946C33.4965 94.625 33.8178 94.4533 34.0701 94.201C34.3223 93.9488 34.4941 93.6275 34.5637 93.2776C34.6333 92.9277 34.5975 92.5651 34.461 92.2356C34.3245 91.906 34.0934 91.6243 33.7968 91.4261C33.5002 91.228 33.1515 91.1222 32.7948 91.1222C32.3164 91.1222 31.8577 91.3122 31.5195 91.6504C31.1812 91.9887 30.9912 92.4474 30.9912 92.9257Z" fill="#E0E0E0"/>
<path d="M45.0652 93.973C46.288 93.973 47.2793 92.9817 47.2793 91.7589C47.2793 90.5361 46.288 89.5448 45.0652 89.5448C43.8424 89.5448 42.8511 90.5361 42.8511 91.7589C42.8511 92.9817 43.8424 93.973 45.0652 93.973Z" fill="#E0E0E0"/>
<path d="M38.4648 89.7185C38.4642 90.1566 38.5934 90.585 38.8363 90.9496C39.0791 91.3141 39.4247 91.5985 39.8292 91.7666C40.2337 91.9347 40.679 91.979 41.1087 91.894C41.5385 91.809 41.9333 91.5984 42.2433 91.2889C42.5533 90.9794 42.7645 90.5849 42.8502 90.1553C42.9359 89.7257 42.8923 89.2803 42.7248 88.8755C42.5573 88.4708 42.2736 88.1248 41.9094 87.8813C41.5452 87.6379 41.117 87.5079 40.6789 87.5079C40.0926 87.5089 39.5305 87.7419 39.1156 88.1562C38.7007 88.5705 38.4667 89.1322 38.4648 89.7185Z" fill="#E0E0E0"/>
<path d="M34.9561 90.2852C34.9554 90.7232 35.0846 91.1516 35.3275 91.5162C35.5704 91.8808 35.9159 92.1651 36.3204 92.3332C36.7249 92.5013 37.1702 92.5457 37.5999 92.4607C38.0297 92.3756 38.4245 92.165 38.7345 91.8555C39.0445 91.546 39.2557 91.1515 39.3414 90.7219C39.4272 90.2923 39.3835 89.847 39.216 89.4422C39.0486 89.0374 38.7648 88.6914 38.4006 88.448C38.0364 88.2045 37.6082 88.0746 37.1701 88.0746C36.5835 88.0746 36.0209 88.3074 35.6058 88.7218C35.1907 89.1363 34.957 89.6986 34.9561 90.2852Z" fill="#E0E0E0"/>
<path d="M36.4404 92.0696C36.4404 92.4859 36.5639 92.893 36.7952 93.2392C37.0266 93.5854 37.3554 93.8553 37.7401 94.0146C38.1248 94.174 38.5481 94.2156 38.9565 94.1344C39.3649 94.0532 39.74 93.8527 40.0344 93.5582C40.3289 93.2638 40.5294 92.8887 40.6106 92.4803C40.6918 92.0719 40.6502 91.6486 40.4908 91.2639C40.3315 90.8792 40.0616 90.5504 39.7154 90.319C39.3692 90.0877 38.9621 89.9642 38.5457 89.9642C37.9874 89.9642 37.4519 90.186 37.0571 90.5809C36.6622 90.9757 36.4404 91.5112 36.4404 92.0696Z" fill="#E0E0E0"/>
<path d="M32.7769 91.9346C32.7769 92.3843 32.9102 92.8239 33.1601 93.1979C33.4099 93.5718 33.765 93.8632 34.1805 94.0353C34.5959 94.2074 35.0531 94.2524 35.4942 94.1647C35.9352 94.0769 36.3404 93.8604 36.6584 93.5424C36.9764 93.2244 37.1929 92.8193 37.2807 92.3782C37.3684 91.9371 37.3234 91.48 37.1513 91.0645C36.9792 90.649 36.6877 90.2939 36.3138 90.0441C35.9399 89.7942 35.5003 89.6609 35.0506 89.6609C34.4476 89.6609 33.8692 89.9004 33.4428 90.3269C33.0164 90.7533 32.7769 91.3316 32.7769 91.9346Z" fill="#E0E0E0"/>
<path d="M48.5948 92.6348C48.5948 92.6348 48.3491 96.1436 38.8506 96.1436C29.3522 96.1436 29.103 92.6348 29.103 92.6348H48.5948Z" fill="#F0F0F0"/>
<path d="M73.799 138.28C111.373 138.28 141.832 136.502 141.832 134.308C141.832 132.115 111.373 130.336 73.799 130.336C36.2252 130.336 5.76562 132.115 5.76562 134.308C5.76562 136.502 36.2252 138.28 73.799 138.28Z" fill="#F5F5F5"/>
<path d="M103.053 88.7869H21.8086V90.0887H103.053V88.7869Z" fill="#263238"/>
<path d="M103.053 90.0897H120.682V88.7879H103.053V90.0897Z" fill="#263238"/>
<path opacity="0.2" d="M103.053 90.0897H120.682V88.7879H103.053V90.0897Z" fill="black"/>
<path d="M114.794 91.4827H27.6965L24.7842 90.0897H117.706L114.794 91.4827Z" fill="#263238"/>
<path opacity="0.6" d="M114.794 91.4827H27.6965L24.7842 90.0897H117.706L114.794 91.4827Z" fill="white"/>
<path d="M30.3281 91.4818V133.006H31.4439L32.8475 91.4818H30.3281Z" fill="#263238"/>
<path d="M43.5005 91.4818V133.006H44.6163L46.0199 91.4818H43.5005Z" fill="#263238"/>
<path d="M114.793 91.4818V133.006H113.681L112.274 91.4818H114.793Z" fill="#263238"/>
<path d="M101.625 91.4818V133.006H100.509L99.1055 91.4818H101.625Z" fill="#263238"/>
<path d="M75.1118 73.025L71.445 87.9623L71.3433 88.7868H96.6351L96.7404 87.9623L100.404 73.025H75.1118Z" fill="#263238"/>
<path opacity="0.3" d="M75.1118 73.025L71.445 87.9623L71.3433 88.7868H96.6351L96.7404 87.9623L100.404 73.025H75.1118Z" fill="black"/>
<path d="M99.6281 73.025H74.3327L70.6694 87.9623H95.9613L99.6281 73.025Z" fill="#263238"/>
<path d="M95.4244 87.2787L98.7578 73.71H74.8695L71.5396 87.2787H95.4244Z" fill="white"/>
<path d="M89.3716 87.9613L89.2663 88.7859H61.4165L61.5183 87.9613H89.3716Z" fill="#263238"/>
<path opacity="0.6" d="M89.3716 87.9613L89.2663 88.7859H61.4165L61.5183 87.9613H89.3716Z" fill="white"/>
<path d="M36.76 86.0704C36.7423 85.5359 36.5331 85.0256 36.1704 84.6327C35.8077 84.2397 35.3158 83.9903 34.7845 83.93V83.5264C34.784 83.5031 34.7789 83.4801 34.7695 83.4587C34.76 83.4374 34.7464 83.4181 34.7294 83.4021C34.7124 83.3861 34.6924 83.3737 34.6705 83.3655C34.6486 83.3573 34.6253 83.3536 34.602 83.3545H30.8124C30.7889 83.3536 30.7655 83.3573 30.7434 83.3654C30.7213 83.3735 30.7011 83.3859 30.6838 83.4019C30.6665 83.4179 30.6526 83.4371 30.6427 83.4585C30.6329 83.4798 30.6274 83.5029 30.6265 83.5264V88.7897H34.7845V88.2143C35.3167 88.1546 35.8094 87.9049 36.1723 87.511C36.5352 87.1172 36.7439 86.6057 36.76 86.0704ZM34.7845 87.5336V84.6107C35.1351 84.6624 35.4555 84.8384 35.6872 85.1067C35.9188 85.375 36.0463 85.7177 36.0463 86.0721C36.0463 86.4266 35.9188 86.7692 35.6872 87.0375C35.4555 87.3058 35.1351 87.4819 34.7845 87.5336Z" fill="#263238"/>
<path d="M107.681 88.7859H111.204L110.162 81.0699H107.681V88.7859Z" fill="#263238"/>
<path d="M102.516 88.7877H109.19L110.429 79.7559H103.758L102.516 88.7877Z" fill="#263238"/>
<path opacity="0.3" d="M102.516 88.7877H109.19L110.429 79.7559H103.758L102.516 88.7877Z" fill="black"/>
<path d="M101.625 88.7877H108.569L109.811 79.7559H102.867L101.625 88.7877Z" fill="#263238"/>
<path opacity="0.4" d="M107.955 88.0748L109 80.4675H103.481L102.435 88.0748H107.955Z" fill="white"/>
<path d="M55.3914 75.4545L55.1037 75.7633L54.7949 76.1142C54.5879 76.3528 54.3809 76.5949 54.1844 76.844C53.7914 77.3423 53.4124 77.851 53.058 78.3739C52.3529 79.385 51.7644 80.4727 51.3036 81.6161C51.089 82.1596 50.9223 82.7208 50.8054 83.2933C50.7492 83.6161 50.7141 83.7565 50.6966 83.8933C50.6771 84.0024 50.6771 84.114 50.6966 84.2231C50.7554 84.3947 50.8477 84.5528 50.9682 84.6883C51.0887 84.8239 51.2349 84.9341 51.3984 85.0126C51.6352 85.1586 51.8841 85.2842 52.1422 85.3881C52.2779 85.4442 52.4183 85.4968 52.5633 85.546C52.6966 85.5951 52.8651 85.6442 52.9703 85.6863V87.6197C52.7247 87.6548 52.5457 87.6829 52.3387 87.6969C52.1317 87.7109 51.9317 87.7144 51.7247 87.6969C51.2991 87.6883 50.8756 87.6342 50.4615 87.5355C49.9949 87.4259 49.5477 87.2461 49.1351 87.0022C48.65 86.7183 48.2332 86.3314 47.9141 85.8688C47.5855 85.3763 47.3676 84.8185 47.2754 84.2337C47.252 84.0967 47.2367 83.9584 47.2298 83.8196C47.2229 83.6864 47.2229 83.5528 47.2298 83.4196V83.2231C47.2259 83.1705 47.2259 83.1178 47.2298 83.0652L47.2579 82.7564C47.3476 81.9545 47.5169 81.1634 47.7632 80.395C48.2384 78.9189 48.9074 77.5124 49.7527 76.2124C50.1588 75.5741 50.6005 74.9591 51.0755 74.3702C51.3106 74.0755 51.5527 73.7878 51.8054 73.5036C51.9282 73.3597 52.058 73.2193 52.1914 73.079C52.3247 72.9386 52.4475 72.8158 52.63 72.6404L55.3914 75.4545Z" fill="#B55B52"/>
<path d="M52.272 85.6422L53.9071 84.4421L54.837 87.8036C54.837 87.8036 53.3878 88.3405 52.2825 87.6177L52.272 85.6422Z" fill="#B55B52"/>
<path d="M56.1775 83.6367L56.8161 86.4508L54.8371 87.8052L53.9072 84.4438L56.1775 83.6367Z" fill="#B55B52"/>
<path d="M66.5177 62.5557C66.4441 62.7627 66.4967 62.9697 66.6335 63.0153C66.7704 63.0609 66.9388 62.9346 67.009 62.7276C67.0792 62.5206 67.03 62.31 66.8967 62.2644C66.7634 62.2188 66.5914 62.3451 66.5177 62.5557Z" fill="#263238"/>
<path d="M66.4795 62.9624C66.5068 63.685 66.6331 64.4005 66.8549 65.0888C66.6782 65.1394 66.4926 65.1512 66.3109 65.1234C66.1292 65.0955 65.9557 65.0286 65.8022 64.9274L66.4795 62.9624Z" fill="#A02724"/>
<path d="M66.1813 61.1454C66.2075 61.1543 66.2358 61.1543 66.262 61.1454C66.4159 61.0941 66.5799 61.08 66.7403 61.1044C66.9008 61.1288 67.0531 61.191 67.1848 61.2858C67.2112 61.305 67.2439 61.3135 67.2762 61.3096C67.3086 61.3058 67.3384 61.29 67.3596 61.2652C67.3808 61.2404 67.392 61.2086 67.3908 61.176C67.3896 61.1434 67.3762 61.1125 67.3533 61.0893C67.1885 60.9666 66.9969 60.885 66.7942 60.8514C66.5915 60.8178 66.3838 60.8332 66.1883 60.8963C66.1627 60.9051 66.1405 60.9216 66.1248 60.9437C66.109 60.9657 66.1006 60.9921 66.1006 61.0191C66.1006 61.0462 66.109 61.0726 66.1248 61.0946C66.1405 61.1166 66.1627 61.1332 66.1883 61.1419L66.1813 61.1454Z" fill="#263238"/>
<path d="M58.823 63.3193C59.216 65.3159 59.6055 68.9756 58.209 70.309C58.209 70.309 58.7564 72.3336 62.4687 72.3336C66.5496 72.3336 64.4197 70.309 64.4197 70.309C62.1915 69.7756 62.2477 68.123 62.6372 66.5721L58.823 63.3193Z" fill="#B55B52"/>
<path d="M57.676 71.0035C57.3812 70.3614 57.0619 69.6281 57.7251 69.4C58.4584 69.1474 62.4726 68.8877 63.8551 69.3614C64.0378 69.4111 64.2089 69.4968 64.3581 69.6135C64.5074 69.7301 64.6319 69.8753 64.7244 70.0406C64.8168 70.206 64.8754 70.3881 64.8966 70.5763C64.9179 70.7645 64.9014 70.9551 64.8481 71.1369L57.676 71.0035Z" fill="#263238"/>
<path d="M71.6935 74.4296C72.5532 75.977 73.476 77.57 74.4094 79.0999C75.3428 80.6297 76.3217 82.1526 77.3674 83.5421C77.627 83.893 77.8972 84.2263 78.1639 84.5596C78.2972 84.7316 78.4376 84.8719 78.5744 85.0298L78.7779 85.2614L78.8306 85.3211L78.8551 85.3491L78.8797 85.3807C79.0432 85.5388 79.2397 85.6587 79.4551 85.7316C79.7868 85.847 80.1287 85.9304 80.4762 85.9807C82.1819 86.1529 83.9015 86.1329 85.6027 85.9211L86.136 87.7808C85.6623 87.9913 85.2202 88.1317 84.75 88.3071C84.2798 88.4826 83.8167 88.5984 83.3465 88.7177C82.3498 88.9677 81.3281 89.1042 80.3008 89.1247C79.7241 89.134 79.1483 89.0763 78.5849 88.9528C77.8934 88.8154 77.2412 88.5253 76.6761 88.1036L76.441 87.9106L76.3849 87.8615L76.3498 87.8264L76.2831 87.7597L76.0094 87.4896C75.8305 87.3106 75.634 87.1387 75.4726 86.9492C75.1217 86.5808 74.7919 86.2123 74.4866 85.8334C73.2607 84.3519 72.1297 82.7944 71.1005 81.1701C70.5882 80.3701 70.0947 79.5619 69.6198 78.7455C69.1426 77.9209 68.6829 77.1138 68.2373 76.2436L71.6935 74.4296Z" fill="#B55B52"/>
<path d="M53.3211 70.9279C50.7596 71.5138 47.8262 78.493 47.8262 78.493L52.9667 82.0018C54.2452 80.1684 55.3796 78.2386 56.3597 76.2298C57.8791 73.0507 55.9387 70.3278 53.3211 70.9279Z" fill="#767D9F"/>
<path opacity="0.2" d="M55.1527 75.3755L52.7246 81.8458L52.9632 82.0143C52.9632 82.0143 54.0159 80.537 55.1527 78.544V75.3755Z" fill="black"/>
<path d="M68.6199 71.064C68.6199 71.064 71.5253 74.3483 68.7813 94.6646H54.1739C54.0757 92.4224 55.4827 81.4888 53.3213 70.9236C54.9356 70.6128 56.5683 70.4065 58.2091 70.3061C60.2776 70.1849 62.3514 70.1849 64.4198 70.3061C65.8375 70.4488 67.2418 70.7022 68.6199 71.064Z" fill="#767D9F"/>
<path opacity="0.2" d="M66.9951 76.9417C67.3762 79.2475 68.3727 81.4078 69.8794 83.1944C69.9391 81.8856 69.9636 80.7102 69.9601 79.661L66.9951 76.9417Z" fill="black"/>
<path d="M65.7288 73.2805C65.3779 75.8665 70.4657 82.4702 70.4657 82.4702L75.5852 78.9613C75.5852 78.9613 74.1641 75.3226 71.7745 72.9366C69.0517 70.1997 66.1288 70.4664 65.7288 73.2805Z" fill="#767D9F"/>
<path d="M85.0273 85.9386L87.1116 85.0824L89.2555 86.7035C89.2555 86.7035 87.2099 88.5141 85.3502 87.8088L85.0273 85.9386Z" fill="#B55B52"/>
<path d="M88.4871 84.9977L90.059 86.1205L89.245 86.703L87.1011 85.0819L88.4871 84.9977Z" fill="#B55B52"/>
<path d="M59.7319 59.6993C59.002 62.3099 58.4406 63.8011 59.2757 65.5591C60.5284 68.2082 64.0899 68.1346 65.5917 65.7977C66.9391 63.6923 67.9075 59.7765 65.7601 57.8922C65.2886 57.4734 64.7179 57.1821 64.1022 57.046C63.4864 56.9099 62.8461 56.9335 62.242 57.1146C61.638 57.2957 61.0903 57.6282 60.6509 58.0806C60.2116 58.533 59.8952 59.0902 59.7319 59.6993Z" fill="#B55B52"/>
<path d="M65.29 59.7267C64.2374 62.7233 62.9987 66.0146 59.9741 65.39C58.0232 64.9865 57.8688 61.8461 57.167 60.418C56.546 59.1653 56.5845 56.6459 57.8688 56.6144C57.2933 55.7792 60.2022 52.723 62.1882 54.3371C62.697 53.6353 66.3637 51.5686 69.0796 54.8494C71.6376 57.9512 70.3849 60.5373 65.29 59.7267Z" fill="#263238"/>
<path d="M62.9217 61.6425C62.8514 62.3119 63.0017 62.9858 63.3498 63.5619C63.8164 64.3128 64.5007 64.025 64.7533 63.2566C64.9779 62.5548 65.0024 61.3443 64.3533 60.8565C63.7042 60.3688 63.0199 60.8355 62.9217 61.6425Z" fill="#B55B52"/>
<path d="M85.3363 131.022C85.6872 131.022 86.0381 130.973 86.1399 130.815C86.1688 130.774 86.1844 130.724 86.1844 130.673C86.1844 130.622 86.1688 130.573 86.1399 130.531C86.0932 130.457 86.0206 130.403 85.9363 130.38C85.4802 130.257 84.5328 130.801 84.4872 130.826C84.4752 130.832 84.4656 130.842 84.4598 130.854C84.4541 130.866 84.4526 130.879 84.4556 130.892C84.4579 130.905 84.4637 130.917 84.4724 130.926C84.4811 130.935 84.4924 130.942 84.5047 130.945C84.7791 130.995 85.0574 131.021 85.3363 131.022ZM85.7714 130.492C85.8122 130.487 85.8535 130.487 85.8942 130.492C85.9207 130.497 85.9458 130.508 85.9676 130.524C85.9895 130.54 86.0075 130.56 86.0205 130.584C86.0662 130.664 86.0521 130.703 86.0205 130.724C85.8942 130.903 85.203 130.906 84.6942 130.833C85.0278 130.651 85.3937 130.535 85.7714 130.492Z" fill="#407BFF"/>
<path d="M84.5117 130.945H84.5397C84.8696 130.798 85.5222 130.208 85.4696 129.893C85.4696 129.819 85.4064 129.731 85.231 129.71C85.168 129.705 85.1045 129.712 85.0443 129.731C84.984 129.75 84.9282 129.781 84.8801 129.822C84.5292 130.107 84.459 130.844 84.4555 130.875C84.4542 130.886 84.4558 130.898 84.4601 130.908C84.4644 130.919 84.4713 130.928 84.4801 130.935C84.4898 130.94 84.5005 130.944 84.5117 130.945ZM85.1783 129.84H85.2169C85.3327 129.84 85.3397 129.9 85.3433 129.914C85.3748 130.1 84.9292 130.563 84.5924 130.763C84.6203 130.454 84.7429 130.161 84.9433 129.924C85.0086 129.868 85.0923 129.838 85.1783 129.84Z" fill="#407BFF"/>
<path d="M81.3359 130.884H84.0658L84.6869 124.557H81.957L81.3359 130.884Z" fill="#B55B52"/>
<path d="M84.2202 130.567H81.2412C81.1863 130.568 81.1332 130.587 81.0905 130.621C81.0478 130.655 81.018 130.703 81.0061 130.757L80.4657 133.171C80.4518 133.23 80.4515 133.291 80.4649 133.35C80.4783 133.409 80.5049 133.464 80.5428 133.511C80.5807 133.558 80.6289 133.596 80.6837 133.621C80.7384 133.647 80.7983 133.66 80.8587 133.659C81.9324 133.641 83.4869 133.578 84.8378 133.578C86.4203 133.578 87.7852 133.662 89.6379 133.662C90.7607 133.662 91.073 132.529 90.6028 132.427C88.4659 131.96 86.722 131.911 84.8764 130.771C84.6806 130.644 84.4535 130.573 84.2202 130.567Z" fill="#263238"/>
<path opacity="0.2" d="M84.6835 124.559L84.3677 127.819H81.6343L81.9536 124.559H84.6835Z" fill="black"/>
<path d="M74.3918 131.02C74.5076 131.035 74.6252 131.027 74.7378 130.996C74.8505 130.966 74.9559 130.913 75.0479 130.841C75.0802 130.797 75.0975 130.743 75.0975 130.688C75.0975 130.634 75.0802 130.58 75.0479 130.536C75.0272 130.497 74.9982 130.464 74.963 130.438C74.9278 130.412 74.8873 130.394 74.8444 130.385C74.4444 130.29 73.69 130.806 73.6584 130.827C73.6484 130.835 73.6406 130.845 73.6357 130.857C73.6307 130.868 73.6289 130.881 73.6304 130.894C73.6329 130.906 73.6388 130.917 73.6476 130.926C73.6563 130.934 73.6674 130.94 73.6795 130.943C73.9135 130.994 74.1523 131.02 74.3918 131.02ZM74.7427 130.501C74.7683 130.497 74.7943 130.497 74.8199 130.501C74.845 130.504 74.8689 130.514 74.8896 130.529C74.9103 130.543 74.9273 130.562 74.9392 130.585C74.9988 130.694 74.9637 130.736 74.9392 130.753C74.8234 130.904 74.2655 130.908 73.8549 130.841C74.119 130.662 74.4201 130.546 74.7357 130.501H74.7427Z" fill="#407BFF"/>
<path d="M73.697 130.947H73.7251C74.0093 130.792 74.5567 130.196 74.4971 129.894C74.4881 129.846 74.4624 129.802 74.4246 129.771C74.3868 129.739 74.3392 129.722 74.29 129.722C74.2411 129.716 74.1914 129.721 74.1442 129.735C74.0971 129.75 74.0535 129.774 74.0164 129.806C73.7006 130.066 73.6339 130.859 73.6304 130.887C73.6302 130.899 73.633 130.911 73.6385 130.921C73.644 130.931 73.6521 130.94 73.662 130.947C73.6734 130.95 73.6856 130.95 73.697 130.947ZM74.2479 129.842H74.276C74.3602 129.842 74.3672 129.891 74.3707 129.908C74.4058 130.087 74.0549 130.54 73.7742 130.754C73.7931 130.442 73.9056 130.144 74.0971 129.898C74.139 129.861 74.1925 129.842 74.2479 129.842Z" fill="#407BFF"/>
<path d="M70.5674 130.884H73.2973L74.6692 124.557H71.9393L70.5674 130.884Z" fill="#B55B52"/>
<path d="M73.4902 130.568H70.4234C70.369 130.568 70.3164 130.587 70.2742 130.621C70.2321 130.656 70.203 130.704 70.1918 130.757L69.6515 133.171C69.6388 133.23 69.6397 133.292 69.654 133.351C69.6683 133.409 69.6957 133.464 69.7341 133.511C69.7725 133.558 69.821 133.596 69.876 133.621C69.9309 133.647 69.9909 133.66 70.0515 133.659C71.1217 133.641 71.6445 133.578 72.9919 133.578C73.8235 133.578 74.8867 133.662 76.0341 133.662C77.1815 133.662 77.3289 132.529 76.8587 132.427C74.7534 131.968 74.6095 131.332 73.9358 130.725C73.8115 130.62 73.653 130.564 73.4902 130.568Z" fill="#263238"/>
<g opacity="0.2">
<path d="M71.9393 124.56H74.6692L73.9604 127.82H71.2305L71.9393 124.56Z" fill="black"/>
</g>
<path d="M68.7814 94.6689C68.7814 94.6689 89.238 96.8339 89.0135 107.269C88.8685 113.823 87.6084 120.304 85.2871 126.435H81.2308C81.2308 126.435 81.4379 119.813 81.301 109.129C81.2589 105.925 74.7921 104.869 68.4726 104.497C65.7965 104.329 63.2207 103.416 61.0358 101.862C58.8509 100.308 57.1439 98.1735 56.1074 95.7006L55.6758 94.6689H68.7814Z" fill="#263238"/>
<path d="M86.2798 125.347C86.3008 125.347 86.0166 127.266 86.0166 127.266H80.4024L80.248 125.554L86.2798 125.347Z" fill="#263238"/>
<path d="M64.4024 94.6689C64.4024 94.6689 79.2308 99.5814 79.6063 105.673C80.308 116.88 74.7956 126.435 74.7956 126.435H70.7008C70.7008 126.435 72.2552 121.698 72.8061 111.543C73.5079 98.7883 49.7072 111.522 54.167 94.6689H64.4024Z" fill="#263238"/>
<path d="M76.0343 125.347C76.0553 125.347 75.5185 127.266 75.5185 127.266H69.9043L70.0061 125.554L76.0343 125.347Z" fill="#263238"/>
<path d="M75.0972 105.411H52.2896C52.2896 104.721 52.5639 104.058 53.0521 103.57C53.5404 103.082 54.2026 102.807 54.8931 102.807H72.4936C73.1841 102.807 73.8463 103.082 74.3346 103.57C74.8229 104.058 75.0972 104.721 75.0972 105.411Z" fill="#7D8488"/>
<path d="M53.3459 105.409L49.9072 134.238H50.6441L55.0056 105.409H53.3459Z" fill="#407BFF"/>
<path d="M53.3459 105.409L49.9072 134.238H50.6441L55.0056 105.409H53.3459Z" fill="#263238"/>
<path d="M57.9456 105.409L57.8789 134.238H58.6123L59.6053 105.409H57.9456Z" fill="#407BFF"/>
<path d="M57.9456 105.409L57.8789 134.238H58.6123L59.6053 105.409H57.9456Z" fill="#263238"/>
<path d="M74.0409 105.409L77.4796 134.238H76.7428L72.3848 105.409H74.0409Z" fill="#407BFF"/>
<path d="M74.0409 105.409L77.4796 134.238H76.7428L72.3848 105.409H74.0409Z" fill="#263238"/>
<path d="M69.4409 105.409L69.5076 134.238H68.7743L67.7812 105.409H69.4409Z" fill="#407BFF"/>
<path d="M69.4409 105.409L69.5076 134.238H68.7743L67.7812 105.409H69.4409Z" fill="#263238"/>
</g>
<defs>
<clipPath id="clip0_1514_52288">
<rect width="161.361" height="161.361" fill="white" transform="translate(0.160156 0.296875)"/>
</clipPath>
</defs>
</svg>
