<svg width="112" height="118" viewBox="0 0 112 118" fill="none" xmlns="http://www.w3.org/2000/svg">
<path d="M57.106 103.612V109.883H58.8795L58.5361 103.151L57.106 103.612Z" fill="#AAABB0"/>
<path d="M30.4668 102.346V108.616H32.242L31.8986 101.885L30.4668 102.346Z" fill="#AAABB0"/>
<path d="M61.457 93.1421C61.457 92.5064 60.9447 91.991 60.3127 91.991C59.6808 91.991 59.1685 92.5064 59.1685 93.1421V102.001C59.1685 102.637 59.6808 103.152 60.3127 103.152C60.9447 103.152 61.457 102.637 61.457 102.001V93.1421Z" fill="#AAABB0"/>
<path d="M32.0972 90.6673C32.0972 90.0315 31.5849 89.5161 30.9529 89.5161C30.3209 89.5161 29.8086 90.0315 29.8086 90.6673V102C29.8086 102.635 30.3209 103.151 30.9529 103.151C31.5849 103.151 32.0972 102.635 32.0972 102V90.6673Z" fill="#AAABB0"/>
<path d="M64.3765 25.198C64.3765 25.198 66.665 24.2194 67.0084 25.198C67.3518 26.1766 67.5234 34.6333 67.5234 34.6333H65.3482L64.3765 25.198Z" fill="#AAABB0"/>
<path d="M39.3094 25.198C39.3094 25.198 37.0191 24.2194 36.6757 25.198C36.3323 26.1766 36.1606 34.6333 36.1606 34.6333H38.3359L39.3094 25.198Z" fill="#AAABB0"/>
<path d="M39.652 16.7986L39.3086 23.8178H40.8537V16.626L39.652 16.7986Z" fill="#AAABB0"/>
<path d="M38.3369 34.634L38.7953 24.5081C38.7953 24.5081 38.6236 22.2644 44.0592 22.9548C49.4948 23.6452 65.4066 25.0259 65.4066 25.0259V34.634H38.3369Z" fill="#33323D"/>
<path d="M60.083 87.9634L59.2245 103.438C59.2245 103.438 46.6331 110.457 31.353 103.783L32.7265 87.5026L60.083 87.9634Z" fill="#33323D"/>
<path d="M48.1226 27.0377L48.4076 37.048H66.1496L65.1194 23.8171L48.1226 27.0377Z" fill="#444053"/>
<path d="M49.9243 81.3481H33.2124V102.634H49.9243V81.3481Z" fill="#4C4981"/>
<path d="M43.774 90.035C43.774 90.035 46.1775 88.1365 46.5776 88.7113C46.9776 89.286 45.1492 91.7609 44.4041 91.4727C43.6589 91.1845 43.774 90.035 43.774 90.035Z" fill="#FFBE9D"/>
<path opacity="0.8" d="M110.484 34.0565H0.782227V89.2857H110.484V34.0565Z" fill="#D6D6D6"/>
<path d="M38.3932 16.3971C38.3932 16.3971 37.5348 8.34232 38.3932 7.36546C39.2517 6.3886 53.6733 -2.87606 67.0081 7.99714C67.0081 7.99714 68.2666 8.05582 68.0382 10.9312C67.9036 12.751 67.9128 14.5787 68.0657 16.3971C68.0657 16.3971 39.3667 18.4682 38.3932 16.3971Z" fill="#33323D"/>
<path opacity="0.1" d="M38.3932 16.3971C38.3932 16.3971 37.5348 8.34232 38.3932 7.36546C39.2517 6.3886 53.6733 -2.87606 67.0081 7.99714C67.0081 7.99714 68.2666 8.05582 68.0382 10.9312C67.9036 12.751 67.9128 14.5787 68.0657 16.3971C68.0657 16.3971 39.3667 18.4682 38.3932 16.3971Z" fill="black"/>
<path d="M38.3932 17.4319C38.3932 17.4319 37.5348 9.37711 38.3932 8.40025C39.2517 7.42339 53.6733 -1.84127 67.0081 9.03193C67.0081 9.03193 68.2666 9.09061 68.0382 11.966C67.9036 13.7858 67.9128 15.6135 68.0657 17.4319C68.0657 17.4319 39.3667 19.503 38.3932 17.4319Z" fill="#33323D"/>
<path d="M68.5528 13.7515C68.5528 13.7515 69.4679 17.2033 69.1829 17.778C68.8979 18.3527 68.9494 19.9647 68.9494 19.9647C68.9494 19.9647 69.0112 21.0003 68.5528 21.1142C68.0944 21.2281 67.6944 21.2868 68.0652 21.632C68.4361 21.9771 68.0652 22.4949 68.0652 22.4949C68.0652 22.4949 67.8643 23.3009 68.0652 23.8187C68.2661 24.3365 66.8909 24.5522 67.0076 25.1994C67.1244 25.8466 67.5089 27.6726 67.0076 27.7313C66.5063 27.79 67.1793 30.0319 66.7278 30.0319C66.2762 30.0319 65.9552 34.0585 65.9552 34.0585C65.9552 34.0585 62.779 31.3557 60.6621 32.103C60.6621 32.103 60.8338 29.8594 61.5205 29.0534C62.2073 28.2474 61.9995 26.178 61.9995 26.178L65.4058 15.8795L68.5528 13.7515Z" fill="#FFD801"/>
<path d="M51.5567 61.3482C50.8133 62.1749 50.0115 57.7601 50.0115 57.7601C50.0115 57.7601 47.8946 60.6941 46.5212 58.7386C45.57 57.3838 46.3203 53.5454 46.8645 51.3173C47.1083 50.3266 47.3143 49.6535 47.3143 49.6535L50.4047 49.1357C50.4047 49.1357 50.415 49.8123 50.4836 50.6338C50.5764 51.7436 50.7772 53.1208 51.2047 53.4505C51.9584 54.0218 52.3018 60.5146 51.5567 61.3482Z" fill="#EAA987"/>
<path opacity="0.1" d="M49.9544 9.66692C49.9544 9.66692 44.5738 9.60996 43.2587 12.4854C41.9436 15.3608 41.8852 16.3411 41.3701 16.8002C40.8551 17.2593 46.9774 19.6773 46.9774 19.6773L47.2641 29.572C47.2641 29.572 48.4659 28.3483 50.4111 28.9024C52.3563 29.4564 54.8183 28.9024 54.8183 28.9024C54.8183 28.9024 54.7032 28.6935 56.3068 28.9024C57.9103 29.1112 63.0025 26.4084 63.0025 26.4084C63.0025 26.4084 63.0866 22.0798 62.9733 21.1581C62.86 20.2365 66.6062 13.464 66.6062 13.464C66.6062 13.464 69.5249 10.6455 66.4929 9.66692C66.4929 9.66692 65.4199 8.0411 62.6592 8.05663C59.8984 8.07216 49.9544 9.66692 49.9544 9.66692Z" fill="black"/>
<path d="M49.9544 9.49308C49.9544 9.49308 44.5738 9.43612 43.2587 12.3115C41.9436 15.1869 41.8852 16.1672 41.3701 16.6263C40.8551 17.0854 46.9774 19.5034 46.9774 19.5034L47.2641 29.398C47.2641 29.398 48.4659 28.1743 50.4111 28.7283C52.3563 29.2824 54.8183 28.7283 54.8183 28.7283C54.8183 28.7283 54.7032 28.5195 56.3068 28.7283C57.9103 28.9372 63.0025 26.2344 63.0025 26.2344C63.0025 26.2344 65.0044 22.9552 64.8911 22.0353C64.7778 21.1154 68.8965 14.153 68.8965 14.153C68.8965 14.153 69.5266 10.4717 66.4929 9.49308C66.4929 9.49308 65.4199 7.86727 62.6592 7.8828C59.8985 7.89833 49.9544 9.49308 49.9544 9.49308Z" fill="#FFD801"/>
<path opacity="0.1" d="M50.4971 50.6267C49.3176 50.2574 47.4668 51.072 46.8779 51.317C47.1217 50.3265 47.3277 49.6535 47.3277 49.6535L50.4181 49.1357C50.4181 49.1357 50.4232 49.8122 50.4971 50.6267Z" fill="black"/>
<path d="M43.0284 16.626H41.3699C41.3699 16.626 41.0265 20.1365 41.3699 21.172C41.7133 22.2076 41.8849 22.0574 41.7699 22.8237C41.6549 23.59 42.5717 24.7637 42.5717 24.7637C42.5717 24.7637 42.685 27.6563 43.2584 28.7333C43.8319 29.8102 42.6283 34.6393 42.6283 34.6393C42.9566 35.473 43.4422 36.2349 44.0585 36.883C45.0319 37.8599 45.547 41.4843 45.2603 42.8651C44.9736 44.2458 46.0621 44.7636 46.0621 44.7636C46.0621 44.7636 46.5205 51.2081 46.6921 51.2081C46.8638 51.2081 50.1825 49.4822 51.2126 50.9769L50.4108 45.0518L50.4692 33.6038C50.4692 33.6038 49.3807 32.1644 49.9542 30.8993C50.5276 29.6342 49.4958 26.6415 49.4958 26.6415L48.0072 19.9691L43.0284 16.626Z" fill="#FFD801"/>
<path d="M32.7275 107.582C32.7275 107.582 30.3239 107.064 30.2672 107.582C30.2106 108.1 27.4052 113.393 30.8973 114.947C34.3894 116.5 43.7153 119.836 58.882 115.521C58.882 115.521 59.8538 115.867 59.6254 113.738C59.3971 111.61 59.3971 109.251 59.3971 109.251C59.3971 109.251 57.1068 108.618 55.3899 108.849C53.6731 109.08 38.7365 112.128 32.7275 107.582Z" fill="#33323D"/>
<path opacity="0.1" d="M32.7275 107.582C32.7275 107.582 30.3239 107.064 30.2672 107.582C30.2106 108.1 27.4052 113.393 30.8973 114.947C34.3894 116.5 43.7153 119.836 58.882 115.521C58.882 115.521 59.8538 115.867 59.6254 113.738C59.3971 111.61 59.3971 109.251 59.3971 109.251C59.3971 109.251 57.1068 108.618 55.3899 108.849C53.6731 109.08 38.7365 112.128 32.7275 107.582Z" fill="black"/>
<path d="M32.7275 106.891C32.7275 106.891 30.3239 106.373 30.2672 106.891C30.2106 107.409 27.4052 112.702 30.8973 114.255C34.3894 115.809 43.7153 119.145 58.882 114.83C58.882 114.83 59.8538 115.175 59.6254 113.047C59.3971 110.919 59.3971 108.56 59.3971 108.56C59.3971 108.56 57.1068 107.927 55.3899 108.158C53.6731 108.389 38.7365 111.437 32.7275 106.891Z" fill="#33323D"/>
<path d="M46.7447 18.6952C46.5971 19.5391 46.2623 20.3503 46.2108 21.2046C46.1593 22.0589 46.4872 23.0306 47.2718 23.3654C47.4907 23.4312 47.7029 23.5179 47.9053 23.6243C48.2075 23.8297 48.3311 24.2163 48.3946 24.5787C48.4789 25.0467 48.4991 25.524 48.4547 25.9974C48.4118 26.4738 48.3105 26.9864 48.544 27.4023C48.9543 28.1393 50.0239 28.0305 50.8377 27.8234L50.5579 30.0032C50.5355 30.1758 50.5218 30.3708 50.6471 30.4882C50.7063 30.5301 50.7733 30.5597 50.8441 30.5751C50.9149 30.5905 50.988 30.5915 51.0592 30.5779C51.7665 30.5331 52.4945 30.4347 53.1005 30.0602C53.7066 29.6857 54.1581 28.9884 54.0431 28.286C53.9092 27.4713 53.0713 26.8241 53.1847 26.006C53.2722 25.3726 53.8886 24.9705 54.2937 24.4838C55.0268 23.5932 55.0663 22.2401 54.4912 21.2322C53.916 20.2243 52.8052 19.5995 51.6618 19.4856C51.0283 19.4218 50.369 19.4994 49.7733 19.2785C49.566 19.2021 49.3791 19.0785 49.2272 18.9174C49.0753 18.7563 48.9625 18.5621 48.8977 18.35" fill="#444053"/>
<path d="M26.7778 95.4432L27.377 94.1315C27.377 94.1315 30.6116 91.1026 31.355 90.8903C32.0984 90.678 35.1321 89.7529 35.5905 89.7529C36.0489 89.7529 44.4048 89.2921 44.4048 89.2921L45.3766 91.5945L34.89 93.9089L31.355 96.4977L26.7778 95.4432Z" fill="#767D9F"/>
<path d="M51.9723 60.1201L51.4246 64.3572L51.2134 65.9882L48.7532 66.3334C48.7532 66.3334 48.487 65.7604 48.111 64.8802C46.9693 62.2084 44.8198 56.6993 46.0663 55.7484C47.723 54.4815 48.1265 58.6824 48.1265 58.6824L50.015 57.7608L51.9723 60.1201Z" fill="#FFBE9D"/>
<path d="M51.5621 68.0006H39.1372V86.8699H51.5621V68.0006Z" fill="white"/>
<path opacity="0.1" d="M51.5621 68.0006H39.1372V86.8699H51.5621V68.0006Z" fill="black"/>
<path d="M57.1458 69.0223L44.8545 67.1956L42.1092 85.8617L54.4005 87.6884L57.1458 69.0223Z" fill="white"/>
<path d="M52.3372 69.9177L46.0107 68.9774L44.5978 78.5845L50.9243 79.5247L52.3372 69.9177Z" fill="#D8D8D8"/>
<path d="M51.5853 82.4566L43.9204 81.3173L43.6136 83.4038L51.2784 84.5431L51.5853 82.4566Z" fill="#D8D8D8"/>
<path opacity="0.1" d="M54.8178 20.3928C58.7841 20.3928 61.9995 17.1606 61.9995 13.1734C61.9995 9.18631 58.7841 5.9541 54.8178 5.9541C50.8516 5.9541 47.6362 9.18631 47.6362 13.1734C47.6362 17.1606 50.8516 20.3928 54.8178 20.3928Z" fill="black"/>
<path d="M54.8178 20.2193C58.7841 20.2193 61.9995 16.987 61.9995 12.9998C61.9995 9.01265 58.7841 5.7804 54.8178 5.7804C50.8516 5.7804 47.6362 9.01265 47.6362 12.9998C47.6362 16.987 50.8516 20.2193 54.8178 20.2193Z" fill="#FFBE9D"/>
<path d="M48.8971 18.3521C48.8483 18.1662 48.8659 17.9689 48.9469 17.7947C49.2199 17.2234 49.9976 17.1733 50.6277 17.2027C52.1093 17.2717 53.7352 17.2804 54.8941 16.3397C55.3748 15.9531 55.9122 14.9814 56.6109 15.1661C57.2324 15.3301 57.4917 16.1775 58.1389 16.3656C58.6076 16.502 59.0935 16.2845 59.5708 16.193C60.2575 16.0567 60.9614 16.1706 61.6585 16.1758C62.3555 16.1809 63.1127 16.0481 63.5882 15.5355C64.2303 14.8451 64.1256 13.7664 64.069 12.8206C63.9985 11.5989 64.081 10.3731 64.3145 9.17201C64.548 7.97768 64.9068 6.64182 64.2509 5.61835C63.626 4.64321 62.3315 4.37569 61.4473 3.62837C60.6198 2.938 60.182 1.83169 59.3081 1.19138C58.2076 0.385376 56.7122 0.501012 55.3593 0.640811L52.4235 0.954929C51.6664 1.03605 50.8783 1.12752 50.2551 1.58144C49.1306 2.39952 48.9761 4.09954 47.9116 4.99529C47.4378 5.39225 46.8317 5.58901 46.2909 5.88587C45.7501 6.18272 45.2282 6.65217 45.1664 7.2666C45.1149 7.78437 45.393 8.26245 45.5286 8.76124C45.8497 9.95212 45.3483 11.1775 45.0273 12.377C44.7062 13.5765 44.6444 15.0332 45.5767 15.8289C45.7655 15.9911 45.9853 16.1154 46.169 16.2845C46.7991 16.8627 46.8849 17.8378 46.739 18.6801" fill="#444053"/>
<path d="M55.4034 22.0205C55.4981 22.0205 55.5748 21.8276 55.5748 21.5897C55.5748 21.3517 55.4981 21.1588 55.4034 21.1588C55.3087 21.1588 55.2319 21.3517 55.2319 21.5897C55.2319 21.8276 55.3087 22.0205 55.4034 22.0205Z" fill="#444053"/>
<path d="M55.4034 23.8157C55.4981 23.8157 55.5748 23.6229 55.5748 23.385C55.5748 23.1471 55.4981 22.9542 55.4034 22.9542C55.3087 22.9542 55.2319 23.1471 55.2319 23.385C55.2319 23.6229 55.3087 23.8157 55.4034 23.8157Z" fill="#444053"/>
<path d="M51.5973 61.3363C51.781 61.124 51.9029 60.5786 51.9733 59.8589L49.9268 57.2941C49.9268 57.2941 50.7938 62.2666 51.5973 61.3363Z" fill="#EAA987"/>
<path opacity="0.1" d="M53.9038 103.728C53.9038 103.728 50.5457 108.947 40.054 108.388C30.17 107.87 25.3457 102.98 25.5757 101.254C25.8058 99.5284 24.9456 95.3275 27.0625 94.1194C28.2901 93.4204 29.9056 93.8346 31.0456 94.3075C31.4395 94.4683 31.8706 94.5136 32.289 94.4382C32.7074 94.3627 33.096 94.1696 33.4097 93.8812C34.4519 92.9372 36.3953 91.874 39.4634 92.7111C39.8581 92.8169 40.2746 92.8091 40.6652 92.6886C41.9425 92.2968 44.9831 91.6168 47.1892 93.127C47.5379 93.3686 47.9478 93.5055 48.3709 93.5217C48.7941 93.5379 49.2131 93.4327 49.5791 93.2185L49.61 93.1995C50.6401 92.5661 55.4473 98.5498 55.4473 98.5498C55.4473 98.5498 55.6774 103.153 53.9038 103.728Z" fill="black"/>
<path d="M53.9038 103.899C53.9038 103.899 50.5457 109.118 40.054 108.559C30.17 108.041 25.3457 103.152 25.5757 101.426C25.8058 99.7 24.9456 95.4992 27.0625 94.2911C28.2901 93.5921 29.9056 94.0063 31.0456 94.4792C31.4395 94.64 31.8706 94.6853 32.289 94.6099C32.7074 94.5344 33.096 94.3413 33.4097 94.0529C34.4519 93.1089 36.3953 92.0457 39.4634 92.8828C39.8581 92.9887 40.2746 92.9809 40.6652 92.8604C41.9425 92.4686 44.9831 91.7886 47.1892 93.2987C47.5379 93.5403 47.9478 93.6772 48.3709 93.6934C48.7941 93.7096 49.2131 93.6044 49.5791 93.3902L49.61 93.3712C50.6401 92.7378 55.4473 98.7214 55.4473 98.7214C55.4473 98.7214 55.6774 103.324 53.9038 103.899Z" fill="#767D9F"/>
<path opacity="0.1" d="M40.0524 105.944C43.83 105.944 46.8924 102.865 46.8924 99.0678C46.8924 95.2703 43.83 92.1918 40.0524 92.1918C36.2748 92.1918 33.2124 95.2703 33.2124 99.0678C33.2124 102.865 36.2748 105.944 40.0524 105.944Z" fill="black"/>
<path d="M40.0524 106.115C43.83 106.115 46.8924 103.037 46.8924 99.2392C46.8924 95.4419 43.83 92.3635 40.0524 92.3635C36.2748 92.3635 33.2124 95.4419 33.2124 99.2392C33.2124 103.037 36.2748 106.115 40.0524 106.115Z" fill="#FFBE9D"/>
<path d="M38.0921 93.2967C37.3744 93.4917 36.6671 93.8645 36.3168 94.4772C36.1057 94.8466 36.0318 95.2901 35.7262 95.5973C35.2936 96.034 34.5639 96.0426 33.9785 96.2877C33.393 96.5328 33.0067 97.3957 33.5802 97.6684C32.9827 97.6995 32.5398 98.2535 32.4659 98.8041C32.3921 99.3546 32.5998 99.9035 32.8007 100.428C33.4566 102.126 34.1622 103.899 35.6078 105.107C37.9633 107.078 41.5138 106.987 44.6779 106.778C44.9364 106.786 45.1927 106.727 45.4213 106.605C45.7647 106.377 45.8076 105.941 45.8643 105.558C46.1029 103.921 46.9854 102.435 47.5622 100.873C48.1391 99.3115 48.376 97.4769 47.4043 96.0944C45.9741 94.044 40.4991 92.6408 38.0921 93.2967Z" fill="#B96B6B"/>
<path opacity="0.1" d="M51.4254 64.3562L51.2142 65.9872L48.7539 66.3324C48.7539 66.3324 48.4878 65.7594 48.1118 64.8791L51.3859 64.2612L51.4254 64.3562Z" fill="black"/>
<path d="M54.0169 100.391L55.4487 98.7217L55.162 89.5174C55.303 88.8533 55.3988 88.1804 55.4487 87.5032C55.5054 86.5247 54.7328 84.3396 54.7328 84.3396C54.8527 83.9022 55.0154 83.4779 55.2187 83.0728C55.5621 82.3825 54.7345 80.8291 54.7345 80.8291C54.7345 80.8291 53.5018 76.8026 54.0169 74.7885C54.5319 72.7743 53.8916 71.6249 53.8916 71.6249C53.8916 71.6249 53.3885 69.3812 53.4452 68.4613C53.5018 67.5413 52.3 66.6767 52.3 66.6767L51.3849 64.433L47.7229 65.1233V72.8899C47.7229 72.8899 47.9512 80.3114 47.7229 81.7508C47.4945 83.1902 48.1796 84.5692 48.1796 84.5692C48.1796 84.5692 47.7795 86.6972 48.1229 87.5032C48.4663 88.3092 49.153 90.2647 49.153 90.2647C49.0255 90.9636 49.065 91.6829 49.268 92.3634C49.6114 93.3713 49.268 93.9461 49.268 93.9461L54.0169 100.391Z" fill="#767D9F"/>
<g opacity="0.1">
<path opacity="0.1" d="M64.319 8.6045C64.1254 9.61482 64.0385 10.6429 64.0598 11.6715C64.0745 10.8162 64.1635 9.96378 64.3259 9.12402C64.477 8.35769 64.6693 7.53267 64.628 6.76807C64.5648 7.3863 64.4615 7.99974 64.319 8.6045Z" fill="black"/>
<path opacity="0.1" d="M46.1733 15.7293C45.9896 15.5567 45.7699 15.4359 45.581 15.2719C45.0797 14.8422 44.8685 14.2191 44.8273 13.546C44.7775 14.409 44.9526 15.2443 45.581 15.7897C45.7699 15.9536 45.9896 16.0779 46.1733 16.247C46.5573 16.629 46.78 17.1452 46.7948 17.6881C46.8446 16.9633 46.6987 16.2091 46.1733 15.7293Z" fill="black"/>
<path opacity="0.1" d="M45.6254 9.28479C45.6554 8.92027 45.6241 8.55328 45.5327 8.19924C45.4331 7.8299 45.2546 7.4692 45.1893 7.09814C45.1893 7.13784 45.1756 7.17926 45.1704 7.22241C45.1207 7.74016 45.3988 8.21822 45.5327 8.71699C45.582 8.90275 45.6131 9.09293 45.6254 9.28479Z" fill="black"/>
<path opacity="0.1" d="M63.5929 14.9684C63.1173 15.4862 62.3602 15.6139 61.6632 15.6087C60.9661 15.6035 60.2605 15.4896 59.5755 15.6277C59.0982 15.7243 58.6123 15.9401 58.1436 15.8003C57.4963 15.6122 57.2371 14.7647 56.6173 14.6008C55.9117 14.4144 55.3743 15.3861 54.9004 15.7727C53.7416 16.7047 52.1157 16.696 50.634 16.6356C50.0039 16.6063 49.2262 16.6563 48.9549 17.2293C48.8722 17.4031 48.8545 17.601 48.9051 17.7868L46.8071 18.1182C46.7992 18.2918 46.7803 18.4648 46.7505 18.636L48.9051 18.2908C48.8545 18.105 48.8722 17.9071 48.9549 17.7333C49.2262 17.1603 50.0039 17.1103 50.634 17.1396C52.1157 17.2086 53.7416 17.2173 54.9004 16.2766C55.3812 15.89 55.9185 14.9183 56.6173 15.1047C57.2371 15.267 57.4963 16.1161 58.1436 16.3043C58.6123 16.4389 59.0982 16.2231 59.5755 16.1317C60.2622 15.9936 60.9661 16.1075 61.6632 16.1127C62.3602 16.1179 63.1173 15.985 63.5929 15.4724C64.0685 14.9598 64.1372 14.1952 64.108 13.4496C64.0874 14.0278 63.9689 14.5628 63.5929 14.9684Z" fill="black"/>
</g>
<g opacity="0.1">
<path opacity="0.1" d="M47.7001 23.2573C47.4979 23.1502 47.2857 23.0635 47.0666 22.9984C46.694 22.8282 46.3982 22.524 46.2373 22.1458C46.3661 22.7412 46.6923 23.2832 47.2382 23.5162C47.4574 23.5813 47.6696 23.668 47.8718 23.7751C48.001 23.8669 48.1055 23.9897 48.1756 24.1323C48.107 23.7941 47.9816 23.4489 47.7001 23.2573Z" fill="black"/>
<path opacity="0.1" d="M50.6329 27.4573C49.8414 27.6592 48.8079 27.7644 48.3735 27.0897C48.3871 27.2523 48.4338 27.4103 48.5109 27.5539C48.8817 28.2182 49.7882 28.1958 50.5591 28.0319L50.6329 27.4573Z" fill="black"/>
<path opacity="0.1" d="M53.8402 27.9294C53.9501 28.6302 53.4969 29.3292 52.8959 29.6969C52.295 30.0645 51.5619 30.1663 50.8546 30.2147C50.7422 30.2293 50.6279 30.2163 50.5215 30.1767C50.4893 30.2496 50.4789 30.3305 50.4916 30.4093C50.5043 30.4881 50.5396 30.5615 50.5932 30.6204C50.6467 30.6794 50.7162 30.7214 50.7931 30.7413C50.8701 30.7612 50.9511 30.7581 51.0263 30.7324C51.7336 30.6876 52.4616 30.5892 53.0676 30.2147C53.6737 29.8401 54.127 29.1428 54.0102 28.4403C53.9772 28.263 53.92 28.0911 53.8402 27.9294Z" fill="black"/>
<path opacity="0.1" d="M54.6011 21.6824C54.7059 22.102 54.714 22.5401 54.6247 22.9634C54.5355 23.3866 54.3512 23.7838 54.086 24.1245C53.6809 24.6182 53.0645 25.0134 52.9769 25.6468C52.9477 25.938 53.0076 26.2313 53.1486 26.4873C53.1332 26.3803 53.1332 26.2716 53.1486 26.1646C53.2362 25.5312 53.8525 25.129 54.2577 24.6423C54.9239 23.8329 55.0166 22.6403 54.6011 21.6824Z" fill="black"/>
</g>
<g opacity="0.1">
<path opacity="0.1" d="M33.9796 96.5546C34.5633 96.3112 35.293 96.3026 35.7274 95.8642C36.033 95.557 36.1068 95.1134 36.318 94.7458C36.6613 94.1313 37.3738 93.7602 38.0915 93.5652C40.4951 92.9093 45.9753 94.3108 47.4037 96.3423C47.8223 96.9569 48.0505 97.6824 48.0595 98.4272C48.1145 97.5673 47.8845 96.7133 47.4054 95.9988C45.977 93.9673 40.5019 92.5659 38.0932 93.2217C37.3755 93.4168 36.6682 93.7878 36.3197 94.4023C36.1085 94.7699 36.0347 95.2135 35.7291 95.5207C35.2947 95.9574 34.565 95.966 33.9813 96.2111C33.5366 96.3958 33.207 96.9412 33.3272 97.3071C33.3751 97.1416 33.4583 96.9885 33.5709 96.8586C33.6836 96.7286 33.823 96.6249 33.9796 96.5546Z" fill="black"/>
<path opacity="0.1" d="M32.4693 99.0607C32.5414 98.5084 32.9843 97.9562 33.5835 97.9251C33.5206 97.8988 33.4643 97.8586 33.4189 97.8075C33.3734 97.7564 33.3399 97.6958 33.3208 97.63C33.0929 97.7151 32.8925 97.8612 32.7412 98.0526C32.5899 98.2439 32.4935 98.4731 32.4624 98.7155C32.4461 98.856 32.4461 98.9979 32.4624 99.1384C32.4693 99.1125 32.4693 99.0866 32.4693 99.0607Z" fill="black"/>
</g>
<path d="M68.8387 36.516H53.2153V56.9973H68.8387V36.516Z" fill="white"/>
<path opacity="0.1" d="M68.8387 36.516H53.2153V56.9973H68.8387V36.516Z" fill="black"/>
<path d="M74.8074 37.7184L59.4102 40.3809L62.864 60.5656L78.2612 57.9032L74.8074 37.7184Z" fill="white"/>
<path d="M66.7601 53.514L63.1426 54.1395L63.954 58.8818L67.5715 58.2562L66.7601 53.514Z" fill="#D8D8D8"/>
<path d="M71.766 52.6473L68.1484 53.2728L68.9599 58.0149L72.5774 57.3894L71.766 52.6473Z" fill="#D8D8D8"/>
<path d="M75.3022 45.7006L62.6157 47.8905L63.4295 52.6542L76.116 50.4643L75.3022 45.7006Z" fill="#D8D8D8"/>
<path d="M74.2455 40.0153L61.5591 42.2052L61.7406 43.2679L74.4271 41.0781L74.2455 40.0153Z" fill="#D8D8D8"/>
<path d="M74.6621 41.9688L61.9756 44.1588L62.1571 45.2216L74.8436 43.0316L74.6621 41.9688Z" fill="#D8D8D8"/>
<path d="M62.0014 30.9503C62.0014 30.9503 54.8198 38.1989 58.4252 40.0404C62.0305 41.8818 64.3775 33.9136 64.3775 33.9136L64.9475 32.1015L62.0014 30.9503Z" fill="#FFBE9D"/>
<path opacity="0.1" d="M61.372 30.3095L60.4844 32.2806C60.4844 32.2806 64.8624 32.8985 65.7775 34.2293L65.2349 30.7513L64.5911 29.267L61.372 30.3095Z" fill="black"/>
<path d="M61.5429 30.1375L60.6553 32.1085C60.6553 32.1085 65.0333 32.7263 65.9484 34.057L65.4058 30.5793L64.762 29.0951L61.5429 30.1375Z" fill="#FFD801"/>
<path d="M88.045 66.3771L87.9507 66.4428L88.081 66.5016L88.2215 66.4895L88.2387 66.3909L88.045 66.3771Z" fill="#464A5F"/>
<path opacity="0.1" d="M88.045 66.3771L87.9507 66.4428L88.081 66.5016L88.2215 66.4895L88.2387 66.3909L88.045 66.3771Z" fill="black"/>
<path d="M88.0449 66.3768L87.9486 66.4393L87.873 66.3456L87.9194 66.2693L87.9624 66.2554L88.0449 66.3768Z" fill="#9C9CA1"/>
<path opacity="0.1" d="M88.0449 66.3768L87.9486 66.4393L87.873 66.3456L87.9194 66.2693L87.9624 66.2554L88.0449 66.3768Z" fill="black"/>
<path d="M104.945 54.4487L97.9157 44.2434C97.8534 44.1523 97.7739 44.0745 97.6817 44.0143C97.5895 43.9542 97.4863 43.9129 97.3782 43.8928C97.2701 43.8728 97.1591 43.8744 97.0516 43.8975C96.9441 43.9207 96.8422 43.9649 96.7517 44.0277L81.0836 54.8387C80.9003 54.9652 80.7744 55.1596 80.7336 55.3793C80.6927 55.599 80.7402 55.8261 80.8656 56.0106L87.8755 66.3453L104.945 54.4487Z" fill="#9C9CA1"/>
<path opacity="0.1" d="M104.945 54.4487L97.9157 44.2434C97.8534 44.1523 97.7739 44.0745 97.6817 44.0143C97.5895 43.9542 97.4863 43.9129 97.3782 43.8928C97.2701 43.8728 97.1591 43.8744 97.0516 43.8975C96.9441 43.9207 96.8422 43.9649 96.7517 44.0277L81.0836 54.8387C80.9003 54.9652 80.7744 55.1596 80.7336 55.3793C80.6927 55.599 80.7402 55.8261 80.8656 56.0106L87.8755 66.3453L104.945 54.4487Z" fill="black"/>
<path d="M105.115 54.472L98.0866 44.2667C98.0241 44.1756 97.9445 44.0977 97.8521 44.0375C97.7597 43.9773 97.6564 43.9361 97.5482 43.916C97.4399 43.896 97.3288 43.8976 97.2211 43.9208C97.1135 43.9439 97.0115 43.9882 96.9208 44.051L81.2545 54.869C81.0713 54.9955 80.9454 55.1898 80.9042 55.4093C80.863 55.6289 80.91 55.856 81.0348 56.0409L88.0447 66.3807L105.115 54.472Z" fill="#9C9CA1"/>
<path d="M110.991 56.4914L105.153 54.6067L88.0811 66.5032L94.0111 68.4534C94.1438 68.4968 94.2847 68.5084 94.4227 68.4875C94.5607 68.4665 94.6919 68.4135 94.806 68.3326L111.039 56.8106C111.069 56.7935 111.094 56.7674 111.109 56.7359C111.124 56.7044 111.13 56.669 111.125 56.6343C111.119 56.5996 111.104 56.5674 111.08 56.5418C111.056 56.5163 111.025 56.4987 110.991 56.4914Z" fill="#464A5F"/>
<path opacity="0.1" d="M110.991 56.4914L105.153 54.6067L88.0811 66.5032L94.0111 68.4534C94.1438 68.4968 94.2847 68.5084 94.4227 68.4875C94.5607 68.4665 94.6919 68.4135 94.806 68.3326L111.039 56.8106C111.069 56.7935 111.094 56.7674 111.109 56.7359C111.124 56.7044 111.13 56.669 111.125 56.6343C111.119 56.5996 111.104 56.5674 111.08 56.5418C111.056 56.5163 111.025 56.4987 110.991 56.4914Z" fill="black"/>
<path d="M110.954 56.3715L105.117 54.4851L88.0444 66.3818L93.9745 68.3286C94.107 68.3728 94.248 68.385 94.386 68.3643C94.5241 68.3436 94.6554 68.2906 94.7694 68.2095L111.002 56.6874C111.032 56.6697 111.055 56.6438 111.069 56.6128C111.084 56.5818 111.089 56.5471 111.084 56.5132C111.079 56.4793 111.063 56.4478 111.04 56.4225C111.017 56.3973 110.987 56.3795 110.954 56.3715Z" fill="#464A5F"/>
<g opacity="0.1">
<path opacity="0.1" d="M102.359 54.0155L101.928 53.3942C101.902 53.3581 101.863 53.3335 101.82 53.3255C101.776 53.3174 101.732 53.3266 101.695 53.351L101.054 53.7808C101.018 53.8062 100.993 53.8446 100.985 53.888C100.976 53.9313 100.984 53.9763 101.008 54.0137L101.404 54.6264C101.429 54.6631 101.467 54.6888 101.51 54.6981C101.553 54.7074 101.599 54.6997 101.636 54.6765L102.311 54.2502C102.348 54.2249 102.373 54.1864 102.382 54.1426C102.391 54.0988 102.383 54.0532 102.359 54.0155Z" fill="black"/>
<path opacity="0.1" d="M101.209 54.8188L100.776 54.1992C100.75 54.1632 100.712 54.1386 100.668 54.1305C100.625 54.1225 100.58 54.1316 100.543 54.1561L99.904 54.5893C99.8678 54.6145 99.8426 54.6527 99.8337 54.6961C99.8247 54.7395 99.8327 54.7847 99.8559 54.8223L100.253 55.435C100.277 55.472 100.315 55.498 100.358 55.5076C100.401 55.5173 100.446 55.5098 100.484 55.4868L101.161 55.0605C101.18 55.0479 101.196 55.0317 101.209 55.0127C101.222 54.9937 101.231 54.9723 101.235 54.9498C101.24 54.9273 101.24 54.9041 101.235 54.8816C101.231 54.8591 101.222 54.8378 101.209 54.8188Z" fill="black"/>
<path opacity="0.1" d="M100 55.6586L99.5675 55.0389C99.5416 55.0029 99.5029 54.9783 99.4594 54.9703C99.4159 54.9622 99.371 54.9714 99.334 54.9958L98.6936 55.429C98.6572 55.4546 98.632 55.4933 98.6234 55.537C98.6148 55.5808 98.6233 55.6262 98.6473 55.6638L99.0439 56.2766C99.0687 56.3133 99.1066 56.3389 99.1498 56.3483C99.1929 56.3576 99.238 56.3498 99.2756 56.3266L99.9504 55.9003C99.9696 55.8879 99.9862 55.8717 99.9992 55.8528C100.012 55.8338 100.021 55.8125 100.026 55.79C100.03 55.7675 100.031 55.7442 100.026 55.7217C100.022 55.6991 100.013 55.6777 100 55.6586Z" fill="black"/>
<path opacity="0.1" d="M98.776 56.509L98.3434 55.8877C98.3175 55.8521 98.2791 55.8278 98.236 55.8198C98.1929 55.8118 98.1484 55.8206 98.1116 55.8445L97.4712 56.2794C97.4352 56.3049 97.4104 56.3433 97.4018 56.3866C97.3931 56.43 97.4014 56.475 97.4248 56.5124L97.8214 57.1251C97.846 57.1617 97.8835 57.1874 97.9262 57.197C97.969 57.2066 98.0138 57.1994 98.0515 57.1769L98.7279 56.7489C98.7468 56.7364 98.763 56.7202 98.7757 56.7013C98.7883 56.6825 98.7971 56.6613 98.8016 56.639C98.8061 56.6167 98.8061 56.5937 98.8017 56.5714C98.7973 56.5491 98.7886 56.5279 98.776 56.509Z" fill="black"/>
<path opacity="0.1" d="M97.554 57.3614L97.1214 56.7417C97.0955 56.7057 97.0568 56.6811 97.0133 56.673C96.9698 56.665 96.9249 56.6741 96.8879 56.6986L96.2492 57.1318C96.213 57.157 96.1878 57.1953 96.1789 57.2387C96.1699 57.2821 96.1779 57.3272 96.2012 57.3649L96.5978 57.9777C96.6223 58.0147 96.6601 58.0407 96.7033 58.0503C96.7465 58.06 96.7917 58.0525 96.8295 58.0295L97.506 57.6014C97.5248 57.5888 97.541 57.5726 97.5537 57.5538C97.5663 57.5349 97.5751 57.5137 97.5796 57.4914C97.5841 57.4691 97.5841 57.4462 97.5797 57.4239C97.5753 57.4015 97.5666 57.3803 97.554 57.3614Z" fill="black"/>
<path opacity="0.1" d="M96.3829 58.2911L95.8455 57.5213C95.8398 57.5127 95.8325 57.5054 95.8239 57.4997C95.8154 57.494 95.8058 57.4901 95.7957 57.4882C95.7857 57.4863 95.7753 57.4864 95.7653 57.4885C95.7553 57.4906 95.7458 57.4947 95.7374 57.5006L94.951 58.0339C94.9424 58.0395 94.9349 58.0468 94.9291 58.0553C94.9233 58.0638 94.9192 58.0734 94.9171 58.0836C94.915 58.0937 94.915 58.1041 94.917 58.1143C94.919 58.1244 94.923 58.1341 94.9287 58.1426L95.4214 58.9038C95.4327 58.9213 95.4504 58.9336 95.4706 58.9381C95.4908 58.9426 95.512 58.939 95.5296 58.9279L96.3606 58.4102C96.3706 58.4045 96.3792 58.3966 96.3858 58.3873C96.3925 58.3779 96.3971 58.3671 96.3992 58.3558C96.4013 58.3445 96.401 58.3328 96.3981 58.3216C96.3953 58.3104 96.3901 58.3 96.3829 58.2911Z" fill="black"/>
<path opacity="0.1" d="M95.1621 59.1407L94.6213 58.3708C94.6154 58.3622 94.6079 58.3548 94.5992 58.3491C94.5905 58.3434 94.5808 58.3395 94.5706 58.3375C94.5604 58.3356 94.5499 58.3357 94.5397 58.3379C94.5296 58.34 94.5199 58.3442 94.5114 58.3501L93.7251 58.8835C93.7082 58.8953 93.6966 58.9133 93.6928 58.9336C93.689 58.954 93.6931 58.975 93.7045 58.9922L94.1972 59.7535C94.2024 59.7625 94.2095 59.7703 94.2179 59.7765C94.2263 59.7827 94.2359 59.787 94.246 59.7893C94.2562 59.7915 94.2667 59.7917 94.2769 59.7897C94.2871 59.7877 94.2968 59.7836 94.3053 59.7776L95.1346 59.2598C95.1452 59.2548 95.1546 59.2474 95.1619 59.2383C95.1693 59.2291 95.1745 59.2184 95.1772 59.2069C95.1798 59.1955 95.1798 59.1835 95.1772 59.1721C95.1746 59.1606 95.1694 59.1498 95.1621 59.1407Z" fill="black"/>
<path opacity="0.1" d="M94.0787 59.8942L93.5413 59.1314C93.5293 59.1148 93.5112 59.1035 93.491 59.0999C93.4709 59.0964 93.4501 59.1009 93.4331 59.1124L92.6468 59.644C92.6296 59.6559 92.6176 59.674 92.6134 59.6947C92.6093 59.7153 92.6132 59.7367 92.6245 59.7544L93.1172 60.5155C93.1288 60.5326 93.1464 60.5447 93.1665 60.5491C93.1866 60.5536 93.2077 60.5502 93.2254 60.5396L94.0564 60.0219C94.0678 60.0165 94.0778 60.0084 94.0854 59.9983C94.0931 59.9882 94.0983 59.9764 94.1004 59.9639C94.1026 59.9513 94.1018 59.9385 94.098 59.9264C94.0942 59.9142 94.0876 59.9032 94.0787 59.8942Z" fill="black"/>
<path opacity="0.1" d="M92.8664 60.737L92.3291 59.9673C92.317 59.9507 92.299 59.9394 92.2788 59.9359C92.2586 59.9323 92.2378 59.9368 92.2209 59.9484L91.4346 60.4799C91.4258 60.4856 91.4183 60.4931 91.4125 60.5018C91.4067 60.5104 91.4026 60.5202 91.4005 60.5304C91.3984 60.5407 91.3984 60.5513 91.4004 60.5616C91.4024 60.5719 91.4064 60.5816 91.4122 60.5903L91.905 61.3514C91.9165 61.3685 91.9342 61.3806 91.9543 61.3851C91.9744 61.3896 91.9955 61.3862 92.0131 61.3756L92.8441 60.8578C92.8541 60.852 92.8628 60.844 92.8695 60.8344C92.8761 60.8249 92.8807 60.814 92.8828 60.8026C92.8849 60.7911 92.8846 60.7793 92.8817 60.768C92.8789 60.7567 92.8737 60.7461 92.8664 60.737Z" fill="black"/>
<path opacity="0.1" d="M91.6929 61.5479L91.1556 60.778C91.1499 60.7695 91.1425 60.7621 91.134 60.7564C91.1254 60.7508 91.1159 60.7468 91.1058 60.7449C91.0957 60.743 91.0854 60.7431 91.0754 60.7452C91.0653 60.7473 91.0558 60.7515 91.0474 60.7573L90.2611 61.2907C90.2524 61.2963 90.245 61.3036 90.2391 61.3121C90.2333 61.3206 90.2293 61.3302 90.2272 61.3404C90.2251 61.3505 90.2251 61.3609 90.227 61.3711C90.229 61.3812 90.233 61.3909 90.2388 61.3994L90.7315 62.1607C90.7428 62.1782 90.7604 62.1905 90.7807 62.195C90.8009 62.1996 90.8221 62.1959 90.8397 62.1849L91.6706 61.667C91.6806 61.6613 91.6892 61.6535 91.6959 61.6441C91.7026 61.6347 91.7071 61.624 91.7092 61.6126C91.7114 61.6013 91.711 61.5896 91.7082 61.5785C91.7054 61.5673 91.7002 61.5569 91.6929 61.5479Z" fill="black"/>
<path opacity="0.1" d="M90.5175 62.3719L89.9853 61.6005C89.9732 61.5839 89.9552 61.5726 89.935 61.5691C89.9148 61.5655 89.8941 61.57 89.8771 61.5816L89.0908 62.1131C89.0821 62.1188 89.0746 62.1263 89.0687 62.1349C89.0629 62.1436 89.0588 62.1534 89.0568 62.1636C89.0547 62.1739 89.0546 62.1845 89.0567 62.1948C89.0587 62.205 89.0627 62.2148 89.0685 62.2235L89.5612 62.9846C89.5728 63.0017 89.5904 63.0138 89.6105 63.0183C89.6306 63.0228 89.6517 63.0194 89.6694 63.0087L90.5003 62.491C90.5099 62.4849 90.5181 62.4767 90.5242 62.4671C90.5304 62.4576 90.5344 62.4467 90.5361 62.4354C90.5377 62.4241 90.5369 62.4126 90.5337 62.4016C90.5305 62.3907 90.5249 62.3806 90.5175 62.3719Z" fill="black"/>
<path opacity="0.1" d="M89.3428 63.1887L88.8055 62.4189C88.7998 62.4103 88.7924 62.403 88.7839 62.3973C88.7753 62.3916 88.7658 62.3877 88.7557 62.3858C88.7456 62.3838 88.7353 62.3839 88.7253 62.3861C88.7152 62.3882 88.7057 62.3923 88.6973 62.3982L87.911 62.928C87.9023 62.9336 87.8949 62.9409 87.889 62.9494C87.8832 62.958 87.8792 62.9676 87.8771 62.9777C87.875 62.9878 87.875 62.9983 87.8769 63.0084C87.8789 63.0186 87.8829 63.0282 87.8887 63.0368L88.3814 63.7979C88.3927 63.8154 88.4103 63.8277 88.4306 63.8323C88.4508 63.8368 88.472 63.8331 88.4896 63.8221L89.3205 63.3043C89.33 63.2986 89.3381 63.2909 89.3444 63.2818C89.3508 63.2727 89.3551 63.2624 89.3572 63.2515C89.3593 63.2406 89.3591 63.2293 89.3567 63.2185C89.3542 63.2077 89.3495 63.1975 89.3428 63.1887Z" fill="black"/>
<path opacity="0.1" d="M101.587 52.894L101.154 52.2726C101.128 52.2365 101.089 52.2119 101.046 52.2039C101.002 52.1959 100.957 52.205 100.92 52.2294L100.287 52.6644C100.251 52.6896 100.225 52.7279 100.216 52.7713C100.208 52.8146 100.215 52.8598 100.239 52.8974L100.635 53.5102C100.66 53.5469 100.698 53.5726 100.741 53.5819C100.784 53.5912 100.83 53.5835 100.867 53.5603L101.544 53.1339C101.581 53.1078 101.606 53.0678 101.614 53.0229C101.622 52.9779 101.612 52.9315 101.587 52.894Z" fill="black"/>
<path opacity="0.1" d="M99.8954 50.4372L99.4627 49.8123C99.4369 49.7768 99.3985 49.7525 99.3554 49.7445C99.3123 49.7364 99.2678 49.7453 99.2309 49.7692L98.5905 50.2024C98.5543 50.2277 98.5291 50.2659 98.5202 50.3093C98.5112 50.3527 98.5192 50.3978 98.5425 50.4355L98.9391 51.0482C98.9636 51.0852 99.0014 51.1112 99.0446 51.1209C99.0878 51.1305 99.133 51.1231 99.1709 51.1L99.8473 50.6737C99.8845 50.6484 99.9103 50.6095 99.9193 50.5653C99.9283 50.5211 99.9197 50.4751 99.8954 50.4372Z" fill="black"/>
<path opacity="0.1" d="M100.435 53.6925L100.003 53.073C99.9767 53.0374 99.9383 53.0131 99.8952 53.0051C99.8521 52.9971 99.8076 53.0059 99.7708 53.0298L99.1304 53.463C99.0944 53.4885 99.0696 53.5268 99.061 53.5702C99.0523 53.6135 99.0606 53.6586 99.084 53.696L99.4789 54.3086C99.5035 54.3456 99.5413 54.3717 99.5845 54.3813C99.6276 54.3909 99.6729 54.3835 99.7107 54.3604L100.387 53.9341C100.406 53.9216 100.423 53.9054 100.435 53.8864C100.448 53.8674 100.457 53.846 100.462 53.8235C100.466 53.801 100.466 53.7778 100.462 53.7553C100.457 53.7328 100.448 53.7115 100.435 53.6925Z" fill="black"/>
<path opacity="0.1" d="M99.2262 54.5349L98.7936 53.9154C98.7677 53.8794 98.7289 53.8548 98.6854 53.8467C98.6419 53.8387 98.597 53.8478 98.5601 53.8722L97.9214 54.3002C97.8847 54.3254 97.8592 54.364 97.8502 54.4078C97.8412 54.4516 97.8495 54.4971 97.8733 54.5349L98.2699 55.1475C98.2947 55.1842 98.3327 55.2098 98.3758 55.2192C98.419 55.2285 98.4641 55.2207 98.5017 55.1975L99.1781 54.7713C99.2153 54.746 99.2411 54.7071 99.2501 54.6629C99.2591 54.6187 99.2505 54.5728 99.2262 54.5349Z" fill="black"/>
<path opacity="0.1" d="M98.0011 55.3882L97.5702 54.7668C97.5443 54.7308 97.5055 54.7062 97.462 54.6982C97.4186 54.6901 97.3736 54.6993 97.3367 54.7237L96.6963 55.1638C96.6603 55.1893 96.6355 55.2277 96.6269 55.2711C96.6182 55.3144 96.6265 55.3594 96.6499 55.3969L97.0465 56.0096C97.0714 56.0463 97.1093 56.072 97.1524 56.0813C97.1956 56.0906 97.2407 56.0829 97.2783 56.0597L97.953 55.6333C97.9726 55.6208 97.9895 55.6044 98.0026 55.5851C98.0157 55.5658 98.0248 55.544 98.0293 55.5211C98.0338 55.4982 98.0336 55.4746 98.0288 55.4518C98.0239 55.4289 98.0145 55.4073 98.0011 55.3882Z" fill="black"/>
<path opacity="0.1" d="M98.7709 51.2775L98.3382 50.6579C98.3124 50.6223 98.274 50.5981 98.2309 50.59C98.1878 50.582 98.1433 50.5909 98.1064 50.6148L97.466 51.048C97.4298 51.0732 97.4046 51.1114 97.3957 51.1548C97.3867 51.1982 97.3947 51.2433 97.418 51.2809L97.8146 51.8936C97.8391 51.9306 97.8769 51.9566 97.9201 51.9663C97.9633 51.9759 98.0085 51.9684 98.0464 51.9454L98.7228 51.5191C98.7419 51.5066 98.7584 51.4903 98.7711 51.4713C98.7839 51.4523 98.7928 51.4309 98.7973 51.4084C98.8018 51.3859 98.8018 51.3628 98.7972 51.3403C98.7927 51.3178 98.7837 51.2965 98.7709 51.2775Z" fill="black"/>
<path opacity="0.1" d="M97.5618 52.1197L97.1292 51.4984C97.1033 51.4624 97.0646 51.4378 97.0211 51.4297C96.9776 51.4217 96.9327 51.4308 96.8957 51.4553L96.257 51.8833C96.2208 51.9085 96.1956 51.9467 96.1867 51.9901C96.1777 52.0335 96.1857 52.0787 96.209 52.1163L96.6056 52.729C96.6304 52.7657 96.6683 52.7913 96.7115 52.8007C96.7546 52.81 96.7997 52.8022 96.8373 52.779L97.5137 52.3527C97.55 52.3275 97.5752 52.2893 97.5841 52.2459C97.5931 52.2025 97.5851 52.1573 97.5618 52.1197Z" fill="black"/>
<path opacity="0.1" d="M96.338 52.9716L95.9054 52.3521C95.8798 52.3162 95.8415 52.2916 95.7984 52.2833C95.7553 52.2749 95.7106 52.2835 95.6736 52.3072L95.0332 52.7473C94.9973 52.7727 94.9724 52.8111 94.9638 52.8544C94.9552 52.8978 94.9634 52.9428 94.9868 52.9802L95.3834 53.5928C95.408 53.6298 95.4458 53.6558 95.489 53.6655C95.5322 53.6751 95.5774 53.6676 95.6152 53.6446L96.29 53.2166C96.3096 53.2041 96.3264 53.1877 96.3395 53.1684C96.3526 53.1491 96.3617 53.1274 96.3662 53.1045C96.3707 53.0815 96.3705 53.058 96.3657 53.0351C96.3608 53.0123 96.3514 52.9907 96.338 52.9716Z" fill="black"/>
<path opacity="0.1" d="M96.7801 56.2382L96.3475 55.6186C96.3219 55.5827 96.2836 55.5581 96.2405 55.5497C96.1974 55.5414 96.1527 55.55 96.1157 55.5737L95.4805 56.0087C95.4445 56.0342 95.4197 56.0725 95.4111 56.1159C95.4024 56.1592 95.4107 56.2043 95.4341 56.2417L95.8238 56.8544C95.8484 56.891 95.8858 56.9167 95.9286 56.9263C95.9714 56.9359 96.0162 56.9288 96.0539 56.9062L96.7303 56.4782C96.7493 56.4658 96.7657 56.4497 96.7785 56.4309C96.7913 56.4121 96.8003 56.3909 96.8049 56.3686C96.8096 56.3463 96.8097 56.3233 96.8055 56.3009C96.8012 56.2786 96.7926 56.2573 96.7801 56.2382Z" fill="black"/>
<path opacity="0.1" d="M95.5575 57.0891L95.1248 56.4695C95.0989 56.4334 95.0602 56.4088 95.0167 56.4008C94.9732 56.3928 94.9283 56.4019 94.8913 56.4263L94.2526 56.8595C94.2164 56.8848 94.1912 56.923 94.1823 56.9664C94.1733 57.0098 94.1813 57.0549 94.2046 57.0925L94.6012 57.7053C94.6257 57.7422 94.6635 57.7683 94.7067 57.7779C94.7499 57.7876 94.7951 57.7801 94.8329 57.757L95.5094 57.3307C95.5285 57.3182 95.5449 57.3019 95.5577 57.2829C95.5705 57.2639 95.5794 57.2426 95.5839 57.2201C95.5884 57.1976 95.5883 57.1744 95.5838 57.1519C95.5792 57.1294 95.5703 57.1081 95.5575 57.0891Z" fill="black"/>
<path opacity="0.1" d="M94.3878 58.0168L93.8504 57.2471C93.8447 57.2386 93.8374 57.2312 93.8289 57.2256C93.8203 57.2199 93.8107 57.2159 93.8007 57.214C93.7906 57.2121 93.7802 57.2122 93.7702 57.2143C93.7602 57.2165 93.7507 57.2206 93.7423 57.2264L92.9559 57.7596C92.9473 57.7652 92.9398 57.7725 92.934 57.781C92.9281 57.7896 92.9241 57.7992 92.922 57.8093C92.9199 57.8194 92.9199 57.8299 92.9219 57.84C92.9239 57.8501 92.9278 57.8598 92.9336 57.8684L93.4263 58.6294C93.4318 58.6382 93.4389 58.6459 93.4473 58.6519C93.4557 58.6579 93.4653 58.6622 93.4754 58.6644C93.4854 58.6667 93.4959 58.6669 93.506 58.665C93.5162 58.6631 93.5259 58.6592 93.5345 58.6535L94.3655 58.1358C94.3755 58.1301 94.3841 58.1223 94.3908 58.113C94.3974 58.1036 94.402 58.0928 94.4041 58.0815C94.4063 58.0702 94.4059 58.0585 94.4031 58.0473C94.4003 58.0361 94.3951 58.0257 94.3878 58.0168Z" fill="black"/>
<path opacity="0.1" d="M93.3045 58.7698L92.7671 57.9982C92.755 57.9816 92.737 57.9703 92.7168 57.9668C92.6967 57.9632 92.6759 57.9677 92.6589 57.9793L91.8743 58.5109C91.8571 58.5228 91.8451 58.541 91.841 58.5616C91.8368 58.5822 91.8408 58.6036 91.852 58.6213L92.3448 59.3825C92.3563 59.3996 92.3739 59.4117 92.3941 59.4162C92.4142 59.4207 92.4352 59.4173 92.4529 59.4067L93.2839 58.8889C93.2942 58.8835 93.3032 58.8758 93.31 58.8663C93.3169 58.8569 93.3215 58.846 93.3235 58.8344C93.3255 58.8229 93.3248 58.8111 93.3215 58.7999C93.3182 58.7886 93.3124 58.7783 93.3045 58.7698Z" fill="black"/>
<path opacity="0.1" d="M92.0933 59.6136L91.556 58.8437C91.5439 58.827 91.5259 58.8158 91.5057 58.8122C91.4855 58.8087 91.4648 58.8132 91.4478 58.8247L90.6615 59.3564C90.6528 59.362 90.6454 59.3693 90.6395 59.3778C90.6337 59.3863 90.6296 59.3959 90.6276 59.4061C90.6255 59.4162 90.6255 59.4266 90.6274 59.4368C90.6294 59.4469 90.6334 59.4566 90.6392 59.4652L91.1319 60.2282C91.1434 60.2453 91.1611 60.2574 91.1812 60.2619C91.2013 60.2664 91.2224 60.2629 91.2401 60.2523L92.071 59.7344C92.081 59.7286 92.0897 59.7206 92.0964 59.7111C92.103 59.7015 92.1076 59.6906 92.1097 59.6792C92.1118 59.6677 92.1115 59.6559 92.1086 59.6446C92.1058 59.6333 92.1006 59.6227 92.0933 59.6136Z" fill="black"/>
<path opacity="0.1" d="M90.9181 60.432L90.3807 59.6622C90.375 59.6536 90.3676 59.6463 90.3591 59.6406C90.3506 59.6349 90.341 59.631 90.3309 59.6291C90.3208 59.6271 90.3105 59.6272 90.3005 59.6294C90.2904 59.6315 90.2809 59.6356 90.2725 59.6415L89.4862 60.1679C89.4775 60.1735 89.4701 60.1807 89.4642 60.1893C89.4584 60.1978 89.4544 60.2074 89.4523 60.2175C89.4502 60.2277 89.4502 60.2381 89.4521 60.2483C89.4541 60.2584 89.4581 60.268 89.4639 60.2766L89.9566 61.0378C89.9679 61.0553 89.9855 61.0676 90.0058 61.0721C90.026 61.0766 90.0472 61.073 90.0648 61.0619L90.8957 60.5441C90.9047 60.5384 90.9124 60.5309 90.9184 60.5221C90.9244 60.5132 90.9286 60.5033 90.9306 60.4928C90.9327 60.4823 90.9327 60.4716 90.9305 60.4611C90.9284 60.4506 90.9241 60.4407 90.9181 60.432Z" fill="black"/>
<path opacity="0.1" d="M98.4215 53.3664L97.9889 52.7467C97.963 52.7111 97.9246 52.6868 97.8815 52.6788C97.8384 52.6708 97.7939 52.6796 97.7571 52.7035L97.1167 53.1385C97.0808 53.164 97.0559 53.2024 97.0473 53.2457C97.0387 53.2891 97.0469 53.3341 97.0703 53.3715L97.4669 53.9843C97.4917 54.0205 97.5293 54.0459 97.5721 54.0552C97.6149 54.0645 97.6595 54.0571 97.697 54.0344L98.3735 53.608C98.3926 53.5955 98.409 53.5792 98.4218 53.5602C98.4346 53.5412 98.4435 53.5198 98.448 53.4973C98.4524 53.4748 98.4524 53.4517 98.4479 53.4292C98.4433 53.4067 98.4344 53.3853 98.4215 53.3664Z" fill="black"/>
<path opacity="0.1" d="M97.1956 54.2183L96.763 53.5969C96.7371 53.5609 96.6984 53.5363 96.6549 53.5282C96.6114 53.5202 96.5664 53.5293 96.5295 53.5538L95.8908 53.9887C95.8546 54.0139 95.8294 54.0522 95.8205 54.0955C95.8115 54.1389 95.8195 54.1841 95.8428 54.2217L96.2393 54.8344C96.2639 54.8714 96.3017 54.8974 96.3449 54.9071C96.3881 54.9167 96.4333 54.9092 96.4711 54.8862L97.1476 54.4582C97.1664 54.4456 97.1827 54.4295 97.1953 54.4106C97.2079 54.3917 97.2167 54.3705 97.2212 54.3483C97.2257 54.326 97.2257 54.303 97.2213 54.2807C97.2169 54.2584 97.2082 54.2372 97.1956 54.2183Z" fill="black"/>
<path opacity="0.1" d="M95.9759 55.0698L95.5433 54.4502C95.5174 54.4141 95.4787 54.3895 95.4352 54.3815C95.3917 54.3735 95.3468 54.3826 95.3098 54.407L94.6694 54.8403C94.6335 54.8657 94.6086 54.9041 94.6 54.9475C94.5914 54.9908 94.5996 55.0358 94.6231 55.0733L95.0197 55.686C95.0442 55.7229 95.082 55.749 95.1252 55.7586C95.1684 55.7683 95.2136 55.7608 95.2514 55.7377L95.9261 55.3097C95.9452 55.2973 95.9615 55.2812 95.9743 55.2624C95.9871 55.2436 95.9961 55.2225 96.0007 55.2002C96.0054 55.1779 96.0056 55.1549 96.0013 55.1325C95.997 55.1101 95.9884 55.0888 95.9759 55.0698Z" fill="black"/>
<path opacity="0.1" d="M94.7511 55.9204L94.3185 55.3008C94.2926 55.2652 94.2542 55.2409 94.2111 55.2329C94.168 55.2248 94.1235 55.2337 94.0867 55.2576L93.4463 55.6909C93.4103 55.7163 93.3855 55.7547 93.3769 55.7981C93.3682 55.8414 93.3765 55.8865 93.3999 55.9239L93.7965 56.5436C93.8211 56.5801 93.8585 56.6058 93.9013 56.6155C93.9441 56.6251 93.9889 56.6179 94.0266 56.5954L94.703 56.169C94.7231 56.1565 94.7404 56.1399 94.7539 56.1203C94.7673 56.1008 94.7765 56.0786 94.7811 56.0553C94.7856 56.0319 94.7852 56.0079 94.7801 55.9847C94.7749 55.9615 94.7651 55.9396 94.7511 55.9204Z" fill="black"/>
<path opacity="0.1" d="M93.5927 56.8469L93.0553 56.0772C93.0496 56.0687 93.0423 56.0613 93.0337 56.0556C93.0252 56.0499 93.0156 56.046 93.0055 56.0441C92.9955 56.0422 92.9851 56.0423 92.9751 56.0444C92.9651 56.0465 92.9556 56.0507 92.9471 56.0565L92.1608 56.5898C92.1437 56.6014 92.1318 56.6192 92.1276 56.6396C92.1234 56.6599 92.1274 56.681 92.1385 56.6985L92.6312 57.4613C92.6368 57.47 92.644 57.4775 92.6525 57.4833C92.661 57.4892 92.6706 57.4933 92.6806 57.4954C92.6907 57.4975 92.7011 57.4975 92.7112 57.4955C92.7213 57.4935 92.7309 57.4895 92.7394 57.4837L93.5704 56.966C93.5803 56.9603 93.589 56.9525 93.5956 56.9431C93.6023 56.9337 93.6069 56.923 93.609 56.9117C93.6111 56.9003 93.6108 56.8887 93.6079 56.8775C93.6051 56.8663 93.5999 56.8559 93.5927 56.8469Z" fill="black"/>
<path opacity="0.1" d="M92.501 57.6037L91.9636 56.8324C91.9513 56.8156 91.9329 56.8043 91.9125 56.8007C91.892 56.7972 91.871 56.8017 91.8538 56.8134L91.0692 57.3449C91.0519 57.3568 91.04 57.375 91.0358 57.3956C91.0316 57.4162 91.0356 57.4376 91.0468 57.4553L91.5396 58.2163C91.5508 58.2338 91.5685 58.2461 91.5887 58.2506C91.609 58.2552 91.6302 58.2515 91.6477 58.2405L92.4787 57.7228C92.4887 57.7171 92.4973 57.7093 92.5039 57.6999C92.5106 57.6905 92.5152 57.6798 92.5173 57.6684C92.5194 57.6571 92.5191 57.6455 92.5163 57.6343C92.5134 57.6231 92.5082 57.6127 92.501 57.6037Z" fill="black"/>
<path opacity="0.1" d="M91.2883 58.4437L90.7509 57.6721C90.7385 57.6553 90.7202 57.644 90.6998 57.6405C90.6793 57.6369 90.6583 57.6415 90.641 57.6531L89.8547 58.1847C89.8378 58.1969 89.8261 58.2151 89.822 58.2356C89.8178 58.2561 89.8215 58.2774 89.8324 58.2952L90.3268 59.0564C90.3381 59.0739 90.3558 59.0863 90.376 59.0908C90.3962 59.0953 90.4174 59.0917 90.435 59.0806L91.2643 58.5628C91.2746 58.5575 91.2836 58.5499 91.2907 58.5406C91.2977 58.5313 91.3025 58.5205 91.3048 58.509C91.3071 58.4976 91.3069 58.4858 91.304 58.4745C91.3011 58.4631 91.2958 58.4526 91.2883 58.4437Z" fill="black"/>
<path opacity="0.1" d="M90.1152 59.2623L89.5778 58.4924C89.5719 58.4838 89.5645 58.4764 89.5558 58.4707C89.5471 58.465 89.5373 58.461 89.5271 58.4591C89.5169 58.4572 89.5064 58.4573 89.4963 58.4595C89.4861 58.4616 89.4765 58.4658 89.4679 58.4717L88.6816 59.0051C88.6648 59.0169 88.6532 59.0349 88.6493 59.0552C88.6455 59.0755 88.6497 59.0965 88.661 59.1138L89.1537 59.875C89.159 59.8841 89.166 59.8919 89.1744 59.8981C89.1828 59.9042 89.1924 59.9086 89.2026 59.9109C89.2127 59.9131 89.2232 59.9133 89.2334 59.9113C89.2437 59.9093 89.2533 59.9051 89.2619 59.8992L90.0911 59.3814C90.1015 59.376 90.1105 59.3685 90.1175 59.3592C90.1245 59.3498 90.1294 59.3391 90.1317 59.3276C90.134 59.3162 90.1337 59.3044 90.1309 59.293C90.128 59.2817 90.1226 59.2712 90.1152 59.2623Z" fill="black"/>
<path opacity="0.1" d="M89.7432 61.2485L89.2059 60.4789C89.1938 60.4623 89.1758 60.451 89.1556 60.4475C89.1354 60.4439 89.1147 60.4484 89.0977 60.46L88.3114 60.9914C88.3027 60.997 88.2953 61.0043 88.2895 61.0128C88.2836 61.0213 88.2796 61.0309 88.2775 61.041C88.2754 61.0512 88.2753 61.0616 88.2773 61.0718C88.2793 61.0819 88.2833 61.0915 88.2891 61.1001L88.7818 61.8628C88.7934 61.8799 88.811 61.892 88.8311 61.8965C88.8512 61.901 88.8723 61.8975 88.89 61.8869L89.7209 61.3693C89.7309 61.3634 89.7396 61.3554 89.7463 61.3459C89.7529 61.3364 89.7575 61.3255 89.7596 61.314C89.7617 61.3026 89.7614 61.2908 89.7585 61.2795C89.7557 61.2682 89.7505 61.2576 89.7432 61.2485Z" fill="black"/>
<path opacity="0.1" d="M88.5685 62.0671L88.0311 61.2973C88.0254 61.2887 88.0181 61.2814 88.0095 61.2757C88.001 61.27 87.9914 61.2661 87.9813 61.2642C87.9713 61.2623 87.9609 61.2624 87.9509 61.2645C87.9409 61.2666 87.9314 61.2707 87.9229 61.2766L87.1366 61.8099C87.1279 61.8155 87.1205 61.8228 87.1146 61.8313C87.1088 61.8398 87.1047 61.8494 87.1027 61.8596C87.1006 61.8697 87.1005 61.8801 87.1025 61.8903C87.1045 61.9004 87.1085 61.9101 87.1143 61.9186L87.607 62.6798C87.6183 62.6973 87.6359 62.7096 87.6562 62.7141C87.6764 62.7186 87.6976 62.715 87.7152 62.7039L88.5462 62.1862C88.5561 62.1805 88.5648 62.1726 88.5714 62.1633C88.5781 62.1539 88.5827 62.1431 88.5848 62.1318C88.5869 62.1205 88.5866 62.1088 88.5837 62.0976C88.5809 62.0864 88.5757 62.076 88.5685 62.0671Z" fill="black"/>
<path opacity="0.1" d="M90.4136 57.1747L89.8985 56.4499C89.8823 56.4274 89.858 56.4121 89.8308 56.4073C89.8036 56.4024 89.7755 56.4085 89.7526 56.424L89.0109 56.9262C88.9994 56.9339 88.9895 56.9438 88.9817 56.9553C88.974 56.9668 88.9686 56.9798 88.9659 56.9934C88.9632 57.0071 88.9632 57.0211 88.9659 57.0348C88.9686 57.0484 88.974 57.0614 88.9817 57.0729L89.4453 57.789C89.4525 57.8009 89.4619 57.8111 89.4732 57.8192C89.4844 57.8273 89.497 57.833 89.5105 57.8361C89.5239 57.8392 89.5379 57.8395 89.5514 57.837C89.565 57.8346 89.578 57.8294 89.5895 57.8218L90.3741 57.3266C90.387 57.3196 90.3984 57.31 90.4075 57.2985C90.4165 57.2869 90.4231 57.2736 90.4268 57.2593C90.4306 57.245 90.4313 57.2302 90.429 57.2156C90.4267 57.2011 90.4215 57.1871 90.4136 57.1747Z" fill="black"/>
<path opacity="0.1" d="M89.2379 57.9933L88.7314 57.2684C88.7237 57.2569 88.7137 57.2471 88.7022 57.2395C88.6907 57.2319 88.6778 57.2267 88.6642 57.2241C88.6506 57.2215 88.6367 57.2217 88.6232 57.2246C88.6097 57.2274 88.5969 57.2329 88.5855 57.2408L87.8438 57.7517C87.8323 57.7592 87.8224 57.7689 87.8147 57.7803C87.807 57.7917 87.8016 57.8045 87.7989 57.818C87.7962 57.8315 87.7962 57.8454 87.7989 57.8589C87.8016 57.8725 87.8069 57.8853 87.8146 57.8967L88.2782 58.6147C88.2933 58.6379 88.3168 58.6543 88.3437 58.6604C88.3706 58.6665 88.3988 58.6619 88.4224 58.6475L89.207 58.1521C89.2203 58.1445 89.2317 58.1341 89.2406 58.1216C89.2495 58.1091 89.2556 58.0949 89.2586 58.0798C89.2615 58.0648 89.2612 58.0493 89.2576 58.0343C89.254 58.0194 89.2473 58.0054 89.2379 57.9933Z" fill="black"/>
<path opacity="0.1" d="M88.0642 58.8098L87.5577 58.0832C87.5415 58.0607 87.5172 58.0454 87.49 58.0406C87.4627 58.0357 87.4347 58.0418 87.4118 58.0573L86.6701 58.5596C86.6586 58.5672 86.6486 58.5771 86.6409 58.5887C86.6332 58.6002 86.6278 58.6132 86.6251 58.6268C86.6224 58.6405 86.6224 58.6545 86.6251 58.6681C86.6278 58.6818 86.6332 58.6948 86.6409 58.7063L87.1045 59.4225C87.1116 59.4344 87.1211 59.4446 87.1323 59.4527C87.1435 59.4608 87.1562 59.4666 87.1697 59.4696C87.1831 59.4727 87.1971 59.473 87.2106 59.4705C87.2242 59.4681 87.2371 59.4629 87.2487 59.4553L88.0333 58.96C88.0455 58.9525 88.056 58.9425 88.0642 58.9308C88.0724 58.919 88.0781 58.9057 88.081 58.8916C88.0839 58.8776 88.0839 58.8631 88.081 58.849C88.0781 58.8349 88.0724 58.8216 88.0642 58.8098Z" fill="black"/>
<path opacity="0.1" d="M86.9058 59.6501L86.3684 58.8785C86.3563 58.8618 86.3383 58.8506 86.3182 58.847C86.298 58.8435 86.2772 58.848 86.2602 58.8595L85.4739 59.3912C85.4567 59.4031 85.4447 59.4213 85.4406 59.4419C85.4364 59.4625 85.4404 59.4839 85.4516 59.5017L85.9444 60.2629C85.9559 60.2801 85.9735 60.2922 85.9937 60.2966C86.0138 60.3011 86.0348 60.2977 86.0525 60.2871L86.8835 59.7692C86.8939 59.764 86.903 59.7564 86.9101 59.7471C86.9171 59.7377 86.9219 59.7268 86.9241 59.7153C86.9263 59.7037 86.9257 59.6918 86.9226 59.6805C86.9194 59.6692 86.9136 59.6588 86.9058 59.6501Z" fill="black"/>
<path opacity="0.1" d="M100.802 51.6849L100.337 51.0204C100.311 50.9847 100.272 50.9604 100.229 50.9527C100.185 50.945 100.14 50.9544 100.104 50.979L98.2871 52.2579C98.2519 52.2835 98.2277 52.3217 98.2195 52.3646C98.2112 52.4076 98.2194 52.4521 98.2425 52.4891L98.6803 53.1691C98.6929 53.1879 98.7091 53.2041 98.7279 53.2166C98.7467 53.2292 98.7678 53.2378 98.79 53.2422C98.8122 53.2465 98.835 53.2464 98.8571 53.2418C98.8792 53.2373 98.9002 53.2284 98.9189 53.2157L100.763 51.9196C100.798 51.893 100.822 51.8539 100.829 51.8102C100.837 51.7665 100.827 51.7216 100.802 51.6849Z" fill="black"/>
<path opacity="0.1" d="M88.9372 60.0562L88.3672 59.2468C88.3614 59.2381 88.3539 59.2307 88.3451 59.2251C88.3364 59.2194 88.3266 59.2155 88.3163 59.2138C88.3061 59.212 88.2955 59.2123 88.2854 59.2147C88.2753 59.2172 88.2657 59.2216 88.2574 59.2278L86.2967 60.6084C86.28 60.62 86.2684 60.6377 86.2646 60.6577C86.2607 60.6777 86.2649 60.6985 86.2761 60.7154L86.8118 61.549C86.8175 61.558 86.8249 61.5657 86.8337 61.5718C86.8425 61.5778 86.8524 61.582 86.8628 61.5841C86.8732 61.5862 86.884 61.5861 86.8944 61.584C86.9048 61.5818 86.9146 61.5775 86.9233 61.5714L88.9166 60.1684C88.9341 60.1562 88.946 60.1375 88.9499 60.1165C88.9537 60.0955 88.9492 60.0739 88.9372 60.0562Z" fill="black"/>
<path opacity="0.1" d="M95.1737 53.8634L94.6483 53.0901C94.6365 53.0732 94.6186 53.0615 94.5984 53.0577C94.5782 53.0538 94.5573 53.058 94.5402 53.0694L90.1862 56.0243C90.1691 56.0359 90.1572 56.0538 90.153 56.0741C90.1488 56.0944 90.1527 56.1156 90.1639 56.133L90.7013 56.9615C90.707 56.9705 90.7145 56.9782 90.7232 56.9843C90.732 56.9903 90.7419 56.9945 90.7523 56.9966C90.7627 56.9987 90.7735 56.9986 90.7839 56.9965C90.7943 56.9943 90.8041 56.99 90.8129 56.9839L95.1531 53.9738C95.1617 53.9679 95.169 53.9604 95.1747 53.9517C95.1804 53.9429 95.1843 53.9331 95.1862 53.9229C95.1881 53.9126 95.188 53.9021 95.1858 53.8919C95.1837 53.8816 95.1796 53.872 95.1737 53.8634Z" fill="black"/>
</g>
<path d="M102.473 54.0389L102.04 53.4177C102.014 53.3817 101.976 53.3571 101.932 53.349C101.889 53.341 101.844 53.3501 101.807 53.3746L101.168 53.8094C101.132 53.8346 101.107 53.8729 101.098 53.9163C101.089 53.9596 101.097 54.0048 101.12 54.0424L101.517 54.655C101.541 54.692 101.579 54.718 101.622 54.7277C101.665 54.7373 101.711 54.7298 101.748 54.7068L102.425 54.2788C102.444 54.2663 102.46 54.2501 102.473 54.2313C102.485 54.2124 102.494 54.1912 102.499 54.1689C102.503 54.1466 102.503 54.1237 102.499 54.1014C102.494 54.0791 102.486 54.0578 102.473 54.0389Z" fill="#464A5F"/>
<path d="M101.315 54.8395L100.883 54.2199C100.857 54.1844 100.818 54.1601 100.775 54.1521C100.732 54.144 100.688 54.1529 100.651 54.1768L100.01 54.61C99.9742 54.6352 99.9491 54.6734 99.9401 54.7168C99.9312 54.7602 99.9391 54.8053 99.9624 54.843L100.359 55.4556C100.384 55.4926 100.421 55.5186 100.465 55.5283C100.508 55.5379 100.553 55.5304 100.591 55.5074L101.267 55.0811C101.286 55.0686 101.303 55.0523 101.316 55.0333C101.328 55.0143 101.337 54.9929 101.342 54.9704C101.346 54.948 101.346 54.9248 101.342 54.9023C101.337 54.8798 101.328 54.8585 101.315 54.8395Z" fill="#464A5F"/>
<path d="M100.115 55.6821L99.6824 55.0625C99.6565 55.0265 99.6178 55.0018 99.5743 54.9938C99.5308 54.9858 99.4859 54.9949 99.4489 55.0193L98.8103 55.4543C98.774 55.4795 98.7489 55.5177 98.7399 55.5611C98.731 55.6045 98.7389 55.6496 98.7622 55.6872L99.1588 56.2999C99.1836 56.3366 99.2215 56.3623 99.2647 56.3716C99.3079 56.3809 99.3529 56.3732 99.3906 56.35L100.067 55.9237C100.086 55.9111 100.103 55.8949 100.115 55.8759C100.128 55.8569 100.137 55.8355 100.141 55.813C100.146 55.7905 100.146 55.7674 100.141 55.7449C100.137 55.7224 100.128 55.701 100.115 55.6821Z" fill="#464A5F"/>
<path d="M98.8886 56.5324L98.4559 55.9111C98.4301 55.8755 98.3917 55.8512 98.3486 55.8432C98.3055 55.8352 98.261 55.844 98.2242 55.8679L97.5838 56.3028C97.5649 56.3157 97.5488 56.3321 97.5364 56.3512C97.5239 56.3703 97.5153 56.3918 97.5112 56.4143C97.507 56.4367 97.5074 56.4598 97.5122 56.4822C97.517 56.5045 97.5261 56.5257 97.5391 56.5444L97.9357 57.1571C97.9603 57.1941 97.9981 57.2201 98.0413 57.2297C98.0845 57.2394 98.1297 57.2319 98.1675 57.2089L98.8422 56.7809C98.8622 56.7682 98.8793 56.7515 98.8926 56.7319C98.9059 56.7123 98.9149 56.6901 98.9193 56.6668C98.9236 56.6434 98.9232 56.6195 98.9179 56.5963C98.9126 56.5732 98.9026 56.5514 98.8886 56.5324Z" fill="#464A5F"/>
<path d="M97.6651 57.3839L97.2325 56.7644C97.2066 56.7288 97.1682 56.7045 97.1251 56.6965C97.082 56.6885 97.0375 56.6973 97.0007 56.7212L96.3603 57.1544C96.3244 57.1799 96.2996 57.2182 96.2909 57.2616C96.2823 57.3049 96.2906 57.35 96.314 57.3874L96.7089 58C96.7334 58.037 96.7712 58.0631 96.8144 58.0727C96.8576 58.0823 96.9028 58.0749 96.9406 58.0518L97.6171 57.6238C97.6359 57.6113 97.6522 57.5951 97.6648 57.5763C97.6774 57.5574 97.6862 57.5362 97.6907 57.5139C97.6952 57.4916 97.6952 57.4687 97.6908 57.4464C97.6864 57.4241 97.6777 57.4028 97.6651 57.3839Z" fill="#464A5F"/>
<path d="M96.4967 58.3127L95.9593 57.5428C95.9536 57.5342 95.9463 57.5269 95.9377 57.5212C95.9292 57.5155 95.9196 57.5116 95.9095 57.5097C95.8995 57.5077 95.8891 57.5079 95.8791 57.51C95.8691 57.5121 95.8596 57.5162 95.8511 57.5221L95.0648 58.0555C95.0561 58.0611 95.0487 58.0683 95.0429 58.0769C95.037 58.0854 95.033 58.095 95.0309 58.1051C95.0288 58.1153 95.0288 58.1257 95.0308 58.1358C95.0327 58.146 95.0367 58.1556 95.0425 58.1642L95.5352 58.9255C95.5465 58.943 95.5642 58.9553 95.5844 58.9598C95.6046 58.9643 95.6258 58.9607 95.6434 58.9496L96.4744 58.4318C96.4844 58.4261 96.493 58.4183 96.4997 58.4089C96.5063 58.3995 96.5109 58.3888 96.513 58.3774C96.5151 58.3661 96.5148 58.3544 96.512 58.3432C96.5092 58.3321 96.5039 58.3216 96.4967 58.3127Z" fill="#464A5F"/>
<path d="M95.275 59.162L94.7376 58.3923C94.7317 58.3837 94.7242 58.3763 94.7156 58.3706C94.7069 58.3649 94.6971 58.3609 94.6869 58.359C94.6767 58.3571 94.6662 58.3572 94.6561 58.3594C94.6459 58.3615 94.6363 58.3657 94.6277 58.3716L93.8431 58.9049C93.8345 58.9105 93.827 58.9177 93.8212 58.9263C93.8154 58.9348 93.8113 58.9444 93.8092 58.9545C93.8071 58.9647 93.8071 58.9751 93.8091 58.9852C93.8111 58.9954 93.8151 59.005 93.8208 59.0136L94.3135 59.7765C94.3191 59.7852 94.3263 59.7926 94.3348 59.7985C94.3433 59.8044 94.3528 59.8084 94.3629 59.8105C94.373 59.8126 94.3834 59.8127 94.3935 59.8107C94.4036 59.8087 94.4132 59.8047 94.4217 59.7989L95.2526 59.2811C95.2624 59.2752 95.2708 59.2673 95.2773 59.2579C95.2838 59.2485 95.2883 59.2379 95.2904 59.2266C95.2925 59.2154 95.2922 59.2038 95.2896 59.1927C95.2869 59.1815 95.2819 59.1711 95.275 59.162Z" fill="#464A5F"/>
<path d="M94.191 59.9168L93.6536 59.1452C93.6415 59.1286 93.6235 59.1173 93.6033 59.1137C93.5831 59.1102 93.5624 59.1147 93.5454 59.1262L92.7591 59.6509C92.7419 59.6629 92.7299 59.681 92.7257 59.7016C92.7216 59.7223 92.7255 59.7437 92.7368 59.7614L93.2295 60.5226C93.2411 60.5397 93.2587 60.5518 93.2788 60.5563C93.2989 60.5608 93.32 60.5574 93.3377 60.5468L94.1686 60.0289C94.1776 60.0232 94.1853 60.0157 94.1913 60.0069C94.1973 59.998 94.2015 59.9881 94.2035 59.9776C94.2056 59.9672 94.2056 59.9564 94.2034 59.9459C94.2013 59.9354 94.197 59.9255 94.191 59.9168Z" fill="#464A5F"/>
<path d="M92.9792 60.761L92.4418 59.9965C92.4298 59.9799 92.4117 59.9686 92.3916 59.965C92.3714 59.9615 92.3506 59.966 92.3337 59.9775L91.5473 60.5091C91.5386 60.5148 91.5311 60.5223 91.5253 60.5309C91.5194 60.5396 91.5154 60.5494 91.5133 60.5596C91.5112 60.5699 91.5112 60.5805 91.5132 60.5908C91.5152 60.601 91.5192 60.6108 91.525 60.6195L92.0178 61.3806C92.0293 61.3977 92.047 61.4098 92.0671 61.4143C92.0872 61.4188 92.1082 61.4153 92.1259 61.4047L92.9569 60.887C92.968 60.8815 92.9777 60.8735 92.9851 60.8635C92.9926 60.8535 92.9976 60.842 92.9998 60.8297C93.0019 60.8174 93.0012 60.8048 92.9976 60.7929C92.9941 60.781 92.9877 60.7701 92.9792 60.761Z" fill="#464A5F"/>
<path d="M91.8053 61.5771L91.2679 60.8073C91.2622 60.7988 91.2549 60.7914 91.2463 60.7857C91.2378 60.78 91.2282 60.7761 91.2181 60.7742C91.2081 60.7723 91.1977 60.7724 91.1877 60.7745C91.1777 60.7766 91.1682 60.7808 91.1597 60.7866L90.3734 61.3199C90.3647 61.3255 90.3573 61.3328 90.3515 61.3413C90.3456 61.3498 90.3416 61.3594 90.3395 61.3696C90.3374 61.3797 90.3374 61.3901 90.3393 61.4003C90.3413 61.4104 90.3453 61.4201 90.3511 61.4286L90.8438 62.1897C90.8493 62.1986 90.8564 62.2062 90.8648 62.2123C90.8732 62.2183 90.8827 62.2226 90.8928 62.2248C90.9029 62.2271 90.9134 62.2273 90.9235 62.2254C90.9337 62.2235 90.9434 62.2196 90.952 62.2139L91.783 61.6962C91.793 61.6905 91.8016 61.6826 91.8083 61.6733C91.8149 61.6639 91.8195 61.6531 91.8216 61.6418C91.8237 61.6305 91.8234 61.6188 91.8206 61.6076C91.8177 61.5964 91.8125 61.586 91.8053 61.5771Z" fill="#464A5F"/>
<path d="M90.63 62.3955L90.0926 61.624C90.0805 61.6073 90.0625 61.596 90.0423 61.5925C90.0221 61.5889 90.0014 61.5934 89.9844 61.605L89.1981 62.1366C89.1808 62.1485 89.1689 62.1667 89.1647 62.1873C89.1605 62.2079 89.1645 62.2293 89.1757 62.2471L89.6685 63.0082C89.68 63.0254 89.6977 63.0374 89.7178 63.0419C89.7379 63.0464 89.759 63.043 89.7767 63.0324L90.6076 62.5146C90.6176 62.5089 90.6263 62.5011 90.6329 62.4917C90.6396 62.4823 90.6441 62.4716 90.6463 62.4602C90.6484 62.4489 90.648 62.4372 90.6452 62.4261C90.6424 62.4149 90.6372 62.4044 90.63 62.3955Z" fill="#464A5F"/>
<path d="M89.4556 63.2101L88.9183 62.4405C88.9126 62.4319 88.9052 62.4246 88.8967 62.4189C88.8882 62.4132 88.8786 62.4093 88.8685 62.4074C88.8584 62.4055 88.8481 62.4056 88.8381 62.4077C88.828 62.4098 88.8185 62.4139 88.8101 62.4198L88.0238 62.953C88.0151 62.9586 88.0077 62.9659 88.0019 62.9744C87.996 62.9829 87.992 62.9925 87.9899 63.0026C87.9878 63.0128 87.9877 63.0232 87.9897 63.0334C87.9917 63.0435 87.9957 63.0531 88.0015 63.0617L88.4942 63.8227C88.4996 63.8316 88.5068 63.8392 88.5152 63.8452C88.5236 63.8513 88.5331 63.8555 88.5432 63.8578C88.5533 63.86 88.5637 63.8602 88.5739 63.8583C88.584 63.8565 88.5937 63.8526 88.6024 63.8469L89.4333 63.3292C89.4433 63.3235 89.4519 63.3157 89.4586 63.3063C89.4653 63.2969 89.4698 63.2862 89.4719 63.2749C89.4741 63.2635 89.4737 63.2519 89.4709 63.2407C89.4681 63.2295 89.4629 63.2191 89.4556 63.2101Z" fill="#464A5F"/>
<path d="M101.699 52.9204L101.267 52.2992C101.241 52.2636 101.202 52.2393 101.159 52.2313C101.116 52.2233 101.072 52.2321 101.035 52.256L100.395 52.6909C100.359 52.7164 100.334 52.7548 100.325 52.7981C100.316 52.8415 100.325 52.8865 100.348 52.9239L100.743 53.5366C100.768 53.5735 100.805 53.5996 100.849 53.6092C100.892 53.6189 100.937 53.6114 100.975 53.5883L101.651 53.1603C101.67 53.1478 101.686 53.1316 101.699 53.1128C101.712 53.0939 101.72 53.0727 101.725 53.0504C101.729 53.0281 101.729 53.0052 101.725 52.9829C101.721 52.9606 101.712 52.9393 101.699 52.9204Z" fill="#464A5F"/>
<path d="M100.007 50.4593L99.5743 49.8397C99.5484 49.8041 99.51 49.7798 99.4669 49.7718C99.4239 49.7638 99.3793 49.7726 99.3425 49.7965L98.7021 50.2297C98.6662 50.2552 98.6414 50.2936 98.6327 50.337C98.6241 50.3803 98.6324 50.4253 98.6558 50.4628L99.0524 51.0755C99.0769 51.112 99.1144 51.1377 99.1572 51.1473C99.1999 51.1569 99.2448 51.1498 99.2824 51.1272L99.9589 50.7009C99.978 50.6884 99.9944 50.6721 100.007 50.6531C100.02 50.6341 100.029 50.6128 100.033 50.5903C100.038 50.5678 100.038 50.5446 100.033 50.5221C100.029 50.4996 100.02 50.4783 100.007 50.4593Z" fill="#464A5F"/>
<path d="M100.548 53.7158L100.115 53.0926C100.089 53.057 100.051 53.0328 100.008 53.0247C99.9649 53.0167 99.9204 53.0256 99.8836 53.0495L99.2432 53.4827C99.2072 53.5082 99.1824 53.5466 99.1737 53.59C99.1651 53.6333 99.1734 53.6784 99.1968 53.7158L99.5934 54.3286C99.6179 54.3651 99.6554 54.3908 99.6982 54.4005C99.741 54.4101 99.7858 54.4029 99.8235 54.3804L100.5 53.954C100.538 53.9287 100.564 53.8895 100.573 53.8448C100.582 53.8002 100.573 53.7538 100.548 53.7158Z" fill="#464A5F"/>
<path d="M99.3378 54.5559L98.912 53.9362C98.8861 53.9007 98.8477 53.8764 98.8046 53.8684C98.7615 53.8603 98.717 53.8692 98.6802 53.8931L98.0398 54.3263C98.0034 54.3518 97.9782 54.3905 97.9696 54.4343C97.961 54.4781 97.9695 54.5235 97.9935 54.5611L98.3883 55.1738C98.4132 55.2105 98.4511 55.2362 98.4943 55.2455C98.5374 55.2548 98.5825 55.2471 98.6201 55.2238L99.2966 54.7975C99.3152 54.7844 99.331 54.7678 99.3431 54.7485C99.3552 54.7293 99.3635 54.7078 99.3673 54.6853C99.3711 54.6629 99.3705 54.6399 99.3654 54.6176C99.3604 54.5954 99.351 54.5744 99.3378 54.5559Z" fill="#464A5F"/>
<path d="M98.1161 55.4098L97.6834 54.7883C97.6575 54.7523 97.6188 54.7277 97.5753 54.7196C97.5318 54.7116 97.4869 54.7208 97.4499 54.7452L96.8113 55.1802C96.775 55.2054 96.7498 55.2437 96.7409 55.287C96.7319 55.3304 96.7399 55.3756 96.7632 55.4132L97.1598 56.026C97.1843 56.063 97.2221 56.089 97.2653 56.0987C97.3085 56.1083 97.3537 56.1009 97.3916 56.0778L98.068 55.6497C98.0869 55.6372 98.1031 55.621 98.1158 55.6021C98.1284 55.5833 98.1372 55.5621 98.1417 55.5398C98.1461 55.5175 98.1462 55.4945 98.1418 55.4722C98.1374 55.4499 98.1287 55.4287 98.1161 55.4098Z" fill="#464A5F"/>
<path d="M98.8834 51.3005L98.4508 50.6775C98.4249 50.6419 98.3865 50.6176 98.3434 50.6096C98.3003 50.6016 98.2558 50.6104 98.219 50.6343L97.5786 51.0675C97.5427 51.093 97.5178 51.1314 97.5092 51.1747C97.5006 51.2181 97.5088 51.2631 97.5323 51.3005L97.9289 51.9132C97.9534 51.9497 97.9909 51.9755 98.0336 51.9851C98.0764 51.9947 98.1212 51.9875 98.1589 51.965L98.8354 51.5387C98.873 51.5134 98.8992 51.4742 98.9082 51.4296C98.9172 51.3849 98.9083 51.3386 98.8834 51.3005Z" fill="#464A5F"/>
<path d="M97.6732 52.1425L97.2406 51.5211C97.2147 51.4855 97.1763 51.4612 97.1332 51.4532C97.0901 51.4452 97.0456 51.454 97.0088 51.4779L96.3684 51.9129C96.3322 51.9381 96.307 51.9764 96.298 52.0198C96.2891 52.0631 96.297 52.1083 96.3203 52.1459L96.7169 52.7587C96.7415 52.7957 96.7793 52.8217 96.8225 52.8313C96.8656 52.841 96.9109 52.8335 96.9487 52.8105L97.6251 52.3824C97.644 52.3699 97.6602 52.3537 97.6729 52.3348C97.6855 52.316 97.6943 52.2948 97.6988 52.2725C97.7033 52.2502 97.7033 52.2272 97.6989 52.2049C97.6945 52.1826 97.6858 52.1614 97.6732 52.1425Z" fill="#464A5F"/>
<path d="M96.4525 52.9929L96.0198 52.3733C95.9939 52.3372 95.9552 52.3126 95.9117 52.3046C95.8682 52.2966 95.8233 52.3057 95.7863 52.3301L95.1477 52.7633C95.1115 52.7886 95.0863 52.8268 95.0773 52.8702C95.0684 52.9136 95.0763 52.9587 95.0996 52.9963L95.4962 53.6108C95.5207 53.6478 95.5586 53.6738 95.6017 53.6834C95.6449 53.6931 95.6901 53.6856 95.728 53.6625L96.4027 53.2345C96.4219 53.2221 96.4385 53.206 96.4515 53.187C96.4644 53.1681 96.4735 53.1467 96.4781 53.1242C96.4828 53.1017 96.4829 53.0785 96.4785 53.056C96.4741 53.0334 96.4652 53.012 96.4525 52.9929Z" fill="#464A5F"/>
<path d="M96.8917 56.2603L96.4591 55.6408C96.4332 55.6053 96.3948 55.581 96.3517 55.573C96.3086 55.5649 96.2641 55.5738 96.2273 55.5977L95.5869 56.0274C95.551 56.0529 95.5261 56.0912 95.5175 56.1346C95.5089 56.1779 95.5171 56.2229 95.5405 56.2603L95.9371 56.873C95.9617 56.9095 95.9992 56.9352 96.042 56.9448C96.0847 56.9544 96.1295 56.9473 96.1672 56.9247L96.8437 56.4968C96.8808 56.4715 96.9067 56.4326 96.9157 56.3884C96.9246 56.3442 96.916 56.2983 96.8917 56.2603Z" fill="#464A5F"/>
<path d="M95.6687 57.1119L95.2361 56.4922C95.2103 56.4566 95.1718 56.4323 95.1288 56.4243C95.0857 56.4162 95.0412 56.4251 95.0043 56.449L94.364 56.8909C94.3278 56.9162 94.3026 56.9544 94.2936 56.9978C94.2847 57.0412 94.2926 57.0864 94.3159 57.124L94.7125 57.7368C94.737 57.7738 94.7749 57.7999 94.818 57.8095C94.8612 57.8191 94.9064 57.8117 94.9443 57.7886L95.6207 57.3622C95.641 57.3497 95.6586 57.333 95.6721 57.3133C95.6857 57.2936 95.6951 57.2713 95.6996 57.2477C95.7041 57.2242 95.7037 57.1999 95.6984 57.1765C95.6931 57.1532 95.683 57.1311 95.6687 57.1119Z" fill="#464A5F"/>
<path d="M94.5005 58.0402L93.9631 57.2706C93.9574 57.262 93.9501 57.2547 93.9416 57.249C93.933 57.2433 93.9234 57.2394 93.9134 57.2375C93.9033 57.2355 93.893 57.2356 93.8829 57.2378C93.8729 57.2399 93.8634 57.244 93.855 57.2499L93.0755 57.7831C93.0669 57.7887 93.0594 57.7959 93.0536 57.8045C93.0478 57.813 93.0437 57.8226 93.0416 57.8327C93.0396 57.8429 93.0395 57.8533 93.0415 57.8634C93.0435 57.8736 93.0475 57.8832 93.0532 57.8918L93.546 58.6528C93.5514 58.6616 93.5585 58.6693 93.5669 58.6753C93.5753 58.6813 93.5849 58.6856 93.595 58.6878C93.605 58.6901 93.6155 58.6903 93.6256 58.6884C93.6358 58.6866 93.6455 58.6827 93.6541 58.677L94.4851 58.1593C94.4943 58.1528 94.5021 58.1445 94.5079 58.1348C94.5138 58.1252 94.5176 58.1144 94.519 58.1032C94.5205 58.092 94.5196 58.0806 94.5164 58.0697C94.5132 58.0589 94.5078 58.0488 94.5005 58.0402Z" fill="#464A5F"/>
<path d="M93.4187 58.7873L92.8813 58.016C92.8689 57.9992 92.8506 57.9879 92.8301 57.9843C92.8097 57.9808 92.7886 57.9853 92.7714 57.997L91.9851 58.5285C91.9682 58.5406 91.9565 58.5588 91.9523 58.5793C91.9482 58.5998 91.9519 58.6211 91.9627 58.6389L92.4572 59.3999C92.4685 59.4174 92.4861 59.4297 92.5064 59.4342C92.5266 59.4388 92.5478 59.4351 92.5654 59.424L93.3946 58.9064C93.405 58.9011 93.414 58.8935 93.421 58.8842C93.428 58.8749 93.4329 58.8641 93.4352 58.8527C93.4375 58.8412 93.4372 58.8294 93.4344 58.8181C93.4315 58.8068 93.4261 58.7962 93.4187 58.7873Z" fill="#464A5F"/>
<path d="M92.2051 59.6368L91.6678 58.8653C91.6557 58.8487 91.6377 58.8374 91.6175 58.8338C91.5973 58.8303 91.5765 58.8348 91.5596 58.8463L90.7733 59.3779C90.756 59.3898 90.7441 59.408 90.7399 59.4286C90.7357 59.4492 90.7397 59.4707 90.7509 59.4884L91.2437 60.2496C91.2552 60.2667 91.2729 60.2788 91.293 60.2833C91.3131 60.2877 91.3342 60.2843 91.3519 60.2737L92.1828 59.7559C92.1933 59.7507 92.2024 59.7431 92.2095 59.7337C92.2165 59.7244 92.2213 59.7135 92.2235 59.702C92.2256 59.6904 92.2251 59.6785 92.2219 59.6672C92.2187 59.6559 92.213 59.6455 92.2051 59.6368Z" fill="#464A5F"/>
<path d="M91.0328 60.4554L90.5006 59.6856C90.4949 59.6771 90.4876 59.6697 90.479 59.664C90.4705 59.6583 90.4609 59.6544 90.4508 59.6525C90.4408 59.6506 90.4304 59.6507 90.4204 59.6528C90.4104 59.6549 90.4009 59.659 90.3925 59.6649L89.6061 60.1982C89.589 60.2098 89.5771 60.2277 89.5729 60.248C89.5687 60.2683 89.5727 60.2895 89.5838 60.3069L90.0766 61.0681C90.0878 61.0856 90.1055 61.0979 90.1257 61.1024C90.1459 61.1069 90.1671 61.1033 90.1847 61.0922L91.0157 60.5745C91.0255 60.5685 91.0339 60.5605 91.0402 60.5509C91.0466 60.5413 91.0507 60.5304 91.0524 60.519C91.054 60.5076 91.0531 60.496 91.0497 60.485C91.0464 60.474 91.0406 60.4639 91.0328 60.4554Z" fill="#464A5F"/>
<path d="M98.5324 53.3902L98.1014 52.769C98.0755 52.733 98.0368 52.7084 97.9933 52.7004C97.9498 52.6923 97.9049 52.7015 97.8679 52.7259L97.2275 53.1607C97.1916 53.1862 97.1667 53.2246 97.1581 53.2679C97.1495 53.3113 97.1577 53.3563 97.1812 53.3937L97.5778 54.0063C97.6026 54.043 97.6405 54.0686 97.6837 54.0779C97.7269 54.0873 97.7719 54.0795 97.8096 54.0563L98.4843 53.6301C98.5032 53.6175 98.5194 53.6014 98.532 53.5825C98.5447 53.5637 98.5535 53.5425 98.5579 53.5202C98.5624 53.4979 98.5625 53.475 98.5581 53.4526C98.5537 53.4303 98.5449 53.4091 98.5324 53.3902Z" fill="#464A5F"/>
<path d="M97.3121 54.2403L96.8795 53.6208C96.8539 53.5849 96.8156 53.5603 96.7725 53.5519C96.7294 53.5436 96.6847 53.5522 96.6477 53.5759L96.0073 54.0108C95.9714 54.0363 95.9465 54.0746 95.9379 54.118C95.9293 54.1613 95.9375 54.2064 95.961 54.2438L96.3575 54.8564C96.3821 54.893 96.4196 54.9187 96.4623 54.9283C96.5051 54.9379 96.5499 54.9307 96.5876 54.9082L97.264 54.4802C97.2829 54.4677 97.2991 54.4515 97.3118 54.4327C97.3244 54.4138 97.3332 54.3926 97.3377 54.3703C97.3421 54.348 97.3422 54.3251 97.3378 54.3028C97.3334 54.2805 97.3247 54.2592 97.3121 54.2403Z" fill="#464A5F"/>
<path d="M96.0885 55.0914L95.6507 54.4736C95.6248 54.4376 95.586 54.413 95.5425 54.4049C95.499 54.3969 95.4541 54.4061 95.4172 54.4305L94.7922 54.8619C94.756 54.8871 94.7308 54.9254 94.7218 54.9687C94.7129 55.0121 94.7209 55.0572 94.7441 55.0949L95.1407 55.7075C95.1653 55.7445 95.2031 55.7705 95.2463 55.7801C95.2895 55.7898 95.3347 55.7823 95.3725 55.7592L96.049 55.333C96.0674 55.3198 96.0831 55.303 96.095 55.2837C96.107 55.2644 96.1151 55.2429 96.1187 55.2205C96.1224 55.198 96.1216 55.175 96.1164 55.1529C96.1112 55.1307 96.1017 55.1099 96.0885 55.0914Z" fill="#464A5F"/>
<path d="M94.8648 55.942L94.4322 55.3224C94.4064 55.2868 94.3679 55.2625 94.3248 55.2545C94.2818 55.2465 94.2372 55.2553 94.2004 55.2792L93.5601 55.7124C93.5241 55.7379 93.4993 55.7763 93.4906 55.8196C93.482 55.863 93.4903 55.908 93.5137 55.9454L93.9103 56.5581C93.9348 56.5946 93.9723 56.6204 94.0151 56.63C94.0579 56.6396 94.1027 56.6324 94.1403 56.6099L94.8168 56.1836C94.8359 56.1711 94.8523 56.1548 94.8651 56.1358C94.8779 56.1168 94.8868 56.0954 94.8913 56.0729C94.8958 56.0504 94.8957 56.0273 94.8912 56.0048C94.8866 55.9823 94.8777 55.9609 94.8648 55.942Z" fill="#464A5F"/>
<path d="M93.6974 56.8703L93.1601 56.1008C93.1542 56.0922 93.1467 56.0848 93.138 56.0791C93.1293 56.0734 93.1196 56.0694 93.1094 56.0675C93.0992 56.0656 93.0887 56.0657 93.0785 56.0679C93.0684 56.07 93.0587 56.0742 93.0502 56.0801L92.2639 56.6132C92.2467 56.6248 92.2348 56.6427 92.2306 56.663C92.2265 56.6833 92.2304 56.7045 92.2415 56.722L92.7343 57.4846C92.74 57.4934 92.7474 57.5009 92.756 57.5068C92.7646 57.5127 92.7743 57.5167 92.7846 57.5188C92.7948 57.5209 92.8053 57.5209 92.8155 57.5189C92.8258 57.5169 92.8355 57.5129 92.8442 57.507L93.6734 56.9894C93.6835 56.9839 93.6923 56.9762 93.6991 56.9669C93.706 56.9575 93.7107 56.9468 93.713 56.9355C93.7153 56.9242 93.7151 56.9124 93.7124 56.9012C93.7097 56.8899 93.7046 56.8794 93.6974 56.8703Z" fill="#464A5F"/>
<path d="M92.614 57.6253L92.0766 56.8555C92.0709 56.847 92.0636 56.8396 92.0551 56.834C92.0465 56.8283 92.0369 56.8243 92.0269 56.8224C92.0168 56.8205 92.0065 56.8206 91.9964 56.8227C91.9864 56.8249 91.9769 56.829 91.9685 56.8348L91.1873 57.3664C91.1701 57.3783 91.1581 57.3965 91.154 57.4171C91.1498 57.4377 91.1538 57.4591 91.165 57.4769L91.6577 58.238C91.6693 58.2551 91.6869 58.2672 91.707 58.2717C91.7271 58.2761 91.7482 58.2727 91.7659 58.2621L92.5968 57.7444C92.6064 57.7382 92.6146 57.7301 92.6208 57.7205C92.6269 57.7109 92.631 57.7001 92.6326 57.6888C92.6342 57.6775 92.6334 57.6659 92.6302 57.655C92.627 57.644 92.6215 57.6339 92.614 57.6253Z" fill="#464A5F"/>
<path d="M91.4009 58.4692L90.8635 57.6975C90.8512 57.6807 90.8328 57.6694 90.8124 57.6658C90.7919 57.6623 90.7709 57.6668 90.7536 57.6785L89.9691 58.2102C89.9518 58.2221 89.9399 58.2403 89.9357 58.2609C89.9315 58.2815 89.9355 58.303 89.9467 58.3207L90.4395 59.082C90.4507 59.0995 90.4684 59.1119 90.4886 59.1164C90.5089 59.1209 90.5301 59.1173 90.5476 59.1062L91.3786 58.5883C91.3886 58.5826 91.3972 58.5748 91.4039 58.5654C91.4105 58.556 91.4151 58.5453 91.4172 58.5339C91.4193 58.5226 91.419 58.5109 91.4162 58.4997C91.4133 58.4886 91.4081 58.4781 91.4009 58.4692Z" fill="#464A5F"/>
<path d="M90.2276 59.2858L89.6902 58.516C89.6844 58.5073 89.6769 58.5 89.6682 58.4942C89.6595 58.4885 89.6498 58.4846 89.6396 58.4827C89.6294 58.4808 89.6189 58.4809 89.6087 58.483C89.5985 58.4852 89.5889 58.4893 89.5804 58.4952L88.7958 59.0286C88.7871 59.0342 88.7796 59.0415 88.7738 59.05C88.768 59.0585 88.7639 59.0681 88.7618 59.0783C88.7598 59.0884 88.7597 59.0988 88.7617 59.109C88.7637 59.1191 88.7677 59.1288 88.7734 59.1374L89.2662 59.9003C89.2717 59.909 89.279 59.9165 89.2874 59.9224C89.2959 59.9282 89.3055 59.9323 89.3156 59.9344C89.3256 59.9365 89.336 59.9365 89.3461 59.9345C89.3562 59.9325 89.3658 59.9285 89.3743 59.9228L90.2053 59.4049C90.215 59.399 90.2235 59.3911 90.23 59.3817C90.2365 59.3723 90.2409 59.3616 90.243 59.3504C90.2451 59.3391 90.2448 59.3276 90.2422 59.3164C90.2395 59.3053 90.2346 59.2949 90.2276 59.2858Z" fill="#464A5F"/>
<path d="M89.8582 61.2721L89.3208 60.5006C89.3084 60.4838 89.2901 60.4725 89.2697 60.4689C89.2492 60.4654 89.2282 60.4699 89.2109 60.4816L88.4246 61.0132C88.4074 61.0251 88.3954 61.0433 88.3913 61.0639C88.3871 61.0845 88.3911 61.106 88.4023 61.1237L88.895 61.8849C88.9066 61.902 88.9242 61.9141 88.9443 61.9186C88.9645 61.9231 88.9855 61.9197 89.0032 61.9091L89.8341 61.3912C89.8445 61.3859 89.8535 61.3783 89.8605 61.369C89.8676 61.3597 89.8724 61.349 89.8747 61.3375C89.877 61.3261 89.8767 61.3142 89.8739 61.3029C89.871 61.2916 89.8656 61.2811 89.8582 61.2721Z" fill="#464A5F"/>
<path d="M88.6818 62.0888L88.1444 61.319C88.1386 61.3104 88.1311 61.303 88.1224 61.2973C88.1137 61.2916 88.104 61.2877 88.0938 61.2858C88.0835 61.2839 88.0731 61.284 88.0629 61.2861C88.0527 61.2883 88.0431 61.2924 88.0345 61.2983L87.2482 61.8316C87.2311 61.8432 87.2192 61.8611 87.215 61.8814C87.2108 61.9017 87.2147 61.9229 87.2259 61.9403L87.7186 62.7014C87.7242 62.7103 87.7315 62.718 87.7401 62.7241C87.7486 62.7301 87.7583 62.7344 87.7685 62.7366C87.7788 62.7389 87.7893 62.7391 87.7996 62.7372C87.8099 62.7353 87.8197 62.7313 87.8285 62.7256L88.6578 62.2079C88.6681 62.2025 88.6771 62.195 88.6842 62.1857C88.6912 62.1764 88.696 62.1656 88.6983 62.1541C88.7006 62.1427 88.7004 62.1309 88.6975 62.1196C88.6946 62.1082 88.6893 62.0977 88.6818 62.0888Z" fill="#464A5F"/>
<path d="M90.5252 57.2001L90.0187 56.4735C90.0025 56.451 89.9782 56.4357 89.951 56.4308C89.9237 56.426 89.8957 56.432 89.8728 56.4476L89.126 56.9499C89.103 56.9656 89.0871 56.9898 89.0817 57.0172C89.0762 57.0447 89.0816 57.0731 89.0968 57.0966L89.5604 57.8146C89.5758 57.8379 89.5997 57.8543 89.627 57.8601C89.6543 57.8659 89.6828 57.8607 89.7063 57.8456L90.4891 57.3503C90.5017 57.3432 90.5127 57.3336 90.5214 57.322C90.5302 57.3105 90.5364 57.2972 90.5398 57.2831C90.5432 57.269 90.5436 57.2544 90.5411 57.2401C90.5386 57.2258 90.5332 57.2122 90.5252 57.2001Z" fill="#464A5F"/>
<path d="M89.351 58.0148L88.8446 57.2899C88.8368 57.2784 88.8269 57.2686 88.8153 57.261C88.8038 57.2534 88.7909 57.2482 88.7773 57.2456C88.7637 57.243 88.7498 57.2432 88.7363 57.246C88.7228 57.2489 88.71 57.2544 88.6986 57.2623L87.9569 57.7662C87.9341 57.7817 87.9182 57.8056 87.9127 57.8327C87.9073 57.8598 87.9127 57.8881 87.9277 57.9112L88.3913 58.6292C88.4067 58.6525 88.4305 58.6689 88.4577 58.675C88.4849 58.6811 88.5134 58.6765 88.5372 58.662L89.3219 58.1667C89.3338 58.1587 89.344 58.1484 89.3519 58.1364C89.3598 58.1244 89.3653 58.111 89.368 58.0968C89.3707 58.0827 89.3706 58.0682 89.3677 58.0541C89.3648 58.04 89.3591 58.0266 89.351 58.0148Z" fill="#464A5F"/>
<path d="M88.1757 58.8332L87.6606 58.1065C87.6447 58.0841 87.6207 58.0689 87.5937 58.064C87.5668 58.0592 87.539 58.0651 87.5164 58.0806L86.773 58.5829C86.75 58.5987 86.7341 58.6229 86.7286 58.6503C86.7232 58.6777 86.7286 58.7062 86.7438 58.7297L87.2073 59.4477C87.2228 59.4711 87.2467 59.4875 87.274 59.4933C87.3013 59.4991 87.3298 59.4939 87.3533 59.4788L88.1379 58.9834C88.1506 58.9765 88.1618 58.967 88.1707 58.9555C88.1796 58.944 88.186 58.9308 88.1895 58.9167C88.1931 58.9025 88.1937 58.8878 88.1913 58.8735C88.1889 58.8591 88.1836 58.8454 88.1757 58.8332Z" fill="#464A5F"/>
<path d="M87.0201 59.6734L86.4827 58.9021C86.4704 58.8853 86.452 58.874 86.4316 58.8704C86.4111 58.8669 86.3901 58.8714 86.3728 58.8831L85.5865 59.4146C85.5696 59.4267 85.558 59.445 85.5541 59.4656C85.5503 59.4862 85.5545 59.5075 85.5659 59.525L86.0587 60.286C86.0699 60.3035 86.0876 60.3158 86.1078 60.3203C86.1281 60.3249 86.1492 60.3212 86.1668 60.3102L86.9978 59.7925C87.0078 59.7868 87.0164 59.779 87.023 59.7696C87.0297 59.7602 87.0343 59.7495 87.0364 59.7381C87.0385 59.7268 87.0382 59.7151 87.0353 59.704C87.0325 59.6928 87.0273 59.6824 87.0201 59.6734Z" fill="#464A5F"/>
<path d="M100.916 51.7121L100.457 51.0458C100.431 51.0101 100.392 50.9858 100.349 50.9781C100.305 50.9704 100.26 50.9798 100.224 51.0044L98.397 52.2834C98.3618 52.3091 98.3376 52.3472 98.3293 52.3902C98.321 52.4331 98.3293 52.4776 98.3523 52.5147L98.7919 53.1947C98.8045 53.2135 98.8207 53.2297 98.8395 53.2422C98.8583 53.2548 98.8794 53.2634 98.9016 53.2678C98.9237 53.2721 98.9465 53.272 98.9687 53.2674C98.9908 53.2629 99.0118 53.254 99.0305 53.2413L100.873 51.9451C100.908 51.9191 100.932 51.8805 100.94 51.8371C100.948 51.7938 100.939 51.7491 100.916 51.7121Z" fill="#464A5F"/>
<path d="M89.0497 60.0776L88.4797 59.2683C88.4738 59.2596 88.4663 59.2522 88.4576 59.2465C88.4488 59.2409 88.439 59.237 88.4288 59.2353C88.4185 59.2335 88.408 59.2338 88.3979 59.2362C88.3877 59.2386 88.3782 59.2431 88.3698 59.2493L86.4091 60.6298C86.3923 60.6417 86.3807 60.6596 86.3769 60.68C86.373 60.7003 86.3772 60.7213 86.3885 60.7385L86.9259 61.5703C86.9316 61.5793 86.9391 61.587 86.9479 61.593C86.9567 61.5991 86.9666 61.6032 86.977 61.6053C86.9874 61.6074 86.9981 61.6074 87.0085 61.6052C87.0189 61.603 87.0288 61.5988 87.0375 61.5927L89.0308 60.1898C89.048 60.1773 89.0596 60.1586 89.0631 60.1376C89.0666 60.1166 89.0618 60.095 89.0497 60.0776Z" fill="#464A5F"/>
<path d="M95.2871 53.8848L94.7721 53.1168C94.7602 53.0995 94.7421 53.0875 94.7216 53.0833C94.7011 53.0791 94.6798 53.0831 94.6622 53.0944L90.3099 56.0457C90.3013 56.0512 90.2938 56.0585 90.288 56.067C90.2822 56.0756 90.2781 56.0852 90.276 56.0953C90.2739 56.1054 90.2739 56.1159 90.2759 56.126C90.2779 56.1362 90.2819 56.1458 90.2876 56.1544L90.8233 56.9828C90.829 56.9918 90.8365 56.9996 90.8452 57.0056C90.854 57.0116 90.8639 57.0158 90.8743 57.0179C90.8847 57.02 90.8955 57.0199 90.9059 57.0178C90.9163 57.0156 90.9261 57.0113 90.9349 57.0052L95.2751 53.9953C95.2911 53.9821 95.3013 53.9632 95.3035 53.9425C95.3058 53.9219 95.2999 53.9012 95.2871 53.8848Z" fill="#464A5F"/>
<path opacity="0.1" d="M95.307 51.2488L92.9927 47.8677C92.9287 47.7737 92.8303 47.709 92.719 47.6877C92.6078 47.6664 92.4926 47.6901 92.3987 47.7538L86.024 52.0565C85.9771 52.0884 85.9368 52.1293 85.9056 52.1769C85.8744 52.2244 85.8529 52.2777 85.8422 52.3337C85.8315 52.3896 85.8319 52.4472 85.8434 52.503C85.8548 52.5587 85.8771 52.6117 85.909 52.6588L88.2679 56.1366C88.2997 56.1838 88.3404 56.2243 88.3877 56.2556C88.4351 56.2869 88.4882 56.3085 88.5439 56.3191C88.5996 56.3297 88.6569 56.3291 88.7123 56.3173C88.7678 56.3055 88.8204 56.2828 88.8671 56.2505L95.1971 51.8477C95.2436 51.8157 95.2832 51.7748 95.3139 51.7273C95.3446 51.6799 95.3656 51.6268 95.3758 51.5712C95.386 51.5155 95.3852 51.4584 95.3734 51.4031C95.3616 51.3477 95.339 51.2953 95.307 51.2488Z" fill="black"/>
<path d="M95.4141 51.2693L93.0998 47.8883C93.0355 47.7947 92.9371 47.7303 92.826 47.709C92.7148 47.6877 92.5998 47.7111 92.5057 47.7744L86.1396 52.0804C86.0924 52.1121 86.0518 52.1528 86.0203 52.2003C85.9888 52.2478 85.967 52.3011 85.9562 52.3571C85.9453 52.4131 85.9456 52.4707 85.9571 52.5266C85.9685 52.5826 85.9909 52.6356 86.0229 52.6828L88.375 56.157C88.4067 56.2042 88.4474 56.2447 88.4948 56.276C88.5422 56.3073 88.5952 56.3289 88.6509 56.3395C88.7067 56.3501 88.7639 56.3495 88.8194 56.3377C88.8749 56.3259 88.9275 56.3032 88.9742 56.2709L95.3076 51.8681C95.3538 51.8359 95.3932 51.7948 95.4235 51.7472C95.4538 51.6996 95.4745 51.6465 95.4844 51.5909C95.4943 51.5353 95.4932 51.4782 95.4811 51.423C95.469 51.3678 95.4463 51.3156 95.4141 51.2693Z" fill="#939498"/>
<path d="M109.764 56.7359L104.854 55.0894L89.1055 66.087L93.9796 67.6835C94.1111 67.7266 94.2507 67.7384 94.3874 67.7181C94.5242 67.6977 94.6543 67.6457 94.7677 67.5661L109.809 57.0517C109.838 57.0344 109.862 57.0087 109.877 56.9779C109.891 56.9471 109.897 56.9126 109.892 56.8788C109.887 56.845 109.872 56.8134 109.85 56.7879C109.827 56.7625 109.797 56.7444 109.764 56.7359Z" fill="#FFD801"/>
</svg>
