<svg width="32" height="20" viewBox="0 0 32 20" fill="none" xmlns="http://www.w3.org/2000/svg">
<path d="M5.9555 13.7546C5.67836 14.3112 5.42219 14.8235 5.17067 15.3359C5.08217 15.5152 4.96805 15.6689 4.76311 15.7155C4.55817 15.7621 4.37885 15.6945 4.2461 15.5338C4.09472 15.3499 4.09239 15.1449 4.19952 14.9353C4.56283 14.211 4.92381 13.4868 5.28478 12.7601C5.34766 12.6367 5.40588 12.511 5.46876 12.3875C5.56891 12.1919 5.71795 12.0708 5.94619 12.0638C6.18839 12.0591 6.34442 12.1896 6.44922 12.3945C6.62156 12.7322 6.79157 13.0699 6.9872 13.4588C7.45297 12.5203 7.89313 11.6353 8.33329 10.7503C8.40549 10.6083 8.4707 10.4615 8.54289 10.3195C8.64303 10.1262 8.78742 9.99576 9.01798 9.9911C9.25786 9.98644 9.41855 10.1052 9.52568 10.3148C10.2872 11.8426 11.0534 13.3657 11.8126 14.8934C11.9803 15.2311 11.8988 15.5175 11.617 15.6643C11.3376 15.8086 11.0558 15.7015 10.8857 15.3615C10.3338 14.2669 9.78884 13.1677 9.23923 12.0685C9.18333 11.959 9.12511 11.8495 9.0436 11.6982C8.79674 12.1872 8.57084 12.6297 8.34959 13.0745C7.786 14.2017 7.22707 15.3289 6.66348 16.4537C6.49813 16.7821 6.24195 16.8939 5.96249 16.7775C5.66905 16.654 5.55726 16.3699 5.70165 16.0602C5.88098 15.6736 6.06962 15.2893 6.27456 14.9167C6.38169 14.7211 6.40265 14.5557 6.27689 14.3601C6.16044 14.1877 6.07893 13.9921 5.9555 13.7546Z" fill="white"/>
<path d="M7.50218 9.50472C7.49985 10.3619 6.81036 11.0398 5.94617 11.0328C5.08663 11.0281 4.41345 10.341 4.41578 9.47443C4.41811 8.61723 5.1076 7.94172 5.97412 7.94637C6.82899 7.95103 7.50218 8.63586 7.50218 9.50472Z" fill="white"/>
<path d="M12.7148 10.0592C12.6984 10.3014 12.6029 10.4668 12.4119 10.5483C12.2139 10.6322 12.009 10.6275 11.8482 10.4622C11.769 10.3806 11.7061 10.2758 11.6526 10.1733C11.2496 9.41395 10.6719 8.83161 9.90787 8.43562C9.84265 8.40068 9.7751 8.36807 9.71453 8.32381C9.48393 8.15376 9.42336 7.88123 9.5608 7.64131C9.6959 7.40138 9.96145 7.30355 10.22 7.42933C11.3218 7.95577 12.1324 8.77803 12.6612 9.87749C12.6915 9.94271 12.7008 10.0173 12.7148 10.0592Z" fill="white"/>
<path d="M13.1609 12.0732C13.1562 12.3737 12.9233 12.5904 12.6205 12.5764C12.3339 12.5647 12.129 12.3411 12.1336 12.0523C12.1383 11.7518 12.3712 11.5352 12.674 11.5491C12.9582 11.5608 13.1655 11.7844 13.1609 12.0732Z" fill="white"/>
<path d="M29.8454 7.25283C28.6553 5.92742 26.9832 5.04693 25.1038 4.8862C25.1434 4.90018 25.1923 4.91182 25.2458 4.91881C27.0856 5.13078 28.6926 5.981 29.8454 7.25283Z" fill="white"/>
<path d="M31.3635 9.91891C31.3658 9.92589 31.3682 9.93286 31.3705 9.94216C31.3682 9.93286 31.3658 9.92589 31.3635 9.91891Z" fill="white"/>
<path d="M23.1078 19.1385C23.073 19.1317 23.0358 19.1248 23.001 19.118C23.0381 19.1248 23.073 19.1317 23.1078 19.1385Z" fill="white"/>
<path d="M31.21 9.48575C31.2262 9.52763 31.2425 9.57184 31.2588 9.61373C31.2449 9.57184 31.2286 9.52996 31.21 9.48575Z" fill="white"/>
<path d="M23.4909 19.2014C23.4422 19.1945 23.3934 19.1877 23.3447 19.1809C23.3934 19.1877 23.4422 19.1945 23.4909 19.2014Z" fill="white"/>
<path d="M22.7146 19.0503C22.7005 19.0457 22.684 19.0434 22.6699 19.0388C22.684 19.0434 22.7005 19.048 22.7146 19.0503Z" fill="white"/>
<path d="M23.8683 19.2412C23.8124 19.2366 23.7541 19.232 23.6982 19.2252C23.7541 19.232 23.8124 19.2366 23.8683 19.2412Z" fill="white"/>
<path d="M17.7303 14.5814C17.707 14.5208 17.686 14.4579 17.665 14.3974C17.686 14.4579 17.707 14.5208 17.7303 14.5814Z" fill="white"/>
<path d="M30.3145 7.83456C30.3726 7.91367 30.4308 7.99742 30.4843 8.07885C30.4308 7.9951 30.3726 7.91367 30.3145 7.83456Z" fill="white"/>
<path d="M30.9436 8.87555C30.9668 8.92427 30.99 8.97068 31.0132 9.0194C30.99 8.97068 30.9668 8.92195 30.9436 8.87555Z" fill="white"/>
<path d="M29.9133 7.33154C29.9946 7.42444 30.0736 7.52197 30.1502 7.61951C30.0759 7.52197 29.9969 7.42676 29.9133 7.33154Z" fill="white"/>
<path d="M30.6306 8.30502C30.6632 8.35854 30.6934 8.41206 30.726 8.46559C30.6934 8.41439 30.6632 8.35854 30.6306 8.30502Z" fill="white"/>
<path d="M25.3055 19.2228C25.2636 19.2274 25.2194 19.2319 25.1775 19.2365C25.2217 19.2319 25.2636 19.2274 25.3055 19.2228Z" fill="white"/>
<path d="M24.4817 19.2693C24.5236 19.2693 24.5679 19.2671 24.6098 19.2671C24.5492 19.2671 24.4863 19.2693 24.4258 19.2693C24.4444 19.2693 24.4631 19.2693 24.4817 19.2693Z" fill="white"/>
<path d="M24.9743 19.2508C24.916 19.2553 24.8578 19.2576 24.7996 19.2622C24.8578 19.2599 24.916 19.2553 24.9743 19.2508Z" fill="white"/>
<path d="M24.2399 19.2646C24.1793 19.2623 24.1188 19.26 24.0605 19.2577C24.1188 19.26 24.1793 19.2623 24.2399 19.2646Z" fill="white"/>
<path d="M25.5888 19.1855C25.5837 19.1855 25.5812 19.1881 25.5762 19.1881C25.5812 19.1881 25.5837 19.1855 25.5888 19.1855Z" fill="white"/>
<path d="M17.3557 13.1258C17.4139 13.5264 17.5071 13.9131 17.6282 14.2904C17.5188 13.9457 17.4326 13.5846 17.3743 13.2143C17.3697 13.1817 17.3627 13.1537 17.3557 13.1258Z" fill="white"/>
<path d="M17.6634 14.3971C17.652 14.3622 17.6406 14.3274 17.6292 14.2902C17.6383 14.3251 17.652 14.3599 17.6634 14.3971Z" fill="white"/>
<path d="M25.5747 19.1879C25.4864 19.2015 25.3959 19.2107 25.3076 19.2221C25.3959 19.2107 25.4841 19.2015 25.5747 19.1879Z" fill="white"/>
<path d="M29.8457 7.25235C29.8691 7.27805 29.8924 7.30608 29.9134 7.33178C29.8924 7.30608 29.8691 7.28038 29.8457 7.25235Z" fill="white"/>
<path d="M25.1788 19.2368C25.1112 19.2436 25.0412 19.2482 24.9736 19.2528C25.0436 19.2459 25.1112 19.2413 25.1788 19.2368Z" fill="white"/>
<path d="M23.3453 19.1809C23.2662 19.1692 23.1871 19.1529 23.1104 19.139C23.1871 19.1529 23.2662 19.1669 23.3453 19.1809Z" fill="white"/>
<path d="M23.0024 19.1178C22.9072 19.0969 22.8097 19.076 22.7168 19.0528C22.8097 19.0737 22.9049 19.0969 23.0024 19.1178Z" fill="white"/>
<path d="M24.058 19.2575C23.9927 19.2529 23.9298 19.2483 23.8669 19.2438C23.9322 19.2483 23.9951 19.2529 24.058 19.2575Z" fill="white"/>
<path d="M24.799 19.2624C24.7361 19.2647 24.6732 19.267 24.6104 19.267C24.6732 19.267 24.7361 19.2647 24.799 19.2624Z" fill="white"/>
<path d="M23.6964 19.227C23.6264 19.2202 23.5588 19.211 23.4912 19.2018C23.5588 19.211 23.6288 19.2202 23.6964 19.227Z" fill="white"/>
<path d="M24.426 19.2693C24.3631 19.2693 24.3002 19.267 24.2373 19.2647C24.3025 19.267 24.3631 19.2693 24.426 19.2693Z" fill="white"/>
<path d="M30.1533 7.6203C30.2093 7.69024 30.2629 7.76251 30.3142 7.83478C30.2629 7.76251 30.2093 7.69024 30.1533 7.6203Z" fill="white"/>
<path d="M22.8609 5.04456C22.5814 5.10745 22.3112 5.18665 22.0457 5.28215C22.3089 5.18665 22.5814 5.10745 22.8609 5.04456Z" fill="white"/>
<path d="M21.5476 5.48471C21.5104 5.501 21.4708 5.51961 21.4336 5.5359C21.4708 5.51729 21.5104 5.501 21.5476 5.48471Z" fill="white"/>
<path d="M21.9879 5.30307C21.9088 5.33332 21.832 5.36356 21.7529 5.39613C21.8297 5.36356 21.9088 5.33332 21.9879 5.30307Z" fill="white"/>
<path d="M18.3566 8.27008C18.3473 8.28426 18.3403 8.29608 18.3311 8.31027C18.3403 8.29608 18.3496 8.2819 18.3566 8.27008Z" fill="white"/>
<path d="M31.6073 10.9413C31.5514 10.5966 31.4676 10.2636 31.3674 9.93988C31.5747 10.6106 31.6865 11.3232 31.6865 12.0638C31.6865 15.6666 29.0409 18.6522 25.5872 19.1855C25.6803 19.1716 25.7758 19.1576 25.869 19.139C29.6487 18.4287 32.2245 14.749 31.6073 10.9413Z" fill="white"/>
<path d="M18.1475 8.63099C17.6584 9.51597 17.372 10.4731 17.2858 11.5048C17.2741 11.6516 17.2741 11.7494 17.0808 11.6865C16.4683 11.4815 15.8582 11.5537 15.262 11.7261C14.8894 8.53085 13.2987 6.3254 10.2782 5.22384C9.82637 5.05849 9.35593 4.95369 8.87385 4.92108C8.67357 4.90711 8.63864 4.83492 8.73878 4.66491C9.07181 4.092 9.57252 3.8335 10.2269 3.8335C14.2466 3.8335 18.2639 3.8335 22.2836 3.8335C22.4443 3.8335 22.6026 3.8498 22.761 3.88706C23.2058 3.98953 23.5225 4.24804 23.7624 4.62765C23.8672 4.793 23.8462 4.86985 23.7112 4.90478C23.965 4.87684 24.2235 4.86286 24.4867 4.86286C24.6963 4.86286 24.9036 4.87451 25.1085 4.89081C24.9851 4.84423 24.9199 4.75573 24.8686 4.59504C24.6008 3.75431 24.0349 3.20004 23.1942 2.91825C22.8728 2.81112 22.5444 2.7855 22.2137 2.80879C21.9925 2.82276 21.8574 2.78783 21.9133 2.52466C21.9226 2.48274 21.9109 2.4385 21.9156 2.39658C21.9901 1.49996 21.2169 0.701149 20.2435 0.731424C18.916 0.773344 17.5862 0.74074 16.2564 0.74074C14.9173 0.74074 13.5759 0.74074 12.2368 0.74074C11.2284 0.74074 10.5902 1.3742 10.5879 2.37562C10.5879 2.79714 10.5879 2.79947 10.1431 2.79947C9.01126 2.79947 8.15889 3.30484 7.73736 4.33886C7.55105 4.79533 7.30885 4.87684 6.90362 4.93273C5.75082 5.09109 4.70748 5.54057 3.77127 6.22759C3.49879 6.42787 3.44988 6.70501 3.62222 6.95653C3.78524 7.1964 4.08567 7.24997 4.35815 7.08229C4.43035 7.03804 4.49788 6.98215 4.57008 6.93557C5.94179 6.0273 7.45091 5.68263 9.06482 5.96908C12.5092 6.58391 14.731 9.76982 14.0579 13.2072C13.5619 15.7387 11.9899 17.4016 9.498 18.0141C6.9502 18.6405 4.76338 17.858 3.13316 15.7877C1.44472 13.6451 1.42143 10.7759 2.98178 8.49359C3.22165 8.14193 3.20535 7.83918 2.9352 7.64821C2.66738 7.45724 2.37161 7.54341 2.12708 7.8974C0.925375 9.64639 0.529465 11.5631 0.983598 13.6334C1.822 17.4481 5.56917 19.8353 9.33265 19.1459C12.3276 18.5963 14.8148 16.0229 15.1479 13.0116C15.1688 12.823 15.2457 12.7578 15.4134 12.7275C15.8838 12.6437 16.3426 12.5621 16.834 12.6833C17.1297 12.7554 17.2811 12.8183 17.3533 13.1257C17.3021 12.7787 17.2741 12.4247 17.2741 12.0638C17.2765 10.8201 17.5909 9.65105 18.1475 8.63099Z" fill="white"/>
<path d="M17.7302 14.5813C18.5523 16.824 20.4201 18.4612 22.6721 19.0411C20.3875 18.4496 18.543 16.7658 17.7302 14.5813Z" fill="white"/>
<path d="M23.1725 4.97934C23.1607 4.9817 23.1489 4.98405 23.1348 4.98641C23.1489 4.98405 23.1607 4.9817 23.1725 4.97934Z" fill="white"/>
<path d="M31.2617 9.61383C31.2989 9.71369 31.3314 9.81587 31.3639 9.91806C31.3314 9.81587 31.2966 9.71369 31.2617 9.61383Z" fill="white"/>
<path d="M30.4863 8.0791C30.5352 8.15355 30.584 8.23033 30.6329 8.30711C30.584 8.228 30.5352 8.15355 30.4863 8.0791Z" fill="white"/>
<path d="M31.0146 9.01996C31.0868 9.17121 31.1519 9.32712 31.2124 9.48536C31.1496 9.32712 31.0845 9.17121 31.0146 9.01996Z" fill="white"/>
<path d="M30.7246 8.46802C30.8014 8.60066 30.8759 8.73562 30.9433 8.87524C30.8735 8.73562 30.8014 8.60066 30.7246 8.46802Z" fill="white"/>
<path d="M31.6869 12.0638C31.6869 11.3256 31.5751 10.6129 31.3678 9.93988C31.3655 9.93289 31.3632 9.9259 31.3608 9.91659C31.3282 9.81412 31.2933 9.71165 31.2584 9.61151C31.2421 9.56726 31.2258 9.52534 31.2095 9.48342C31.1489 9.32505 31.0837 9.16902 31.0115 9.01764C30.9882 8.96873 30.9649 8.91983 30.9416 8.87325C30.8741 8.73585 30.7996 8.59844 30.7227 8.46569C30.6924 8.41213 30.6598 8.35624 30.6272 8.305C30.5807 8.22815 30.5318 8.1513 30.4805 8.07677C30.4246 7.99293 30.3687 7.91142 30.3105 7.83224C30.2569 7.76004 30.2034 7.69018 30.1498 7.61798C30.073 7.52017 29.9938 7.42236 29.9123 7.3292C29.889 7.30358 29.868 7.27564 29.8447 7.25002C28.6919 5.97612 27.085 5.12608 25.2452 4.91648C25.1916 4.90949 25.1427 4.90018 25.1031 4.88387C24.8982 4.86524 24.6909 4.85593 24.4813 4.85593C24.2181 4.85593 23.9596 4.8699 23.7058 4.89785C23.6778 4.90483 23.6452 4.91182 23.608 4.91648C23.4613 4.93278 23.3169 4.95374 23.1748 4.97703C23.1632 4.97936 23.1515 4.98169 23.1375 4.98402C23.0444 5.00032 22.9536 5.02128 22.8604 5.04224C22.5809 5.10745 22.3085 5.1843 22.0453 5.27978C22.0267 5.28677 22.0057 5.29376 21.9871 5.30074C21.9079 5.33102 21.831 5.36129 21.7519 5.3939C21.6843 5.42185 21.6145 5.45212 21.5469 5.4824C21.5097 5.4987 21.4701 5.51733 21.4328 5.53363C21.0416 5.71994 20.6643 5.94119 20.301 6.19736C20.0844 6.34874 19.9307 6.53039 20.0122 6.81452C20.1216 7.20111 20.5176 7.3129 20.8855 7.05439C21.6494 6.52108 22.4808 6.16709 23.4007 5.99475C26.5587 5.40321 29.7213 7.43866 30.4689 10.557C31.3259 14.1272 29.0692 17.5344 25.4362 18.1562C22.2153 18.7081 18.9968 16.4305 18.4262 13.2096C18.1211 11.4886 18.4705 9.92125 19.4602 8.49131C19.6861 8.16294 19.6675 7.85786 19.409 7.67155C19.1389 7.47825 18.8571 7.54812 18.6172 7.88115C18.5264 8.00691 18.4402 8.13732 18.3587 8.26774C18.3494 8.28171 18.3424 8.29336 18.3331 8.30733C18.2679 8.41213 18.2073 8.52159 18.1468 8.62872C17.5925 9.64877 17.2781 10.8202 17.2781 12.0638C17.2781 12.4248 17.306 12.7788 17.3573 13.1258C17.3642 13.1537 17.3712 13.1817 17.3759 13.2143C17.4341 13.5846 17.5203 13.9432 17.6297 14.2902C17.6414 14.3252 17.653 14.3601 17.6647 14.3974C17.6856 14.4602 17.7066 14.5208 17.7299 14.5813C18.545 16.7658 20.3871 18.4496 22.6718 19.0412C22.6857 19.0458 22.702 19.0481 22.716 19.0528C22.8115 19.0761 22.907 19.0994 23.0025 19.118C23.0374 19.125 23.0747 19.132 23.1096 19.139C23.1888 19.1529 23.2656 19.1692 23.3448 19.1809C23.3937 19.1879 23.4426 19.1949 23.4915 19.2018C23.5591 19.2112 23.6289 19.2205 23.6965 19.2275C23.7524 19.2344 23.8106 19.2391 23.8665 19.2438C23.9294 19.2484 23.9946 19.2554 24.0575 19.2577C24.118 19.2601 24.1762 19.2624 24.2368 19.2647C24.2997 19.2671 24.3625 19.2694 24.4254 19.2694C24.486 19.2694 24.5465 19.2694 24.6094 19.2671C24.6723 19.2671 24.7352 19.2647 24.798 19.2624C24.8563 19.2601 24.9145 19.2554 24.9727 19.2507C25.0402 19.2461 25.1101 19.2414 25.1776 19.2344C25.2196 19.2298 25.2638 19.2251 25.3057 19.2205C25.3966 19.2112 25.4851 19.1995 25.5736 19.1855C25.5782 19.1855 25.5805 19.1832 25.5852 19.1832C29.0413 18.6546 31.6869 15.6689 31.6869 12.0638Z" fill="white"/>
<path d="M18.3303 8.30966C18.2653 8.41417 18.2026 8.52099 18.1445 8.63014C18.2049 8.52099 18.2653 8.41417 18.3303 8.30966Z" fill="white"/>
<path d="M23.1367 4.98636C23.0438 5.00494 22.9532 5.02352 22.8604 5.04442C22.9509 5.02352 23.0438 5.00261 23.1367 4.98636Z" fill="white"/>
<path d="M21.7528 5.39621C21.6828 5.42419 21.6152 5.45449 21.5476 5.4848C21.6152 5.45216 21.6828 5.42419 21.7528 5.39621Z" fill="white"/>
<path d="M22.0436 5.2821C22.0249 5.28896 22.004 5.29582 21.9854 5.30268C22.0063 5.29582 22.0249 5.28896 22.0436 5.2821Z" fill="white"/>
<path d="M23.608 4.91879C23.6476 4.91414 23.6778 4.90949 23.7057 4.90018C23.5266 4.91879 23.3497 4.94672 23.1729 4.9793C23.3171 4.9537 23.4614 4.93508 23.608 4.91879Z" fill="white"/>
<path d="M16.2472 2.80205C14.7893 2.80205 13.3338 2.79739 11.8759 2.80671C11.6686 2.80904 11.6081 2.76012 11.6104 2.54582C11.6197 1.9332 11.7688 1.77248 12.3929 1.77248C14.964 1.77248 17.5351 1.77248 20.1062 1.77248C20.7257 1.77248 20.8747 1.93553 20.8864 2.55048C20.891 2.77177 20.8165 2.80904 20.6185 2.80671C19.1607 2.79739 17.7028 2.80205 16.2472 2.80205Z" fill="#213B7E"/>
<path d="M5.9671 10.003C5.70389 10.0076 5.45231 9.76539 5.44766 9.49984C5.44067 9.23662 5.68525 8.98505 5.9508 8.97806C6.21169 8.9734 6.46559 9.21799 6.47257 9.4812C6.4749 9.74442 6.23032 9.99832 5.9671 10.003Z" fill="#213B7E"/>
<path d="M22.4229 13.7499C22.1411 14.3182 21.8919 14.8259 21.6381 15.3312C21.4541 15.6969 21.1886 15.8156 20.8929 15.6713C20.5878 15.5245 20.5179 15.2264 20.7042 14.8515C21.1025 14.0504 21.5077 13.2515 21.9059 12.4481C22.0131 12.2315 22.1528 12.0731 22.409 12.0661C22.6838 12.0592 22.8328 12.2245 22.9423 12.4527C23.0983 12.7765 23.266 13.0932 23.4523 13.4611C23.8529 12.6623 24.2301 11.9148 24.6051 11.1649C24.7448 10.8877 24.8799 10.6106 25.0196 10.3335C25.1175 10.1378 25.2665 10.0121 25.4947 10.0074C25.7369 10.0004 25.8976 10.1285 26.0001 10.3358C26.7616 11.8635 27.5255 13.389 28.2824 14.919C28.4454 15.2497 28.3523 15.5385 28.0588 15.6759C27.784 15.8063 27.5185 15.7015 27.3532 15.3732C26.7989 14.2786 26.2539 13.1794 25.7043 12.0801C25.6484 11.9683 25.5902 11.8589 25.5297 11.7378C25.4062 11.817 25.3829 11.9381 25.334 12.0382C24.6191 13.4588 23.9088 14.8818 23.1985 16.3047C23.1612 16.3816 23.1239 16.4584 23.082 16.5329C22.919 16.8031 22.6651 16.8916 22.402 16.7658C22.1225 16.6331 22.0224 16.3676 22.1598 16.0672C22.3344 15.6899 22.5068 15.3103 22.7164 14.9516C22.8514 14.7187 22.8491 14.5301 22.7071 14.3112C22.6069 14.1552 22.537 13.9758 22.4229 13.7499Z" fill="white"/>
<path d="M22.42 7.94635C23.2818 7.94635 23.9643 8.62652 23.9643 9.48839C23.9643 10.3502 23.2865 11.0328 22.4223 11.0351C21.5604 11.0374 20.8756 10.3549 20.8779 9.49305C20.8803 8.62652 21.5581 7.94635 22.42 7.94635Z" fill="white"/>
<path d="M16.5255 4.85822C17.1567 4.87685 17.8809 5.26119 18.3956 6.0229C18.6122 6.34202 18.568 6.65881 18.3001 6.83584C18.0416 7.00589 17.7668 6.92669 17.5339 6.61455C16.826 5.66184 15.6662 5.66883 14.9535 6.6262C14.7253 6.93135 14.4389 7.00589 14.185 6.82885C13.9288 6.64949 13.8916 6.34901 14.0872 6.0392C14.539 5.3171 15.3704 4.86054 16.5255 4.85822Z" fill="white"/>
<path d="M26.4389 7.37343C26.595 7.3711 26.6882 7.42467 26.7837 7.47359C27.7946 7.99304 28.5586 8.75706 29.0758 9.76801C29.2458 10.1011 29.1713 10.3899 28.8871 10.5344C28.6145 10.6718 28.328 10.5786 28.1696 10.2642C27.741 9.41394 27.1075 8.77803 26.2479 8.3634C25.9894 8.23762 25.9055 8.00934 25.9777 7.74612C26.0453 7.50387 26.2363 7.3874 26.4389 7.37343Z" fill="white"/>
<path d="M29.1031 11.5491C29.392 11.5445 29.6156 11.7518 29.6273 12.0383C29.6389 12.3411 29.4223 12.574 29.1218 12.5787C28.819 12.5834 28.5953 12.3597 28.5977 12.0569C28.6023 11.7681 28.8143 11.5538 29.1031 11.5491Z" fill="white"/>
<path d="M22.4318 8.97806C22.6951 8.98272 22.9396 9.23662 22.935 9.49984C22.928 9.76539 22.6764 10.0076 22.4132 10.003C22.1477 9.99599 21.9031 9.74442 21.9101 9.4812C21.917 9.21566 22.1686 8.9734 22.4318 8.97806Z" fill="#213B7E"/>
</svg>
