<svg width="24" height="31" viewBox="0 0 24 31" fill="none" xmlns="http://www.w3.org/2000/svg">
<g clip-path="url(#clip0_3856_3732)">
<path d="M6.96598 9.09629C5.54566 9.09629 4.39014 7.94076 4.39014 6.52045C4.53164 3.1032 9.4009 3.1042 9.54188 6.52045C9.54188 7.94076 8.38629 9.09629 6.96598 9.09629ZM6.96598 5.23361C6.25646 5.23361 5.6792 5.81088 5.6792 6.52039C5.74992 8.22752 8.18238 8.22699 8.25281 6.52039C8.25281 5.81088 7.67555 5.23361 6.96598 5.23361Z" fill="white"/>
<path d="M6.96589 17.9673C6.73766 17.9673 6.52626 17.8465 6.41048 17.6498L1.82757 9.86632C1.21151 8.82024 0.88784 7.62428 0.891883 6.41022C0.891883 3.03727 3.636 0.293152 7.00889 0.293152C11.944 0.300828 14.7066 5.7671 12.1663 9.88378C12.1664 9.88378 7.51901 17.6537 7.51901 17.6537C7.40264 17.8482 7.19253 17.9673 6.96589 17.9673ZM7.00895 1.58221C4.33884 1.58145 2.16788 3.76296 2.18095 6.43296C2.18095 7.4096 2.44286 8.37071 2.93839 9.21229L6.97028 16.0599L11.0602 9.22202C11.5684 8.37247 11.837 7.40016 11.837 6.41022C11.8369 3.74807 9.6711 1.58221 7.00895 1.58221Z" fill="white"/>
<path d="M20.7611 24.3204C19.3075 24.3204 18.1 25.3937 17.8892 26.7894H5.06083C3.97257 26.7894 3.08722 25.904 3.08722 24.8158C3.08722 23.7275 3.97257 22.8422 5.06083 22.8422H13.1363C17.2227 22.6742 17.2258 16.8477 13.1363 16.6782H8.10308L7.51966 17.6536C7.40563 17.8443 7.20144 17.9617 6.98001 17.9663C6.97966 17.9666 6.97936 17.9669 6.97901 17.9672H13.1362C15.5133 18.0652 15.5155 21.4542 13.1362 21.553H5.06077C3.26171 21.553 1.7981 23.0167 1.7981 24.8157C1.7981 26.6148 3.26171 28.0784 5.06077 28.0784H17.9846C19.019 31.2211 23.5865 30.5709 23.6655 27.2249C23.6656 25.6234 22.3626 24.3204 20.7611 24.3204ZM20.7611 28.8404C19.8703 28.8404 19.1456 28.1157 19.1456 27.225C19.2343 25.0819 22.2882 25.0824 22.3766 27.225C22.3765 28.1157 21.6518 28.8404 20.7611 28.8404Z" fill="white"/>
</g>
<defs>
<clipPath id="clip0_3856_3732">
<rect width="23" height="30" fill="white" transform="translate(0.75 0.0576172)"/>
</clipPath>
</defs>
</svg>
