<svg width="27" height="26" viewBox="0 0 27 26" fill="none" xmlns="http://www.w3.org/2000/svg">
<path d="M23.4742 17.1445H22.7393V8.69348H23.1068C24.3226 8.69348 25.3114 7.7047 25.3114 6.48885V2.07961C25.3114 1.87678 25.1468 1.71217 24.944 1.71217C24.7411 1.71217 24.5765 1.87678 24.5765 2.07961V4.65167C24.5765 5.25941 24.0819 5.75398 23.4742 5.75398C22.8665 5.75398 22.3719 5.25941 22.3719 4.65167V2.07961C22.3719 1.87678 22.2073 1.71217 22.0045 1.71217C21.8016 1.71217 21.637 1.87678 21.637 2.07961V4.65167C21.637 5.25941 21.1424 5.75398 20.5347 5.75398C19.927 5.75398 19.4324 5.25941 19.4324 4.65167V2.07961C19.4324 1.87678 19.2678 1.71217 19.065 1.71217C18.8621 1.71217 18.6975 1.87678 18.6975 2.07961V6.48885C18.6975 7.7047 19.6863 8.69348 20.9021 8.69348H21.2696V13.8376H20.5347V9.40556C19.087 9.22405 17.9626 7.98506 17.9626 6.48885V2.07961C17.9626 1.47187 18.4572 0.977295 19.065 0.977295C19.6727 0.977295 20.1673 1.47187 20.1673 2.07961V4.65167C20.1673 4.85449 20.3319 5.0191 20.5347 5.0191C20.7375 5.0191 20.9021 4.85449 20.9021 4.65167V2.07961C20.9021 1.47187 21.3967 0.977295 22.0045 0.977295C22.6122 0.977295 23.1068 1.47187 23.1068 2.07961V4.65167C23.1068 4.85449 23.2714 5.0191 23.4742 5.0191C23.677 5.0191 23.8416 4.85449 23.8416 4.65167V2.07961C23.8416 1.47187 24.3362 0.977295 24.944 0.977295C25.5517 0.977295 26.0463 1.47187 26.0463 2.07961V6.48885C26.0463 7.98506 24.9219 9.22405 23.4742 9.40556V17.1445Z" fill="white"/>
<path d="M3.18414 22.3966C2.94254 22.3966 2.74646 22.5927 2.74646 22.8343V23.7097C2.74646 23.9513 2.94254 24.1473 3.18414 24.1473H23.3175C23.5591 24.1473 23.7552 23.9513 23.7552 23.7097V22.8343C23.7552 22.5927 23.5591 22.3966 23.3175 22.3966H3.18414ZM23.3175 25.0227H3.18414C2.46021 25.0227 1.87109 24.4336 1.87109 23.7097V22.8343C1.87109 22.1104 2.46021 21.5212 3.18414 21.5212H23.3175C24.0415 21.5212 24.6306 22.1104 24.6306 22.8343V23.7097C24.6306 24.4336 24.0415 25.0227 23.3175 25.0227Z" fill="white"/>
<path d="M23.3189 20.6465H22.4436C22.4436 16.3025 18.9093 12.7682 14.5653 12.7682H11.9392C7.5952 12.7682 4.06091 16.3025 4.06091 20.6465H3.18555C3.18555 15.8197 7.11243 11.8928 11.9392 11.8928H14.5653C19.3921 11.8928 23.3189 15.8197 23.3189 20.6465Z" fill="white"/>
<path d="M17.6287 12.7681H16.7533V9.70429C16.7533 9.46269 16.5572 9.26661 16.3156 9.26661H10.188C9.94645 9.26661 9.75037 9.46269 9.75037 9.70429V12.7681H8.875V9.70429C8.875 8.98036 9.46412 8.39124 10.188 8.39124H16.3156C17.0395 8.39124 17.6287 8.98036 17.6287 9.70429V12.7681Z" fill="white"/>
<path d="M15.8772 12.3296H15.0018V11.0165H11.5004V12.3296H10.625V10.1412H15.8772V12.3296Z" fill="white"/>
<path d="M5.81012 20.6465H4.93457C4.93457 20.3344 4.95515 20.0205 4.9963 19.7132L5.86396 19.8287C5.82806 20.098 5.81012 20.3729 5.81012 20.6465Z" fill="white"/>
<path d="M6.03256 19.0122L5.18872 18.7785C5.88332 16.2631 7.98375 14.3023 10.5398 13.7828L10.714 14.6411C8.47792 15.095 6.6405 16.8107 6.03256 19.0122Z" fill="white"/>
<path d="M3.76299 17.1445H3.02811V9.99604C1.34342 9.5779 0.456055 8.3716 0.456055 6.48885C0.456055 4.20009 1.71012 0.977295 4.49786 0.977295C7.28561 0.977295 8.53967 4.20009 8.53967 6.48885C8.53967 8.3716 7.65231 9.5779 5.96761 9.99604V13.8376H5.23274V9.39308L5.53367 9.33796C7.0622 9.05724 7.8048 8.12542 7.8048 6.48885C7.8048 4.56238 6.75393 1.71217 4.49786 1.71217C2.2418 1.71217 1.19093 4.56238 1.19093 6.48885C1.19093 8.12542 1.93352 9.05724 3.46206 9.33796L3.76299 9.39308V17.1445Z" fill="white"/>
</svg>
