<svg width="1281" height="333" viewBox="0 0 1281 333" fill="none" xmlns="http://www.w3.org/2000/svg">
<g opacity="0.05" clip-path="url(#clip0_391_1198)">
<path d="M101.878 304.669V302.826H96.0026V290.725H45.7535V302.861H39.8777V304.669H42.5596V309.051H39.8777V310.859H42.5596V315.275H39.8777V317.084H101.878V315.275H99.2697V310.894H101.878V309.051H99.2697V304.669H101.878ZM94.2472 293.159V302.826H84.0316V293.194L94.2472 293.159ZM94.2472 304.669V309.051H90.0293V304.669H94.2472ZM82.0567 293.194V302.826H71.7924V293.228L82.0567 293.194ZM82.0567 304.634V309.051H80.8864V304.634H82.0567ZM69.8663 309.051H62.3082V304.669H69.7444L69.8663 309.051ZM69.8663 293.228V302.826H59.5531V293.228H69.8663ZM47.387 293.228H57.627V302.791H47.3139L47.387 293.228ZM57.6026 304.6V309.051H53.0922V304.669L57.6026 304.6ZM43.9249 304.6H45.8266V309.051H43.9249V304.6ZM43.9249 310.79H45.8266V315.206H43.9249V310.79ZM51.8731 315.206H47.3139V310.79H51.8L51.8731 315.206ZM51.8731 308.981H47.3139V304.6H51.8L51.8731 308.981ZM53.1653 310.824H57.6026V315.206H53.0678L53.1653 310.824ZM61.1135 315.206H59.6263V310.824H61.1135V315.206ZM61.1135 308.981H59.6263V304.6H61.1135V308.981ZM62.3813 310.824H69.8419V315.206H62.3082L62.3813 310.824ZM79.5943 315.206H71.7924V310.824H79.5211L79.5943 315.206ZM79.5943 309.016H71.7924V304.6H79.5211L79.5943 309.016ZM80.8621 310.824H82.0811V315.206H80.8864L80.8621 310.824ZM88.8346 315.206H84.0072V310.824H88.7371L88.8346 315.206ZM88.8346 309.016H84.0316V304.6H88.7615L88.8346 309.016ZM90.1024 310.824H94.3203V315.206H90.0293L90.1024 310.824ZM97.9531 315.241H96.0026V310.859H97.9531V315.241ZM97.9531 309.051H96.0026V304.669H97.9531V309.051Z" fill="white"/>
<path d="M89.6147 253.029V238.284H52.1655V253.029H89.6147ZM80.5693 240.649H87.8836V250.142H80.5693V240.649ZM71.7434 240.649H79.0577V250.108H71.7434V240.649ZM62.9175 240.649H70.2318V250.108H62.9175V240.649ZM54.0916 240.649H61.4059V250.108H54.0672L54.0916 240.649Z" fill="white"/>
<path d="M94.0042 256.888V255.532H47.6804V256.888H49.6797V260.157H47.6804V261.513H49.6797V264.782H47.6804V266.138H94.0042V264.782H92.0538V261.513H94.0042V260.157H92.0538V256.888H94.0042ZM70.4522 260.157H64.5033V256.888H70.4522V260.157ZM71.4031 256.888H77.3277V260.157H71.4031V256.888ZM63.5524 260.157H57.6278V256.888H63.5524V260.157ZM63.5524 261.513V264.782H57.6278V261.513H63.5524ZM64.5033 261.513H70.4522V264.782H64.5033V261.513ZM71.4031 261.513H77.3277V264.782H71.4031V261.513ZM78.2785 261.513H84.2275V264.817H78.2785V261.513ZM78.2785 260.157V256.888H84.2275V260.157H78.2785ZM50.728 256.888H56.677V260.157H50.728V256.888ZM50.728 261.513H56.677V264.782H50.728V261.513ZM91.1029 264.817H85.1783V261.513H91.1029V264.817ZM91.1029 260.192H85.1783V256.888H91.1029V260.192Z" fill="white"/>
<path d="M104.56 283.108H37.1958V287.907H104.56V283.108Z" fill="white"/>
<path d="M93.248 269.616H48.5334C42.511 271.244 36.4312 272.405 30.3208 273.094C30.3208 277.962 48.4846 280.327 70.8907 280.362C93.2968 280.396 111.461 277.997 111.461 273.128C105.349 272.441 99.2685 271.268 93.248 269.616Z" fill="white"/>
<path d="M83.0567 207.926V197.007H58.6758V207.926H83.0567ZM76.9859 198.85H81.6914V206.187H76.9859V198.85ZM71.3783 198.85H76.0106V206.222H71.3783V198.85ZM65.7706 198.85H70.4518V206.222H65.7706V198.85ZM60.163 198.85H64.8442V206.222H60.1386L60.163 198.85Z" fill="white"/>
<path d="M89.6154 211.403V210.325H52.1907V211.438H53.7998V214.081H52.1907V215.159H53.7998V217.837H52.1907V218.915H89.6154V217.802H88.0307V215.159H89.6154V214.046H88.0307V211.403H89.6154ZM70.5251 214.046H65.649V211.403H70.5251V214.046ZM71.3053 211.403H76.1815V214.046H71.3053V211.403ZM64.9663 214.046H60.0901V211.403H64.9663V214.046ZM64.9663 215.159V217.802H60.0901V215.159H64.9663ZM65.7221 215.159H70.5983V217.802H65.7221V215.159ZM71.3053 215.159H76.1815V217.802H71.3053V215.159ZM76.8886 215.159H81.7648V217.802H76.8886V215.159ZM76.8886 214.046V211.403H81.7648V214.046H76.8886ZM54.58 211.403H59.4562V214.046H54.58V211.403ZM54.58 215.124H59.4562V217.767H54.58V215.124ZM87.2505 217.802H82.3743V215.159H87.2505V217.802ZM87.2505 214.046H82.3743V211.403H87.2505V214.046Z" fill="white"/>
<path d="M94.1743 148.983H47.6311V153.435H94.1743V148.983Z" fill="white"/>
<path d="M68.0874 132.291V134.621H73.7194V132.291H71.5495V130.866C72.2565 130.866 72.7685 130.24 72.7685 129.718C72.7685 129.196 72.2565 128.744 71.5495 128.571V127.423C72.2565 127.249 72.7685 126.832 72.7685 126.275C72.7685 125.719 72.2565 125.302 71.5495 125.128V124.015C72.2565 124.015 72.7685 123.389 72.7685 122.867C72.7685 122.346 72.2565 121.894 71.5495 121.72V120.572C72.2565 120.398 72.7685 119.946 72.7685 119.425C72.7685 118.903 72.2565 118.451 71.5495 118.277V117.13C72.2565 116.956 72.7685 116.539 72.7685 116.017C72.7685 115.495 72.2565 115.043 71.5495 114.869V113.722C72.2565 113.548 72.7685 113.096 72.7685 112.574C72.7685 112.053 72.2565 111.601 71.5495 111.427V110.279C72.2322 110.105 72.7442 109.653 72.7442 109.132C72.7442 108.61 72.2322 108.158 71.5495 107.984V106.871C72.2322 106.697 72.7442 106.245 72.7442 105.724C72.6945 105.255 72.5574 104.814 72.3472 104.447C72.137 104.08 71.8615 103.8 71.5495 103.637V100.16C71.5495 99.9163 71.2569 99.6729 70.8912 99.6729C70.5255 99.6729 70.2329 99.9163 70.2329 100.16V103.637C69.9209 103.8 69.6454 104.08 69.4352 104.447C69.225 104.814 69.0879 105.255 69.0383 105.724C69.0383 106.245 69.5503 106.697 70.2329 106.871V107.984C69.5259 107.984 69.0383 108.61 69.0383 109.132C69.0383 109.653 69.5259 110.105 70.2329 110.279V111.427C69.5259 111.601 69.0383 112.053 69.0383 112.574C69.0383 113.096 69.5259 113.548 70.2329 113.722V114.869C69.5259 115.043 69.0383 115.46 69.0383 115.982C69.0383 116.504 69.5259 116.956 70.2329 117.13V118.277C69.5259 118.451 69.0383 118.903 69.0383 119.425C69.0383 119.946 69.5259 120.398 70.2329 120.572V121.72C69.5259 121.894 69.0383 122.346 69.0383 122.867C69.0383 123.389 69.5259 123.841 70.2329 124.015V125.128C69.5259 125.128 69.0383 125.754 69.0383 126.275C69.0383 126.797 69.5259 127.249 70.2329 127.423V128.571C69.5259 128.744 69.0383 129.196 69.0383 129.718C69.0383 130.24 69.5259 130.692 70.2329 130.866V132.291H68.0874Z" fill="white"/>
<path d="M73.4265 136.639H68.4041C62.2844 138.238 46.7538 142.133 42.8772 142.133C42.8772 145.611 55.409 147.175 70.9153 147.175C86.4216 147.175 98.9534 147.732 98.9534 144.359C94.9549 144.324 79.5218 138.238 73.4265 136.639Z" fill="white"/>
<path d="M98.173 190.852H43.6328V194.746H98.173V190.852Z" fill="white"/>
<path d="M89.0053 180.768H52.7995C47.9197 181.868 42.9893 182.449 38.0491 182.506C38.0491 186.471 52.6776 189.461 70.8902 189.461C89.1028 189.461 103.756 187.549 103.756 183.584C98.8059 183.039 93.8814 182.098 89.0053 180.768Z" fill="white"/>
<path d="M98.173 232.164H43.6328V236.059H98.173V232.164Z" fill="white"/>
<path d="M110.437 319.448H31.345V323.343H110.437V319.448Z" fill="white"/>
<path d="M115.166 325.638H26.5657V329.532H115.166V325.638Z" fill="white"/>
<path d="M88.9809 221.279H52.7995C47.9196 222.378 42.9893 222.959 38.0491 223.018C38.0491 226.982 52.6776 229.973 70.8902 229.973C89.1028 229.973 103.731 228.06 103.731 224.096C98.7817 223.548 93.8573 222.608 88.9809 221.279Z" fill="white"/>
<path d="M89.6154 171.169V169.952H52.1907V171.065H53.8242V173.708H52.1907V174.821H53.8242V177.463H52.1907V178.541H89.6154V177.429H88.0307V174.786H89.6154V173.708H88.0307V171.065L89.6154 171.169ZM70.5495 173.812H65.6733V171.169H70.5495V173.812ZM71.3053 171.169H76.1815V173.812H71.3053V171.169ZM64.9663 173.812H60.0901V171.169H64.9663V173.812ZM64.9663 174.925V177.568H60.0901V174.925H64.9663ZM65.7465 174.925H70.6227V177.568H65.7465V174.925ZM71.3053 174.925H76.1815V177.568H71.3053V174.925ZM76.8886 174.925H81.7648V177.568H76.8886V174.925ZM76.8886 173.812V171.169H81.7648V173.812H76.8886ZM54.58 171.169H59.4562V173.812H54.58V171.169ZM54.58 174.925H59.4562V177.568H54.58V174.925ZM87.2749 177.568H82.3987V174.925H87.2749V177.568ZM87.2749 173.812H82.3987V171.169H87.2749V173.812Z" fill="white"/>
<path d="M83.0567 168.005V155.451H58.6758V168.005H83.0567ZM77.0346 158.129H81.7158V165.466H77.0103L77.0346 158.129ZM71.4026 158.129H76.0106V165.466H71.4026V158.129ZM65.795 158.129H70.4762V165.466H65.795V158.129ZM60.1874 158.129H64.8685V165.501H60.1874V158.129Z" fill="white"/>
<path d="M1142.14 256.089H1104.89C1099.3 261.536 1093.2 265.821 1086.77 268.816H1160.28C1153.84 265.824 1147.73 261.539 1142.14 256.089Z" fill="white"/>
<path d="M1086.04 276.258L1097.99 282.309H1149.19L1161.13 276.258H1086.04Z" fill="white"/>
<path d="M1085.38 273.581H1161.18C1161.41 273.581 1161.63 273.452 1161.79 273.224C1161.95 272.996 1162.04 272.686 1162.04 272.364C1162.04 272.041 1161.95 271.731 1161.79 271.503C1161.63 271.275 1161.41 271.146 1161.18 271.146H1085.38C1085.15 271.146 1084.94 271.275 1084.78 271.503C1084.62 271.731 1084.53 272.041 1084.53 272.364C1084.53 272.686 1084.62 272.996 1084.78 273.224C1084.94 273.452 1085.15 273.581 1085.38 273.581Z" fill="white"/>
<path d="M1143.17 250.63H1103.69V253.76H1143.17V250.63Z" fill="white"/>
<path d="M1137.7 240.857H1129.97V248.925H1137.7V240.857Z" fill="white"/>
<path d="M1129.27 240.857H1120.12V248.925H1129.27V240.857Z" fill="white"/>
<path d="M1119.44 240.857H1109.96V248.925H1119.44V240.857Z" fill="white"/>
<path d="M1136.9 221.21H1109.96C1105.92 225.152 1101.51 228.255 1096.87 230.425H1149.99C1145.34 228.255 1140.93 225.152 1136.9 221.21Z" fill="white"/>
<path d="M1096.35 234.702L1104.98 239.049H1141.99L1150.6 234.702H1096.35Z" fill="white"/>
<path d="M1095.87 233.276H1150.62C1150.77 233.265 1150.9 233.186 1151.01 233.054C1151.11 232.922 1151.18 232.743 1151.21 232.546C1151.21 232.316 1151.15 232.094 1151.03 231.931C1150.92 231.768 1150.76 231.677 1150.6 231.677H1095.87C1095.7 231.677 1095.55 231.768 1095.43 231.931C1095.32 232.094 1095.26 232.316 1095.26 232.546C1095.28 232.752 1095.35 232.939 1095.47 233.073C1095.58 233.207 1095.72 233.279 1095.87 233.276Z" fill="white"/>
<path d="M1137.65 217.211H1109.13V219.471H1137.65V217.211Z" fill="white"/>
<path d="M1124.56 184.071H1122.12C1117.83 194.504 1103.3 204.414 1103.3 204.414H1143.31C1143.31 204.414 1128.85 194.295 1124.56 184.071Z" fill="white"/>
<path d="M1103.11 206.848H1143.36C1143.42 206.853 1143.48 206.84 1143.53 206.811C1143.59 206.782 1143.64 206.736 1143.69 206.678C1143.73 206.619 1143.76 206.548 1143.79 206.47C1143.81 206.392 1143.82 206.307 1143.82 206.222C1143.82 206.047 1143.77 205.879 1143.69 205.755C1143.6 205.631 1143.48 205.562 1143.36 205.562H1103.11C1102.99 205.57 1102.87 205.642 1102.79 205.764C1102.7 205.887 1102.65 206.05 1102.64 206.222C1102.65 206.391 1102.7 206.551 1102.79 206.667C1102.87 206.784 1102.99 206.848 1103.11 206.848Z" fill="white"/>
<path d="M1122.71 181.254C1122.57 181.4 1122.45 181.593 1122.37 181.817C1122.29 182.041 1122.25 182.289 1122.25 182.541V182.819H1124.54V182.541C1124.54 182.289 1124.5 182.041 1124.42 181.817C1124.34 181.593 1124.22 181.4 1124.08 181.254C1124.39 181.058 1124.65 180.737 1124.84 180.329C1125.03 179.922 1125.12 179.446 1125.12 178.959C1125.12 178.304 1124.94 177.676 1124.62 177.213C1124.29 176.75 1123.85 176.49 1123.39 176.49C1122.93 176.49 1122.49 176.75 1122.17 177.213C1121.84 177.676 1121.66 178.304 1121.66 178.959C1121.66 179.446 1121.76 179.922 1121.95 180.329C1122.13 180.737 1122.4 181.058 1122.71 181.254Z" fill="white"/>
<path d="M1133.68 208.796H1128.1V215.681H1133.68V208.796Z" fill="white"/>
<path d="M1127.61 208.796H1121V215.681H1127.61V208.796Z" fill="white"/>
<path d="M1120.49 208.796H1113.64V215.681H1120.49V208.796Z" fill="white"/>
<path d="M1133.27 285.3H1113.59V292.742H1133.27V285.3Z" fill="white"/>
<path d="M1145.53 285.3H1134.85V292.742H1145.53V285.3Z" fill="white"/>
<path d="M1111.98 285.3H1102.33V292.742H1111.98V285.3Z" fill="white"/>
<path d="M1098.13 313.502H1148.77V295.35H1098.13V313.502ZM1101.16 312.633H1098.72V301.852H1101.16V312.633ZM1104.2 312.633H1101.91V301.852H1104.2V312.633ZM1107.42 312.633H1104.98V301.852H1107.42V312.633ZM1110.2 312.633H1107.93V301.852H1110.2V312.633ZM1121.71 312.633H1119.52V301.852H1121.78L1121.71 312.633ZM1124.95 312.633H1122.51V301.852H1124.95V312.633ZM1127.73 312.633H1125.46V301.852H1127.73V312.633ZM1138.82 312.633H1136.58V301.852H1138.87L1138.82 312.633ZM1142.04 312.633H1139.6V301.852H1142.04V312.633ZM1144.82 312.633H1142.56V301.852H1144.82V312.633ZM1147.85 312.633H1145.58V301.852H1147.85V312.633ZM1134.14 297.193H1148.24V301.053H1134.14V297.193ZM1133.39 301.852H1135.83V312.528H1133.39V301.852ZM1130.73 312.633H1128.44V301.852H1130.73V312.633ZM1116.32 297.193H1130.44V301.053H1116.35L1116.32 297.193ZM1116.32 301.852H1118.76V312.528H1116.32V301.852ZM1113.22 312.633H1110.96V301.852H1113.22V312.633ZM1098.6 297.158H1112.69V301.018H1098.55L1098.6 297.158Z" fill="white"/>
<path d="M1155.84 314.823H1091.77V318.127H1155.84V314.823Z" fill="white"/>
<path d="M1159.7 320.178H1087.89V323.412H1159.7V320.178Z" fill="white"/>
<path d="M1162.94 325.359H1084.67V328.593H1162.94V325.359Z" fill="white"/>
<path d="M671.734 201.91H646.281V196.138H671.734V201.91ZM647.353 234.876V205.179H671.734V234.876H647.353ZM661.665 227.922H665.005V215.159H661.665V227.922ZM657.179 227.922H660.519V215.159H657.179V227.922ZM652.693 227.922H656.033V215.159H652.693V227.922ZM658.666 258.732H672.222V252.82H658.715L658.666 258.732ZM652.327 274.276H672.271V268.364H652.327V274.276ZM645.842 289.82H672.271V283.909H645.842V289.82ZM639.21 305.573H672.393V299.661H639.21V305.573ZM664.932 243.292H672.393V238.006H664.81L664.932 243.292ZM632.725 321.152H672.393V315.24H632.603L632.725 321.152ZM644.915 238.041H633.822V243.327H641.648L637.357 252.994H625.801V258.906H634.724L630.433 268.573H617.706V274.276H627.8L623.509 283.909H609.612V289.82H620.876L616.585 299.488H601.517V305.573H613.952L609.661 315.24H593.398V321.152H607.052L602.98 329.915H606.003L645.964 237.867L644.915 238.041ZM657.447 238.041L619.827 329.915H623.704L661.519 237.867L657.447 238.041ZM702.186 196.312H676.733V202.084H702.186V196.312ZM701.089 235.05H676.708V205.353H701.089V235.05ZM686.095 215.159H682.779V228.165H686.095V215.159ZM690.581 215.159H687.265V228.165H690.581V215.159ZM695.067 215.159H691.727V228.165H695.067V215.159ZM676.879 238.111V243.396H684.803L683.827 253.064H676.879V258.975H691.312L690.337 268.643H676.879V274.276H697.725L696.749 283.909H676.781V289.82H704.234L703.259 299.488H676.879V305.573H710.866L709.866 315.24H676.879V321.152H717.376L716.449 330.089H726.982L689.362 238.006L676.879 238.111ZM755.824 315.345H735.637L731.346 305.573H747.73V299.661H728.713L724.544 289.959H739.757V284.048H721.91L717.497 274.276H731.541V268.364H714.791L710.5 258.697H723.373V252.785H707.867L703.576 243.118H715.254V237.832H699.236L739.318 329.915H742.244L738.27 320.978H755.824V315.345Z" fill="white"/>
<path d="M795.249 142.516H793.933C794.121 166.471 795.58 190.371 798.297 214.012H797.444C797.175 211.126 796.932 208.692 796.712 206.431C796.103 200.346 795.664 195.999 795.249 189.461V187.757H792.202V189.461C791.787 195.894 791.348 200.311 790.739 206.396C790.519 208.657 790.276 211.126 789.983 214.012H789.13C791.859 190.373 793.318 166.472 793.494 142.516H792.202C792.018 167.11 790.469 191.644 787.569 215.89H791.129C792.275 203.997 792.909 198.955 793.567 189.635H794.201C794.786 198.955 795.444 203.997 796.639 215.89H800.223C797.208 191.658 795.545 167.123 795.249 142.516Z" fill="white"/>
<path d="M787.398 226.322H799.638L806.903 265.722H808.269L800.662 224.444H786.374L778.768 265.722H780.133L787.398 226.322Z" fill="white"/>
<path d="M796.589 231.99H790.445L784.252 265.721H785.617L791.469 233.868H795.565L801.392 265.721H802.757L796.589 231.99Z" fill="white"/>
<path d="M802.197 273.303H794.225V279.597H802.197V273.303Z" fill="white"/>
<path d="M792.811 273.303H784.838V279.597H792.811V273.303Z" fill="white"/>
<path d="M811.56 268.816H775.476V271.424H811.56V268.816Z" fill="white"/>
<path d="M811.559 273.303H803.586V279.597H811.559V273.303Z" fill="white"/>
<path d="M783.449 273.303H775.476V279.597H783.449V273.303Z" fill="white"/>
<path d="M772.817 264.922V283.352H814.265V264.922H772.817ZM812.875 271.425V281.475H774.158V266.939H812.875V271.425Z" fill="white"/>
<path d="M792.811 219.576H786.764V222.462H792.811V219.576Z" fill="white"/>
<path d="M800.369 219.576H794.225V222.462H800.369V219.576Z" fill="white"/>
<path d="M784.131 215.576V226.252H802.978V215.576H784.131ZM801.661 224.374H785.496V217.697H801.71L801.661 224.374Z" fill="white"/>
<path d="M794.299 129.405L793.714 107.08H793.324L792.715 129.405H791.617V132.222H795.421V129.405H794.299Z" fill="white"/>
<path d="M790.787 134.239V143.176H796.224V134.239H790.787ZM795.078 141.194H791.933V136.013H795.078V141.194Z" fill="white"/>
<path d="M785.498 251.359L787.619 239.779C787.009 240.649 786.4 241.448 785.79 242.248L783.669 253.863L785.498 251.359Z" fill="white"/>
<path d="M804.025 257.619C803.44 256.784 802.806 255.95 802.172 255.115L803.855 264.296H805.269L804.025 257.619Z" fill="white"/>
<path d="M801.539 251.638L803.392 254.142L801.27 242.562L799.442 240.093L801.539 251.638Z" fill="white"/>
<path d="M783.058 257.306L781.79 264.261H783.058L784.813 254.768L783.058 257.306Z" fill="white"/>
<path d="M800.614 239.118L798.615 228.199H788.399L786.449 238.805L788.277 236.336L789.423 230.112H797.688L798.883 236.649L800.614 239.118Z" fill="white"/>
<path d="M766.551 319.656C765.454 323.134 764.308 326.611 763.138 330.089L768.014 324.733L766.551 319.656Z" fill="white"/>
<path d="M770.868 330.437C771.605 327.215 772.509 324.077 773.575 321.048L769.576 325.499C769.966 327.307 770.405 329.011 770.868 330.437Z" fill="white"/>
<path d="M762.919 332.871H770.014L768.405 326.716L762.919 332.871Z" fill="white"/>
<path d="M768.429 315.761H775.353L773.793 309.78L768.429 315.761Z" fill="white"/>
<path d="M768.992 323.656L774.355 317.64H767.456C767.846 319.205 768.431 321.395 768.992 323.656Z" fill="white"/>
<path d="M774.769 308.563L776.11 313.64C777.232 310.163 778.353 306.685 779.45 303.208L774.769 308.563Z" fill="white"/>
<path d="M783.35 299.313H792.152C791.128 296.949 790.006 294.445 788.86 291.837L783.35 299.313Z" fill="white"/>
<path d="M792.809 297.263V286.482C791.81 287.873 790.81 289.195 789.835 290.516L792.809 297.263Z" fill="white"/>
<path d="M778.866 309.607C781.108 305.965 783.889 303.079 787.009 301.157H781.596C780.621 303.904 779.792 306.721 778.866 309.607Z" fill="white"/>
<path d="M774.135 299.313H780.376C779.937 297.575 779.45 295.836 778.962 293.889L774.135 299.313Z" fill="white"/>
<path d="M784.447 287.733L780.059 292.671C780.498 294.341 780.912 295.94 781.327 297.47L784.447 287.733Z" fill="white"/>
<path d="M823.921 330.333C822.727 326.681 821.483 323.065 820.435 319.553L819.045 324.873L823.921 330.333Z" fill="white"/>
<path d="M784.497 285.265H778.183C778.67 287.177 779.158 289.02 779.621 290.794L784.497 285.265Z" fill="white"/>
<path d="M791.812 285.265H787.521L789.13 288.742L791.812 285.265Z" fill="white"/>
<path d="M771.916 302.965L768.697 312.98L773.208 307.938C772.793 306.303 772.354 304.669 771.916 302.965Z" fill="white"/>
<path d="M779.205 301.157H772.842C773.329 303.07 773.817 304.913 774.28 306.686L779.205 301.157Z" fill="white"/>
<path d="M777.086 286.726C776.33 289.16 775.136 292.846 773.697 297.401L778.573 292.046C778.07 290.307 777.574 288.534 777.086 286.726Z" fill="white"/>
<path d="M788.154 290.202L786.374 286.203C785.277 289.681 784.058 293.471 782.766 297.505L788.154 290.202Z" fill="white"/>
<path d="M807.44 303.243L810.829 313.676C811.268 312.041 811.706 310.198 812.17 308.529L807.44 303.243Z" fill="white"/>
<path d="M819.63 317.64H812.706L818.069 323.656L819.63 317.64Z" fill="white"/>
<path d="M813.292 309.78C812.732 311.867 812.22 313.884 811.708 315.761H818.632L813.292 309.78Z" fill="white"/>
<path d="M800.124 301.157C803.153 303.023 805.864 305.799 808.072 309.295L805.439 301.157H800.124Z" fill="white"/>
<path d="M774.866 329.915H781.278C782.022 321.765 783.984 313.939 787.032 306.964C782.009 310.789 777.67 318.892 774.866 329.915Z" fill="white"/>
<path d="M800.124 306.999C803.173 313.97 805.128 321.8 805.854 329.95H812.266C809.365 318.892 805 310.789 800.124 306.999Z" fill="white"/>
<path d="M811.17 281.475H775.867C775.867 281.475 767.065 309.294 758.142 336.662H772.258C775.696 316.91 783.912 303 793.518 303C803.124 303 811.316 316.91 814.754 336.662H828.871C819.947 309.225 811.17 281.475 811.17 281.475ZM793.884 301.157H793.153C783.547 301.47 775.038 314.545 771.21 334.784H760.19C767.723 311.589 775.013 288.603 776.696 283.387H810.292C811.95 288.603 819.265 311.589 826.798 334.784H815.754C811.975 314.545 803.49 301.47 793.884 301.157Z" fill="white"/>
<path d="M798.271 291.837C797.101 294.445 796.004 296.949 794.98 299.313H803.781L798.271 291.837Z" fill="white"/>
<path d="M818.339 313.05L815.096 302.896C814.633 304.599 814.194 306.373 813.78 307.938L818.339 313.05Z" fill="white"/>
<path d="M813.583 321.117C814.619 324.092 815.5 327.172 816.216 330.332L817.484 325.499L813.583 321.117Z" fill="white"/>
<path d="M818.558 326.716L816.949 332.871H824.068L818.558 326.716Z" fill="white"/>
<path d="M806.731 299.313H812.973C811.461 297.61 809.852 295.836 808.097 293.889C807.658 295.766 807.195 297.575 806.731 299.313Z" fill="white"/>
<path d="M813.291 297.227L809.976 286.795C809.537 288.534 809.073 290.272 808.635 291.942L813.291 297.227Z" fill="white"/>
<path d="M812.681 306.686C813.144 304.913 813.631 303.209 814.119 301.157H807.756L812.681 306.686Z" fill="white"/>
<path d="M808.999 285.265H802.562L807.439 290.794C808.024 289.02 808.511 287.177 808.999 285.265Z" fill="white"/>
<path d="M807.075 292.671L802.369 287.386L805.734 297.818C806.148 296.184 806.611 294.445 807.075 292.671Z" fill="white"/>
<path d="M794.225 286.343V297.471L797.272 290.516L794.225 286.343Z" fill="white"/>
<path d="M799.613 285.265H795.249L797.93 288.742C798.516 287.699 799.052 286.482 799.613 285.265Z" fill="white"/>
<path d="M804.027 297.018C802.808 293.297 801.588 289.75 800.638 286.586L798.98 290.342L804.027 297.018Z" fill="white"/>
<path d="M795.665 171.518L790.788 178.472C790.788 178.82 790.788 179.168 790.788 179.516C790.777 179.619 790.777 179.725 790.788 179.829L791.252 180.455L795.762 173.917C795.632 173.131 795.599 172.319 795.665 171.518Z" fill="white"/>
<path d="M795.054 157.572L791.543 162.649C791.568 162.996 791.568 163.346 791.543 163.693C791.555 163.796 791.555 163.902 791.543 164.006L792.007 164.666L795.249 159.867C795.115 159.118 795.049 158.346 795.054 157.572Z" fill="white"/>
<path d="M795.833 180.385L795.321 176.908L791.494 171.344C791.58 172.15 791.58 172.971 791.494 173.778L795.833 180.385Z" fill="white"/>
<path d="M794.858 163.901C794.837 163.19 794.878 162.477 794.98 161.78L792.078 157.572C792.088 158.349 792.014 159.123 791.859 159.867L794.858 164.214V163.901Z" fill="white"/>
<path d="M965.135 271.042L964.988 266.417C964.619 266.308 964.244 266.25 963.867 266.243V262.94C946.024 259.287 928.01 257.601 909.985 257.897C908.766 257.897 906.742 245.344 904.816 238.041L899.94 237.798C867.099 236.615 841.426 242.005 832.38 247.291L831.844 266.313C831.464 266.315 831.086 266.397 830.722 266.556L830.576 271.007C830.576 271.251 864.124 271.564 898.843 271.564C931.294 271.564 965.135 271.285 965.135 271.042ZM834.819 266.069L831.99 266.313L832.234 258.21C832.269 256.288 832.74 254.434 833.575 252.924C834.453 251.707 835.184 252.612 835.111 255.15L834.819 266.069ZM844.035 265.617L836.72 265.965L836.988 255.985C837.112 254.59 837.481 253.263 838.061 252.126C838.641 250.989 839.412 250.08 840.304 249.482C842.499 247.986 844.498 249.099 844.425 252.229L844.035 265.617ZM855.908 265.269L847.082 265.513L847.35 253.064C847.471 251.434 847.937 249.896 848.687 248.653C849.436 247.411 850.432 246.523 851.544 246.109C853.982 245.135 856.249 247.082 856.176 250.56L855.908 265.269ZM869.976 264.991H861.126L861.369 250.734C861.414 249.028 861.863 247.395 862.642 246.101C863.421 244.806 864.485 243.926 865.66 243.605C866.227 243.449 866.811 243.481 867.368 243.697C867.925 243.913 868.439 244.308 868.872 244.852C869.305 245.396 869.645 246.074 869.866 246.834C870.087 247.595 870.183 248.417 870.146 249.238L869.976 264.991ZM886.262 264.817H876.51L876.656 249.099C876.69 247.247 877.21 245.48 878.113 244.148C879.016 242.815 880.236 242.013 881.532 241.901C882.162 241.833 882.795 241.953 883.39 242.255C883.986 242.556 884.53 243.031 884.989 243.65C885.448 244.268 885.812 245.017 886.056 245.848C886.3 246.678 886.421 247.573 886.409 248.473L886.262 264.817ZM892.87 264.817V248.578C892.87 246.641 893.409 244.783 894.369 243.414C895.329 242.044 896.632 241.275 897.99 241.275C899.347 241.275 900.65 242.044 901.61 243.414C902.57 244.783 903.11 246.641 903.11 248.578V264.783H892.772L892.87 264.817Z" fill="white"/>
<path d="M830.674 329.915L830.942 312.875C831.088 308.215 831.82 304.46 832.6 304.46C833.38 304.46 833.892 308.215 833.77 312.875L833.526 329.915H835.721L835.916 314.927C836.037 310.267 837.817 306.511 839.914 306.511C842.011 306.511 843.62 310.267 843.522 314.927L843.352 329.915H846.448L846.57 316.005C846.692 311.345 848.667 307.589 851.007 307.589C853.348 307.589 855.201 311.345 855.103 316.005V329.915H860.516V317.709C860.394 315.725 860.804 313.75 861.664 312.181C862.524 310.613 863.769 309.568 865.148 309.259C867.586 309.259 869.586 313.049 869.513 317.709V329.915H876.29V318.787C876.18 316.749 876.625 314.728 877.533 313.147C878.442 311.566 879.744 310.547 881.167 310.302C881.878 310.402 882.568 310.701 883.198 311.181C883.827 311.662 884.385 312.315 884.838 313.103C885.29 313.891 885.63 314.799 885.837 315.774C886.044 316.749 886.114 317.773 886.043 318.787V329.915H892.772V319.204C892.684 318.141 892.755 317.063 892.98 316.042C893.205 315.021 893.58 314.079 894.078 313.279C894.577 312.479 895.189 311.839 895.873 311.401C896.558 310.962 897.3 310.735 898.05 310.735C898.801 310.735 899.543 310.962 900.228 311.401C900.912 311.839 901.524 312.479 902.023 313.279C902.521 314.079 902.896 315.021 903.121 316.042C903.346 317.063 903.417 318.141 903.329 319.204V329.915H909.839V318.787C909.768 317.773 909.838 316.749 910.045 315.774C910.252 314.799 910.591 313.891 911.044 313.103C911.497 312.315 912.054 311.662 912.684 311.181C913.314 310.701 914.004 310.402 914.715 310.302C916.138 310.547 917.439 311.566 918.348 313.147C919.257 314.728 919.702 316.749 919.591 318.787V329.915H926.369V317.709C926.369 313.049 928.271 309.259 930.757 309.259C932.132 309.576 933.371 310.624 934.226 312.192C935.081 313.759 935.488 315.73 935.366 317.709V329.915H940.778L940.656 316.005C940.656 311.345 942.412 307.589 944.752 307.589C947.093 307.589 949.092 311.345 949.19 316.005L949.336 329.915H952.432L952.286 314.927C952.286 310.267 953.773 306.511 955.87 306.511C957.967 306.511 959.771 310.267 959.893 314.927L960.088 329.915H962.282L962.038 312.875C961.892 308.215 962.428 304.46 963.209 304.46C963.989 304.46 964.72 308.215 964.842 312.875L965.11 329.915H965.5L964.964 303.799C958.308 306.268 928.076 308.772 898.916 308.772C867.635 308.772 837.427 305.955 830.771 303.451L830.235 329.915H830.674Z" fill="white"/>
<path d="M965.648 296.532L964.746 296.741L964.064 273.233C956.432 273.442 927.127 273.65 898.893 273.65C868.612 273.65 839.258 273.407 831.626 273.198L830.944 296.462L830.042 296.254V300.496C830.042 303.139 863.809 306.756 899.015 306.756C931.808 306.756 965.965 303.556 965.892 300.844L965.648 296.532ZM834.576 282.622L834.186 296.914C833.114 296.914 832.187 296.601 831.407 296.462L831.797 282.553C831.919 278.554 832.626 275.319 833.382 275.319C834.138 275.319 834.698 278.727 834.576 282.726V282.622ZM843.89 298.027C841.037 297.784 838.502 297.506 836.356 297.227L836.746 282.622C836.746 278.623 838.624 275.389 840.672 275.389C842.72 275.389 844.353 278.623 844.256 282.622L843.89 298.027ZM855.446 298.897C852.423 298.723 849.595 298.514 846.986 298.305L847.328 282.622C847.271 280.855 847.688 279.124 848.494 277.781C849.3 276.437 850.435 275.582 851.667 275.389C852.27 275.475 852.854 275.732 853.386 276.144C853.918 276.556 854.387 277.115 854.766 277.788C855.145 278.461 855.427 279.236 855.594 280.066C855.761 280.896 855.81 281.765 855.739 282.622L855.446 298.897ZM869.709 299.627L860.786 299.21L861.054 282.622C861 280.811 861.444 279.042 862.291 277.691C863.138 276.34 864.321 275.514 865.589 275.389C866.208 275.45 866.812 275.687 867.366 276.086C867.919 276.484 868.412 277.037 868.814 277.711C869.216 278.384 869.519 279.166 869.706 280.009C869.894 280.853 869.961 281.741 869.904 282.622L869.709 299.627ZM886.02 300.079L876.414 299.836L876.585 282.622C876.558 281.686 876.665 280.751 876.898 279.875C877.132 278.999 877.487 278.199 877.942 277.523C878.398 276.848 878.944 276.311 879.549 275.944C880.153 275.577 880.804 275.388 881.461 275.389C882.106 275.416 882.74 275.625 883.328 276.004C883.916 276.383 884.445 276.925 884.885 277.597C885.324 278.27 885.666 279.06 885.891 279.923C886.115 280.786 886.217 281.703 886.191 282.622L886.02 300.079ZM898.893 300.079H892.774V282.692C892.774 280.727 893.321 278.843 894.295 277.454C895.269 276.065 896.59 275.285 897.967 275.285C899.344 275.285 900.665 276.065 901.639 277.454C902.613 278.843 903.16 280.727 903.16 282.692V300.079H898.893ZM909.743 300.079V282.692C909.717 281.775 909.818 280.861 910.041 280C910.263 279.14 910.603 278.351 911.041 277.679C911.478 277.007 912.004 276.464 912.589 276.083C913.174 275.702 913.806 275.49 914.448 275.459C915.766 275.504 917.017 276.29 917.93 277.644C918.843 278.999 919.344 280.813 919.325 282.692L919.471 300.079C916.204 300.114 912.986 300.183 909.84 300.218L909.743 300.079ZM926.078 299.662L925.859 282.587C925.805 281.705 925.876 280.815 926.066 279.972C926.256 279.128 926.562 278.347 926.966 277.674C927.37 277.001 927.864 276.449 928.419 276.051C928.974 275.652 929.579 275.416 930.198 275.354C931.466 275.479 932.649 276.306 933.496 277.656C934.343 279.007 934.787 280.777 934.733 282.587L935.002 299.279L926.078 299.662ZM940.341 299.001L940.048 282.587C939.974 281.732 940.02 280.863 940.184 280.034C940.348 279.204 940.627 278.429 941.004 277.755C941.381 277.081 941.849 276.522 942.38 276.11C942.911 275.697 943.494 275.44 944.096 275.354C945.333 275.539 946.473 276.39 947.285 277.735C948.096 279.079 948.516 280.815 948.46 282.587L948.85 298.618L940.341 299.001ZM951.873 298.166L951.507 282.587C951.507 278.588 953.019 275.354 955.091 275.354C957.164 275.354 958.919 278.588 959.017 282.587L959.431 297.401C957.261 297.819 954.726 298.062 951.873 298.305V298.166ZM961.626 297.123L961.211 282.587C961.211 278.588 961.65 275.354 962.406 275.354C963.162 275.354 963.893 278.588 963.99 282.587L964.405 296.497C963.6 296.949 962.674 297.123 961.601 297.262L961.626 297.123Z" fill="white"/>
<path d="M904.306 234.111C905.16 234.111 903.941 226.287 902.161 226.113H901.088C901 225.909 900.893 225.722 900.771 225.557C899.186 223.888 894.066 226.078 893.14 223.609C891.064 217.378 889.43 210.866 888.264 204.171C860.689 207.648 841.038 220.515 832.748 231.747C832.796 231.07 832.928 230.41 833.138 229.799C841.087 218.324 860.957 205.005 889.019 201.98C888.434 199.372 887.874 197.737 887.167 197.772C856.788 201.632 834.869 218.428 831.895 230.564C831.554 232.025 832.699 232.234 832.699 232.234L832.383 242.979C831.871 243.587 831.533 244.44 831.432 245.378V246.665C838.112 241.066 864.419 234.077 898.796 234.077L904.306 234.111ZM846.792 230.391L842.818 232.373L842.939 226.983C842.968 226.046 843.176 225.139 843.542 224.36C843.907 223.581 844.416 222.961 845.012 222.566C846.109 222.045 846.962 223.123 846.914 225.035L846.792 230.391ZM866.76 224.34L861.615 225.592V218.915C861.618 217.807 861.877 216.732 862.354 215.857C862.83 214.983 863.496 214.358 864.248 214.081C864.577 214.032 864.909 214.088 865.221 214.246C865.532 214.403 865.815 214.658 866.049 214.991C866.282 215.324 866.461 215.728 866.571 216.172C866.682 216.616 866.721 217.09 866.686 217.559L866.76 224.34Z" fill="white"/>
<path d="M987.565 320.353H981.153C980.75 320.362 980.365 320.596 980.083 321.006C979.8 321.416 979.641 321.968 979.641 322.543V329.916H989.101V322.543C989.101 321.962 988.939 321.405 988.651 320.994C988.363 320.583 987.973 320.353 987.565 320.353Z" fill="white"/>
<path d="M1025.11 320.353H1018.7C1018.3 320.362 1017.91 320.596 1017.63 321.006C1017.35 321.416 1017.19 321.968 1017.19 322.543V329.916H1026.62V322.543C1026.63 322.257 1026.59 321.973 1026.52 321.708C1026.44 321.442 1026.33 321.2 1026.19 320.996C1026.05 320.792 1025.88 320.63 1025.7 320.52C1025.51 320.409 1025.31 320.353 1025.11 320.353Z" fill="white"/>
<path d="M986.591 267.112H982.226V268.955H986.591V267.112Z" fill="white"/>
<path d="M1024.41 267.112H1020.04V268.955H1024.41V267.112Z" fill="white"/>
<path d="M1034.4 282.726H972.205C971.837 282.726 971.483 282.934 971.223 283.306C970.962 283.678 970.816 284.182 970.816 284.708C970.816 285.233 970.962 285.738 971.223 286.109C971.483 286.481 971.837 286.69 972.205 286.69H1034.4C1034.77 286.69 1035.12 286.481 1035.38 286.109C1035.64 285.738 1035.79 285.233 1035.79 284.708C1035.79 284.182 1035.64 283.678 1035.38 283.306C1035.12 282.934 1034.77 282.726 1034.4 282.726Z" fill="white"/>
<path d="M1041.18 238.18C1007.51 247.256 1000.1 246.908 965.428 238.18C963.429 237.658 962.307 239.605 962.795 241.309L965.55 251.011C965.986 251.883 966.571 252.58 967.25 253.036C967.929 253.493 968.678 253.694 969.427 253.619H1037.18C1037.93 253.696 1038.69 253.497 1039.37 253.041C1040.05 252.584 1040.64 251.885 1041.08 251.011L1043.81 241.309C1044.3 239.501 1043.18 237.623 1041.18 238.18Z" fill="white"/>
<path d="M986.469 277.753V269.859H982.324V277.51L986.469 277.753Z" fill="white"/>
<path d="M1024.43 277.475V269.79H1020.28V277.753L1024.43 277.475Z" fill="white"/>
<path d="M1024.31 288.012H1020.16V319.065H1024.31V288.012Z" fill="white"/>
<path d="M986.469 288.012H982.324V319.065H986.469V288.012Z" fill="white"/>
<path d="M972.791 278.866L974.864 280.883C975.806 281.33 976.798 281.519 977.789 281.439H1028.84C1029.83 281.515 1030.83 281.327 1031.77 280.883L1033.82 278.866C1034.18 278.518 1033.35 278.136 1031.84 278.24C1012.85 280.083 993.786 280.083 974.79 278.24C973.23 278.136 972.426 278.518 972.791 278.866Z" fill="white"/>
<path d="M969.426 255.706C970.3 256.86 971.454 257.483 972.644 257.445H1033.96C1035.16 257.485 1036.32 256.862 1037.21 255.706H969.426Z" fill="white"/>
<path d="M1027.77 264.122L1028.79 258.94H977.814L978.887 264.261C979.131 265.478 980.593 266.417 982.178 266.417H1024.48C1026.06 266.243 1027.53 265.304 1027.77 264.122Z" fill="white"/>
<path d="M493.95 221.28C552.465 221.28 543.029 217.802 543.029 217.802C543.029 217.802 519.111 212.76 507.409 203.893H480.589C470.252 213.942 444.945 217.802 444.945 217.802C444.945 217.802 434.778 221.245 493.95 221.28Z" fill="white"/>
<path d="M526.668 250.49V224.966C519.354 225.522 508.821 225.905 493.778 225.905C478.735 225.905 468.544 225.592 461.23 225.035V250.455H477.76V248.717H473.152V246.456L475.59 242.979H480.149L482.587 246.456V247.639C483.327 246.765 483.947 245.704 484.416 244.509C484.979 243.084 485.733 241.832 486.635 240.823H483.831V238.424L486.269 234.946H491.023L493.461 238.424V239.502H494.705V238.702L497.143 235.224H501.897L504.335 238.702V241.136H501.702C502.781 242.237 503.714 243.603 504.457 245.17C504.793 245.852 505.159 246.503 505.554 247.117V246.456L507.992 242.979H512.43L514.868 246.456V248.821H509.992C510.003 249.064 510.003 249.308 509.992 249.551V250.56L526.668 250.49ZM471.884 248.717H462.376V246.456L464.814 242.979H469.373L471.811 246.456L471.884 248.717ZM471.884 240.823H462.351V238.354L464.789 235.05H469.544L471.982 238.528L471.884 240.823ZM471.884 232.964H462.376V230.391L464.594 227.191H469.471L471.909 230.669L471.884 232.964ZM482.612 240.858H473.103V238.458L475.541 234.981H480.418L482.856 238.458L482.612 240.858ZM482.612 232.964H473.103V230.391L475.371 227.157H480.247L482.539 230.634L482.612 232.964ZM493.364 232.964H483.855V230.425L486.147 227.157H491.023L493.291 230.425L493.364 232.964ZM504.116 232.964H494.607V230.495L497.045 227.018H501.922L504.165 230.252L504.116 232.964ZM516.087 230.564L518.525 227.087H523.401L525.595 230.217V232.86H516.087V230.564ZM516.087 238.597L518.525 235.12H523.401L525.669 238.389V240.892H516.16L516.087 238.597ZM516.087 246.63L518.647 242.979H523.23L525.669 246.456V248.856H516.16L516.087 246.63ZM505.359 230.53L507.797 227.052H512.674L514.892 230.217V232.825H505.384L505.359 230.53ZM505.359 240.962V238.667L507.797 235.189H512.552L514.868 238.667V241.136L505.359 240.962Z" fill="white"/>
<path d="M564.337 266.278C564.337 266.278 542.248 264.296 528.96 253.794H508.968V260.366H507.847H507.091H506.384C505.408 260.377 504.444 260.07 503.565 259.467C502.686 258.864 501.915 257.982 501.312 256.889C500.599 255.581 499.606 254.641 498.484 254.211H489.536C488.649 254.559 487.889 255.381 487.415 256.506C486.772 257.828 485.899 258.887 484.881 259.582C483.864 260.277 482.738 260.583 481.613 260.471H478.711V254.246H459.011C448.113 263.253 423.61 266.695 423.61 266.695C423.61 266.695 441.555 269.825 494.315 269.825C546.563 269.373 564.337 266.278 564.337 266.278Z" fill="white"/>
<path d="M497.8 242.457H490.193C484.44 242.457 486.341 251.811 479.807 251.95V256.506H481.611C487.414 256.506 485.683 250.073 490.705 250.073H497.288C502.311 250.073 501.848 256.541 506.382 256.541H507.87V251.846C503.115 251.359 503.432 242.492 497.8 242.457Z" fill="white"/>
<path d="M542.93 273.406H444.748V291.663H443.626V330.784H444.723V330.993H444.894V301.4H449.331V331.062H454.671V301.4H459.108V331.062H464.447V301.4H468.885V331.062H477.125V304.008H509.991V331.097H519.134V301.4H523.596V331.097H528.911V301.4H533.348V331.097H538.687V301.4H543.125V330.923H543.832V291.663H542.978L542.93 273.406ZM453.915 299H447.21V294.201L448.015 293.019H452.891L453.866 294.41L453.915 299ZM455.426 291.732H445.674V289.229L448.112 285.751H452.988L455.426 289.229V291.732ZM455.426 284.43H445.674V281.891L448.112 278.414H452.988L455.426 281.891V284.43ZM464.886 299H457.572V295.14L458.913 293.228H463.789L464.959 294.862L464.886 299ZM466.105 291.663H456.353V289.124L458.791 285.647H463.667L466.105 289.124V291.663ZM466.105 284.36H456.353V281.822L458.791 278.344H463.667L466.105 281.822V284.36ZM476.882 298.931H468.299V294.688L469.494 292.984H474.37L476.808 296.462L476.882 298.931ZM476.882 291.663H467.129V289.124L469.567 285.647H474.443L476.882 289.124V291.663ZM476.882 284.36H467.129V281.822L469.567 278.344H474.443L476.882 281.822V284.36ZM487.658 298.966H477.906V296.462L480.344 292.984H485.22L487.658 296.462V298.966ZM487.658 291.663H477.906V289.124L480.344 285.647H485.22L487.658 289.124V291.663ZM487.658 284.395H477.906V281.891L480.344 278.414H485.22L487.658 281.891V284.395ZM498.459 298.966H488.706V296.427L491.144 292.95H496.021L498.459 296.427V298.966ZM498.459 291.663H488.706V289.124L491.144 285.647H496.021L498.459 289.124V291.663ZM498.459 284.395H488.706V281.856L491.144 278.379H496.021L498.459 281.856V284.395ZM509.259 298.966H499.507V296.427L501.945 292.95H506.821L509.259 296.427V298.966ZM509.259 291.663H499.507V289.124L501.945 285.647H506.821L509.259 289.124V291.663ZM509.259 284.395H499.507V281.856L501.945 278.379H506.821L509.259 281.856V284.395ZM518.866 298.966H510.259V296.427L512.697 292.95H517.573L518.866 294.827V298.966ZM520.06 291.698H510.308V289.159L512.746 285.682H517.622L520.06 289.159V291.698ZM520.06 284.395H510.308V281.856L512.746 278.379H517.622L520.06 281.856V284.395ZM529.13 298.966H522.425V294.48L523.449 293.019H528.325L529.081 294.097L529.13 298.966ZM530.861 291.698H521.109V289.159L523.547 285.682H528.423L530.861 289.159V291.698ZM530.861 284.395H521.109V281.856L523.547 278.379H528.423L530.861 281.856V284.395ZM540.101 299H532.787V295.314L534.348 293.054H539.224L540.15 294.41L540.101 299ZM541.686 291.663H531.934V289.124L534.372 285.647H539.248L541.686 289.124V291.663ZM541.686 284.395H531.934V281.856L534.372 278.379H539.248L541.686 281.856V284.395Z" fill="white"/>
<path d="M1074.44 137.056V132.57C1073.95 132.744 1073.56 133.891 1073.48 135.387C1069.31 127.486 1066.31 118.459 1064.66 108.854C1064.74 107.217 1064.63 105.574 1064.34 103.985C1064.06 105.574 1063.95 107.217 1064.03 108.854C1062.63 118.61 1059.61 127.745 1055.22 135.491C1055.22 133.961 1054.76 132.744 1054.27 132.57V137.021V139.316H1074.51V137.021L1074.44 137.056Z" fill="white"/>
<path d="M1079.82 170.474L1073.19 155.695H1055.2L1048.59 170.474C1048.35 169.118 1047.93 168.179 1047.45 167.971V178.403H1080.94V167.971C1080.51 168.179 1080.07 169.118 1079.82 170.474ZM1074.14 164.632C1074.39 164.624 1074.63 164.706 1074.85 164.87C1075.07 165.035 1075.25 165.276 1075.39 165.571L1076.56 168.84H1073.75L1073.36 165.571C1073.19 165.015 1073.65 164.632 1074.14 164.632ZM1069.95 157.677C1070.18 157.667 1070.41 157.75 1070.6 157.916C1070.8 158.082 1070.96 158.325 1071.07 158.616L1071.88 161.885H1069.07V158.616C1069.05 157.99 1069.44 157.573 1069.95 157.573V157.677ZM1066.71 165.676C1066.71 165.119 1067.19 164.737 1067.68 164.737C1067.9 164.702 1068.13 164.776 1068.32 164.947C1068.51 165.117 1068.65 165.374 1068.73 165.676L1069.22 168.944H1066.41L1066.71 165.676ZM1063.32 158.721C1063.4 158.429 1063.54 158.18 1063.72 158.011C1063.91 157.842 1064.12 157.761 1064.34 157.782C1064.56 157.756 1064.78 157.834 1064.97 158.003C1065.15 158.173 1065.29 158.425 1065.37 158.721L1065.76 161.99H1062.95L1063.32 158.721ZM1059.95 165.676C1060.03 165.374 1060.17 165.117 1060.36 164.947C1060.55 164.776 1060.78 164.702 1061 164.737C1061.22 164.701 1061.43 164.776 1061.61 164.948C1061.79 165.12 1061.92 165.379 1061.98 165.676L1062.27 168.944H1059.47L1059.95 165.676ZM1057.39 158.721C1057.5 158.429 1057.66 158.186 1057.86 158.02C1058.06 157.854 1058.28 157.771 1058.51 157.782C1059.03 157.782 1059.42 158.199 1059.42 158.721V161.99H1056.61L1057.39 158.721ZM1053.44 165.676C1053.58 165.38 1053.76 165.139 1053.98 164.975C1054.2 164.81 1054.44 164.728 1054.69 164.737C1055.2 164.737 1055.54 165.119 1055.49 165.676L1055.08 168.944H1052.27L1053.44 165.676Z" fill="white"/>
<path d="M1073.48 152.809V142.133H1055.12V152.913L1073.48 152.809ZM1070.75 144.219C1070.75 143.915 1070.84 143.623 1070.99 143.408C1071.14 143.193 1071.34 143.072 1071.56 143.072C1071.77 143.072 1071.98 143.193 1072.13 143.408C1072.28 143.623 1072.36 143.915 1072.36 144.219V150.34C1072.36 150.644 1072.28 150.936 1072.13 151.151C1071.98 151.366 1071.77 151.487 1071.56 151.487C1071.45 151.492 1071.34 151.466 1071.25 151.41C1071.15 151.354 1071.06 151.269 1070.98 151.162C1070.91 151.054 1070.85 150.926 1070.81 150.784C1070.77 150.643 1070.75 150.492 1070.75 150.34V144.219ZM1067.07 144.219C1067.1 143.945 1067.2 143.696 1067.35 143.517C1067.5 143.337 1067.69 143.239 1067.89 143.239C1068.08 143.239 1068.27 143.337 1068.42 143.517C1068.57 143.696 1068.67 143.945 1068.7 144.219V150.34C1068.67 150.614 1068.57 150.863 1068.42 151.042C1068.27 151.222 1068.08 151.32 1067.89 151.32C1067.69 151.32 1067.5 151.222 1067.35 151.042C1067.2 150.863 1067.1 150.614 1067.07 150.34V144.219ZM1063.41 144.219C1063.45 143.945 1063.55 143.696 1063.7 143.517C1063.85 143.337 1064.04 143.239 1064.23 143.239C1064.43 143.239 1064.61 143.337 1064.76 143.517C1064.91 143.696 1065.01 143.945 1065.05 144.219V150.34C1065.01 150.614 1064.91 150.863 1064.76 151.042C1064.61 151.222 1064.43 151.32 1064.23 151.32C1064.04 151.32 1063.85 151.222 1063.7 151.042C1063.55 150.863 1063.45 150.614 1063.41 150.34V144.219ZM1059.76 144.219C1059.79 143.945 1059.89 143.696 1060.04 143.517C1060.19 143.337 1060.38 143.239 1060.57 143.239C1060.77 143.239 1060.96 143.337 1061.11 143.517C1061.26 143.696 1061.36 143.945 1061.39 144.219V150.34C1061.36 150.614 1061.26 150.863 1061.11 151.042C1060.96 151.222 1060.77 151.32 1060.57 151.32C1060.38 151.32 1060.19 151.222 1060.04 151.042C1059.89 150.863 1059.79 150.614 1059.76 150.34V144.219ZM1056.1 144.219C1056.13 143.945 1056.23 143.696 1056.38 143.517C1056.53 143.337 1056.72 143.239 1056.92 143.239C1057.11 143.239 1057.3 143.337 1057.45 143.517C1057.6 143.696 1057.7 143.945 1057.73 144.219V150.34C1057.7 150.614 1057.6 150.863 1057.45 151.042C1057.3 151.222 1057.11 151.32 1056.92 151.32C1056.72 151.32 1056.53 151.222 1056.38 151.042C1056.23 150.863 1056.13 150.614 1056.1 150.34V144.219Z" fill="white"/>
<path d="M1076.51 245.378V252.959C1076.5 253.334 1076.39 253.692 1076.21 253.957C1076.02 254.223 1075.77 254.376 1075.51 254.385C1075.24 254.385 1074.99 254.234 1074.8 253.967C1074.61 253.7 1074.51 253.337 1074.51 252.959V245.378H1072.07V252.959C1072.07 253.146 1072.04 253.331 1071.99 253.504C1071.94 253.677 1071.87 253.835 1071.78 253.967C1071.68 254.099 1071.57 254.204 1071.45 254.276C1071.33 254.348 1071.2 254.385 1071.07 254.385C1070.81 254.376 1070.56 254.223 1070.37 253.957C1070.18 253.692 1070.08 253.334 1070.07 252.959V245.378H1067.63V252.959C1067.63 253.334 1067.52 253.692 1067.33 253.957C1067.15 254.223 1066.9 254.376 1066.63 254.385C1066.37 254.385 1066.11 254.234 1065.93 253.967C1065.74 253.7 1065.63 253.337 1065.63 252.959V245.378H1063.19V252.959C1063.19 253.337 1063.09 253.7 1062.9 253.967C1062.71 254.234 1062.46 254.385 1062.19 254.385C1061.93 254.385 1061.68 254.234 1061.49 253.967C1061.3 253.7 1061.2 253.337 1061.2 252.959V245.378H1058.76V252.959C1058.75 253.334 1058.64 253.692 1058.46 253.957C1058.27 254.223 1058.02 254.376 1057.76 254.385C1057.49 254.385 1057.24 254.234 1057.05 253.967C1056.86 253.7 1056.76 253.337 1056.76 252.959V245.378H1054.32V252.959C1054.32 253.337 1054.21 253.7 1054.03 253.967C1053.84 254.234 1053.59 254.385 1053.32 254.385C1053.06 254.385 1052.8 254.234 1052.61 253.967C1052.43 253.7 1052.32 253.337 1052.32 252.959V245.378H1051V260.644H1078.07V245.378H1076.51Z" fill="white"/>
<path d="M1052 191.999V186.714C1052 186.335 1052.11 185.973 1052.3 185.705C1052.48 185.438 1052.74 185.288 1053 185.288C1053.27 185.288 1053.52 185.438 1053.71 185.705C1053.9 185.973 1054 186.335 1054 186.714V191.999H1056.44V186.714C1056.44 186.335 1056.55 185.973 1056.73 185.705C1056.92 185.438 1057.18 185.288 1057.44 185.288C1057.7 185.297 1057.96 185.45 1058.14 185.715C1058.33 185.981 1058.43 186.338 1058.44 186.714V191.999H1060.88V186.714C1060.88 186.335 1060.98 185.973 1061.17 185.705C1061.36 185.438 1061.61 185.288 1061.88 185.288C1062.14 185.288 1062.4 185.438 1062.59 185.705C1062.77 185.973 1062.88 186.335 1062.88 186.714V191.999H1065.32V186.714C1065.32 186.335 1065.42 185.973 1065.61 185.705C1065.8 185.438 1066.05 185.288 1066.32 185.288C1066.58 185.297 1066.83 185.45 1067.02 185.715C1067.2 185.981 1067.31 186.338 1067.32 186.714V191.999H1069.75V186.714C1069.76 186.338 1069.87 185.981 1070.05 185.715C1070.24 185.45 1070.49 185.297 1070.75 185.288C1071.02 185.288 1071.27 185.438 1071.46 185.705C1071.65 185.973 1071.75 186.335 1071.75 186.714V191.999H1074.19V186.714C1074.19 186.335 1074.3 185.973 1074.48 185.705C1074.67 185.438 1074.93 185.288 1075.19 185.288C1075.45 185.297 1075.7 185.45 1075.89 185.715C1076.08 185.981 1076.18 186.338 1076.19 186.714V191.999H1077.43V181.08H1050.37V191.999H1052Z" fill="white"/>
<path d="M1077.75 320.596V271.494H1050.69V320.596H1077.75ZM1074.61 277.128C1074.61 276.75 1074.71 276.387 1074.9 276.119C1075.09 275.852 1075.34 275.702 1075.61 275.702C1075.87 275.702 1076.13 275.852 1076.31 276.119C1076.5 276.387 1076.61 276.75 1076.61 277.128V312.911C1076.61 313.289 1076.5 313.651 1076.31 313.919C1076.13 314.186 1075.87 314.336 1075.61 314.336C1075.34 314.336 1075.09 314.186 1074.9 313.919C1074.71 313.651 1074.61 313.289 1074.61 312.911V277.128ZM1070.12 277.128C1070.12 276.94 1070.15 276.755 1070.2 276.582C1070.25 276.409 1070.32 276.252 1070.41 276.119C1070.51 275.987 1070.62 275.882 1070.74 275.81C1070.86 275.739 1070.99 275.702 1071.12 275.702C1071.38 275.702 1071.64 275.852 1071.83 276.119C1072.01 276.387 1072.12 276.75 1072.12 277.128V312.911C1072.12 313.289 1072.01 313.651 1071.83 313.919C1071.64 314.186 1071.38 314.336 1071.12 314.336C1070.99 314.336 1070.86 314.299 1070.74 314.228C1070.62 314.156 1070.51 314.051 1070.41 313.919C1070.32 313.786 1070.25 313.629 1070.2 313.456C1070.15 313.283 1070.12 313.098 1070.12 312.911V277.128ZM1065.61 277.128C1065.61 276.75 1065.71 276.387 1065.9 276.119C1066.09 275.852 1066.34 275.702 1066.61 275.702C1066.87 275.702 1067.13 275.852 1067.32 276.119C1067.5 276.387 1067.61 276.75 1067.61 277.128V312.911C1067.61 313.289 1067.5 313.651 1067.32 313.919C1067.13 314.186 1066.87 314.336 1066.61 314.336C1066.34 314.336 1066.09 314.186 1065.9 313.919C1065.71 313.651 1065.61 313.289 1065.61 312.911V277.128ZM1061.1 277.128C1061.1 276.75 1061.2 276.387 1061.39 276.119C1061.58 275.852 1061.83 275.702 1062.1 275.702C1062.36 275.702 1062.62 275.852 1062.81 276.119C1062.99 276.387 1063.1 276.75 1063.1 277.128V312.911C1063.1 313.289 1062.99 313.651 1062.81 313.919C1062.62 314.186 1062.36 314.336 1062.1 314.336C1061.83 314.336 1061.58 314.186 1061.39 313.919C1061.2 313.651 1061.1 313.289 1061.1 312.911V277.128ZM1056.61 277.128C1056.61 276.75 1056.72 276.387 1056.91 276.119C1057.09 275.852 1057.35 275.702 1057.61 275.702C1057.88 275.702 1058.13 275.852 1058.32 276.119C1058.51 276.387 1058.61 276.75 1058.61 277.128V312.911C1058.61 313.289 1058.51 313.651 1058.32 313.919C1058.13 314.186 1057.88 314.336 1057.61 314.336C1057.35 314.336 1057.09 314.186 1056.91 313.919C1056.72 313.651 1056.61 313.289 1056.61 312.911V277.128ZM1052.1 277.128C1052.1 276.75 1052.21 276.387 1052.4 276.119C1052.58 275.852 1052.84 275.702 1053.1 275.702C1053.37 275.702 1053.62 275.852 1053.81 276.119C1054 276.387 1054.1 276.75 1054.1 277.128V312.911C1054.1 313.289 1054 313.651 1053.81 313.919C1053.62 314.186 1053.37 314.336 1053.1 314.336C1052.84 314.336 1052.58 314.186 1052.4 313.919C1052.21 313.651 1052.1 313.289 1052.1 312.911V277.128Z" fill="white"/>
<path d="M1080.04 263.184H1048.4V268.782H1080.04V263.184Z" fill="white"/>
<path d="M1080.04 323.934H1048.4V329.532H1080.04V323.934Z" fill="white"/>
<path d="M1047.54 194.607V242.214H1080.9V194.607H1047.54ZM1063.98 232.859C1061.97 232.859 1060 232.009 1058.33 230.416C1056.66 228.822 1055.35 226.557 1054.58 223.908C1053.81 221.258 1053.61 218.342 1054 215.529C1054.4 212.717 1055.37 210.133 1056.79 208.105C1058.21 206.077 1060.02 204.696 1061.99 204.136C1063.96 203.577 1066.01 203.864 1067.87 204.961C1069.72 206.059 1071.31 207.917 1072.43 210.302C1073.55 212.687 1074.14 215.49 1074.14 218.358C1074.13 222.192 1073.05 225.863 1071.15 228.567C1069.24 231.272 1066.66 232.79 1063.98 232.79V232.859Z" fill="white"/>
<path d="M1064.61 219.715V220.132L1063.66 219.68H1063.27V219.506L1062.73 219.263L1065.73 209.248L1066.27 209.491L1064.95 217.907L1072.63 218.88C1072.64 218.684 1072.64 218.486 1072.63 218.289C1072.49 215.077 1071.49 212.066 1069.82 209.896C1068.15 207.725 1065.96 206.566 1063.7 206.663C1061.45 206.76 1059.31 208.106 1057.74 210.416C1056.17 212.726 1055.29 215.818 1055.29 219.037C1055.29 222.256 1056.17 225.348 1057.74 227.657C1059.31 229.967 1061.45 231.314 1063.7 231.411C1065.96 231.508 1068.15 230.349 1069.82 228.178C1071.49 226.008 1072.49 222.997 1072.63 219.785L1064.61 219.715Z" fill="white"/>
<path d="M581.233 186.887C581.233 188.068 580.904 189.2 580.319 190.035C579.734 190.869 578.94 191.338 578.112 191.338C577.289 191.329 576.501 190.856 575.921 190.022C575.341 189.189 575.016 188.062 575.016 186.887V182.436C575.016 181.265 575.342 180.141 575.923 179.313C576.503 178.485 577.291 178.02 578.112 178.02C578.521 178.015 578.926 178.126 579.305 178.346C579.683 178.566 580.027 178.89 580.318 179.301C580.608 179.711 580.838 180.2 580.995 180.738C581.152 181.276 581.233 181.853 581.233 182.436V186.887Z" fill="white"/>
<path d="M579.819 187.861H576.405V197.703H579.819V187.861Z" fill="white"/>
<path d="M589.01 266.695C587.545 263.963 585.528 261.936 583.231 260.888V194.816L587.327 195.512L589.01 266.695Z" fill="white"/>
<path d="M573.578 193.843C574.099 193.651 574.628 193.512 575.163 193.426V190.4C574.617 189.41 574.324 188.183 574.334 186.923V182.054C574.334 180.625 574.732 179.254 575.441 178.243C576.149 177.232 577.11 176.664 578.113 176.664C579.115 176.664 580.076 177.232 580.785 178.243C581.494 179.254 581.892 180.625 581.892 182.054V186.923C581.901 188.183 581.609 189.41 581.063 190.4V193.426C581.605 193.512 582.143 193.652 582.672 193.843H582.867L582.55 181.428C582.376 179.934 581.835 178.577 581.025 177.598C580.215 176.618 579.187 176.081 578.125 176.081C577.063 176.081 576.035 176.618 575.225 177.598C574.415 178.577 573.874 179.934 573.7 181.428L573.383 193.843H573.578Z" fill="white"/>
<path d="M582.136 199.65V194.921C579.479 194.179 576.747 194.179 574.09 194.921V199.65C574.096 200.179 574.248 200.683 574.513 201.054C574.777 201.424 575.133 201.632 575.504 201.632H580.697C580.883 201.637 581.067 201.589 581.24 201.492C581.413 201.395 581.571 201.25 581.704 201.066C581.838 200.882 581.945 200.662 582.019 200.419C582.093 200.176 582.132 199.915 582.136 199.65Z" fill="white"/>
<path d="M581.331 210.465C575.929 210.511 570.569 209.108 565.532 206.327C561.644 204.286 558.18 200.876 555.462 196.416L573.041 194.747V199.789C573.041 200.629 573.275 201.434 573.691 202.027C574.107 202.62 574.671 202.954 575.26 202.954H580.989C581.401 202.961 581.806 202.805 582.16 202.502V210.43L581.331 210.465Z" fill="white"/>
<path d="M582.161 260.366C579.758 259.421 577.315 258.701 574.846 258.21C569.8 257.098 565.435 256.089 565.435 251.499C565.435 246.909 565.435 239.815 565.435 232.477C565.435 226.009 565.435 219.889 565.435 216.968V216.759C562.485 212.76 553.684 212.273 549.856 212.239C545.906 205.284 544.98 200.485 544.98 197.564L554.22 196.694C555.893 199.76 557.952 202.354 560.291 204.345C566.683 209.591 573.958 212.249 581.332 212.03H582.161V260.366Z" fill="white"/>
<path d="M588.23 195.72L588.791 217.245C594.065 213.749 599.822 211.99 605.638 212.098C609.587 205.144 610.514 200.345 610.514 197.424C603.07 197.441 595.63 196.873 588.23 195.72Z" fill="white"/>
<path d="M544.125 197.39H542.93C541.857 197.39 541.809 194.643 540.224 194.817L536.567 195.06C536.323 195.06 536.03 195.547 535.86 196.173L532.983 196.347C532.471 196.347 532.227 197.599 532.373 198.885C532.52 200.172 532.91 200.902 533.3 201.041L539.029 202.745C539.472 202.814 539.919 202.744 540.34 202.539C540.761 202.335 541.146 202.002 541.467 201.563L544.71 202.015C544.342 200.528 544.144 198.966 544.125 197.39Z" fill="white"/>
<path d="M611.416 197.39H612.636C613.684 197.39 613.757 194.643 615.342 194.817L618.999 195.06C619.243 195.06 619.535 195.547 619.706 196.173L622.559 196.347C623.071 196.347 623.339 197.599 623.192 198.885C623.046 200.172 622.656 200.902 622.266 201.041L616.512 202.745C616.07 202.816 615.622 202.747 615.2 202.543C614.779 202.338 614.394 202.004 614.074 201.563L610.831 202.015C611.215 200.534 611.413 198.969 611.416 197.39Z" fill="white"/>
<path d="M589.621 299.452L588.84 268.155L588.353 267.147C586.992 264.604 585.108 262.731 582.965 261.792L582.453 261.513L581.916 261.27C579.516 260.321 577.072 259.613 574.602 259.149C571.787 258.828 569.035 257.779 566.483 256.054L565.41 299.278L589.621 299.452Z" fill="white"/>
<path d="M593.545 301.47H562.093V307.52H593.545V301.47Z" fill="white"/>
<path d="M595.568 310.059H560.045V329.811H595.568V310.059Z" fill="white"/>
<path d="M227.684 224.652H126.283V231.12C126.29 231.714 126.459 232.28 126.756 232.696C127.052 233.113 127.452 233.346 127.868 233.346H226.099C226.515 233.346 226.914 233.113 227.211 232.696C227.507 232.28 227.677 231.714 227.684 231.12V224.652Z" fill="white"/>
<path d="M120.749 220.967H233.219C233.639 220.967 234.042 220.729 234.339 220.305C234.636 219.881 234.803 219.306 234.803 218.707V214.881L176.972 186.019L119.165 214.881V218.637C119.158 218.94 119.194 219.241 119.271 219.523C119.348 219.806 119.463 220.063 119.611 220.281C119.759 220.498 119.936 220.671 120.131 220.788C120.327 220.906 120.537 220.967 120.749 220.967Z" fill="white"/>
<path d="M126.283 305.121V309.051H227.684V305.086C227.684 304.487 227.517 303.912 227.22 303.488C226.922 303.064 226.519 302.826 226.099 302.826H127.868C127.658 302.826 127.45 302.886 127.256 303.001C127.062 303.117 126.886 303.287 126.739 303.5C126.591 303.714 126.475 303.967 126.397 304.246C126.319 304.524 126.28 304.822 126.283 305.121Z" fill="white"/>
<path d="M235.339 314.753C235.339 314.154 235.172 313.579 234.875 313.155C234.578 312.731 234.175 312.493 233.755 312.493H120.188C119.772 312.502 119.375 312.744 119.083 313.167C118.791 313.59 118.628 314.16 118.628 314.753V318.718H235.339V314.753Z" fill="white"/>
<path d="M241.41 322.96H112.581C112.165 322.969 111.768 323.211 111.477 323.634C111.185 324.057 111.021 324.627 111.021 325.22V329.185H242.995V325.22C242.995 324.621 242.828 324.046 242.531 323.622C242.234 323.198 241.831 322.96 241.41 322.96Z" fill="white"/>
<path d="M127.99 297.923V298.375H137.743V297.923C137.735 296.925 137.49 295.961 137.047 295.19C136.603 294.419 135.989 293.886 135.305 293.68V242.979C135.991 242.766 136.606 242.227 137.049 241.45C137.492 240.672 137.737 239.703 137.743 238.702V236.615H127.99V238.702C127.996 239.703 128.241 240.672 128.684 241.45C129.127 242.227 129.742 242.766 130.428 242.979V293.645C129.74 293.852 129.122 294.39 128.679 295.169C128.235 295.947 127.992 296.919 127.99 297.923Z" fill="white"/>
<path d="M140.547 297.923V298.375H150.299V297.923C150.292 296.925 150.047 295.961 149.603 295.19C149.16 294.419 148.545 293.886 147.861 293.68V242.979C148.547 242.766 149.163 242.227 149.606 241.45C150.049 240.672 150.293 239.703 150.299 238.702V236.615H140.547V238.702C140.557 239.702 140.804 240.667 141.246 241.443C141.688 242.219 142.301 242.76 142.985 242.979V293.645C142.299 293.858 141.684 294.398 141.241 295.175C140.798 295.952 140.553 296.921 140.547 297.923Z" fill="white"/>
<path d="M153.128 297.923V298.375H162.88V297.923C162.869 296.927 162.621 295.966 162.179 295.196C161.736 294.426 161.124 293.892 160.442 293.68V242.979C161.126 242.76 161.739 242.219 162.181 241.443C162.624 240.667 162.87 239.702 162.88 238.702V236.615H153.128V238.702C153.127 239.68 153.354 240.631 153.774 241.405C154.193 242.179 154.78 242.733 155.444 242.979V293.645C154.778 293.886 154.188 294.439 153.768 295.214C153.349 295.989 153.123 296.943 153.128 297.923Z" fill="white"/>
<path d="M165.683 297.923V298.375H175.436V297.923C175.429 296.925 175.183 295.961 174.74 295.19C174.296 294.419 173.682 293.886 172.998 293.68V242.979C173.684 242.766 174.299 242.227 174.742 241.45C175.185 240.672 175.43 239.703 175.436 238.702V236.615H165.683V238.702C165.694 239.702 165.94 240.667 166.382 241.443C166.825 242.219 167.437 242.76 168.121 242.979V293.645C167.435 293.858 166.82 294.398 166.377 295.175C165.934 295.952 165.689 296.921 165.683 297.923Z" fill="white"/>
<path d="M178.264 297.923V298.375H188.017V297.923C188.013 296.955 187.787 296.016 187.373 295.249C186.959 294.483 186.38 293.932 185.725 293.68V242.979C186.384 242.726 186.966 242.17 187.38 241.396C187.795 240.622 188.018 239.675 188.017 238.702V236.615H178.264V238.702C178.262 239.675 178.486 240.622 178.9 241.396C179.315 242.17 179.897 242.726 180.556 242.979V293.645C179.897 293.898 179.315 294.455 178.9 295.228C178.486 296.002 178.262 296.949 178.264 297.923Z" fill="white"/>
<path d="M190.821 297.923V298.375H200.574V297.923C200.566 296.925 200.321 295.961 199.878 295.19C199.434 294.419 198.82 293.886 198.135 293.68V242.979C198.822 242.766 199.437 242.227 199.88 241.45C200.323 240.672 200.567 239.703 200.574 238.702V236.615H190.821V238.702C190.815 239.662 191.028 240.599 191.428 241.37C191.829 242.142 192.394 242.707 193.04 242.979V293.645C192.392 293.912 191.824 294.476 191.423 295.249C191.022 296.022 190.811 296.961 190.821 297.923Z" fill="white"/>
<path d="M203.4 297.923V298.375H213.153V297.923C213.149 296.955 212.923 296.016 212.509 295.249C212.095 294.483 211.516 293.932 210.861 293.68V242.979C211.52 242.726 212.102 242.17 212.516 241.396C212.931 240.622 213.154 239.675 213.153 238.702V236.615H203.4V238.702C203.398 239.675 203.622 240.622 204.036 241.396C204.451 242.17 205.033 242.726 205.692 242.979V293.645C205.033 293.898 204.451 294.455 204.036 295.228C203.622 296.002 203.398 296.949 203.4 297.923Z" fill="white"/>
<path d="M215.958 297.923V298.375H225.71V297.923C225.698 296.927 225.451 295.966 225.009 295.196C224.566 294.426 223.954 293.892 223.272 293.68V242.979C223.956 242.76 224.569 242.219 225.011 241.443C225.453 240.667 225.7 239.702 225.71 238.702V236.615H215.958V238.702C215.957 239.68 216.184 240.631 216.603 241.405C217.023 242.179 217.61 242.733 218.274 242.979V293.645C217.608 293.886 217.018 294.439 216.598 295.214C216.178 295.989 215.953 296.943 215.958 297.923Z" fill="white"/>
<path d="M355.88 153.087L295.074 271.529L259.282 201.98L221.516 275.632C221.663 276.815 221.785 277.997 221.906 279.11L259.282 206.083L261.233 209.908L282.249 296.497L265.183 329.811H205.132C204.084 330.715 203.011 331.55 201.89 332.349H266.06H447.845L355.88 153.087ZM380.261 253.481H369.655V240.197H376.969L380.261 253.481ZM376.628 238.424H360.927V225.105H373.41L376.628 238.424ZM352.247 240.162H368.582V253.411H352.125L352.247 240.162ZM343.519 238.389V225.105H360V238.424L343.519 238.389ZM369.606 210.048H369.728L372.946 223.366H369.606V210.048ZM297.122 272.016H297.78V285.3H290.295L297.122 272.016ZM324.233 300.357H307.63V287.073H324.111L324.233 300.357ZM332.864 302.13V315.414H316.407V302.096L332.864 302.13ZM315.505 302.13V315.414H299.048V302.096L315.505 302.13ZM315.139 285.3H298.609V272.016H315.066L315.139 285.3ZM306.874 287.073V300.357H290.319V287.073H306.874ZM289.393 287.073H289.515V300.357H282.566L289.393 287.073ZM281.615 302.096H298.073V315.38H281.615V302.096ZM280.713 303.765V315.38H274.764L280.713 303.765ZM273.935 316.979H344.201V315.38H333.62V302.096H348.005V300.322H324.965V287.038H336.887C336.839 286.449 336.839 285.854 336.887 285.265H316.163V271.981H345.225C345.201 271.39 345.201 270.798 345.225 270.207H297.877L355.807 157.329L357.781 161.155L369.241 208.205H350.93V209.978H368.582V223.297H332.718V225.07H342.47V238.354H332.718V240.127H351.272V253.411H342.105V255.185H380.578L398.595 329.915H267.401L273.935 316.979Z" fill="white"/>
<path d="M1218.5 262.001H1192.78V242.249L1201 247.013H1210.48L1218.5 242.353V262.001ZM1177.32 267.321L1177.18 268.225H1234.11L1233.98 267.321C1233.75 266.367 1233.31 265.548 1232.72 264.989C1232.13 264.43 1231.42 264.162 1230.72 264.226H1180.47C1179.78 264.195 1179.1 264.479 1178.54 265.036C1177.97 265.593 1177.55 266.394 1177.32 267.321ZM1171.2 241.031C1173.11 207.405 1188.83 190.087 1195.02 189.426C1197.08 188.998 1199.16 188.742 1201.24 188.661H1202.36L1201.75 190.156L1204.19 203.092H1207.53L1209.97 190.156L1209.36 188.661H1210.26C1212.34 188.742 1214.42 188.998 1216.48 189.426C1222.67 190.122 1238.42 207.439 1240.32 241.031C1240.81 249.864 1229.4 253.342 1230.57 261.896H1230.01C1228.4 253.203 1239.59 249.725 1238.57 241.031C1236.7 222.789 1230.06 206.23 1219.99 194.677C1220.1 195.443 1220.16 196.224 1220.16 197.007V210.082C1220.55 209.464 1221.03 208.989 1221.58 208.699C1222.12 208.408 1222.7 208.31 1223.28 208.413C1225.52 208.969 1226.89 213.177 1226.3 217.802C1225.72 222.427 1223.43 225.731 1221.21 225.174C1220.84 225.06 1220.48 224.847 1220.16 224.548V233.937C1220.17 236.234 1219.67 238.476 1218.72 240.336L1210.33 245.17H1201.36L1193 240.336C1192.04 238.488 1191.53 236.238 1191.56 233.937V225.035H1191.27C1189.03 225.592 1186.73 222.323 1186.17 217.698C1185.61 213.073 1186.93 208.83 1189.17 208.274C1189.6 208.169 1190.03 208.189 1190.45 208.333C1190.87 208.476 1191.26 208.74 1191.61 209.108V196.868C1191.62 196.086 1191.68 195.306 1191.78 194.538C1181.7 206.099 1175.07 222.672 1173.2 240.927C1172.18 249.725 1183.37 253.203 1181.76 261.792H1181.22C1182.1 253.411 1170.72 249.934 1171.2 241.031ZM1211.29 232.686C1209.45 233.352 1207.55 233.668 1205.65 233.624C1203.69 233.616 1201.74 233.301 1199.83 232.686C1200.48 233.984 1201.35 235.039 1202.35 235.762C1203.35 236.485 1204.46 236.855 1205.58 236.842C1206.7 236.828 1207.81 236.431 1208.8 235.684C1209.79 234.936 1210.64 233.861 1211.29 232.546V232.686ZM1211.29 232.686C1207.58 230.83 1203.54 230.83 1199.83 232.686C1199.83 232.686 1203.07 232.129 1205.51 232.129C1207.4 232.168 1209.29 232.354 1211.16 232.686H1211.29ZM1207.65 216.689C1209.36 217.176 1214.31 218.567 1217.41 215.959C1219.23 208.135 1213.21 204.936 1208.73 207.265C1207.46 207.891 1207.43 213.281 1207.65 216.655V216.689ZM1202.58 228.026H1208.73L1205.7 215.681L1202.58 228.026ZM1193.71 213.594C1193.89 214.296 1194.02 215.017 1194.12 215.75C1194.13 215.854 1194.13 215.96 1194.12 216.063C1197.27 218.532 1202.12 217.176 1203.87 216.689C1204.09 213.212 1204.09 207.961 1202.78 207.265C1198.68 205.144 1193.46 207.509 1193.71 213.56V213.594ZM1221.28 235.363C1221.3 235.583 1221.3 235.804 1221.28 236.024V236.546V237.032C1221.28 237.241 1221.28 237.45 1221.16 237.624V238.006L1221.01 238.667V238.91L1220.79 239.606L1220.55 240.232L1220.26 240.858V261.722H1228.99C1228.23 256.437 1231.25 252.646 1233.64 249.725C1236.03 246.804 1237.98 244.335 1237.59 241.031C1235.85 224.722 1230.28 209.739 1221.79 198.537V206.431C1222.2 206.254 1222.62 206.16 1223.04 206.153H1223.67C1224.62 206.41 1225.47 207.107 1226.11 208.135C1226.54 208.806 1226.89 209.569 1227.16 210.395C1227.86 212.706 1228.04 215.266 1227.69 217.733C1227.58 219.964 1226.94 222.073 1225.86 223.701C1224.79 225.33 1223.35 226.378 1221.79 226.67H1221.57V233.624C1221.57 233.972 1221.57 234.32 1221.57 234.668C1221.57 235.015 1221.31 235.224 1221.28 235.328V235.363ZM1191.46 262.035V240.753C1191.05 239.815 1190.73 238.796 1190.51 237.728C1190.51 237.172 1190.34 236.615 1190.27 236.059C1190.28 235.978 1190.28 235.896 1190.27 235.815C1190.25 235.248 1190.25 234.679 1190.27 234.111V227.156C1188.83 226.658 1187.54 225.532 1186.58 223.936C1185.61 222.34 1185.02 220.354 1184.88 218.254C1184.81 217.609 1184.76 216.959 1184.73 216.307C1184.67 214.456 1184.92 212.611 1185.44 210.917C1185.74 209.848 1186.22 208.901 1186.83 208.16C1187.45 207.42 1188.19 206.909 1188.98 206.674C1189.22 206.64 1189.47 206.64 1189.71 206.674H1190.24V199.024C1181.78 210.248 1176.23 225.224 1174.49 241.518C1174.1 244.787 1176.2 247.395 1178.44 250.177C1180.69 252.959 1183.86 256.889 1183.08 262.174L1191.46 262.035ZM1206.8 201.562L1208.21 188.626L1207.02 183.584H1204.58L1203.39 188.626L1204.8 201.562H1206.8ZM1193.19 316.005H1218.92V308.703H1193.19V316.005ZM1237.08 304.599H1238.98L1238.25 299.314H1172.89L1172.15 304.634H1174.91C1175.36 304.632 1175.8 304.798 1176.19 305.115C1176.58 305.432 1176.9 305.89 1177.13 306.442H1177.62C1177.55 307.076 1177.55 307.721 1177.62 308.355V332.697H1184.76L1183.61 309.329C1183.62 308.842 1183.55 308.359 1183.42 307.907C1183.3 307.456 1183.11 307.046 1182.86 306.7C1182.62 306.354 1182.34 306.079 1182.02 305.892C1181.71 305.704 1181.37 305.608 1181.03 305.608H1178.03C1178.51 304.995 1179.14 304.661 1179.79 304.669H1182.59C1183.04 304.67 1183.48 304.837 1183.87 305.154C1184.26 305.471 1184.58 305.927 1184.81 306.477H1185.3C1185.24 307.112 1185.24 307.754 1185.3 308.39V332.732H1192.41L1191.29 309.363C1191.29 308.377 1191.02 307.43 1190.53 306.732C1190.04 306.034 1189.38 305.643 1188.68 305.643H1185.88C1186.36 305.035 1186.97 304.701 1187.61 304.704H1190.42C1190.87 304.706 1191.31 304.873 1191.7 305.19C1192.1 305.506 1192.42 305.962 1192.66 306.512H1219.48C1219.69 305.935 1220.02 305.457 1220.41 305.131C1220.81 304.805 1221.26 304.645 1221.72 304.669H1224.52C1225.17 304.679 1225.78 305.025 1226.26 305.643H1223.45C1222.76 305.643 1222.1 306.034 1221.61 306.732C1221.12 307.43 1220.84 308.377 1220.84 309.363L1219.72 332.767H1226.79V308.424C1226.79 308.059 1226.84 307.695 1226.91 307.346C1226.84 307.081 1226.75 306.826 1226.65 306.581H1227.13C1227.36 306.018 1227.69 305.549 1228.08 305.22C1228.47 304.891 1228.92 304.713 1229.38 304.704H1232.18C1232.83 304.708 1233.45 305.055 1233.94 305.677H1231.13C1230.44 305.677 1229.78 306.069 1229.29 306.767C1228.8 307.465 1228.52 308.411 1228.52 309.398L1227.4 332.801H1234.52V308.459C1234.52 308.09 1234.57 307.723 1234.67 307.381C1234.59 307.116 1234.5 306.86 1234.4 306.616H1234.89C1235.09 305.986 1235.42 305.45 1235.83 305.07C1236.24 304.689 1236.71 304.478 1237.2 304.46L1237.08 304.599ZM1241.57 305.573H1238.98C1238.64 305.573 1238.3 305.669 1237.99 305.857C1237.67 306.044 1237.39 306.319 1237.15 306.665C1236.91 307.011 1236.72 307.421 1236.59 307.873C1236.46 308.324 1236.39 308.807 1236.4 309.294L1235.25 332.697H1242.4V308.355C1242.4 307.989 1242.44 307.626 1242.52 307.277C1242.35 306.613 1242.07 306.025 1241.69 305.573H1241.57ZM1250.25 308.355C1250.25 307.821 1250.17 307.292 1250.01 306.81C1249.85 306.327 1249.61 305.904 1249.32 305.573H1246.56C1245.87 305.573 1245.21 305.965 1244.72 306.663C1244.23 307.361 1243.96 308.307 1243.96 309.294L1242.83 332.697H1250.15L1250.25 308.355ZM1193.07 325.534H1218.79V318.37H1193.19L1193.07 325.534ZM1173.15 305.573H1170.37C1170.13 305.943 1169.95 306.384 1169.84 306.864C1169.73 307.345 1169.7 307.853 1169.74 308.355V332.697H1176.88L1175.76 309.329C1175.77 308.837 1175.7 308.349 1175.57 307.894C1175.44 307.439 1175.25 307.024 1175.01 306.675C1174.76 306.326 1174.48 306.049 1174.16 305.859C1173.84 305.67 1173.5 305.573 1173.15 305.573ZM1173.15 296.914H1238.01L1237.03 289.751H1174.2L1173.15 296.914ZM1174.47 287.386H1236.62L1235.62 280.222H1175.59L1174.47 287.386ZM1165.43 305.573H1162.62C1162.35 305.922 1162.12 306.35 1161.97 306.83C1161.82 307.309 1161.74 307.829 1161.74 308.355V332.697H1169.06L1168.03 309.05C1167.99 308.106 1167.7 307.221 1167.21 306.575C1166.73 305.929 1166.09 305.571 1165.43 305.573ZM1193.19 332.349H1218.92V327.898H1193.19V332.349ZM1175.86 277.753H1235.37L1234.37 270.59H1176.86L1175.86 277.753Z" fill="white"/>
<path d="M1280.43 325.638H0.429932V402.559H1280.43V325.638Z" fill="white"/>
</g>
<defs>
<clipPath id="clip0_391_1198">
<rect width="1280" height="333" fill="white" transform="translate(0.552002)"/>
</clipPath>
</defs>
</svg>
