<svg width="1921" height="383" viewBox="0 0 1921 383" fill="none" xmlns="http://www.w3.org/2000/svg">
<path d="M222.268 242.93C220.02 243.547 217.584 243.824 215.054 243.75C212.569 243.847 209.989 243.582 207.422 242.969C207.414 242.799 210.828 243.216 214.91 243.185C218.991 243.153 222.199 242.765 222.268 242.93Z" fill="#263238"/>
<path d="M243.451 231.915C242.164 233.496 240.539 234.84 238.634 235.9C236.874 237.113 234.84 238.047 232.6 238.67C232.478 238.524 235.171 237.296 238.164 235.435C241.156 233.574 243.304 231.79 243.451 231.915Z" fill="#263238" fill-opacity="0.8"/>
<path d="M202.813 238.549C200.979 237.659 199.297 236.386 197.828 234.775C196.245 233.341 194.869 231.575 193.747 229.538C193.861 229.386 195.675 231.725 198.173 234.211C200.671 236.696 202.901 238.377 202.813 238.549Z" fill="#263238" fill-opacity="0.8"/>
<path d="M254.676 210.983C254.671 213.083 254.27 215.098 253.487 216.957C252.987 218.29 252.379 219.576 251.669 220.81C251.444 221.354 251.124 221.854 250.718 222.296C250.765 221.69 250.936 221.117 251.225 220.6C251.69 219.614 252.242 218.227 252.785 216.67C253.957 213.596 254.483 210.926 254.676 210.983Z" fill="#263238" fill-opacity="0.8"/>
<path d="M660.868 228.758C661.847 228.418 662.861 228.302 663.868 228.413C664.876 228.305 665.89 228.421 666.868 228.758C665.89 229.094 664.876 229.211 663.868 229.103C662.861 229.214 661.847 229.097 660.868 228.758Z" fill="#263238"/>
<path d="M636.888 228.758C640.881 228.297 644.896 228.297 648.888 228.758C644.896 229.219 640.881 229.219 636.888 228.758Z" fill="#263238"/>
<path d="M612.918 228.758C616.911 228.296 620.926 228.296 624.918 228.758C620.926 229.219 616.911 229.219 612.918 228.758Z" fill="#263238"/>
<path d="M588.938 228.758C592.931 228.297 596.946 228.297 600.938 228.758C596.946 229.219 592.931 229.219 588.938 228.758Z" fill="#263238"/>
<path d="M564.969 228.758C568.961 228.296 572.976 228.296 576.969 228.758C572.976 229.219 568.961 229.219 564.969 228.758Z" fill="#263238"/>
<path d="M541.009 228.054C543.01 227.979 545.013 228.05 547.009 228.267C549.015 228.251 551.019 228.415 553.009 228.758C551.019 229.106 549.008 229.172 547.009 228.957C544.988 228.978 542.974 228.675 541.009 228.054Z" fill="#263238"/>
<path d="M519.808 215.175C519.938 215.029 521.598 217.831 524.268 220.393C526.938 222.956 529.428 224.284 529.358 224.496C528.771 224.383 528.203 224.136 527.678 223.766C526.366 223.008 525.119 222.064 523.958 220.951C522.267 219.462 520.849 217.488 519.808 215.175Z" fill="#263238"/>
<path d="M513.259 185.088C513.389 185.088 513.559 188.633 513.969 192.975C514.379 197.317 514.969 200.795 514.789 200.848C514.054 198.357 513.603 195.735 513.449 193.068C513.105 190.433 513.041 187.747 513.259 185.088Z" fill="#263238"/>
<path d="M504.528 156.104C506.017 157.91 507.283 160.016 508.278 162.344C509.413 164.563 510.261 167.018 510.789 169.607C510.649 169.686 509.579 166.42 507.839 162.702C506.099 158.985 504.408 156.236 504.528 156.104Z" fill="#263238"/>
<path d="M484.848 138.616C486.827 139.106 488.737 140.002 490.508 141.272C492.355 142.346 494.068 143.788 495.588 145.547C495.508 145.72 493.248 143.808 490.288 141.896C487.328 139.984 484.798 138.802 484.848 138.616Z" fill="#263238"/>
<path d="M461.128 137.395C463.03 136.504 465.023 136.006 467.038 135.921C468.457 135.805 469.88 135.805 471.298 135.921C471.887 135.892 472.475 135.968 473.048 136.147C472.48 136.363 471.889 136.453 471.298 136.412C470.208 136.412 468.718 136.505 467.078 136.678C463.798 136.93 461.158 137.594 461.128 137.395Z" fill="#263238"/>
<path d="M440.298 152.279C441.53 150.153 443.012 148.305 444.688 146.808C446.258 145.121 448.02 143.776 449.908 142.825C449.978 143.011 447.638 144.75 444.998 147.353C442.358 149.955 440.408 152.425 440.298 152.279Z" fill="#263238"/>
<path d="M429.828 180.282C429.982 174.911 431.177 169.683 433.298 165.105C433.438 165.198 432.298 168.398 431.298 172.594C430.298 176.79 429.988 180.308 429.828 180.282Z" fill="#263238"/>
<path d="M429.279 212.094C429.051 209.45 428.994 206.785 429.109 204.128C429.048 201.464 429.165 198.798 429.459 196.161C429.686 198.805 429.742 201.471 429.629 204.128C429.689 206.792 429.572 209.458 429.279 212.094Z" fill="#263238"/>
<path d="M428.938 243.92C428.703 241.277 428.643 238.611 428.758 235.954C428.704 233.29 428.821 230.625 429.108 227.987C429.343 230.631 429.403 233.296 429.288 235.954C429.343 238.618 429.225 241.283 428.938 243.92Z" fill="#263238"/>
<path d="M428.589 275.748C428.36 273.103 428.303 270.438 428.418 267.781C428.358 265.117 428.475 262.451 428.768 259.814C428.996 262.459 429.053 265.124 428.938 267.781C429 270.445 428.883 273.111 428.589 275.748Z" fill="#263238"/>
<path d="M421.979 305.755C421.849 305.635 423.359 302.688 424.799 298.758C426.239 294.827 427.029 291.442 427.179 291.495C426.867 294.144 426.217 296.703 425.259 299.063C424.453 301.52 423.344 303.782 421.979 305.755Z" fill="#263238"/>
<path d="M403.178 324.755C403.128 324.569 405.618 323.242 408.498 321.13C411.378 319.019 413.558 316.948 413.648 317.147C412.209 319.021 410.555 320.581 408.748 321.768C407.021 323.143 405.141 324.151 403.178 324.755Z" fill="#263238"/>
<path d="M379.538 328.419C381.529 328.102 383.535 327.991 385.538 328.087H387.868H389.768C390.357 328.022 390.95 328.071 391.528 328.233C390.962 328.466 390.371 328.583 389.778 328.579L387.868 328.765C387.158 328.765 386.368 328.765 385.538 328.765C383.535 328.902 381.526 328.787 379.538 328.419Z" fill="#263238"/>
<path d="M356.888 319.284C356.978 319.112 359.248 320.997 362.238 322.816C365.228 324.635 367.768 325.764 367.728 325.963C365.737 325.526 363.81 324.674 362.018 323.44C360.157 322.414 358.427 321.012 356.888 319.284Z" fill="#263238"/>
<path d="M341.938 295.053C342.088 294.986 343.088 298.292 344.758 302.05C346.428 305.808 348.088 308.596 347.968 308.689C346.496 306.858 345.259 304.718 344.309 302.355C343.22 300.112 342.419 297.644 341.938 295.053Z" fill="#263238"/>
<path d="M339.668 263.585C339.926 266.226 340.013 268.891 339.928 271.552C340.013 274.212 339.926 276.877 339.668 279.518C339.406 276.878 339.319 274.212 339.408 271.552C339.318 268.891 339.405 266.225 339.668 263.585Z" fill="#263238"/>
<path d="M339.668 231.759C339.926 234.4 340.013 237.065 339.928 239.725C340.013 242.386 339.926 245.051 339.668 247.692C339.405 245.052 339.318 242.386 339.408 239.725C339.318 237.065 339.405 234.399 339.668 231.759Z" fill="#263238"/>
<path d="M339.668 199.919C339.925 202.56 340.012 205.225 339.928 207.885C340.013 210.546 339.926 213.211 339.668 215.852C339.405 213.212 339.318 210.546 339.408 207.885C339.319 205.225 339.406 202.559 339.668 199.919Z" fill="#263238"/>
<path d="M339.668 168.093C339.926 170.734 340.013 173.399 339.928 176.059C340.012 178.72 339.925 181.385 339.668 184.026C339.406 181.386 339.319 178.72 339.408 176.059C339.318 173.399 339.405 170.733 339.668 168.093Z" fill="#263238"/>
<path d="M339.668 136.252C339.827 137.013 339.904 137.799 339.898 138.589C339.948 140.023 339.978 142.014 339.978 144.218C340.063 146.879 339.976 149.544 339.718 152.185C339.455 149.545 339.368 146.879 339.458 144.218C339.458 142.014 339.458 140.023 339.528 138.589C339.491 137.805 339.538 137.018 339.668 136.252Z" fill="#263238"/>
<path d="M330.568 107.414C332.085 109.184 333.375 111.269 334.388 113.588C335.536 115.795 336.398 118.241 336.938 120.824C336.788 120.904 335.708 117.638 333.938 113.96C332.168 110.282 330.448 107.547 330.568 107.414Z" fill="#263238"/>
<path d="M576.562 211.958C576.564 210.738 576.299 209.534 575.789 208.44C575.279 207.346 574.538 206.391 573.623 205.649C572.707 204.907 571.643 204.399 570.512 204.163C569.38 203.927 568.213 203.971 567.1 204.29C565.987 204.609 564.959 205.196 564.095 206.004C563.232 206.812 562.555 207.819 562.119 208.949C561.683 210.078 561.499 211.299 561.582 212.516C561.664 213.732 562.01 214.913 562.593 215.965C562.877 216.477 563.235 216.844 563.645 217.379L568 223.478C568.126 223.645 568.286 223.78 568.468 223.873C568.65 223.966 568.85 224.014 569.052 224.014C569.254 224.014 569.454 223.966 569.636 223.873C569.818 223.78 569.978 223.645 570.104 223.478L574.385 217.479C574.76 216.99 575.111 216.481 575.437 215.954C576.142 214.752 576.531 213.373 576.562 211.958ZM569.062 215.409C568.409 215.411 567.769 215.208 567.225 214.825C566.68 214.442 566.255 213.897 566.003 213.259C565.752 212.62 565.685 211.917 565.811 211.239C565.937 210.56 566.251 209.936 566.713 209.446C567.174 208.956 567.763 208.622 568.404 208.487C569.045 208.351 569.709 208.419 570.314 208.684C570.918 208.948 571.434 209.396 571.798 209.971C572.161 210.546 572.355 211.222 572.355 211.914C572.356 212.372 572.272 212.826 572.107 213.25C571.943 213.674 571.7 214.06 571.394 214.384C571.088 214.709 570.725 214.967 570.325 215.142C569.925 215.318 569.496 215.409 569.062 215.409Z" fill="#D7D7D7"/>
<path d="M475.562 118.557C475.566 117.4 475.321 116.257 474.846 115.218C474.371 114.179 473.679 113.272 472.825 112.568C471.97 111.863 470.975 111.38 469.918 111.156C468.861 110.932 467.77 110.973 466.73 111.276C465.69 111.579 464.729 112.136 463.922 112.903C463.115 113.67 462.484 114.627 462.078 115.699C461.672 116.771 461.502 117.929 461.581 119.083C461.66 120.237 461.987 121.356 462.534 122.352C462.799 122.837 463.133 123.185 463.516 123.702L467.581 129.479C467.699 129.646 467.851 129.78 468.026 129.873C468.2 129.965 468.392 130.014 468.587 130.014C468.782 130.014 468.974 129.965 469.148 129.873C469.323 129.78 469.475 129.646 469.593 129.479L473.589 123.797C473.939 123.333 474.266 122.851 474.571 122.352C475.211 121.205 475.553 119.894 475.562 118.557ZM468.572 121.825C467.962 121.827 467.365 121.635 466.857 121.272C466.349 120.91 465.952 120.393 465.717 119.789C465.482 119.184 465.42 118.518 465.538 117.875C465.656 117.232 465.948 116.641 466.379 116.177C466.81 115.713 467.359 115.397 467.957 115.268C468.556 115.14 469.176 115.205 469.74 115.455C470.304 115.705 470.786 116.13 471.125 116.674C471.464 117.219 471.645 117.859 471.645 118.515C471.645 119.391 471.322 120.231 470.746 120.852C470.17 121.472 469.388 121.822 468.572 121.825Z" fill="#E8E7E7"/>
<path d="M704.062 342.559C706.063 342.484 708.066 342.555 710.062 342.772C712.068 342.756 714.073 342.92 716.062 343.263C714.073 343.611 712.062 343.677 710.062 343.462C708.042 343.483 706.027 343.179 704.062 342.559Z" fill="#263238"/>
<path d="M682.862 329.68C682.992 329.534 684.652 332.336 687.322 334.898C689.992 337.461 692.482 338.789 692.412 339.001C691.824 338.888 691.256 338.641 690.732 338.271C689.419 337.513 688.172 336.569 687.012 335.456C685.321 333.967 683.903 331.993 682.862 329.68Z" fill="#263238"/>
<path d="M672.244 284.429C672.081 284.538 671.182 281.408 669.245 278.254C667.308 275.101 665.234 273.188 665.355 273C665.895 273.258 666.383 273.64 666.796 274.131C667.875 275.195 668.844 276.423 669.686 277.793C670.946 279.661 671.82 281.928 672.244 284.429Z" fill="#263238"/>
<path d="M676.312 299.593C676.442 299.593 676.612 303.138 677.022 307.48C677.432 311.821 678.022 315.3 677.842 315.353C677.108 312.862 676.656 310.24 676.502 307.573C676.158 304.937 676.094 302.251 676.312 299.593Z" fill="#263238"/>
<path d="M311.568 92.957C313.547 93.4465 315.456 94.3424 317.228 95.6125C319.075 96.6868 320.788 98.1285 322.308 99.8879C322.228 100.061 319.968 98.1486 317.008 96.2366C314.048 94.3246 311.518 93.1429 311.568 92.957Z" fill="#263238" fill-opacity="0.8"/>
<path d="M287.848 91.7367C289.749 90.8454 291.742 90.3483 293.758 90.2629C295.176 90.1467 296.599 90.1467 298.018 90.2629C298.606 90.234 299.195 90.31 299.768 90.4886C299.199 90.7047 298.608 90.7944 298.018 90.7542C296.928 90.7542 295.438 90.8471 293.798 91.0197C290.518 91.272 287.878 91.9359 287.848 91.7367Z" fill="#263238" fill-opacity="0.8"/>
<path d="M267.018 106.62C268.249 104.494 269.732 102.646 271.408 101.149C272.977 99.4616 274.739 98.117 276.628 97.166C276.698 97.3519 274.358 99.0913 271.718 101.694C269.078 104.296 267.128 106.766 267.018 106.62Z" fill="#263238" fill-opacity="0.8"/>
<path d="M256.547 134.624C256.701 129.252 257.896 124.025 260.017 119.447C260.157 119.54 259.017 122.74 258.017 126.936C257.017 131.132 256.707 134.65 256.547 134.624Z" fill="#263238" fill-opacity="0.8"/>
<path d="M255.997 166.435C255.77 163.791 255.713 161.126 255.828 158.468C255.767 155.804 255.884 153.139 256.178 150.502C256.405 153.146 256.461 155.811 256.348 158.468C256.408 161.133 256.291 163.798 255.997 166.435Z" fill="#263238" fill-opacity="0.8"/>
<path d="M255.657 198.261C255.422 195.618 255.362 192.952 255.477 190.295C255.423 187.631 255.54 184.966 255.827 182.328C256.062 184.972 256.122 187.637 256.007 190.295C256.062 192.959 255.944 195.624 255.657 198.261Z" fill="#263238" fill-opacity="0.8"/>
<path d="M116.996 212.825C117.974 212.486 118.989 212.369 119.996 212.48C121.004 212.372 122.018 212.489 122.996 212.825C122.018 213.162 121.004 213.278 119.996 213.171C118.989 213.282 117.974 213.165 116.996 212.825Z" fill="#263238"/>
<path d="M173.592 213.685C174.619 213.816 175.579 214.163 176.433 214.71C177.383 215.061 178.239 215.617 178.966 216.353C177.94 216.219 176.98 215.873 176.126 215.328C175.174 214.98 174.317 214.424 173.592 213.685Z" fill="#263238" fill-opacity="0.7"/>
<path d="M185.724 221.224C186.64 221.708 187.417 222.37 188.023 223.182C188.789 223.846 189.395 224.667 189.817 225.612C188.903 225.126 188.126 224.464 187.518 223.653C186.75 222.992 186.143 222.171 185.724 221.224Z" fill="#263238" fill-opacity="0.7"/>
<path d="M93.0161 212.826C97.0086 212.365 101.024 212.365 105.016 212.826C101.024 213.287 97.0086 213.287 93.0161 212.826Z" fill="#263238"/>
<path d="M153.837 212.44C157.83 211.978 161.845 211.978 165.837 212.44C161.845 212.901 157.83 212.901 153.837 212.44Z" fill="#263238"/>
<path d="M69.0461 212.825C73.0386 212.363 77.0537 212.363 81.0461 212.825C77.0537 213.287 73.0386 213.287 69.0461 212.825Z" fill="#263238"/>
<path d="M132.867 212.438C136.86 211.976 140.875 211.976 144.867 212.438C140.875 212.9 136.86 212.9 132.867 212.438Z" fill="#263238"/>
<path d="M45.0662 212.826C49.0586 212.365 53.0737 212.365 57.0662 212.826C53.0737 213.287 49.0586 213.287 45.0662 212.826Z" fill="#263238"/>
<path d="M21.0962 212.825C25.0886 212.363 29.1038 212.363 33.0962 212.825C29.1038 213.287 25.0886 213.287 21.0962 212.825Z" fill="#263238"/>
<path d="M-2.86377 212.123C-0.862349 212.048 1.14068 212.118 3.13623 212.335C5.14229 212.319 7.14687 212.483 9.13623 212.827C7.14714 213.174 5.13592 213.241 3.13623 213.026C1.11617 213.046 -0.898371 212.743 -2.86377 212.123Z" fill="#263238"/>
<path d="M1649.93 307.408C1650.91 307.152 1651.92 307.064 1652.93 307.148C1653.94 307.067 1654.95 307.154 1655.93 307.408C1654.95 307.661 1653.94 307.749 1652.93 307.668C1651.92 307.751 1650.91 307.663 1649.93 307.408Z" fill="#263238"/>
<path d="M1784.38 307.408C1785.35 307.152 1786.37 307.064 1787.38 307.148C1788.38 307.067 1789.4 307.154 1790.38 307.408C1789.4 307.661 1788.38 307.749 1787.38 307.668C1786.37 307.751 1785.35 307.663 1784.38 307.408Z" fill="#263238"/>
<path d="M1915.08 309.998C1916.06 309.742 1917.07 309.654 1918.08 309.738C1919.08 309.656 1920.1 309.744 1921.08 309.998C1920.1 310.251 1919.08 310.339 1918.08 310.258C1917.07 310.341 1916.06 310.253 1915.08 309.998Z" fill="#263238"/>
<path d="M1625.95 307.408C1629.94 307.061 1633.96 307.061 1637.95 307.408C1633.96 307.755 1629.94 307.755 1625.95 307.408Z" fill="#263238"/>
<path d="M1760.4 307.408C1764.39 307.061 1768.4 307.061 1772.4 307.408C1768.4 307.755 1764.39 307.755 1760.4 307.408Z" fill="#263238"/>
<path d="M1891.1 309.998C1895.09 309.65 1899.1 309.65 1903.1 309.998C1899.1 310.345 1895.09 310.345 1891.1 309.998Z" fill="#263238"/>
<path d="M1601.98 307.407C1605.97 307.06 1609.99 307.06 1613.98 307.407C1609.99 307.755 1605.97 307.755 1601.98 307.407Z" fill="#263238"/>
<path d="M1736.43 307.407C1740.42 307.06 1744.43 307.06 1748.43 307.407C1744.43 307.755 1740.42 307.755 1736.43 307.407Z" fill="#263238"/>
<path d="M1867.13 309.997C1871.12 309.649 1875.13 309.649 1879.13 309.997C1875.13 310.345 1871.12 310.345 1867.13 309.997Z" fill="#263238"/>
<path d="M1578 307.408C1581.99 307.061 1586.01 307.061 1590 307.408C1586.01 307.755 1581.99 307.755 1578 307.408Z" fill="#263238"/>
<path d="M1712.45 307.408C1716.44 307.061 1720.45 307.061 1724.45 307.408C1720.45 307.755 1716.44 307.755 1712.45 307.408Z" fill="#263238"/>
<path d="M1843.15 309.998C1847.14 309.65 1851.15 309.65 1855.15 309.998C1851.15 310.345 1847.14 310.345 1843.15 309.998Z" fill="#263238"/>
<path d="M1554.03 307.407C1558.02 307.06 1562.04 307.06 1566.03 307.407C1562.04 307.755 1558.02 307.755 1554.03 307.407Z" fill="#263238"/>
<path d="M1688.48 307.407C1692.47 307.06 1696.48 307.06 1700.48 307.407C1696.48 307.755 1692.47 307.755 1688.48 307.407Z" fill="#263238"/>
<path d="M1819.18 309.997C1823.17 309.649 1827.18 309.649 1831.18 309.997C1827.18 310.345 1823.17 310.345 1819.18 309.997Z" fill="#263238"/>
<path d="M1530.07 306.877C1532.07 306.821 1534.07 306.874 1536.07 307.037C1538.08 307.025 1540.08 307.149 1542.07 307.407C1540.08 307.669 1538.07 307.719 1536.07 307.557C1534.05 307.573 1532.04 307.344 1530.07 306.877Z" fill="#263238"/>
<path d="M1664.52 306.877C1666.52 306.821 1668.52 306.874 1670.52 307.037C1672.52 307.025 1674.53 307.149 1676.52 307.407C1674.53 307.669 1672.52 307.719 1670.52 307.557C1668.5 307.573 1666.48 307.344 1664.52 306.877Z" fill="#263238"/>
<path d="M1798.25 309.118C1800.25 309.178 1802.25 309.348 1804.23 309.628C1806.23 309.733 1808.23 309.973 1810.2 310.348C1808.2 310.493 1806.19 310.425 1804.2 310.147C1802.18 310.044 1800.18 309.699 1798.25 309.118Z" fill="#263238"/>
<path d="M1508.87 297.178C1509 297.068 1510.66 299.178 1513.33 301.108C1516 303.038 1518.49 304.038 1518.42 304.198C1517.83 304.113 1517.26 303.927 1516.74 303.648C1515.43 303.077 1514.18 302.366 1513.02 301.528C1511.33 300.406 1509.91 298.92 1508.87 297.178Z" fill="#263238"/>
<path d="M1502.32 274.518C1502.45 274.518 1502.62 277.188 1503.03 280.458C1503.44 283.728 1504.03 286.348 1503.85 286.388C1503.12 284.511 1502.66 282.536 1502.51 280.528C1502.17 278.543 1502.1 276.52 1502.32 274.518Z" fill="#263238"/>
<path d="M1493.59 252.688C1495.08 254.048 1496.34 255.634 1497.34 257.387C1498.47 259.059 1499.32 260.907 1499.85 262.857C1499.71 262.917 1498.64 260.458 1496.9 257.658C1495.16 254.858 1493.47 252.788 1493.59 252.688Z" fill="#263238"/>
<path d="M1320.79 292.279C1322.28 293.64 1323.54 295.226 1324.54 296.979C1325.67 298.651 1326.52 300.499 1327.05 302.449C1326.91 302.509 1325.84 300.049 1324.1 297.249C1322.36 294.449 1320.67 292.379 1320.79 292.279Z" fill="#263238"/>
<path d="M1277.32 285.512C1278.81 284.152 1280.51 283.035 1282.34 282.202C1284.11 281.223 1286.03 280.545 1288.02 280.196C1288.06 280.341 1285.52 281.185 1282.57 282.664C1279.63 284.144 1277.41 285.64 1277.32 285.512Z" fill="#263238"/>
<path d="M1473.91 239.518C1475.89 239.886 1477.8 240.561 1479.57 241.518C1481.42 242.327 1483.13 243.412 1484.65 244.738C1484.57 244.868 1482.31 243.428 1479.35 241.988C1476.39 240.548 1473.86 239.658 1473.91 239.518Z" fill="#263238"/>
<path d="M1301.11 279.109C1303.09 279.478 1305 280.153 1306.77 281.109C1308.62 281.918 1310.33 283.004 1311.85 284.329C1311.77 284.459 1309.51 283.019 1306.55 281.579C1303.59 280.139 1301.06 279.249 1301.11 279.109Z" fill="#263238"/>
<path d="M1259.2 296.602C1260.45 295.019 1261.93 293.64 1263.6 292.514C1265.17 291.253 1266.93 290.238 1268.81 289.506C1268.88 289.637 1266.56 290.972 1263.91 292.927C1261.26 294.882 1259.3 296.711 1259.2 296.602Z" fill="#263238"/>
<path d="M1450.19 238.597C1452.09 237.926 1454.08 237.552 1456.1 237.487C1457.52 237.4 1458.94 237.4 1460.36 237.487C1460.95 237.466 1461.54 237.523 1462.11 237.658C1461.54 237.82 1460.95 237.888 1460.36 237.858C1459.27 237.858 1457.78 237.927 1456.14 238.057C1452.86 238.247 1450.22 238.747 1450.19 238.597Z" fill="#263238"/>
<path d="M1429.36 249.807C1430.59 248.206 1432.07 246.815 1433.75 245.688C1435.32 244.416 1437.08 243.404 1438.97 242.688C1439.04 242.828 1436.7 244.137 1434.06 246.097C1431.42 248.057 1429.47 249.917 1429.36 249.807Z" fill="#263238"/>
<path d="M1418.89 270.898C1419.04 266.853 1420.24 262.915 1422.36 259.468C1422.5 259.538 1421.36 261.948 1420.36 265.108C1419.36 268.268 1419.05 270.918 1418.89 270.898Z" fill="#263238"/>
<path d="M1418.34 294.857C1418.11 292.866 1418.06 290.859 1418.17 288.857C1418.11 286.851 1418.23 284.843 1418.52 282.857C1418.75 284.849 1418.8 286.856 1418.69 288.857C1418.75 290.864 1418.63 292.872 1418.34 294.857Z" fill="#263238"/>
<path d="M1418 318.827C1417.76 316.836 1417.7 314.829 1417.82 312.827C1417.76 310.821 1417.88 308.813 1418.17 306.827C1418.4 308.818 1418.46 310.826 1418.35 312.827C1418.4 314.833 1418.29 316.841 1418 318.827Z" fill="#263238"/>
<path d="M1417.65 342.798C1417.42 340.806 1417.36 338.799 1417.48 336.798C1417.42 334.791 1417.54 332.784 1417.83 330.798C1418.06 332.789 1418.11 334.797 1418 336.798C1418.06 338.804 1417.94 340.812 1417.65 342.798Z" fill="#263238"/>
<path d="M1411.04 365.398C1410.91 365.308 1412.42 363.088 1413.86 360.128C1415.3 357.168 1416.09 354.618 1416.24 354.658C1415.93 356.653 1415.28 358.58 1414.32 360.358C1413.51 362.208 1412.41 363.912 1411.04 365.398Z" fill="#263238"/>
<path d="M1392.24 379.708C1392.19 379.568 1394.68 378.568 1397.56 376.978C1400.44 375.388 1402.62 373.828 1402.71 373.978C1401.27 375.389 1399.62 376.564 1397.81 377.458C1396.08 378.494 1394.2 379.253 1392.24 379.708Z" fill="#263238"/>
<path d="M1368.6 382.468C1370.59 382.229 1372.6 382.145 1374.6 382.218H1376.93H1378.83C1379.42 382.169 1380.01 382.206 1380.59 382.328C1380.02 382.503 1379.43 382.591 1378.84 382.588L1376.93 382.728C1376.22 382.728 1375.43 382.728 1374.6 382.728C1372.6 382.832 1370.59 382.744 1368.6 382.468Z" fill="#263238"/>
<path d="M1345.95 375.587C1346.04 375.457 1348.31 376.877 1351.3 378.247C1354.29 379.617 1356.83 380.467 1356.79 380.617C1354.8 380.288 1352.87 379.647 1351.08 378.717C1349.22 377.945 1347.49 376.889 1345.95 375.587Z" fill="#263238"/>
<path d="M1331 357.338C1331.15 357.288 1332.15 359.778 1333.82 362.608C1335.49 365.438 1337.15 367.538 1337.03 367.608C1335.56 366.229 1334.32 364.617 1333.37 362.838C1332.28 361.148 1331.48 359.289 1331 357.338Z" fill="#263238"/>
<path d="M1328.73 333.638C1328.99 335.627 1329.07 337.634 1328.99 339.638C1329.07 341.641 1328.99 343.649 1328.73 345.638C1328.47 343.649 1328.38 341.641 1328.47 339.638C1328.38 337.634 1328.47 335.626 1328.73 333.638Z" fill="#263238"/>
<path d="M1328.73 309.668C1328.99 311.657 1329.07 313.664 1328.99 315.668C1329.07 317.672 1328.99 319.679 1328.73 321.668C1328.47 319.68 1328.38 317.672 1328.47 315.668C1328.38 313.664 1328.47 311.656 1328.73 309.668Z" fill="#263238"/>
<path d="M1230.73 326.567C1230.63 326.447 1232.6 324.627 1234.73 322.077C1236.86 319.527 1238.21 317.247 1238.35 317.327C1236.6 320.983 1233.99 324.155 1230.73 326.567Z" fill="#263238"/>
<path d="M1209.31 336.638C1209.31 336.488 1211.92 336.008 1215.07 335.038C1218.22 334.068 1220.67 333.038 1220.74 333.138C1219.03 334.216 1217.17 335.025 1215.22 335.538C1213.32 336.21 1211.32 336.581 1209.31 336.638Z" fill="#263238"/>
<path d="M1185.36 337.468C1187.35 337.187 1189.35 337.073 1191.36 337.128C1193.36 337.007 1195.37 337.067 1197.36 337.307C1195.37 337.588 1193.37 337.702 1191.36 337.647C1189.36 337.767 1187.35 337.707 1185.36 337.468Z" fill="#263238"/>
<path d="M1242.85 311.782C1244.05 310.179 1245.39 308.679 1246.85 307.299C1248.18 305.799 1249.64 304.421 1251.22 303.183C1250.01 304.787 1248.67 306.286 1247.22 307.667C1245.88 309.166 1244.42 310.544 1242.85 311.782Z" fill="#263238"/>
<path d="M969.36 340.413C971.347 340.132 973.354 340.019 975.36 340.073C977.361 339.953 979.369 340.013 981.36 340.253C979.373 340.533 977.366 340.647 975.36 340.593C973.359 340.713 971.35 340.652 969.36 340.413Z" fill="#263238"/>
<path d="M1079.36 339.413C1081.35 339.132 1083.35 339.019 1085.36 339.073C1087.36 338.953 1089.37 339.013 1091.36 339.253C1089.37 339.533 1087.37 339.647 1085.36 339.593C1083.36 339.713 1081.35 339.652 1079.36 339.413Z" fill="#263238"/>
<path d="M863.36 342.358C865.347 342.078 867.354 341.964 869.36 342.018C871.362 341.898 873.37 341.958 875.36 342.198C873.373 342.478 871.366 342.592 869.36 342.538C867.359 342.658 865.351 342.598 863.36 342.358Z" fill="#263238"/>
<path d="M1161.39 337.777C1163.38 337.491 1165.38 337.377 1167.39 337.437C1169.39 337.323 1171.4 337.38 1173.39 337.607C1171.4 337.9 1169.4 338.017 1167.39 337.957C1165.39 338.065 1163.38 338.005 1161.39 337.777Z" fill="#263238"/>
<path d="M945.39 340.722C947.376 340.436 949.384 340.322 951.39 340.382C953.391 340.268 955.398 340.325 957.39 340.552C955.404 340.846 953.396 340.963 951.39 340.902C949.388 341.011 947.381 340.95 945.39 340.722Z" fill="#263238"/>
<path d="M1055.39 339.722C1057.38 339.436 1059.38 339.322 1061.39 339.382C1063.39 339.268 1065.4 339.325 1067.39 339.552C1065.4 339.846 1063.4 339.963 1061.39 339.902C1059.39 340.011 1057.38 339.95 1055.39 339.722Z" fill="#263238"/>
<path d="M839.39 342.668C841.376 342.381 843.384 342.267 845.39 342.328C847.391 342.213 849.398 342.27 851.39 342.498C849.404 342.791 847.396 342.908 845.39 342.848C843.388 342.956 841.381 342.896 839.39 342.668Z" fill="#263238"/>
<path d="M772.502 343.411C774.488 343.124 776.496 343.011 778.502 343.071C780.503 342.957 782.51 343.014 784.502 343.241C782.516 343.534 780.508 343.651 778.502 343.591C776.5 343.699 774.493 343.639 772.502 343.411Z" fill="#263238"/>
<path d="M1137.42 338.118C1139.41 337.825 1141.41 337.708 1143.42 337.768C1145.42 337.654 1147.43 337.714 1149.42 337.948C1147.43 338.234 1145.43 338.348 1143.42 338.288C1141.42 338.402 1139.41 338.345 1137.42 338.118Z" fill="#263238"/>
<path d="M921.419 341.063C923.405 340.77 925.413 340.653 927.419 340.713C929.421 340.599 931.428 340.659 933.419 340.893C931.433 341.18 929.426 341.293 927.419 341.233C925.418 341.347 923.411 341.29 921.419 341.063Z" fill="#263238"/>
<path d="M1031.42 340.063C1033.41 339.77 1035.41 339.653 1037.42 339.713C1039.42 339.599 1041.43 339.659 1043.42 339.893C1041.43 340.18 1039.43 340.293 1037.42 340.233C1035.42 340.347 1033.41 340.29 1031.42 340.063Z" fill="#263238"/>
<path d="M815.419 343.008C817.405 342.715 819.413 342.598 821.419 342.658C823.42 342.545 825.428 342.605 827.419 342.838C825.433 343.125 823.425 343.239 821.419 343.178C819.418 343.293 817.41 343.236 815.419 343.008Z" fill="#263238"/>
<path d="M748.531 343.752C750.517 343.458 752.525 343.341 754.531 343.402C756.533 343.288 758.54 343.348 760.531 343.582C758.545 343.868 756.537 343.982 754.531 343.922C752.53 344.036 750.523 343.979 748.531 343.752Z" fill="#263238"/>
<path d="M1113.45 338.467C1115.44 338.181 1117.44 338.067 1119.45 338.127C1121.45 338.012 1123.46 338.069 1125.45 338.297C1123.46 338.591 1121.46 338.709 1119.45 338.647C1117.45 338.762 1115.44 338.702 1113.45 338.467Z" fill="#263238"/>
<path d="M897.45 341.413C899.436 341.126 901.444 341.012 903.45 341.073C905.451 340.957 907.458 341.014 909.45 341.243C907.464 341.537 905.456 341.654 903.45 341.593C901.448 341.707 899.441 341.647 897.45 341.413Z" fill="#263238"/>
<path d="M1007.45 340.413C1009.44 340.126 1011.44 340.012 1013.45 340.073C1015.45 339.957 1017.46 340.014 1019.45 340.243C1017.46 340.537 1015.46 340.654 1013.45 340.593C1011.45 340.707 1009.44 340.647 1007.45 340.413Z" fill="#263238"/>
<path d="M791.45 343.358C793.437 343.071 795.444 342.958 797.45 343.018C799.451 342.903 801.459 342.959 803.45 343.188C801.465 343.482 799.457 343.599 797.45 343.538C795.449 343.652 793.441 343.592 791.45 343.358Z" fill="#263238"/>
<path d="M724.562 344.101C726.549 343.814 728.556 343.701 730.562 343.761C732.564 343.646 734.571 343.703 736.562 343.931C734.577 344.225 732.569 344.342 730.562 344.281C728.561 344.396 726.553 344.335 724.562 344.101Z" fill="#263238"/>
<path d="M1095.39 338.697C1096.37 338.434 1097.38 338.332 1098.39 338.397C1099.39 338.301 1100.41 338.376 1101.39 338.617C1100.41 338.885 1099.4 338.986 1098.39 338.917C1097.38 339.023 1096.37 338.949 1095.39 338.697Z" fill="#263238"/>
<path d="M879.39 341.642C880.367 341.379 881.38 341.278 882.39 341.342C883.395 341.247 884.409 341.321 885.39 341.562C884.414 341.83 883.399 341.931 882.39 341.862C881.385 341.969 880.368 341.894 879.39 341.642Z" fill="#263238"/>
<path d="M989.39 340.642C990.367 340.379 991.38 340.278 992.39 340.342C993.395 340.247 994.409 340.321 995.39 340.562C994.414 340.83 993.399 340.931 992.39 340.862C991.385 340.969 990.368 340.894 989.39 340.642Z" fill="#263238"/>
<path d="M1565.15 292.718C1565.15 291.622 1564.9 290.54 1564.41 289.557C1563.93 288.574 1563.22 287.716 1562.35 287.049C1561.48 286.383 1560.47 285.926 1559.4 285.714C1558.32 285.503 1557.21 285.542 1556.15 285.828C1555.1 286.115 1554.12 286.642 1553.3 287.368C1552.48 288.094 1551.83 288.999 1551.42 290.014C1551 291.029 1550.83 292.125 1550.91 293.218C1550.99 294.312 1551.32 295.372 1551.87 296.318C1552.14 296.778 1552.48 297.108 1552.87 297.588L1557.01 303.068C1557.13 303.218 1557.28 303.339 1557.45 303.422C1557.63 303.505 1557.82 303.549 1558.01 303.549C1558.2 303.549 1558.39 303.505 1558.56 303.422C1558.74 303.339 1558.89 303.218 1559.01 303.068L1563.08 297.678C1563.44 297.238 1563.77 296.781 1564.08 296.308C1564.75 295.228 1565.12 293.988 1565.15 292.718ZM1558.02 295.818C1557.4 295.82 1556.79 295.637 1556.27 295.293C1555.75 294.949 1555.35 294.46 1555.11 293.886C1554.87 293.313 1554.81 292.681 1554.93 292.071C1555.05 291.461 1555.35 290.901 1555.79 290.461C1556.22 290.021 1556.78 289.721 1557.39 289.599C1558 289.477 1558.63 289.538 1559.21 289.776C1559.78 290.013 1560.27 290.416 1560.62 290.932C1560.97 291.449 1561.15 292.056 1561.15 292.678C1561.15 293.09 1561.07 293.498 1560.91 293.878C1560.76 294.259 1560.53 294.606 1560.24 294.897C1559.95 295.189 1559.6 295.42 1559.22 295.578C1558.84 295.736 1558.43 295.818 1558.02 295.818Z" fill="#E8E7E7"/>
<path d="M1464.96 222.117C1464.96 221.02 1464.71 219.936 1464.23 218.951C1463.75 217.966 1463.04 217.105 1462.17 216.437C1461.3 215.769 1460.29 215.31 1459.21 215.098C1458.13 214.885 1457.02 214.924 1455.96 215.212C1454.9 215.499 1453.92 216.027 1453.1 216.755C1452.28 217.482 1451.64 218.39 1451.23 219.406C1450.81 220.423 1450.64 221.522 1450.72 222.616C1450.8 223.711 1451.13 224.772 1451.69 225.717C1451.96 226.177 1452.3 226.507 1452.69 226.997L1456.83 232.477C1456.95 232.635 1457.11 232.763 1457.28 232.851C1457.46 232.938 1457.66 232.984 1457.85 232.984C1458.05 232.984 1458.25 232.938 1458.43 232.851C1458.6 232.763 1458.76 232.635 1458.88 232.477L1462.95 227.087C1463.31 226.648 1463.64 226.19 1463.95 225.717C1464.6 224.629 1464.95 223.386 1464.96 222.117ZM1457.84 225.217C1457.22 225.219 1456.61 225.037 1456.09 224.693C1455.57 224.349 1455.17 223.86 1454.93 223.286C1454.69 222.712 1454.63 222.081 1454.75 221.471C1454.87 220.861 1455.17 220.301 1455.61 219.861C1456.04 219.42 1456.6 219.12 1457.21 218.998C1457.82 218.876 1458.45 218.938 1459.03 219.175C1459.6 219.413 1460.09 219.815 1460.44 220.332C1460.79 220.848 1460.97 221.456 1460.97 222.077C1460.97 222.908 1460.64 223.706 1460.05 224.294C1459.47 224.883 1458.67 225.215 1457.84 225.217Z" fill="#D7D7D7"/>
<path d="M641.591 96.0515C636.117 95.7567 630.661 96.8941 625.761 99.3515C620.531 101.791 615.591 105.401 612.991 110.551C610.391 115.701 610.681 122.551 614.781 126.631C606.901 128.721 600.971 135.731 598.491 143.491C596.011 151.251 596.541 159.691 598.111 167.691C598.861 171.471 600.191 175.691 603.681 177.311C605.921 178.311 608.681 178.111 610.781 179.401C612.881 180.691 613.841 183.051 615.171 185.061C616.441 186.984 618.089 188.629 620.015 189.895C621.941 191.161 624.105 192.022 626.374 192.426C628.643 192.831 630.97 192.769 633.215 192.246C635.46 191.722 637.574 190.748 639.431 189.381L655.591 103.501C652.421 99.0615 647.021 96.5115 641.591 96.0515Z" fill="#3B4245"/>
<path d="M652.45 105.301C652.116 105.776 651.745 106.224 651.34 106.641C650.59 107.481 649.5 108.641 648.12 110.141C644.579 114.011 640.606 117.463 636.28 120.431C631.913 123.406 626.916 125.33 621.68 126.051C620.098 126.248 618.5 126.281 616.91 126.151C616.35 126.151 615.91 126.031 615.62 125.991C615.47 125.98 615.321 125.946 615.18 125.891C615.18 125.891 615.81 125.891 616.92 125.951C618.495 126.003 620.071 125.916 621.63 125.691C626.777 124.87 631.679 122.928 635.99 120.001C640.277 117.058 644.254 113.687 647.86 109.941L651.19 106.551C651.576 106.101 651.997 105.683 652.45 105.301Z" fill="#515B60"/>
<path d="M620.951 131.031C620.891 131.031 620.631 130.631 620.411 129.871C620.154 128.858 620.103 127.804 620.261 126.771C620.425 125.739 620.799 124.752 621.361 123.871C621.801 123.201 622.181 122.871 622.231 122.871C621.567 124.107 621.078 125.43 620.781 126.801C620.635 128.212 620.692 129.636 620.951 131.031Z" fill="#515B60"/>
<path d="M626.39 134.221C626.482 134.368 626.556 134.526 626.61 134.691C626.74 135.001 626.94 135.461 627.15 136.081C627.77 137.8 628.281 139.557 628.68 141.341C630.08 147.259 630.08 153.422 628.68 159.341C627.199 165.264 623.952 170.596 619.37 174.631C617.985 175.835 616.465 176.875 614.84 177.731C614.28 178.051 613.84 178.221 613.5 178.371C613.343 178.446 613.179 178.506 613.01 178.551C613.572 178.186 614.152 177.852 614.75 177.551C616.315 176.639 617.782 175.57 619.13 174.361C623.562 170.303 626.709 165.036 628.18 159.211C629.563 153.374 629.621 147.302 628.35 141.441C627.89 139.181 627.35 137.441 627 136.161C626.755 135.528 626.552 134.88 626.39 134.221Z" fill="#515B60"/>
<path d="M629.17 147.751C628.755 147.706 628.346 147.615 627.95 147.481C627.17 147.271 626.04 146.991 624.64 146.661C617.355 144.951 609.864 144.277 602.39 144.661C600.96 144.731 599.8 144.811 599 144.881C598.585 144.93 598.166 144.93 597.75 144.881C598.15 144.751 598.562 144.667 598.98 144.631C599.77 144.501 600.93 144.371 602.37 144.251C609.883 143.653 617.443 144.329 624.73 146.251C626.13 146.621 627.24 146.961 628 147.251C628.41 147.367 628.803 147.535 629.17 147.751Z" fill="#515B60"/>
<g opacity="0.3">
<path opacity="0.3" d="M615.88 125.942C621.32 129.442 628.66 129.042 634.42 126.092C640.18 123.142 644.42 117.672 646.65 111.602C639.12 120.302 627.94 126.612 615.88 125.942Z" fill="#515B60"/>
</g>
<g opacity="0.3">
<path opacity="0.3" d="M612.97 178.531C615.231 178.372 617.428 177.716 619.406 176.61C621.383 175.504 623.092 173.974 624.41 172.131C626.775 168.384 628.209 164.125 628.59 159.711C627.14 163.486 625.303 167.102 623.11 170.501C621.844 172.104 620.398 173.557 618.8 174.831C617.011 176.296 615.05 177.539 612.96 178.531" fill="#515B60"/>
</g>
<path d="M618.59 145.171C618.956 145.997 619.196 146.874 619.3 147.771C619.47 148.591 619.66 149.541 619.95 150.601C620.126 151.202 620.126 151.84 619.95 152.441C619.852 152.793 619.642 153.104 619.352 153.326C619.061 153.548 618.706 153.669 618.34 153.671C617.983 153.622 617.647 153.47 617.374 153.234C617.1 152.998 616.901 152.688 616.8 152.341C616.63 151.743 616.63 151.109 616.8 150.511C617.09 149.421 617.4 148.511 617.65 147.701C617.874 146.831 618.178 145.984 618.56 145.171C618.461 146.067 618.273 146.951 618 147.811C617.78 148.661 617.53 149.601 617.27 150.611C617.131 151.125 617.131 151.667 617.27 152.181C617.341 152.433 617.48 152.66 617.673 152.837C617.865 153.013 618.103 153.133 618.36 153.181C618.614 153.174 618.859 153.084 619.058 152.925C619.256 152.766 619.397 152.547 619.46 152.301C619.596 151.79 619.596 151.252 619.46 150.741C619.222 149.796 619.038 148.837 618.91 147.871C618.75 146.191 618.59 145.191 618.59 145.171Z" fill="#515B60"/>
<path d="M642.26 113.031C641.156 112.478 640.087 111.857 639.06 111.171C636.538 109.6 633.924 108.185 631.23 106.931C628.544 105.684 625.712 104.777 622.8 104.231C620.56 103.821 619.14 103.811 619.14 103.721C619.47 103.656 619.806 103.636 620.14 103.661C621.047 103.665 621.953 103.732 622.85 103.861C625.826 104.309 628.722 105.182 631.45 106.451C634.168 107.708 636.78 109.183 639.26 110.861C640.21 111.491 640.97 112.021 641.49 112.401C641.772 112.578 642.031 112.79 642.26 113.031Z" fill="#515B60"/>
<path d="M640.76 112.361C640.82 112.361 640.87 112.701 640.59 113.131C640.4 113.414 640.131 113.635 639.816 113.767C639.502 113.899 639.155 113.935 638.82 113.871L638.49 113.811L638.64 113.501C638.93 112.921 639.437 112.479 640.05 112.271C640.51 112.121 640.81 112.181 640.82 112.271C640.83 112.361 640.56 112.431 640.2 112.641C639.734 112.898 639.354 113.288 639.11 113.761L638.94 113.391C639.19 113.432 639.447 113.412 639.687 113.332C639.928 113.252 640.145 113.114 640.32 112.931C640.59 112.621 640.68 112.351 640.76 112.361Z" fill="#515B60"/>
<path d="M725.23 110.442C725.23 110.442 721.23 105.182 721.23 103.052L722.89 90.6715C722.89 90.6715 723.61 89.4215 724.73 91.4915C725.73 93.3915 725.17 96.3315 725.17 96.3315L725.87 99.2415L727.38 97.0415L729.08 88.7715C729.08 88.7715 730.16 82.7715 731.08 83.4215C732 84.0715 732.28 85.7815 731.81 88.3615C731.34 90.9415 730.74 94.2115 730.74 94.2115C730.74 94.2115 730.62 95.2115 731.58 93.5215C732.54 91.8315 733.58 84.5915 733.97 83.6215C734.36 82.6515 734.48 80.0715 735.97 80.2115C737.46 80.3515 736.59 83.6415 736.59 83.6415L735.17 94.3015C735.17 94.3015 736.55 90.0115 736.81 89.3015C737.07 88.5915 737.48 86.2315 737.98 84.9515C738.48 83.6715 739.22 83.0115 739.87 83.0915C740.182 83.1094 740.474 83.2458 740.688 83.4727C740.902 83.6996 741.021 83.9997 741.02 84.3115L738.84 93.4315C738.84 93.4315 737.63 97.5815 737.71 97.8515C737.79 98.1215 739.32 96.1215 739.32 96.1215L740.5 93.1215C740.5 93.1215 741.5 88.9315 742.6 88.8115C743.7 88.6915 743.76 89.5415 743.76 89.5415L741.91 97.2015L738.52 105.942L735.31 112.512C735.31 112.512 730.83 111.812 730.66 112.042C730.49 112.272 725.23 110.442 725.23 110.442Z" fill="#FFBE9D"/>
<path d="M733.171 106.751C732.813 106.137 732.505 105.495 732.251 104.831C731.628 103.275 730.443 102.011 728.931 101.291C728.19 100.968 727.362 100.904 726.581 101.111L726.321 101.181L726.261 100.901C725.971 99.6311 725.571 98.4611 725.391 97.6611C725.226 97.2379 725.154 96.7843 725.181 96.3311C725.389 96.723 725.556 97.1351 725.681 97.5611C726.096 98.6319 726.456 99.7234 726.761 100.831L726.431 100.621C727.322 100.359 728.276 100.416 729.131 100.781C730.054 101.167 730.858 101.792 731.461 102.591C731.928 103.233 732.311 103.932 732.601 104.671C732.909 105.326 733.102 106.03 733.171 106.751Z" fill="#EB996E"/>
<path d="M690.591 104.451L712.741 137.561L722.741 108.701L736.361 112.051C736.361 112.051 730.801 150.851 728.681 154.701C726.561 158.551 719.911 164.111 711.681 162.991C703.451 161.871 687.061 139.801 687.061 139.801L690.591 104.451Z" fill="#E3E8F4"/>
<path d="M713.953 147.486C714.235 143.661 713.639 139.81 712.251 136.486C712.546 136.881 712.789 137.347 712.966 137.861C713.459 139.06 713.815 140.358 714.021 141.71C714.235 143.058 714.3 144.444 714.214 145.819C714.198 146.392 714.11 146.956 713.953 147.486Z" fill="#515B60"/>
<g opacity="0.3">
<path opacity="0.3" d="M692.261 146.841C692.984 146.457 693.606 145.907 694.076 145.236C694.545 144.565 694.848 143.792 694.961 142.981C695.175 141.36 695.125 139.715 694.811 138.111C693.921 131.581 692.671 124.781 691.811 118.251L692.161 146.161" fill="#515B60"/>
</g>
<path d="M716.05 320.171L728.71 348.991L764.91 333.751C763.24 330.391 740.14 332.101 740.14 332.101L732.14 312.531L716.05 320.171Z" fill="#6C6C6C"/>
<g opacity="0.6">
<path opacity="0.6" d="M729.73 334.491C729.428 334.745 729.229 335.101 729.171 335.492C729.114 335.883 729.203 336.282 729.42 336.611C729.664 336.922 730.017 337.128 730.407 337.188C730.797 337.247 731.195 337.156 731.52 336.931C731.84 336.662 732.048 336.285 732.105 335.871C732.162 335.457 732.065 335.037 731.83 334.691C731.546 334.393 731.157 334.217 730.745 334.198C730.334 334.179 729.931 334.32 729.62 334.591" fill="white"/>
</g>
<g opacity="0.6">
<path opacity="0.6" d="M728.71 348.991L727.57 345.991L762.7 332.491C762.7 332.491 764.61 332.491 764.91 333.721L728.71 348.991Z" fill="white"/>
</g>
<path d="M740.82 332.191C740.89 332.371 740.04 332.831 739.41 333.761C738.78 334.691 738.63 335.631 738.41 335.631C738.19 335.631 738.05 334.501 738.84 333.381C739.63 332.261 740.79 332.021 740.82 332.191Z" fill="#515B60"/>
<path d="M746.25 331.841C746.37 331.991 745.73 332.611 745.44 333.611C745.15 334.611 745.32 335.481 745.14 335.541C744.96 335.601 744.42 334.661 744.8 333.421C745.18 332.181 746.18 331.671 746.25 331.841Z" fill="#515B60"/>
<path d="M750.17 335.331C750.03 335.431 749.41 334.651 749.46 333.501C749.51 332.351 750.17 331.611 750.3 331.721C750.43 331.831 750.15 332.571 750.12 333.521C750.09 334.471 750.34 335.241 750.17 335.331Z" fill="#515B60"/>
<path d="M738.5 327.471C738.5 327.661 737.58 327.761 736.61 328.251C735.64 328.741 734.99 329.381 734.83 329.251C734.67 329.121 735.16 328.191 736.31 327.631C737.46 327.071 738.52 327.301 738.5 327.471Z" fill="#515B60"/>
<path d="M589.19 348.441L587.64 333.051L600.48 316.881L584.74 306.761L584.32 307.381L576.32 319.461L565.93 327.661L582.43 354.771L598.5 353.691C598.5 353.691 597.06 349.941 589.19 348.441Z" fill="#6C6C6C"/>
<g opacity="0.6">
<path opacity="0.6" d="M565.91 327.661L582.41 354.771L598.48 353.691L596.51 351.401L583.39 351.561L568.12 325.921L565.91 327.661Z" fill="white"/>
</g>
<path d="M588.59 341.382C588.49 341.552 587.52 341.092 586.28 341.212C585.04 341.332 584.16 341.902 584.03 341.752C583.9 341.602 584.71 340.622 586.23 340.502C587.75 340.382 588.75 341.252 588.59 341.382Z" fill="#515B60"/>
<path d="M588.1 337.571C587.94 337.701 587.16 336.801 585.87 336.641C584.58 336.481 583.58 337.131 583.47 336.971C583.36 336.811 583.58 336.621 584.01 336.341C584.595 335.986 585.283 335.842 585.96 335.931C586.639 336.019 587.267 336.337 587.74 336.831C588.08 337.211 588.17 337.521 588.1 337.571Z" fill="#515B60"/>
<path d="M587.87 332.651C587.7 332.761 587.09 331.861 585.95 331.551C584.81 331.241 583.82 331.671 583.73 331.501C583.64 331.331 583.87 331.181 584.3 330.991C584.881 330.744 585.529 330.701 586.138 330.87C586.746 331.039 587.28 331.41 587.65 331.921C587.92 332.311 587.95 332.611 587.87 332.651Z" fill="#515B60"/>
<path d="M591.92 328.561C591.73 328.641 591.22 327.751 590.18 327.181C589.14 326.611 588.18 326.571 588.11 326.371C588.04 326.171 589.27 325.831 590.53 326.561C591.79 327.291 592.11 328.521 591.92 328.561Z" fill="#515B60"/>
<path d="M593.79 325.121C593.71 325.181 593.14 324.571 592.28 323.531C591.79 322.931 591.28 322.321 590.79 321.691C590.45 321.324 590.17 320.906 589.96 320.451C589.891 320.294 589.855 320.124 589.855 319.951C589.855 319.779 589.891 319.609 589.96 319.451C590.042 319.275 590.174 319.126 590.339 319.023C590.504 318.92 590.696 318.867 590.89 318.871C591.465 318.943 592.007 319.179 592.45 319.551C593.521 320.361 594.252 321.542 594.5 322.861C594.715 323.602 594.636 324.397 594.28 325.081C594.229 324.374 594.138 323.669 594.01 322.971C593.817 322.243 593.477 321.563 593.01 320.971C592.737 320.635 592.421 320.336 592.07 320.081C591.736 319.814 591.341 319.632 590.92 319.551C590.859 319.547 590.798 319.561 590.744 319.591C590.691 319.621 590.648 319.666 590.62 319.721C590.57 319.867 590.57 320.026 590.62 320.171C590.808 320.559 591.043 320.922 591.32 321.251C591.78 321.911 592.24 322.551 592.69 323.181C593.164 323.761 593.535 324.417 593.79 325.121Z" fill="#515B60"/>
<path d="M594.4 325.561C594.32 325.561 594.33 324.711 595.13 323.691C595.677 323.005 596.435 322.518 597.286 322.304C598.137 322.091 599.034 322.164 599.84 322.511C599.928 322.574 599.999 322.657 600.05 322.752C600.1 322.847 600.128 322.953 600.13 323.061C600.128 323.249 600.072 323.433 599.97 323.591C599.816 323.795 599.635 323.977 599.43 324.131C598.511 324.872 597.421 325.374 596.26 325.591C595.609 325.795 594.911 325.795 594.26 325.591C594.26 325.471 595.02 325.481 596.15 325.151C597.188 324.853 598.151 324.342 598.98 323.651C599.13 323.539 599.265 323.408 599.38 323.261C599.44 323.111 599.38 323.151 599.38 323.111C599.23 323.036 599.067 322.988 598.9 322.971C598.702 322.939 598.501 322.922 598.3 322.921C597.914 322.912 597.529 322.966 597.16 323.081C596.527 323.266 595.952 323.61 595.49 324.081C594.7 324.841 594.51 325.601 594.4 325.561Z" fill="#515B60"/>
<g opacity="0.6">
<path opacity="0.6" d="M578.7 326.321C578.726 326.7 578.638 327.077 578.448 327.405C578.258 327.734 577.975 327.998 577.635 328.165C577.294 328.331 576.911 328.393 576.536 328.341C576.16 328.29 575.808 328.128 575.525 327.876C575.242 327.624 575.04 327.293 574.945 326.926C574.851 326.559 574.867 326.172 574.993 325.814C575.12 325.456 575.349 325.144 575.653 324.918C575.957 324.691 576.322 324.56 576.7 324.541C577.201 324.517 577.691 324.689 578.065 325.022C578.439 325.355 578.667 325.822 578.7 326.321Z" fill="white"/>
</g>
<path d="M663.65 52.7111C664.339 49.4075 665.526 46.2278 667.17 43.2811C668.847 40.3158 671.561 38.0754 674.79 36.9911C678.146 36.1129 681.682 36.1995 684.99 37.2411C687.331 38.04 689.466 39.3481 691.24 41.0711C694.24 43.6611 695.77 47.7011 697.03 51.4511" fill="#E3E8F4"/>
<path d="M699.15 51.7113C698.566 48.0757 696.613 44.8016 693.69 42.5613C690.719 40.4805 687.214 39.2938 683.59 39.1413C677.98 38.7113 671.42 40.2413 667.59 44.3413C663.76 48.4413 661.5 54.0213 661.98 59.0213C662.19 61.2713 664.37 67.3613 666.1 68.8313L698.24 68.0013C700.16 64.9413 699.73 55.3013 699.15 51.7113Z" fill="#E3E8F4"/>
<path d="M698.59 58.4413C698.243 53.9906 696.232 49.8342 692.957 46.8003C689.682 43.7664 685.384 42.0779 680.92 42.0713H680C670.08 42.6313 665 51.3613 665.85 61.2613L667.59 107.001H690.32L690.12 92.1113C690.12 92.1113 699.66 90.6513 699.79 81.1113C699.85 76.5113 699.21 67.0213 698.59 58.4413Z" fill="#FFBE9D"/>
<path d="M690.19 92.1009C685.764 92.0925 681.433 90.8154 677.71 88.4209C677.71 88.4209 680.63 95.2809 690.14 94.4209L690.19 92.1009Z" fill="#EB996E"/>
<path d="M694.83 65.941C694.831 66.2959 694.693 66.637 694.447 66.8925C694.201 67.148 693.865 67.2981 693.51 67.311C693.337 67.3246 693.163 67.3033 692.998 67.2485C692.833 67.1936 692.681 67.1063 692.551 66.9916C692.42 66.8769 692.314 66.7373 692.238 66.5809C692.163 66.4245 692.119 66.2545 692.11 66.081C692.11 65.7262 692.248 65.3851 692.494 65.1295C692.74 64.874 693.076 64.724 693.43 64.711C693.604 64.6974 693.778 64.7187 693.943 64.7735C694.107 64.8284 694.26 64.9157 694.39 65.0304C694.521 65.1451 694.627 65.2847 694.702 65.4411C694.778 65.5975 694.822 65.7675 694.83 65.941Z" fill="#515B60"/>
<path d="M696.48 63.1012C696.31 63.2812 695.28 62.5112 693.82 62.5112C692.36 62.5112 691.28 63.2412 691.12 63.0612C690.96 62.8812 691.21 62.6712 691.68 62.3312C692.315 61.892 693.069 61.6582 693.84 61.6612C694.602 61.6624 695.344 61.9039 695.96 62.3512C696.41 62.7012 696.59 63.0212 696.48 63.1012Z" fill="#515B60"/>
<path d="M680.74 66.6309C680.743 66.9848 680.608 67.3259 680.363 67.5817C680.119 67.8375 679.784 67.9879 679.43 68.0009C679.258 68.0131 679.084 67.9909 678.92 67.9355C678.755 67.8801 678.604 67.7927 678.474 67.6783C678.343 67.5639 678.237 67.4248 678.161 67.269C678.085 67.1133 678.041 66.944 678.03 66.7709C678.025 66.4153 678.159 66.0716 678.404 65.8137C678.649 65.5557 678.985 65.4039 679.34 65.3909C679.514 65.3787 679.689 65.4013 679.853 65.4573C680.018 65.5133 680.17 65.6016 680.301 65.7171C680.431 65.8325 680.537 65.9728 680.613 66.1297C680.688 66.2866 680.732 66.457 680.74 66.6309Z" fill="#515B60"/>
<path d="M682.06 63.8309C681.9 64.0109 680.86 63.2409 679.4 63.2509C677.94 63.2609 676.86 63.9809 676.7 63.8009C676.54 63.6209 676.8 63.4009 677.27 63.0609C677.903 62.6193 678.659 62.3883 679.43 62.4009C680.191 62.3965 680.934 62.6346 681.55 63.0809C681.99 63.4309 682.15 63.7509 682.06 63.8309Z" fill="#515B60"/>
<path d="M687.38 74.2216C688.153 73.981 688.952 73.8366 689.76 73.7916C690.13 73.7916 690.48 73.6816 690.55 73.4316C690.582 73.0447 690.495 72.6573 690.3 72.3216L689.2 69.4716C687.67 65.4116 686.57 62.0716 686.73 62.0116C686.89 61.9516 688.27 65.1916 689.79 69.2516C690.16 70.2516 690.51 71.2515 690.85 72.1215C691.083 72.5743 691.151 73.0944 691.04 73.5915C690.986 73.7235 690.902 73.841 690.794 73.9347C690.686 74.0284 690.558 74.0958 690.42 74.1316C690.216 74.1917 690.004 74.222 689.79 74.2216C688.99 74.3234 688.18 74.3234 687.38 74.2216Z" fill="#515B60"/>
<path d="M683.06 75.2209C683.3 75.2209 683.3 76.8009 684.66 77.9309C686.02 79.0609 687.71 78.9309 687.72 79.1109C687.73 79.2909 687.35 79.4209 686.63 79.4409C685.698 79.4483 684.793 79.13 684.07 78.5409C683.379 77.9747 682.937 77.1595 682.84 76.2709C682.78 75.6109 682.95 75.2109 683.06 75.2209Z" fill="#515B60"/>
<path d="M682.82 60.5106C682.68 60.9106 681.21 60.7406 679.5 60.9706C677.79 61.2006 676.4 61.6706 676.16 61.3206C676.06 61.1506 676.3 60.7706 676.85 60.3806C677.594 59.9009 678.437 59.5967 679.315 59.491C680.193 59.3853 681.084 59.4809 681.92 59.7706C682.59 60.0106 682.88 60.3206 682.82 60.5106Z" fill="#515B60"/>
<path d="M696.84 58.8711C696.56 59.2311 695.29 59.0111 693.84 59.1411C692.39 59.2711 691.14 59.6411 690.84 59.3311C690.7 59.1711 690.84 58.8211 691.38 58.4511C692.098 57.9829 692.925 57.7105 693.78 57.6611C694.63 57.5767 695.486 57.7217 696.26 58.0811C696.75 58.3711 696.96 58.6911 696.84 58.8711Z" fill="#515B60"/>
<path d="M667.22 68.3215C667.06 68.2515 660.68 66.3715 660.87 72.8915C661.06 79.4115 667.57 77.8915 667.58 77.6815C667.59 77.4715 667.22 68.3215 667.22 68.3215Z" fill="#FFBE9D"/>
<path d="M666.09 75.2706C666.09 75.2706 665.97 75.3506 665.78 75.4506C665.511 75.5607 665.21 75.5607 664.94 75.4506C664.511 75.1969 664.157 74.8335 663.914 74.3977C663.672 73.9618 663.55 73.4693 663.56 72.9706C663.528 72.4107 663.621 71.8507 663.83 71.3306C663.886 71.1258 663.99 70.9376 664.135 70.7825C664.28 70.6274 664.46 70.51 664.66 70.4406C664.79 70.4023 664.929 70.4103 665.053 70.4633C665.177 70.5162 665.279 70.6107 665.34 70.7306C665.43 70.9106 665.39 71.0406 665.43 71.0506C665.47 71.0606 665.56 70.9406 665.5 70.6706C665.461 70.5119 665.369 70.3711 665.24 70.2706C665.055 70.1379 664.825 70.0839 664.6 70.1206C664.335 70.1823 664.09 70.3113 663.888 70.4952C663.687 70.6791 663.536 70.9117 663.45 71.1706C663.186 71.7391 663.069 72.365 663.11 72.9906C663.094 73.5728 663.25 74.1468 663.56 74.64C663.869 75.1331 664.319 75.5232 664.85 75.7606C665.022 75.8035 665.2 75.8078 665.373 75.7732C665.546 75.7386 665.709 75.666 665.85 75.5606C666.08 75.4306 666.11 75.2806 666.09 75.2706Z" fill="#EB996E"/>
<path d="M671.5 48.9411L674.72 46.1611L684.96 47.7311L692.16 45.8811L694.05 47.9511C693.24 49.0411 694.96 44.3911 693.32 43.1511C689.79 40.4711 686.81 40.5711 682.32 40.4911C677.83 40.4111 668.87 45.8111 665.66 48.8711C663.09 51.3211 663.11 53.4311 663.11 53.4311C662.7 56.9611 664.67 60.9611 665.45 64.4311C665.86 66.2111 666.64 71.6111 666.64 71.6111C668.14 71.6111 668.64 70.4211 668.47 68.9411L668.19 63.1311C669.692 61.9475 670.767 60.306 671.251 58.4559C671.734 56.6058 671.601 54.6484 670.87 52.8811C670.53 52.3611 669.7 49.9411 671.5 48.9411Z" fill="#515B60"/>
<path d="M670.17 50.5015C670.518 49.5872 671.144 48.8055 671.961 48.267C672.778 47.7286 673.743 47.4608 674.72 47.5015C676.679 47.6292 678.523 48.4727 679.9 49.8715C680.251 50.2486 680.643 50.5841 681.07 50.8715C681.285 51.0039 681.529 51.0806 681.78 51.0946C682.032 51.1085 682.283 51.0594 682.51 50.9515C682.65 50.8815 682.79 50.7715 682.94 50.8115C683.044 50.8539 683.129 50.932 683.18 51.0315C683.551 51.6312 684.071 52.1241 684.69 52.4615C685.002 52.6217 685.356 52.6799 685.702 52.6278C686.048 52.5758 686.37 52.4162 686.62 52.1715C686.978 52.5 687.425 52.7171 687.904 52.7961C688.383 52.875 688.876 52.8126 689.32 52.6163C689.765 52.42 690.142 52.0984 690.407 51.6909C690.672 51.2833 690.812 50.8075 690.81 50.3215C691.25 50.4125 691.707 50.3762 692.126 50.2168C692.546 50.0574 692.912 49.7815 693.18 49.4215C693.654 48.8846 694.003 48.2492 694.202 47.5611C694.401 46.8731 694.444 46.1495 694.329 45.4425C694.215 44.7356 693.944 44.0629 693.538 43.4731C693.132 42.8832 692.6 42.3909 691.98 42.0315C690.997 41.5322 689.928 41.2234 688.83 41.1215C687.12 40.8819 685.397 40.7517 683.67 40.7315C682.91 40.6897 682.149 40.7811 681.42 41.0015C680.42 41.3615 679.6 42.1715 678.56 42.3015C677.879 42.3324 677.198 42.2235 676.56 41.9815C675.638 41.6636 674.665 41.5211 673.69 41.5615C671.78 41.7315 670.2 43.1015 668.94 44.5615C667.989 45.525 667.3 46.7162 666.94 48.0215C666.773 48.6769 666.805 49.3673 667.031 50.0048C667.257 50.6422 667.667 51.1981 668.21 51.6015C668.43 51.7523 668.682 51.8491 668.946 51.8838C669.211 51.9186 669.479 51.8904 669.73 51.8015C669.852 51.7512 669.962 51.6773 670.056 51.5842C670.149 51.491 670.222 51.3804 670.272 51.2587C670.323 51.137 670.348 51.0066 670.348 50.8749C670.348 50.7433 670.321 50.613 670.27 50.4915" fill="#515B60"/>
<path d="M665.66 65.4215C664.96 60.4215 665.8 54.4215 669.43 50.1515C673.06 45.8815 679.48 43.2715 683.73 44.0815C687.04 44.7115 694.24 44.9715 696.87 51.9015L696.5 46.1815C696.5 46.1815 693.3 39.6815 683.85 39.8815C674.4 40.0815 670.28 41.1815 665.71 46.7415C664.187 48.4359 663.142 50.5055 662.683 52.7375C662.224 54.9696 662.368 57.2835 663.1 59.4415C663.76 61.5122 664.617 63.5147 665.66 65.4215Z" fill="#E3E8F4"/>
<path d="M691.69 41.2907C691.57 41.2636 691.452 41.2233 691.34 41.1707C691.12 41.0907 690.8 40.9507 690.34 40.8107C689.137 40.3764 687.899 40.0419 686.64 39.8107C684.778 39.4997 682.887 39.389 681 39.4807C678.692 39.5886 676.413 40.0437 674.24 40.8307C672.07 41.6548 670.044 42.8194 668.24 44.2807C667.458 44.918 666.739 45.6279 666.09 46.4007C665.77 46.7507 665.51 47.1207 665.24 47.4707C664.97 47.8207 664.74 48.1707 664.54 48.5207C663.873 49.608 663.31 50.7566 662.86 51.9507C662.69 52.3607 662.59 52.7007 662.51 52.9507C662.478 53.0693 662.431 53.1835 662.37 53.2907L662.46 52.9407C662.54 52.7107 662.62 52.3707 662.78 51.9407C663.198 50.7275 663.741 49.5612 664.4 48.4607C664.6 48.1107 664.85 47.7607 665.09 47.3907C665.33 47.0207 665.62 46.6507 665.94 46.2907C666.598 45.5104 667.324 44.7908 668.11 44.1407C669.909 42.6581 671.935 41.4762 674.11 40.6407C676.304 39.8434 678.608 39.3914 680.94 39.3007C682.842 39.2081 684.748 39.3356 686.62 39.6807C687.88 39.9061 689.118 40.2407 690.32 40.6807C690.75 40.8407 691.06 41.0007 691.32 41.0907L691.69 41.2907Z" fill="#515B60"/>
<path d="M666.29 57.0512C666.187 57.0236 666.089 56.9797 666 56.9212C665.75 56.7669 665.513 56.593 665.29 56.4012C664.553 55.7612 663.988 54.9456 663.649 54.0297C663.31 53.1138 663.207 52.1273 663.35 51.1612C663.395 50.8723 663.466 50.5878 663.56 50.3112C663.63 50.1112 663.68 50.0112 663.69 50.0212C663.7 50.0312 663.58 50.4612 663.51 51.1812C663.421 52.119 663.541 53.0649 663.86 53.9512C664.193 54.8334 664.719 55.6297 665.4 56.2812C665.92 56.7812 666.31 57.0212 666.29 57.0512Z" fill="#515B60"/>
<path d="M669.05 51.3309C668.738 51.1947 668.459 50.9936 668.23 50.7409C667.636 50.1603 667.187 49.4477 666.92 48.6609C666.644 47.875 666.578 47.0302 666.73 46.2109C666.768 45.8578 666.88 45.5168 667.06 45.2109C667.06 45.2109 666.97 45.5909 666.88 46.2109C666.788 47.0031 666.874 47.8059 667.13 48.5609C667.394 49.3026 667.806 49.983 668.34 50.5609C668.75 51.0809 669.07 51.3009 669.05 51.3309Z" fill="#515B60"/>
<path d="M673.52 47.1614C673.264 47.0436 673.03 46.8811 672.83 46.6814C672.317 46.2251 671.89 45.6797 671.57 45.0714C671.256 44.449 671.076 43.7678 671.04 43.0714C671.004 42.7896 671.028 42.5033 671.11 42.2314C671.161 43.1679 671.384 44.0868 671.77 44.9414C672.248 45.7587 672.837 46.5058 673.52 47.1614Z" fill="#515B60"/>
<path d="M677.83 39.7812C678.007 39.9625 678.146 40.1765 678.24 40.4113C678.52 40.945 678.738 41.5086 678.89 42.0913C679.04 42.6772 679.127 43.2771 679.15 43.8813C679.173 44.1328 679.153 44.3865 679.09 44.6313C679.02 44.6313 679.02 43.4913 678.67 42.1513C678.32 40.8113 677.77 39.8112 677.83 39.7812Z" fill="#515B60"/>
<path d="M686.13 39.6211C686.286 39.8189 686.398 40.0471 686.46 40.2911C686.648 40.8682 686.726 41.4753 686.69 42.0811C686.66 42.6865 686.514 43.2805 686.26 43.8311C686.173 44.0694 686.033 44.2848 685.85 44.4611C686.179 43.7013 686.389 42.895 686.47 42.0711C686.48 41.242 686.366 40.4161 686.13 39.6211Z" fill="#515B60"/>
<path d="M691.46 41.1211C691.649 41.3175 691.799 41.5484 691.9 41.8011C692.176 42.4049 692.329 43.0576 692.35 43.7211C692.37 44.3818 692.251 45.0394 692 45.6511C691.917 45.9127 691.781 46.1544 691.6 46.3611C691.929 45.5188 692.105 44.6249 692.12 43.7211C692.057 42.822 691.834 41.9414 691.46 41.1211Z" fill="#515B60"/>
<path d="M696.59 45.6113C696.676 45.8132 696.714 46.0323 696.7 46.2513C696.738 47.3207 696.382 48.3668 695.7 49.1913C695.43 49.5013 695.22 49.6413 695.21 49.6213C695.643 49.0408 696.002 48.4094 696.28 47.7413C696.473 47.0472 696.577 46.3316 696.59 45.6113Z" fill="#515B60"/>
<path d="M699.18 51.2013C699.18 51.7576 698.997 52.2984 698.66 52.7413C698.39 53.2245 697.963 53.6016 697.45 53.8113C697.808 53.4325 698.142 53.0317 698.45 52.6113C698.96 51.9413 699.11 51.1913 699.18 51.2013Z" fill="#515B60"/>
<path d="M699.53 57.4912C699.58 57.4912 699.53 57.8812 699.18 58.1812C698.83 58.4812 698.46 58.5112 698.46 58.4512C698.46 58.3912 698.75 58.2713 699.03 58.0113C699.31 57.7513 699.46 57.4712 699.53 57.4912Z" fill="#515B60"/>
<path d="M665.591 62.6812C664.848 62.5776 664.139 62.3034 663.519 61.8801C662.9 61.4568 662.387 60.8959 662.021 60.2412C662.982 61.3463 664.212 62.1864 665.591 62.6812Z" fill="#515B60"/>
<path d="M666.14 65.8316C666.14 65.8816 665.82 66.2116 665.24 66.2416C664.66 66.2716 664.24 65.9916 664.3 65.9416C664.36 65.8916 664.72 66.0516 665.23 66.0116C665.74 65.9716 666.11 65.7816 666.14 65.8316Z" fill="#515B60"/>
<g opacity="0.3">
<path opacity="0.3" d="M690.91 41.0712C688.867 39.7302 686.574 38.8135 684.169 38.3755C681.764 37.9374 679.296 37.987 676.91 38.5212C674.504 39.1359 672.244 40.2223 670.262 41.7175C668.279 43.2127 666.613 45.0869 665.36 47.2312C665.36 47.2312 671.25 39.7812 679.69 39.5212C688.13 39.2612 690.91 41.0712 690.91 41.0712Z" fill="#515B60"/>
</g>
<path d="M684.39 66.1811C684.351 65.7875 684.288 65.3968 684.2 65.0111C683.92 63.9642 683.297 63.0416 682.43 62.3911C681.842 61.9457 681.157 61.6443 680.43 61.5111C679.593 61.3587 678.73 61.4312 677.93 61.7211C677.049 62.0454 676.284 62.6229 675.73 63.3811C675.133 64.1944 674.811 65.1771 674.811 66.1861C674.811 67.1951 675.133 68.1777 675.73 68.9911C676.284 69.7493 677.049 70.3268 677.93 70.6511C678.679 70.923 679.483 71.0041 680.27 70.8871C681.058 70.7701 681.804 70.4587 682.44 69.9811C683.305 69.3289 683.928 68.407 684.21 67.3611C684.299 66.9723 684.363 66.5781 684.4 66.1811C684.429 66.5844 684.392 66.9896 684.29 67.3811C684.04 68.4659 683.422 69.4305 682.54 70.1111C681.928 70.577 681.216 70.8953 680.46 71.0411C679.592 71.212 678.693 71.1429 677.86 70.8411C677.408 70.6841 676.983 70.4581 676.6 70.1711C676.201 69.8934 675.847 69.5562 675.55 69.1711C674.921 68.3219 674.582 67.293 674.582 66.2361C674.582 65.1792 674.921 64.1503 675.55 63.3011C675.843 62.8982 676.198 62.5439 676.6 62.2511C676.983 61.9641 677.408 61.7381 677.86 61.5811C678.638 61.2963 679.476 61.2139 680.295 61.3416C681.113 61.4693 681.886 61.8029 682.54 62.3111C683.422 62.9917 684.04 63.9563 684.29 65.0411C684.383 65.4136 684.416 65.7982 684.39 66.1811Z" fill="#8B7912"/>
<path d="M698.91 65.611C698.91 65.611 698.91 65.181 698.71 64.441C698.43 63.3941 697.807 62.4715 696.94 61.821C696.353 61.3736 695.667 61.072 694.94 60.941C694.103 60.7886 693.24 60.8611 692.44 61.151C692.011 61.3078 691.606 61.5268 691.24 61.801C690.646 62.2441 690.164 62.8197 689.832 63.482C689.5 64.1443 689.327 64.875 689.327 65.616C689.327 66.3569 689.5 67.0876 689.832 67.7499C690.164 68.4122 690.646 68.9879 691.24 69.431C691.606 69.7051 692.011 69.9241 692.44 70.081C693.188 70.3529 693.993 70.434 694.78 70.317C695.568 70.2 696.313 69.8886 696.95 69.411C697.815 68.7588 698.438 67.8369 698.72 66.791C698.91 66.051 698.88 65.611 698.92 65.611C698.942 66.0142 698.905 66.4184 698.81 66.811C698.551 67.8946 697.93 68.8575 697.05 69.541C696.438 70.0069 695.726 70.3252 694.97 70.471C694.102 70.6419 693.203 70.5727 692.37 70.271C691.919 70.1118 691.494 69.886 691.11 69.601C690.585 69.2172 690.141 68.7331 689.803 68.1768C689.466 67.6205 689.242 67.0029 689.144 66.3596C689.047 65.7163 689.077 65.0601 689.234 64.4287C689.392 63.7974 689.672 63.2034 690.06 62.681C690.642 61.8905 691.446 61.2916 692.37 60.961C693.148 60.6762 693.986 60.5938 694.805 60.7215C695.623 60.8492 696.396 61.1828 697.05 61.691C697.93 62.3744 698.551 63.3373 698.81 64.421C698.901 64.8106 698.935 65.2115 698.91 65.611Z" fill="#8B7912"/>
<path d="M689.36 63.7608C689.36 63.7608 689.08 63.5708 688.6 63.3408C687.972 63.024 687.272 62.8785 686.57 62.9188C685.867 62.9592 685.188 63.1841 684.6 63.5708C684.14 63.8608 683.91 64.1108 683.89 64.0808C684.041 63.8196 684.254 63.5998 684.51 63.4408C685.091 63.0052 685.786 62.7481 686.51 62.7008C687.244 62.6615 687.973 62.8351 688.61 63.2008C688.901 63.3255 689.158 63.5174 689.36 63.7608Z" fill="#8B7912"/>
<path d="M675.011 65.2808C675.011 65.3408 673.08 66.0008 670.65 66.7608C668.22 67.5208 666.241 68.0708 666.231 68.0208C666.221 67.9708 668.16 67.3008 670.58 66.5408C673 65.7808 674.991 65.2208 675.011 65.2808Z" fill="#8B7912"/>
<path d="M679.36 70.211C679.073 70.2332 678.783 70.1957 678.51 70.101C677.844 69.9109 677.232 69.5685 676.72 69.101C676.207 68.6242 675.81 68.0357 675.56 67.381C675.444 67.1166 675.386 66.83 675.39 66.541C675.511 66.7949 675.618 67.0553 675.71 67.321C676.288 68.5395 677.323 69.481 678.59 69.941C678.852 70.0173 679.109 70.1074 679.36 70.211Z" fill="white"/>
<path d="M691.26 68.6208C691.26 68.6208 690.95 68.5609 690.61 68.1909C690.197 67.7027 689.925 67.1117 689.82 66.4809C689.691 65.8575 689.691 65.2142 689.82 64.5909C689.858 64.3307 689.965 64.0855 690.13 63.8809C690.13 63.8809 690.05 64.1609 689.97 64.6309C689.877 65.2305 689.877 65.8412 689.97 66.4409C690.073 67.0359 690.309 67.6 690.66 68.0909C690.847 68.2825 691.047 68.4597 691.26 68.6208Z" fill="white"/>
<path d="M684.23 75.5612C684.23 75.5112 684.37 75.2612 684.65 74.9912C684.93 74.7212 685.17 74.5312 685.22 74.5812C685.27 74.6312 685.08 74.8813 684.8 75.1513C684.52 75.4213 684.28 75.6012 684.23 75.5612Z" fill="#515B60"/>
<path d="M684.93 75.9914C684.93 75.9914 685.07 75.6414 685.34 75.3014C685.61 74.9614 685.87 74.7014 685.91 74.7414C685.95 74.7814 685.78 75.0914 685.51 75.4314C685.24 75.7714 684.98 76.0314 684.93 75.9914Z" fill="#515B60"/>
<path d="M685.65 76.5207C685.59 76.5207 685.71 76.1707 685.9 75.8007C686.09 75.4307 686.3 75.1607 686.36 75.1807C686.42 75.2007 686.3 75.5407 686.1 75.9107C685.9 76.2807 685.7 76.5507 685.65 76.5207Z" fill="#515B60"/>
<path d="M686.74 76.531C686.68 76.531 686.65 76.301 686.67 76.031C686.69 75.761 686.76 75.541 686.82 75.541C686.88 75.541 686.91 75.771 686.89 76.041C686.87 76.311 686.81 76.531 686.74 76.531Z" fill="#515B60"/>
<path d="M687.79 76.7015C687.72 76.7015 687.67 76.5015 687.67 76.2615C687.67 76.0215 687.72 75.8115 687.79 75.8115C687.86 75.8115 687.9 76.0115 687.9 76.2615C687.9 76.5115 687.85 76.7015 687.79 76.7015Z" fill="#515B60"/>
<path d="M688.77 76.7912C688.71 76.7912 688.6 76.5611 688.52 76.2411C688.44 75.9211 688.44 75.6411 688.52 75.6311C688.6 75.6211 688.69 75.8711 688.76 76.1911C688.83 76.5111 688.83 76.7812 688.77 76.7912Z" fill="#515B60"/>
<path d="M652.76 224.941C653.97 224.941 703.93 276.941 703.93 280.551C703.93 284.161 711.35 320.791 714.93 326.431C718.51 332.071 720.66 330.751 720.66 330.751L737.27 323.011C737.27 323.011 728.07 266.011 726.05 259.601C724.03 253.191 685.93 202.781 685.93 202.781L649.93 209.631L652.76 224.941Z" fill="#3B4245"/>
<path d="M634.31 198.941L623.93 263.041C623.93 263.041 591.46 295.551 589.44 299.171C589.44 299.171 585.82 297.961 584.61 301.171C583.645 304.192 582.893 307.276 582.36 310.401L598.48 323.941C598.48 323.941 641.07 288.631 645.1 283.391C649.13 278.151 666.01 243.601 669.24 234.741C672.47 225.881 676.24 206.231 676.24 206.231L634.31 198.941Z" fill="#3B4245"/>
<path d="M712.3 268.941C712.161 269.64 711.918 270.314 711.58 270.941C710.866 272.504 710.009 273.997 709.02 275.401C708.044 276.821 706.917 278.132 705.66 279.311C705.166 279.834 704.579 280.261 703.93 280.571C704.388 280.034 704.879 279.526 705.4 279.051C706.559 277.797 707.625 276.46 708.59 275.051C710.89 271.851 712.15 268.851 712.3 268.941Z" fill="#8B7912"/>
<path d="M629.75 267.481C628.475 267.393 627.268 266.871 626.33 266.001C625.297 265.269 624.536 264.214 624.17 263.001C624.946 263.927 625.778 264.806 626.66 265.631C627.651 266.311 628.683 266.929 629.75 267.481Z" fill="#8B7912"/>
<path d="M596.24 307.541C594.612 306.711 593.206 305.504 592.139 304.02C591.073 302.536 590.377 300.819 590.11 299.011C590.786 300.649 591.61 302.222 592.57 303.711C593.668 305.103 594.897 306.385 596.24 307.541Z" fill="#8B7912"/>
<path d="M647.711 208.421C647.678 208.67 647.607 208.913 647.501 209.141C647.265 209.78 646.984 210.402 646.661 211.001C644.507 215.01 641.095 218.201 636.951 220.081C636.332 220.367 635.694 220.607 635.041 220.801C634.809 220.898 634.562 220.952 634.311 220.961C634.311 220.871 635.311 220.521 636.791 219.751C638.755 218.741 640.572 217.465 642.191 215.961C643.8 214.444 645.197 212.715 646.341 210.821C647.211 209.361 647.591 208.381 647.711 208.421Z" fill="#8B7912"/>
<path d="M673.17 224.801C673.024 225.36 672.837 225.908 672.61 226.441C672.17 227.561 671.61 229.041 670.9 230.841C669.42 234.531 667.34 239.631 664.85 245.181C662.36 250.731 659.93 255.681 658.15 259.241L656.01 263.441C655.766 263.965 655.482 264.47 655.16 264.951C655.344 264.402 655.568 263.867 655.83 263.351L657.83 259.081C659.53 255.471 661.9 250.511 664.38 244.971C666.86 239.431 669 234.361 670.56 230.691C671.33 228.931 671.96 227.471 672.43 226.361C672.637 225.823 672.884 225.301 673.17 224.801Z" fill="#8B7912"/>
<path d="M664.41 94.8411C664.41 94.8411 653.41 99.2711 650.86 107.001C649.56 110.911 641.98 139.501 641.98 139.501C641.98 139.501 631.98 194.401 633.36 199.631L690.59 208.421C692.008 206.704 692.722 204.514 692.59 202.291L691.66 185.841L692.33 115.331C692.339 114.806 692.302 114.28 692.22 113.761L690.22 100.761L690.86 95.1511L665.21 88.3711L664.41 94.8411Z" fill="#E3E8F4"/>
<path d="M662.87 90.421C662.94 89.9832 663.1 89.5647 663.341 89.1926C663.582 88.8206 663.898 88.5032 664.27 88.261C664.641 88.0188 665.059 87.8572 665.497 87.7866C665.934 87.716 666.382 87.7379 666.81 87.851L690.26 94.041C690.966 94.2282 691.585 94.6524 692.015 95.2424C692.445 95.8323 692.659 96.5522 692.62 97.281L692.56 98.281C692.532 98.7606 692.395 99.2274 692.159 99.6461C691.924 100.065 691.596 100.425 691.201 100.698C690.806 100.972 690.354 101.152 689.879 101.225C689.405 101.298 688.919 101.263 688.46 101.121L665.07 93.941C664.341 93.7187 663.716 93.2399 663.311 92.5929C662.907 91.9459 662.75 91.1745 662.87 90.421Z" fill="#455A64"/>
<path d="M690.59 100.841C690.177 100.806 689.768 100.729 689.37 100.611L686.12 99.7914C683.37 99.0714 679.59 98.0514 675.43 96.8914L669.851 95.3114C669.15 95.202 668.458 95.0416 667.781 94.8314C667.458 94.7292 667.147 94.5952 666.851 94.4314C666.69 94.3497 666.545 94.2415 666.42 94.1114C666.313 93.9776 666.22 93.8335 666.14 93.6814C665.9 93.1314 665.824 92.5237 665.92 91.9314C665.987 91.4396 666.118 90.9587 666.311 90.5014C666.571 89.8591 666.936 89.2643 667.39 88.7414C667.72 88.3914 667.94 88.2514 667.95 88.2714C667.367 88.9702 666.904 89.7609 666.58 90.6114C666.194 91.5311 666.166 92.5618 666.501 93.5014C666.721 94.0014 667.3 94.1914 667.92 94.4014C668.575 94.5958 669.244 94.7395 669.92 94.8314L675.511 96.3714C679.671 97.5314 683.441 98.6114 686.161 99.3714L689.37 100.371C689.791 100.489 690.2 100.646 690.59 100.841Z" fill="#3B4245"/>
<path d="M690.82 104.841C690.876 105.009 690.909 105.184 690.92 105.361C690.97 105.761 691.03 106.251 691.1 106.851C691.24 108.151 691.42 110.031 691.59 112.361C691.96 117.021 692.33 123.461 692.54 130.581C692.75 137.701 692.73 144.161 692.54 148.831C692.47 151.161 692.37 153.051 692.28 154.351C692.23 154.961 692.18 155.451 692.15 155.851C692.151 156.027 692.124 156.203 692.07 156.371C692.049 156.198 692.049 156.023 692.07 155.851C692.07 155.441 692.07 154.951 692.07 154.341C692.07 153.041 692.15 151.151 692.17 148.821C692.24 144.161 692.17 137.711 691.99 130.591C691.81 123.471 691.47 117.041 691.2 112.391C691.06 110.111 690.95 108.251 690.86 106.871C690.86 106.271 690.81 105.771 690.79 105.371C690.78 105.194 690.79 105.016 690.82 104.841Z" fill="#515B60"/>
<path d="M674.18 90.1514C673.794 91.0918 673.483 92.0615 673.25 93.0514C673.178 94.0501 673.178 95.0527 673.25 96.0514C672.956 95.594 672.758 95.0814 672.669 94.5449C672.58 94.0085 672.6 93.4595 672.73 92.9314C672.776 92.395 672.927 91.873 673.176 91.3957C673.425 90.9185 673.767 90.4955 674.18 90.1514Z" fill="#515B60"/>
<path d="M680.84 91.6807C680.89 91.6807 681.13 91.9607 681.33 92.5407C681.573 93.3138 681.618 94.1355 681.461 94.9305C681.304 95.7255 680.949 96.4682 680.43 97.0907C680.03 97.5507 679.69 97.7407 679.65 97.6907C680.232 96.8118 680.67 95.8465 680.95 94.8307C681.072 93.7811 681.035 92.7192 680.84 91.6807Z" fill="#515B60"/>
<path d="M687.33 93.4814C687.38 93.4814 687.65 93.7214 687.89 94.2814C688.202 95.0263 688.299 95.8437 688.17 96.6409C688.041 97.438 687.691 98.1831 687.16 98.7915C686.75 99.2515 686.41 99.4214 686.37 99.3714C687.053 98.5712 687.506 97.6012 687.682 96.5643C687.858 95.5274 687.75 94.4621 687.37 93.4814H687.33Z" fill="#515B60"/>
<path d="M683.95 109.351C681.79 102.971 676.55 97.4008 669.95 96.0908C663.35 94.7808 657.15 96.1808 652.44 101.671L646.44 114.421C649.1 112.941 653.36 104.291 658.32 101.351C663.28 98.4109 668.8 98.3509 672.88 102.441C675.88 105.441 678.13 109.801 678.06 114.081C677.92 122.461 674.43 130.321 671.89 138.321C668.63 148.581 666.05 159.521 658.52 167.231C652.47 173.421 644.37 177.111 636.52 180.661C634.66 182.191 630.36 187.751 632.58 188.661C634.8 189.571 642.87 186.661 645.16 185.951C650.87 184.211 656.8 182.341 661.16 178.241C665.16 174.431 667.38 169.121 669.46 163.981C673.46 154.061 676.08 143.721 680.09 133.791C683.49 125.341 686.87 117.991 683.95 109.351Z" fill="#3B4245"/>
<path d="M674.82 216.121L670.26 208.421L655 213.741C655 213.741 656 227.301 658 227.691C658.602 227.795 659.218 227.767 659.807 227.608C660.396 227.449 660.943 227.163 661.41 226.771C661.41 226.771 662.55 230.311 664.83 230.461L666.1 230.521C666.51 230.841 668.83 232.521 670.75 231.901C670.75 231.901 672.51 235.721 673.93 235.321C675.35 234.921 676.27 230.321 676.27 230.321L674.82 216.121Z" fill="#FFBE9D"/>
<path d="M661.04 99.5111C658.436 100.422 656.112 101.991 654.293 104.066C652.474 106.14 651.223 108.65 650.66 111.351C647.66 125.721 640.5 163.351 640.79 168.651C641.16 175.391 654.01 215.331 654.01 215.331L672.01 209.911L663.84 164.911C663.84 164.911 676.59 122.811 677.59 116.411C678.69 109.421 672.59 95.5111 661.04 99.5111Z" fill="#E3E8F4"/>
<path d="M661.04 99.5414C661.496 99.3603 661.964 99.21 662.44 99.0914C663.828 98.7125 665.281 98.6375 666.7 98.8714C668.989 99.2968 671.077 100.455 672.65 102.171C675.977 105.882 677.836 110.678 677.88 115.661C677.86 116.648 677.736 117.63 677.51 118.591C677.31 119.591 677.06 120.591 676.82 121.591C675.82 125.591 674.58 129.921 673.26 134.501C670.61 143.661 667.53 153.911 664.11 164.981V164.871L672.3 209.871V210.101L672.08 210.171L663.64 212.701L654.04 215.591L653.79 215.661L653.72 215.421C651.05 207.231 648.53 199.231 646.21 191.491C645.06 187.621 643.94 183.821 642.93 180.071C642.43 178.201 641.93 176.351 641.5 174.501C641.27 173.581 641.08 172.651 640.9 171.731C640.732 170.81 640.629 169.877 640.59 168.941C640.64 167.106 640.804 165.276 641.08 163.461C641.33 161.681 641.58 159.931 641.86 158.201C642.4 154.751 642.99 151.421 643.56 148.201C644.71 141.761 645.85 135.791 646.9 130.361L649.79 115.721C650.132 113.698 650.587 111.695 651.15 109.721C651.708 108.093 652.503 106.557 653.51 105.161C654.904 103.23 656.711 101.635 658.8 100.491C659.517 100.081 660.275 99.7461 661.06 99.4914C661.06 99.4914 660.87 99.5914 660.49 99.7514C659.927 99.9853 659.379 100.256 658.85 100.561C656.801 101.727 655.033 103.328 653.67 105.251C652.689 106.639 651.914 108.161 651.37 109.771C650.833 111.728 650.396 113.71 650.06 115.711C649.23 120.021 648.29 124.931 647.24 130.361C646.19 135.791 645.1 141.781 643.97 148.211C643.41 151.431 642.84 154.761 642.3 158.211C642.02 159.931 641.77 161.681 641.53 163.461C641.268 165.251 641.111 167.054 641.06 168.861C641.124 169.776 641.251 170.685 641.44 171.581C641.61 172.501 641.81 173.411 642.04 174.331C642.46 176.171 642.97 178.021 643.47 179.881C644.47 183.621 645.61 187.421 646.76 191.281C649.09 199.011 651.61 207.011 654.28 215.201L653.96 215.031L663.56 212.151L672 209.611L671.82 209.911C668.92 193.911 666.17 178.681 663.67 164.911V164.851V164.791C667.1 153.721 670.21 143.491 672.89 134.341C674.22 129.771 675.46 125.471 676.49 121.461C677.054 119.564 677.419 117.614 677.58 115.641C677.544 110.729 675.741 105.994 672.5 102.301C670.965 100.605 668.924 99.4476 666.68 99.0014C665.279 98.7535 663.841 98.8046 662.46 99.1514C662.105 99.2249 661.755 99.3184 661.41 99.4314C661.289 99.4748 661.166 99.5115 661.04 99.5414Z" fill="#515B60"/>
<path d="M664.06 164.671C661.198 162.612 657.785 161.459 654.26 161.361C656.04 161.067 657.865 161.215 659.574 161.792C661.283 162.369 662.823 163.358 664.06 164.671Z" fill="#515B60"/>
<g opacity="0.3">
<path opacity="0.3" d="M649.66 202.731C641.27 190.291 636.86 172.901 641.66 160.531C640.35 167.941 641.6 174.711 643.81 181.901C646.02 189.091 648.66 196.261 649.09 203.771" fill="#515B60"/>
</g>
<g opacity="0.8">
<path d="M630.093 56.5171C630.041 56.9714 630.132 57.43 630.354 57.8351C630.577 58.2401 630.92 58.5733 631.34 58.7927C631.761 59.012 632.241 59.1076 632.719 59.0674C633.197 59.0272 633.651 58.853 634.025 58.5668C634.399 58.2805 634.676 57.8952 634.82 57.4593C634.964 57.0235 634.969 56.5567 634.835 56.1181C634.7 55.6794 634.433 55.2886 634.065 54.9948C633.698 54.7011 633.247 54.5178 632.77 54.4679C632.453 54.4347 632.132 54.4615 631.826 54.5466C631.52 54.6316 631.234 54.7734 630.985 54.9637C630.737 55.1541 630.53 55.3892 630.377 55.6558C630.224 55.9223 630.127 56.215 630.093 56.5171Z" fill="white"/>
<path d="M632.511 59.4673H632.196C631.639 59.4095 631.113 59.1956 630.684 58.8528C630.254 58.5099 629.942 58.0535 629.785 57.5413C629.628 57.0292 629.635 56.4842 629.803 55.9754C629.972 55.4667 630.295 55.017 630.732 54.6832C631.021 54.4585 631.355 54.2915 631.714 54.1923C632.072 54.093 632.448 54.0635 632.819 54.1054C633.569 54.1443 634.273 54.4656 634.775 54.9987C635.277 55.5318 635.537 56.233 635.496 56.9481C635.455 57.6633 635.118 58.3337 634.558 58.8119C633.998 59.2901 633.262 59.5369 632.511 59.4981V59.4673ZM632.511 54.845C632.015 54.8458 631.536 55.0206 631.166 55.336C630.796 55.6514 630.561 56.0854 630.505 56.5553C630.461 56.9339 630.536 57.3164 630.721 57.6544C630.905 57.9925 631.19 58.2709 631.541 58.4545C631.891 58.6381 632.291 58.7185 632.689 58.6858C633.088 58.653 633.467 58.5084 633.779 58.2703C634.091 58.0323 634.322 57.7114 634.443 57.3482C634.564 56.9851 634.569 56.596 634.457 56.2302C634.346 55.8644 634.123 55.5383 633.817 55.2931C633.511 55.0479 633.135 54.8946 632.738 54.8527L632.511 54.845Z" fill="#919191"/>
<path d="M636.709 62.2877C636.679 62.5485 636.73 62.812 636.857 63.0449C636.984 63.2778 637.181 63.4696 637.422 63.5959C637.664 63.7222 637.939 63.7774 638.213 63.7544C638.488 63.7315 638.749 63.6314 638.964 63.467C639.178 63.3025 639.337 63.0811 639.419 62.8307C639.502 62.5803 639.504 62.3123 639.426 62.0605C639.349 61.8088 639.194 61.5847 638.983 61.4167C638.771 61.2487 638.512 61.1443 638.238 61.1167C637.872 61.0799 637.506 61.1825 637.22 61.4019C636.934 61.6213 636.75 61.9397 636.709 62.2877Z" fill="white"/>
<path d="M638.092 64.1363H637.89C637.42 64.0828 636.99 63.8561 636.693 63.5045C636.545 63.33 636.435 63.129 636.369 62.9133C636.304 62.6977 636.285 62.4717 636.313 62.2488C636.338 62.0264 636.409 61.8109 636.522 61.6148C636.635 61.4187 636.788 61.2459 636.971 61.1062C637.154 60.9666 637.365 60.8629 637.591 60.8012C637.817 60.7394 638.053 60.7209 638.286 60.7466C638.637 60.7836 638.969 60.919 639.24 61.1356C639.51 61.3521 639.707 61.6402 639.806 61.9633C639.904 62.2865 639.9 62.6302 639.794 62.9511C639.688 63.2721 639.484 63.5558 639.208 63.7665C638.891 64.0072 638.498 64.1377 638.092 64.1363ZM637.113 62.3258C637.098 62.4477 637.109 62.5713 637.145 62.6892C637.181 62.807 637.242 62.9166 637.324 63.0115C637.402 63.1094 637.5 63.1908 637.613 63.2505C637.726 63.3101 637.85 63.3468 637.979 63.3582C638.237 63.3826 638.495 63.3108 638.699 63.1579C638.802 63.0836 638.887 62.9897 638.95 62.8823C639.012 62.7749 639.051 62.6562 639.063 62.5339C639.077 62.4119 639.066 62.2885 639.03 62.1707C638.995 62.0528 638.935 61.9428 638.854 61.847C638.774 61.7511 638.675 61.6713 638.562 61.612C638.449 61.5527 638.325 61.5152 638.197 61.5015C638.069 61.4879 637.94 61.4984 637.816 61.5324C637.692 61.5664 637.577 61.6234 637.476 61.6999C637.376 61.7764 637.292 61.8711 637.229 61.9785C637.167 62.0859 637.128 62.2039 637.113 62.3258Z" fill="#919191"/>
<path d="M644.241 67.3906H644.071C643.676 67.3435 643.316 67.1435 643.067 66.8334C642.943 66.6794 642.85 66.5021 642.795 66.3119C642.741 66.1216 642.725 65.9223 642.748 65.7257C642.769 65.5295 642.829 65.3394 642.923 65.1664C643.018 64.9935 643.146 64.841 643.3 64.7178C643.454 64.5946 643.631 64.5031 643.82 64.4487C644.009 64.3942 644.208 64.3779 644.403 64.4005C644.698 64.4332 644.976 64.5526 645.203 64.7437C645.43 64.9347 645.595 65.1888 645.678 65.4738C645.761 65.7589 645.757 66.0621 645.668 66.3452C645.579 66.6283 645.408 66.8786 645.177 67.0644C644.911 67.2768 644.581 67.3919 644.241 67.3906ZM643.42 65.7936C643.407 65.9011 643.416 66.0102 643.446 66.1141C643.476 66.2181 643.527 66.3148 643.596 66.3984C643.661 66.4848 643.744 66.5566 643.839 66.6092C643.933 66.6619 644.038 66.6942 644.146 66.7042C644.362 66.7258 644.578 66.6625 644.749 66.5276C644.836 66.462 644.907 66.3793 644.96 66.2845C645.012 66.1897 645.045 66.0851 645.055 65.9771C645.067 65.8696 645.057 65.7607 645.027 65.6568C644.998 65.5528 644.947 65.4558 644.88 65.3712C644.813 65.2867 644.729 65.2162 644.635 65.1639C644.54 65.1117 644.436 65.0785 644.329 65.0665C644.221 65.0544 644.113 65.0637 644.009 65.0937C643.905 65.1237 643.808 65.1739 643.724 65.2415C643.639 65.309 643.569 65.3925 643.517 65.4872C643.465 65.582 643.432 65.6861 643.42 65.7936Z" fill="#919191"/>
<path d="M594.691 16.0026C595.897 12.0567 598.285 8.53167 601.563 5.86008C604.842 3.18849 608.868 1.48653 613.147 0.963008C617.427 0.439489 621.773 1.11718 625.654 2.91295C629.535 4.70871 632.781 7.54443 634.994 11.0722C637.35 10.8151 639.735 11.019 642.005 11.6713C644.275 12.3237 646.38 13.4108 648.193 14.866C650.006 16.3212 651.488 18.1137 652.547 20.1337C653.607 22.1537 654.222 24.3586 654.355 26.6131C654.488 28.8676 654.136 31.1242 653.32 33.2446C652.505 35.3649 651.244 37.3042 649.613 38.9436C647.983 40.583 646.018 41.888 643.84 42.7783C641.661 43.6687 639.314 44.1258 636.944 44.1216C636.663 44.1216 636.394 44.1216 636.135 44.1216C633.267 47.9079 629.024 50.5429 624.23 51.514C619.435 52.4851 614.433 51.7229 610.196 49.3756C605.868 50.0668 601.421 49.3654 597.558 47.382C593.695 45.3987 590.636 42.2463 588.863 38.4226C587.089 34.5989 586.704 30.3216 587.767 26.266C588.829 22.2103 591.28 18.6073 594.732 16.0258L594.691 16.0026Z" fill="white"/>
<path d="M620.047 52.2875C616.55 52.2726 613.117 51.394 610.083 49.7375C609.028 49.893 607.963 49.9728 606.896 49.9763C602.715 49.9769 598.637 48.7389 595.227 46.4337C591.817 44.1286 589.245 40.8704 587.866 37.1106C586.486 33.3509 586.369 29.2756 587.53 25.4495C588.69 21.6234 591.071 18.2357 594.343 15.756C595.586 11.7765 598.012 8.22505 601.329 5.53083C604.645 2.83661 608.71 1.11495 613.032 0.573916C617.354 0.0328842 621.748 0.695639 625.682 2.48209C629.617 4.26853 632.924 7.1022 635.205 10.6406C635.795 10.5867 636.377 10.5559 636.944 10.5559C641.663 10.5559 646.189 12.3415 649.526 15.52C652.863 18.6984 654.738 23.0093 654.738 27.5043C654.738 31.9993 652.863 36.3102 649.526 39.4886C646.189 42.6671 641.663 44.4527 636.944 44.4527H636.288C634.413 46.8771 631.967 48.8488 629.146 50.2095C626.326 51.5702 623.209 52.2819 620.047 52.2875ZM610.237 48.9671L610.358 49.0365C614.508 51.335 619.407 52.0813 624.102 51.1301C628.798 50.179 632.954 47.5984 635.763 43.8903L635.892 43.7208H636.111C636.386 43.7208 636.669 43.7208 636.919 43.7208C641.424 43.7208 645.744 42.0164 648.93 38.9824C652.115 35.9484 653.904 31.8335 653.904 27.5428C653.904 23.2521 652.115 19.1372 648.93 16.1032C645.744 13.0693 641.424 11.3648 636.919 11.3648C636.281 11.3671 635.644 11.4031 635.011 11.4726H634.752L634.622 11.2646C632.45 7.80138 629.263 5.01746 625.453 3.25441C621.643 1.49136 617.376 0.825857 613.175 1.33955C608.974 1.85324 605.021 3.52379 601.803 6.14624C598.584 8.76869 596.239 12.229 595.055 16.1026V16.2182L594.95 16.2952C591.783 18.662 589.469 21.9109 588.332 25.5894C587.195 29.2678 587.291 33.1924 588.607 36.8163C589.923 40.4403 592.392 43.5831 595.672 45.8067C598.952 48.0303 602.878 49.2239 606.904 49.2214C607.975 49.2203 609.043 49.1353 610.099 48.9671H610.237Z" fill="#919191"/>
<path opacity="0.5" d="M611.482 24.1996C611.572 24.1724 611.667 24.1675 611.759 24.1853C611.851 24.203 611.936 24.2429 612.008 24.3012C612.079 24.3594 612.133 24.434 612.166 24.518C612.198 24.6019 612.207 24.6923 612.193 24.7806C612.178 24.8689 612.14 24.9521 612.082 25.0224C612.024 25.0927 611.948 25.1477 611.861 25.1821C611.775 25.2165 611.68 25.2293 611.587 25.2191C611.494 25.209 611.405 25.1763 611.328 25.1241C611.26 25.0649 611.207 24.9911 611.174 24.9087C611.141 24.8264 611.128 24.7378 611.138 24.65C611.147 24.5623 611.178 24.4779 611.228 24.4037C611.278 24.3295 611.346 24.2675 611.425 24.2227L611.482 24.1996Z" fill="white"/>
<path opacity="0.5" d="M613.577 30.2542C612.097 29.3375 613.577 26.1173 611.725 25.8477C610.342 26.3792 611.757 29.1064 613.577 30.2542Z" fill="white"/>
</g>
<path opacity="0.9" d="M595.882 31.3906V22.2256H596.961V30.4546H601.589V31.3906H595.882ZM605.684 31.5076C604.661 31.5076 603.855 31.213 603.266 30.6236C602.677 30.0256 602.382 29.198 602.382 28.1406C602.382 27.456 602.512 26.8623 602.772 26.3596C603.032 25.8483 603.396 25.454 603.864 25.1766C604.332 24.8906 604.869 24.7476 605.476 24.7476C606.074 24.7476 606.577 24.8733 606.984 25.1246C607.391 25.376 607.703 25.7356 607.92 26.2036C608.137 26.663 608.245 27.209 608.245 27.8416V28.2316H603.188V27.5686H607.556L607.335 27.7376C607.335 27.0443 607.179 26.5026 606.867 26.1126C606.555 25.7226 606.091 25.5276 605.476 25.5276C604.826 25.5276 604.319 25.7573 603.955 26.2166C603.591 26.6673 603.409 27.2783 603.409 28.0496V28.1666C603.409 28.9813 603.608 29.601 604.007 30.0256C604.414 30.4416 604.982 30.6496 605.71 30.6496C606.1 30.6496 606.464 30.5933 606.802 30.4806C607.149 30.3593 607.478 30.1643 607.79 29.8956L608.154 30.6366C607.868 30.914 607.504 31.1306 607.062 31.2866C606.629 31.434 606.169 31.5076 605.684 31.5076ZM612.17 31.5076C611.529 31.5076 611.039 31.3256 610.701 30.9616C610.363 30.589 610.194 30.03 610.194 29.2846V25.6836H608.92V24.8646H610.194V23.0836L611.247 22.7846V24.8646H613.119V25.6836H611.247V29.1676C611.247 29.6876 611.334 30.0603 611.507 30.2856C611.689 30.5023 611.958 30.6106 612.313 30.6106C612.478 30.6106 612.625 30.5976 612.755 30.5716C612.885 30.537 613.002 30.498 613.106 30.4546V31.3386C612.985 31.3906 612.838 31.4296 612.664 31.4556C612.5 31.4903 612.335 31.5076 612.17 31.5076ZM614.689 25.0336L614.195 24.6566C614.429 24.414 614.58 24.1886 614.65 23.9806C614.728 23.764 614.767 23.5516 614.767 23.3436L615.092 23.5516H614.143V22.2256H615.469V23.1616C615.469 23.5083 615.412 23.8333 615.3 24.1366C615.187 24.44 614.983 24.739 614.689 25.0336ZM619.086 31.5076C618.566 31.5076 618.081 31.4383 617.63 31.2996C617.179 31.1523 616.807 30.9486 616.512 30.6886L616.876 29.9476C617.197 30.199 617.543 30.3853 617.916 30.5066C618.297 30.628 618.692 30.6886 619.099 30.6886C619.619 30.6886 620.009 30.5976 620.269 30.4156C620.538 30.225 620.672 29.965 620.672 29.6356C620.672 29.3843 620.585 29.185 620.412 29.0376C620.247 28.8816 619.974 28.7603 619.593 28.6736L618.384 28.4266C617.829 28.3053 617.413 28.1016 617.136 27.8156C616.859 27.521 616.72 27.1483 616.72 26.6976C616.72 26.3163 616.82 25.9826 617.019 25.6966C617.218 25.402 617.509 25.1723 617.89 25.0076C618.271 24.8343 618.718 24.7476 619.229 24.7476C619.706 24.7476 620.143 24.8213 620.542 24.9686C620.949 25.1073 621.287 25.311 621.556 25.5796L621.179 26.3076C620.919 26.0563 620.62 25.87 620.282 25.7486C619.953 25.6186 619.61 25.5536 619.255 25.5536C618.744 25.5536 618.358 25.6576 618.098 25.8656C617.847 26.065 617.721 26.3293 617.721 26.6586C617.721 26.91 617.799 27.118 617.955 27.2826C618.12 27.4386 618.371 27.5556 618.709 27.6336L619.918 27.8806C620.507 28.0106 620.945 28.2143 621.231 28.4916C621.526 28.7603 621.673 29.1243 621.673 29.5836C621.673 29.9736 621.565 30.316 621.348 30.6106C621.131 30.8966 620.828 31.1176 620.438 31.2736C620.057 31.4296 619.606 31.5076 619.086 31.5076ZM631.083 31.5076C630.077 31.5076 629.237 31.3213 628.561 30.9486C627.885 30.576 627.378 30.0386 627.04 29.3366C626.702 28.6346 626.533 27.794 626.533 26.8146C626.533 25.844 626.71 25.0076 627.066 24.3056C627.421 23.6036 627.932 23.062 628.6 22.6806C629.267 22.2993 630.073 22.1086 631.018 22.1086C631.685 22.1086 632.261 22.2083 632.747 22.4076C633.241 22.5983 633.683 22.8843 634.073 23.2656L633.67 24.1106C633.384 23.8593 633.106 23.66 632.838 23.5126C632.578 23.3653 632.305 23.257 632.019 23.1876C631.733 23.1096 631.399 23.0706 631.018 23.0706C629.934 23.0706 629.102 23.4 628.522 24.0586C627.95 24.7086 627.664 25.6316 627.664 26.8276C627.664 28.0323 627.941 28.9553 628.496 29.5966C629.059 30.238 629.93 30.5586 631.109 30.5586C631.542 30.5586 631.954 30.5196 632.344 30.4416C632.742 30.355 633.128 30.2336 633.501 30.0776L633.267 30.6626V27.4386H630.927V26.5936H634.19V30.8446C633.817 31.044 633.345 31.2043 632.773 31.3256C632.209 31.447 631.646 31.5076 631.083 31.5076ZM638.941 31.5076C638.317 31.5076 637.771 31.3733 637.303 31.1046C636.843 30.8273 636.488 30.4373 636.237 29.9346C635.985 29.4233 635.86 28.821 635.86 28.1276C635.86 27.4256 635.985 26.8233 636.237 26.3206C636.488 25.818 636.843 25.4323 637.303 25.1636C637.771 24.8863 638.317 24.7476 638.941 24.7476C639.573 24.7476 640.119 24.8863 640.579 25.1636C641.047 25.4323 641.406 25.818 641.658 26.3206C641.918 26.8233 642.048 27.4256 642.048 28.1276C642.048 28.821 641.918 29.4233 641.658 29.9346C641.406 30.4373 641.047 30.8273 640.579 31.1046C640.119 31.3733 639.573 31.5076 638.941 31.5076ZM638.941 30.6496C639.565 30.6496 640.059 30.4373 640.423 30.0126C640.787 29.5793 640.969 28.951 640.969 28.1276C640.969 27.2956 640.782 26.6673 640.41 26.2426C640.046 25.8093 639.556 25.5926 638.941 25.5926C638.325 25.5926 637.836 25.8093 637.472 26.2426C637.108 26.6673 636.926 27.2956 636.926 28.1276C636.926 28.951 637.108 29.5793 637.472 30.0126C637.836 30.4373 638.325 30.6496 638.941 30.6496ZM643.819 28.9986L643.494 22.2256H644.794L644.469 28.9986H643.819ZM643.481 31.3906V30.0646H644.807V31.3906H643.481Z" fill="#909090"/>
</svg>
