<svg width="24" height="24" viewBox="0 0 24 24" fill="none" xmlns="http://www.w3.org/2000/svg">
<path d="M2.5 11.5H2V12.5V13.5L2.5 15L3 16L3.5 16.5L4.5 17H5L6 17.5L7 17H8L8.5 16.5L9 16L9.5 15.5L10 14V13.5V12.5L10.5 11.5H10L9 11L8 10L7.5 10.5L6.5 11H5.5L4.5 11.5H3.5H2.5Z" fill="#FFF3B2"/>
<path d="M16 11.5L15 12V12.5V13.5V14.5L15.5 15.5L16 16L16.5 16.5L17.5 17H18.5H19L20 16.5H20.5L21 16L21.5 15.5V15L22 14.5V14V13.5V12.5V12H21.5H20.5L18.5 11.5L17 11H16.5L16 11.5Z" fill="#FFF3B2"/>
<path d="M10.0798 18.1088L8.36793 17.7784C8.36956 17.7438 8.37324 17.7095 8.37324 17.6746V16.6102C9.39106 16.0295 10.1395 15.0715 10.4566 13.9435C10.7727 13.905 11.0699 13.772 11.309 13.5618C11.5482 13.3516 11.7183 13.074 11.7971 12.7655C11.8758 12.4569 11.8595 12.1318 11.7503 11.8327C11.6411 11.5336 11.444 11.2744 11.185 11.0892L11.2367 10.3057C11.3056 9.26255 11.0504 8.22363 10.5059 7.3312C9.96147 6.43876 9.15444 5.73647 8.19537 5.32049C7.2363 4.90451 6.17208 4.7952 5.14847 5.00752C4.12486 5.21984 3.19191 5.74341 2.47741 6.50653C2.00062 7.01143 1.63377 7.60976 1.40004 8.2637C1.16631 8.91763 1.07079 9.61294 1.11952 10.3057L1.1712 11.0892C0.912175 11.2744 0.715144 11.5336 0.605926 11.8327C0.496709 12.1318 0.4804 12.4569 0.559136 12.7655C0.637872 13.074 0.807981 13.3516 1.04717 13.5618C1.28636 13.772 1.58347 13.905 1.89957 13.9435C2.21677 15.0715 2.96516 16.0295 3.98298 16.6102V17.6746C3.98298 17.7095 3.98665 17.7438 3.98829 17.7784L2.27622 18.1088C1.63593 18.2332 1.05878 18.5763 0.643545 19.0793C0.228313 19.5823 0.000818914 20.214 0 20.8663V23.6431C5.32548e-05 23.7377 0.0375617 23.8284 0.10432 23.8954C0.171077 23.9624 0.26165 24.0002 0.356221 24.0006H11.9988C12.0936 24.0005 12.1844 23.9629 12.2515 23.8958C12.3185 23.8288 12.3562 23.7379 12.3562 23.6431V20.8665C12.3554 20.2142 12.1279 19.5824 11.7127 19.0793C11.2974 18.5763 10.7202 18.2332 10.0798 18.1088ZM10.5994 13.1734C10.6127 13.0343 10.6198 12.8934 10.6198 12.7506V11.5845C10.7737 11.6538 10.904 11.7666 10.9947 11.9089C11.0854 12.0512 11.1325 12.2169 11.1304 12.3857C11.1282 12.5544 11.0768 12.7189 10.9825 12.8588C10.8882 12.9987 10.755 13.1081 10.5994 13.1734ZM1.83237 10.2585C1.7735 9.3626 1.99297 8.47041 2.46075 7.70408C2.92852 6.93774 3.62173 6.33472 4.44546 5.97757C5.26919 5.62043 6.18317 5.52662 7.06228 5.70899C7.94138 5.89136 8.74263 6.34099 9.35632 6.99633C9.7658 7.42996 10.0809 7.94381 10.2816 8.50542C10.4824 9.06702 10.5644 9.66417 10.5226 10.2591L10.4873 10.8083C10.4377 10.8013 10.3875 10.7966 10.3365 10.7943C9.33079 10.4497 8.49825 9.43841 8.49008 9.42819C8.43705 9.36303 8.3628 9.3186 8.28031 9.30265C8.19783 9.28671 8.11237 9.30027 8.03887 9.34098C5.32657 10.8488 2.13304 10.7912 2.10179 10.7912C2.02394 10.7903 1.94617 10.7962 1.86934 10.8088L1.83237 10.2585ZM1.22431 12.3736C1.2247 12.2069 1.27306 12.0439 1.36361 11.904C1.45416 11.764 1.58307 11.6531 1.73494 11.5845V12.7506C1.73494 12.8936 1.7423 13.0343 1.75537 13.1734C1.59808 13.107 1.46384 12.9957 1.3694 12.8535C1.27495 12.7112 1.22449 12.5443 1.22431 12.3736ZM2.44984 12.7506V11.5026C3.36899 11.4769 5.83884 11.2924 8.13181 10.102C8.63013 10.6481 9.23321 11.0882 9.90516 11.3964V12.7506C9.90516 13.7392 9.51242 14.6874 8.81335 15.3865C8.11428 16.0855 7.16613 16.4783 6.1775 16.4783C5.18886 16.4783 4.24072 16.0855 3.54164 15.3865C2.84257 14.6874 2.44984 13.7392 2.44984 12.7506ZM6.1775 17.1932C6.68203 17.1934 7.18289 17.1073 7.65835 16.9385V17.6738C7.65835 18.0665 7.50233 18.4432 7.22462 18.7209C6.9469 18.9986 6.57024 19.1546 6.1775 19.1546C5.78475 19.1546 5.40809 18.9986 5.13038 18.7209C4.85266 18.4432 4.69665 18.0665 4.69665 17.6738V16.9385C5.17211 17.1073 5.67296 17.1934 6.1775 17.1932ZM11.6413 23.2857H0.713668V20.8665C0.714262 20.3802 0.883854 19.9092 1.19342 19.5342C1.50298 19.1592 1.93326 18.9034 2.41062 18.8107L4.13596 18.4777C4.29681 18.8882 4.57765 19.2406 4.94184 19.4891C5.30602 19.7375 5.73664 19.8704 6.1775 19.8704C6.61835 19.8704 7.04897 19.7375 7.41316 19.4891C7.77734 19.2406 8.05818 18.8882 8.21903 18.4777L9.94437 18.8107C10.4217 18.9034 10.852 19.1592 11.1616 19.5342C11.4711 19.9092 11.6407 20.3802 11.6413 20.8665V23.2857Z" fill="black"/>
<path d="M4.20603 22.061H2.98049C2.88569 22.061 2.79477 22.0987 2.72774 22.1657C2.66071 22.2328 2.62305 22.3237 2.62305 22.4185C2.62305 22.5133 2.66071 22.6042 2.72774 22.6712C2.79477 22.7383 2.88569 22.7759 2.98049 22.7759H4.20603C4.30083 22.7759 4.39174 22.7383 4.45878 22.6712C4.52581 22.6042 4.56347 22.5133 4.56347 22.4185C4.56347 22.3237 4.52581 22.2328 4.45878 22.1657C4.39174 22.0987 4.30083 22.061 4.20603 22.061Z" fill="black"/>
<path d="M21.9438 18.6842L21.2598 18.5521L22.0488 18.4822C22.4482 18.4461 22.819 18.26 23.0867 17.9615C23.3543 17.6629 23.499 17.274 23.4915 16.8731L23.3893 11.7686C23.3618 10.4815 22.8312 9.25647 21.9113 8.35597C20.9913 7.45547 19.7552 6.95117 18.4679 6.95117C17.1806 6.95117 15.9445 7.45547 15.0245 8.35597C14.1046 9.25647 13.574 10.4815 13.5465 11.7686L13.4443 16.8733C13.4379 17.274 13.5829 17.6624 13.8506 17.9607C14.1182 18.2589 14.4886 18.4452 14.8876 18.482L15.6769 18.5521L14.992 18.6842C14.4134 18.7967 13.892 19.1068 13.5168 19.5614C13.1417 20.016 12.9362 20.5868 12.9355 21.1762V23.6431C12.9356 23.7379 12.9733 23.8288 13.0403 23.8958C13.1073 23.9629 13.1982 24.0005 13.293 24.0006H23.6428C23.7376 24.0005 23.8285 23.9629 23.8955 23.8958C23.9625 23.8288 24.0002 23.7379 24.0003 23.6431V21.1757C23.9995 20.5864 23.794 20.0157 23.4188 19.5612C23.0437 19.1067 22.5223 18.7967 21.9438 18.6842ZM18.4682 17.234C17.6005 17.233 16.7686 16.8879 16.1549 16.2744C15.5413 15.661 15.1959 14.8292 15.1946 13.9614V12.7835C15.7779 12.5115 16.3024 12.1283 16.739 11.6554C18.745 12.6889 20.8966 12.8632 21.7414 12.8901V13.9614C21.7403 14.8292 21.395 15.6611 20.7815 16.2747C20.1679 16.8883 19.336 17.2335 18.4682 17.2346V17.234ZM17.1924 17.7365C18.0197 18.021 18.9183 18.021 19.7456 17.7365V18.3386C19.7456 18.6772 19.6111 19.0019 19.3717 19.2413C19.1323 19.4807 18.8076 19.6152 18.469 19.6152C18.1305 19.6152 17.8057 19.4807 17.5663 19.2413C17.3269 19.0019 17.1924 18.6772 17.1924 18.3386V17.7365ZM14.159 16.8874L14.2612 11.7833C14.2842 10.6828 14.7375 9.63516 15.5239 8.86502C16.3103 8.09487 17.3672 7.66355 18.4679 7.66355C19.5686 7.66355 20.6255 8.09487 21.4119 8.86502C22.1983 9.63516 22.6516 10.6828 22.6746 11.7833L22.7768 16.8884C22.7808 17.1082 22.7014 17.3214 22.5546 17.4851C22.4078 17.6487 22.2044 17.7507 21.9855 17.7704L20.4605 17.9054V17.4111C21.0667 17.0618 21.5702 16.5591 21.9207 15.9536C22.2711 15.3481 22.456 14.6611 22.4569 13.9614V12.5364C22.4569 12.4887 22.4474 12.4414 22.4289 12.3975C22.4103 12.3535 22.3832 12.3137 22.3491 12.2804C22.3152 12.2468 22.2748 12.2204 22.2304 12.2028C22.1859 12.1853 22.1384 12.1769 22.0907 12.1783C22.0617 12.1801 19.2417 12.2334 16.834 10.8948C16.7605 10.854 16.675 10.8404 16.5926 10.8563C16.5101 10.8722 16.4358 10.9166 16.3828 10.9818C16.3752 10.991 15.6242 11.9044 14.7267 12.1957C14.6549 12.219 14.5923 12.2645 14.548 12.3256C14.5036 12.3867 14.4797 12.4603 14.4797 12.5357V13.9614C14.4806 14.6613 14.6657 15.3487 15.0164 15.9543C15.3671 16.56 15.871 17.0627 16.4775 17.4119V17.9052L14.9509 17.7702C14.732 17.7499 14.5288 17.6477 14.382 17.484C14.2351 17.3203 14.1555 17.1073 14.159 16.8874ZM23.2854 23.2857H13.6506V21.1757C13.6512 20.7525 13.7988 20.3426 14.0683 20.0161C14.3377 19.6896 14.7121 19.4669 15.1276 19.3861L16.6283 19.0968C16.7783 19.4617 17.0334 19.7737 17.3611 19.9932C17.6889 20.2128 18.0744 20.33 18.4689 20.33C18.8634 20.33 19.249 20.2128 19.5767 19.9932C19.9044 19.7737 20.1595 19.4617 20.3096 19.0968L21.8082 19.3861C22.2237 19.4669 22.5982 19.6896 22.8677 20.016C23.1371 20.3425 23.2848 20.7524 23.2854 21.1757V23.2857Z" fill="black"/>
<path d="M11.7508 5.23844C11.8174 5.30238 11.9062 5.33808 11.9985 5.33808C12.0909 5.33808 12.1797 5.30238 12.2463 5.23844L14.0386 3.51391L14.0411 3.51065C14.2736 3.29454 14.4609 3.03449 14.5922 2.74553C14.7236 2.45656 14.7963 2.14443 14.8062 1.82717C14.8068 1.56807 14.7551 1.31151 14.6542 1.07286C14.5533 0.834203 14.4053 0.618358 14.219 0.438239C14.0757 0.294234 13.9045 0.18113 13.7158 0.105914C13.5271 0.0306979 13.325 -0.005033 13.1219 0.000928163C12.7149 0.0139125 12.3221 0.153816 11.9985 0.401064C11.6749 0.153816 11.2822 0.0139125 10.8751 0.000928163C10.6719 -0.00630307 10.4694 0.0287826 10.2805 0.103959C10.0916 0.179135 9.92035 0.292761 9.77767 0.437626C9.59144 0.617774 9.44346 0.833624 9.34256 1.07227C9.24166 1.31092 9.18992 1.56746 9.19043 1.82656C9.20056 2.14457 9.27369 2.4574 9.40559 2.74694C9.53749 3.03648 9.72554 3.29696 9.95884 3.5133L11.7508 5.23844ZM10.2828 0.942341C10.3563 0.868164 10.4442 0.80979 10.541 0.770802C10.6379 0.731814 10.7417 0.713035 10.8461 0.715617H10.8623C11.1959 0.732126 11.5098 0.878792 11.7365 1.12413C11.7707 1.15865 11.8114 1.18605 11.8562 1.20476C11.901 1.22346 11.9491 1.23309 11.9977 1.23309C12.0463 1.23309 12.0944 1.22346 12.1392 1.20476C12.1841 1.18605 12.2248 1.15865 12.259 1.12413C12.4857 0.878792 12.7995 0.732126 13.1332 0.715617C13.2405 0.710555 13.3478 0.728143 13.4479 0.76724C13.548 0.806337 13.6388 0.866066 13.7143 0.942545C13.8342 1.05594 13.9296 1.19266 13.9947 1.3443C14.0599 1.49593 14.0933 1.65929 14.093 1.82432C14.0701 2.27335 13.8721 2.69553 13.5415 3.00021L11.9985 4.48413L10.4572 3.00123C10.1263 2.69607 9.9283 2.27328 9.90574 1.8237C9.90531 1.65887 9.93853 1.49568 10.0034 1.34413C10.0682 1.19258 10.1633 1.05586 10.2828 0.942341Z" fill="black"/>
</svg>
