<svg width="49" height="49" viewBox="0 0 49 49" fill="none" xmlns="http://www.w3.org/2000/svg">
<mask id="mask0_1067_7787" style="mask-type:alpha" maskUnits="userSpaceOnUse" x="0" y="0" width="49" height="49">
<circle cx="24.7852" cy="24.3477" r="24" fill="#D9D9D9"/>
</mask>
<g mask="url(#mask0_1067_7787)">
<mask id="mask1_1067_7787" style="mask-type:luminance" maskUnits="userSpaceOnUse" x="0" y="0" width="102" height="60">
<path d="M101.86 0.347656H0.785156V59.4871H101.86V0.347656Z" fill="white"/>
</mask>
<g mask="url(#mask1_1067_7787)">
<path d="M27.5898 0.347656L0.785156 32.6055V37.9818L3.46562 40.67L0.785156 43.3582V48.7345L3.46562 51.4226L0.785156 54.1108V59.4871H101.86V54.1108L99.1793 51.4226L101.86 48.7345V43.3582L99.1793 40.67L101.86 37.9818V32.6055L99.1793 29.9174L101.86 27.2594V21.8529L99.1793 19.1647L101.86 16.4766V11.1003L99.1793 8.41212L101.86 5.72397V0.347656H27.5898Z" fill="#AE0037"/>
<path d="M0.785156 54.1058H101.86V48.7295H0.785156V54.1058ZM0.785156 43.3532H101.86V37.9769H0.785156V43.3532ZM27.5898 5.71899L0.785156 27.2544V32.6006H101.86V27.2544H27.5898L22.2289 21.8781H101.86V16.5018H22.2289V11.1255H101.86V5.71899H27.5898Z" fill="white"/>
<path d="M27.5898 0.347656H0.785156V27.2594H27.5898V0.347656Z" fill="#192967"/>
</g>
</g>
<path d="M16.2935 6.70776L13.5195 15.2213L18.6331 16.8972L16.2935 6.70776Z" fill="white"/>
<path d="M24.783 12.9062H15.8594V18.2691L24.783 12.9062Z" fill="white"/>
<path d="M21.5416 22.8995L18.801 14.386L13.6875 16.0619L21.5416 22.8995Z" fill="white"/>
<path d="M11.0469 22.9042L18.266 17.6419L15.1243 13.3181L11.0469 22.9042Z" fill="white"/>
<path d="M7.80469 12.9062L15.0238 18.1685L18.1655 13.8112L7.80469 12.9062Z" fill="white"/>
<path d="M16.2985 6.70776L19.0725 15.2213L13.959 16.8972L16.2985 6.70776Z" fill="white"/>
<path d="M24.7846 12.9062L17.5655 18.1685L14.4238 13.8112L24.7846 12.9062Z" fill="white"/>
<path d="M21.5433 22.9042L14.3242 17.6419L17.4659 13.3181L21.5433 22.9042Z" fill="white"/>
<path d="M11.0469 22.8995L13.8209 14.386L18.901 16.0619L11.0469 22.8995Z" fill="white"/>
<path d="M7.80469 12.9062H16.7283V18.2691L7.80469 12.9062Z" fill="white"/>
</svg>
