<svg width="49" height="49" viewBox="0 0 49 49" fill="none" xmlns="http://www.w3.org/2000/svg">
<mask id="mask0_1067_7731" style="mask-type:alpha" maskUnits="userSpaceOnUse" x="0" y="0" width="49" height="49">
<circle cx="24.7852" cy="24.9258" r="24" fill="#D9D9D9"/>
</mask>
<g mask="url(#mask0_1067_7731)">
<path d="M-11.0996 -0.323021L-11.0996 50.1643L60.6684 50.1643L60.6684 -0.323024L-11.0996 -0.323021Z" fill="#233D90"/>
<path fill-rule="evenodd" clip-rule="evenodd" d="M24.7013 42.4226L24.1724 40.8301L22.4766 40.8301L23.8392 39.824L23.3387 38.2314L24.7013 39.2101L26.0342 38.2314L25.5337 39.824L26.8963 40.8301L25.2005 40.8301L24.7013 42.4226Z" fill="#FFCD00"/>
<path fill-rule="evenodd" clip-rule="evenodd" d="M32.5114 40.3279L32.0122 38.7353L30.3164 38.7353L31.6778 37.7292L31.1501 36.1367L32.5114 37.1154L33.874 36.1367L33.3736 37.7292L34.7077 38.7353L33.0404 38.7353L32.5114 40.3279Z" fill="#FFCD00"/>
<path fill-rule="evenodd" clip-rule="evenodd" d="M38.2658 34.5767L37.7368 32.9841L36.041 32.9841L37.4036 31.978L36.8747 30.3855L38.2373 31.3629L39.5986 30.3855L39.0982 31.978L40.4608 32.9841L38.765 32.9841L38.2658 34.5767Z" fill="#FFCD00"/>
<path fill-rule="evenodd" clip-rule="evenodd" d="M16.8591 40.3062L16.3314 38.7136L14.6641 38.7136L16.0254 37.7075L15.4977 36.115L16.8591 37.0924L18.2217 36.115L17.694 37.7075L19.0553 38.7136L17.388 38.7136L16.8591 40.3062Z" fill="#FFCD00"/>
<path fill-rule="evenodd" clip-rule="evenodd" d="M9.16406 33.0957L10.5254 32.0896L10.0262 30.497L11.3591 31.5019L12.7217 30.497L12.2212 32.0896L13.5838 33.0957L11.888 33.0957L11.3876 34.6882L10.8599 33.0957L9.16406 33.0957Z" fill="#FFCD00"/>
<path fill-rule="evenodd" clip-rule="evenodd" d="M7.02344 25.1813L8.38603 24.2039L7.8571 22.6113L9.21846 23.5887L10.5811 22.6113L10.0534 24.2039L11.4147 25.2099L9.74739 25.2099L9.21846 26.8025L8.69076 25.2099L7.02344 25.1813Z" fill="#FFCD00"/>
<path fill-rule="evenodd" clip-rule="evenodd" d="M9.8864 15.0212L11.249 16.0273L12.6104 15.0212L12.0827 16.615L13.444 17.6211L11.7767 17.6211L11.249 19.2124L10.7201 17.6211L9.05273 17.6211L10.4153 16.6424L9.8864 15.0212Z" fill="#FFCD00"/>
<path fill-rule="evenodd" clip-rule="evenodd" d="M25.8917 7.11008L25.3912 8.70138L26.7538 9.70747L25.058 9.70747L24.5576 11.3013L24.0299 9.70747L22.3613 9.70747L23.6967 8.70138L23.1962 7.11008L24.5576 8.08752L25.8917 7.11008Z" fill="#FFCD00"/>
<path fill-rule="evenodd" clip-rule="evenodd" d="M33.7335 9.17399L33.233 10.7939L34.5944 11.7726L32.8986 11.7726L32.3994 13.3926L31.8704 11.7726L30.2031 11.8L31.5645 10.7939L31.038 9.20263L32.3994 10.1801L33.7335 9.17399Z" fill="#FFCD00" stroke="#FFCD00" stroke-width="0.23" stroke-miterlimit="10"/>
<path fill-rule="evenodd" clip-rule="evenodd" d="M15.6103 9.23385L16.9717 10.2125L18.3342 9.23385L17.8053 10.8538L19.1679 11.8313L17.4721 11.8313L16.9717 13.425L16.444 11.8313L14.7754 11.8313L16.138 10.8264L15.6103 9.23385Z" fill="#FFCD00"/>
<path fill-rule="evenodd" clip-rule="evenodd" d="M42.3495 25.1611L40.681 25.1611L40.1533 26.781L39.6256 25.1611L37.957 25.1885L39.3196 24.1836L38.7919 22.5898L40.1533 23.5685L41.5159 22.5624L40.987 24.1836L42.3495 25.1611Z" fill="#FFCD00"/>
<path fill-rule="evenodd" clip-rule="evenodd" d="M39.4866 15.0143L38.9577 16.6355L40.3203 17.6142L38.6529 17.6142L38.124 19.2341L37.5963 17.6142L35.9277 17.6142L37.2903 16.6355L36.7614 15.0143L38.124 16.0204L39.4866 15.0143Z" fill="#FFCD00"/>
</g>
</svg>
