<svg width="48" height="48" viewBox="0 0 48 48" fill="none" xmlns="http://www.w3.org/2000/svg">
<g clip-path="url(#clip0_1951_4337)">
<path d="M59.9991 0.000244141H-12V48.0002H59.9991V0.000244141Z" fill="#F0F0F0"/>
<path d="M28.4995 0H19.4996V19.4997H-12V28.4996H19.4996V47.9992H28.4995V28.4996H59.9991V19.4997H28.4995V0Z" fill="#D80027"/>
<path d="M43.374 32.3474L59.9978 41.583V32.3474H43.374Z" fill="#0052B4"/>
<path d="M31.8252 32.3474L59.9988 47.9993V43.5734L39.7922 32.3474H31.8252Z" fill="#0052B4"/>
<path d="M52.4943 47.999L31.8252 36.5151V47.999H52.4943Z" fill="#0052B4"/>
<path d="M31.8252 32.3474L59.9988 47.9993V43.5734L39.7922 32.3474H31.8252Z" fill="#F0F0F0"/>
<path d="M31.8252 32.3474L59.9988 47.9993V43.5734L39.7922 32.3474H31.8252Z" fill="#D80027"/>
<path d="M0.704051 32.3474L-12 39.4053V32.3474H0.704051Z" fill="#0052B4"/>
<path d="M16.1739 34.3376V47.9993H-8.41504L16.1739 34.3376Z" fill="#0052B4"/>
<path d="M8.20659 32.3474L-12 43.5734V47.9993L16.1736 32.3474H8.20659Z" fill="#D80027"/>
<path d="M4.62378 15.6518L-12 6.41626V15.6518H4.62378Z" fill="#0052B4"/>
<path d="M16.1736 15.6519L-12 0V4.42598L8.20659 15.6519H16.1736Z" fill="#0052B4"/>
<path d="M-4.49512 0L16.174 11.4839V0H-4.49512Z" fill="#0052B4"/>
<path d="M16.1736 15.6519L-12 0V4.42598L8.20659 15.6519H16.1736Z" fill="#F0F0F0"/>
<path d="M16.1736 15.6519L-12 0V4.42598L8.20659 15.6519H16.1736Z" fill="#D80027"/>
<path d="M47.2939 15.6521L59.998 8.59424V15.6521H47.2939Z" fill="#0052B4"/>
<path d="M31.8252 13.6617V0H56.4142L31.8252 13.6617Z" fill="#0052B4"/>
<path d="M39.7922 15.6519L59.9988 4.42598V0L31.8252 15.6519H39.7922Z" fill="#D80027"/>
</g>
<defs>
<clipPath id="clip0_1951_4337">
<rect width="48" height="48" rx="24" fill="white"/>
</clipPath>
</defs>
</svg>
