<svg width="32" height="32" viewBox="0 0 32 32" fill="none" xmlns="http://www.w3.org/2000/svg">
<g id="beach-house 1">
<circle id="Ellipse 538" cx="29" cy="5" r="3" fill="#FFE867" fill-opacity="0.5"/>
<rect id="Rectangle 5777" x="12" y="12" width="2" height="4" fill="#FFF3B2"/>
<path id="Rectangle 5778" d="M21 12H23V16H21V12Z" fill="#FFF3B2"/>
<g id="Layer_x0020_1">
<g id="_304193040">
<g id="Group">
<g id="Group_2">
<g id="_304191840">
<path id="Vector" fill-rule="evenodd" clip-rule="evenodd" d="M26.25 20.5625H8.875C8.625 20.5625 8.5 20.375 8.5 20.1875V17.6875C8.5 17.5 8.625 17.3125 8.875 17.3125H26.25C26.4375 17.3125 26.625 17.5 26.625 17.6875V20.1875C26.625 20.375 26.4375 20.5625 26.25 20.5625ZM9.25 19.8125H25.875V18.0625H9.25V19.8125Z" fill="#595959"/>
</g>
<g id="_304192440">
<path id="Vector_2" fill-rule="evenodd" clip-rule="evenodd" d="M13.3125 23.4375H10.75C10.5625 23.4375 10.375 23.25 10.375 23.0625V20.1875C10.375 19.9375 10.5625 19.8125 10.75 19.8125H13.3125C13.5 19.8125 13.6875 19.9375 13.6875 20.1875V23.0625C13.6875 23.25 13.5 23.4375 13.3125 23.4375ZM11.125 22.6875H12.9375V20.5625H11.125V22.6875Z" fill="#595959"/>
</g>
<g id="_304192656">
<path id="Vector_3" fill-rule="evenodd" clip-rule="evenodd" d="M24.3125 23.4375H21.8125C21.625 23.4375 21.4375 23.25 21.4375 23.0625V20.1875C21.4375 19.9375 21.625 19.8125 21.8125 19.8125H24.3125C24.5625 19.8125 24.6875 19.9375 24.6875 20.1875V23.0625C24.6875 23.25 24.5625 23.4375 24.3125 23.4375ZM22.1875 22.6875H23.9375V20.5625H22.1875V22.6875Z" fill="#595959"/>
</g>
<g id="_304192584">
<path id="Vector_4" fill-rule="evenodd" clip-rule="evenodd" d="M24.6875 18.0625H10.375C10.1875 18.0625 10 17.875 10 17.6875V9.875C10 9.6875 10.1875 9.5 10.375 9.5H24.6875C24.9375 9.5 25.0625 9.6875 25.0625 9.875V17.6875C25.0625 17.875 24.9375 18.0625 24.6875 18.0625ZM10.75 17.3125H24.3125V10.25H10.75V17.3125Z" fill="#595959"/>
</g>
<g id="_304192536">
<path id="Vector_5" fill-rule="evenodd" clip-rule="evenodd" d="M19.6875 18.0625H15.4375C15.1875 18.0625 15.0625 17.875 15.0625 17.6875V11.5625C15.0625 11.3125 15.1875 11.1875 15.4375 11.1875H19.6875C19.9375 11.1875 20.0625 11.3125 20.0625 11.5625V17.6875C20.0625 17.875 19.9375 18.0625 19.6875 18.0625ZM15.8125 17.3125H19.3125V11.9375H15.8125V17.3125Z" fill="#595959"/>
</g>
<g id="_304192560">
<path id="Vector_6" fill-rule="evenodd" clip-rule="evenodd" d="M14.1875 16.25H11.625C11.4375 16.25 11.25 16.0625 11.25 15.875V11.5625C11.25 11.375 11.4375 11.1875 11.625 11.1875H14.1875C14.375 11.1875 14.5625 11.375 14.5625 11.5625V15.875C14.5625 16.0625 14.375 16.25 14.1875 16.25ZM12 15.5H13.8125V11.9375H12V15.5Z" fill="#595959"/>
</g>
<g id="_304192872">
<path id="Vector_7" fill-rule="evenodd" clip-rule="evenodd" d="M23.5 16.25H20.9375C20.75 16.25 20.5625 16.0625 20.5625 15.875V11.5625C20.5625 11.375 20.75 11.1875 20.9375 11.1875H23.5C23.6875 11.1875 23.875 11.375 23.875 11.5625V15.875C23.875 16.0625 23.6875 16.25 23.5 16.25ZM21.3125 15.5H23.125V11.9375H21.3125V15.5Z" fill="#595959"/>
</g>
<g id="_252264528">
<path id="Vector_8" fill-rule="evenodd" clip-rule="evenodd" d="M24.6875 15.5H23.5C23.25 15.5 23.125 15.375 23.125 15.125C23.125 14.9375 23.25 14.75 23.5 14.75H24.3125V12.6875H23.5C23.25 12.6875 23.125 12.5 23.125 12.3125C23.125 12.0625 23.25 11.9375 23.5 11.9375H24.6875C24.9375 11.9375 25.0625 12.0625 25.0625 12.3125V15.125C25.0625 15.375 24.9375 15.5 24.6875 15.5ZM20.9375 15.5H19.6875C19.5 15.5 19.3125 15.375 19.3125 15.125C19.3125 14.9375 19.5 14.75 19.6875 14.75H20.9375C21.125 14.75 21.3125 14.9375 21.3125 15.125C21.3125 15.375 21.125 15.5 20.9375 15.5ZM15.4375 15.5H14.1875C13.9375 15.5 13.8125 15.375 13.8125 15.125C13.8125 14.9375 13.9375 14.75 14.1875 14.75H15.4375C15.625 14.75 15.8125 14.9375 15.8125 15.125C15.8125 15.375 15.625 15.5 15.4375 15.5ZM11.625 15.5H10.375C10.1875 15.5 10 15.375 10 15.125V12.3125C10 12.0625 10.1875 11.9375 10.375 11.9375H11.625C11.8125 11.9375 12 12.0625 12 12.3125C12 12.5 11.8125 12.6875 11.625 12.6875H10.75V14.75H11.625C11.8125 14.75 12 14.9375 12 15.125C12 15.375 11.8125 15.5 11.625 15.5ZM20.9375 12.6875H19.6875C19.5 12.6875 19.3125 12.5 19.3125 12.3125C19.3125 12.0625 19.5 11.9375 19.6875 11.9375H20.9375C21.125 11.9375 21.3125 12.0625 21.3125 12.3125C21.3125 12.5 21.125 12.6875 20.9375 12.6875ZM15.4375 12.6875H14.1875C13.9375 12.6875 13.8125 12.5 13.8125 12.3125C13.8125 12.0625 13.9375 11.9375 14.1875 11.9375H15.4375C15.625 11.9375 15.8125 12.0625 15.8125 12.3125C15.8125 12.5 15.625 12.6875 15.4375 12.6875Z" fill="#595959"/>
</g>
<g id="_304193136">
<path id="Vector_9" fill-rule="evenodd" clip-rule="evenodd" d="M26.0627 11.625C25.9377 11.625 25.8752 11.5625 25.8127 11.5L17.5627 3.125L9.3127 11.5C9.1877 11.625 8.9377 11.625 8.8127 11.5C8.6252 11.375 8.6252 11.125 8.7502 11L17.3127 2.3125C17.3752 2.25 17.4377 2.1875 17.5627 2.1875C17.6252 2.1875 17.7502 2.25 17.8127 2.3125L26.3127 11C26.5002 11.125 26.5002 11.375 26.3127 11.5C26.2502 11.5625 26.1877 11.625 26.0627 11.625Z" fill="#595959"/>
</g>
</g>
<g id="_252263784">
<path id="Vector_10" fill-rule="evenodd" clip-rule="evenodd" d="M17.2498 27.4375C16.7498 27.4375 16.3123 26.875 15.8748 26.375C15.6873 26.125 15.3123 25.625 15.1248 25.625C14.9373 25.625 14.5623 26.0625 14.3123 26.375C13.9373 26.875 13.4998 27.375 12.9373 27.375C12.4373 27.375 11.9998 26.875 11.6248 26.4375C11.3123 26.125 10.9998 25.75 10.8123 25.75C10.6248 25.75 10.2498 26.125 9.99978 26.375C9.56228 26.8125 9.18728 27.25 8.62478 27.25C8.12478 27.25 7.68728 26.875 7.31228 26.4375C7.06228 26.1875 6.68728 25.875 6.49978 25.875C6.24978 25.875 5.93728 26.125 5.68728 26.4375C5.56228 26.5 5.43728 26.625 5.31228 26.6875C5.12478 26.8125 4.93728 26.8125 4.74978 26.6875C4.62478 26.5 4.68728 26.25 4.81228 26.125C4.93728 26.0625 5.06228 25.9375 5.18728 25.875C5.56228 25.5 5.99978 25.125 6.49978 25.125C6.99978 25.125 7.43728 25.5 7.81228 25.9375C8.12478 26.1875 8.43728 26.5 8.62478 26.5C8.81228 26.5 9.18728 26.125 9.43728 25.875C9.87478 25.4375 10.2498 25 10.8123 25C11.3123 25 11.7498 25.5 12.1873 25.9375C12.4373 26.25 12.7498 26.625 12.9373 26.625C13.1248 26.625 13.4998 26.1875 13.7498 25.875C14.1248 25.375 14.5623 24.875 15.1248 24.875C15.6248 24.875 16.0623 25.4375 16.4998 25.9375C16.6873 26.1875 17.0623 26.6875 17.2498 26.6875C17.4373 26.6875 17.8123 26.25 18.0623 25.9375C18.4998 25.4375 18.8748 24.9375 19.4373 24.9375C19.9373 24.9375 20.3748 25.4375 20.8123 25.875C21.0623 26.1875 21.3748 26.5625 21.5623 26.5625C21.8123 26.5625 22.1248 26.1875 22.3748 25.9375C22.8123 25.5 23.2498 25.0625 23.7498 25.0625C24.2498 25.0625 24.6873 25.4375 25.0623 25.875C25.3748 26.125 25.6873 26.4375 25.8748 26.4375C26.1248 26.4375 26.4373 26.1875 26.7498 25.875C27.1248 25.5625 27.5623 25.1875 28.0623 25.1875C28.5623 25.1875 28.9373 25.5 29.3748 25.8125C29.5623 26 29.6873 26.125 29.8748 26.1875C29.9998 26.3125 30.0623 26.5625 29.9998 26.75C29.8748 26.875 29.6248 26.9375 29.4373 26.8125C29.2498 26.6875 29.0623 26.5625 28.8748 26.4375C28.6248 26.1875 28.3123 25.9375 28.0623 25.9375C27.8123 25.9375 27.4998 26.1875 27.2498 26.4375C26.8123 26.8125 26.3748 27.1875 25.8748 27.1875C25.3748 27.1875 24.9373 26.8125 24.5623 26.375C24.3123 26.125 23.9373 25.8125 23.7498 25.8125C23.5623 25.8125 23.1873 26.1875 22.9373 26.4375C22.4998 26.875 22.1248 27.3125 21.5623 27.3125C21.0623 27.3125 20.6248 26.8125 20.2498 26.375C19.9998 26.0625 19.6248 25.6875 19.4373 25.6875C19.2498 25.6875 18.8748 26.125 18.6248 26.4375C18.2498 26.9375 17.8123 27.4375 17.2498 27.4375Z" fill="#595959"/>
</g>
<g id="_252262432">
<path id="Vector_11" fill-rule="evenodd" clip-rule="evenodd" d="M18.125 30.6875C17.625 30.6875 17.1875 30.1875 16.8125 29.625C16.5625 29.375 16.1875 28.875 16 28.875C15.8125 28.875 15.4375 29.3125 15.1875 29.625C14.8125 30.125 14.375 30.625 13.8125 30.625C13.3125 30.625 12.875 30.1875 12.5 29.6875C12.25 29.4375 11.875 29 11.6875 29C11.5 29 11.125 29.375 10.875 29.625C10.5 30.0625 10.0625 30.5 9.5 30.5C9 30.5 8.625 30.125 8.1875 29.6875C7.9375 29.4375 7.5625 29.125 7.375 29.125C7.125 29.125 6.8125 29.4375 6.5625 29.6875C6.4375 29.75 6.3125 29.875 6.1875 30C6 30.125 5.8125 30.0625 5.6875 29.9375C5.5625 29.75 5.5625 29.5 5.6875 29.375C5.8125 29.3125 5.9375 29.1875 6.0625 29.125C6.4375 28.75 6.875 28.375 7.375 28.375C7.875 28.375 8.3125 28.8125 8.6875 29.1875C9 29.4375 9.3125 29.75 9.5 29.75C9.75 29.75 10.0625 29.375 10.3125 29.125C10.75 28.6875 11.1875 28.25 11.6875 28.25C12.1875 28.25 12.625 28.75 13.0625 29.1875C13.3125 29.5 13.625 29.875 13.8125 29.875C14 29.875 14.375 29.4375 14.625 29.125C15.0625 28.6875 15.4375 28.125 16 28.125C16.5625 28.125 16.9375 28.6875 17.375 29.1875C17.625 29.5 18 29.9375 18.125 29.9375C18.3125 29.9375 18.6875 29.5 18.9375 29.1875C19.375 28.6875 19.75 28.1875 20.3125 28.1875C20.8125 28.1875 21.25 28.6875 21.6875 29.125C21.9375 29.4375 22.25 29.8125 22.5 29.8125C22.6875 29.8125 23 29.4375 23.25 29.1875C23.6875 28.75 24.125 28.3125 24.625 28.3125C25.125 28.3125 25.5625 28.75 25.9375 29.125C26.25 29.375 26.5625 29.75 26.8125 29.75C27 29.75 27.3125 29.4375 27.625 29.1875C28 28.8125 28.4375 28.4375 28.9375 28.4375C29.4375 28.4375 29.875 28.75 30.25 29.125C30.4375 29.25 30.5625 29.375 30.75 29.4375C30.9375 29.5625 30.9375 29.8125 30.875 30C30.75 30.1875 30.5 30.1875 30.3125 30.125C30.125 30 29.9375 29.8125 29.8125 29.6875C29.5 29.4375 29.1875 29.1875 28.9375 29.1875C28.75 29.1875 28.375 29.5 28.125 29.75C27.6875 30.0625 27.3125 30.4375 26.8125 30.4375C26.25 30.4375 25.875 30.0625 25.4375 29.6875C25.1875 29.375 24.8125 29.0625 24.625 29.0625C24.4375 29.0625 24.0625 29.4375 23.8125 29.6875C23.4375 30.125 23 30.5625 22.5 30.5625C21.9375 30.5625 21.5 30.125 21.125 29.625C20.875 29.375 20.5 28.9375 20.3125 28.9375C20.125 28.9375 19.75 29.375 19.5 29.6875C19.125 30.1875 18.6875 30.6875 18.125 30.6875Z" fill="#595959"/>
</g>
<g id="_304204160">
<path id="Vector_12" fill-rule="evenodd" clip-rule="evenodd" d="M9.81204 6.5C9.62454 6.5 9.49954 6.4375 9.43704 6.3125C9.31204 6.0625 8.93704 5.4375 8.43704 5.375C7.99954 5.375 7.56204 5.875 7.31204 6.3125C7.24954 6.4375 7.12454 6.5 6.99954 6.5C6.87454 6.5 6.74954 6.4375 6.68704 6.3125C6.37454 5.875 5.99954 5.375 5.56204 5.375C5.06204 5.4375 4.62454 6.0625 4.56204 6.3125C4.43704 6.5 4.24954 6.5625 4.06204 6.5C3.87454 6.375 3.74954 6.1875 3.87454 6C3.93704 5.875 4.49954 4.6875 5.49954 4.625C5.99954 4.625 6.49954 4.875 6.99954 5.5C7.43704 4.875 7.93704 4.625 8.49954 4.625C9.49954 4.6875 10.062 5.875 10.1245 6C10.187 6.1875 10.1245 6.375 9.93704 6.5C9.87454 6.5 9.81204 6.5 9.81204 6.5Z" fill="#595959"/>
</g>
<g id="_253192632">
<path id="Vector_13" fill-rule="evenodd" clip-rule="evenodd" d="M0.374535 9.25001C0.312035 9.25001 0.249535 9.25001 0.249535 9.18751C0.0620351 9.12501 -0.0629649 8.87501 0.0620351 8.68751C0.124535 8.56251 0.687035 7.43751 1.68704 7.37501C2.18704 7.31251 2.68704 7.62501 3.18704 8.18751C3.62454 7.62501 4.12454 7.31251 4.68704 7.37501C5.68704 7.43751 6.24954 8.56251 6.31204 8.68751C6.37454 8.87501 6.31204 9.12501 6.12454 9.18751C5.93704 9.31251 5.74954 9.18751 5.62454 9.00001C5.49954 8.75001 5.12454 8.12501 4.62454 8.12501C4.18704 8.06251 3.74954 8.62501 3.49954 9.06251C3.43704 9.18751 3.31204 9.25001 3.18704 9.25001C3.06204 9.25001 2.93704 9.18751 2.87454 9.06251C2.56204 8.62501 2.18704 8.06251 1.74954 8.12501C1.24954 8.12501 0.812035 8.81251 0.749535 9.00001C0.687035 9.12501 0.499535 9.25001 0.374535 9.25001Z" fill="#595959"/>
</g>
<g id="_253192704">
<path id="Vector_14" fill-rule="evenodd" clip-rule="evenodd" d="M12.5 3.18751C12.375 3.18751 12.25 3.12501 12.1875 3.00001C12.0625 2.75001 11.625 2.06251 11.1875 2.06251C10.75 2.06251 10.3125 2.56251 10 3.00001C9.9375 3.12501 9.8125 3.18751 9.6875 3.18751C9.5625 3.18751 9.4375 3.12501 9.375 3.00001C9.125 2.56251 8.6875 2.06251 8.25 2.06251C7.8125 2.06251 7.375 2.75001 7.25 3.00001C7.1875 3.12501 6.9375 3.25001 6.75 3.12501C6.5625 3.06251 6.5 2.81251 6.5625 2.62501C6.625 2.50001 7.25 1.37501 8.25 1.31251C8.75 1.25001 9.25 1.56251 9.6875 2.12501C10.1875 1.56251 10.6875 1.25001 11.1875 1.31251C12.1875 1.37501 12.75 2.50001 12.8125 2.62501C12.9375 2.81251 12.875 3.06251 12.6875 3.12501C12.625 3.18751 12.5625 3.18751 12.5 3.18751Z" fill="#595959"/>
</g>
<g id="_253192800">
<path id="Vector_15" fill-rule="evenodd" clip-rule="evenodd" d="M28.75 8.0625C27 8.0625 25.5 6.625 25.5 4.8125C25.5 3.0625 27 1.625 28.75 1.625C30.5625 1.625 32 3.0625 32 4.8125C32 6.625 30.5625 8.0625 28.75 8.0625ZM28.75 2.375C27.375 2.375 26.25 3.4375 26.25 4.8125C26.25 6.1875 27.375 7.3125 28.75 7.3125C30.125 7.3125 31.25 6.1875 31.25 4.8125C31.25 3.4375 30.125 2.375 28.75 2.375Z" fill="#595959"/>
</g>
</g>
</g>
</g>
</g>
</svg>
