<svg width="24" height="24" viewBox="0 0 24 24" fill="none" xmlns="http://www.w3.org/2000/svg">
<path d="M11.9996 4.65316L0.734375 7.59185V6.12251V5.14294L1.22417 4.16338L1.71396 2.69403L2.69355 1.71446L4.16293 0.7349L5.63231 0.245117H7.10169L8.57107 0.7349L10.0404 1.71446L11.02 2.69403L11.5098 3.67359L11.9996 4.65316Z" fill="#FFF3B2"/>
<path d="M14.9384 16.4081H2.20375L1.22417 16.8979L0.734375 17.8775V19.3468L1.71396 19.8366H15.918H16.8975L23.2649 13.4694V12.7086V12.0001L22.7751 11.0205H21.7955H20.8159L16.8975 14.9388L15.4282 16.4081H14.9384Z" fill="#FFF3B2"/>
<path fill-rule="evenodd" clip-rule="evenodd" d="M6.22753 0.000299385C5.70924 0.0054421 5.18353 0.0751545 4.65953 0.215722C1.3087 1.11341 -0.682721 4.56303 0.21556 7.91437C0.297274 8.21836 0.610986 8.39949 0.915556 8.31835L5.88296 6.98811L8.2978 15.9987H2.28012C1.02241 15.9987 0.000132639 17.0227 0.000132639 18.2844C0.000132639 19.546 1.02241 20.57 2.28012 20.57H3.07612L1.77441 23.1728C1.63327 23.4545 1.74812 23.7991 2.03041 23.9396C2.31212 24.0808 2.65669 23.9659 2.79726 23.6836L4.35382 20.57H9.52237L10.3281 23.5756C10.4098 23.8802 10.7235 24.0613 11.0281 23.9796C11.3326 23.8979 11.5138 23.5842 11.4321 23.2797L10.7052 20.57H15.0749L16.6315 23.6836C16.772 23.9659 17.1166 24.0808 17.3983 23.9396C17.6806 23.7991 17.7955 23.4545 17.6543 23.1728L16.3315 20.5289C16.5475 20.4826 16.7692 20.3997 16.9778 20.2889C17.3863 20.0717 17.7429 19.77 17.8897 19.6238L23.3103 14.1862C24.1989 13.2942 24.1989 11.8474 23.3103 10.9554C22.42 10.0623 20.9743 10.0623 20.0834 10.9554L15.0549 15.9987H9.48122L6.98809 6.69097L11.9544 5.36072C12.2589 5.27901 12.4401 4.96416 12.3583 4.6596C11.6006 1.83225 9.02637 -0.0271284 6.22753 0.000299385ZM18.8572 0.000299385C18.5417 0.000299385 18.2857 0.256292 18.2857 0.571712V1.71454C18.2857 2.02996 18.5417 2.28595 18.8572 2.28595C19.1726 2.28595 19.4286 2.02996 19.4286 1.71454V0.571712C19.4286 0.256292 19.1726 0.000299385 18.8572 0.000299385ZM6.38981 1.14427C8.43723 1.18484 10.3121 2.45509 11.0761 4.41218L6.14524 5.73328C6.14296 5.73385 6.14067 5.73385 6.13838 5.73443C6.13667 5.735 6.13496 5.73614 6.13267 5.73671L1.20241 7.05839C0.812128 4.50246 2.40012 2.00424 4.95553 1.31969C5.43439 1.19112 5.91724 1.13513 6.38981 1.14427ZM15.6252 1.33969C15.4789 1.33969 15.3326 1.39569 15.2212 1.50711C14.9978 1.72997 14.9978 2.09167 15.2212 2.31509L16.0292 3.12307C16.252 3.34592 16.6143 3.34592 16.8372 3.12307C17.06 2.90022 17.06 2.53794 16.8372 2.31509L16.0292 1.50711C15.9178 1.39569 15.7715 1.33969 15.6252 1.33969ZM22.0892 1.33969C21.9429 1.33969 21.7966 1.39569 21.6852 1.50711L20.8772 2.31509C20.6543 2.53794 20.6543 2.90022 20.8772 3.12307C21.1 3.34592 21.4623 3.34592 21.6852 3.12307L22.4931 2.31509C22.7166 2.09167 22.7166 1.72997 22.4931 1.50711C22.3817 1.39569 22.2354 1.33969 22.0892 1.33969ZM18.8572 2.85736C17.5955 2.85736 16.5715 3.88133 16.5715 5.14301C16.5715 6.40469 17.5955 7.42866 18.8572 7.42866C20.1189 7.42866 21.1429 6.40469 21.1429 5.14301C21.1429 3.88133 20.1189 2.85736 18.8572 2.85736ZM18.8572 4.00019C19.488 4.00019 20 4.51217 20 5.14301C20 5.77385 19.488 6.28584 18.8572 6.28584C18.2263 6.28584 17.7143 5.77385 17.7143 5.14301C17.7143 4.51217 18.2263 4.00019 18.8572 4.00019ZM14.2858 4.5716C13.9703 4.5716 13.7143 4.82759 13.7143 5.14301C13.7143 5.45843 13.9703 5.71443 14.2858 5.71443H15.4286C15.744 5.71443 16 5.45843 16 5.14301C16 4.82759 15.744 4.5716 15.4286 4.5716H14.2858ZM22.2857 4.5716C21.9703 4.5716 21.7143 4.82759 21.7143 5.14301C21.7143 5.45843 21.9703 5.71443 22.2857 5.71443H23.4286C23.744 5.71443 24 5.45843 24 5.14301C24 4.82759 23.744 4.5716 23.4286 4.5716H22.2857ZM16.4332 6.99553C16.2869 6.99553 16.1406 7.05153 16.0292 7.16296L15.2212 7.97094C14.9978 8.19436 14.9978 8.55606 15.2212 8.77891C15.444 9.00234 15.8058 9.00234 16.0292 8.77891L16.8372 7.97094C17.06 7.74808 17.06 7.38581 16.8372 7.16296C16.7258 7.05153 16.5795 6.99553 16.4332 6.99553ZM21.2812 6.99553C21.1349 6.99553 20.9886 7.05153 20.8772 7.16296C20.6543 7.38581 20.6543 7.74808 20.8772 7.97094L21.6852 8.77891C21.9086 9.00234 22.2703 9.00234 22.4931 8.77891C22.7166 8.55606 22.7166 8.19436 22.4931 7.97094L21.6852 7.16296C21.5737 7.05153 21.4274 6.99553 21.2812 6.99553ZM18.8572 8.00008C18.5417 8.00008 18.2857 8.25607 18.2857 8.57149V9.71432C18.2857 10.0297 18.5417 10.2857 18.8572 10.2857C19.1726 10.2857 19.4286 10.0297 19.4286 9.71432V8.57149C19.4286 8.25607 19.1726 8.00008 18.8572 8.00008ZM21.6966 11.4286C21.9874 11.4286 22.2794 11.54 22.5012 11.7623C22.9463 12.2085 22.9463 12.9331 22.5012 13.3794L17.0806 18.8169C16.9783 18.9192 16.7263 19.1278 16.4406 19.2798C16.2955 19.3569 16.1429 19.4272 16 19.4272H2.28012C1.65212 19.4272 1.14298 18.9146 1.14298 18.2844C1.14298 17.6541 1.65212 17.1415 2.28012 17.1415H15.2926C15.444 17.1415 15.5892 17.0815 15.6966 16.9741L20.8926 11.7623C21.1149 11.54 21.4057 11.4286 21.6966 11.4286Z" fill="black"/>
</svg>
