<svg width="29" height="29" viewBox="0 0 29 29" fill="none" xmlns="http://www.w3.org/2000/svg">
<circle cx="11" cy="4" r="2" fill="#FFF3B2"/>
<path d="M1 19.5L3 27.5L4.5 25.5L7 23L9.5 21L12 19.5L14.5 18.5L17 17.5L20 17H23.5L27 17.5L23.5 15.5L22 15L20 14.5H17.5H15H13L10 15L7 16.5L4.5 17.5L1 19.5Z" fill="#FFF3B2"/>
<path d="M11.3291 6.8457C12.8283 6.8457 14.0479 5.62615 14.0479 4.12697C13.9209 0.529547 8.7379 0.528636 8.61035 4.12695C8.61035 5.62615 9.8299 6.8457 11.3291 6.8457ZM11.3291 2.31445C13.7239 2.39025 13.7244 5.86328 11.3291 5.93945C8.93435 5.86364 8.9338 2.39061 11.3291 2.31445Z" fill="#595959"/>
<path d="M1.62681 19.8998C6.29501 16.089 16.7575 12.9418 24.6775 16.5613C15.0993 15.4586 6.41656 21.7134 2.80918 26.8456C2.57886 27.1312 2.81272 27.5809 3.17068 27.5713C3.3083 27.5713 3.44415 27.5089 3.53309 27.3908C5.64848 24.5815 10.3209 19.6118 17.8479 17.8917C21.7169 17.0074 25.07 17.4214 27.5593 17.8807C27.7799 17.9209 27.9974 17.7944 28.0702 17.5822C28.143 17.37 28.0496 17.1364 27.8505 17.0331C27.1731 16.6811 26.3763 16.2891 25.4713 15.9078H27.6416C27.9989 15.9202 28.2254 15.4759 28.0116 15.1931C28.0116 15.1931 19.8332 3.6256 19.8332 3.62555C19.1779 2.62895 17.5585 2.60726 16.8724 3.625C16.8724 3.62494 13.9268 7.79124 11.5709 11.1234C10.8222 10.054 9.18808 7.7201 9.18808 7.72004C8.52263 6.71329 6.89399 6.69921 6.21821 7.723C6.21821 7.72298 0.989125 15.1949 0.989152 15.1949C0.775477 15.4797 1.00597 15.9186 1.36038 15.9078H6.98975C4.44805 16.9345 2.43634 18.1907 1.09403 19.1668C0.611894 19.5274 1.15023 20.2414 1.62681 19.8998ZM18.7292 3.84574C18.873 3.91035 18.998 4.01323 19.0929 4.14797L26.7664 15.0015H22.9671C19.8514 13.9744 15.5651 13.7779 12.3636 14.3789C12.6243 12.7099 14.313 10.6407 16.13 11.6227C16.4198 11.766 16.6996 11.9707 16.9167 12.1664C17.0161 12.2609 17.1343 12.2879 17.2485 12.2758C17.5412 12.2708 17.7574 11.9443 17.6425 11.6659C16.6403 9.12768 17.0712 6.01499 18.7292 3.84574ZM16.9835 5.03741C16.2129 6.65081 15.9659 8.96787 16.4235 10.7592C13.8624 9.57237 11.7361 12.1502 11.3877 14.5626C10.9216 14.6604 10.4642 14.7672 10.0203 14.8864L16.9835 5.03741ZM2.23058 15.0015L6.96162 8.24137C7.01895 8.15881 7.08892 8.09061 7.16531 8.0335C6.6759 9.206 6.39535 10.8567 6.65303 12.1257C4.90724 11.6384 3.76292 13.4407 3.64438 15.0015H2.23058ZM4.56017 15.0015C4.66416 14.1415 5.15343 12.9455 6.16215 12.9457C6.50122 12.9821 6.81656 13.2124 7.03062 13.4142C7.1118 13.4783 7.20552 13.5362 7.30287 13.5378C7.57808 13.5423 7.84682 13.2993 7.7823 13.0015C7.27087 11.4372 7.42373 9.45621 8.19089 7.99733C8.44262 8.09617 10.2232 10.8369 11.0149 11.9098C9.98387 13.3681 9.14231 14.5584 8.82907 15.0015L4.56017 15.0015Z" fill="#595959"/>
<path d="M20.3913 15.8595C20.345 15.1189 19.3 15.4649 18.793 15.4011C18.2049 15.4258 18.2183 16.2984 18.8049 16.3071C19.3076 16.2088 20.326 16.5834 20.3913 15.8595Z" fill="#595959"/>
<path d="M17.0871 16.418C17.6808 16.3496 17.5853 15.4592 16.9955 15.5166C16.2513 15.5922 15.5021 15.7038 14.7689 15.8484C14.5233 15.8967 14.3635 16.135 14.412 16.3806C14.4545 16.5965 14.6439 16.7461 14.856 16.7461C15.5936 16.6227 16.34 16.4862 17.0871 16.418Z" fill="#595959"/>
<path d="M13.2565 17.1359C13.4977 17.0693 13.6395 16.82 13.5731 16.5786C13.5063 16.3372 13.2565 16.1958 13.0158 16.262C12.2982 16.4596 11.5781 16.6934 10.8756 16.9572C10.4062 17.1258 10.545 17.8431 11.0347 17.8346C11.7778 17.6335 12.5076 17.3166 13.2565 17.1359Z" fill="#595959"/>
<path d="M9.59048 18.4723C10.1283 18.2151 9.75877 17.4096 9.21349 17.6483C8.53779 17.9576 7.86407 18.3015 7.21096 18.6703C6.80535 18.881 6.98733 19.5348 7.43418 19.5179C8.17645 19.2666 8.85506 18.7583 9.59048 18.4723Z" fill="#595959"/>
<path d="M4.40246 21.6265C4.97417 21.1824 5.56956 20.7574 6.17178 20.3633C6.66656 20.0358 6.1722 19.2838 5.67532 19.6049C5.05294 20.0124 4.43763 20.4516 3.8467 20.9105C3.38132 21.2713 3.93539 21.9919 4.40246 21.6265Z" fill="#595959"/>
<path d="M3.09991 22.0997C2.58483 21.5654 1.93451 22.641 1.61668 22.8429C1.32026 23.1094 1.54046 23.6359 1.9315 23.622C2.37334 23.5567 2.60975 23.0674 3.06165 22.7394C3.24884 22.5732 3.26609 22.2869 3.09991 22.0997Z" fill="#595959"/>
</svg>
