<svg width="28" height="28" viewBox="0 0 28 28" fill="none" xmlns="http://www.w3.org/2000/svg">
<g clip-path="url(#clip0_7948_548)">
<path d="M27.4536 14.3726H26.0742C25.9057 14.3726 25.7465 14.4503 25.6429 14.5832L24.8111 15.6498C24.6252 15.888 24.6677 16.2315 24.9059 16.4174C25.0059 16.4953 25.1242 16.5329 25.2419 16.5329C25.4047 16.5329 25.5656 16.4607 25.6735 16.3225L26.3412 15.4665H27.4536C27.7556 15.4665 28.0004 15.2217 28.0004 14.9196C28.0004 14.6176 27.7556 14.3726 27.4536 14.3726Z" fill="#595959"/>
<path d="M0.273417 3.2153L0.529978 3.36334C0.616068 3.41311 0.710276 3.43683 0.802988 3.43683C0.992044 3.43683 1.17576 3.33877 1.27702 3.16318C1.42805 2.9017 1.33854 2.56717 1.07685 2.41614L0.820291 2.2681C0.558817 2.11706 0.224284 2.20657 0.0732522 2.46826C-0.0775655 2.72973 0.0119424 3.06427 0.273417 3.2153Z" fill="#595959"/>
<path d="M6.33964 5.45447L6.08308 5.30643C5.82161 5.15539 5.48707 5.2449 5.33604 5.50659C5.18501 5.76807 5.27473 6.1026 5.53621 6.25363L5.79277 6.40167C5.87886 6.45144 5.97285 6.47516 6.06578 6.47516C6.25462 6.47516 6.43855 6.3771 6.53981 6.20151C6.69084 5.94003 6.60112 5.6055 6.33964 5.45447Z" fill="#595959"/>
<path d="M0.547495 6.47516C0.640207 6.47516 0.734415 6.45144 0.820505 6.40167L1.07685 6.25363C1.33854 6.1026 1.42805 5.76828 1.27702 5.50659C1.12599 5.2449 0.791666 5.15539 0.529978 5.30643L0.273417 5.45447C0.0119424 5.6055 -0.0775655 5.94003 0.0732522 6.20151C0.174723 6.3771 0.358439 6.47516 0.547495 6.47516Z" fill="#595959"/>
<path d="M5.81029 3.43678C5.903 3.43678 5.99699 3.41307 6.08308 3.36351L6.33964 3.21525C6.60133 3.06422 6.69084 2.7299 6.53981 2.46821C6.38878 2.20674 6.05424 2.11702 5.79277 2.26805L5.53621 2.41609C5.27473 2.56712 5.18501 2.90165 5.33604 3.16334C5.43751 3.33873 5.62123 3.43678 5.81029 3.43678Z" fill="#595959"/>
<path d="M3.30664 2.00656C3.6087 2.00656 3.85351 1.76175 3.85351 1.45969V1.14844C3.85351 0.846374 3.6087 0.601562 3.30664 0.601562C3.00458 0.601562 2.75977 0.846374 2.75977 1.14844V1.45969C2.75977 1.76175 3.00458 2.00656 3.30664 2.00656Z" fill="#595959"/>
<path d="M2.75977 7.23645V7.5477C2.75977 7.84976 3.00458 8.09457 3.30664 8.09457C3.6087 8.09457 3.85351 7.84976 3.85351 7.5477V7.23645C3.85351 6.93439 3.6087 6.68958 3.30664 6.68958C3.00458 6.68958 2.75977 6.9346 2.75977 7.23645Z" fill="#595959"/>
<path d="M24.4047 17.383C24.3165 17.168 24.0922 17.03 23.8606 17.0469C23.6333 17.0634 23.437 17.2232 23.3742 17.4419C23.3112 17.6613 23.3958 17.9036 23.581 18.0366C23.7636 18.1676 24.0161 18.1712 24.2028 18.0469C24.4175 17.9044 24.5038 17.6207 24.4047 17.383Z" fill="#595959"/>
<path d="M20.5 3.5H19.5L19 4V5V6L19.5 7H20.5H22.5H24L24.5 6.5L25 6V5L24.5 4.5L24 4H23L22.5 4.5V4L22 3.5L21 3L20.5 3.5Z" fill="#FFF3B2"/>
<path d="M21.2379 7.69897H24.0359C25.1937 7.69897 26.1358 6.75689 26.1358 5.59884C26.1358 4.44101 25.1937 3.49893 24.0359 3.49893C23.7563 3.49893 23.4811 3.5549 23.2263 3.66128C22.7584 3.05289 22.028 2.68225 21.2379 2.68225C19.8546 2.68225 18.7295 3.8074 18.7295 5.19061C18.7295 5.86053 18.9903 6.49051 19.4641 6.96432C19.938 7.43814 20.5677 7.69897 21.2379 7.69897ZM21.2379 3.776C21.8014 3.776 22.3109 4.11011 22.5358 4.6275C22.6046 4.7858 22.7441 4.90243 22.9122 4.94195C23.0801 4.98126 23.257 4.93918 23.3892 4.82809C23.5725 4.67407 23.796 4.59268 24.0359 4.59268C24.5907 4.59268 25.042 5.04407 25.042 5.59884C25.042 6.15384 24.5907 6.60522 24.0359 6.60522H21.2379C20.86 6.60522 20.5047 6.45804 20.2375 6.19079C19.9702 5.92376 19.8232 5.56851 19.8232 5.19061C19.8232 4.41046 20.4579 3.776 21.2379 3.776Z" fill="#595959"/>
<circle cx="3.5" cy="4.5" r="1.5" fill="#FFF3B2"/>
<path d="M3.30673 6.31988C4.40796 6.31988 5.30389 5.42395 5.30389 4.32272C5.30389 3.2215 4.40796 2.32556 3.30673 2.32556C2.77331 2.32556 2.27173 2.5332 1.89468 2.91046C1.51743 3.28772 1.30957 3.78931 1.30957 4.32272C1.30957 5.42395 2.20572 6.31988 3.30673 6.31988ZM2.668 3.68399C2.83868 3.5133 3.06555 3.41931 3.30673 3.41931C3.8049 3.41931 4.21014 3.82455 4.21014 4.32272C4.21014 4.82089 3.8049 5.22613 3.30673 5.22613C2.80878 5.22613 2.40332 4.82089 2.40332 4.32272C2.40332 4.08133 2.49731 3.85446 2.668 3.68399Z" fill="#595959"/>
<path d="M8.5 10.5L6 10L5 14.5L5.5 15L6.5 15.5H7.5L8.5 10.5Z" fill="#FFF3B2"/>
<path d="M22.9977 18.8629C22.7595 18.6773 22.416 18.7196 22.2302 18.9577L21.4611 19.9438H19.0669L17.1545 13.3916C17.7121 13.1795 18.1092 12.6396 18.1092 12.0086C18.1092 11.193 17.4457 10.5293 16.6298 10.5293H16.319L15.9228 9.17126C15.8379 8.88137 15.5342 8.71496 15.2445 8.79956C14.9546 8.88415 14.7882 9.18771 14.8728 9.47759L15.1798 10.5293H14.8882L12.8564 8.59021C12.8996 8.56308 12.9425 8.53509 12.9844 8.5054C13.5626 8.0961 13.9467 7.4862 14.0659 6.78787C14.1854 6.08975 14.0256 5.38693 13.6163 4.80887C13.207 4.23059 12.5971 3.84671 11.8987 3.72729C10.4574 3.48077 9.08447 4.45318 8.83817 5.8945C8.68948 6.76394 8.98492 7.60839 9.55893 8.19586C9.40662 8.26742 9.26349 8.35073 9.1304 8.44473C8.87405 7.90896 8.37824 7.50009 7.76022 7.38922C7.26889 7.3012 6.77307 7.41143 6.36377 7.70004C5.9455 7.99505 5.668 8.43896 5.58298 8.94995C5.52829 9.27786 5.5597 9.60128 5.66053 9.89608C5.63382 9.9089 5.60797 9.92321 5.58362 9.9403C5.46442 10.0236 5.38324 10.1511 5.35825 10.2947L4.58985 14.7064C4.45163 15.5011 4.96326 16.2597 5.73038 16.3971L6.65131 16.5622C6.73441 16.5771 6.81687 16.5844 6.89847 16.5844C6.95978 16.5844 7.02002 16.5791 7.07962 16.5712L6.90915 19.1885L5.58191 21.926C5.45609 22.186 5.39222 22.4639 5.39222 22.7517C5.39222 23.0322 5.4563 23.3045 5.57166 23.5515H4.93677C4.83252 23.5515 4.73041 23.5814 4.64261 23.6374L0.252876 26.4367C-0.00176226 26.599 -0.0765303 26.9372 0.0858231 27.1918C0.190071 27.3553 0.366951 27.4448 0.547462 27.4448C0.648079 27.4448 0.749763 27.417 0.84098 27.3589L5.09613 24.6452H7.17853C7.2142 24.6474 7.24967 24.6484 7.28513 24.6484C7.31461 24.6484 7.34387 24.6467 7.37314 24.6452H13.2042C13.3443 24.6452 13.4791 24.5914 13.5808 24.4949L17.2194 21.0378H18.6533H18.6565H18.6584H21.7282C21.8965 21.0378 22.0557 20.96 22.1593 20.8272L23.0926 19.6307C23.2784 19.3923 23.2359 19.0488 22.9977 18.8629ZM9.31583 16.8512C9.10413 16.8149 8.86978 16.7993 8.67731 16.698C8.33701 16.5188 8.1644 16.139 8.22742 15.7649C8.24493 15.6613 8.26288 15.5575 8.28061 15.4539C9.86697 15.3802 10.9738 14.9342 11.7152 14.4582L11.5871 15.2085C11.546 15.4488 11.6691 15.6874 11.8887 15.7934L13.8354 16.7314L16.0975 19.5869C16.3722 19.9338 16.3137 20.4394 15.9668 20.7142C15.6201 20.9889 15.1144 20.9301 14.8397 20.5834L12.8846 18.1156C12.8333 18.0507 12.7678 17.9984 12.6934 17.9625L11.0457 17.1684C10.9996 17.1462 10.9507 17.1306 10.9005 17.1221L9.31583 16.8512ZM16.9548 18.9078L14.6143 15.9531C14.5759 15.9049 14.5299 15.8638 14.4787 15.8314C14.4607 15.8201 14.4417 15.8094 14.4221 15.8L12.7346 14.9867L12.9908 13.4879H16.0432L17.9274 19.9438H17.3587C17.332 19.5781 17.1994 19.2162 16.9548 18.9078ZM14.6692 11.623H15.9055C15.9065 11.623 15.9076 11.6232 15.9087 11.6232C15.9093 11.6232 15.9099 11.623 15.9106 11.623H16.6298C16.8426 11.623 17.0154 11.796 17.0154 12.0086C17.0154 12.2212 16.8426 12.3942 16.6298 12.3942H16.4636C16.463 12.3942 16.4624 12.3942 16.4619 12.3942H12.7325L11.6268 11.4412C11.3978 11.2443 11.0526 11.2699 10.8554 11.4987C10.6582 11.7275 10.6839 12.0727 10.9127 12.2699L11.7776 13.0152C11.3448 13.4647 10.3572 14.2051 8.46988 14.3469L8.6709 13.1709L9.05072 10.9497C9.05093 10.9482 9.05093 10.9467 9.05115 10.9452L9.16373 10.2864C9.27289 9.64828 9.8172 8.97814 11.0154 8.97814C11.043 8.97814 11.0707 8.97857 11.0992 8.97921C11.1036 8.97943 11.1083 8.97943 11.1128 8.97943C11.4879 8.97943 11.825 9.10888 12.0615 9.34365C12.0686 9.3507 12.0758 9.35754 12.0831 9.36416L14.2915 11.4718C14.3934 11.569 14.5287 11.623 14.6692 11.623ZM9.91632 6.07864C10.046 5.32028 10.7063 4.78302 11.4512 4.78302C11.5381 4.78302 11.6262 4.79028 11.7146 4.80545C12.1248 4.87552 12.483 5.1011 12.7235 5.44076C12.9641 5.78042 13.0581 6.19357 12.9878 6.60373C12.8583 7.36209 12.1978 7.89956 11.4529 7.89935C11.366 7.89935 11.278 7.89209 11.1895 7.87692C10.3427 7.7323 9.77148 6.92544 9.91632 6.07864ZM6.66178 9.12982C6.69852 8.90936 6.81644 8.71902 6.99396 8.59384C7.1247 8.50177 7.27658 8.4537 7.4321 8.4537C7.47696 8.4537 7.52204 8.45776 7.56711 8.46588C7.99991 8.54342 8.29086 8.97259 8.21588 9.42227C8.17914 9.64273 8.06101 9.83306 7.88349 9.95825C7.71515 10.077 7.51178 10.1223 7.31055 10.0864C6.87775 10.0087 6.58658 9.57949 6.66178 9.12982ZM6.84442 15.4857L5.9235 15.3204C5.74683 15.2888 5.6319 15.0974 5.66736 14.8938L6.34134 11.0238L7.88092 11.3L7.62137 12.8189L7.2078 15.2371C7.15354 15.405 6.99759 15.5131 6.84442 15.4857ZM6.9382 23.4746C6.65921 23.3394 6.48596 23.0623 6.48596 22.7515C6.48596 22.6301 6.51309 22.5126 6.56629 22.4028L7.93988 19.5694C7.97086 19.5059 7.98901 19.4369 7.9935 19.3664L8.10651 17.6333C8.5188 17.8696 9.01035 17.9084 9.47134 17.9875C9.55807 18.0022 9.64481 18.0172 9.73154 18.0319L9.60849 19.8054L8.01016 23.1027C7.88135 23.3682 7.62415 23.5301 7.349 23.5515H7.22489C7.1279 23.5438 7.03092 23.5195 6.9382 23.4746ZM12.9857 23.5515H9.008L10.6388 20.1874C10.6501 20.1641 10.6595 20.1404 10.6674 20.116C10.6807 20.0748 10.6892 20.0312 10.6924 19.9861L10.8114 18.2697L12.1053 18.8932L13.9824 21.2625C14.1982 21.5349 14.4744 21.7316 14.7769 21.8496L12.9857 23.5515Z" fill="#595959"/>
</g>
<defs>
<clipPath id="clip0_7948_548">
<rect width="28" height="28" fill="white"/>
</clipPath>
</defs>
</svg>
