<svg width="210" height="155" viewBox="0 0 210 155" fill="none" xmlns="http://www.w3.org/2000/svg">
<path opacity="0.3" d="M88.922 6.88958C80.4256 3.49488 71.4472 0.659199 62.2818 1.01568C48.8055 1.53826 35.8691 9.50448 29.5339 21.2016C24.1589 31.1123 23.4957 42.7285 21.1802 53.7268C18.3307 67.2753 12.8631 80.1553 7.02534 92.7478C3.89052 99.5129 0.582189 106.424 0.0674311 113.839C-0.645904 124.135 4.36093 134.394 12.2134 141.242C20.0659 148.09 30.4941 151.703 40.9608 152.491C46.5306 152.911 52.351 152.522 57.2981 149.974C62.5324 147.278 66.3478 142.407 71.6033 139.749C76.4733 137.286 82.1703 136.942 87.6379 137.262C94.7768 137.68 101.824 139.152 108.571 141.637C116.214 144.456 123.32 148.542 130.935 151.402C138.551 154.262 147.08 155.858 154.873 153.472C162.199 151.23 167.983 145.785 173.198 140.272C181.725 131.273 189.541 121.56 196.568 111.228C201.274 104.299 205.654 96.9891 207.735 88.9135C211.714 73.4733 206.239 56.0541 194.094 45.5095C184.033 36.7736 170.529 32.9819 157.311 30.6809C145.258 28.5825 131.321 28.4529 120.226 22.9841C109.645 17.7624 100.017 11.3254 88.922 6.88958Z" fill="#FFD801"/>
<path d="M193.057 69.9722C192.733 69.7137 192.352 69.5407 191.949 69.4682C191.524 69.3669 191.09 69.3034 190.658 69.2327L185.065 68.3967C184.501 68.2881 183.925 68.2564 183.352 68.3025C183.065 68.3269 182.785 68.4103 182.53 68.5478C182.274 68.6852 182.047 68.874 181.862 69.1032C181.695 69.3164 181.604 69.5823 181.603 69.8568C181.634 70.133 181.721 70.3993 181.857 70.6386C181.912 70.7504 181.958 70.8661 181.996 70.9848C182.05 71.2511 182.116 71.5144 182.196 71.7737C182.221 71.8298 182.253 71.8821 182.291 71.9291C182.292 71.9424 182.292 71.9558 182.291 71.9691C182.23 72.2941 182.428 72.6332 182.339 72.9464C182.262 73.2149 182.01 73.3774 181.851 73.6011C181.745 73.7598 181.686 73.9473 181.682 74.1403C181.678 74.3334 181.729 74.5234 181.828 74.6867C181.998 74.9599 182.307 75.1459 182.396 75.4591C182.512 75.8712 182.198 76.2692 181.919 76.5871C181.405 77.1724 180.93 77.7931 180.497 78.4451C180.375 78.6055 180.297 78.7965 180.269 78.9985C180.245 79.4083 180.624 79.7686 180.558 80.176C180.506 80.4963 180.204 80.6917 179.942 80.8825C178.977 81.5418 178.202 82.6016 178.125 83.8002C177.877 81.8931 177.115 80.0973 175.926 78.6194C175.601 78.2144 175.244 77.807 175.11 77.2936C175.06 77.0887 175.051 76.8697 174.983 76.6719C174.756 76.0478 174.034 75.7794 173.718 75.2048C173.491 74.7997 173.491 74.2793 173.209 73.9237C172.927 73.5681 172.484 73.488 172.241 73.1442C172.12 72.9113 172.016 72.6688 171.932 72.4189C171.83 72.2152 171.687 72.0368 171.512 71.8961C171.478 71.8683 171.443 71.8424 171.407 71.8184C171.445 71.7834 171.475 71.7406 171.496 71.6927C171.517 71.6449 171.528 71.593 171.528 71.5405C171.528 71.265 171.264 71.0837 171.035 70.9471C170.739 70.7728 170.451 70.5844 170.169 70.389C170.476 70.2406 170.743 70.0147 170.944 69.732C171.196 69.3101 171.3 68.8112 171.239 68.319C171.224 67.9218 171.081 67.5413 170.833 67.2381C170.689 67.0803 170.51 66.9673 170.36 66.8189C169.972 66.4257 169.84 65.844 169.679 65.3071C169.465 64.6006 169.131 63.8588 168.509 63.4844C168.209 63.303 167.859 63.2183 167.566 63.0275C167.273 62.8368 167.027 62.4765 167.13 62.1303C167.198 61.8948 167.409 61.7323 167.552 61.5321C167.723 61.2733 167.789 60.9551 167.735 60.6465C167.681 60.3379 167.511 60.0638 167.264 59.8837C167.096 59.773 166.889 59.6765 166.855 59.4739C166.723 59.4385 166.604 59.3654 166.511 59.2629C166.418 59.1605 166.354 59.0328 166.328 58.8946C166.277 58.6177 166.277 58.3332 166.328 58.0563C166.387 57.6183 166.445 57.1818 166.503 56.747C166.603 56.7901 166.71 56.8123 166.818 56.8123C166.927 56.8123 167.034 56.7901 167.134 56.747C167.331 57.0777 167.559 57.387 167.816 57.6701C168.507 58.5169 169.046 59.4862 169.406 60.5313C169.535 60.9081 169.667 61.3296 170.003 61.5298C170.119 61.5981 170.251 61.6334 170.365 61.7064C170.505 61.8076 170.625 61.9355 170.719 62.0832C170.992 62.4576 171.264 62.8297 171.535 63.2041L171.548 63.2607C171.556 63.2938 171.568 63.3256 171.585 63.3548C171.635 63.4135 171.705 63.4505 171.78 63.4585C172.616 63.6586 173.554 63.8423 174.279 63.369C174.933 62.9451 175.219 62.1067 175.774 61.5463C176.167 61.1483 176.723 60.8398 176.835 60.2793C176.702 60.2369 176.572 60.1874 176.444 60.131C176.557 60.0132 176.671 59.8766 176.826 59.7212C177.05 59.4934 177.252 59.2434 177.43 58.9747C177.622 58.6432 177.774 58.289 177.884 57.9197C178.322 56.6261 178.761 55.3316 179.202 54.0364C179.411 53.4242 179.62 52.8072 179.883 52.2114C180.156 51.5661 180.478 50.9468 180.776 50.3133C181.544 48.6659 182.137 46.9366 182.544 45.1561C182.616 44.9132 182.64 44.6576 182.614 44.4049C182.55 43.9975 182.253 43.6772 181.969 43.3875C181.683 43.0671 181.358 42.7875 181.001 42.5562C180.822 42.4408 180.622 42.3634 180.414 42.3286C180.206 42.2939 179.993 42.3024 179.788 42.3537C179.206 42.5303 178.841 43.1473 178.707 43.7667C178.572 44.386 178.622 45.0242 178.566 45.6506C178.484 46.5572 178.184 47.4333 178.111 48.3423C178.073 48.8674 178.111 49.3996 178.05 49.9248C177.938 50.612 177.707 51.2726 177.368 51.8746C176.632 53.3103 175.634 54.585 174.431 55.6284C174.292 55.7485 174.149 55.8639 174.013 55.9934C174.013 55.8921 174.029 55.7885 174.043 55.6872C173.944 55.7139 173.847 55.7494 173.754 55.7932C173.766 55.6743 173.754 55.5542 173.72 55.44C173.538 54.8772 172.73 54.7335 172.584 54.1613C172.56 54.0197 172.547 53.8764 172.545 53.7327C172.498 53.2311 172.168 52.8072 172.055 52.3197C171.95 51.8699 172.03 51.3778 171.828 50.9609C171.655 50.7003 171.452 50.463 171.223 50.2545C170.95 49.9313 170.754 49.5467 170.649 49.1312C170.619 49.0158 170.592 48.8957 170.56 48.7803C170.594 48.519 170.566 48.2529 170.478 48.0055C170.271 47.4733 169.738 47.1318 169.545 46.5926C169.395 46.1734 169.46 45.6506 169.176 45.3256C169.026 45.1703 168.841 45.0549 168.638 44.9889C167.598 44.5691 166.507 44.302 165.396 44.1953C164.774 44.1364 164.088 44.1034 163.642 43.6489C163.122 43.1214 163.097 42.1724 162.488 41.765C161.952 41.4047 161.193 41.6708 160.778 42.1771C160.715 42.2516 160.658 42.3302 160.605 42.4126C160.529 42.097 160.513 41.7691 160.557 41.4471C160.557 41.367 160.573 41.2846 160.58 41.2116C161.606 40.8641 162.479 40.1495 163.043 39.1958C163.043 39.1958 163.043 39.1958 163.043 39.2099L163.07 39.2829C163.136 39.4548 163.24 39.6197 163.395 39.6385C163.498 39.6372 163.597 39.5999 163.677 39.5325C163.814 39.4338 163.94 39.3201 164.054 39.1934C164.111 39.1275 164.166 39.0592 164.217 38.9886C164.322 38.8415 164.412 38.6837 164.485 38.5176C164.598 38.2677 164.675 38.0018 164.712 37.7287C164.753 37.4555 164.758 37.1753 164.803 36.9021C164.846 36.6906 164.901 36.4822 164.969 36.278C164.992 36.2097 165.015 36.1415 165.035 36.0732C165.055 36.0049 165.085 35.913 165.108 35.8377C165.25 35.3533 165.326 34.8508 165.335 34.3447C165.335 34.2599 165.335 34.1751 165.335 34.0903C165.327 33.76 165.255 33.4346 165.124 33.1334C164.993 32.8321 164.805 32.561 164.572 32.3359C164.181 32.0039 163.663 31.8649 163.377 31.4151C163.19 31.1137 163.149 30.7252 163.04 30.3719C162.923 29.9492 162.693 29.5691 162.377 29.2749C162.062 28.9806 161.673 28.7839 161.255 28.707C160.752 28.6498 160.246 28.7938 159.842 29.1097L159.81 29.1356C159.585 29.3139 159.394 29.5344 159.247 29.7855C158.946 29.6998 158.672 29.538 158.447 29.3146C158.22 29.0956 158.045 28.82 157.815 28.6081C157.601 28.4045 157.338 28.2644 157.053 28.2022C156.769 28.1401 156.473 28.1583 156.198 28.2549C155.914 28.3727 155.661 28.5585 155.46 28.7972C155.259 29.0358 155.116 29.3205 155.042 29.6278C154.917 30.1129 154.939 30.671 154.678 31.076C154.476 31.3916 154.144 31.547 153.912 31.8343C153.769 32.0162 153.67 32.2322 153.626 32.4631C153.599 32.5922 153.586 32.7242 153.588 32.8564C153.588 32.9152 153.588 32.9741 153.601 33.0306C153.601 33.0306 153.601 33.0495 153.601 33.0589C153.609 33.1234 153.622 33.1872 153.64 33.2496C153.704 33.4884 153.82 33.7089 153.978 33.8949C154.128 34.073 154.316 34.2131 154.526 34.3046C154.612 34.3393 154.7 34.3684 154.789 34.3918L155.06 34.4553L155.155 34.4789C154.829 35.1138 154.648 35.818 154.626 36.537C154.604 37.2561 154.741 37.9707 155.028 38.6259C155.028 38.6918 155.012 38.7578 155.005 38.8237C154.968 39.751 155.008 40.6798 155.123 41.6001C155.155 41.9652 155.173 42.3679 154.957 42.6575C154.859 42.7714 154.749 42.8734 154.628 42.9613C154.751 42.7964 154.876 42.634 155.003 42.4715C154.683 42.1371 154.176 42.0947 153.722 42.1277C152.842 42.1957 151.989 42.466 151.223 42.9189C150.714 43.2227 150.191 43.6254 149.61 43.5547C149.267 43.5147 148.928 43.3192 148.594 43.4134C148.407 43.493 148.231 43.601 148.074 43.7337C147.95 43.8261 147.8 43.874 147.647 43.8703C147.29 43.4158 146.738 43.1073 146.311 42.7376C145.825 42.289 145.38 41.7947 144.982 41.261C144.246 40.3403 143.512 39.4171 142.79 38.487C142.181 37.7051 141.556 36.8597 141.45 35.8589C141.439 35.7596 141.433 35.6597 141.434 35.5598C141.448 35.0843 141.506 34.6112 141.606 34.1468C141.633 34.0347 141.633 33.9175 141.606 33.8054C141.538 33.5699 141.277 33.4828 141.052 33.431C141.082 33.2496 141.102 33.0636 141.113 32.887C141.241 30.8617 141.102 28.8036 141.515 26.8207C141.672 26.0577 141.929 25.2853 142.458 24.7319C143.287 23.8629 144.675 23.6534 145.312 22.6243C145.843 21.7671 145.632 20.5543 144.964 19.7984C144.296 19.0424 143.267 18.7339 142.288 18.7716C142.013 18.7618 141.742 18.8373 141.509 18.9883C141.291 19.1889 141.128 19.4456 141.036 19.7324L140.062 22.1886C139.779 22.8281 139.541 23.4875 139.348 24.162C139.076 25.1935 139.014 26.2814 138.798 27.3223C138.798 28.123 138.301 29.1215 138.028 29.8586C137.724 30.6875 137.394 31.507 137.12 32.3524C137.051 32.5643 136.813 33.1931 136.665 33.7654C136.609 33.799 136.558 33.8393 136.511 33.8855C136.392 34.043 136.284 34.2091 136.188 34.3823C135.981 34.6649 135.645 34.8156 135.418 35.0888C135.191 35.362 135.143 35.8636 135.459 36.0002C135.523 36.0225 135.589 36.0375 135.657 36.0449C135.698 36.0485 135.739 36.0556 135.779 36.0661C136.12 36.165 136.254 36.6101 136.204 36.9775C136.154 37.3448 135.977 37.6839 135.947 38.0513C135.886 38.7013 136.254 39.3065 136.608 39.8528C136.975 40.445 137.381 41.0107 137.822 41.546C138.142 41.9181 138.503 42.2525 138.826 42.6104C140.055 43.9197 141.032 45.4504 142.136 46.8728C142.533 47.4096 142.984 47.9007 143.483 48.3376C143.808 48.6014 144.149 48.8444 144.503 49.0652L146.402 50.3133C146.617 50.4769 146.861 50.5961 147.12 50.6642C147.204 50.676 147.29 50.676 147.374 50.6642C147.386 50.7231 147.395 50.7796 147.408 50.8385C147.556 51.4555 147.881 52.0159 147.917 52.6447C147.954 53.2735 147.899 53.9163 147.942 54.5522C147.983 55.1385 148.108 55.7296 148.14 56.3066C148.204 57.4181 147.94 58.5155 147.686 59.6035C147.302 61.1954 147.07 62.8203 146.323 64.2638C146.114 64.6618 145.868 65.0669 145.868 65.5214C145.868 65.5755 145.868 65.632 145.882 65.6862L145.541 65.8864C145.441 65.9453 145.341 66.0041 145.25 66.0654C144.819 66.3574 144.357 66.68 144.18 67.1839C144.037 67.5913 144.103 68.0576 143.93 68.4532C143.922 68.471 143.913 68.4883 143.903 68.505C143.721 68.8724 143.36 69.1456 143.278 69.5483C143.217 69.8568 143.335 70.1841 143.278 70.4902C143.278 70.4902 143.278 70.4902 143.278 70.502C143.227 70.6558 143.186 70.8132 143.156 70.973C143.153 71.0252 143.158 71.0775 143.169 71.1284C143.213 71.3068 143.308 71.4671 143.442 71.5876C143.524 71.6691 143.613 71.7424 143.708 71.8066C143.805 71.8726 143.905 71.9338 144.008 71.9903L144.067 72.0233C144.153 72.0704 144.239 72.1151 144.328 72.1575L144.387 72.1834C144.489 72.2305 144.594 72.2729 144.698 72.3106L144.771 72.3341C144.853 72.3624 144.937 72.3883 145.021 72.4095L145.078 72.4283L145.13 72.4401L145.357 72.4896L145.441 72.506C145.541 72.5233 145.643 72.5374 145.748 72.5484H145.839C145.916 72.5484 145.991 72.5602 146.066 72.5626H146.173C146.252 72.5626 146.329 72.5626 146.4 72.5626H146.482C146.588 72.5626 146.695 72.5461 146.802 72.5319H146.836C146.931 72.5178 147.027 72.5013 147.122 72.4801L147.195 72.4636C147.283 72.4425 147.372 72.4213 147.461 72.393L147.508 72.3789C147.615 72.3459 147.722 72.3106 147.826 72.2682C148.188 72.1141 148.539 71.9339 148.876 71.7289C149.103 71.5994 149.33 71.4675 149.557 71.3474C149.726 71.2594 149.899 71.1808 150.075 71.1119C150.505 70.9217 150.973 70.8409 151.439 70.8764C151.668 70.9089 151.896 70.9569 152.12 71.0201C152.12 71.046 152.12 71.0719 152.12 71.0978C152.305 72.2282 152.487 73.3585 152.668 74.4889C152.965 74.2669 153.28 74.0708 153.608 73.9025C153.547 74.0732 153.506 74.2512 153.488 74.4324C153.474 74.5725 153.474 74.7137 153.488 74.8539C153.508 75.0776 153.554 75.3249 153.424 75.5015C153.345 75.6098 153.197 75.671 153.154 75.7935C153.122 75.9187 153.114 76.0491 153.131 76.1774C153.122 76.3237 153.062 76.4618 152.963 76.5664C152.864 76.671 152.731 76.7351 152.59 76.7472C152.655 76.9368 152.657 77.1435 152.595 77.3341C152.532 77.5247 152.41 77.6879 152.247 77.7975C152.152 77.8449 152.064 77.9051 151.984 77.9765C151.906 78.0806 151.854 78.2026 151.832 78.3321C151.531 79.4983 150.914 80.5504 150.053 81.3629C149.73 81.626 149.435 81.9244 149.174 82.253C149.012 82.5075 148.879 82.78 148.776 83.0655C148.17 84.6009 147.555 86.1371 146.931 87.674C146.586 88.5336 146.25 89.4073 146.141 90.3327C145.868 92.8713 143.687 95.0237 144.096 97.5435C144.179 98.1729 144.424 98.7676 144.805 99.2649C145.259 99.8325 145.941 100.157 146.622 100.421C148.374 101.128 150.221 101.514 152.061 101.902L154.951 102.517C155.518 102.652 156.093 102.747 156.673 102.8C157.37 102.849 158.086 102.781 158.765 102.964C159.185 103.078 159.587 103.287 160.021 103.311C160.394 103.332 160.853 103.249 161.073 103.565C161.293 103.881 161.123 104.297 161.332 104.578C161.668 105.023 162.488 104.578 162.854 104.997C162.954 105.158 163.031 105.333 163.081 105.517C163.137 105.631 163.214 105.732 163.309 105.814C163.331 105.947 163.34 106.082 163.336 106.217C163.288 106.764 163.179 107.303 163.009 107.823C162.736 108.779 162.464 109.736 162.193 110.693C162.09 111.032 162.014 111.378 161.966 111.729C161.949 111.9 161.949 112.072 161.966 112.243C162.014 112.763 162.302 113.3 162.781 113.47C163.153 113.572 163.549 113.521 163.886 113.328C164.211 113.153 164.515 112.939 164.794 112.693C165.297 112.298 165.739 111.826 166.105 111.294C167.241 109.532 166.873 107.149 167.67 105.202C168.2 103.902 169.231 102.847 169.574 101.476C169.654 101.215 169.664 100.937 169.601 100.671C169.458 100.2 168.974 99.9314 168.522 99.7618H168.502C168.13 99.6248 167.751 99.5123 167.366 99.4251C167.27 99.4039 167.173 99.3874 167.075 99.3709C166.859 99.1886 166.687 98.9563 166.573 98.6927C166.555 98.5525 166.519 98.4155 166.466 98.2853C166.43 98.2292 166.382 98.1828 166.325 98.15C166.268 98.1172 166.204 98.099 166.139 98.0969C165.912 98.0733 165.608 98.1581 165.36 98.1393C164.853 98.1016 164.517 97.5859 164.063 97.348C163.608 97.1102 163.115 97.1691 162.632 97.2044C162.458 97.2289 162.282 97.2177 162.114 97.1714C161.912 97.0751 161.727 96.9437 161.568 96.7828C161.289 96.5573 160.962 96.4023 160.615 96.3299C160.268 96.2576 159.909 96.27 159.567 96.366C159.35 96.457 159.119 96.5111 158.885 96.5262C158.442 96.5003 158.129 96.0905 157.802 95.7797C156.907 94.9295 155.632 94.7058 154.546 94.1477C154.38 94.0836 154.241 93.96 154.156 93.7992C154.031 93.4789 154.312 93.1586 154.567 92.9396L156.434 91.3312C158.479 89.5698 161.034 88.2439 161.984 85.6606C162.083 85.3142 162.237 84.9872 162.438 84.6927C162.512 84.6029 162.597 84.5237 162.691 84.4572C163.104 84.1798 163.604 84.0785 164.088 84.1746C164.677 84.3113 165.235 84.564 165.732 84.9188C166.546 85.429 167.337 85.9785 168.106 86.5672C168.869 87.1318 169.593 87.7486 170.276 88.4135C171.469 89.5909 172.461 90.9874 173.572 92.2567C174.683 93.526 175.953 94.7105 177.496 95.3181C179.038 95.9257 180.903 95.8998 182.228 94.8801C183.757 93.7026 184.247 91.5973 184.634 89.6663C185.485 88.8138 185.742 87.5163 186.158 86.3694C186.419 85.6418 186.753 84.9565 187.035 84.2312C187.371 83.3787 187.635 82.4979 187.898 81.6196C188.197 80.7375 188.399 79.8236 188.502 78.8949C188.611 77.4278 188.232 75.8665 188.63 74.4889C189.154 74.3688 189.631 74.0626 190.147 73.8837C190.915 73.6223 191.737 73.6647 192.551 73.6694H192.603C192.883 73.7003 193.165 73.6313 193.403 73.4739C193.675 73.2384 193.718 72.8357 193.732 72.4707C193.764 71.5688 193.709 70.5562 193.057 69.9722ZM160.142 29.802C159.954 29.8502 159.759 29.8645 159.567 29.8444L160.142 29.802Z" fill="url(#paint0_linear_367_1234)"/>
<path d="M161.036 44.6993C160.761 44.9415 160.439 45.119 160.091 45.2197L158.481 45.8179C157.606 46.1428 156.693 46.4702 155.77 46.3524C155.255 46.2865 153.044 45.9498 152.71 45.5329C152.201 44.8877 153.985 43.9387 154.594 43.3947C154.732 43.2919 154.859 43.1752 154.975 43.0462C155.202 42.7589 155.173 42.3563 155.141 41.9936C155.026 41.0749 154.986 40.1476 155.023 39.2219C155.041 39.0013 155.071 38.7819 155.114 38.5649C155.341 37.4817 156.313 37.8773 157.081 38.1646C158.005 38.4758 158.899 38.8772 159.751 39.3632C160.01 39.5018 160.235 39.6999 160.409 39.9425C160.746 40.47 160.611 41.1623 160.557 41.8264C160.509 42.3421 160.512 42.8366 160.823 43.2111C160.979 43.3542 161.123 43.5119 161.252 43.682C161.325 43.8534 161.343 44.0443 161.304 44.2272C161.266 44.41 161.172 44.5754 161.036 44.6993Z" fill="#BE6F72"/>
<path d="M138.787 27.7274C139.014 26.6842 139.064 25.608 139.337 24.5742C139.529 23.902 139.768 23.2449 140.05 22.6078L141.052 20.1846C141.144 19.8985 141.307 19.6426 141.524 19.4428C141.758 19.2929 142.029 19.2175 142.304 19.2261C143.283 19.1885 144.312 19.504 144.98 20.2505C145.648 20.997 145.859 22.2051 145.327 23.06C144.691 24.0891 143.303 24.2963 142.474 25.1629C141.945 25.7163 141.688 26.4864 141.531 27.247C141.118 29.2251 141.256 31.2763 141.129 33.2968C141.088 33.9256 140.97 34.6438 140.448 34.9688C140.132 35.1292 139.781 35.1999 139.43 35.1737L137.94 35.1996C137.69 35.1996 136.783 35.3621 136.617 35.1666C136.327 34.8251 136.99 33.1249 137.11 32.7457C137.379 31.905 137.708 31.0855 138.019 30.259C138.289 29.5219 138.787 28.5257 138.787 27.7274Z" fill="#BE6F72"/>
<path d="M169.558 101.71C169.215 103.071 168.184 104.13 167.654 105.428C166.857 107.371 167.216 109.747 166.089 111.504C165.723 112.037 165.281 112.51 164.778 112.905C164.499 113.151 164.194 113.363 163.869 113.538C163.533 113.731 163.137 113.782 162.765 113.68C162.286 113.51 161.998 112.973 161.95 112.455C161.933 112.285 161.933 112.114 161.95 111.944C161.998 111.594 162.073 111.248 162.177 110.91C162.45 109.957 162.721 109.003 162.993 108.047C163.162 107.528 163.272 106.991 163.32 106.445C163.349 105.852 162.986 105.079 163.14 104.526C163.211 104.276 163.474 104.055 163.595 103.846C163.765 103.544 163.897 103.22 163.985 102.882C164.172 102.225 164.299 101.524 164.69 100.97C164.944 100.642 165.243 100.353 165.576 100.111C165.821 99.8874 166.109 99.7198 166.421 99.6184C166.723 99.5632 167.033 99.5785 167.329 99.6631C167.715 99.7485 168.094 99.8602 168.465 99.9975H168.486C168.94 100.167 169.422 100.428 169.565 100.904C169.634 101.168 169.632 101.447 169.558 101.71Z" fill="#3F3D56"/>
<path d="M193.73 72.7582C193.716 73.1232 193.673 73.5306 193.4 73.759C193.163 73.9165 192.881 73.9854 192.601 73.9545H192.539C191.728 73.9545 190.904 73.9074 190.136 74.1688C189.552 74.3689 189.016 74.7363 188.407 74.8093C187.569 74.9082 186.78 74.4325 186.038 74.0181C185.338 73.6275 184.62 73.2738 183.886 72.9584C183.405 72.7535 182.421 72.6216 182.189 72.0753C182.11 71.8168 182.043 71.5543 181.989 71.2888C181.951 71.1701 181.905 71.0544 181.851 70.9426C181.714 70.704 181.628 70.4385 181.596 70.1631C181.597 69.8887 181.688 69.6228 181.855 69.4096C182.04 69.1822 182.267 68.995 182.523 68.8588C182.778 68.7226 183.057 68.6401 183.343 68.616C183.916 68.5699 184.492 68.6015 185.056 68.7102L190.649 69.5438C191.081 69.6074 191.515 69.671 191.94 69.7793C192.343 69.8518 192.723 70.0248 193.048 70.2832C193.709 70.8578 193.764 71.8681 193.73 72.7582Z" fill="#3F3D56"/>
<path d="M188.813 74.2652C188.132 75.7559 188.622 77.5197 188.5 79.1682C188.397 80.0946 188.194 81.0061 187.895 81.8858C187.632 82.7618 187.368 83.6402 187.032 84.4903C186.751 85.1968 186.417 85.9032 186.155 86.6239C185.74 87.7731 185.474 89.0659 184.631 89.9207C184.245 91.8471 183.754 93.9523 182.225 95.1204C180.896 96.1377 179.045 96.173 177.493 95.5584C175.941 94.9438 174.681 93.7663 173.57 92.497C172.459 91.2277 171.466 89.8454 170.273 88.6632C169.59 87.9982 168.863 87.3821 168.099 86.8193C167.33 86.24 166.539 85.6952 165.725 85.185C165.227 84.8318 164.669 84.5801 164.081 84.4432C163.597 84.3471 163.097 84.4483 162.683 84.7258C162.59 84.7922 162.505 84.8714 162.431 84.9613C162.229 85.2547 162.075 85.581 161.977 85.9268C161.023 88.5031 158.462 89.8265 156.418 91.5833L154.55 93.187C154.296 93.406 154.014 93.7263 154.139 94.0442C154.225 94.205 154.364 94.3286 154.53 94.3927C155.616 94.9485 156.89 95.1722 157.785 96.02C158.113 96.3308 158.426 96.7406 158.869 96.7641C159.103 96.7499 159.333 96.6966 159.551 96.6063C159.892 96.5105 160.251 96.498 160.598 96.5699C160.946 96.6418 161.272 96.7962 161.552 97.0208C161.711 97.1816 161.896 97.313 162.097 97.4094C162.266 97.4557 162.442 97.4669 162.615 97.4423C163.099 97.407 163.613 97.3623 164.046 97.586C164.48 97.8097 164.837 98.3372 165.344 98.3749C165.591 98.3937 165.887 98.3089 166.123 98.3325C166.188 98.3346 166.252 98.3528 166.308 98.3856C166.365 98.4184 166.414 98.4648 166.45 98.5209C166.503 98.6503 166.539 98.7866 166.557 98.9259C166.65 99.258 166.963 99.4605 167.168 99.7337C167.481 100.153 167.527 100.723 167.495 101.253C167.392 102.909 166.68 104.462 165.505 105.59C165.171 105.944 164.746 106.189 164.28 106.297C164.047 106.347 163.805 106.321 163.587 106.221C163.369 106.12 163.188 105.952 163.067 105.739C163.017 105.555 162.94 105.381 162.84 105.221C162.474 104.804 161.654 105.247 161.318 104.801C161.109 104.524 161.259 104.078 161.059 103.791C160.859 103.504 160.378 103.556 160.007 103.539C159.573 103.516 159.171 103.304 158.751 103.193C158.069 103.009 157.356 103.078 156.659 103.028C156.079 102.975 155.504 102.881 154.937 102.746L152.047 102.133C150.207 101.745 148.36 101.351 146.608 100.657C145.938 100.393 145.264 100.068 144.791 99.5029C144.41 99.0063 144.165 98.4124 144.082 97.7838C143.671 95.2711 145.852 93.1234 146.127 90.5919C146.224 89.6688 146.581 88.7974 146.917 87.9402C147.534 86.408 148.149 84.8749 148.762 83.3411C148.861 83.0555 148.991 82.7822 149.148 82.5263C149.41 82.1984 149.704 81.9008 150.027 81.6385C150.888 80.8287 151.506 79.7789 151.806 78.6148C151.828 78.4852 151.881 78.3632 151.958 78.2592C152.039 78.1893 152.127 78.13 152.222 78.0826C152.384 77.9731 152.506 77.8102 152.568 77.6201C152.631 77.4301 152.629 77.2239 152.565 77.0346C152.706 77.0225 152.838 76.9584 152.937 76.8538C153.037 76.7492 153.096 76.6111 153.106 76.4647C153.089 76.3373 153.097 76.2076 153.128 76.0832C153.183 75.9608 153.319 75.8996 153.399 75.7912C153.528 75.6146 153.483 75.3673 153.462 75.146C153.449 75.0058 153.449 74.8646 153.462 74.7245C153.512 74.2258 153.727 73.7605 154.071 73.4081C154.614 72.8546 155.387 72.9983 156.136 72.8664C156.884 72.6991 157.614 72.457 158.317 72.1435C160.288 71.3383 162.364 70.8407 164.476 70.6669C166.598 70.4939 168.73 70.8458 170.696 71.6937C170.982 71.8137 171.252 71.9721 171.498 72.1647C171.673 72.3044 171.816 72.482 171.918 72.6851C172.002 72.9344 172.105 73.1762 172.227 73.4081C172.47 73.7519 172.929 73.8626 173.195 74.1875C173.461 74.5125 173.483 75.0612 173.704 75.4639C174.02 76.0385 174.751 76.3046 174.969 76.9287C175.037 77.1265 175.046 77.3431 175.096 77.548C175.219 78.0614 175.587 78.4664 175.912 78.8715C177.103 80.3481 177.865 82.1445 178.111 84.0523C178.184 82.8583 178.958 81.801 179.928 81.1416C180.19 80.965 180.492 80.7695 180.544 80.4493C180.61 80.0442 180.231 79.6839 180.256 79.2718C180.283 79.0706 180.361 78.8805 180.483 78.7207C180.916 78.0703 181.391 77.4511 181.905 76.8674C182.184 76.5495 182.498 76.161 182.382 75.7418C182.293 75.4286 181.984 75.2449 181.814 74.9717C181.715 74.8089 181.664 74.6192 181.668 74.4265C181.672 74.2339 181.731 74.0467 181.837 73.8885C181.996 73.6647 182.248 73.5022 182.325 73.2361C182.414 72.9229 182.216 72.5838 182.277 72.2612C182.36 72.0029 182.525 71.7812 182.745 71.6324C183.047 71.348 183.389 71.1143 183.761 70.9401C184.361 70.7046 185.028 70.7917 185.665 70.8836C186.728 71.0367 187.92 71.2721 188.52 72.1953C188.904 72.7722 189.1 73.6483 188.813 74.2652Z" fill="#65617D"/>
<path opacity="0.1" d="M193.729 72.7582C193.716 73.1232 193.672 73.5306 193.4 73.759C193.162 73.9164 192.88 73.9854 192.6 73.9545H192.539C192.632 73.4646 193.207 73.1844 193.307 72.6875C193.324 72.5349 193.31 72.3803 193.267 72.2332C193.224 72.0862 193.153 71.9498 193.057 71.8327C192.571 71.1522 191.789 70.7754 191.012 70.4999C188.817 69.7198 186.466 69.5374 184.183 69.97C183.563 70.0748 182.959 70.2674 182.389 70.5423C182.2 70.6648 182.018 70.7985 181.843 70.9426C181.707 70.704 181.62 70.4385 181.589 70.1631C181.59 69.8887 181.681 69.6228 181.848 69.4096C182.033 69.1822 182.26 68.995 182.515 68.8588C182.771 68.7226 183.05 68.6401 183.336 68.616C183.908 68.5699 184.484 68.6015 185.049 68.7102L190.642 69.5438C191.074 69.6074 191.507 69.671 191.932 69.7793C192.336 69.8518 192.716 70.0248 193.041 70.2832C193.709 70.8578 193.763 71.868 193.729 72.7582Z" fill="black"/>
<path opacity="0.1" d="M169.558 101.709C169.215 103.071 168.184 104.13 167.654 105.428C166.857 107.371 167.216 109.747 166.089 111.504C165.723 112.037 165.281 112.51 164.778 112.905C164.499 113.151 164.194 113.363 163.869 113.538C163.533 113.731 163.137 113.781 162.765 113.679C162.286 113.51 161.998 112.973 161.95 112.455C161.933 112.285 161.933 112.114 161.95 111.944L161.963 111.982C162.161 112.476 162.484 112.994 162.993 113.081C163.184 113.096 163.375 113.069 163.556 113.003C163.737 112.937 163.902 112.833 164.042 112.697C164.792 112.073 165.228 111.143 165.644 110.246C165.969 109.599 166.226 108.918 166.412 108.214C166.502 107.813 166.546 107.404 166.639 107.003C167.07 105.058 168.54 103.471 168.865 101.5C168.891 101.364 168.898 101.225 168.883 101.088C168.84 100.908 168.775 100.736 168.688 100.574C168.609 100.392 168.551 100.201 168.515 100.004C168.97 100.174 169.451 100.435 169.594 100.911C169.653 101.176 169.64 101.452 169.558 101.709Z" fill="black"/>
<path opacity="0.1" d="M166.128 98.3325C165.918 98.9023 165.564 99.4032 165.103 99.7831C164.457 100.294 163.699 100.633 162.897 100.772C162.524 100.871 162.132 100.866 161.761 100.758C161.257 100.577 160.894 100.087 160.378 99.9456C160.01 99.842 159.615 99.9338 159.242 99.8773C158.572 99.7808 158.052 99.2509 157.511 98.827C155.855 97.5365 153.681 97.1197 152.025 95.8292C151.951 95.7823 151.89 95.7166 151.848 95.6385C151.816 95.5539 151.804 95.4626 151.813 95.3724C151.82 94.5896 151.989 93.8175 152.311 93.1093C152.574 92.6151 152.888 92.1517 153.247 91.7269C154.73 89.843 156.221 87.945 157.997 86.3554C158.742 85.6889 159.556 85.0672 160.496 84.7658C161.019 84.5986 162.05 84.4408 162.686 84.7234C162.592 84.7899 162.507 84.8691 162.434 84.9589C162.232 85.2523 162.078 85.5786 161.98 85.9244C161.023 88.5031 158.463 89.8265 156.418 91.5833L154.551 93.187C154.296 93.406 154.015 93.7263 154.14 94.0442C154.226 94.205 154.364 94.3286 154.53 94.3927C155.616 94.9485 156.891 95.1722 157.786 96.02C158.113 96.3308 158.427 96.7406 158.87 96.7641C159.103 96.7499 159.334 96.6966 159.551 96.6063C159.893 96.5105 160.251 96.498 160.599 96.5699C160.946 96.6418 161.272 96.7961 161.552 97.0208C161.711 97.1816 161.896 97.313 162.098 97.4094C162.267 97.4556 162.443 97.4669 162.616 97.4423C163.1 97.407 163.613 97.3623 164.047 97.586C164.481 97.8097 164.837 98.3372 165.344 98.3749C165.596 98.3937 165.892 98.3042 166.128 98.3325Z" fill="black"/>
<path d="M145.234 66.3716C144.803 66.6589 144.344 66.9838 144.167 67.4831C144.021 67.8905 144.089 68.3568 143.914 68.7524C143.74 69.148 143.347 69.4235 143.26 69.8474C143.199 70.1559 143.319 70.4809 143.26 70.7894C143.209 70.9498 143.167 71.1134 143.135 71.2792C143.113 71.6301 143.403 71.915 143.687 72.1105C144.292 72.5181 144.98 72.773 145.697 72.8548C146.414 72.9366 147.139 72.843 147.815 72.5815C148.422 72.346 148.969 71.9621 149.551 71.6607C150.118 71.3221 150.767 71.1587 151.42 71.1897C151.795 71.2321 152.154 71.3734 152.529 71.4252C152.714 71.4631 152.905 71.4538 153.086 71.398C153.267 71.3422 153.432 71.2416 153.567 71.1049C153.683 70.9393 153.761 70.7484 153.794 70.5468C154.11 69.254 153.967 67.8834 153.667 66.5835C153.367 65.2836 152.913 64.0331 152.593 62.7403C152.365 61.7818 152.191 60.7999 151.811 59.8932C151.432 58.9866 150.793 58.1435 149.901 57.7973C149.83 57.7615 149.75 57.7508 149.673 57.7667C149.616 57.7916 149.565 57.8303 149.526 57.8798C148.82 58.6556 148.287 59.5835 147.967 60.5973C147.611 61.7253 147.513 62.9216 147.186 64.0543C147.045 64.5253 146.863 65.1564 146.504 65.5167C146.145 65.877 145.641 66.1007 145.234 66.3716Z" fill="#3F3D56"/>
<path opacity="0.1" d="M153.801 70.5398C153.763 70.7421 153.681 70.9328 153.562 71.0979C153.428 71.2351 153.263 71.3358 153.081 71.3912C152.9 71.4467 152.709 71.4551 152.524 71.4159C152.152 71.3688 151.793 71.2251 151.418 71.1804C150.764 71.149 150.115 71.3124 149.548 71.6514C148.967 71.9528 148.412 72.3272 147.81 72.5698C146.93 72.9159 145.967 72.9727 145.055 72.7323C144.57 72.6059 144.109 72.3958 143.691 72.1106C143.405 71.9175 143.117 71.6396 143.139 71.2793C143.171 71.1142 143.213 70.9514 143.264 70.7918C143.323 70.4833 143.205 70.1583 143.264 69.8498C143.351 69.426 143.746 69.1434 143.919 68.7524C144.091 68.3615 144.025 67.8929 144.169 67.4855C144.346 66.9839 144.807 66.6613 145.239 66.3716C145.67 66.082 146.184 65.8606 146.529 65.5097C146.574 65.4551 146.614 65.3968 146.649 65.3355C146.898 64.9373 147.081 64.4987 147.19 64.0379C147.524 62.9028 147.615 61.7089 147.969 60.5785C148.291 59.5655 148.824 58.6385 149.53 57.8633C149.568 57.8127 149.618 57.7737 149.675 57.7502C149.752 57.7341 149.832 57.744 149.902 57.7785C150.793 58.127 151.431 58.9701 151.813 59.8767C152.195 60.7834 152.356 61.7607 152.595 62.7215C152.913 64.0143 153.369 65.2695 153.669 66.5671C153.969 67.8646 154.117 69.2446 153.801 70.5398Z" fill="black"/>
<path opacity="0.1" d="M160.557 41.8194C159.489 42.1712 158.333 42.1014 157.311 41.6231C156.29 41.1449 155.475 40.2921 155.023 39.2287C155.041 39.008 155.071 38.7886 155.114 38.5716C155.341 37.4883 156.313 37.8839 157.081 38.1712C158.005 38.4825 158.899 38.8839 159.75 39.37C160.01 39.5086 160.235 39.7068 160.409 39.9494C160.745 40.4699 160.611 41.1623 160.557 41.8194Z" fill="black"/>
<path d="M159.185 41.8049C161.694 41.8049 163.728 39.6963 163.728 37.0952C163.728 34.4941 161.694 32.3855 159.185 32.3855C156.676 32.3855 154.641 34.4941 154.641 37.0952C154.641 39.6963 156.676 41.8049 159.185 41.8049Z" fill="#BE6F72"/>
<path opacity="0.1" d="M171.514 72.2918C171.514 72.6827 171.003 72.8075 170.623 72.7863C169.26 72.7039 167.927 72.3154 166.577 72.4331C164.871 72.5932 163.304 73.5705 161.593 73.66C160.934 73.6953 160.264 73.594 159.614 73.7189C158.774 73.8813 158.024 74.4112 157.168 74.4865C156.425 74.5525 155.691 74.2628 154.948 74.2934C154.429 74.3255 153.923 74.475 153.465 74.7314C153.515 74.2328 153.73 73.7675 154.074 73.4151C154.617 72.8617 155.389 73.0053 156.139 72.8735C156.887 72.7061 157.617 72.464 158.32 72.1505C160.291 71.3454 162.366 70.8478 164.478 70.674C166.6 70.4991 168.731 70.8486 170.696 71.6937C170.982 71.8137 171.252 71.9721 171.498 72.1646C171.51 72.2057 171.516 72.2488 171.514 72.2918Z" fill="black"/>
<path d="M157.084 45.6954L155.244 44.989L154.467 44.6922C154.15 44.5547 153.817 44.4628 153.476 44.4191C152.586 44.3484 151.747 44.9631 151.273 45.7472C150.798 46.5314 150.618 47.4663 150.466 48.3777C150.257 49.6242 150.08 50.8755 149.935 52.1314C149.778 53.2656 149.698 54.4097 149.696 55.5554C149.748 58.4708 150.344 61.3462 150.998 64.1838C151.318 65.442 151.56 66.7202 151.722 68.0106C151.777 68.5428 151.802 69.0773 151.856 69.6119C151.916 70.2124 152.011 70.8058 152.106 71.4016L152.654 74.7856C153.335 74.284 154.11 73.8437 154.948 73.8178C155.691 73.7895 156.427 74.0768 157.168 74.0109C158.02 73.9379 158.774 73.408 159.615 73.2455C160.264 73.1207 160.934 73.2196 161.596 73.1867C163.304 73.0972 164.874 72.1175 166.577 71.9598C167.929 71.8326 169.272 72.2282 170.626 72.3106C171.003 72.3342 171.514 72.2094 171.514 71.8161C171.514 71.5429 171.251 71.3616 171.021 71.225C169.94 70.55 168.91 69.7886 167.943 68.9478C167.048 68.2131 166.139 67.4595 165.523 66.4657C164.04 64.0755 164.549 60.8422 163.283 58.3201C162.254 56.2713 163.283 53.5867 163.283 51.2766C163.283 50.125 163.283 48.9593 163.022 47.8408C162.859 47.2151 162.655 46.6015 162.413 46.0039L161.53 43.6843C161.511 43.6166 161.475 43.5554 161.425 43.5077C161.366 43.4653 161.295 43.4431 161.223 43.4441C160.692 43.4112 160.169 43.585 159.755 43.9316C159.34 44.2825 159.074 44.7864 158.665 45.1515C158.217 45.5541 157.64 45.9074 157.084 45.6954Z" fill="#E3E8F4"/>
<path d="M160.053 44.3577C160.198 43.7125 160.355 43.0413 160.771 42.5374C161.187 42.0334 161.945 41.7673 162.481 42.1276C163.09 42.5374 163.115 43.4841 163.636 44.0116C164.09 44.4637 164.771 44.499 165.389 44.5579C166.5 44.6627 167.592 44.9291 168.631 45.3492C168.834 45.4143 169.019 45.529 169.17 45.6836C169.454 46.018 169.397 46.5313 169.538 46.9482C169.731 47.4851 170.265 47.8266 170.471 48.3611C170.698 48.9546 170.471 49.6187 170.28 50.2286C169.937 51.3236 169.722 52.4611 169.388 53.5608C169.054 54.6606 168.579 55.7439 167.797 56.5728C167.452 56.9402 166.939 57.2793 166.484 57.0603L166.309 58.3673C166.258 58.6434 166.258 58.9271 166.309 59.2033C166.336 59.3414 166.399 59.4691 166.493 59.5715C166.586 59.674 166.705 59.7472 166.836 59.7826C166.871 59.9851 167.077 60.0816 167.245 60.1923C167.369 60.2803 167.475 60.3929 167.557 60.5237C167.639 60.6544 167.695 60.8007 167.722 60.9541C167.749 61.1074 167.746 61.2647 167.714 61.417C167.681 61.5692 167.62 61.7132 167.534 61.8408C167.391 62.041 167.18 62.1987 167.111 62.4366C167.009 62.7804 167.252 63.1431 167.548 63.3315C167.843 63.5198 168.19 63.607 168.49 63.7883C169.113 64.1604 169.447 64.8928 169.66 65.604C169.819 66.1409 169.951 66.7226 170.342 67.1135C170.492 67.2618 170.671 67.3749 170.814 67.5303C171.062 67.8337 171.205 68.2141 171.221 68.6112C171.283 69.1034 171.179 69.6028 170.926 70.0242C170.471 70.6977 169.624 70.8979 168.881 71.2017C167.675 71.715 166.682 72.6334 165.619 73.4153C165.186 73.7768 164.676 74.0255 164.131 74.1406C163.395 74.2419 162.67 73.9051 161.929 73.8745C161.486 73.8788 161.045 73.9389 160.616 74.0535L159.253 74.3596C159.326 73.2646 158.744 72.1672 158.42 71.1239C157.806 69.1599 157.693 67.0593 157.838 65.0011C157.983 62.9429 158.388 60.9129 158.788 58.8924C159.067 57.4794 159.04 56.0029 159.469 54.63C159.871 53.3089 160.446 52.0395 160.657 50.6643C161.003 48.4388 159.567 46.5525 160.053 44.3577Z" fill="#3F3D56"/>
<path d="M170.387 48.7123C170.512 48.9516 170.601 49.2099 170.648 49.4776C170.753 49.8925 170.95 50.2762 171.223 50.5986C171.452 50.8075 171.655 51.0448 171.827 51.305C172.036 51.7148 171.957 52.214 172.054 52.6614C172.168 53.1489 172.497 53.5728 172.545 54.0744C172.547 54.2181 172.559 54.3615 172.584 54.503C172.731 55.0729 173.54 55.2094 173.72 55.7793C173.84 56.149 173.633 56.5517 173.672 56.9403C173.7 57.0605 173.707 57.1849 173.692 57.3077C173.641 57.4464 173.551 57.5661 173.433 57.6515C172.682 58.396 172.161 59.3561 171.939 60.409C171.72 61.4562 171.605 62.5238 171.596 63.5952L170.707 62.3777C170.613 62.23 170.493 62.1022 170.353 62.001C170.239 61.9303 170.108 61.895 169.992 61.8243C169.655 61.6265 169.524 61.2074 169.394 60.8306C169.035 59.7876 168.496 58.8206 167.804 57.9764C167.443 57.5361 167.022 57.0934 166.943 56.5211C166.919 56.2583 166.933 55.9932 166.984 55.7346C167.211 54.1921 167.454 52.612 168.179 51.2438C168.517 50.6033 168.956 50.024 169.281 49.374C169.499 48.9431 169.805 47.8221 170.387 48.7123Z" fill="#3F3D56"/>
<path d="M147.976 50.1934C147.98 50.3916 147.932 50.5872 147.835 50.7585C147.749 50.8629 147.635 50.9401 147.509 50.9817C147.382 51.0233 147.247 51.0275 147.118 50.994C146.859 50.9267 146.615 50.8084 146.4 50.6455C145.767 50.231 145.134 49.8158 144.5 49.3997C144.147 49.1789 143.806 48.9367 143.48 48.6744C142.982 48.2384 142.53 47.7481 142.133 47.212C141.029 45.7991 140.052 44.266 138.823 42.9732C138.489 42.6199 138.142 42.2808 137.819 41.9111C137.378 41.3767 136.973 40.8118 136.606 40.2203C136.252 39.6763 135.884 39.0734 135.945 38.4235C135.981 38.0561 136.152 37.717 136.202 37.352C136.252 36.987 136.118 36.5419 135.777 36.443C135.737 36.4325 135.696 36.4254 135.654 36.4218C135.587 36.4144 135.521 36.3994 135.456 36.377C135.141 36.2405 135.188 35.7342 135.416 35.468C135.643 35.2019 135.979 35.0536 136.186 34.7616C136.282 34.5883 136.39 34.4223 136.508 34.2647C136.66 34.1295 136.842 34.0349 137.038 33.9892C138.348 33.5889 139.734 33.5346 141.07 33.8314C141.297 33.8832 141.556 33.9774 141.624 34.2058C141.652 34.3171 141.652 34.4336 141.624 34.5449C141.524 35.0092 141.466 35.4823 141.452 35.9579C141.451 36.057 141.457 36.1561 141.468 36.2546C141.574 37.2531 142.199 38.0985 142.808 38.878C143.53 39.8058 144.264 40.7266 145 41.645C145.398 42.1772 145.843 42.6699 146.329 43.1168C146.784 43.5077 147.372 43.8233 147.726 44.3249C148.015 44.7299 147.922 45.2834 147.954 45.7708C148.059 47.2427 148.067 48.7204 147.976 50.1934Z" fill="#3F3D56"/>
<path d="M176.827 60.0181C177.052 59.7919 177.254 59.5435 177.432 59.2763C177.623 58.9452 177.775 58.5918 177.886 58.2236L179.204 54.3499C179.413 53.7376 179.622 53.123 179.885 52.5272C180.158 51.8843 180.48 51.265 180.778 50.6433C181.543 49.0072 182.135 47.2899 182.543 45.5214C182.615 45.2784 182.639 45.023 182.614 44.7702C182.55 44.3628 182.252 44.0449 181.968 43.7552C181.683 43.4355 181.357 43.1568 181.001 42.9263C180.821 42.8108 180.622 42.7335 180.414 42.6987C180.205 42.6639 179.993 42.6725 179.787 42.7238C179.206 42.9004 178.84 43.5174 178.706 44.1367C178.572 44.7561 178.622 45.3895 178.565 46.0206C178.483 46.9249 178.184 47.7986 178.111 48.7052C178.072 49.2303 178.111 49.7602 178.05 50.283C177.938 50.9695 177.707 51.6293 177.368 52.2305C176.63 53.6625 175.633 54.9337 174.431 55.9747C174.101 56.2267 173.805 56.5219 173.549 56.8531C173.336 57.1843 173.191 57.558 173.124 57.9505C172.973 58.548 173.039 59.1822 173.308 59.7331C173.679 60.3878 174.39 60.6751 175.069 60.8211C175.987 61.0189 176.198 60.6939 176.827 60.0181Z" fill="#BE6F72"/>
<path d="M159.213 30.2708C159.408 29.8899 159.708 29.577 160.074 29.3714C160.44 29.1658 160.856 29.0765 161.271 29.1146C161.689 29.1913 162.077 29.3876 162.393 29.6815C162.708 29.9753 162.938 30.3548 163.057 30.7771C163.163 31.128 163.206 31.5166 163.393 31.818C163.674 32.2725 164.197 32.4044 164.588 32.734C164.821 32.9587 165.009 33.2294 165.14 33.5303C165.271 33.8311 165.343 34.1561 165.351 34.4861C165.373 35.1601 165.27 35.8323 165.049 36.4665C164.955 36.7371 164.879 37.0141 164.822 37.2955C164.776 37.5686 164.772 37.8465 164.731 38.1197C164.68 38.4739 164.562 38.8141 164.383 39.1202C164.204 39.4264 163.968 39.6923 163.688 39.9023C163.608 39.9697 163.509 40.007 163.406 40.0083C163.229 39.9871 163.12 39.7728 163.054 39.5797C162.693 38.4988 162.779 37.1777 162.114 36.3158C161.811 35.9681 161.445 35.6857 161.037 35.4846C160.87 35.3733 160.683 35.3002 160.487 35.2703C160.199 35.2863 159.922 35.3913 159.692 35.5717C159.213 35.9051 158.68 36.149 158.12 36.2923C157.84 36.361 157.549 36.3641 157.268 36.3013C156.987 36.2386 156.723 36.1116 156.496 35.9296C156.182 35.6612 155.953 35.2585 155.605 35.0489C155.257 34.8393 154.894 34.8511 154.551 34.7074C154.332 34.6111 154.138 34.4642 153.982 34.2781C153.827 34.092 153.714 33.8715 153.653 33.6335C153.592 33.3955 153.585 33.1462 153.631 32.9046C153.677 32.663 153.776 32.4355 153.919 32.2395C154.147 31.9569 154.483 31.7968 154.685 31.4836C154.946 31.0786 154.924 30.5228 155.048 30.0377C155.122 29.7308 155.266 29.4466 155.467 29.2086C155.668 28.9707 155.921 28.7859 156.205 28.6695C156.48 28.5726 156.775 28.5541 157.06 28.6158C157.344 28.6775 157.608 28.8172 157.822 29.0204C158.05 29.2323 158.231 29.5055 158.454 29.7268C158.674 29.9449 158.943 30.1024 159.236 30.1846C159.53 30.2669 159.839 30.2715 160.135 30.1978" fill="#3F3D56"/>
<path opacity="0.1" d="M162.947 64.9328C162.815 65.0549 162.721 65.2154 162.678 65.3936C162.635 65.5717 162.645 65.7591 162.706 65.9314C162.756 66.0421 165.101 65.5734 165.348 65.538C165.966 65.4462 167.05 65.4909 167.466 64.9045C168.206 63.8659 165.912 64.0967 165.491 64.1344C164.692 64.205 163.556 64.3181 162.947 64.9328Z" fill="black"/>
<path d="M141.62 34.5544C141.519 35.0188 141.462 35.492 141.447 35.9676C140.765 36.1112 140.057 35.8757 139.402 35.6402L137.524 34.976C137.409 34.9003 137.271 34.8725 137.138 34.8983C137.005 34.9242 136.886 35.0016 136.806 35.115C136.503 35.44 136.088 36.0571 135.67 36.4221C135.602 36.4147 135.536 36.3997 135.472 36.3774C135.156 36.2408 135.204 35.7344 135.431 35.4683C135.658 35.2021 135.995 35.0538 136.201 34.7617C136.298 34.5884 136.405 34.4224 136.524 34.2648C136.676 34.1295 136.858 34.0349 137.053 33.9892C138.364 33.5888 139.75 33.5346 141.086 33.8314C141.313 33.8832 141.572 33.9774 141.64 34.2059C141.662 34.322 141.655 34.442 141.62 34.5544Z" fill="#3F3D56"/>
<path opacity="0.1" d="M141.62 34.5544C141.519 35.0188 141.462 35.492 141.447 35.9676C140.765 36.1112 140.057 35.8757 139.402 35.6402L137.524 34.976C137.409 34.9003 137.271 34.8725 137.138 34.8983C137.005 34.9242 136.886 35.0016 136.806 35.115C136.503 35.44 136.088 36.0571 135.67 36.4221C135.602 36.4147 135.536 36.3997 135.472 36.3774C135.156 36.2408 135.204 35.7344 135.431 35.4683C135.658 35.2021 135.995 35.0538 136.201 34.7617C136.298 34.5884 136.405 34.4224 136.524 34.2648C136.676 34.1295 136.858 34.0349 137.053 33.9892C138.364 33.5888 139.75 33.5346 141.086 33.8314C141.313 33.8832 141.572 33.9774 141.64 34.2059C141.662 34.322 141.655 34.442 141.62 34.5544Z" fill="black"/>
<path opacity="0.1" d="M158.806 79.2623C159.133 79.3754 159.487 79.5402 159.598 79.8794L156.968 79.1869L155.605 78.8266C155.364 78.763 154.501 78.69 154.342 78.4945C154.114 78.2071 154.921 78.405 155.066 78.4262C155.507 78.4945 155.948 78.5651 156.386 78.6476C157.213 78.8007 158.008 79.0527 158.806 79.2623Z" fill="black"/>
<path opacity="0.1" d="M159.826 81.676C159.599 81.5183 158.947 81.5371 158.667 81.4688C158.258 81.3675 157.856 81.2333 157.454 81.1038C156.638 80.8283 155.83 80.5151 154.991 80.3126C154.837 80.2773 154.31 80.2679 154.335 80.0653C154.36 79.8628 154.862 79.7922 154.987 79.7828C155.73 79.7263 156.657 80.0865 157.347 80.3432C158.227 80.67 159.061 81.1183 159.826 81.676Z" fill="black"/>
<path opacity="0.1" d="M158.158 77.1099C157.324 76.8744 156.568 76.3376 155.709 76.234C155.485 76.2428 155.265 76.1731 155.085 76.0362C154.984 75.9334 154.913 75.8026 154.882 75.6595C155.457 75.6289 156.125 75.8808 156.647 76.1186C156.935 76.2465 157.212 76.3993 157.474 76.5754C157.665 76.6955 157.951 77.0416 158.158 77.1099Z" fill="black"/>
<path d="M174.051 56.0242C173.911 57.0032 174.114 58.0022 174.626 58.8381C175.137 59.674 175.922 60.2911 176.837 60.5762C176.725 61.1343 176.169 61.4428 175.776 61.8408C175.221 62.3989 174.935 63.2349 174.281 63.6588C173.552 64.1298 172.613 63.9461 171.782 63.7483C171.706 63.7395 171.637 63.7017 171.587 63.6423C171.569 63.6141 171.557 63.583 171.55 63.5505C171.275 62.5073 171.096 61.3934 171.378 60.3478C171.605 59.4576 172.15 58.6994 172.586 57.9128C173.022 57.1263 173.063 56.2832 174.051 56.0242Z" fill="#3F3D56"/>
<path d="M153.739 42.5209C152.86 42.5873 152.006 42.8568 151.24 43.3098C150.732 43.6112 150.209 44.0163 149.627 43.9433C149.284 43.9033 148.946 43.7078 148.612 43.802C148.424 43.8807 148.248 43.9887 148.092 44.1223C148.012 44.1879 147.918 44.231 147.817 44.2475C147.717 44.264 147.614 44.2533 147.519 44.2165L147.292 47.4757C147.206 48.7144 147.122 49.979 147.408 51.1871C147.556 51.8041 147.88 52.3645 147.917 52.9909C147.953 53.6174 147.899 54.2603 147.942 54.8937C147.983 55.4801 148.108 56.0571 148.139 56.6434C148.203 57.7503 147.94 58.8477 147.685 59.9239C147.301 61.5111 147.069 63.1336 146.322 64.5701C146.113 64.9681 145.868 65.3732 145.868 65.8253C145.868 65.8818 145.868 65.936 145.881 65.9902C145.654 66.1197 145.443 66.2421 145.25 66.3693C144.818 66.659 144.357 66.9816 144.18 67.4832C144.037 67.8906 144.103 68.3569 143.93 68.7501C143.757 69.1434 143.362 69.4237 143.276 69.8475C143.214 70.156 143.332 70.481 143.276 70.7895C143.224 70.9491 143.182 71.1119 143.151 71.277C143.128 71.6302 143.416 71.9152 143.703 72.1083C144.12 72.3935 144.581 72.6037 145.066 72.73L146.422 67.1488C147.659 64.7788 148.687 62.2986 149.496 59.7378C149.727 58.9008 150.024 58.0848 150.384 57.2981C150.641 56.8531 150.869 56.3904 151.066 55.9134C151.272 55.32 151.293 54.6771 151.393 54.0507C151.511 53.3195 151.69 52.6003 151.927 51.9006C152.172 51.1447 152.456 50.3911 152.506 49.5975C152.581 48.4624 152.183 47.2637 152.606 46.2134C152.785 45.8203 153.019 45.4562 153.299 45.1325C153.885 44.3884 154.419 43.6089 155.005 42.8647C154.7 42.528 154.194 42.4927 153.739 42.5209Z" fill="#3F3D56"/>
<g opacity="0.1">
<path opacity="0.1" d="M160.141 29.4961L159.857 29.5175L159.826 29.5414C159.932 29.5368 160.038 29.5217 160.141 29.4961Z" fill="black"/>
<path opacity="0.1" d="M165.339 34.3847C165.292 34.8529 165.194 35.3142 165.049 35.76C164.955 36.0306 164.879 36.3076 164.821 36.5889C164.776 36.8621 164.771 37.14 164.731 37.4132C164.68 37.7674 164.562 38.1076 164.383 38.4137C164.204 38.7199 163.967 38.9858 163.688 39.1959C163.608 39.2632 163.509 39.3005 163.406 39.3018C163.229 39.2806 163.12 39.0663 163.054 38.8732C162.693 37.7923 162.779 36.4712 162.113 35.6093C161.811 35.2616 161.445 34.9791 161.037 34.778C160.87 34.6667 160.683 34.5937 160.487 34.5637C160.199 34.5798 159.922 34.6847 159.692 34.8651C159.212 35.1985 158.68 35.4424 158.12 35.5857C157.84 35.6544 157.549 35.6575 157.268 35.5948C156.987 35.532 156.723 35.405 156.495 35.2231C156.182 34.9546 155.952 34.5519 155.605 34.3423C155.257 34.1328 154.894 34.1445 154.551 34.0009C154.336 33.906 154.146 33.7623 153.992 33.5805C153.839 33.3987 153.727 33.1834 153.665 32.9506C153.657 32.9212 153.651 32.8913 153.647 32.8611C153.59 33.124 153.596 33.3973 153.665 33.6571C153.727 33.8898 153.839 34.1051 153.992 34.287C154.146 34.4688 154.336 34.6125 154.551 34.7074C154.894 34.851 155.28 34.8534 155.605 35.0488C155.93 35.2443 156.182 35.6611 156.495 35.9296C156.723 36.1115 156.987 36.2385 157.268 36.3013C157.549 36.364 157.84 36.3609 158.12 36.2922C158.68 36.1489 159.212 35.905 159.692 35.5716C159.922 35.3912 160.199 35.2862 160.487 35.2702C160.683 35.3001 160.87 35.3732 161.037 35.4845C161.44 35.6895 161.8 35.9743 162.098 36.3228C162.763 37.1847 162.677 38.5059 163.038 39.5868C163.104 39.7822 163.213 39.9942 163.39 40.0154C163.499 40.0159 163.605 39.9758 163.688 39.9023C163.969 39.6917 164.206 39.4248 164.385 39.1173C164.565 38.8099 164.683 38.4682 164.733 38.1126C164.774 37.8394 164.778 37.5615 164.824 37.2884C164.881 37.007 164.957 36.73 165.051 36.4594C165.272 35.8252 165.375 35.153 165.353 34.4789C165.348 34.4507 165.344 34.4177 165.339 34.3847Z" fill="black"/>
</g>
<path d="M150.966 53.2808L150.811 55.4308C150.789 55.7228 150.25 62.6745 146.279 70.7989C142.871 77.767 136.24 86.8428 123.72 91.9435C122.744 92.3438 121.73 92.7175 120.679 93.0645L119.506 89.2495C122.449 88.2895 125.284 87.0042 127.962 85.4157C134.343 81.5961 139.305 76.1445 142.765 69.1292C144.6 65.3942 145.909 61.405 146.649 57.2841H132.405V53.2808H150.966Z" fill="#FFD801"/>
<path opacity="0.1" d="M122.187 91.946C134.704 86.8453 141.338 77.7718 144.743 70.8036C148.714 62.6792 149.255 55.7322 149.276 55.4354L149.43 53.2854H151.02L150.866 55.4354C150.845 55.7274 150.305 62.6792 146.334 70.8036C142.926 77.7718 136.295 86.8453 123.777 91.946C122.8 92.3464 121.786 92.7208 120.733 93.0693L120.579 92.5677C121.127 92.3652 121.663 92.158 122.187 91.946Z" fill="white"/>
<path d="M97.1249 89.2495L95.9527 93.0645C94.9001 92.7159 93.8853 92.3415 92.9085 91.9412C80.3911 86.8404 73.7575 77.767 70.3522 70.7989C66.3811 62.6745 65.8405 55.7275 65.82 55.4308L65.6655 53.2808H84.2167V57.2841H69.9705C70.7152 61.4055 72.0273 65.3947 73.8666 69.1292C77.3265 76.1445 82.2857 81.5961 88.6671 85.4134C91.3452 87.0035 94.1808 88.2896 97.1249 89.2495Z" fill="#FFD801"/>
<path opacity="0.1" d="M94.4397 91.946C81.9223 86.8453 75.2887 77.7718 71.8833 70.8036C67.9123 62.6792 67.3716 55.7322 67.3512 55.4354L67.1967 53.2854H65.6064L65.7609 55.4354C65.7814 55.7274 66.3221 62.6792 70.2931 70.8036C73.7007 77.7718 80.332 86.8453 92.8494 91.946C93.8263 92.3464 94.841 92.7208 95.8936 93.0693L96.0481 92.5677C95.5014 92.3652 94.9652 92.158 94.4397 91.946Z" fill="white"/>
<path d="M129.745 126.128V147.715H86.8838V126.128L88.2468 124.244C102.136 119.133 104.951 105.807 105.512 100.534C105.596 99.8058 105.644 99.0732 105.655 98.3396H110.955C110.967 99.0732 111.015 99.8058 111.099 100.534C111.669 105.807 114.483 119.138 128.364 124.244L129.745 126.128Z" fill="#FFD801"/>
<path opacity="0.1" d="M129.745 126.128H86.8838V128.836H129.745V126.128Z" fill="black"/>
<path opacity="0.1" d="M90.5186 124.244C104.408 119.133 107.223 105.807 107.784 100.534C107.868 99.8058 107.915 99.0732 107.927 98.3396H105.655C105.644 99.0732 105.596 99.8058 105.512 100.534C104.942 105.807 102.127 119.138 88.2468 124.244L86.8838 126.128V147.715H89.1556V126.128L90.5186 124.244Z" fill="white"/>
<path opacity="0.1" d="M80.373 53.2808H84.2169V57.2839H80.7138C80.576 55.9652 80.4624 54.6309 80.373 53.2808Z" fill="black"/>
<path opacity="0.1" d="M97.1252 89.2495L95.953 93.0645C94.9004 92.7159 93.8857 92.3415 92.9089 91.9412C91.3019 89.907 89.882 87.7215 88.6675 85.4133C91.3455 87.0034 94.1812 88.2896 97.1252 89.2495Z" fill="black"/>
<path opacity="0.1" d="M119.504 89.2497C122.447 88.2896 125.282 87.0043 127.96 85.4158C126.745 87.7243 125.325 89.9106 123.718 91.9462C122.742 92.3465 121.728 92.7202 120.677 93.0671L119.504 89.2497Z" fill="black"/>
<path opacity="0.1" d="M136.254 53.2808C136.164 54.6309 136.051 55.9652 135.913 57.2839H132.412V53.2808H136.254Z" fill="black"/>
<path opacity="0.1" d="M111.108 100.534C109.263 100.905 107.366 100.905 105.521 100.534C105.605 99.8058 105.653 99.0732 105.665 98.3396H110.965C110.977 99.0732 111.024 99.8058 111.108 100.534Z" fill="black"/>
<path d="M80.8276 46.6492C80.9253 76.3353 93.1928 100.341 108.316 100.341C123.439 100.341 135.704 76.3353 135.804 46.6492H80.8276Z" fill="#FFD801"/>
<path opacity="0.1" d="M85.7119 46.6492H80.8276C80.9253 76.3353 93.1928 100.341 108.316 100.341C109.134 100.34 109.951 100.268 110.758 100.127C96.7777 97.7061 85.8051 74.7198 85.7119 46.6492Z" fill="white"/>
<path d="M122.154 134.34H93V142.112H122.154V134.34Z" fill="#3F3D56"/>
<path d="M65.2795 75.3108C64.7547 75.1295 61.6651 72.5956 61.4311 71.4488C61.1971 70.3019 63.0645 59.6177 63.0645 59.6177C63.0645 59.6177 62.8918 59.6177 62.6101 59.5824V59.4105L62.9941 45.3752C62.9941 45.3752 64.5684 35.9556 61.5947 36.5043C58.6209 37.053 60.486 45.3752 60.486 45.3752C60.486 45.3752 60.1475 49.5999 59.909 50.8669C59.6818 52.0891 58.6414 57.0674 59.3502 58.6145C59.3761 58.6695 59.4049 58.723 59.4365 58.7747C59.4365 58.7747 59.5546 64.085 58.2711 64.8103C57.0466 65.5003 56.5377 68.9738 56.4945 69.2846L56.4287 69.2564C56.0631 69.0192 55.7421 68.7152 55.4813 68.3591C55.4541 68.3238 55.4336 68.2861 55.4086 68.2485C56.2445 67.2737 56.6949 66.0081 56.6701 64.7042C56.6452 63.4003 56.1469 62.1541 55.2746 61.2143C54.869 60.7776 54.3932 60.4175 53.8684 60.1499C53.8531 59.7 53.7504 59.2578 53.5662 58.85C52.9756 57.5407 49.7042 55.8287 47.3802 55.7886C46.308 55.7557 45.4288 56.0712 45.1085 56.9402C44.9449 57.3806 44.9949 57.8822 44.9267 58.339C44.7904 59.281 44.2066 60.0181 43.4569 60.6044C43.1542 60.2541 42.8269 59.9275 42.4778 59.6271C41.719 59.0243 40.206 57.0367 40.206 57.0367C40.206 57.0367 35.483 51.9666 35.1331 50.5772C34.7833 49.1878 30.0648 40.8444 29.0153 42.2974C27.9657 43.7503 32.6297 50.0827 32.6297 50.0827C32.6297 50.0827 33.5157 52.3834 34.1972 53.1606C34.8787 53.9377 40.1038 61.8031 40.1038 61.8031L40.3537 62.34C39.2496 62.9429 38.2409 63.7106 37.8843 64.9068C37.3618 66.6683 38.5044 68.4392 39.295 70.0877C40.8353 73.3045 41.0556 77.4067 39.0678 80.3456C37.2868 82.9408 34.1972 84.1747 31.3052 85.2533C32.7019 86.3902 34.437 86.9872 36.2122 86.9417C35.5443 88.9481 33.1772 89.6122 31.1598 89.9843C32.2185 91.0393 33.7337 91.4231 35.1877 91.6563C35.8998 91.7819 36.6213 91.841 37.3436 91.8329H37.5208L37.698 91.8188C37.9442 91.8018 38.1892 91.7696 38.4318 91.7222C39.4813 91.5009 40.5013 90.9074 41.0375 89.9466C41.4918 89.1248 41.6508 88.0038 42.4755 87.5917C42.6902 87.4912 42.9216 87.4344 43.157 87.4245H43.132C43.2865 87.4245 43.4455 87.4245 43.6 87.4245L47.0372 87.4598C47.1803 87.4598 47.328 87.4598 47.4756 87.4598C48.4457 87.4363 49.4816 87.262 49.9746 86.4307C50.1774 86.027 50.2841 85.5789 50.2858 85.1238C50.3585 83.9958 50.2858 82.8348 50.3154 81.6974C50.6084 83.7673 50.9151 86.9936 50.1859 88.1852C49.5934 89.0881 48.8753 89.8951 48.0549 90.5801C47.8486 90.7597 47.6599 90.9601 47.4915 91.1782C47.3802 91.2607 47.3143 91.3054 47.3143 91.3054L47.2439 91.5244C46.985 91.9315 46.7974 92.3827 46.6896 92.8573C46.65 92.9792 46.6353 93.1083 46.6464 93.2364C46.726 93.4036 46.0785 94.0936 46.2671 94.3833C44.6496 96.3496 44.3429 99.3286 44.3429 99.3286L41.3896 103.977C39.8721 108.11 37.6003 108.534 37.6003 108.534C37.6003 108.534 32.2639 104.823 32.1185 104.641C31.9731 104.46 29.9331 103.553 29.9331 103.553C29.6926 103.116 29.3253 102.768 28.8835 102.56C28.1838 102.258 28.1248 101.147 28.1248 101.147C28.0384 98.5209 26.5504 98.3207 26.5504 98.3207C25.3509 98.2147 24.4354 98.4361 23.7312 98.8411L23.5176 98.8576C22.4862 98.9447 21.2459 99.0413 19.8828 99.1355C16.0912 99.3945 15.1893 101.94 15.1893 101.94C15.1893 101.94 14.7236 102.484 15.3347 103.073C15.9458 103.662 19.8578 103.073 20.0236 103.059C19.7255 103.092 19.424 103.071 19.1331 102.995C19.7488 102.972 20.5961 102.948 21.3186 102.948H21.4935C21.448 103.345 21.426 103.745 21.4276 104.144C21.4276 104.898 23.4381 105.381 23.4381 105.381L29.5605 111.032C29.5605 111.032 33.4089 112.815 35.8578 115.38C38.3068 117.944 40.4718 115.731 40.4718 115.731C43.0639 115.066 50.5221 105.72 50.5289 105.71C50.5289 105.984 50.6856 115.074 50.9832 116.899C50.9951 116.991 51.0172 117.082 51.0491 117.169C51.399 117.954 50.931 120.097 50.7288 121.001C50.5999 121.758 50.5503 122.527 50.5811 123.295C50.5811 123.295 47.7846 134.363 48.0163 135.335C48.248 136.308 46.5011 140.827 46.5011 140.827V144.595L46.8055 144.578C46.7659 144.639 46.7295 144.702 46.6964 144.767L46.676 144.807C46.676 144.807 48.5411 145.228 49.7951 145.108C51.0491 144.988 53.2028 146.109 53.2028 146.109C53.2028 146.109 53.932 146.467 56.1765 146.618C58.421 146.768 58.421 145.591 58.421 145.591C58.1643 143.987 54.6181 143.45 54.509 143.434C54.2228 143.248 53.9547 143.045 53.7344 142.871L53.6889 142.833C53.7038 142.798 53.7167 142.762 53.7275 142.725C54.1069 141.124 52.0078 140.429 52.0078 140.429V140.038C53.3709 139.313 53.6412 134.334 53.6412 134.334C53.6412 134.334 55.6858 128.179 55.972 127.152C56.2583 126.125 55.972 124.587 55.972 124.587L56.1765 123.259C56.1765 123.259 56.6149 122.355 56.6149 122.174C56.6717 121.714 56.8423 121.278 57.1102 120.907C57.4305 120.513 56.7603 119.578 56.7603 119.578L57.3442 118.01V116.289L58.7072 110.043C58.7072 110.043 60.1362 102.769 59.6409 100.388C59.1457 98.0075 60.2248 96.797 60.2248 96.797C60.1275 96.8501 60.0274 96.8972 59.9249 96.9384C60.0613 96.6115 60.1789 96.2765 60.277 95.9352L63.3439 96.3284V96.3755H64.4503C64.4503 96.3755 64.1004 91.9012 64.1004 90.0973C64.1004 88.2935 65.2795 81.8198 65.2795 81.8198C65.2795 81.8198 65.8042 75.4922 65.2795 75.3108ZM51.6648 70.0877C51.6648 70.2643 51.6489 70.448 51.6375 70.6363L51.5762 70.7329L51.4626 70.634L51.324 70.8577L51.2831 70.8789C50.9832 70.7188 50.8288 69.8027 50.613 70.0005L50.5834 70.0264C50.5357 69.9699 50.488 69.9534 50.438 70.0005L50.3926 70.0406C50.3926 69.9723 50.3926 69.9016 50.3926 69.831C50.8082 69.9418 51.2356 69.998 51.6648 69.9982C51.6671 70.0288 51.6648 70.0594 51.6648 70.0877ZM61.865 90.9239H61.9309L61.8218 91.2206C61.8355 91.1217 61.8491 91.0252 61.865 90.9239ZM50.6675 144.326L50.2495 144.218L50.4766 144.178L50.6879 144.322L50.7129 144.34L50.6675 144.326ZM54.9384 143.693C54.7998 143.617 54.659 143.53 54.5227 143.441C54.5681 143.467 54.7476 143.563 54.9384 143.693Z" fill="url(#paint1_linear_367_1234)"/>
<path d="M63.3734 86.4756L60.6223 93.9076H61.2902L58.7026 96.0458L63.3734 96.6487V86.4756Z" fill="#F86D70"/>
<path opacity="0.1" d="M63.3734 86.4756L60.6223 93.9076L59.9294 93.7145L58.7026 96.0458L63.3734 96.6487V86.4756Z" fill="black"/>
<path d="M59.0596 91.23H63.3736L64.957 77.7249H59.0596V91.23Z" fill="#F86D70"/>
<path opacity="0.1" d="M59.0596 91.23H63.3736L64.957 77.7249H59.0596V91.23Z" fill="black"/>
<path d="M50.6335 80.9226L51.565 80.7601L53.705 80.3833C53.705 80.3833 60.1318 78.8809 61.4585 78.7584C62.2623 78.6484 63.046 78.4167 63.7848 78.0708C64.1324 77.9154 64.3528 77.7976 64.3528 77.7976L62.0378 73.4151L58.4462 70.6551C58.4462 70.6551 56.1744 70.1535 55.2134 68.7829C54.999 68.488 54.8593 68.142 54.8074 67.7767C54.7554 67.4113 54.7927 67.0383 54.9158 66.6917C55.502 64.8078 51.415 68.4933 51.415 68.4933C51.415 68.4933 51.4537 69.3764 51.415 70.502C51.415 70.7234 51.3946 70.9542 51.3787 71.1897C51.3787 71.3451 51.3582 71.5005 51.3423 71.6606C51.2424 72.7792 51.0379 73.9308 50.6335 74.6184C49.6453 76.2999 50.6335 80.9226 50.6335 80.9226Z" fill="#FBBEBE"/>
<path opacity="0.1" d="M51.415 70.5962H51.5059C51.6695 70.5962 51.8012 70.2359 51.9603 70.2194C53.2393 70.0922 54.407 69.8144 55.218 68.8748C55.0041 68.58 54.8648 68.2345 54.8129 67.8696C54.7609 67.5048 54.7978 67.1322 54.9204 66.786C55.5065 64.9021 51.4196 68.5851 51.4196 68.5851C51.4196 68.5851 51.4627 69.4706 51.415 70.5962Z" fill="black"/>
<path d="M46.4395 65.2553C46.4392 65.9333 46.5677 66.6046 46.8179 67.2311C47.068 67.8575 47.4348 68.4266 47.8973 68.906C48.3598 69.3854 48.9088 69.7656 49.5131 70.0249C50.1174 70.2842 50.7651 70.4175 51.4191 70.4172C51.5827 70.4172 51.744 70.4172 51.9053 70.3937C52.8648 70.2961 53.7763 69.9119 54.5293 69.2877C55.2822 68.6635 55.8442 67.8262 56.1469 66.8773C56.4497 65.9285 56.4802 64.9089 56.2348 63.9424C55.9894 62.976 55.4786 62.1041 54.7644 61.4327C54.0502 60.7613 53.1634 60.3193 52.2116 60.1603C51.2597 60.0012 50.2838 60.132 49.4023 60.5368C48.5208 60.9415 47.7716 61.6029 47.2457 62.4405C46.7197 63.2781 46.4397 64.2559 46.4395 65.2553Z" fill="#FBBEBE"/>
<path d="M44.9108 57.4205C44.7473 57.8585 44.7973 58.3484 44.7314 58.8123C44.4883 60.4866 42.8458 61.4898 41.3601 62.1916C39.8743 62.8934 38.1978 63.7247 37.7253 65.3425C37.2073 67.0922 38.3386 68.8466 39.1247 70.488C40.6558 73.686 40.8739 77.7648 38.8975 80.6896C37.1414 83.28 34.0813 84.5093 31.2007 85.5878C32.5871 86.7184 34.3102 87.313 36.0737 87.2692C35.4126 89.2639 33.0613 89.9256 31.0576 90.293C32.1094 91.3433 33.6156 91.7248 35.0582 91.9555C36.11 92.1251 37.1891 92.2358 38.2387 92.0168C39.2882 91.7978 40.2833 91.2067 40.8239 90.2506C41.2783 89.4334 41.4328 88.3195 42.2529 87.9074C42.6231 87.7564 43.0219 87.6959 43.4183 87.7308L46.8259 87.7685C47.8869 87.7685 49.1432 87.6837 49.6906 86.7441C49.8926 86.3427 49.9985 85.8969 49.9996 85.4442C50.1473 83.1269 49.7179 80.6778 50.638 78.5631C50.9151 77.9249 49.1363 76.9146 49.3226 76.2388C49.9633 73.9144 50.1245 72.0847 50.1177 69.6662C50.1177 67.794 51.2922 66.1809 52.2623 64.6007C53.2323 63.0205 54.0433 61.0259 53.2778 59.3304C52.4145 57.4394 45.9309 54.6912 44.9108 57.4205Z" fill="#3F3D56"/>
<path d="M49.4475 143.648L50.3153 144.244L50.4494 144.336L50.4743 144.352L51.5034 145.059L53.907 145.478L56.0197 145.327C56.0197 145.327 56.6285 144.008 55.6721 144.039C55.3658 144.023 55.0672 143.933 54.7998 143.777L54.668 143.709C54.5294 143.634 54.3909 143.549 54.2546 143.46C53.9706 143.274 53.7025 143.071 53.4867 142.899C53.1687 142.645 52.9574 142.452 52.9574 142.452L49.4475 143.648Z" fill="#FBBEBE"/>
<path opacity="0.1" d="M50.3267 144.244L50.4607 144.336L50.4857 144.352L51.5148 145.059L53.9183 145.478L56.0311 145.327C56.0311 145.327 56.6399 144.008 55.6835 144.039C55.3771 144.023 55.0786 143.933 54.8111 143.778C54.9792 143.914 55.1201 144.063 55.1337 144.187C55.1723 144.524 53.5707 145.129 53.5707 145.129L51.3126 144.51C51.3126 144.51 50.9287 144.397 50.4039 144.256L50.3539 144.241L50.3267 144.244Z" fill="black"/>
<path d="M46.4648 144.819C46.4648 144.819 48.3163 145.238 49.5613 145.118C50.8062 144.998 52.9508 146.109 52.9508 146.109C52.9508 146.109 53.6755 146.462 55.9041 146.613C58.1327 146.764 58.1327 145.591 58.1327 145.591C57.8783 143.997 54.357 143.472 54.248 143.448C54.2911 143.472 54.4751 143.568 54.6614 143.698C54.9113 143.867 55.1817 144.089 55.2021 144.268C55.2407 144.602 53.6391 145.21 53.6391 145.21L51.381 144.593C51.381 144.593 50.997 144.477 50.4723 144.336H50.4223C49.6442 144.116 48.8536 143.947 48.0551 143.83C47.0828 143.721 46.5852 144.578 46.483 144.771C46.4756 144.787 46.4695 144.802 46.4648 144.819Z" fill="#3F3D56"/>
<path d="M17.2815 102.47L18.2652 103.252C18.2652 103.252 18.5514 103.238 18.9785 103.224H19.1148C19.726 103.2 20.5688 103.177 21.2844 103.177C21.747 103.155 22.2105 103.182 22.6679 103.257C23.1586 103.436 24.031 100.346 24.031 100.346L23.045 100.11L22.7179 100.03L22.4907 99.9738L21.6888 99.7783L19.258 100.066L17.5496 101.205L17.2815 102.47Z" fill="#FBBEBE"/>
<path opacity="0.1" d="M17.2815 102.47L18.2652 103.252C18.2652 103.252 18.5514 103.238 18.9785 103.224C18.7825 103.145 18.6209 102.995 18.5242 102.802C17.8881 100.972 21.0436 100.19 21.0436 100.19L22.5134 100.124L22.7997 100.11H23.0269L22.6997 100.03L22.4725 99.9738L21.6706 99.7783L19.2398 100.066L17.5314 101.205L17.2815 102.47Z" fill="black"/>
<path d="M15.3412 103.297C15.9364 103.866 19.8347 103.297 19.9983 103.282C19.7024 103.317 19.403 103.295 19.1146 103.219C18.9718 103.192 18.8365 103.133 18.7186 103.046C18.6007 102.958 18.5031 102.844 18.4331 102.713C17.797 100.88 20.9524 100.101 20.9524 100.101L22.4223 100.035L22.7062 100.021L26.2797 99.8607L26.4524 98.8411C26.4524 98.8411 25.2915 98.9541 23.4696 99.1048C22.445 99.1919 21.1978 99.2885 19.8506 99.3803C16.0863 99.6394 15.1912 102.171 15.1912 102.171C15.1912 102.171 14.7346 102.713 15.3412 103.297Z" fill="#3F3D56"/>
<path d="M59.0616 59.0949C59.0858 59.1508 59.1147 59.2044 59.1479 59.2551L60.0157 60.5738L62.2738 60.8093L62.2988 59.8815L62.6782 45.9215C62.6782 45.9215 64.2411 36.5584 61.2879 37.0976C58.3347 37.6369 60.1884 45.9215 60.1884 45.9215C60.1884 45.9215 59.8522 50.1227 59.6159 51.3849C59.3865 52.6048 58.3574 57.5642 59.0616 59.0949Z" fill="#FBBEBE"/>
<path d="M53.9932 93.7686L54.6361 94.9084L56.0741 97.4588C56.0741 97.4588 58.6821 98.4503 59.35 97.6943C59.7158 97.2822 60.111 95.8433 60.3882 94.6329C60.6154 93.6532 60.7676 92.8267 60.7676 92.8267L53.9932 93.7686Z" fill="#FBBEBE"/>
<path opacity="0.1" d="M53.9932 93.7687L54.6361 94.9084C54.6764 94.8725 54.7129 94.8322 54.7451 94.7884C55.4721 93.8276 58.673 94.5835 60.3882 94.6447C60.6154 93.6651 60.7676 92.8386 60.7676 92.8386L53.9932 93.7687Z" fill="black"/>
<path opacity="0.1" d="M21.2847 103.172C21.7473 103.15 22.2108 103.177 22.6682 103.252C23.1589 103.431 24.0312 100.341 24.0312 100.341L22.7181 100.021L26.2916 99.8608L26.4642 98.8411C26.4642 98.8411 25.3034 98.9541 23.4814 99.1048C23.105 99.3296 22.7691 99.6204 22.4887 99.9644L22.4342 100.035C21.6731 101.003 21.3914 102.251 21.2847 103.172Z" fill="black"/>
<path opacity="0.1" d="M49.4475 143.648L50.4494 144.336C51.9442 144.055 53.3096 143.615 53.4709 142.923C53.4716 142.912 53.4716 142.901 53.4709 142.89C53.1528 142.635 52.9416 142.442 52.9416 142.442L49.4475 143.648Z" fill="black"/>
<path opacity="0.1" d="M46.4854 144.779C47.8054 144.711 49.1207 144.564 50.4247 144.341C49.6459 144.119 48.8545 143.948 48.0552 143.829C47.0851 143.721 46.5876 144.578 46.4854 144.779Z" fill="black"/>
<path d="M21.3936 104.361C21.3936 105.112 23.3904 105.593 23.3904 105.593L29.472 111.204C29.472 111.204 33.2931 112.975 35.7239 115.526C38.1546 118.076 40.2992 115.886 40.2992 115.886C42.8754 115.227 50.295 105.922 50.295 105.922C50.295 105.922 50.4676 116.548 50.8152 117.327C51.1628 118.107 50.6993 120.238 50.4971 121.14C50.3696 121.892 50.3208 122.656 50.3517 123.419C50.3517 123.419 47.5734 134.433 47.8051 135.394C48.0368 136.355 46.2989 140.858 46.2989 140.858V144.609C46.2989 144.609 53.1029 144.338 53.4777 142.749C53.8525 141.159 51.7716 140.467 51.7716 140.467V140.076C53.1347 139.355 53.3914 134.405 53.3914 134.405C53.3914 134.405 55.4201 128.282 55.7086 127.263C55.9971 126.243 55.7086 124.71 55.7086 124.71L55.9108 123.391C55.9108 123.391 56.3447 122.489 56.3447 122.31C56.4014 121.853 56.5712 121.419 56.8376 121.05C57.1557 120.659 56.4901 119.729 56.4901 119.729L57.0694 118.168V116.458L58.4324 110.246C58.4324 110.246 59.8523 103.012 59.3593 100.64C58.8663 98.2689 59.9386 97.0703 59.9386 97.0703C57.6146 98.3325 56.4424 95.5231 56.0584 94.315C55.9607 94.0042 55.913 93.797 55.913 93.797C55.913 93.797 52.7212 92.5771 49.7497 92.8691C49.1462 92.9198 48.5515 93.0504 47.98 93.2577C44.6792 94.4893 44.1589 99.5901 44.1589 99.5901L41.2352 104.213C39.729 108.324 37.4708 108.744 37.4708 108.744C37.4708 108.744 32.1731 105.053 32.0186 104.872C31.8641 104.691 29.8468 103.791 29.8468 103.791C29.6083 103.356 29.2434 103.01 28.8041 102.802C28.1089 102.501 28.0521 101.389 28.0521 101.389C27.9658 98.7776 26.4891 98.5633 26.4891 98.5633C21.364 98.1206 21.3936 103.612 21.3936 104.361Z" fill="#3F3D56"/>
<path d="M50.8673 89.6875H53.9932V79.6345H50.8673V89.6875Z" fill="#F86D70"/>
<path opacity="0.1" d="M50.8673 89.6875H53.9932V79.6345H50.8673V89.6875Z" fill="black"/>
<path opacity="0.1" d="M59.0595 59.0737C59.059 59.0808 59.059 59.0879 59.0595 59.0949C59.0836 59.1508 59.1125 59.2044 59.1458 59.2551L60.0136 60.5738L62.2718 60.8093L62.2968 59.8815C61.5925 59.825 59.9886 59.6248 59.0595 59.0737Z" fill="black"/>
<path d="M59.148 59.2551C59.148 59.2551 59.2639 64.5349 57.9894 65.2555C56.715 65.9761 56.2197 69.7298 56.2197 69.7298C56.2197 69.7298 60.0817 72.3626 60.9427 73.5212C61.8037 74.6798 63.7801 77.4398 63.3735 78.0992C62.9669 78.7585 64.3594 81.7611 64.3594 81.7611C64.3594 81.7611 61.8105 87.1632 62.3898 89.2049C62.9691 91.2467 63.0259 96.6465 63.0259 96.6465H64.1277C64.1277 96.6465 63.7802 92.2051 63.7802 90.4036C63.7802 88.6021 64.9365 82.1802 64.9365 82.1802C64.9365 82.1802 65.459 75.8785 64.9365 75.6995C64.414 75.5205 61.3471 72.9984 61.1154 71.8563C60.8837 70.7141 62.7374 60.0817 62.7374 60.0817C62.7374 60.0817 60.3634 59.9757 59.148 59.2551Z" fill="#F86D70"/>
<path opacity="0.1" d="M50.8081 78.7018C50.9138 79.4365 51.1719 80.1387 51.5646 80.76L53.7046 80.3832C53.7046 80.3832 60.1314 78.8808 61.4581 78.7584C62.2618 78.6484 63.0456 78.4167 63.7844 78.0707C63.2752 76.2003 62.2813 74.5103 60.9106 73.1843L60.0951 72.4001C58.8933 71.2435 57.5004 70.3206 55.9832 69.6755C56.0786 69.758 62.8212 75.7253 61.3446 76.8956C59.8679 78.066 55.8923 75.2166 55.8923 75.2166L51.3715 71.1897L51.2079 71.0437L50.9467 71.4653C51.0796 71.5219 51.2093 71.5864 51.3352 71.6584C52.8759 72.535 54.0193 74.0081 54.5156 75.7559C55.4448 78.9938 50.8081 78.7018 50.8081 78.7018Z" fill="black"/>
<path d="M49.418 93.7075C49.418 93.7075 53.7025 96.1682 54.743 94.7883C54.9702 94.4846 55.4495 94.3527 56.047 94.3174C55.9493 94.0066 55.9016 93.7993 55.9016 93.7993C55.9016 93.7993 52.7098 92.5796 49.7383 92.8716C49.5429 93.3802 49.418 93.7075 49.418 93.7075Z" fill="#444053"/>
<path d="M51.3899 71.0485L56.0743 75.2261C56.0743 75.2261 60.034 78.0849 61.5265 76.9051C63.0191 75.7253 56.1629 69.6826 56.1629 69.6826C57.6769 70.3296 59.0683 71.2497 60.2725 72.4002L61.0881 73.1844C63.2326 75.2449 63.7165 75.2449 63.7892 78.2733C63.8074 79.0198 63.562 80.0913 63.3735 80.2844C62.6783 80.9909 62.1922 86.1223 62.2989 86.7228C62.4057 87.3233 61.004 92.5064 61.4584 93.9476C61.9127 95.3888 55.7789 93.227 54.7407 94.6094C53.7025 95.9917 49.418 93.5285 49.418 93.5285C49.418 93.5285 51.792 87.2244 52.3713 86.8052C52.9506 86.386 53.6457 83.1433 52.3713 81.6432C51.0968 80.1431 50.9832 78.7019 50.9832 78.7019C50.9832 78.7019 55.6176 78.9987 54.6885 75.7606C54.4271 74.8221 53.9736 73.953 53.3589 73.2126C52.7442 72.4722 51.9827 71.8778 51.1263 71.47L51.3899 71.0485Z" fill="#E8E8F0"/>
<path opacity="0.1" d="M57.6418 81.6738C57.6418 81.6738 55.8448 85.185 53.5208 86.0964C53.4458 86.1246 53.3731 86.1505 53.2936 86.1741C50.8673 86.9394 57.8235 82.7618 57.6418 81.6738Z" fill="black"/>
<path d="M32.5118 50.6101C32.5118 50.6101 33.3796 52.8921 34.0748 53.6715C34.7699 54.451 39.9223 62.2552 39.9223 62.2552L40.3585 63.1972L40.7333 64.0002L44.0342 63.6399L44.2614 62.26L44.1341 62.0998C43.8025 61.6877 42.8983 60.5809 42.2917 60.0981C41.5398 59.5 40.0336 57.5195 40.0336 57.5195C40.0336 57.5195 35.3447 52.4752 34.9971 51.0952C34.6495 49.7153 29.9583 41.44 28.9178 42.8718C27.8774 44.3036 32.5118 50.6101 32.5118 50.6101Z" fill="#FBBEBE"/>
<g opacity="0.1">
<path opacity="0.1" d="M42.0897 87.7307C41.6934 87.6952 41.2946 87.7548 40.9242 87.905C40.1064 88.3171 39.9519 89.4309 39.4976 90.2481C38.966 91.2042 37.9527 91.7952 36.91 92.0142C36.7027 92.0559 36.4934 92.0858 36.283 92.1037C36.9471 92.1707 37.617 92.1406 38.2731 92.0142C39.3158 91.7952 40.329 91.2042 40.8606 90.2481C41.315 89.4309 41.4695 88.3171 42.2873 87.905C42.5021 87.8048 42.7335 87.7488 42.9689 87.7401L42.0897 87.7307Z" fill="black"/>
<path opacity="0.1" d="M50.1591 69.6661C50.1591 67.794 51.3336 66.1809 52.3014 64.6007C53.2691 63.0205 54.0824 61.0259 53.3168 59.3304C52.6626 57.8821 48.7188 55.9393 46.4425 56.3231C48.6711 56.6222 51.4176 58.1435 51.9538 59.3304C52.7194 61.0259 51.9061 63.0205 50.9383 64.6007C49.9705 66.1809 48.7915 67.794 48.796 69.6661C48.796 72.0823 48.6393 73.905 47.9986 76.2387C47.8146 76.9099 49.5889 77.9249 49.3163 78.5607C48.3939 80.6801 48.8256 83.1245 48.6779 85.4418C48.6748 85.8945 48.5682 86.34 48.3667 86.7417C47.9123 87.5165 46.9809 87.7166 46.0745 87.759H46.8673C47.9259 87.759 49.1822 87.6743 49.7297 86.7346C49.9312 86.333 50.0379 85.8875 50.041 85.4347C50.1886 83.1175 49.757 80.6707 50.6793 78.5536C50.9565 77.9178 49.1777 76.9052 49.3617 76.2317C50.0023 73.9144 50.1636 72.0823 50.1591 69.6661Z" fill="black"/>
</g>
<path opacity="0.1" d="M40.3584 63.1923L40.7332 63.9954L44.0342 63.6351L44.2614 62.2551L44.1341 62.095C43.782 62.2739 41.1444 63.5903 40.3584 63.1923Z" fill="black"/>
<path opacity="0.1" d="M52.5464 72.2188C52.5464 72.2188 51.7354 70.9001 51.2719 71.258C50.8085 71.616 50.629 70.1771 50.3632 70.4173C50.0974 70.6575 49.3227 71.3263 49.0001 70.3914C48.748 69.6473 46.0037 64.9397 44.8905 63.0464C44.6043 62.5566 44.4248 62.2551 44.4248 62.2551C44.4248 62.2551 41.2988 63.8753 40.5469 63.336V64.4758L41.183 64.537L44.5906 71.1309C44.5906 71.1309 45.6629 72.8994 45.5902 73.5164C45.5175 74.1334 46.9646 76.8345 47.1964 77.0135C47.4281 77.1925 49.9225 80.195 49.9225 80.195C49.9225 80.195 51.197 86.6781 50.0951 88.4797C48.9933 90.2812 47.085 91.5999 47.085 91.5999C47.085 91.5999 46.5103 93.3402 46.5943 93.5216C46.6784 93.7029 45.9264 94.4824 46.274 94.7226C46.6216 94.9628 47.085 96.6418 47.085 96.6418C47.085 96.6418 48.7071 93.9407 49.584 93.5216C50.4609 93.1024 51.5832 87.5777 51.5832 87.5777C51.5832 87.5777 51.9035 84.3232 51.9285 82.2226C51.9535 80.122 51.8512 72.2188 52.5464 72.2188Z" fill="black"/>
<path d="M52.3715 72.2188C52.3715 72.2188 51.5627 70.9 51.0993 71.258C50.6358 71.6159 50.4541 70.1771 50.1906 70.4173C49.9271 70.6575 49.1524 71.3263 48.8275 70.3914C48.5731 69.6472 45.8288 64.9397 44.7179 63.0464L44.2522 62.2551C44.2522 62.2551 41.1263 63.8753 40.3721 63.336V64.4758L41.0104 64.537L44.4181 71.1308C44.4181 71.1308 45.4926 72.8993 45.4176 73.5163C45.3427 74.1333 46.7807 76.8344 47.0238 77.0134C47.2668 77.1924 49.7499 80.1949 49.7499 80.1949C49.7499 80.1949 51.0243 86.678 49.9248 88.4795C49.3439 89.3844 48.6374 90.1953 47.828 90.8862C47.1481 91.4676 46.6695 92.2629 46.4649 93.1516C46.4255 93.2728 46.4115 93.4012 46.424 93.5284C46.5081 93.7074 45.7561 94.4892 46.1037 94.7294C46.4513 94.9696 46.9193 96.6558 46.9193 96.6558C46.9193 96.6558 48.5413 93.9547 49.4182 93.5355C50.2951 93.1163 51.4196 87.5917 51.4196 87.5917C51.4196 87.5917 51.7376 84.3372 51.7649 82.2366C51.7922 80.136 51.6899 72.2188 52.3715 72.2188Z" fill="#F86D70"/>
<path opacity="0.1" d="M44.4382 99.5312C44.4382 99.5312 46.8713 100.002 47.8458 100.73C48.8204 101.458 44.1406 99.5901 44.1406 99.5901L44.4382 99.5312Z" fill="black"/>
<path opacity="0.1" d="M50.2881 105.922C50.2881 105.922 52.8257 108.115 52.3713 110.095C51.917 112.076 50.7447 117.059 50.7447 117.059L50.2881 105.922Z" fill="black"/>
<path opacity="0.1" d="M28.0953 101.707C28.0953 101.707 24.5196 102.112 24.7513 102.593C24.983 103.073 28.0953 102.15 28.0953 102.15V101.707Z" fill="black"/>
<path opacity="0.1" d="M55.5519 119.939C55.5519 119.939 55.779 120.238 54.4524 119.939C53.1257 119.64 54.1048 118.717 54.1048 118.717L55.5519 119.939Z" fill="black"/>
<path opacity="0.1" d="M55.0975 124.081C55.0975 124.081 53.2802 124.38 52.3056 124.081C51.331 123.782 55.0975 124.081 55.0975 124.081Z" fill="black"/>
<path opacity="0.1" d="M51.358 140.287C51.358 140.287 51.04 139.927 49.4475 140.587C47.8551 141.246 47.219 141.277 46.7555 141.058C46.2921 140.839 51.358 140.287 51.358 140.287Z" fill="black"/>
<path opacity="0.1" d="M53.1256 101.196L50.8674 104.453C50.8674 104.453 52.0828 101.601 53.1256 101.196Z" fill="black"/>
<path opacity="0.1" d="M48.7365 71.2581C48.7365 71.2581 48.6388 72.3389 47.1826 72.7605C45.7264 73.182 45.4492 73.5234 45.4492 73.5234" fill="black"/>
<path opacity="0.1" d="M44.9518 63.4231C44.9518 63.4231 43.0299 64.8358 41.0239 64.5368L44.9518 63.4231Z" fill="black"/>
<path opacity="0.1" d="M46.4146 93.6769C46.4146 93.6769 46.9757 94.042 48.3228 92.4451L46.4146 93.6769Z" fill="black"/>
<path opacity="0.1" d="M60.4065 76.7473C60.461 76.4553 60.2656 76.1845 60.0816 75.956L59.7045 75.485C59.6308 75.3886 59.5478 75.3002 59.4569 75.2212C59.2297 75.0399 58.9389 74.9857 58.7026 74.8232" fill="black"/>
<path opacity="0.1" d="M163.608 7.89935C163.608 7.89935 144.482 6.70307 146.731 20.597C146.731 20.597 146.276 23.0531 148.43 24.167C148.43 24.167 148.464 23.1379 150.393 23.4888C151.079 23.6068 151.777 23.6415 152.471 23.5924C153.41 23.5252 154.301 23.1434 155.011 22.5044C155.011 22.5044 160.389 20.2013 162.479 11.0926C162.479 11.0926 164.026 9.10506 163.964 8.59405L160.736 10.0235C160.736 10.0235 161.84 12.4372 160.963 14.4436C160.963 14.4436 160.859 10.1106 160.239 10.2048C160.114 10.226 158.562 11.0408 158.562 11.0408C158.562 11.0408 160.459 15.2443 159.028 18.3009C159.028 18.3009 159.571 13.1202 157.969 11.3446L155.697 12.7198C155.697 12.7198 157.915 17.0623 156.411 20.6064C156.411 20.6064 156.797 15.1713 155.218 13.0542L153.16 14.7191C153.16 14.7191 155.243 19.0003 153.973 21.9393C153.973 21.9393 153.807 15.6116 152.715 15.1336C152.715 15.1336 150.913 16.782 150.638 17.4555C150.638 17.4555 152.065 20.564 151.179 22.203C151.179 22.203 150.636 17.9877 150.191 17.9642C150.191 17.9642 148.396 20.7571 148.21 22.674C148.21 22.674 148.287 19.8269 149.757 17.7004C149.757 17.7004 148.021 18.0089 147.008 19.1746C147.008 19.1746 147.287 17.2012 150.2 17.0293C150.2 17.0293 151.683 14.9099 152.078 14.7804C152.078 14.7804 149.184 14.5307 147.428 15.3361C147.428 15.3361 148.973 13.4734 152.61 14.3212L154.643 12.5997C154.643 12.5997 150.831 12.0605 149.214 12.6562C149.214 12.6562 151.074 11.0078 155.191 12.2088L157.403 10.8383C157.403 10.8383 154.153 10.113 152.217 10.3673C152.217 10.3673 154.262 9.22516 158.053 10.4638L159.643 9.72675C159.643 9.72675 157.263 9.24165 156.565 9.16393C155.868 9.08622 155.831 8.88841 155.831 8.88841C157.34 8.62769 158.888 8.80623 160.304 9.40413C160.304 9.40413 163.667 8.11836 163.608 7.89935Z" fill="#FFD801"/>
<path opacity="0.1" d="M140.018 11.4341C140.018 11.4341 131.385 10.8924 132.396 17.1709C132.396 17.1709 132.194 18.2824 133.162 18.7864C133.162 18.7864 133.178 18.3154 134.05 18.4779C134.36 18.5319 134.675 18.5477 134.988 18.525C135.412 18.4951 135.815 18.3222 136.136 18.0328C136.136 18.0328 138.566 16.9942 139.511 12.8777C139.511 12.8777 140.209 11.9781 140.182 11.7473L138.723 12.3926C138.723 12.3926 139.223 13.4853 138.83 14.392C138.83 14.392 138.782 12.4326 138.503 12.4797C138.446 12.4797 137.744 12.8565 137.744 12.8565C137.744 12.8565 138.603 14.757 137.955 16.1394C137.955 16.1394 138.201 13.7985 137.476 12.9955L136.449 13.6172C136.449 13.6172 137.453 15.5789 136.772 17.1803C136.772 17.1803 136.947 14.724 136.233 13.7679L135.304 14.5286C135.304 14.5286 136.245 16.4644 135.672 17.7902C135.672 17.7902 135.597 14.9313 135.102 14.717C135.102 14.717 134.289 15.4611 134.164 15.7673C134.164 15.7673 134.809 17.1803 134.409 17.9103C134.409 17.9103 134.164 16.0051 133.955 15.9981C133.955 15.9981 133.146 17.2603 133.06 18.1176C133.1 17.3175 133.341 16.5423 133.759 15.8685C133.291 15.9604 132.859 16.1921 132.517 16.535C132.517 16.535 132.644 15.6448 133.959 15.5647C133.959 15.5647 134.641 14.6086 134.809 14.5497C134.809 14.5497 133.5 14.4367 132.708 14.8017C132.708 14.8017 133.405 13.9586 135.05 14.3307L135.958 13.5536C135.958 13.5536 134.236 13.3181 133.505 13.5795C133.505 13.5795 134.345 12.8353 136.206 13.377L137.206 12.7576C137.206 12.7576 135.738 12.4279 134.861 12.548C134.861 12.548 135.786 12.0299 137.499 12.5904L138.214 12.2583C138.214 12.2583 137.137 12.037 136.822 12.004C136.506 11.971 136.49 11.8792 136.49 11.8792C137.172 11.7616 137.872 11.8431 138.512 12.1147C138.512 12.1147 140.045 11.533 140.018 11.4341Z" fill="#FFD801"/>
<defs>
<linearGradient id="paint0_linear_367_1234" x1="164.485" y1="113.533" x2="164.485" y2="18.7952" gradientUnits="userSpaceOnUse">
<stop stop-color="#808080" stop-opacity="0.25"/>
<stop offset="0.54" stop-color="#808080" stop-opacity="0.12"/>
<stop offset="1" stop-color="#808080" stop-opacity="0.1"/>
</linearGradient>
<linearGradient id="paint1_linear_367_1234" x1="9034.11" y1="59005.1" x2="20254.7" y2="59005.1" gradientUnits="userSpaceOnUse">
<stop stop-color="#808080" stop-opacity="0.25"/>
<stop offset="0.54" stop-color="#808080" stop-opacity="0.12"/>
<stop offset="1" stop-color="#808080" stop-opacity="0.1"/>
</linearGradient>
</defs>
</svg>
