<svg width="210" height="161" viewBox="0 0 210 161" fill="none" xmlns="http://www.w3.org/2000/svg">
<path opacity="0.3" d="M88.922 5.9262C80.4256 2.53149 71.4472 -0.304179 62.2818 0.0523055C48.8056 0.574879 35.8691 8.54109 29.5339 20.2382C24.1589 30.1489 23.4957 41.765 21.1802 52.7634C18.3307 66.3118 12.8631 79.1918 7.02534 91.7842C3.89052 98.5494 0.582189 105.46 0.0674311 112.876C-0.645904 123.171 4.36094 133.43 12.2134 140.278C20.0659 147.126 30.4941 150.74 40.9608 151.528C46.5306 151.947 52.351 151.558 57.2981 149.01C62.5324 146.314 66.3478 141.443 71.6034 138.785C76.4733 136.323 82.1703 135.978 87.638 136.298C94.7768 136.716 101.824 138.189 108.571 140.673C116.214 143.493 123.32 147.578 130.935 150.438C138.551 153.298 147.08 154.894 154.873 152.508C162.199 150.266 167.983 144.821 173.198 139.308C181.725 130.309 189.541 120.596 196.568 110.265C201.274 103.336 205.654 96.0256 207.735 87.95C211.714 72.5098 206.239 55.0907 194.095 44.546C184.033 35.8101 170.529 32.0184 157.312 29.7175C145.258 27.6191 131.321 27.4895 120.226 22.0207C109.645 16.799 100.017 10.362 88.922 5.9262Z" fill="#FFD801"/>
<path d="M188.782 33.2153H0.0803223V121.667H188.782V33.2153Z" fill="#E6E6E6"/>
<path d="M183.387 40.8003H5.47632V114.598H183.387V40.8003Z" fill="white"/>
<path d="M188.702 28.1052H0V36.0242H188.702V28.1052Z" fill="#FFD801"/>
<path d="M5.95754 34.2292C6.77815 34.2292 7.44339 33.5721 7.44339 32.7615C7.44339 31.9508 6.77815 31.2937 5.95754 31.2937C5.13692 31.2937 4.47168 31.9508 4.47168 32.7615C4.47168 33.5721 5.13692 34.2292 5.95754 34.2292Z" fill="white"/>
<path d="M11.5972 34.2292C12.4178 34.2292 13.083 33.5721 13.083 32.7615C13.083 31.9508 12.4178 31.2937 11.5972 31.2937C10.7766 31.2937 10.1113 31.9508 10.1113 32.7615C10.1113 33.5721 10.7766 34.2292 11.5972 34.2292Z" fill="white"/>
<path d="M17.2371 34.2292C18.0577 34.2292 18.7229 33.5721 18.7229 32.7615C18.7229 31.9508 18.0577 31.2937 17.2371 31.2937C16.4165 31.2937 15.7512 31.9508 15.7512 32.7615C15.7512 33.5721 16.4165 34.2292 17.2371 34.2292Z" fill="white"/>
<path d="M133.05 52.0203H107.994V53.8806H133.05V52.0203Z" fill="#E6E6E6"/>
<path d="M146.686 57.4814H107.994V59.3418H146.686V57.4814Z" fill="#FFD801"/>
<path d="M139.929 62.6829H108.396V64.5432H139.929V62.6829Z" fill="#E6E6E6"/>
<path d="M126.402 68.3896H107.994V70.25H126.402V68.3896Z" fill="#E6E6E6"/>
<path d="M135.777 73.9644H107.994V75.8247H135.777V73.9644Z" fill="#FFD801"/>
<path d="M99.6411 51.4351H96.573V54.4658H99.6411V51.4351Z" fill="#E6E6E6"/>
<path d="M99.6411 56.8962H96.573V59.927H99.6411V56.8962Z" fill="#FFD801"/>
<path d="M99.6411 62.0977H96.573V65.1284H99.6411V62.0977Z" fill="#E6E6E6"/>
<path d="M99.6411 67.8044H96.573V70.8352H99.6411V67.8044Z" fill="#E6E6E6"/>
<path d="M99.6411 73.3792H96.573V76.4099H99.6411V73.3792Z" fill="#FFD801"/>
<path d="M133.05 79.5735H107.994V81.4338H133.05V79.5735Z" fill="#E6E6E6"/>
<path d="M146.686 85.0349H107.994V86.8953H146.686V85.0349Z" fill="#FFD801"/>
<path d="M139.929 90.2363H108.396V92.0967H139.929V90.2363Z" fill="#E6E6E6"/>
<path d="M126.402 95.9431H107.994V97.8035H126.402V95.9431Z" fill="#E6E6E6"/>
<path d="M135.777 101.518H107.994V103.378H135.777V101.518Z" fill="#E6E6E6"/>
<path d="M99.6411 78.9883H96.573V82.019H99.6411V78.9883Z" fill="#E6E6E6"/>
<path d="M99.6411 84.4495H96.573V87.4805H99.6411V84.4495Z" fill="#FFD801"/>
<path d="M99.6411 89.6509H96.573V92.6819H99.6411V89.6509Z" fill="#E6E6E6"/>
<path d="M99.6411 95.3577H96.573V98.3887H99.6411V95.3577Z" fill="#E6E6E6"/>
<path d="M99.6411 100.932H96.573V103.963H99.6411V100.932Z" fill="#E6E6E6"/>
<path d="M53.7845 94.1663H28.728V96.0266H53.7845V94.1663Z" fill="#3F3D56"/>
<path d="M56.9091 99.0002H25.3755V100.861H56.9091V99.0002Z" fill="#3F3D56"/>
<path d="M57.5419 70.6987C57.5409 73.4948 56.8058 76.2428 55.4084 78.6743C54.011 81.1058 51.9991 83.1378 49.5691 84.5718C47.1392 86.0058 44.3743 86.7927 41.5445 86.8558C38.7147 86.9188 35.9167 86.2558 33.4238 84.9315L33.4206 84.9284C30.8742 83.5733 28.737 81.5756 27.2267 79.1388C25.7164 76.7021 24.887 73.9134 24.8231 71.0569C24.7592 68.2004 25.463 65.3783 26.8628 62.878C28.2626 60.3777 30.3083 58.2886 32.7916 56.8237C35.2749 55.3587 38.107 54.5703 40.9992 54.5386C43.8914 54.5069 46.7405 55.2332 49.256 56.6434C51.7716 58.0537 53.8637 60.0974 55.3193 62.5664C56.7748 65.0355 57.5418 67.8416 57.5419 70.6987Z" fill="#3F3D56"/>
<path d="M41.2644 69.9146C43.7207 69.9146 45.7119 67.9475 45.7119 65.5211C45.7119 63.0947 43.7207 61.1277 41.2644 61.1277C38.8081 61.1277 36.8169 63.0947 36.8169 65.5211C36.8169 67.9475 38.8081 69.9146 41.2644 69.9146Z" fill="white"/>
<path d="M48.8584 78.9918C43.8864 80.7157 38.4649 80.695 33.5066 78.933L33.5034 78.9309L36.8168 72.4702H45.7118L48.8584 78.9918Z" fill="white"/>
<path d="M175.961 157.233H172.673L171.109 144.705L175.962 144.705L175.961 157.233Z" fill="#FFB7B7"/>
<path d="M176.8 160.382L166.198 160.382V160.249C166.198 159.168 166.633 158.131 167.407 157.367C168.18 156.602 169.23 156.173 170.324 156.173H170.325L176.8 156.173L176.8 160.382Z" fill="#2F2E41"/>
<path d="M183.992 157.233H187.28L188.845 144.705L183.992 144.705L183.992 157.233Z" fill="#FFB7B7"/>
<path d="M183.153 156.173L189.629 156.173H189.629C190.724 156.173 191.773 156.602 192.547 157.367C193.321 158.131 193.756 159.168 193.756 160.249V160.382L183.154 160.382L183.153 156.173Z" fill="#2F2E41"/>
<path d="M175.231 59.3287C176.643 56.5209 175.483 53.1137 172.641 51.7186C169.798 50.3236 166.349 51.4689 164.937 54.2767C163.525 57.0846 164.684 60.4918 167.526 61.8868C170.369 63.2819 173.818 62.1366 175.231 59.3287Z" fill="#FFB7B7"/>
<path d="M165.852 95.8576C165.852 95.8576 164.037 103.327 164.944 106.913C165.852 110.498 168.574 134.999 168.574 134.999L170.389 154.421L177.648 155.019L176.741 132.31L177.648 112.59L182.791 131.713V154.489L190.49 154.787L190.655 125.139C190.655 125.139 191.26 101.833 187.328 98.8455C183.396 95.8576 182.791 95.26 182.791 95.26L165.852 95.8576Z" fill="#2F2E41"/>
<path d="M176.811 62.99L183.698 66.5755L184.605 97.65C184.605 97.65 180.673 95.2597 174.623 98.2476C168.574 101.236 164.642 99.144 164.642 99.144L168.271 85.6983L166.759 67.7707L168.922 65.8312L176.811 62.99Z" fill="#CBCBCB"/>
<path d="M168.923 65.2658L167.666 66.2768C167.666 66.2768 159.802 70.1612 159.5 72.8503L164.944 87.4913C164.944 87.4913 166.457 90.778 165.247 91.9732C164.037 93.1684 162.827 96.1563 163.129 97.6503C163.432 99.1443 161.314 105.419 163.734 105.419C166.154 105.419 171.901 91.0768 171.599 85.3997C171.296 79.7226 171.087 64.8523 168.923 65.2658Z" fill="#2F2E41"/>
<path d="M174.211 63.3267L176.981 62.8713C176.981 62.8713 187.265 65.5605 188.778 70.0424L184.543 80.5001C184.543 80.5001 187.568 99.6228 186.66 99.6228H185.753C185.753 99.6228 188.173 101.416 186.66 102.013C185.148 102.611 181.518 107.391 180.611 105.3C179.703 103.208 174.259 78.4085 174.864 73.0303C175.469 67.652 173.673 63.8902 174.211 63.3267Z" fill="#2F2E41"/>
<path d="M175.413 51.2439L175.682 50.7088L174.327 50.044C174.327 50.044 172.833 47.6425 170.129 48.3174C167.426 48.9922 166.209 49.3961 166.209 49.3961L164.858 50.0677L165.536 50.7341L164.32 51.138L165.133 51.5369L164.187 52.0737L164.696 54.8259C164.696 54.8259 165.541 52.7385 167.167 53.5362C168.792 54.3339 171.765 53.1238 171.765 53.1238L174.348 58.0615C174.348 58.0615 174.881 56.3306 175.831 56.7921C175.831 56.7922 178.258 52.974 175.413 51.2439Z" fill="#2F2E41"/>
<path d="M183.826 103.675C183.676 103.314 183.609 102.926 183.628 102.537C183.647 102.148 183.752 101.768 183.935 101.423C184.119 101.078 184.377 100.778 184.691 100.542C185.005 100.307 185.368 100.142 185.753 100.06L186.918 90.6631L190.712 93.8504L189.024 102.286C189.121 102.934 188.973 103.596 188.609 104.144C188.245 104.692 187.69 105.09 187.05 105.261C186.409 105.432 185.727 105.365 185.133 105.073C184.538 104.781 184.073 104.283 183.826 103.675Z" fill="#FFB7B7"/>
<path d="M167.599 103.028C167.709 102.654 167.734 102.26 167.674 101.876C167.613 101.491 167.468 101.124 167.248 100.8C167.028 100.477 166.74 100.205 166.402 100.004C166.064 99.8027 165.686 99.6771 165.294 99.6359L163.128 90.4136L159.697 93.9803L162.28 102.191C162.254 102.846 162.472 103.488 162.893 103.996C163.313 104.503 163.908 104.84 164.563 104.943C165.219 105.046 165.89 104.908 166.45 104.555C167.009 104.202 167.418 103.659 167.599 103.028Z" fill="#FFB7B7"/>
<path d="M183.972 67.6074C183.972 67.6074 187.904 66.1135 189.114 70.5954C190.324 75.0773 191.836 84.041 191.836 84.041C191.912 89.0255 191.643 89.0255 191.836 93.9012L190.929 98.3831L185.787 97.7855L186.011 86.3761L183.367 74.7785L183.972 67.6074Z" fill="#2F2E41"/>
<path d="M162.222 71.0576L160.358 71.2546C160.358 71.2546 158.592 72.5516 158.592 75.5395C158.592 78.5274 158.29 87.4911 158.29 87.4911C158.29 87.4911 158.118 87.7009 159.5 95.2597C160.173 98.944 161.337 100.683 161.337 100.683L165.092 97.2385L164.642 88.3875L165.852 83.6068L162.222 71.0576Z" fill="#2F2E41"/>
<path d="M208.749 160.558H148.671C148.6 160.558 148.531 160.53 148.481 160.481C148.431 160.431 148.403 160.363 148.403 160.293C148.403 160.223 148.431 160.156 148.481 160.106C148.531 160.056 148.6 160.028 148.671 160.028H208.749C208.82 160.028 208.888 160.056 208.938 160.106C208.988 160.156 209.017 160.223 209.017 160.293C209.017 160.363 208.988 160.431 208.938 160.481C208.888 160.53 208.82 160.558 208.749 160.558Z" fill="#CBCBCB"/>
</svg>
