<svg width="210" height="155" viewBox="0 0 210 155" fill="none" xmlns="http://www.w3.org/2000/svg">
<path opacity="0.3" d="M88.922 6.88958C80.4256 3.49488 71.4472 0.659199 62.2818 1.01568C48.8055 1.53826 35.8691 9.50448 29.5339 21.2016C24.1589 31.1123 23.4957 42.7285 21.1802 53.7268C18.3307 67.2753 12.8631 80.1553 7.02534 92.7478C3.89052 99.5129 0.582189 106.424 0.0674311 113.839C-0.645904 124.135 4.36093 134.394 12.2134 141.242C20.0659 148.09 30.4941 151.703 40.9608 152.491C46.5306 152.911 52.351 152.522 57.2981 149.974C62.5324 147.278 66.3478 142.407 71.6033 139.749C76.4733 137.286 82.1703 136.942 87.6379 137.262C94.7768 137.68 101.824 139.152 108.571 141.637C116.214 144.456 123.32 148.542 130.935 151.402C138.551 154.262 147.08 155.858 154.873 153.472C162.199 151.23 167.983 145.785 173.198 140.272C181.725 131.273 189.541 121.56 196.568 111.228C201.274 104.299 205.654 96.9891 207.735 88.9135C211.714 73.4733 206.239 56.0541 194.094 45.5095C184.033 36.7736 170.529 32.9819 157.311 30.6809C145.258 28.5825 131.321 28.4529 120.226 22.9841C109.645 17.7624 100.017 11.3254 88.922 6.88958Z" fill="#FFD801"/>
<path d="M105.894 130.16V137.519H107.886L107.5 129.619L105.894 130.16Z" fill="#AAABB0"/>
<path d="M75.9783 128.675V136.034H77.9717L77.5862 128.134L75.9783 128.675Z" fill="#AAABB0"/>
<path d="M110.778 117.873C110.778 117.127 110.202 116.522 109.493 116.522C108.783 116.522 108.208 117.127 108.208 117.873V128.27C108.208 129.016 108.783 129.621 109.493 129.621C110.202 129.621 110.778 129.016 110.778 128.27V117.873Z" fill="#AAABB0"/>
<path d="M77.8099 114.969C77.8099 114.223 77.2346 113.618 76.525 113.618C75.8153 113.618 75.24 114.223 75.24 114.969V128.268C75.24 129.014 75.8153 129.619 76.525 129.619C77.2346 129.619 77.8099 129.014 77.8099 128.268V114.969Z" fill="#AAABB0"/>
<path d="M114.057 38.1359C114.057 38.1359 116.627 36.9875 117.013 38.1359C117.398 39.2844 117.591 49.2092 117.591 49.2092H115.149L114.057 38.1359Z" fill="#AAABB0"/>
<path d="M85.9094 38.1359C85.9094 38.1359 83.3375 36.9875 82.9519 38.1359C82.5663 39.2844 82.3735 49.2092 82.3735 49.2092H84.8162L85.9094 38.1359Z" fill="#AAABB0"/>
<path d="M86.2928 28.278L85.9072 36.5156H87.6423V28.0754L86.2928 28.278Z" fill="#AAABB0"/>
<path d="M84.8162 49.2092L85.3309 37.3257C85.3309 37.3257 85.1381 34.6925 91.242 35.5027C97.3458 36.3129 115.214 37.9333 115.214 37.9333V49.2092H84.8162Z" fill="#33323D"/>
<path d="M109.237 111.797L108.273 129.957C108.273 129.957 94.134 138.195 76.9753 130.362L78.5177 111.256L109.237 111.797Z" fill="#33323D"/>
<path d="M95.8057 40.295L96.1257 52.043H116.049L114.892 36.5154L95.8057 40.295Z" fill="#444053"/>
<path d="M97.8298 104.031H79.0632V129.011H97.8298V104.031Z" fill="#4C4981"/>
<path d="M90.922 114.227C90.922 114.227 93.621 111.999 94.0703 112.674C94.5195 113.348 92.4662 116.253 91.6295 115.915C90.7928 115.576 90.922 114.227 90.922 114.227Z" fill="#FFB9B9"/>
<path opacity="0.8" d="M165.834 48.533H42.6445V113.348H165.834V48.533Z" fill="#D6D6D6"/>
<path d="M84.8801 27.806C84.8801 27.806 83.9161 18.3531 84.8801 17.2067C85.8441 16.0603 102.039 5.18756 117.013 17.948C117.013 17.948 118.426 18.0169 118.17 21.3913C118.019 23.527 118.029 25.672 118.201 27.806C118.201 27.806 85.9732 30.2365 84.8801 27.806Z" fill="#33323D"/>
<path opacity="0.1" d="M84.8801 27.806C84.8801 27.806 83.9161 18.3531 84.8801 17.2067C85.8441 16.0603 102.039 5.18756 117.013 17.948C117.013 17.948 118.426 18.0169 118.17 21.3913C118.019 23.527 118.029 25.672 118.201 27.806C118.201 27.806 85.9732 30.2365 84.8801 27.806Z" fill="black"/>
<path d="M84.8801 29.0213C84.8801 29.0213 83.9161 19.5684 84.8801 18.422C85.8441 17.2756 102.039 6.40289 117.013 19.1634C117.013 19.1634 118.426 19.2322 118.17 22.6066C118.019 24.7424 118.029 26.8873 118.201 29.0213C118.201 29.0213 85.9732 31.4519 84.8801 29.0213Z" fill="#33323D"/>
<path d="M118.748 24.7009C118.748 24.7009 119.775 28.7519 119.455 29.4264C119.135 30.1009 119.193 31.9927 119.193 31.9927C119.193 31.9927 119.262 33.2079 118.748 33.3416C118.233 33.4753 117.784 33.5442 118.2 33.9493C118.616 34.3544 118.2 34.962 118.2 34.962C118.2 34.962 117.974 35.9079 118.2 36.5155C118.426 37.1232 116.881 37.3764 117.012 38.1359C117.143 38.8955 117.575 41.0384 117.012 41.1073C116.449 41.1762 117.205 43.8073 116.698 43.8073C116.191 43.8073 115.831 48.5327 115.831 48.5327C115.831 48.5327 112.264 45.3608 109.887 46.2378C109.887 46.2378 110.08 43.6047 110.851 42.6588C111.622 41.7129 111.389 39.2844 111.389 39.2844L115.214 27.1983L118.748 24.7009Z" fill="#FFD801"/>
<path d="M99.6612 80.5599C98.8264 81.5301 97.926 76.3489 97.926 76.3489C97.926 76.3489 95.5489 79.7922 94.0066 77.4973C92.9385 75.9073 93.781 71.4027 94.3922 68.7877C94.6659 67.6251 94.8973 66.8352 94.8973 66.8352L98.3675 66.2275C98.3675 66.2275 98.3791 67.0215 98.4562 67.9857C98.5603 69.288 98.7859 70.9044 99.2659 71.2913C100.112 71.9617 100.498 79.5816 99.6612 80.5599Z" fill="#AE6E79"/>
<path opacity="0.1" d="M97.8622 19.9065C97.8622 19.9065 91.8201 19.8397 90.3433 23.2142C88.8665 26.5886 88.8009 27.7391 88.2225 28.2779C87.6442 28.8167 94.5192 31.6544 94.5192 31.6544L94.8411 43.2666C94.8411 43.2666 96.1907 41.8305 98.375 42.4807C100.559 43.1309 103.324 42.4807 103.324 42.4807C103.324 42.4807 103.195 42.2356 104.996 42.4807C106.796 42.7258 112.514 39.5539 112.514 39.5539C112.514 39.5539 112.609 34.4739 112.482 33.3923C112.354 32.3107 116.561 24.3626 116.561 24.3626C116.561 24.3626 119.839 21.055 116.434 19.9065C116.434 19.9065 115.229 17.9985 112.129 18.0167C109.029 18.035 97.8622 19.9065 97.8622 19.9065Z" fill="black"/>
<path d="M97.8622 19.7041C97.8622 19.7041 91.8201 19.6373 90.3433 23.0117C88.8665 26.3862 88.8009 27.5366 88.2225 28.0754C87.6442 28.6142 94.5192 31.4519 94.5192 31.4519L94.8411 43.064C94.8411 43.064 96.1907 41.6279 98.375 42.2781C100.559 42.9283 103.324 42.2781 103.324 42.2781C103.324 42.2781 103.195 42.033 104.996 42.2781C106.796 42.5232 112.515 39.3513 112.515 39.3513C112.515 39.3513 114.762 35.5029 114.635 34.4233C114.508 33.3437 119.133 25.1729 119.133 25.1729C119.133 25.1729 119.841 20.8526 116.434 19.7041C116.434 19.7041 115.229 17.7961 112.129 17.8143C109.029 17.8326 97.8622 19.7041 97.8622 19.7041Z" fill="#FFD801"/>
<path opacity="0.1" d="M98.4718 67.9794C97.1473 67.546 95.069 68.5019 94.4077 68.7896C94.6815 67.627 94.9128 66.8371 94.9128 66.8371L98.3831 66.2295C98.3831 66.2295 98.3889 67.0234 98.4718 67.9794Z" fill="black"/>
<path d="M90.085 28.0754H88.2226C88.2226 28.0754 87.8371 32.1953 88.2226 33.4105C88.6082 34.6258 88.801 34.4496 88.6718 35.3489C88.5427 36.2482 89.5722 37.6256 89.5722 37.6256C89.5722 37.6256 89.6994 41.0203 90.3434 42.2842C90.9873 43.5481 89.6358 49.2153 89.6358 49.2153C90.0044 50.1937 90.5498 51.0878 91.2418 51.8485C92.3349 52.9949 92.9133 57.2484 92.5913 58.8688C92.2694 60.4891 93.4917 61.0968 93.4917 61.0968C93.4917 61.0968 94.0064 68.6599 94.1992 68.6599C94.392 68.6599 98.1187 66.6344 99.2755 68.3885L98.3751 61.435L98.4407 48C98.4407 48 97.2184 46.3108 97.8623 44.8261C98.5062 43.3415 97.3475 39.8293 97.3475 39.8293L95.676 31.9988L90.085 28.0754Z" fill="#FFD801"/>
<path d="M78.5176 134.818C78.5176 134.818 75.8185 134.211 75.7549 134.818C75.6913 135.426 72.5411 141.638 76.4625 143.461C80.3839 145.284 90.8564 149.199 107.888 144.136C107.888 144.136 108.979 144.541 108.723 142.043C108.466 139.546 108.466 136.777 108.466 136.777C108.466 136.777 105.894 136.034 103.966 136.305C102.038 136.577 85.2654 140.154 78.5176 134.818Z" fill="#33323D"/>
<path opacity="0.1" d="M78.5176 134.818C78.5176 134.818 75.8185 134.211 75.7549 134.818C75.6913 135.426 72.5411 141.638 76.4625 143.461C80.3839 145.284 90.8564 149.199 107.888 144.136C107.888 144.136 108.979 144.541 108.723 142.043C108.466 139.546 108.466 136.777 108.466 136.777C108.466 136.777 105.894 136.034 103.966 136.305C102.038 136.577 85.2654 140.154 78.5176 134.818Z" fill="black"/>
<path d="M78.5176 134.008C78.5176 134.008 75.8185 133.4 75.7549 134.008C75.6913 134.616 72.5411 140.828 76.4625 142.651C80.3839 144.474 90.8564 148.389 107.888 143.325C107.888 143.325 108.979 143.73 108.723 141.233C108.466 138.736 108.466 135.967 108.466 135.967C108.466 135.967 105.894 135.223 103.966 135.495C102.038 135.766 85.2654 139.343 78.5176 134.008Z" fill="#33323D"/>
<path d="M94.2573 30.502C94.0915 31.4925 93.7156 32.4444 93.6577 33.447C93.5999 34.4497 93.9681 35.59 94.8492 35.9829C95.095 36.0601 95.3332 36.1618 95.5606 36.2868C95.8999 36.5278 96.0387 36.9815 96.11 37.4068C96.2047 37.956 96.2274 38.5162 96.1775 39.0718C96.1293 39.6308 96.0156 40.2324 96.2778 40.7205C96.7385 41.5854 97.9396 41.4578 98.8535 41.2147L98.5392 43.7729C98.5142 43.9754 98.4987 44.2043 98.6395 44.342C98.706 44.3913 98.7812 44.4259 98.8607 44.444C98.9401 44.4621 99.0223 44.4633 99.1022 44.4474C99.8965 44.3947 100.714 44.2793 101.394 43.8397C102.075 43.4002 102.582 42.5819 102.453 41.7575C102.303 40.8015 101.362 40.042 101.489 39.0819C101.587 38.3386 102.279 37.8666 102.734 37.2954C103.558 36.2503 103.602 34.6623 102.956 33.4795C102.31 32.2966 101.063 31.5634 99.7789 31.4297C99.0675 31.3547 98.3272 31.4459 97.6582 31.1866C97.4254 31.0969 97.2155 30.9519 97.045 30.7629C96.8744 30.5738 96.7478 30.3459 96.6749 30.0969" fill="#444053"/>
<path d="M71.8354 120.573L72.5083 119.034C72.5083 119.034 76.1405 115.479 76.9753 115.23C77.8101 114.981 81.2168 113.895 81.7315 113.895C82.2463 113.895 91.6296 113.354 91.6296 113.354L92.7208 116.056L80.9449 118.772L76.9753 121.811L71.8354 120.573Z" fill="#767D9F"/>
<path d="M100.128 79.1176L99.5125 84.0902L99.2753 86.0043L96.5126 86.4094C96.5126 86.4094 96.2138 85.737 95.7916 84.7039C94.5095 81.5685 92.0957 75.103 93.4954 73.987C95.3559 72.5002 95.8089 77.4303 95.8089 77.4303L97.9297 76.3487L100.128 79.1176Z" fill="#FFB9B9"/>
<path d="M99.6671 88.3679H85.7146V110.512H99.6671V88.3679Z" fill="white"/>
<path opacity="0.1" d="M99.6671 88.3679H85.7146V110.512H99.6671V88.3679Z" fill="black"/>
<path d="M105.938 89.5672L92.1357 87.4233L89.053 109.33L102.855 111.473L105.938 89.5672Z" fill="white"/>
<path d="M100.539 90.6157L93.4346 89.5122L91.8479 100.787L98.9522 101.89L100.539 90.6157Z" fill="#D8D8D8"/>
<path d="M99.6936 105.333L91.0864 103.996L90.7419 106.444L99.3491 107.781L99.6936 105.333Z" fill="#D8D8D8"/>
<path opacity="0.1" d="M103.324 32.4971C107.778 32.4971 111.389 28.7038 111.389 24.0245C111.389 19.3453 107.778 15.552 103.324 15.552C98.8704 15.552 95.2598 19.3453 95.2598 24.0245C95.2598 28.7038 98.8704 32.4971 103.324 32.4971Z" fill="black"/>
<path d="M103.324 32.2944C107.778 32.2944 111.389 28.5012 111.389 23.8219C111.389 19.1426 107.778 15.3494 103.324 15.3494C98.8704 15.3494 95.2598 19.1426 95.2598 23.8219C95.2598 28.5012 98.8704 32.2944 103.324 32.2944Z" fill="#AE6E79"/>
<path d="M96.675 30.101C96.6202 29.8828 96.64 29.6512 96.7309 29.4468C97.0375 28.7763 97.9108 28.7176 98.6184 28.752C100.282 28.833 102.108 28.8432 103.409 27.7393C103.949 27.2856 104.553 26.1452 105.337 26.3619C106.035 26.5544 106.326 27.5489 107.053 27.7696C107.579 27.9297 108.125 27.6744 108.661 27.5671C109.432 27.4071 110.223 27.5408 111.005 27.5468C111.788 27.5529 112.638 27.397 113.172 26.7954C113.893 25.9852 113.776 24.7193 113.712 23.6093C113.633 22.1755 113.726 20.7369 113.988 19.3274C114.25 17.9257 114.653 16.358 113.917 15.1569C113.215 14.0125 111.761 13.6985 110.768 12.8215C109.839 12.0113 109.347 10.713 108.366 9.96149C107.13 9.01559 105.451 9.15129 103.932 9.31536L100.635 9.684C99.7848 9.7792 98.8999 9.88655 98.2 10.4193C96.9372 11.3793 96.7637 13.3745 95.5684 14.4257C95.0363 14.8915 94.3557 15.1225 93.7484 15.4708C93.1411 15.8192 92.555 16.3702 92.4856 17.0912C92.4278 17.6989 92.7401 18.2599 92.8924 18.8453C93.2529 20.2429 92.69 21.681 92.3295 23.0887C91.9689 24.4964 91.8995 26.206 92.9464 27.1397C93.1585 27.3301 93.4052 27.476 93.6115 27.6744C94.3191 28.353 94.4155 29.4974 94.2516 30.4858" fill="#444053"/>
<path d="M103.982 34.405C104.088 34.405 104.175 34.1783 104.175 33.8987C104.175 33.619 104.088 33.3923 103.982 33.3923C103.875 33.3923 103.789 33.619 103.789 33.8987C103.789 34.1783 103.875 34.405 103.982 34.405Z" fill="#444053"/>
<path d="M103.982 36.5156C104.088 36.5156 104.175 36.2889 104.175 36.0093C104.175 35.7296 104.088 35.5029 103.982 35.5029C103.875 35.5029 103.789 35.7296 103.789 36.0093C103.789 36.2889 103.875 36.5156 103.982 36.5156Z" fill="#444053"/>
<path d="M99.7055 80.5455C99.9118 80.2964 100.049 79.6563 100.128 78.8117L97.8296 75.8018C97.8296 75.8018 98.8032 81.6373 99.7055 80.5455Z" fill="#AE6E79"/>
<path opacity="0.1" d="M102.297 130.295C102.297 130.295 98.5257 136.421 86.7441 135.764C75.645 135.157 70.2275 129.418 70.4859 127.393C70.7442 125.367 69.7783 120.437 72.1555 119.02C73.5339 118.199 75.3481 118.685 76.6283 119.24C77.0705 119.429 77.5547 119.482 78.0245 119.394C78.4944 119.305 78.9307 119.078 79.283 118.74C80.4533 117.632 82.6357 116.384 86.0809 117.367C86.5242 117.491 86.9918 117.482 87.4304 117.34C88.8648 116.881 92.2792 116.083 94.7566 117.855C95.1481 118.138 95.6084 118.299 96.0836 118.318C96.5588 118.337 97.0293 118.214 97.4403 117.962L97.475 117.94C98.6317 117.197 104.03 124.219 104.03 124.219C104.03 124.219 104.288 129.621 102.297 130.295Z" fill="black"/>
<path d="M102.297 130.498C102.297 130.498 98.5257 136.623 86.7441 135.967C75.645 135.359 70.2275 129.621 70.4859 127.595C70.7442 125.57 69.7783 120.64 72.1555 119.222C73.5339 118.402 75.3481 118.888 76.6283 119.443C77.0705 119.632 77.5547 119.685 78.0245 119.596C78.4944 119.508 78.9307 119.281 79.283 118.943C80.4533 117.835 82.6357 116.587 86.0809 117.569C86.5242 117.694 86.9918 117.684 87.4304 117.543C88.8648 117.083 92.2792 116.285 94.7566 118.058C95.1481 118.341 95.6084 118.502 96.0836 118.521C96.5588 118.54 97.0293 118.416 97.4403 118.165L97.475 118.143C98.6317 117.399 104.03 124.422 104.03 124.422C104.03 124.422 104.288 129.823 102.297 130.498Z" fill="#767D9F"/>
<path opacity="0.1" d="M86.7441 132.896C90.9862 132.896 94.425 129.283 94.425 124.827C94.425 120.37 90.9862 116.757 86.7441 116.757C82.5021 116.757 79.0632 120.37 79.0632 124.827C79.0632 129.283 82.5021 132.896 86.7441 132.896Z" fill="black"/>
<path d="M86.7441 133.098C90.9862 133.098 94.425 129.486 94.425 125.029C94.425 120.573 90.9862 116.96 86.7441 116.96C82.5021 116.96 79.0632 120.573 79.0632 125.029C79.0632 129.486 82.5021 133.098 86.7441 133.098Z" fill="#FFB9B9"/>
<path d="M84.5422 118.053C83.7363 118.282 82.942 118.72 82.5487 119.439C82.3116 119.872 82.2287 120.393 81.8855 120.753C81.3997 121.266 80.5803 121.276 79.9229 121.564C79.2655 121.851 78.8317 122.864 79.4756 123.184C78.8047 123.221 78.3073 123.871 78.2244 124.517C78.1415 125.163 78.3748 125.807 78.6003 126.423C79.3368 128.416 80.1292 130.496 81.7525 131.914C84.3976 134.227 88.3846 134.12 91.9378 133.875C92.2281 133.885 92.5159 133.815 92.7726 133.672C93.1581 133.405 93.2063 132.892 93.27 132.443C93.5379 130.522 94.5289 128.778 95.1767 126.945C95.8245 125.112 96.0905 122.959 94.9993 121.337C93.3933 118.931 87.2452 117.284 84.5422 118.053Z" fill="#B96B6B"/>
<path opacity="0.1" d="M99.5127 84.0902L99.2755 86.0043L96.5128 86.4094C96.5128 86.4094 96.214 85.7369 95.7917 84.7039L99.4683 83.9788L99.5127 84.0902Z" fill="black"/>
<path d="M102.424 126.38L104.032 124.421L103.71 113.62C103.868 112.84 103.976 112.051 104.032 111.256C104.096 110.107 103.228 107.543 103.228 107.543C103.363 107.03 103.545 106.532 103.774 106.056C104.159 105.246 103.23 103.423 103.23 103.423C103.23 103.423 101.846 98.6978 102.424 96.3341C103.002 93.9703 102.283 92.6214 102.283 92.6214C102.283 92.6214 101.718 89.9882 101.782 88.9086C101.846 87.8291 100.496 86.8143 100.496 86.8143L99.4686 84.1812L95.3563 84.9913V94.106C95.3563 94.106 95.6127 102.816 95.3563 104.505C95.0999 106.194 95.8691 107.812 95.8691 107.812C95.8691 107.812 95.4199 110.31 95.8055 111.256C96.1911 112.202 96.9622 114.497 96.9622 114.497C96.8191 115.317 96.8634 116.161 97.0914 116.96C97.477 118.142 97.0914 118.817 97.0914 118.817L102.424 126.38Z" fill="#767D9F"/>
<g opacity="0.1">
<path opacity="0.1" d="M113.993 18.6608C113.776 19.8465 113.678 21.053 113.702 22.2603C113.719 21.2564 113.819 20.256 114.001 19.2705C114.17 18.3712 114.386 17.4029 114.34 16.5056C114.269 17.2312 114.153 17.9511 113.993 18.6608Z" fill="black"/>
<path opacity="0.1" d="M93.6169 27.0222C93.4106 26.8196 93.1638 26.6778 92.9518 26.4854C92.3888 25.9811 92.1517 25.2499 92.1054 24.46C92.0495 25.4727 92.2461 26.453 92.9518 27.093C93.1638 27.2855 93.4106 27.4313 93.6169 27.6298C94.0481 28.0781 94.2981 28.6839 94.3148 29.321C94.3707 28.4704 94.2068 27.5852 93.6169 27.0222Z" fill="black"/>
<path opacity="0.1" d="M93.0021 19.459C93.0358 19.0312 93.0007 18.6005 92.898 18.185C92.7862 17.7516 92.5857 17.3283 92.5125 16.8928C92.5125 16.9394 92.497 16.988 92.4912 17.0387C92.4353 17.6463 92.7477 18.2073 92.898 18.7926C92.9534 19.0106 92.9883 19.2338 93.0021 19.459Z" fill="black"/>
<path opacity="0.1" d="M113.177 26.1289C112.643 26.7365 111.793 26.8864 111.01 26.8804C110.228 26.8743 109.435 26.7406 108.666 26.9026C108.13 27.0161 107.585 27.2693 107.058 27.1052C106.331 26.8844 106.04 25.8899 105.344 25.6975C104.552 25.4787 103.948 26.6191 103.416 27.0728C102.115 28.1666 100.289 28.1564 98.6254 28.0855C97.9178 28.0511 97.0445 28.1098 96.7399 28.7823C96.647 28.9862 96.6271 29.2185 96.684 29.4366L94.328 29.8255C94.3191 30.0292 94.2979 30.2322 94.2644 30.4331L96.684 30.028C96.6271 29.81 96.647 29.5777 96.7399 29.3738C97.0445 28.7013 97.9178 28.6425 98.6254 28.677C100.289 28.758 102.115 28.7681 103.416 27.6642C103.956 27.2105 104.56 26.0701 105.344 26.2889C106.04 26.4793 106.331 27.4759 107.058 27.6966C107.585 27.8546 108.13 27.6014 108.666 27.4941C109.437 27.332 110.228 27.4657 111.01 27.4718C111.793 27.4779 112.643 27.3219 113.177 26.7203C113.712 26.1188 113.789 25.2215 113.756 24.3464C113.733 25.025 113.6 25.6529 113.177 26.1289Z" fill="black"/>
</g>
<g opacity="0.1">
<path opacity="0.1" d="M95.3308 35.8574C95.1038 35.7318 94.8655 35.63 94.6194 35.5536C94.201 35.3538 93.8689 34.9969 93.6882 34.553C93.8328 35.2518 94.1991 35.8878 94.8122 36.1612C95.0583 36.2376 95.2966 36.3394 95.5236 36.465C95.6688 36.5728 95.7861 36.7169 95.8649 36.8843C95.7878 36.4873 95.647 36.0822 95.3308 35.8574Z" fill="black"/>
<path opacity="0.1" d="M98.6238 40.7853C97.735 41.0223 96.5744 41.1458 96.0867 40.354C96.1018 40.5448 96.1544 40.7302 96.2409 40.8987C96.6573 41.6784 97.6753 41.6521 98.5409 41.4597L98.6238 40.7853Z" fill="black"/>
<path opacity="0.1" d="M102.225 41.3403C102.348 42.1627 101.839 42.9831 101.165 43.4146C100.49 43.846 99.6666 43.9655 98.8723 44.0223C98.746 44.0394 98.6177 44.0241 98.4983 43.9777C98.4621 44.0633 98.4504 44.1582 98.4647 44.2507C98.479 44.3432 98.5186 44.4293 98.5787 44.4985C98.6389 44.5677 98.7169 44.617 98.8033 44.6403C98.8896 44.6637 98.9806 44.6601 99.0651 44.6299C99.8594 44.5773 100.677 44.4618 101.357 44.0223C102.038 43.5827 102.547 42.7643 102.416 41.9399C102.379 41.7318 102.315 41.53 102.225 41.3403Z" fill="black"/>
<path opacity="0.1" d="M103.081 34.0081C103.199 34.5005 103.208 35.0147 103.108 35.5114C103.007 36.0081 102.8 36.4742 102.503 36.8741C102.048 37.4534 101.355 37.9172 101.257 38.6606C101.224 39.0023 101.292 39.3465 101.45 39.647C101.433 39.5214 101.433 39.3938 101.45 39.2682C101.548 38.5249 102.24 38.0529 102.695 37.4817C103.443 36.5318 103.548 35.1322 103.081 34.0081Z" fill="black"/>
</g>
<g opacity="0.1">
<path opacity="0.1" d="M79.9249 121.876C80.5804 121.59 81.3998 121.58 81.8876 121.065C82.2307 120.705 82.3136 120.184 82.5508 119.753C82.9364 119.032 83.7365 118.596 84.5423 118.367C87.2414 117.598 93.3954 119.242 94.9994 121.626C95.4695 122.348 95.7258 123.199 95.7359 124.073C95.7977 123.064 95.5394 122.062 95.0014 121.223C93.3973 118.839 87.2491 117.194 84.5443 117.964C83.7384 118.193 82.9441 118.629 82.5527 119.35C82.3156 119.781 82.2327 120.302 81.8895 120.662C81.4017 121.175 80.5824 121.185 79.9269 121.472C79.4275 121.689 79.0574 122.329 79.1923 122.759C79.2461 122.564 79.3395 122.385 79.466 122.232C79.5925 122.08 79.7491 121.958 79.9249 121.876Z" fill="black"/>
<path opacity="0.1" d="M78.2282 124.819C78.3092 124.17 78.8066 123.522 79.4794 123.486C79.4088 123.455 79.3456 123.408 79.2946 123.348C79.2435 123.288 79.2059 123.217 79.1845 123.139C78.9285 123.239 78.7035 123.411 78.5336 123.635C78.3637 123.86 78.2554 124.129 78.2205 124.413C78.2022 124.578 78.2022 124.745 78.2205 124.91C78.2282 124.879 78.2282 124.849 78.2282 124.819Z" fill="black"/>
</g>
<path d="M119.068 51.417H101.523V75.4536H119.068V51.417Z" fill="white"/>
<path opacity="0.1" d="M119.068 51.417H101.523V75.4536H119.068V51.417Z" fill="black"/>
<path d="M125.771 52.8274L108.481 55.952L112.359 79.6404L129.649 76.5158L125.771 52.8274Z" fill="white"/>
<path d="M116.734 71.3662L112.671 72.1003L113.583 77.6655L117.645 76.9314L116.734 71.3662Z" fill="#D8D8D8"/>
<path d="M122.355 70.3493L118.292 71.0834L119.204 76.6487L123.266 75.9146L122.355 70.3493Z" fill="#D8D8D8"/>
<path d="M126.327 62.1955L112.081 64.7656L112.994 70.3562L127.241 67.7861L126.327 62.1955Z" fill="#D8D8D8"/>
<path d="M125.14 55.5232L110.894 58.0931L111.098 59.3403L125.344 56.7704L125.14 55.5232Z" fill="#D8D8D8"/>
<path d="M125.607 57.8174L111.361 60.3877L111.565 61.635L125.811 59.0647L125.607 57.8174Z" fill="#D8D8D8"/>
<path d="M111.389 44.887C111.389 44.887 103.324 53.3938 107.373 55.555C111.422 57.7161 114.057 48.3646 114.057 48.3646L114.697 46.2379L111.389 44.887Z" fill="#AE6E79"/>
<path opacity="0.1" d="M110.683 44.1353L109.687 46.4485C109.687 46.4485 114.603 47.1736 115.63 48.7354L115.021 44.6538L114.298 42.9119L110.683 44.1353Z" fill="black"/>
<path d="M110.876 43.9331L109.879 46.2462C109.879 46.2462 114.796 46.9713 115.823 48.533L115.214 44.4516L114.491 42.7097L110.876 43.9331Z" fill="#FFD801"/>
<path d="M140.636 86.4619L140.53 86.5392L140.676 86.6084L140.834 86.5942L140.853 86.4782L140.636 86.4619Z" fill="#464A5F"/>
<path opacity="0.1" d="M140.636 86.4619L140.53 86.5392L140.676 86.6084L140.834 86.5942L140.853 86.4782L140.636 86.4619Z" fill="black"/>
<path d="M140.636 86.4624L140.528 86.5354L140.443 86.4258L140.495 86.3365L140.543 86.3203L140.636 86.4624Z" fill="#9C9CA1"/>
<path opacity="0.1" d="M140.636 86.4624L140.528 86.5354L140.443 86.4258L140.495 86.3365L140.543 86.3203L140.636 86.4624Z" fill="black"/>
<path d="M159.612 72.4638L151.719 60.4871C151.649 60.3802 151.56 60.2888 151.456 60.2182C151.353 60.1476 151.237 60.0992 151.116 60.0757C150.994 60.0522 150.869 60.054 150.749 60.0812C150.628 60.1083 150.514 60.1602 150.412 60.2339L132.818 72.9216C132.612 73.07 132.47 73.2982 132.425 73.556C132.379 73.8139 132.432 74.0803 132.573 74.2969L140.445 86.4255L159.612 72.4638Z" fill="#9C9CA1"/>
<path opacity="0.1" d="M159.612 72.4638L151.719 60.4871C151.649 60.3802 151.56 60.2888 151.456 60.2182C151.353 60.1476 151.237 60.0992 151.116 60.0757C150.994 60.0522 150.869 60.054 150.749 60.0812C150.628 60.1083 150.514 60.1602 150.412 60.2339L132.818 72.9216C132.612 73.07 132.47 73.2982 132.425 73.556C132.379 73.8139 132.432 74.0803 132.573 74.2969L140.445 86.4255L159.612 72.4638Z" fill="black"/>
<path d="M159.805 72.4922L151.912 60.5156C151.842 60.4086 151.752 60.3172 151.649 60.2466C151.545 60.1759 151.429 60.1275 151.307 60.104C151.186 60.0805 151.061 60.0824 150.94 60.1095C150.819 60.1367 150.705 60.1887 150.603 60.2624L133.011 72.9581C132.805 73.1066 132.663 73.3346 132.617 73.5923C132.571 73.8499 132.624 74.1164 132.764 74.3334L140.636 86.468L159.805 72.4922Z" fill="#9C9CA1"/>
<path d="M166.403 74.86L159.848 72.6482L140.676 86.6098L147.335 88.8986C147.484 88.9495 147.643 88.9631 147.798 88.9385C147.953 88.9139 148.1 88.8517 148.228 88.7568L166.457 75.2347C166.491 75.2146 166.518 75.184 166.535 75.147C166.553 75.1101 166.559 75.0685 166.553 75.0278C166.547 74.9871 166.529 74.9492 166.503 74.9193C166.476 74.8893 166.441 74.8686 166.403 74.86Z" fill="#464A5F"/>
<path opacity="0.1" d="M166.403 74.86L159.848 72.6482L140.676 86.6098L147.335 88.8986C147.484 88.9495 147.643 88.9631 147.798 88.9385C147.953 88.9139 148.1 88.8517 148.228 88.7568L166.457 75.2347C166.491 75.2146 166.518 75.184 166.535 75.147C166.553 75.1101 166.559 75.0685 166.553 75.0278C166.547 74.9871 166.529 74.9492 166.503 74.9193C166.476 74.8893 166.441 74.8686 166.403 74.86Z" fill="black"/>
<path d="M166.362 74.7202L159.807 72.5063L140.636 86.4681L147.295 88.7528C147.444 88.8046 147.602 88.8189 147.757 88.7947C147.912 88.7704 148.059 88.7082 148.187 88.6131L166.416 75.0909C166.449 75.0702 166.475 75.0397 166.491 75.0033C166.508 74.9669 166.513 74.9263 166.508 74.8865C166.502 74.8467 166.485 74.8097 166.459 74.7801C166.433 74.7505 166.399 74.7296 166.362 74.7202Z" fill="#464A5F"/>
<g opacity="0.1">
<path opacity="0.1" d="M156.709 71.9575L156.225 71.2282C156.196 71.1859 156.153 71.1571 156.104 71.1476C156.055 71.1382 156.004 71.1489 155.963 71.1776L155.244 71.682C155.203 71.7119 155.176 71.7569 155.166 71.8078C155.156 71.8587 155.165 71.9115 155.192 71.9554L155.637 72.6745C155.665 72.7176 155.708 72.7477 155.756 72.7587C155.804 72.7696 155.855 72.7605 155.897 72.7333L156.655 72.2329C156.696 72.2033 156.725 72.158 156.735 72.1066C156.745 72.0553 156.736 72.0018 156.709 71.9575Z" fill="black"/>
<path opacity="0.1" d="M155.417 72.8973L154.931 72.1701C154.902 72.1278 154.859 72.099 154.81 72.0895C154.761 72.0801 154.711 72.0908 154.669 72.1195L153.952 72.6279C153.911 72.6575 153.883 72.7024 153.873 72.7533C153.863 72.8042 153.872 72.8572 153.898 72.9013L154.343 73.6204C154.371 73.6638 154.413 73.6943 154.462 73.7056C154.51 73.7169 154.561 73.7082 154.604 73.6811L155.363 73.1808C155.385 73.1661 155.403 73.147 155.417 73.1247C155.432 73.1024 155.442 73.0774 155.447 73.051C155.452 73.0246 155.452 72.9974 155.447 72.971C155.442 72.9446 155.432 72.9195 155.417 72.8973Z" fill="black"/>
<path opacity="0.1" d="M154.06 73.8839L153.574 73.1567C153.545 73.1144 153.502 73.0855 153.453 73.0761C153.404 73.0667 153.353 73.0774 153.312 73.1061L152.593 73.6145C152.552 73.6444 152.524 73.6899 152.514 73.7412C152.504 73.7926 152.514 73.8459 152.541 73.89L152.986 74.6091C153.014 74.6522 153.057 74.6823 153.105 74.6932C153.153 74.7042 153.204 74.6951 153.246 74.6678L154.004 74.1675C154.026 74.1529 154.044 74.134 154.059 74.1118C154.073 74.0895 154.084 74.0645 154.089 74.0381C154.094 74.0116 154.094 73.9844 154.089 73.9579C154.084 73.9315 154.074 73.9063 154.06 73.8839Z" fill="black"/>
<path opacity="0.1" d="M152.685 74.8842L152.2 74.1551C152.17 74.1133 152.127 74.0848 152.079 74.0754C152.031 74.066 151.981 74.0764 151.939 74.1044L151.22 74.6148C151.18 74.6447 151.152 74.6898 151.142 74.7406C151.132 74.7915 151.142 74.8444 151.168 74.8883L151.613 75.6073C151.641 75.6502 151.683 75.6803 151.731 75.6916C151.779 75.7029 151.829 75.6945 151.872 75.6681L152.631 75.1658C152.653 75.1511 152.671 75.1321 152.685 75.1099C152.699 75.0878 152.709 75.0629 152.714 75.0368C152.719 75.0106 152.719 74.9837 152.714 74.9575C152.709 74.9313 152.7 74.9064 152.685 74.8842Z" fill="black"/>
<path opacity="0.1" d="M151.313 75.883L150.827 75.1557C150.798 75.1134 150.754 75.0846 150.705 75.0751C150.657 75.0657 150.606 75.0764 150.565 75.1051L149.847 75.6136C149.807 75.6432 149.778 75.6881 149.768 75.739C149.758 75.7899 149.767 75.8429 149.793 75.887L150.239 76.6062C150.266 76.6496 150.309 76.6801 150.357 76.6915C150.406 76.7028 150.457 76.694 150.499 76.667L151.259 76.1646C151.28 76.1498 151.298 76.1309 151.312 76.1087C151.326 76.0866 151.336 76.0617 151.341 76.0356C151.346 76.0094 151.346 75.9825 151.341 75.9563C151.337 75.9301 151.327 75.9052 151.313 75.883Z" fill="black"/>
<path opacity="0.1" d="M150 76.9725L149.396 76.0691C149.39 76.059 149.381 76.0504 149.372 76.0437C149.362 76.037 149.352 76.0324 149.34 76.0302C149.329 76.0279 149.317 76.028 149.306 76.0305C149.295 76.033 149.284 76.0379 149.275 76.0447L148.392 76.6707C148.382 76.6772 148.374 76.6858 148.367 76.6958C148.361 76.7058 148.356 76.7171 148.354 76.7289C148.351 76.7408 148.351 76.7531 148.353 76.765C148.356 76.7769 148.36 76.7882 148.367 76.7983L148.92 77.6916C148.933 77.7121 148.952 77.7266 148.975 77.7319C148.998 77.7372 149.022 77.7329 149.041 77.72L149.975 77.1123C149.986 77.1056 149.995 77.0964 150.003 77.0854C150.01 77.0744 150.015 77.0618 150.018 77.0485C150.02 77.0352 150.02 77.0215 150.017 77.0084C150.014 76.9952 150.008 76.983 150 76.9725Z" fill="black"/>
<path opacity="0.1" d="M148.627 77.9711L148.02 77.0677C148.013 77.0576 148.005 77.049 147.995 77.0423C147.985 77.0356 147.974 77.031 147.963 77.0287C147.951 77.0264 147.94 77.0266 147.928 77.0291C147.917 77.0316 147.906 77.0365 147.896 77.0434L147.013 77.6693C146.994 77.6832 146.981 77.7044 146.977 77.7282C146.973 77.752 146.978 77.7767 146.99 77.7969L147.544 78.6902C147.549 78.7008 147.557 78.71 147.567 78.7172C147.576 78.7245 147.587 78.7296 147.598 78.7323C147.61 78.7349 147.622 78.7351 147.633 78.7327C147.645 78.7304 147.655 78.7255 147.665 78.7186L148.596 78.1109C148.608 78.1051 148.619 78.0964 148.627 78.0857C148.635 78.075 148.641 78.0624 148.644 78.0489C148.647 78.0354 148.647 78.0214 148.644 78.008C148.641 77.9945 148.635 77.9819 148.627 77.9711Z" fill="black"/>
<path opacity="0.1" d="M147.411 78.8563L146.807 77.9612C146.794 77.9416 146.773 77.9284 146.751 77.9242C146.728 77.9201 146.705 77.9253 146.686 77.9389L145.803 78.5627C145.783 78.5766 145.77 78.598 145.765 78.6222C145.761 78.6463 145.765 78.6715 145.778 78.6923L146.331 79.5854C146.344 79.6055 146.364 79.6197 146.386 79.6249C146.409 79.6302 146.433 79.6262 146.452 79.6137L147.386 79.0062C147.398 78.9998 147.41 78.9903 147.418 78.9785C147.427 78.9666 147.433 78.9528 147.435 78.9381C147.438 78.9234 147.437 78.9083 147.432 78.8941C147.428 78.8798 147.421 78.8669 147.411 78.8563Z" fill="black"/>
<path opacity="0.1" d="M146.049 79.8448L145.446 78.9414C145.432 78.9219 145.412 78.9086 145.389 78.9045C145.367 78.9003 145.343 78.9056 145.324 78.9191L144.441 79.543C144.432 79.5497 144.423 79.5584 144.417 79.5686C144.41 79.5788 144.405 79.5903 144.403 79.6023C144.401 79.6144 144.401 79.6268 144.403 79.6388C144.405 79.6509 144.41 79.6624 144.416 79.6726L144.97 80.5659C144.983 80.586 145.002 80.6001 145.025 80.6054C145.048 80.6107 145.071 80.6067 145.091 80.5942L146.024 79.9866C146.035 79.9797 146.045 79.9703 146.053 79.9591C146.06 79.9479 146.065 79.9352 146.068 79.9217C146.07 79.9082 146.07 79.8944 146.066 79.8811C146.063 79.8679 146.057 79.8555 146.049 79.8448Z" fill="black"/>
<path opacity="0.1" d="M144.731 80.7967L144.127 79.8933C144.121 79.8832 144.113 79.8746 144.103 79.8679C144.093 79.8613 144.083 79.8567 144.071 79.8544C144.06 79.8521 144.049 79.8523 144.037 79.8548C144.026 79.8573 144.015 79.8621 144.006 79.869L143.123 80.4949C143.113 80.5014 143.105 80.51 143.098 80.52C143.092 80.53 143.087 80.5413 143.085 80.5532C143.082 80.565 143.082 80.5773 143.085 80.5892C143.087 80.6011 143.091 80.6124 143.098 80.6225L143.651 81.5158C143.664 81.5363 143.684 81.5508 143.706 81.5561C143.729 81.5614 143.753 81.5571 143.773 81.5442L144.706 80.9365C144.717 80.9298 144.727 80.9206 144.734 80.9096C144.742 80.8986 144.747 80.886 144.749 80.8727C144.751 80.8594 144.751 80.8457 144.748 80.8326C144.745 80.8195 144.739 80.8072 144.731 80.7967Z" fill="black"/>
<path opacity="0.1" d="M143.412 81.7646L142.814 80.8594C142.801 80.8398 142.78 80.8266 142.758 80.8224C142.735 80.8183 142.712 80.8235 142.693 80.8371L141.81 81.4609C141.8 81.4676 141.792 81.4763 141.785 81.4865C141.778 81.4967 141.774 81.5081 141.772 81.5202C141.769 81.5322 141.769 81.5446 141.771 81.5567C141.774 81.5688 141.778 81.5803 141.785 81.5905L142.338 82.4836C142.351 82.5037 142.371 82.5179 142.393 82.5231C142.416 82.5284 142.44 82.5244 142.459 82.5119L143.393 81.9044C143.403 81.8972 143.413 81.8876 143.419 81.8764C143.426 81.8651 143.431 81.8524 143.433 81.8392C143.435 81.8259 143.434 81.8124 143.43 81.7995C143.426 81.7866 143.42 81.7748 143.412 81.7646Z" fill="black"/>
<path opacity="0.1" d="M142.093 82.7229L141.49 81.8195C141.483 81.8095 141.475 81.8009 141.465 81.7942C141.456 81.7875 141.445 81.7829 141.434 81.7807C141.422 81.7784 141.411 81.7785 141.4 81.781C141.388 81.7835 141.378 81.7884 141.368 81.7952L140.485 82.4171C140.475 82.4236 140.467 82.4322 140.461 82.4422C140.454 82.4522 140.449 82.4634 140.447 82.4753C140.445 82.4872 140.445 82.4995 140.447 82.5114C140.449 82.5233 140.454 82.5346 140.46 82.5447L141.013 83.4379C141.026 83.4585 141.046 83.4729 141.069 83.4782C141.091 83.4836 141.115 83.4793 141.135 83.4663L142.068 82.8586C142.079 82.8519 142.088 82.8429 142.095 82.8322C142.102 82.8215 142.107 82.8094 142.109 82.7966C142.112 82.7838 142.111 82.7707 142.109 82.758C142.106 82.7453 142.101 82.7333 142.093 82.7229Z" fill="black"/>
<path opacity="0.1" d="M155.841 70.6389L155.355 69.9096C155.326 69.8673 155.283 69.8385 155.234 69.829C155.185 69.8196 155.135 69.8303 155.093 69.859L154.382 70.3695C154.341 70.399 154.313 70.4439 154.303 70.4949C154.293 70.5458 154.302 70.5988 154.328 70.6429L154.773 71.362C154.801 71.4051 154.844 71.4352 154.892 71.4462C154.941 71.4571 154.991 71.448 155.034 71.4208L155.793 70.9204C155.835 70.8898 155.864 70.8429 155.873 70.7901C155.882 70.7373 155.87 70.6829 155.841 70.6389Z" fill="black"/>
<path opacity="0.1" d="M153.942 67.7565L153.456 67.0232C153.427 66.9815 153.384 66.953 153.336 66.9436C153.288 66.9342 153.238 66.9445 153.196 66.9726L152.477 67.481C152.436 67.5106 152.408 67.5555 152.398 67.6064C152.388 67.6573 152.397 67.7103 152.423 67.7545L152.868 68.4736C152.896 68.517 152.938 68.5476 152.987 68.5589C153.035 68.5702 153.086 68.5614 153.129 68.5344L153.888 68.034C153.93 68.0044 153.959 67.9587 153.969 67.9068C153.979 67.855 153.97 67.801 153.942 67.7565Z" fill="black"/>
<path opacity="0.1" d="M154.548 71.5787L154.062 70.8516C154.033 70.8099 153.99 70.7814 153.942 70.7719C153.893 70.7625 153.843 70.7729 153.802 70.801L153.083 71.3093C153.042 71.3392 153.014 71.3843 153.005 71.4351C152.995 71.486 153.004 71.5388 153.031 71.5828L153.474 72.3018C153.502 72.3452 153.544 72.3757 153.593 72.387C153.641 72.3983 153.692 72.3896 153.734 72.3625L154.494 71.8623C154.515 71.8475 154.534 71.8285 154.548 71.8062C154.563 71.7839 154.573 71.7588 154.578 71.7324C154.583 71.706 154.583 71.6788 154.578 71.6524C154.572 71.626 154.562 71.601 154.548 71.5787Z" fill="black"/>
<path opacity="0.1" d="M153.19 72.5652L152.704 71.8381C152.675 71.7958 152.632 71.7669 152.583 71.7575C152.534 71.7481 152.484 71.7588 152.442 71.7875L151.725 72.2897C151.684 72.3194 151.655 72.3646 151.645 72.416C151.635 72.4674 151.644 72.5208 151.671 72.5652L152.116 73.2842C152.144 73.3272 152.187 73.3573 152.235 73.3683C152.284 73.3792 152.334 73.3701 152.377 73.3429L153.136 72.8426C153.178 72.813 153.207 72.7673 153.217 72.7155C153.227 72.6636 153.218 72.6097 153.19 72.5652Z" fill="black"/>
<path opacity="0.1" d="M151.816 73.5658L151.332 72.8366C151.303 72.7943 151.259 72.7655 151.21 72.756C151.162 72.7466 151.111 72.7573 151.07 72.786L150.351 73.3025C150.31 73.3324 150.282 73.3774 150.273 73.4283C150.263 73.4791 150.272 73.532 150.298 73.5759L150.744 74.2949C150.772 74.338 150.814 74.3681 150.863 74.379C150.911 74.39 150.962 74.3809 151.004 74.3536L151.762 73.8534C151.784 73.8386 151.803 73.8194 151.817 73.7967C151.832 73.7741 151.842 73.7486 151.847 73.7217C151.852 73.6948 151.852 73.6671 151.847 73.6403C151.841 73.6135 151.831 73.5881 151.816 73.5658Z" fill="black"/>
<path opacity="0.1" d="M152.68 68.743L152.194 68.0159C152.165 67.9742 152.122 67.9457 152.073 67.9362C152.025 67.9268 151.975 67.9372 151.934 67.9653L151.214 68.4736C151.174 68.5032 151.145 68.5481 151.135 68.599C151.125 68.6499 151.134 68.7029 151.16 68.7471L151.606 69.4661C151.633 69.5095 151.676 69.54 151.724 69.5513C151.773 69.5626 151.824 69.5539 151.866 69.5268L152.626 69.0266C152.647 69.0118 152.666 68.9928 152.68 68.9705C152.694 68.9482 152.704 68.9231 152.709 68.8967C152.714 68.8703 152.714 68.8431 152.709 68.8167C152.704 68.7903 152.694 68.7653 152.68 68.743Z" fill="black"/>
<path opacity="0.1" d="M151.322 69.7315L150.836 69.0024C150.807 68.9601 150.764 68.9312 150.715 68.9218C150.666 68.9124 150.616 68.9231 150.574 68.9518L149.857 69.4541C149.816 69.4837 149.788 69.5285 149.778 69.5794C149.768 69.6303 149.777 69.6833 149.803 69.7275L150.248 70.4465C150.276 70.4896 150.319 70.5197 150.367 70.5306C150.416 70.5416 150.466 70.5325 150.509 70.5052L151.268 70.005C151.309 69.9754 151.337 69.9305 151.347 69.8796C151.357 69.8287 151.348 69.7757 151.322 69.7315Z" fill="black"/>
<path opacity="0.1" d="M149.948 70.7299L149.462 70.0029C149.433 69.9608 149.39 69.9319 149.342 69.9221C149.293 69.9123 149.243 69.9224 149.202 69.9502L148.483 70.4666C148.442 70.4965 148.414 70.5416 148.405 70.5924C148.395 70.6433 148.404 70.6961 148.431 70.74L148.876 71.459C148.903 71.5024 148.946 71.5329 148.994 71.5442C149.043 71.5556 149.094 71.5468 149.136 71.5197L149.894 71.0175C149.916 71.0028 149.935 70.9835 149.95 70.9609C149.964 70.9383 149.974 70.9127 149.979 70.8858C149.984 70.859 149.984 70.8313 149.979 70.8045C149.973 70.7777 149.963 70.7523 149.948 70.7299Z" fill="black"/>
<path opacity="0.1" d="M150.443 74.5643L149.957 73.8371C149.929 73.795 149.886 73.7661 149.837 73.7563C149.789 73.7465 149.739 73.7566 149.697 73.7845L148.984 74.2949C148.943 74.3248 148.916 74.3699 148.906 74.4207C148.896 74.4716 148.905 74.5245 148.932 74.5684L149.369 75.2875C149.397 75.3303 149.439 75.3605 149.487 75.3718C149.535 75.3831 149.585 75.3747 149.628 75.3482L150.387 74.8459C150.409 74.8313 150.427 74.8125 150.441 74.7904C150.456 74.7684 150.466 74.7435 150.471 74.7173C150.476 74.6912 150.477 74.6642 150.472 74.6379C150.467 74.6116 150.457 74.5866 150.443 74.5643Z" fill="black"/>
<path opacity="0.1" d="M149.07 75.563L148.585 74.8359C148.556 74.7936 148.512 74.7647 148.463 74.7553C148.414 74.7459 148.364 74.7566 148.322 74.7853L147.605 75.2936C147.565 75.3232 147.536 75.3681 147.526 75.419C147.516 75.4699 147.525 75.5229 147.551 75.5671L147.997 76.2861C148.024 76.3295 148.067 76.3601 148.115 76.3714C148.164 76.3827 148.214 76.3739 148.257 76.3469L149.016 75.8466C149.038 75.8319 149.056 75.8128 149.071 75.7905C149.085 75.7682 149.095 75.7431 149.1 75.7167C149.105 75.6903 149.105 75.6631 149.1 75.6367C149.095 75.6104 149.085 75.5853 149.07 75.563Z" fill="black"/>
<path opacity="0.1" d="M147.757 76.6525L147.154 75.7492C147.148 75.7392 147.139 75.7306 147.13 75.7239C147.12 75.7172 147.109 75.7126 147.098 75.7104C147.087 75.7081 147.075 75.7082 147.064 75.7107C147.053 75.7132 147.042 75.718 147.033 75.7249L146.149 76.3507C146.14 76.3573 146.131 76.3658 146.125 76.3758C146.118 76.3858 146.114 76.3971 146.111 76.409C146.109 76.4209 146.109 76.4331 146.111 76.445C146.113 76.4569 146.118 76.4683 146.124 76.4783L146.678 77.3715C146.684 77.3819 146.692 77.3908 146.701 77.3979C146.711 77.405 146.721 77.41 146.733 77.4126C146.744 77.4153 146.756 77.4155 146.767 77.4133C146.779 77.4111 146.79 77.4065 146.799 77.3998L147.732 76.7923C147.744 76.7856 147.753 76.7764 147.761 76.7654C147.768 76.7544 147.773 76.7418 147.776 76.7285C147.778 76.7152 147.778 76.7015 147.775 76.6884C147.771 76.6753 147.766 76.663 147.757 76.6525Z" fill="black"/>
<path opacity="0.1" d="M146.541 77.5377L145.938 76.6323C145.924 76.6128 145.904 76.5995 145.881 76.5954C145.858 76.5912 145.835 76.5965 145.816 76.61L144.935 77.2339C144.916 77.2479 144.902 77.2692 144.898 77.2934C144.893 77.3176 144.897 77.3427 144.91 77.3635L145.463 78.2568C145.476 78.2769 145.496 78.291 145.519 78.2963C145.541 78.3016 145.565 78.2976 145.585 78.2851L146.518 77.6775C146.529 77.6712 146.54 77.6621 146.547 77.651C146.555 77.64 146.56 77.6272 146.562 77.6136C146.565 77.6001 146.564 77.5862 146.56 77.573C146.556 77.5599 146.55 77.5478 146.541 77.5377Z" fill="black"/>
<path opacity="0.1" d="M145.18 78.5261L144.577 77.6226C144.563 77.603 144.543 77.5898 144.52 77.5856C144.497 77.5815 144.474 77.5867 144.455 77.6003L143.572 78.2242C143.562 78.2308 143.554 78.2393 143.547 78.2493C143.541 78.2593 143.536 78.2706 143.534 78.2825C143.532 78.2944 143.532 78.3066 143.534 78.3185C143.536 78.3305 143.541 78.3418 143.547 78.3518L144.1 79.2472C144.113 79.2674 144.133 79.2815 144.156 79.2868C144.178 79.2921 144.202 79.2881 144.222 79.2756L145.155 78.6679C145.166 78.661 145.176 78.6516 145.183 78.6404C145.191 78.6292 145.196 78.6165 145.198 78.603C145.201 78.5895 145.2 78.5757 145.197 78.5624C145.194 78.5491 145.188 78.5367 145.18 78.5261Z" fill="black"/>
<path opacity="0.1" d="M143.861 79.4863L143.258 78.583C143.251 78.5729 143.243 78.5643 143.233 78.5576C143.224 78.551 143.213 78.5464 143.202 78.5441C143.191 78.5418 143.179 78.542 143.168 78.5445C143.156 78.547 143.146 78.5518 143.136 78.5587L142.253 79.1764C142.244 79.183 142.235 79.1915 142.229 79.2015C142.222 79.2115 142.218 79.2228 142.215 79.2347C142.213 79.2466 142.213 79.2588 142.215 79.2707C142.217 79.2826 142.222 79.2939 142.228 79.304L142.782 80.1972C142.794 80.2177 142.814 80.2322 142.837 80.2375C142.859 80.2428 142.883 80.2385 142.903 80.2256L143.836 79.6179C143.846 79.6112 143.855 79.6024 143.862 79.592C143.868 79.5817 143.873 79.57 143.875 79.5577C143.878 79.5454 143.878 79.5328 143.875 79.5205C143.873 79.5082 143.868 79.4966 143.861 79.4863Z" fill="black"/>
<path opacity="0.1" d="M152.287 71.1938L151.801 70.4666C151.772 70.4248 151.729 70.3963 151.68 70.3869C151.632 70.3775 151.582 70.3879 151.541 70.416L150.821 70.9264C150.781 70.9563 150.753 71.0014 150.743 71.0523C150.734 71.1031 150.743 71.156 150.769 71.1999L151.215 71.919C151.243 71.9616 151.285 71.9913 151.333 72.0023C151.381 72.0132 151.431 72.0044 151.473 71.9778L152.233 71.4774C152.254 71.4627 152.273 71.4436 152.287 71.4213C152.301 71.399 152.311 71.3739 152.316 71.3475C152.321 71.3211 152.321 71.2939 152.316 71.2675C152.311 71.2412 152.301 71.2161 152.287 71.1938Z" fill="black"/>
<path opacity="0.1" d="M150.912 72.1944L150.426 71.4653C150.397 71.423 150.353 71.3941 150.304 71.3847C150.255 71.3753 150.205 71.386 150.163 71.4147L149.446 71.9251C149.406 71.9546 149.377 71.9995 149.367 72.0504C149.357 72.1013 149.366 72.1543 149.392 72.1985L149.838 72.9175C149.865 72.9609 149.908 72.9914 149.956 73.0027C150.005 73.0141 150.055 73.0053 150.098 72.9782L150.858 72.476C150.879 72.4612 150.897 72.4423 150.911 72.4201C150.925 72.398 150.935 72.3731 150.94 72.347C150.945 72.3208 150.945 72.2939 150.94 72.2677C150.935 72.2415 150.926 72.2166 150.912 72.1944Z" fill="black"/>
<path opacity="0.1" d="M149.541 73.1932L149.055 72.466C149.026 72.4237 148.983 72.3949 148.934 72.3854C148.885 72.376 148.834 72.3867 148.793 72.4154L148.074 72.9238C148.034 72.9537 148.006 72.9987 147.996 73.0496C147.986 73.1005 147.996 73.1533 148.022 73.1972L148.467 73.9163C148.495 73.9597 148.537 73.9902 148.586 74.0015C148.634 74.0128 148.685 74.0041 148.727 73.977L149.485 73.4747C149.506 73.4601 149.525 73.4413 149.539 73.4192C149.554 73.3972 149.564 73.3723 149.569 73.3462C149.574 73.32 149.574 73.293 149.569 73.2667C149.565 73.2405 149.555 73.2155 149.541 73.1932Z" fill="black"/>
<path opacity="0.1" d="M148.166 74.1917L147.68 73.4644C147.651 73.4227 147.608 73.3942 147.56 73.3847C147.511 73.3753 147.461 73.3857 147.42 73.4138L146.701 73.9222C146.66 73.9521 146.633 73.9972 146.623 74.0481C146.613 74.099 146.622 74.1518 146.649 74.1957L147.094 74.923C147.122 74.9658 147.164 74.996 147.212 75.0073C147.26 75.0186 147.31 75.0102 147.352 74.9837L148.112 74.4834C148.135 74.4687 148.154 74.4492 148.169 74.4262C148.184 74.4033 148.195 74.3773 148.2 74.3499C148.205 74.3225 148.204 74.2943 148.199 74.2671C148.193 74.2399 148.182 74.2142 148.166 74.1917Z" fill="black"/>
<path opacity="0.1" d="M146.863 75.2812L146.259 74.3779C146.253 74.3678 146.245 74.3592 146.235 74.3525C146.226 74.3459 146.215 74.3413 146.204 74.339C146.192 74.3367 146.181 74.3369 146.169 74.3394C146.158 74.3419 146.147 74.3467 146.138 74.3536L145.255 74.9794C145.236 74.9931 145.222 75.014 145.218 75.0379C145.213 75.0617 145.217 75.0866 145.23 75.1071L145.783 76.0023C145.789 76.0125 145.798 76.0213 145.807 76.0282C145.817 76.0351 145.827 76.0399 145.839 76.0423C145.85 76.0448 145.862 76.0448 145.873 76.0425C145.884 76.0401 145.895 76.0354 145.905 76.0286L146.838 75.421C146.849 75.4143 146.859 75.4051 146.866 75.3941C146.874 75.3831 146.879 75.3705 146.881 75.3572C146.884 75.3439 146.883 75.3302 146.88 75.3171C146.877 75.304 146.871 75.2917 146.863 75.2812Z" fill="black"/>
<path opacity="0.1" d="M145.638 76.1665L145.035 75.2612C145.021 75.2415 145 75.2282 144.977 75.224C144.955 75.2199 144.931 75.2252 144.912 75.2389L144.03 75.8627C144.011 75.8767 143.998 75.898 143.993 75.9222C143.988 75.9463 143.993 75.9715 144.005 75.9923L144.559 76.8855C144.571 76.906 144.591 76.9205 144.614 76.9258C144.637 76.9311 144.66 76.9268 144.68 76.9138L145.613 76.3062C145.625 76.2995 145.634 76.2904 145.642 76.2794C145.649 76.2683 145.654 76.2557 145.657 76.2424C145.659 76.2291 145.659 76.2155 145.655 76.2023C145.652 76.1892 145.646 76.177 145.638 76.1665Z" fill="black"/>
<path opacity="0.1" d="M144.278 77.1507L143.674 76.2453C143.661 76.2256 143.64 76.2123 143.617 76.2082C143.594 76.204 143.57 76.2093 143.551 76.223L142.668 76.8469C142.649 76.8612 142.636 76.8825 142.631 76.9065C142.627 76.9306 142.631 76.9556 142.643 76.9765L143.198 77.8698C143.211 77.8903 143.231 77.9048 143.253 77.9101C143.276 77.9154 143.3 77.9111 143.32 77.8982L144.251 77.2905C144.262 77.2843 144.273 77.2754 144.281 77.2644C144.288 77.2535 144.294 77.2409 144.296 77.2275C144.299 77.214 144.299 77.2001 144.295 77.1869C144.292 77.1736 144.286 77.1612 144.278 77.1507Z" fill="black"/>
<path opacity="0.1" d="M142.959 78.1149L142.356 77.2115C142.349 77.2014 142.341 77.1928 142.331 77.1861C142.321 77.1794 142.31 77.1748 142.299 77.1725C142.287 77.1702 142.276 77.1704 142.264 77.1729C142.253 77.1754 142.242 77.1803 142.232 77.1872L141.349 77.8131C141.33 77.827 141.317 77.8482 141.313 77.872C141.309 77.8958 141.313 77.9205 141.326 77.9407L141.879 78.834C141.885 78.8446 141.893 78.8538 141.903 78.861C141.912 78.8683 141.923 78.8734 141.934 78.8761C141.946 78.8787 141.958 78.8789 141.969 78.8765C141.98 78.8742 141.991 78.8694 142.001 78.8624L142.932 78.2547C142.944 78.2485 142.954 78.2396 142.962 78.2286C142.97 78.2177 142.975 78.2051 142.978 78.1917C142.98 78.1782 142.98 78.1644 142.977 78.1511C142.974 78.1378 142.968 78.1254 142.959 78.1149Z" fill="black"/>
<path opacity="0.1" d="M142.542 80.4443L141.939 79.541C141.925 79.5215 141.905 79.5082 141.882 79.5041C141.86 79.4999 141.836 79.5052 141.817 79.5187L140.934 80.1425C140.925 80.1491 140.916 80.1576 140.91 80.1676C140.903 80.1776 140.899 80.1889 140.896 80.2008C140.894 80.2126 140.894 80.2249 140.896 80.2368C140.898 80.2487 140.903 80.26 140.909 80.2701L141.463 81.1652C141.476 81.1853 141.495 81.1995 141.518 81.2048C141.541 81.21 141.564 81.206 141.584 81.1936L142.517 80.586C142.528 80.5791 142.538 80.5698 142.546 80.5586C142.553 80.5474 142.558 80.5346 142.561 80.5212C142.563 80.5077 142.563 80.4939 142.559 80.4806C142.556 80.4673 142.55 80.4549 142.542 80.4443Z" fill="black"/>
<path opacity="0.1" d="M141.224 81.4044L140.62 80.5009C140.614 80.4909 140.606 80.4823 140.596 80.4756C140.586 80.4689 140.576 80.4643 140.564 80.4621C140.553 80.4598 140.541 80.4599 140.53 80.4624C140.519 80.4649 140.508 80.4698 140.499 80.4766L139.616 81.1026C139.606 81.1091 139.598 81.1176 139.591 81.1277C139.585 81.1377 139.58 81.1489 139.578 81.1608C139.575 81.1727 139.575 81.185 139.578 81.1969C139.58 81.2088 139.584 81.2201 139.591 81.2302L140.144 82.1235C140.157 82.144 140.177 82.1585 140.199 82.1638C140.222 82.1691 140.246 82.1648 140.266 82.1518L141.199 81.5441C141.21 81.5375 141.22 81.5283 141.227 81.5173C141.235 81.5063 141.24 81.4937 141.242 81.4804C141.244 81.4671 141.244 81.4534 141.241 81.4402C141.238 81.4271 141.232 81.4149 141.224 81.4044Z" fill="black"/>
<path opacity="0.1" d="M143.294 75.6642L142.716 74.8137C142.698 74.7873 142.67 74.7693 142.64 74.7636C142.609 74.758 142.578 74.765 142.552 74.7833L141.719 75.3726C141.706 75.3816 141.695 75.3932 141.686 75.4067C141.678 75.4203 141.672 75.4355 141.669 75.4515C141.665 75.4675 141.666 75.484 141.669 75.5C141.672 75.516 141.678 75.5312 141.686 75.5447L142.207 76.3851C142.215 76.399 142.226 76.4111 142.238 76.4206C142.251 76.43 142.265 76.4368 142.28 76.4404C142.295 76.444 142.311 76.4443 142.326 76.4414C142.341 76.4386 142.356 76.4325 142.369 76.4236L143.25 75.8424C143.264 75.8343 143.277 75.823 143.287 75.8095C143.298 75.7959 143.305 75.7802 143.309 75.7635C143.313 75.7468 143.314 75.7293 143.312 75.7122C143.309 75.6951 143.303 75.6788 143.294 75.6642Z" fill="black"/>
<path opacity="0.1" d="M141.976 76.6241L141.407 75.7734C141.398 75.7599 141.387 75.7484 141.374 75.7394C141.361 75.7305 141.347 75.7244 141.331 75.7214C141.316 75.7184 141.3 75.7185 141.285 75.7219C141.27 75.7253 141.256 75.7317 141.243 75.741L140.41 76.3405C140.397 76.3493 140.386 76.3607 140.377 76.3741C140.369 76.3874 140.363 76.4025 140.36 76.4183C140.357 76.4342 140.357 76.4505 140.36 76.4663C140.363 76.4822 140.369 76.4972 140.377 76.5106L140.898 77.3532C140.915 77.3804 140.941 77.3996 140.971 77.4068C141.002 77.414 141.033 77.4086 141.06 77.3917L141.941 76.8104C141.956 76.8014 141.969 76.7892 141.979 76.7746C141.989 76.7599 141.996 76.7432 141.999 76.7256C142.002 76.7079 142.002 76.6897 141.998 76.6722C141.994 76.6546 141.986 76.6382 141.976 76.6241Z" fill="black"/>
<path opacity="0.1" d="M140.657 77.5842L140.088 76.7314C140.07 76.705 140.042 76.687 140.012 76.6814C139.981 76.6757 139.95 76.6827 139.924 76.701L139.091 77.2905C139.078 77.2995 139.067 77.3111 139.058 77.3246C139.05 77.3382 139.044 77.3534 139.041 77.3694C139.038 77.3854 139.038 77.4019 139.041 77.4179C139.044 77.4339 139.05 77.4492 139.058 77.4627L139.579 78.3033C139.587 78.3172 139.598 78.3293 139.61 78.3388C139.623 78.3483 139.637 78.355 139.652 78.3586C139.667 78.3622 139.683 78.3625 139.698 78.3597C139.713 78.3568 139.728 78.3507 139.741 78.3418L140.622 77.7605C140.636 77.7516 140.647 77.74 140.657 77.7262C140.666 77.7124 140.672 77.6967 140.676 77.6802C140.679 77.6637 140.679 77.6467 140.676 77.6302C140.672 77.6137 140.666 77.598 140.657 77.5842Z" fill="black"/>
<path opacity="0.1" d="M139.356 78.5686L138.752 77.6631C138.739 77.6436 138.718 77.6303 138.696 77.6261C138.673 77.622 138.65 77.6273 138.631 77.6408L137.748 78.2648C137.728 78.2787 137.715 78.3001 137.71 78.3243C137.706 78.3484 137.71 78.3736 137.723 78.3944L138.276 79.2878C138.289 79.3079 138.309 79.322 138.331 79.3273C138.354 79.3326 138.378 79.3286 138.397 79.3161L139.331 78.7084C139.342 78.7023 139.353 78.6934 139.36 78.6824C139.368 78.6714 139.374 78.6586 139.376 78.6451C139.379 78.6315 139.378 78.6176 139.374 78.6043C139.371 78.591 139.364 78.5788 139.356 78.5686Z" fill="black"/>
<path opacity="0.1" d="M154.96 69.2211L154.438 68.4412C154.408 68.3992 154.365 68.3708 154.316 68.3617C154.267 68.3527 154.217 68.3637 154.175 68.3926L152.136 69.8935C152.096 69.9237 152.069 69.9685 152.06 70.0189C152.05 70.0692 152.06 70.1215 152.086 70.165L152.577 70.963C152.591 70.9851 152.609 71.0041 152.631 71.0188C152.652 71.0335 152.675 71.0437 152.7 71.0488C152.725 71.0539 152.751 71.0537 152.776 71.0484C152.801 71.0431 152.824 71.0326 152.845 71.0177L154.916 69.4965C154.955 69.4654 154.982 69.4194 154.99 69.3681C154.999 69.3168 154.988 69.2642 154.96 69.2211Z" fill="black"/>
<path opacity="0.1" d="M141.636 79.0447L140.996 78.0948C140.989 78.0846 140.981 78.0759 140.971 78.0693C140.961 78.0626 140.95 78.0581 140.939 78.056C140.927 78.0539 140.916 78.0543 140.904 78.0571C140.893 78.06 140.882 78.0652 140.873 78.0725L138.671 79.6928C138.652 79.7063 138.639 79.7271 138.635 79.7506C138.631 79.7741 138.635 79.7984 138.648 79.8184L139.249 80.7966C139.256 80.8072 139.264 80.8163 139.274 80.8233C139.284 80.8304 139.295 80.8353 139.307 80.8378C139.318 80.8402 139.33 80.8402 139.342 80.8377C139.354 80.8351 139.365 80.8301 139.375 80.8229L141.613 79.1763C141.633 79.162 141.646 79.1401 141.65 79.1155C141.655 79.0908 141.65 79.0654 141.636 79.0447Z" fill="black"/>
<path opacity="0.1" d="M148.64 71.7792L148.05 70.8717C148.037 70.8519 148.017 70.8382 147.994 70.8337C147.972 70.8291 147.948 70.8341 147.929 70.8474L143.04 74.3152C143.02 74.3288 143.007 74.3497 143.002 74.3736C142.998 74.3974 143.002 74.4223 143.015 74.4428L143.618 75.415C143.624 75.4256 143.633 75.4347 143.643 75.4418C143.653 75.4488 143.664 75.4537 143.675 75.4562C143.687 75.4587 143.699 75.4586 143.711 75.4561C143.722 75.4535 143.734 75.4485 143.743 75.4414L148.617 71.9088C148.627 71.9019 148.635 71.8931 148.641 71.8828C148.648 71.8726 148.652 71.8611 148.654 71.849C148.656 71.837 148.656 71.8246 148.654 71.8126C148.652 71.8007 148.647 71.7893 148.64 71.7792Z" fill="black"/>
</g>
<path d="M156.838 71.9818L156.352 71.2526C156.323 71.2103 156.28 71.1815 156.231 71.172C156.182 71.1626 156.131 71.1733 156.09 71.202L155.373 71.7124C155.332 71.742 155.304 71.7869 155.294 71.8378C155.284 71.8887 155.293 71.9417 155.319 71.9858L155.764 72.7048C155.792 72.7482 155.834 72.7788 155.883 72.7901C155.931 72.8014 155.982 72.7926 156.024 72.7656L156.784 72.2633C156.805 72.2486 156.823 72.2296 156.838 72.2075C156.852 72.1854 156.862 72.1605 156.867 72.1343C156.872 72.1082 156.872 72.0812 156.867 72.055C156.862 72.0289 156.852 72.004 156.838 71.9818Z" fill="#464A5F"/>
<path d="M155.538 72.9216L155.052 72.1944C155.023 72.1526 154.98 72.1241 154.932 72.1147C154.883 72.1053 154.833 72.1157 154.792 72.1437L154.073 72.6522C154.032 72.6818 154.004 72.7267 153.994 72.7776C153.984 72.8285 153.993 72.8815 154.019 72.9257L154.464 73.6448C154.492 73.6882 154.534 73.7187 154.583 73.73C154.631 73.7414 154.682 73.7326 154.725 73.7055L155.484 73.2052C155.506 73.1905 155.524 73.1714 155.539 73.1491C155.553 73.1268 155.563 73.1017 155.568 73.0753C155.573 73.0489 155.573 73.0217 155.568 72.9953C155.563 72.9689 155.553 72.9439 155.538 72.9216Z" fill="#464A5F"/>
<path d="M154.189 73.91L153.703 73.1828C153.674 73.1405 153.63 73.1116 153.582 73.1022C153.533 73.0928 153.482 73.1035 153.441 73.1322L152.724 73.6426C152.683 73.6722 152.655 73.7171 152.645 73.768C152.635 73.8189 152.644 73.872 152.67 73.9161L153.115 74.6352C153.143 74.6783 153.185 74.7084 153.234 74.7194C153.282 74.7303 153.333 74.7212 153.375 74.694L154.135 74.1936C154.156 74.1789 154.175 74.1598 154.189 74.1375C154.204 74.1152 154.214 74.0901 154.219 74.0637C154.224 74.0373 154.224 74.0101 154.218 73.9837C154.213 73.9574 154.203 73.9323 154.189 73.91Z" fill="#464A5F"/>
<path d="M152.812 74.9086L152.326 74.1795C152.297 74.1377 152.254 74.1092 152.206 74.0998C152.157 74.0904 152.107 74.1008 152.066 74.1288L151.347 74.6393C151.326 74.6543 151.308 74.6736 151.294 74.696C151.28 74.7185 151.27 74.7436 151.265 74.77C151.261 74.7964 151.261 74.8235 151.267 74.8497C151.272 74.876 151.282 74.9008 151.297 74.9228L151.742 75.6418C151.77 75.6852 151.812 75.7158 151.861 75.7271C151.909 75.7384 151.96 75.7297 152.002 75.7026L152.76 75.2003C152.783 75.1854 152.802 75.1659 152.817 75.1428C152.832 75.1198 152.842 75.0938 152.847 75.0664C152.852 75.039 152.851 75.0109 152.845 74.9837C152.839 74.9566 152.828 74.931 152.812 74.9086Z" fill="#464A5F"/>
<path d="M151.439 75.9071L150.954 75.18C150.925 75.1382 150.881 75.1097 150.833 75.1003C150.785 75.0909 150.735 75.1013 150.693 75.1293L149.974 75.6377C149.934 75.6676 149.906 75.7126 149.896 75.7635C149.887 75.8144 149.896 75.8672 149.922 75.9111L150.366 76.6301C150.393 76.6735 150.436 76.7041 150.484 76.7154C150.533 76.7267 150.583 76.7179 150.626 76.6909L151.385 76.1886C151.407 76.1739 151.425 76.1549 151.439 76.1328C151.453 76.1106 151.463 76.0858 151.468 76.0596C151.473 76.0335 151.473 76.0065 151.468 75.9803C151.463 75.9542 151.454 75.9293 151.439 75.9071Z" fill="#464A5F"/>
<path d="M150.127 76.9969L149.523 76.0935C149.517 76.0834 149.508 76.0748 149.499 76.0681C149.489 76.0615 149.479 76.0568 149.467 76.0546C149.456 76.0523 149.444 76.0525 149.433 76.055C149.422 76.0575 149.411 76.0623 149.402 76.0692L148.519 76.6951C148.509 76.7016 148.501 76.7102 148.494 76.7202C148.487 76.7302 148.483 76.7415 148.481 76.7534C148.478 76.7652 148.478 76.7775 148.48 76.7894C148.483 76.8013 148.487 76.8126 148.494 76.8227L149.047 77.716C149.06 77.7365 149.079 77.751 149.102 77.7563C149.125 77.7616 149.149 77.7573 149.168 77.7444L150.102 77.1367C150.113 77.13 150.122 77.1208 150.13 77.1098C150.137 77.0988 150.143 77.0862 150.145 77.0729C150.147 77.0596 150.147 77.0459 150.144 77.0328C150.141 77.0197 150.135 77.0074 150.127 76.9969Z" fill="#464A5F"/>
<path d="M148.754 77.9954L148.151 77.0921C148.144 77.082 148.136 77.0734 148.126 77.0667C148.116 77.06 148.105 77.0554 148.094 77.0531C148.082 77.0509 148.07 77.051 148.059 77.0535C148.048 77.056 148.037 77.0609 148.027 77.0678L147.146 77.6937C147.136 77.7002 147.128 77.7087 147.121 77.7188C147.115 77.7288 147.11 77.74 147.108 77.7519C147.106 77.7638 147.106 77.7761 147.108 77.788C147.11 77.7999 147.115 77.8112 147.121 77.8212L147.674 78.7164C147.681 78.7266 147.689 78.7354 147.698 78.7423C147.708 78.7492 147.718 78.754 147.73 78.7564C147.741 78.7589 147.753 78.7589 147.764 78.7566C147.775 78.7542 147.786 78.7495 147.796 78.7427L148.729 78.1352C148.74 78.1282 148.749 78.119 148.757 78.1079C148.764 78.0969 148.769 78.0844 148.771 78.0712C148.774 78.058 148.773 78.0444 148.77 78.0314C148.767 78.0183 148.762 78.0061 148.754 77.9954Z" fill="#464A5F"/>
<path d="M147.538 78.8805L146.934 77.9751C146.921 77.9556 146.9 77.9423 146.878 77.9382C146.855 77.934 146.832 77.9393 146.813 77.9528L145.93 78.5686C145.91 78.5826 145.897 78.6039 145.892 78.6281C145.888 78.6523 145.892 78.6774 145.905 78.6982L146.458 79.5915C146.471 79.6116 146.491 79.6258 146.513 79.631C146.536 79.6363 146.56 79.6323 146.579 79.6199L147.512 79.0122C147.523 79.0054 147.531 78.9966 147.538 78.9863C147.545 78.9759 147.549 78.9643 147.552 78.952C147.554 78.9397 147.554 78.927 147.552 78.9147C147.549 78.9025 147.544 78.8908 147.538 78.8805Z" fill="#464A5F"/>
<path d="M146.176 79.8712L145.573 78.9739C145.559 78.9543 145.539 78.9411 145.517 78.9369C145.494 78.9328 145.471 78.938 145.452 78.9516L144.569 79.5755C144.559 79.5822 144.55 79.5909 144.544 79.6011C144.537 79.6113 144.533 79.6227 144.53 79.6348C144.528 79.6468 144.528 79.6593 144.53 79.6713C144.532 79.6834 144.537 79.6949 144.543 79.7051L145.097 80.5983C145.11 80.6184 145.13 80.6326 145.152 80.6379C145.175 80.6431 145.198 80.6391 145.218 80.6267L146.151 80.019C146.164 80.0126 146.175 80.0031 146.183 79.9914C146.191 79.9798 146.197 79.9662 146.2 79.9518C146.202 79.9374 146.201 79.9226 146.197 79.9086C146.193 79.8946 146.186 79.8818 146.176 79.8712Z" fill="#464A5F"/>
<path d="M144.858 80.829L144.254 79.9257C144.248 79.9157 144.239 79.9071 144.23 79.9004C144.22 79.8937 144.209 79.8891 144.198 79.8869C144.187 79.8846 144.175 79.8847 144.164 79.8872C144.153 79.8897 144.142 79.8946 144.133 79.9014L143.25 80.5273C143.24 80.5338 143.231 80.5423 143.225 80.5523C143.218 80.5623 143.214 80.5736 143.212 80.5855C143.209 80.5974 143.209 80.6097 143.211 80.6216C143.214 80.6335 143.218 80.6448 143.225 80.6548L143.778 81.548C143.784 81.5584 143.792 81.5674 143.801 81.5744C143.811 81.5815 143.822 81.5865 143.833 81.5891C143.844 81.5918 143.856 81.592 143.867 81.5898C143.879 81.5876 143.89 81.583 143.899 81.5764L144.832 80.9688C144.844 80.9621 144.853 80.9529 144.861 80.9419C144.868 80.9309 144.873 80.9183 144.876 80.905C144.878 80.8917 144.878 80.878 144.875 80.8649C144.872 80.8518 144.866 80.8395 144.858 80.829Z" fill="#464A5F"/>
<path d="M143.539 81.7892L142.935 80.8838C142.922 80.8642 142.902 80.851 142.879 80.8468C142.856 80.8427 142.833 80.8479 142.814 80.8615L141.931 81.4854C141.912 81.4993 141.898 81.5207 141.893 81.5449C141.889 81.569 141.893 81.5942 141.906 81.615L142.459 82.5082C142.472 82.5284 142.492 82.5425 142.515 82.5478C142.537 82.5531 142.561 82.549 142.581 82.5366L143.514 81.9289C143.525 81.9223 143.535 81.9131 143.542 81.9021C143.55 81.8911 143.555 81.8785 143.557 81.8652C143.56 81.8519 143.559 81.8382 143.556 81.8251C143.553 81.8119 143.547 81.7997 143.539 81.7892Z" fill="#464A5F"/>
<path d="M142.221 82.7472L141.617 81.8439C141.611 81.8339 141.602 81.8253 141.593 81.8186C141.583 81.8119 141.572 81.8073 141.561 81.8051C141.55 81.8028 141.538 81.8029 141.527 81.8054C141.516 81.8079 141.505 81.8128 141.496 81.8196L140.613 82.4455C140.603 82.452 140.595 82.4606 140.588 82.4706C140.581 82.4806 140.577 82.4918 140.575 82.5037C140.572 82.5156 140.572 82.5279 140.574 82.5398C140.577 82.5517 140.581 82.563 140.588 82.5731L141.141 83.4662C141.147 83.4766 141.155 83.4856 141.164 83.4926C141.174 83.4997 141.185 83.5047 141.196 83.5074C141.207 83.51 141.219 83.5102 141.23 83.508C141.242 83.5058 141.253 83.5013 141.262 83.4946L142.195 82.887C142.207 82.8803 142.216 82.8711 142.224 82.8601C142.231 82.8491 142.236 82.8365 142.239 82.8232C142.241 82.8099 142.241 82.7962 142.238 82.7831C142.234 82.77 142.229 82.7577 142.221 82.7472Z" fill="#464A5F"/>
<path d="M155.968 70.6693L155.482 69.9402C155.453 69.8985 155.41 69.87 155.362 69.8606C155.313 69.8512 155.264 69.8615 155.222 69.8896L154.503 70.4C154.463 70.4299 154.435 70.4749 154.425 70.5258C154.415 70.5766 154.425 70.6295 154.451 70.6734L154.894 71.3923C154.922 71.4357 154.964 71.4663 155.013 71.4776C155.061 71.4889 155.112 71.4801 155.155 71.4531L155.914 70.9508C155.935 70.9361 155.954 70.9171 155.968 70.895C155.982 70.8729 155.992 70.848 155.997 70.8219C156.002 70.7957 156.002 70.7688 155.997 70.7426C155.992 70.7164 155.982 70.6915 155.968 70.6693Z" fill="#464A5F"/>
<path d="M154.069 67.7809L153.583 67.0538C153.554 67.012 153.511 66.9835 153.462 66.9741C153.414 66.9647 153.364 66.9751 153.323 67.0031L152.604 67.5115C152.563 67.5414 152.535 67.5865 152.526 67.6373C152.516 67.6882 152.525 67.7411 152.552 67.785L152.997 68.504C153.025 68.5469 153.067 68.5771 153.115 68.5884C153.163 68.5997 153.213 68.5912 153.255 68.5648L154.015 68.0645C154.036 68.0498 154.055 68.0307 154.069 68.0084C154.084 67.9861 154.094 67.961 154.099 67.9346C154.104 67.9082 154.104 67.881 154.098 67.8546C154.093 67.8282 154.083 67.8032 154.069 67.7809Z" fill="#464A5F"/>
<path d="M154.675 71.6031L154.189 70.8719C154.16 70.8301 154.117 70.8016 154.068 70.7922C154.02 70.7828 153.97 70.7932 153.929 70.8212L153.209 71.3296C153.169 71.3595 153.141 71.4046 153.131 71.4554C153.122 71.5063 153.131 71.5592 153.157 71.6031L153.603 72.3222C153.63 72.365 153.672 72.3952 153.72 72.4065C153.768 72.4178 153.819 72.4093 153.861 72.3829L154.621 71.8826C154.663 71.8529 154.692 71.8069 154.702 71.7545C154.712 71.7022 154.703 71.6477 154.675 71.6031Z" fill="#464A5F"/>
<path d="M153.317 72.5895L152.839 71.8623C152.81 71.8206 152.767 71.7921 152.719 71.7827C152.67 71.7733 152.62 71.7837 152.579 71.8117L151.86 72.3201C151.819 72.3501 151.791 72.3955 151.781 72.4468C151.771 72.4982 151.781 72.5515 151.808 72.5956L152.251 73.3147C152.279 73.3577 152.322 73.3879 152.37 73.3988C152.419 73.4097 152.469 73.4006 152.512 73.3734L153.271 72.8731C153.292 72.8577 153.31 72.8382 153.323 72.8156C153.337 72.793 153.346 72.7678 153.351 72.7414C153.355 72.7151 153.354 72.6881 153.348 72.662C153.343 72.6359 153.332 72.6113 153.317 72.5895Z" fill="#464A5F"/>
<path d="M151.945 73.5901L151.459 72.8608C151.43 72.8185 151.386 72.7896 151.337 72.7802C151.289 72.7708 151.238 72.7815 151.197 72.8102L150.48 73.3206C150.439 73.3502 150.411 73.3951 150.401 73.446C150.39 73.4969 150.399 73.5499 150.426 73.5941L150.871 74.3132C150.898 74.3566 150.941 74.3872 150.989 74.3985C151.038 74.4098 151.089 74.401 151.131 74.374L151.891 73.8716C151.912 73.8569 151.93 73.8379 151.944 73.8158C151.959 73.7937 151.968 73.7688 151.974 73.7426C151.979 73.7165 151.979 73.6895 151.974 73.6633C151.969 73.6371 151.959 73.6122 151.945 73.5901Z" fill="#464A5F"/>
<path d="M152.807 68.7675L152.321 68.0362C152.292 67.9944 152.249 67.9659 152.2 67.9565C152.152 67.9471 152.102 67.9575 152.061 67.9855L151.341 68.494C151.301 68.5239 151.273 68.569 151.264 68.6199C151.254 68.6707 151.263 68.7236 151.289 68.7675L151.735 69.4867C151.762 69.5296 151.804 69.5597 151.852 69.571C151.9 69.5823 151.951 69.5739 151.993 69.5475L152.753 69.0471C152.795 69.0174 152.824 68.9713 152.834 68.919C152.845 68.8666 152.835 68.8122 152.807 68.7675Z" fill="#464A5F"/>
<path d="M151.449 69.7559L150.964 69.0267C150.935 68.9849 150.891 68.9564 150.843 68.947C150.795 68.9376 150.745 68.948 150.703 68.976L149.984 69.4865C149.943 69.5161 149.915 69.5609 149.905 69.6118C149.895 69.6627 149.904 69.7158 149.93 69.7599L150.376 70.479C150.403 70.5224 150.446 70.5529 150.494 70.5643C150.543 70.5756 150.593 70.5668 150.636 70.5398L151.395 70.0374C151.417 70.0227 151.435 70.0037 151.449 69.9816C151.463 69.9595 151.473 69.9346 151.478 69.9084C151.483 69.8823 151.483 69.8553 151.478 69.8291C151.473 69.803 151.464 69.778 151.449 69.7559Z" fill="#464A5F"/>
<path d="M150.077 70.7544L149.591 70.0273C149.562 69.985 149.518 69.9561 149.47 69.9467C149.421 69.9373 149.37 69.948 149.329 69.9767L148.612 70.485C148.571 70.5146 148.543 70.5595 148.533 70.6104C148.523 70.6613 148.531 70.7143 148.558 70.7585L149.003 71.4795C149.031 71.5229 149.073 71.5534 149.121 71.5648C149.17 71.5761 149.221 71.5673 149.263 71.5402L150.021 71.038C150.043 71.0234 150.061 71.0045 150.076 70.9822C150.09 70.96 150.1 70.935 150.106 70.9085C150.111 70.8821 150.111 70.8549 150.106 70.8284C150.101 70.802 150.091 70.7768 150.077 70.7544Z" fill="#464A5F"/>
<path d="M150.57 74.5885L150.084 73.8614C150.055 73.8196 150.012 73.7911 149.963 73.7817C149.915 73.7723 149.865 73.7827 149.824 73.8107L149.105 74.3151C149.064 74.345 149.036 74.39 149.027 74.4409C149.017 74.4917 149.026 74.5446 149.053 74.5885L149.498 75.3075C149.525 75.3504 149.568 75.3805 149.616 75.3918C149.664 75.4031 149.714 75.3947 149.756 75.3683L150.516 74.866C150.558 74.8363 150.587 74.7906 150.597 74.7388C150.607 74.6869 150.597 74.633 150.57 74.5885Z" fill="#464A5F"/>
<path d="M149.198 75.5871L148.712 74.8599C148.683 74.8182 148.64 74.7897 148.591 74.7802C148.543 74.7708 148.493 74.7812 148.452 74.8093L147.732 75.3278C147.692 75.3574 147.663 75.4023 147.653 75.4532C147.643 75.5041 147.652 75.5571 147.678 75.6012L148.124 76.3203C148.151 76.3637 148.194 76.3943 148.242 76.4056C148.291 76.4169 148.342 76.4081 148.384 76.3811L149.144 75.8808C149.166 75.8661 149.186 75.8465 149.201 75.8234C149.217 75.8003 149.227 75.7741 149.232 75.7464C149.237 75.7188 149.237 75.6903 149.231 75.6629C149.225 75.6355 149.214 75.6096 149.198 75.5871Z" fill="#464A5F"/>
<path d="M147.885 76.6769L147.281 75.7736C147.275 75.7636 147.267 75.755 147.257 75.7483C147.247 75.7416 147.237 75.737 147.225 75.7348C147.214 75.7325 147.202 75.7326 147.191 75.7351C147.18 75.7376 147.169 75.7425 147.16 75.7493L146.284 76.3752C146.275 76.3817 146.266 76.3902 146.26 76.4002C146.253 76.4102 146.249 76.4215 146.246 76.4334C146.244 76.4453 146.244 76.4576 146.246 76.4695C146.249 76.4814 146.253 76.4927 146.259 76.5027L146.813 77.3959C146.819 77.4063 146.827 77.4153 146.836 77.4223C146.846 77.4294 146.856 77.4344 146.868 77.437C146.879 77.4397 146.891 77.4399 146.902 77.4377C146.914 77.4355 146.925 77.4309 146.934 77.4243L147.867 76.8167C147.878 76.8091 147.886 76.7993 147.893 76.788C147.9 76.7766 147.904 76.764 147.905 76.7508C147.907 76.7377 147.906 76.7243 147.902 76.7116C147.899 76.6988 147.893 76.687 147.885 76.6769Z" fill="#464A5F"/>
<path d="M146.67 77.5559L146.066 76.6506C146.053 76.6309 146.032 76.6176 146.009 76.6134C145.986 76.6093 145.962 76.6146 145.943 76.6283L145.06 77.2521C145.041 77.2664 145.028 77.2877 145.023 77.3117C145.019 77.3358 145.023 77.3608 145.035 77.3817L145.59 78.2749C145.603 78.2954 145.623 78.3099 145.645 78.3152C145.668 78.3205 145.692 78.3162 145.712 78.3032L146.643 77.6956C146.655 77.6894 146.665 77.6805 146.673 77.6696C146.68 77.6587 146.686 77.646 146.689 77.6326C146.691 77.6192 146.691 77.6053 146.688 77.592C146.684 77.5787 146.678 77.5664 146.67 77.5559Z" fill="#464A5F"/>
<path d="M145.307 78.5524L144.703 77.647C144.69 77.6274 144.67 77.6142 144.647 77.61C144.624 77.6059 144.601 77.6111 144.582 77.6247L143.699 78.2486C143.68 78.2625 143.666 78.2839 143.661 78.308C143.657 78.3322 143.661 78.3574 143.674 78.3782L144.227 79.2714C144.24 79.2915 144.26 79.3057 144.283 79.311C144.305 79.3162 144.329 79.3122 144.349 79.2998L145.282 78.6921C145.294 78.686 145.304 78.6771 145.312 78.6661C145.32 78.6551 145.325 78.6424 145.327 78.6288C145.33 78.6153 145.329 78.6013 145.326 78.588C145.322 78.5748 145.316 78.5626 145.307 78.5524Z" fill="#464A5F"/>
<path d="M143.99 79.5106L143.393 78.6071C143.386 78.5971 143.378 78.5885 143.368 78.5818C143.359 78.5751 143.348 78.5705 143.337 78.5683C143.326 78.566 143.314 78.5661 143.303 78.5686C143.291 78.5711 143.281 78.576 143.271 78.5828L142.388 79.2088C142.369 79.2224 142.356 79.2433 142.351 79.2672C142.346 79.291 142.351 79.3159 142.363 79.3364L142.917 80.2297C142.929 80.2502 142.949 80.2647 142.972 80.27C142.994 80.2753 143.018 80.271 143.038 80.258L143.971 79.6503C143.982 79.6434 143.992 79.6339 143.999 79.6227C144.006 79.6114 144.01 79.5986 144.012 79.5853C144.014 79.5719 144.013 79.5582 144.009 79.5453C144.006 79.5324 143.999 79.5205 143.99 79.5106Z" fill="#464A5F"/>
<path d="M152.413 71.2203L151.929 70.4912C151.9 70.4489 151.857 70.42 151.808 70.4106C151.759 70.4011 151.709 70.4119 151.667 70.4405L150.948 70.9509C150.908 70.9808 150.88 71.0258 150.87 71.0767C150.861 71.1276 150.87 71.1804 150.896 71.2243L151.341 71.9433C151.369 71.9864 151.412 72.0165 151.46 72.0275C151.509 72.0384 151.559 72.0293 151.602 72.0021L152.359 71.5018C152.381 71.4871 152.399 71.4681 152.413 71.446C152.427 71.4239 152.437 71.399 152.442 71.3728C152.447 71.3467 152.447 71.3197 152.442 71.2935C152.437 71.2674 152.428 71.2425 152.413 71.2203Z" fill="#464A5F"/>
<path d="M151.041 72.2187L150.555 71.4916C150.526 71.4496 150.483 71.4207 150.435 71.4109C150.386 71.4011 150.336 71.4111 150.295 71.439L149.576 71.9494C149.535 71.9793 149.507 72.0243 149.498 72.0752C149.488 72.126 149.497 72.1789 149.524 72.2228L149.969 72.9418C149.996 72.9846 150.039 73.0148 150.087 73.0261C150.135 73.0374 150.185 73.029 150.227 73.0025L150.987 72.5003C151.008 72.4856 151.026 72.4666 151.04 72.4444C151.055 72.4223 151.064 72.3975 151.07 72.3713C151.075 72.3451 151.075 72.3182 151.07 72.292C151.065 72.2658 151.055 72.2409 151.041 72.2187Z" fill="#464A5F"/>
<path d="M149.668 73.2174L149.176 72.4924C149.147 72.4501 149.103 72.4212 149.055 72.4118C149.006 72.4024 148.955 72.4131 148.914 72.4417L148.212 72.9481C148.171 72.9777 148.143 73.0225 148.133 73.0734C148.123 73.1243 148.132 73.1773 148.158 73.2215L148.603 73.9404C148.631 73.9838 148.673 74.0144 148.722 74.0257C148.77 74.037 148.821 74.0282 148.864 74.0012L149.623 73.501C149.644 73.4855 149.662 73.4658 149.675 73.4431C149.688 73.4205 149.697 73.3952 149.702 73.3689C149.706 73.3425 149.705 73.3156 149.699 73.2896C149.693 73.2636 149.682 73.2391 149.668 73.2174Z" fill="#464A5F"/>
<path d="M148.293 74.216L147.808 73.4888C147.779 73.4471 147.735 73.4186 147.687 73.4091C147.639 73.3997 147.589 73.4101 147.547 73.4382L146.828 73.9466C146.788 73.9765 146.76 74.0215 146.75 74.0724C146.741 74.1233 146.75 74.1761 146.776 74.22L147.222 74.9391C147.249 74.982 147.291 75.0121 147.339 75.0234C147.387 75.0347 147.438 75.0263 147.48 74.9999L148.24 74.4996C148.261 74.4848 148.279 74.4658 148.294 74.4435C148.308 74.4212 148.318 74.3961 148.323 74.3697C148.328 74.3433 148.328 74.3161 148.323 74.2897C148.318 74.2633 148.308 74.2382 148.293 74.216Z" fill="#464A5F"/>
<path d="M146.982 75.3056L146.379 74.4024C146.372 74.3923 146.364 74.3837 146.354 74.377C146.344 74.3703 146.333 74.3657 146.322 74.3634C146.31 74.3612 146.299 74.3613 146.287 74.3638C146.276 74.3663 146.265 74.3712 146.255 74.3781L145.372 75.0039C145.353 75.0175 145.34 75.0385 145.335 75.0623C145.33 75.0862 145.335 75.111 145.347 75.1315L145.901 76.0266C145.907 76.0369 145.915 76.0457 145.925 76.0526C145.935 76.0595 145.946 76.0643 145.957 76.0667C145.969 76.0692 145.98 76.0692 145.992 76.0669C146.003 76.0645 146.014 76.0597 146.024 76.0529L146.955 75.4454C146.967 75.4389 146.976 75.4298 146.984 75.4189C146.992 75.408 146.997 75.3954 147 75.3821C147.002 75.3688 147.002 75.3551 146.999 75.3418C146.996 75.3286 146.99 75.3163 146.982 75.3056Z" fill="#464A5F"/>
<path d="M145.766 76.1909L145.162 75.2875C145.156 75.2775 145.148 75.2689 145.138 75.2622C145.128 75.2555 145.118 75.2509 145.106 75.2487C145.095 75.2464 145.083 75.2465 145.072 75.249C145.061 75.2515 145.05 75.2564 145.041 75.2632L144.164 75.8871C144.144 75.901 144.131 75.9224 144.126 75.9465C144.121 75.9707 144.126 75.9959 144.138 76.0167L144.692 76.9099C144.705 76.93 144.725 76.9441 144.747 76.9494C144.77 76.9547 144.793 76.9507 144.813 76.9382L145.746 76.3306C145.757 76.3234 145.766 76.3139 145.773 76.3026C145.78 76.2913 145.785 76.2786 145.786 76.2654C145.788 76.2521 145.787 76.2386 145.784 76.2257C145.78 76.2129 145.774 76.201 145.766 76.1909Z" fill="#464A5F"/>
<path d="M144.405 77.1811L143.801 76.2756C143.787 76.2559 143.767 76.2426 143.744 76.2384C143.721 76.2343 143.697 76.2396 143.678 76.2533L142.797 76.8773C142.777 76.8912 142.764 76.9126 142.759 76.9368C142.755 76.961 142.759 76.9861 142.772 77.0069L143.325 77.9003C143.338 77.9209 143.358 77.9353 143.38 77.9407C143.403 77.946 143.427 77.9417 143.447 77.9287L144.38 77.3209C144.391 77.3142 144.401 77.3051 144.408 77.2941C144.416 77.283 144.421 77.2704 144.423 77.2571C144.425 77.2438 144.425 77.2301 144.422 77.217C144.419 77.2039 144.413 77.1917 144.405 77.1811Z" fill="#464A5F"/>
<path d="M143.086 78.1391L142.483 77.2357C142.476 77.2256 142.468 77.2169 142.458 77.2102C142.448 77.2035 142.437 77.1989 142.426 77.1967C142.414 77.1944 142.402 77.1945 142.391 77.1971C142.38 77.1996 142.369 77.2045 142.359 77.2114L141.478 77.8373C141.468 77.8439 141.46 77.8524 141.453 77.8624C141.447 77.8724 141.442 77.8837 141.44 77.8956C141.438 77.9075 141.438 77.9197 141.44 77.9316C141.442 77.9435 141.447 77.9548 141.453 77.9649L142.006 78.8602C142.013 78.8704 142.021 78.8792 142.03 78.8861C142.04 78.893 142.05 78.8978 142.062 78.9002C142.073 78.9027 142.085 78.9027 142.096 78.9004C142.107 78.898 142.118 78.8933 142.128 78.8866L143.061 78.2789C143.072 78.272 143.081 78.2627 143.089 78.2517C143.096 78.2406 143.101 78.2281 143.103 78.2149C143.106 78.2017 143.105 78.1881 143.102 78.1751C143.099 78.162 143.094 78.1497 143.086 78.1391Z" fill="#464A5F"/>
<path d="M142.672 80.4706L142.068 79.5651C142.054 79.5454 142.034 79.5321 142.011 79.528C141.988 79.5238 141.964 79.5292 141.945 79.5428L141.062 80.1667C141.043 80.1807 141.029 80.202 141.025 80.2262C141.02 80.2504 141.024 80.2755 141.037 80.2964L141.59 81.1896C141.603 81.2098 141.623 81.2239 141.646 81.2292C141.668 81.2345 141.692 81.2304 141.712 81.218L142.645 80.6103C142.656 80.6041 142.667 80.5952 142.674 80.5843C142.682 80.5733 142.688 80.5607 142.69 80.5473C142.693 80.5338 142.693 80.52 142.689 80.5067C142.686 80.4934 142.68 80.4811 142.672 80.4706Z" fill="#464A5F"/>
<path d="M141.353 81.4286L140.749 80.5253C140.743 80.5151 140.734 80.5065 140.725 80.4998C140.715 80.4931 140.704 80.4885 140.692 80.4862C140.681 80.484 140.669 80.4841 140.658 80.4866C140.646 80.4892 140.636 80.494 140.626 80.5009L139.743 81.1268C139.724 81.1404 139.71 81.1614 139.706 81.1853C139.701 81.2091 139.705 81.234 139.718 81.2544L140.271 82.1477C140.278 82.1582 140.286 82.1672 140.295 82.1743C140.305 82.1814 140.316 82.1864 140.327 82.189C140.339 82.1916 140.351 82.1919 140.362 82.1896C140.374 82.1874 140.385 82.1828 140.395 82.1761L141.326 81.5684C141.337 81.5622 141.348 81.5533 141.355 81.5424C141.363 81.5314 141.369 81.5188 141.371 81.5054C141.374 81.4919 141.374 81.4781 141.37 81.4648C141.367 81.4515 141.361 81.4391 141.353 81.4286Z" fill="#464A5F"/>
<path d="M143.421 75.6905L142.852 74.8376C142.834 74.8112 142.807 74.7932 142.776 74.7876C142.746 74.7819 142.714 74.7889 142.689 74.8072L141.85 75.3967C141.824 75.4152 141.806 75.4436 141.8 75.4758C141.794 75.508 141.8 75.5414 141.817 75.5689L142.338 76.4116C142.355 76.439 142.382 76.4582 142.413 76.465C142.443 76.4719 142.475 76.4658 142.502 76.4481L143.381 75.8667C143.395 75.8584 143.407 75.8471 143.417 75.8335C143.427 75.82 143.434 75.8044 143.438 75.7879C143.441 75.7713 143.442 75.7541 143.439 75.7374C143.436 75.7206 143.43 75.7046 143.421 75.6905Z" fill="#464A5F"/>
<path d="M142.103 76.6485L141.534 75.7978C141.525 75.7843 141.514 75.7728 141.501 75.7639C141.488 75.7549 141.474 75.7488 141.459 75.7458C141.443 75.7428 141.428 75.743 141.413 75.7463C141.397 75.7497 141.383 75.7562 141.37 75.7654L140.537 76.3568C140.512 76.375 140.494 76.403 140.488 76.4349C140.482 76.4667 140.488 76.4998 140.505 76.527L141.025 77.3696C141.042 77.397 141.069 77.4163 141.1 77.4234C141.13 77.4306 141.162 77.4251 141.189 77.4081L142.07 76.8268C142.083 76.8174 142.095 76.8053 142.104 76.7913C142.113 76.7772 142.119 76.7614 142.122 76.7449C142.125 76.7283 142.125 76.7112 142.122 76.6947C142.118 76.6782 142.112 76.6625 142.103 76.6485Z" fill="#464A5F"/>
<path d="M140.784 77.6087L140.205 76.7559C140.187 76.7296 140.16 76.7117 140.13 76.706C140.1 76.7003 140.069 76.7074 140.043 76.7255L139.208 77.315C139.183 77.3335 139.165 77.3619 139.159 77.3941C139.152 77.4262 139.159 77.4597 139.176 77.4872L139.696 78.3298C139.713 78.3573 139.74 78.3764 139.771 78.3833C139.802 78.3901 139.834 78.384 139.86 78.3663L140.741 77.7849C140.755 77.7768 140.768 77.7656 140.778 77.7521C140.788 77.7387 140.795 77.7231 140.799 77.7066C140.803 77.69 140.804 77.6728 140.801 77.6559C140.798 77.6391 140.792 77.623 140.784 77.6087Z" fill="#464A5F"/>
<path d="M139.485 78.5949L138.881 77.6896C138.867 77.6699 138.847 77.6566 138.824 77.6525C138.801 77.6483 138.777 77.6537 138.758 77.6673L137.875 78.2911C137.856 78.3054 137.843 78.3269 137.838 78.3511C137.834 78.3752 137.839 78.4002 137.852 78.4208L138.405 79.3139C138.418 79.3344 138.438 79.3489 138.46 79.3542C138.483 79.3595 138.507 79.3552 138.527 79.3423L139.46 78.7347C139.471 78.728 139.481 78.7188 139.488 78.7078C139.495 78.6968 139.501 78.6842 139.503 78.6709C139.505 78.6576 139.505 78.6439 139.502 78.6308C139.499 78.6177 139.493 78.6054 139.485 78.5949Z" fill="#464A5F"/>
<path d="M155.089 69.2514L154.575 68.4695C154.545 68.4276 154.502 68.3991 154.453 68.39C154.404 68.381 154.354 68.3921 154.312 68.4209L152.261 69.9219C152.222 69.952 152.194 69.9968 152.185 70.0472C152.176 70.0976 152.185 70.1498 152.211 70.1933L152.705 70.9913C152.719 71.0134 152.737 71.0324 152.758 71.0471C152.779 71.0618 152.803 71.072 152.828 71.0771C152.853 71.0822 152.878 71.082 152.903 71.0767C152.928 71.0714 152.952 71.061 152.973 71.046L155.041 69.5248C155.081 69.4943 155.108 69.449 155.117 69.3982C155.126 69.3473 155.116 69.2948 155.089 69.2514Z" fill="#464A5F"/>
<path d="M141.764 79.0691L141.124 78.1192C141.117 78.109 141.109 78.1003 141.099 78.0937C141.089 78.087 141.078 78.0825 141.066 78.0804C141.055 78.0783 141.043 78.0787 141.032 78.0816C141.02 78.0844 141.01 78.0896 141 78.0969L138.799 79.7172C138.78 79.7311 138.767 79.7522 138.762 79.7761C138.758 79.7999 138.763 79.8246 138.775 79.8448L139.379 80.821C139.385 80.8316 139.394 80.8407 139.404 80.8478C139.413 80.8548 139.424 80.8597 139.436 80.8622C139.448 80.8647 139.46 80.8646 139.472 80.8621C139.483 80.8595 139.494 80.8545 139.504 80.8474L141.743 79.2007C141.762 79.1861 141.775 79.1641 141.779 79.1395C141.783 79.1148 141.777 79.0896 141.764 79.0691Z" fill="#464A5F"/>
<path d="M148.768 71.8037L148.189 70.9023C148.176 70.882 148.156 70.8679 148.133 70.863C148.11 70.8581 148.086 70.8627 148.066 70.876L143.179 74.3396C143.169 74.3462 143.16 74.3547 143.154 74.3647C143.147 74.3747 143.143 74.386 143.14 74.3979C143.138 74.4097 143.138 74.422 143.14 74.4339C143.143 74.4458 143.147 74.4571 143.153 74.4672L143.755 75.4394C143.761 75.45 143.77 75.4591 143.78 75.4662C143.79 75.4732 143.801 75.4782 143.812 75.4806C143.824 75.4831 143.836 75.483 143.848 75.4805C143.859 75.4779 143.871 75.4729 143.88 75.4658L148.754 71.9333C148.772 71.9179 148.784 71.8956 148.786 71.8714C148.789 71.8472 148.782 71.8229 148.768 71.8037Z" fill="#464A5F"/>
<path opacity="0.1" d="M148.79 68.7086L146.192 64.7407C146.12 64.6304 146.009 64.5545 145.884 64.5295C145.759 64.5044 145.63 64.5323 145.525 64.607L138.366 69.6565C138.313 69.694 138.268 69.742 138.233 69.7978C138.198 69.8536 138.174 69.9161 138.162 69.9818C138.15 70.0475 138.15 70.115 138.163 70.1804C138.176 70.2459 138.201 70.3081 138.237 70.3634L140.886 74.4447C140.922 74.5001 140.967 74.5476 141.021 74.5844C141.074 74.6211 141.133 74.6465 141.196 74.6589C141.258 74.6713 141.323 74.6706 141.385 74.6568C141.447 74.643 141.506 74.6163 141.559 74.5784L148.667 69.4114C148.719 69.3739 148.764 69.3259 148.798 69.2702C148.833 69.2145 148.856 69.1522 148.868 69.0869C148.879 69.0216 148.878 68.9546 148.865 68.8897C148.852 68.8247 148.826 68.7632 148.79 68.7086Z" fill="black"/>
<path d="M148.91 68.733L146.312 64.7651C146.239 64.6553 146.129 64.5797 146.004 64.5547C145.879 64.5296 145.75 64.5572 145.644 64.6314L138.496 69.685C138.443 69.7221 138.397 69.7699 138.362 69.8256C138.326 69.8813 138.302 69.9439 138.29 70.0096C138.277 70.0754 138.278 70.143 138.291 70.2086C138.304 70.2742 138.329 70.3365 138.365 70.3918L141.006 74.4691C141.041 74.5246 141.087 74.572 141.14 74.6088C141.194 74.6456 141.253 74.6709 141.316 74.6833C141.378 74.6958 141.443 74.695 141.505 74.6812C141.567 74.6674 141.626 74.6407 141.679 74.6028L148.791 69.4358C148.843 69.398 148.887 69.3497 148.921 69.2939C148.955 69.2381 148.978 69.1757 148.989 69.1104C149 69.0452 148.999 68.9782 148.986 68.9134C148.972 68.8487 148.946 68.7874 148.91 68.733Z" fill="#939498"/>
<path d="M165.026 75.1455L159.512 73.2131L141.827 86.1196L147.301 87.9932C147.448 88.0438 147.605 88.0577 147.758 88.0338C147.912 88.0099 148.058 87.9489 148.185 87.8555L165.076 75.5161C165.109 75.4958 165.135 75.4656 165.152 75.4295C165.168 75.3933 165.174 75.3529 165.169 75.3132C165.164 75.2735 165.147 75.2364 165.122 75.2065C165.096 75.1767 165.063 75.1554 165.026 75.1455Z" fill="#FFD801"/>
</svg>
