<svg width="668" height="316" viewBox="0 0 668 316" fill="none" xmlns="http://www.w3.org/2000/svg">
<g filter="url(#filter0_f_944_4719)">
<ellipse cx="334" cy="281" rx="314" ry="15" fill="#1C2F58"/>
</g>
<ellipse cx="334.419" cy="273.452" rx="294.56" ry="15.4246" fill="#E9E9E9"/>
<path d="M300.664 60.2461H302.072C302.487 72.4368 301.658 116.209 302.238 128.318C302.321 133.227 302.569 138.054 302.487 142.963C307.87 142.963 313.171 142.881 318.555 142.799C321.122 147.299 323.607 151.799 326.092 156.299C322.365 156.381 318.72 156.954 315.076 157.363C313.999 157.363 313.999 158.754 313.502 159.408C311.846 162.353 308.947 165.053 305.386 165.299C302.818 165.544 300.499 164.399 298.345 163.335C296.192 162.19 294.618 160.308 293.459 158.263C291.636 158.017 289.731 158.099 287.909 158.263C284.928 158.344 281.946 158.508 278.964 158.59C278.881 158.426 278.633 158.017 278.55 157.772C277.887 157.772 276.811 157.69 277.142 156.79C279.213 151.963 282.608 147.872 285.01 143.29C290.394 143.126 295.695 143.208 301.079 143.045C301.161 138.136 300.913 133.227 300.83 128.236C300.085 116.127 300.996 72.4368 300.664 60.2461ZM305.386 145.008C299.753 145.09 294.121 145.336 288.489 145.499C287.909 145.499 286.667 145.499 286.75 146.399C286.584 147.136 287.578 147.381 288.158 147.217C297.269 146.972 306.462 146.726 315.573 146.399C316.65 146.563 316.816 144.845 315.739 144.681C312.343 144.845 308.864 144.845 305.386 145.008Z" fill="#EAE1EE"/>
<path d="M105.359 68.3425C106.684 67.0334 108.34 65.8062 110.328 65.8062C112.068 65.888 113.393 67.5243 113.476 69.2425C113.724 72.1879 112.647 75.0514 111.405 77.5878C108.92 82.415 105.276 86.5876 100.969 90.0239C103.951 88.5512 107.098 87.4058 110.245 86.5876C113.558 85.7694 117.12 84.7876 120.516 85.524C122.007 85.8513 123.498 87.0785 123.415 88.7149C123.083 91.4148 120.93 93.4602 118.776 94.9329C112.979 98.8601 105.027 98.3692 99.0639 95.0147C100.223 97.9601 101.052 101.069 100.886 104.26C100.886 105.815 100.141 107.533 98.6497 108.351C95.9993 109.824 92.5206 109.578 89.953 108.105C88.7106 107.369 87.5511 106.224 87.4682 104.669C87.4682 102.787 88.3793 101.069 89.3732 99.5965C90.9469 97.3056 92.8519 95.1784 95.0054 93.3784C91.2782 90.8421 87.3854 88.4694 84.6522 84.8695C82.5815 82.0877 80.6765 78.9787 80.1796 75.5423C80.0139 74.2333 79.8482 72.5969 81.0906 71.697C82.2502 70.9606 83.7411 71.4515 84.9006 72.106C87.4682 73.6606 89.5389 75.9514 91.4439 78.2423C93.8458 81.1877 95.5023 84.5422 96.8276 88.0603C97.3245 84.4604 98.0699 80.8604 99.3952 77.3423C100.72 73.9878 102.791 70.8788 105.359 68.3425ZM106.601 69.2425C104.033 71.6151 102.046 74.6424 100.803 77.8332C99.3123 81.9241 98.5669 86.1785 98.0699 90.5148C99.478 89.2058 101.052 88.1421 102.377 86.8331C105.524 83.9695 108.175 80.5332 110.08 76.7696C111.156 74.5605 112.068 72.106 111.985 69.5697C111.985 68.5879 111.488 67.3607 110.328 67.2789C108.837 67.2789 107.595 68.3425 106.601 69.2425ZM82.0017 72.9242C81.2563 74.2333 81.9189 75.7878 82.1674 77.1787C83.9895 82.0877 87.3854 86.424 91.7752 89.4512C93.3489 90.5148 94.8397 91.7421 96.5791 92.4784C95.0054 85.3604 91.1126 78.6514 85.3148 74.1515C84.3208 73.4151 83.1613 72.5151 82.0017 72.9242ZM114.055 87.2421C110.577 87.9785 107.098 88.9603 103.868 90.3512C101.963 91.1694 100.141 92.1512 98.1528 92.7239C100.389 94.1966 102.874 95.342 105.524 95.9147C108.837 96.4056 112.316 96.5693 115.463 95.1784C118.114 94.0329 120.764 92.233 121.924 89.4512C122.504 88.3876 121.593 87.2422 120.516 87.0785C118.279 86.5876 116.126 86.7512 114.055 87.2421ZM96.6619 93.9511C94.7569 95.4238 93.1004 97.142 91.6095 99.0238C90.45 100.578 89.2904 102.215 89.0419 104.178C88.9591 105.242 89.8702 106.06 90.6984 106.633C92.8519 108.024 95.9165 108.269 98.1528 106.878C99.5608 105.978 99.5608 104.178 99.478 102.706C99.2295 99.5965 98.4013 96.4874 96.9104 93.7875L96.6619 93.9511Z" fill="#EAE1EE"/>
<path d="M462.484 1.00514C462.401 0.596055 462.65 -0.1403 463.23 0.0233338C463.975 -0.058483 463.892 0.841506 464.058 1.33241C484.35 0.923323 504.643 0.67787 524.935 0.268787C531.147 0.268787 537.359 0.0233338 543.571 0.0233338C544.647 0.0233338 544.233 1.74149 543.239 1.41422C516.818 1.90512 490.396 2.3142 463.975 2.80511C463.975 5.25961 464.058 7.71411 464.058 10.1686C473.997 10.1686 483.936 10.0868 493.875 10.0868C503.317 9.92317 512.759 10.0868 522.202 9.92317C528.165 9.92317 534.129 9.75953 540.092 9.84135C540.837 9.92316 541.831 9.5959 542.328 10.3323C542.494 10.8232 542.163 11.3141 541.666 11.2322C523.527 11.3959 505.305 11.4777 487.166 11.5595C479.463 11.7231 471.761 11.5595 464.141 11.7231C464.389 45.5135 464.886 79.3856 465.3 113.176C465.217 117.921 465.3 122.667 465.631 127.33C465.631 127.494 465.466 127.739 465.466 127.903H465.3C464.803 127.412 464.389 126.921 464.141 126.267C463.892 121.603 463.975 117.021 463.892 112.358C463.478 78.8129 463.064 45.1862 462.733 11.6413C448.983 11.805 435.317 11.7231 421.568 11.8868C420.74 11.8049 419.415 12.1322 419.497 10.905C420.16 10.005 421.485 10.7413 422.313 10.005C425.792 10.7413 429.271 10.2504 432.832 10.3323C442.771 10.4141 452.711 10.2504 462.733 10.2504C462.567 7.14139 462.401 4.11418 462.484 1.00514Z" fill="#EAE1EE"/>
<path d="M542.494 3.21433C542.494 2.72343 542.494 1.90526 543.157 1.90526C544.151 1.82345 543.902 3.0507 543.985 3.62341C544.068 9.4324 543.985 15.2414 544.15 21.0504C547.96 16.3868 552.102 11.8869 557.071 8.4506C559.308 6.9779 561.71 5.5052 564.526 5.5052C566.182 5.42339 567.839 6.32337 568.419 7.87789C569.247 10.0051 568.501 12.3778 567.673 14.4232C565.023 20.2322 560.384 24.6503 555.912 29.0684C553.51 31.5229 550.777 33.6502 548.043 35.7774C554.752 33.0774 561.71 30.8684 568.833 29.8048C572.063 29.3957 575.542 29.0684 578.689 30.0502C580.594 30.6229 582.416 31.932 582.913 33.8956C583.493 35.6956 582.582 37.4956 581.339 38.7228C578.937 41.3409 575.624 42.8955 572.311 44.2045C563.449 47.3136 553.841 48.0499 544.482 47.4772C544.399 56.7225 544.73 65.9678 544.647 75.2131C544.896 98.6127 545.062 122.012 545.31 145.412C556.16 145.003 567.093 144.757 578.026 144.43C578.606 144.43 579.186 144.266 579.766 144.594C580.014 145.003 579.931 145.657 579.434 145.821C568.087 146.148 556.74 146.475 545.393 146.803C545.393 149.094 545.641 151.384 545.476 153.675C545.476 154.493 543.985 154.575 544.068 153.675C543.985 151.384 543.985 149.094 543.902 146.803C542.908 146.885 541.997 146.803 541.086 146.557C529.656 146.721 518.226 146.885 506.796 147.212C506.382 149.994 506.879 152.857 508.204 155.312C509.778 158.175 511.6 160.875 513.091 163.739C515.079 167.502 517.315 171.511 517.232 175.93C517.232 179.284 515.161 182.229 514.747 185.502C514.25 188.284 515.244 190.984 516.238 193.52C517.729 197.365 519.8 201.047 520.711 205.056C521.87 210.047 522.367 215.529 519.965 220.274C517.895 216.102 515.907 211.847 513.753 207.674C513.174 206.447 512.263 205.384 511.517 204.32C510.523 202.929 509.778 201.293 508.949 199.82C506.216 196.138 502.323 193.356 498.265 191.393C498.182 188.284 498.679 185.175 499.921 182.393C503.566 182.393 506.879 180.593 510.44 180.102C511.434 180.02 511.434 178.466 510.44 178.384C507.044 178.793 503.98 180.266 500.667 180.839C502.737 177.648 505.388 174.539 505.968 170.693C506.796 167.339 505.554 164.066 505.305 160.712C505.139 160.139 505.305 159.157 504.477 158.993C503.897 158.748 503.152 159.321 503.317 159.893C503.566 162.266 504.063 164.557 504.311 166.93C504.725 170.53 503.234 174.048 501.081 176.993C499.342 179.366 497.768 181.902 497.023 184.766C494.952 182.148 492.964 179.529 491.225 176.666C490.728 176.011 491.142 174.784 490.148 174.62C489.32 174.784 488.409 175.684 488.988 176.502C491.225 180.102 493.875 183.457 496.526 186.811C496.36 188.038 496.277 189.347 496.194 190.657C492.053 189.02 487.829 187.547 483.77 185.748C482.031 185.011 480.292 184.357 478.552 183.702C479.132 179.611 479.878 175.357 482.445 172.002C484.184 169.548 486.835 167.83 489.568 166.521C492.881 165.048 495.366 162.021 496.691 158.748C498.016 155.066 497.188 151.221 497.188 147.375C489.32 147.375 481.534 147.621 473.666 147.785C473.251 147.703 472.34 147.866 472.34 147.212C472.092 146.394 473.169 146.312 473.666 146.394C481.534 146.23 489.485 146.066 497.354 145.985C498.099 142.548 500.336 139.685 502.655 137.067C503.814 135.921 504.974 134.776 506.548 134.203C507.541 133.712 508.784 134.448 509.198 135.43C509.695 136.576 509.198 137.803 508.949 138.948C508.121 141.239 507.376 143.53 506.879 145.821C519.137 145.494 531.478 145.412 543.736 145.166C543.488 112.522 543.074 79.9585 542.908 47.3136C541.086 46.9863 539.264 46.4954 537.524 45.9227C539.512 48.7044 540.837 52.2226 540.175 55.7407C539.844 56.8043 539.264 58.1134 538.021 58.4406C536.945 58.6861 536.116 57.8679 535.454 57.1316C533.549 54.9225 532.969 51.8953 532.638 49.1135C531.23 51.4862 529.407 53.5316 527.585 55.4952C525.349 57.9497 522.864 60.1588 519.882 61.7951C517.149 63.2678 513.091 62.5315 511.683 59.6679C510.523 57.6225 511.186 55.0043 512.511 53.2044C514.416 50.259 517.481 48.2135 520.711 46.9045C523.858 45.6772 527.088 44.6954 530.401 43.7954C527.751 42.8136 525.101 41.5046 523.03 39.541C518.889 35.6138 515.161 30.8684 513.588 25.3049C513.091 23.4231 512.925 21.214 514.168 19.4959C515.161 18.1868 517.066 18.105 518.474 18.6777C522.284 20.0686 525.432 22.7685 527.585 26.2048C530.153 30.2957 532.472 34.632 533.714 39.2955C535.785 33.4865 538.932 28.1684 542.494 23.2594C542.66 19.005 542.245 14.7505 542.494 10.496C542.494 7.87789 542.577 5.58702 542.494 3.21433ZM556.989 10.2506C552.019 14.0141 547.878 18.5959 544.068 23.5049C544.316 27.8412 544.068 32.1775 544.233 36.4319C547.961 33.8956 551.605 31.1138 554.752 27.923C559.059 23.6685 563.532 19.414 566.182 13.8505C566.928 12.1324 567.673 10.1688 567.01 8.36879C566.596 7.14154 565.188 6.73245 564.029 6.89609C561.378 7.22335 559.059 8.69605 556.989 10.2506ZM515.244 20.314C514.416 21.7049 514.664 23.5049 515.079 24.9776C516.652 30.2139 520.131 34.5501 524.024 38.3137C526.426 40.6046 529.656 41.8318 532.803 42.9773C532.389 37.3319 529.656 32.2593 526.757 27.5139C524.769 24.0776 521.622 21.1322 517.729 19.8231C516.984 19.414 515.824 19.4959 515.244 20.314ZM534.46 41.75C537.11 40.1955 540.009 38.9683 542.742 37.4137C542.742 33.4047 542.742 29.3957 542.742 25.3867C539.181 30.4593 536.034 35.8592 534.46 41.75ZM567.342 31.3593C559.308 32.832 551.605 35.4501 544.233 38.8864C544.316 41.1773 544.15 43.55 544.316 45.8409C553.013 46.4954 561.875 45.759 570.241 43.1409C573.637 41.9955 577.032 40.6046 579.683 38.0683C580.76 37.0047 581.919 35.5319 581.339 33.8956C580.76 32.1775 578.937 31.3593 577.281 30.9502C574.051 30.4593 570.655 30.8684 567.342 31.3593ZM535.371 43.0591C537.442 44.6954 540.341 44.9409 542.825 45.5954C542.825 43.55 542.742 41.5864 542.742 39.541C540.341 40.7682 537.856 41.9137 535.371 43.0591ZM524.107 46.9863C521.125 47.9681 518.06 49.1953 515.741 51.4044C514.333 52.7953 513.008 54.3498 512.594 56.3134C512.097 58.4406 513.836 60.5679 515.907 60.8133C518.392 61.3042 520.462 59.5861 522.284 58.277C525.597 55.6589 528.414 52.468 530.816 49.0317C531.644 47.6408 532.886 46.4136 532.638 44.6954C529.739 45.1045 526.923 46.0863 524.107 46.9863ZM533.963 46.7408C533.963 49.5226 534.377 52.3862 535.702 54.8407C536.199 55.577 536.696 56.3952 537.524 56.8043C538.435 56.477 538.601 55.3316 538.767 54.4316C539.098 50.8317 537.11 47.559 534.874 44.8591C534.626 45.5136 534.211 46.0863 533.963 46.7408Z" fill="#EAE1EE"/>
<path d="M377.919 133.057C377.753 121.685 377.753 110.394 377.67 99.0214L376.179 98.6123C376.262 104.912 376.262 111.212 376.262 117.594C376.345 125.121 376.428 132.648 376.428 140.175C376.925 140.257 377.422 140.339 377.919 140.421C377.919 137.884 377.919 135.43 377.919 133.057Z" fill="#EAE1EE"/>
<path d="M382.747 106.253C382.83 109.28 382.747 112.307 382.747 115.335H384.238C384.238 112.307 384.238 109.362 384.238 106.335C384.073 105.844 384.073 104.944 383.41 104.78C380.18 104.699 376.95 104.944 373.719 104.944C363.697 105.189 353.758 105.517 343.736 105.762C342.328 99.3804 337.193 93.8987 330.816 92.0169C325.266 90.2988 318.971 91.4442 314.333 94.7987C310.44 97.5805 307.707 101.999 306.879 106.744C303.814 106.826 300.833 106.826 297.768 106.989C297.105 106.989 297.023 107.808 297.437 108.217C297.934 108.462 298.513 108.38 299.01 108.38C301.578 108.298 304.146 108.135 306.713 108.217C306.299 113.207 308.038 118.362 311.434 122.044C314.996 126.053 320.462 128.344 325.846 128.18C331.892 128.098 337.773 124.825 341.003 119.835C343.488 116.153 344.482 111.571 343.902 107.153C356.906 106.989 369.827 106.498 382.747 106.253ZM316.735 95.126C321.705 92.1806 328.165 92.0169 333.3 94.7169C337.773 96.9259 341.086 101.18 342.246 105.926C330.981 106.253 319.717 106.498 308.453 106.826C309.364 101.917 312.428 97.5805 316.735 95.126ZM339.595 119.507C336.448 124.007 331.064 126.871 325.598 126.789C320.462 126.953 315.493 124.58 312.18 120.735C309.281 117.298 307.79 112.717 308.287 108.298C319.717 107.971 331.147 107.726 342.577 107.398C343.074 111.571 342.08 115.989 339.595 119.507Z" fill="#EAE1EE"/>
<path d="M67.8471 78.6904C68.3441 78.4449 69.1723 78.3631 69.2551 79.0995C69.1723 89.4084 69.1723 99.7991 69.0067 110.108C69.0067 123.853 68.7582 137.598 68.7582 151.344C68.5925 160.916 68.5097 170.489 68.5926 180.061C68.4269 189.879 68.4269 199.616 68.4269 209.434C88.7193 209.27 109.094 209.024 129.387 208.779C130.215 208.615 130.629 210.006 129.718 210.17C120.193 210.497 110.585 210.334 100.978 210.579C93.1091 210.497 85.3234 210.824 77.4549 210.743C74.3904 210.824 71.3258 210.743 68.3441 210.906C68.3441 218.924 68.1784 226.942 68.2613 234.96C68.1784 243.633 68.0956 252.387 68.0956 261.06C67.8471 261.06 67.433 261.06 67.1845 261.06C67.0188 260.896 66.7704 260.651 66.6047 260.569C66.5219 250.915 66.6875 241.342 66.7704 231.688C66.6875 224.733 66.8532 217.861 66.8532 210.906C60.3099 210.824 53.7667 211.07 47.2234 211.07C46.2295 211.315 45.8982 209.761 46.8921 209.679C53.5182 209.597 60.2271 209.434 66.936 209.434C67.1845 172.452 67.433 135.553 67.6815 98.5719C67.8471 92.0265 67.5986 85.3175 67.8471 78.6904Z" fill="#EAE1EE"/>
<path d="M376.593 152.53C377.008 150.648 377.422 148.767 377.919 146.885C378.167 160.794 378.084 174.702 378.25 188.529C377.67 187.384 377.173 186.157 376.676 185.011C376.676 178.139 376.511 171.266 376.593 164.394C376.676 160.385 376.428 156.457 376.593 152.53Z" fill="#EAE1EE"/>
<path d="M443.848 155.802C445.919 155.557 448.072 155.393 450.143 155.066C449.315 156.62 449.066 158.911 447.161 159.484C446.167 159.893 444.676 160.139 443.931 159.075C443.682 158.011 443.848 156.948 443.848 155.802Z" fill="white"/>
<path d="M115.526 157.112C116.271 156.13 117.431 155.148 118.839 155.475C120.081 155.557 120.993 156.457 122.069 156.948C132.671 156.866 143.19 156.866 153.792 156.784C153.792 157.275 153.874 157.766 153.874 158.175C143.687 158.339 133.499 158.257 123.394 158.339C128.198 163.739 130.766 170.53 132.919 177.239C133.996 180.92 134.742 184.684 135.487 188.529C136.398 192.947 136.398 197.447 136.481 201.865C136.564 211.929 135.321 221.911 133.582 231.729C132.671 236.965 131.429 242.201 129.275 247.028C129.855 247.028 130.518 247.028 131.097 247.028C134.079 244.001 137.641 241.547 141.616 240.156C143.521 243.51 146.006 246.701 149.153 249.074C148.739 250.71 147.58 252.183 147.166 253.819C146.917 254.719 146.751 255.701 146.503 256.601C144.929 256.11 143.19 255.701 141.533 255.864C140.374 256.028 139.38 257.01 139.38 258.237C139.297 259.464 140.291 260.528 141.451 260.692C142.61 260.855 143.77 260.692 144.929 260.61C143.852 262.573 142.196 264.292 140.374 265.519C134.99 265.519 129.689 265.601 124.306 265.601C123.394 264.701 122.566 263.637 121.738 262.573C128.861 262.819 134.907 258.237 139.711 253.492C140.374 252.51 139.049 251.201 138.055 251.855C137.144 252.919 136.481 254.228 135.404 255.128C131.511 258.564 126.459 261.019 121.075 261.101C119.502 257.583 118.342 253.901 117.928 250.055C117.265 245.392 117.762 240.728 117.348 236.065C117.1 232.792 117.183 229.438 116.603 226.165C115.443 220.192 112.793 214.383 108.569 209.965C105.504 206.938 102.191 203.993 98.1326 202.438C99.1265 204.074 100.949 204.893 102.357 206.12C105.256 208.656 108.403 211.029 110.391 214.383C112.627 217.738 113.704 221.665 114.698 225.592C115.443 228.865 115.526 232.301 115.526 235.738C115.526 242.447 114.284 249.401 116.437 255.864C117.679 259.301 118.922 262.901 121.489 265.601C114.035 265.764 106.581 265.601 99.1265 265.764C96.5589 264.292 94.3226 262.41 92.0863 260.446C90.0985 258.646 88.4419 256.519 87.448 254.065C87.1167 253.492 87.2824 252.674 88.0278 252.51C90.5954 252.674 93.163 252.837 95.7306 253.165C96.3932 254.719 97.0558 256.355 97.6356 257.992C98.1326 259.219 100.369 258.483 99.7891 257.174C98.9608 255.946 98.4639 254.637 97.8841 253.328C102.025 253.655 106.167 254.719 109.894 256.601C107.989 253.983 106.167 251.365 104.51 248.583C100.535 248.665 96.6417 248.583 92.6661 248.665C92.5832 249.156 91.9206 249.892 91.4237 249.319C90.9267 249.074 91.1752 248.419 91.0924 247.928C91.0924 240.319 91.0095 232.71 90.9267 225.101C91.0095 217.411 90.8439 209.802 90.7611 202.111C89.353 200.638 87.6965 199.411 86.2885 198.02C85.7915 197.529 85.9572 196.629 86.6198 196.384C87.945 195.893 89.353 195.975 90.7611 195.893C90.5954 183.457 90.5954 171.021 90.4298 158.584C90.6782 157.521 92.0863 157.439 92.9145 157.03C100.535 157.112 108.072 157.03 115.526 157.112ZM118.094 156.703C117.1 157.193 118.591 157.848 119.005 157.275C119.253 156.784 118.425 156.539 118.094 156.703ZM93.7428 158.666C93.2458 159.075 92.6661 159.157 92.0863 158.993C92.1691 171.348 92.2519 183.702 92.4176 196.138C96.3932 196.302 100.452 196.956 104.262 198.184C107.243 199.247 109.977 200.802 112.461 202.602C118.259 206.447 123.063 212.011 125.465 218.474C127.287 223.711 128.364 229.192 128.613 234.674C126.376 236.556 124.637 238.928 122.732 241.137C122.069 241.874 122.152 243.183 123.063 243.756C123.891 244.328 124.968 243.919 125.465 243.183C126.542 241.71 127.536 240.156 128.778 238.765C128.944 240.974 128.613 243.183 128.613 245.474C129.689 242.283 130.683 239.092 131.346 235.738C130.766 224.61 130.518 213.074 126.293 202.52C123.394 194.256 120.33 186.075 117.265 177.893C115.36 171.593 113.621 164.966 114.946 158.339C107.906 158.503 100.866 158.584 93.7428 158.666ZM116.603 158.503C115.112 164.721 116.851 171.102 118.591 176.993C121.241 184.438 124.057 191.802 126.708 199.247C127.701 202.111 128.861 204.893 129.606 207.838C130.932 212.502 131.511 217.411 132.091 222.238C131.843 218.229 131.926 214.138 131.511 210.129C130.683 201.702 129.524 193.193 127.039 185.011C125.714 180.92 124.637 176.748 122.898 172.82C122.401 171.593 121.821 170.448 121.407 169.139C121.158 168.321 122.152 168.157 122.649 167.83C123.312 168.157 123.229 168.811 123.146 169.384C124.057 171.593 125.051 173.72 125.796 175.93C127.95 182.393 130.021 188.938 131.18 195.647C132.423 203.42 133.499 211.356 133.416 219.211C133.416 220.601 133.251 221.992 133.582 223.383C134.41 216.265 135.239 209.065 135.073 201.947C134.907 197.447 134.907 193.029 133.996 188.611C133.002 183.784 132.091 178.875 130.352 174.293C128.364 168.566 125.796 162.839 121.407 158.503C119.833 158.503 118.176 158.503 116.603 158.503ZM92.4176 203.747C92.5832 213.565 92.5832 223.465 92.6661 233.283C92.8317 237.947 92.7489 242.61 92.7489 247.356C96.4761 247.356 100.203 247.356 103.93 247.274C101.528 242.692 99.7063 237.701 98.9608 232.629C98.2982 227.965 99.5406 223.383 99.7891 218.72C100.866 220.029 101.694 221.747 103.185 222.647C104.759 223.465 106.415 221.42 105.504 220.029C103.516 217.165 100.949 214.711 98.2982 212.42C96.5589 209.311 94.9024 206.202 92.4176 203.747ZM132.423 229.929C132.588 229.192 132.754 228.456 132.754 227.72C132.257 228.292 132.505 229.192 132.423 229.929ZM128.281 248.583C128.198 249.483 128.033 250.383 127.95 251.201C128.53 250.301 129.192 249.401 129.938 248.501C129.358 248.583 128.861 248.583 128.281 248.583ZM103.93 260.528C103.599 261.673 105.09 262.246 105.835 262.819C107.823 263.801 109.977 264.537 112.213 264.701C113.041 264.701 113.455 263.883 113.207 263.146C112.627 262.41 111.55 262.655 110.722 262.492C108.983 262.164 107.161 261.755 105.67 260.855C105.09 260.61 104.427 260.119 103.93 260.528Z" fill="#EAE1EE"/>
<path d="M397.134 157.276C403.926 156.376 410.966 156.785 417.51 158.83C420.408 159.812 423.473 161.121 425.295 163.657C426.455 165.294 426.206 167.585 424.798 169.057C422.479 171.594 419 172.657 415.687 173.394C409.393 174.621 402.767 174.539 396.472 173.312C392.993 172.494 389.349 171.43 386.533 169.139C385.125 167.994 383.965 166.276 384.296 164.394C384.628 162.512 386.201 161.203 387.692 160.303C390.591 158.503 393.904 157.767 397.134 157.276ZM397.052 158.748C395.147 158.994 393.324 159.485 391.502 160.058C389.432 160.794 387.03 161.858 385.953 163.903C385.29 165.457 386.284 167.012 387.527 167.994C390.757 170.448 394.815 171.43 398.708 172.166C405.168 173.148 411.877 173.066 418.089 171.185C420.326 170.366 422.81 169.466 424.136 167.339C424.881 166.112 424.301 164.557 423.307 163.657C421.568 161.858 419.166 160.958 416.847 160.139C410.469 158.176 403.678 157.849 397.052 158.748Z" fill="#EAE1EE"/>
<path d="M243.409 162.92C244.155 162.593 244.735 163.248 245.397 163.575C246.639 164.393 248.13 164.311 249.538 164.72C249.787 165.538 248.627 165.702 248.13 166.029C246.805 166.438 245.397 167.42 243.989 166.847C243.326 165.702 243.078 164.147 243.409 162.92Z" fill="white"/>
<path d="M358.206 209.065V208.983C358.206 210.702 357.295 212.42 357.544 214.138C357.626 215.283 357.212 216.347 356.964 217.492C353.402 231.647 349.841 245.883 346.279 260.119L346.031 260.037C344.954 259.792 343.794 259.71 342.718 259.792C333.276 259.792 323.833 259.955 314.391 259.873C298.82 260.119 283.332 260.037 267.76 260.201C271.57 243.592 275.38 227.065 279.107 210.456C305.28 210.456 331.536 210.456 357.709 210.456C357.875 209.883 358.041 209.474 358.206 209.065Z" fill="#EAE1EE"/>
<path d="M316.959 240.074C320.069 240.074 322.591 237.583 322.591 234.511C322.591 231.438 320.069 228.947 316.959 228.947C313.848 228.947 311.327 231.438 311.327 234.511C311.327 237.583 313.848 240.074 316.959 240.074Z" fill="#848484"/>
<path d="M377.09 240.974C377.587 241.383 378.084 241.71 378.581 242.037C378.581 249.483 378.581 256.846 378.664 264.291C378.333 264.291 377.587 264.291 377.173 264.291C377.173 256.519 377.256 248.746 377.09 240.974Z" fill="#EAE1EE"/>
<path d="M189.573 252.101C190.069 251.692 190.898 252.51 190.484 253.001C189.987 253.328 189.324 252.592 189.573 252.101Z" fill="#EAE1EE"/>
<path d="M568.087 239.992H546.47C544.896 239.992 543.571 238.764 543.571 237.128V236.637C543.571 235.083 544.813 233.773 546.47 233.773H568.087C569.661 233.773 570.986 235.001 570.986 236.637V237.128C570.986 238.764 569.661 239.992 568.087 239.992Z" fill="#EAE1EE"/>
<path d="M546.387 239.992L549.038 263.064H565.603L568.336 239.992H546.387Z" fill="#EAE1EE"/>
<path d="M557.486 239.992L547.712 251.528L546.387 239.992H557.486Z" fill="#848484"/>
<path d="M150.395 82.1669C150.064 81.1033 150.809 79.1397 152.217 79.7942C154.205 82.9033 155.944 86.1759 157.767 89.4486C158.429 91.0031 159.257 92.394 160.086 93.8667H160.334C159.672 91.4122 158.678 89.0395 157.767 86.585C157.104 84.9487 156.607 83.1487 157.27 81.4306C157.518 80.5306 158.761 80.2851 159.423 80.8578C161.991 87.2395 164.558 93.6213 166.877 100.167C166.38 101.394 165.801 102.621 164.724 103.439C163.067 104.83 160.914 105.812 159.837 107.857C158.843 109.985 158.843 112.439 159.34 114.648C159.506 115.303 160.169 115.466 160.666 115.057C160.666 113.012 160.086 110.803 160.997 108.757C161.991 106.548 164.475 105.73 166.049 104.094C166.795 103.357 167.374 102.376 167.789 101.394C168.12 100.494 168.865 99.8393 168.948 98.8575C169.197 96.6485 169.114 94.1122 170.605 92.2304C171.184 91.4122 172.592 91.3304 173.089 92.2304C173.752 93.5394 173.835 95.0121 173.752 96.403C173.669 99.5939 173.338 102.785 173.089 106.057C173.007 108.594 171.764 110.885 171.847 113.421C171.516 116.53 171.847 119.721 171.599 122.912C171.599 123.893 171.681 124.875 171.599 125.857C170.19 127.003 168.285 127.33 166.463 127.493C163.482 127.739 160.5 127.33 157.767 126.103C157.518 125.448 157.352 124.793 157.27 124.221C156.524 121.93 156.11 119.475 155.033 117.266C156.524 118.084 157.932 119.639 159.672 119.639C160.251 118.575 158.843 118.084 158.181 117.594C156.524 116.694 155.116 115.466 153.46 114.403C152.052 113.421 151.389 111.703 150.726 110.23C148.739 105.485 146.834 100.657 145.011 95.7485C144.432 93.9485 143.769 92.0667 143.769 90.1849C143.852 89.1213 145.26 89.2031 145.84 89.8577C147.745 92.1486 148.904 94.8485 150.726 97.2212C151.141 97.7939 151.803 98.203 152.466 98.4484C150.644 94.3576 148.242 90.4304 146.834 86.1759C146.502 85.3578 146.419 84.2123 147.331 83.7214C148.242 83.1487 149.318 83.8032 149.815 84.5396C152.052 88.3032 153.708 92.4758 156.11 96.1576C155.613 93.7849 154.536 91.5758 153.377 89.5304C152.052 87.2396 151.306 84.7032 150.395 82.1669Z" fill="#F1C3A9"/>
<path d="M357.129 128.23C356.88 127.166 357.212 125.612 358.454 125.366C359.117 125.121 359.365 125.857 359.531 126.348C360.773 129.539 362.098 132.73 363.258 135.921C363.672 137.639 364.335 139.193 365.08 140.83C365.08 136.82 362.927 132.975 363.506 128.966C363.589 127.739 364.997 126.675 366.074 127.657C367.648 134.366 369.47 141.075 370.629 147.948C369.967 149.257 368.973 150.32 367.731 151.057C365.908 152.038 363.838 152.775 362.595 154.575C361.353 156.457 361.022 158.829 361.187 161.12C361.104 162.02 362.016 161.775 362.595 161.693C362.512 159.566 362.512 157.275 363.755 155.475C365.08 153.675 367.399 153.184 369.056 151.875C370.05 151.22 370.712 150.32 371.375 149.338C371.955 148.357 372.949 147.62 373.031 146.393C373.528 144.184 373.942 141.239 376.344 140.175C376.841 140.257 377.338 140.339 377.835 140.42C378.581 142.548 378.167 144.757 377.835 146.884C377.338 148.766 376.924 150.648 376.51 152.529C376.096 154.738 375.516 156.866 374.522 158.911C373.28 162.838 372.949 167.011 372.286 171.02C373.031 175.847 374.936 180.429 376.676 185.011C377.173 186.238 377.67 187.383 378.249 188.529C378.746 189.674 379.243 190.901 379.989 191.883C380.569 192.62 381.314 193.356 381.977 194.092C379.409 197.365 375.433 199.165 371.623 200.638C368.89 201.701 365.991 202.356 363.092 202.274C362.595 202.11 362.181 201.865 361.767 201.619C361.27 200.556 361.27 199.329 361.104 198.183C359.945 187.792 358.785 177.402 357.46 167.011C357.294 165.62 357.129 164.311 356.632 163.002C357.626 164.229 358.868 165.211 360.111 166.029C360.525 166.356 361.27 166.111 361.187 165.456C360.856 164.802 360.193 164.393 359.614 163.902C358.04 162.756 356.797 161.284 355.307 159.975C354.478 159.156 354.147 157.929 353.733 156.866C352.739 153.429 351.911 149.829 351.082 146.311C350.337 142.629 349.177 138.948 349.343 135.184C349.426 133.957 351.082 134.039 351.579 134.939C353.07 137.393 353.899 140.257 355.307 142.793C355.638 143.448 356.135 143.939 356.797 144.184C355.555 139.848 353.733 135.675 352.905 131.257C352.822 130.521 352.822 129.539 353.567 129.048C354.561 128.393 355.721 129.375 356.135 130.275C357.626 134.202 358.785 138.293 360.442 142.22C360.525 142.22 360.607 142.139 360.69 142.139C360.276 139.766 359.696 137.393 358.785 135.184C357.957 132.975 357.626 130.602 357.129 128.23Z" fill="#F1C3A9"/>
<path d="M438.381 139.685C439.044 137.721 441.031 136.248 443.185 136.166C444.924 135.921 446.332 137.23 447.989 137.23C449.231 137.148 450.556 136.985 451.799 136.821C451.882 138.948 451.799 141.403 453.621 142.875C454.781 144.021 456.52 143.857 458.011 144.103C458.673 145.166 458.756 147.048 460.33 147.13C461.572 146.884 462.318 145.657 463.312 144.921C464.471 145.657 465.796 146.475 466.128 147.866C466.376 149.093 466.293 150.73 465.051 151.302C464.223 151.875 462.898 151.875 462.649 152.939C462.401 154.412 461.904 156.211 463.146 157.357C463.146 162.43 463.146 167.42 463.063 172.493C461.904 173.72 461.489 175.438 460.744 176.911C459.253 179.775 457.762 182.966 454.863 184.684C451.468 186.729 446.912 186.156 443.599 184.275C441.694 183.129 441.197 180.838 440.617 178.875C440.617 177.075 440.783 175.357 441.031 173.557C443.351 173.393 445.256 172.084 447.078 170.693C450.722 167.993 453.952 164.639 456.354 160.711C453.29 162.348 450.142 163.902 446.829 164.884C445.09 165.375 443.185 165.784 441.528 164.966C440.203 164.066 439.292 162.675 438.878 161.121C437.884 158.993 437.304 156.621 437.139 154.248L437.387 153.921C438.133 152.693 438.133 151.221 438.215 149.83C437.884 146.557 437.221 143.039 438.381 139.685ZM440.7 141.648C440.038 141.812 439.292 142.221 438.878 142.794C438.63 143.284 438.795 143.775 439.375 143.857C440.12 143.53 440.783 142.875 441.694 142.957C442.357 142.875 443.268 143.121 443.433 142.303C442.936 141.157 441.528 141.566 440.7 141.648ZM447.492 142.794C448.486 142.712 449.397 142.794 450.308 143.284C450.805 143.694 451.882 143.366 451.468 142.63C450.639 141.73 449.231 141.239 447.989 141.484C447.326 141.566 447.409 142.303 447.492 142.794ZM444.759 145.412C444.262 146.312 444.759 147.539 444.345 148.521C444.013 149.584 442.936 150.403 442.771 151.466C443.019 152.693 444.427 153.102 445.504 153.512C446.167 153.839 446.912 153.266 446.829 152.53C446.084 152.039 445.09 151.875 444.262 151.466C445.587 149.666 446.415 147.457 445.67 145.248C445.421 145.248 444.924 145.33 444.759 145.412ZM448.237 145.33C448.237 146.557 447.74 147.948 448.569 149.012C449.066 149.666 450.225 149.257 450.225 148.439C450.722 147.13 450.059 144.839 448.237 145.33ZM441.031 145.657C440.203 146.475 440.617 148.603 442.025 148.521C443.019 148.112 442.936 146.803 442.688 145.903C442.44 145.248 441.446 145.084 441.031 145.657ZM443.848 155.802C443.848 156.866 443.682 158.011 443.93 159.075C444.676 160.139 446.084 159.811 447.161 159.484C449.066 158.911 449.314 156.621 450.142 155.066C448.072 155.475 445.918 155.557 443.848 155.802Z" fill="#F1C3A9"/>
<path d="M238.19 146.557C240.924 144.757 244.319 144.593 247.467 145.002C248.626 145.166 249.952 145.411 250.863 146.311C251.939 147.457 252.602 149.011 253.927 149.911C254.838 150.647 255.998 150.975 257.157 151.302C257.654 155.72 257.737 160.22 257.406 164.638C256.66 167.993 254.838 171.02 252.436 173.474C251.028 175.029 248.709 174.456 247.053 173.72C243.574 172.165 240.509 169.956 237.528 167.665C239.35 172.411 242.58 176.583 246.142 180.101C247.301 181.329 248.792 182.147 250.448 182.72C250.448 183.21 250.366 183.783 250.366 184.274C250.283 185.583 250.117 186.892 250.034 188.283C250.034 188.856 249.952 189.51 249.952 190.083C249.786 191.228 249.952 192.456 249.123 193.356C248.129 194.419 246.887 195.401 245.727 196.383C243.16 197.447 240.178 197.365 237.693 195.974C234.38 194.092 231.233 191.719 229.411 188.283C228.582 186.729 227.589 185.092 227.92 183.292C228.003 182.801 228.086 182.31 228.168 181.901C228.417 180.347 228.665 178.711 228.914 177.156C229.079 176.256 229.245 175.356 229.576 174.538C231.15 171.265 232.31 167.665 232.392 163.984C232.475 162.102 231.481 160.384 230.57 158.747C229.659 157.193 229.576 155.311 229.991 153.593C230.156 152.856 230.736 152.038 231.564 152.202C232.724 152.447 232.558 154.165 233.801 154.247C234.38 153.675 234.38 152.856 234.629 152.202C235.043 149.993 236.202 147.784 238.19 146.557ZM243.243 149.42C242.414 149.666 240.758 150.32 241.586 151.384C242.249 151.466 242.829 150.975 243.491 150.811C244.651 150.32 245.893 150.893 247.053 150.893C247.467 150.729 247.55 150.156 247.301 149.829C246.142 149.175 244.568 149.093 243.243 149.42ZM251.442 150.893C251.36 151.056 251.194 151.302 251.111 151.384C251.525 152.529 253.265 152.284 254.341 152.447C255.087 150.975 252.436 150.647 251.442 150.893ZM248.626 155.475C248.461 157.438 249.62 158.993 250.863 160.384C250.863 161.938 248.875 160.465 248.047 161.038C248.047 161.284 247.964 161.774 247.881 162.02C249.04 162.102 250.2 162.347 251.36 162.347C252.353 161.693 252.768 160.302 251.939 159.402C250.863 158.256 249.869 156.784 250.034 155.147C249.952 154.493 250.448 153.593 249.786 153.102C248.461 152.856 248.626 154.656 248.626 155.475ZM244.485 156.047C244.899 156.047 245.313 156.047 245.81 156.047C245.645 155.229 246.224 153.593 244.982 153.511C244.071 154.084 244.485 155.229 244.485 156.047ZM251.277 155.147C250.945 156.047 250.945 157.52 252.271 157.275C252.436 156.375 252.519 155.475 252.519 154.656C252.105 154.656 251.277 154.411 251.277 155.147ZM243.408 162.92C242.994 164.147 243.243 165.702 243.905 166.765C245.23 167.338 246.721 166.356 248.047 165.947C248.543 165.62 249.703 165.456 249.455 164.638C248.047 164.311 246.556 164.311 245.313 163.493C244.733 163.247 244.154 162.674 243.408 162.92Z" fill="#F1C3A9"/>
<path d="M420.076 246.127C419.248 245.473 418.917 243.837 419.994 243.264C421.236 242.773 422.644 243.182 423.886 243.509C427.199 244.573 430.43 245.964 433.743 247.273C436.062 248.091 437.884 249.809 440.203 250.546C443.185 251.773 446.415 252.427 449.397 253.655C449.48 254.882 449.562 256.109 449.894 257.255C449.894 257.827 451.136 257.991 451.136 257.255C451.136 256.027 450.888 254.8 450.722 253.655C456.934 253.246 463.063 252.018 469.109 250.464C470.849 250.055 472.422 249.237 473.748 248.173C475.487 249.073 475.984 251.036 476.895 252.673C478.386 256.191 479.214 259.955 479.463 263.718C469.192 263.8 458.922 263.964 448.651 263.882C439.044 263.964 429.519 264.045 419.911 264.045C418.503 264.045 417.012 264.127 415.604 263.882C416.846 262.9 418.42 262.327 419.662 261.427C419.994 260.855 419.414 260.118 418.834 260.445C416.598 261.427 414.61 262.818 412.456 264.045C409.806 264.209 407.238 264.045 404.588 264.127C405.168 263.064 405.83 262 406.493 261.018C407.155 259.873 408.315 259.136 409.143 258.236C410.303 256.845 412.042 256.436 413.533 255.536C413.947 255.373 414.279 255.127 414.693 254.964C417.343 253.736 419.994 252.264 422.644 251.118C424.383 250.627 426.123 250.055 427.696 249.237C428.359 248.991 428.11 248.255 427.614 247.927C426.205 248.255 424.88 248.827 423.472 249.318C422.727 248.009 421.319 247.191 420.076 246.127Z" fill="#F1C3A9"/>
<path d="M166.794 100.167C167.043 100.576 167.374 100.985 167.705 101.394C167.291 102.376 166.794 103.358 165.966 104.094C164.392 105.731 161.908 106.549 160.914 108.758C160.003 110.721 160.582 112.93 160.582 115.058C160.085 115.385 159.34 115.303 159.257 114.649C158.76 112.44 158.76 109.985 159.754 107.858C160.748 105.812 162.984 104.912 164.641 103.44C165.718 102.54 166.297 101.394 166.794 100.167Z" fill="#3D1E1F"/>
<path d="M153.543 114.484C155.117 115.548 156.525 116.775 158.264 117.675C159.01 118.166 160.335 118.575 159.755 119.721C157.933 119.721 156.608 118.166 155.117 117.348C154.703 116.284 154.206 115.303 153.543 114.484Z" fill="#3D1E1F"/>
<path d="M448.817 123.894C450.64 122.094 453.29 121.357 455.775 121.357C457.928 121.357 459.999 122.339 461.904 123.239C462.484 124.385 463.56 125.039 464.057 126.266C464.389 126.839 464.803 127.412 465.217 127.903C466.625 129.621 468.944 130.194 470.435 131.83C471.843 133.384 473.168 135.675 472.257 137.803C471.76 139.357 469.938 139.848 469.192 141.157C470.186 143.612 471.429 146.148 471.098 148.93C470.932 150.811 469.855 152.448 468.364 153.675C466.708 155.066 464.968 156.375 463.063 157.52C461.821 156.375 462.318 154.575 462.566 153.102C462.815 152.039 464.14 151.957 464.968 151.466C466.294 150.811 466.294 149.175 466.045 148.03C465.714 146.557 464.389 145.739 463.229 145.084C462.235 145.821 461.49 147.048 460.247 147.293C458.591 147.293 458.508 145.33 457.928 144.266C456.437 144.021 454.698 144.184 453.538 143.039C451.716 141.566 451.882 139.112 451.716 136.984C450.474 137.066 449.149 137.312 447.906 137.394C446.25 137.394 444.759 136.166 443.102 136.33C440.949 136.412 438.961 137.884 438.298 139.848C437.139 143.203 437.801 146.721 437.884 150.075C437.801 151.466 437.801 152.939 437.056 154.166C435.317 152.366 432.749 151.63 431.175 149.666C429.602 148.03 429.767 145.575 429.519 143.448C429.767 142.303 430.844 141.403 430.43 140.175C429.685 138.048 426.951 137.639 425.957 135.675C425.295 134.448 425.709 132.975 426.123 131.666C426.703 130.112 427.448 128.557 428.525 127.33C431.175 124.63 435.482 123.894 438.961 125.121C440.7 125.612 442.274 126.757 444.179 126.839C446.167 126.512 447.575 125.121 448.817 123.894Z" fill="#3D1E1F"/>
<path d="M171.682 122.912C172.759 123.403 173.421 124.467 173.753 125.53C173.587 125.858 173.421 126.185 173.173 126.43C170.771 128.312 167.623 128.639 164.725 128.721C161.743 128.557 158.678 128.148 155.862 127.085C155.779 126.921 155.614 126.594 155.531 126.43C155.034 126.43 154.537 126.512 154.04 126.512C154.123 126.348 154.206 126.103 154.206 126.021C154.537 126.021 155.117 125.939 155.365 125.939C155.365 124.876 156.442 124.467 157.27 124.221C157.436 124.876 157.602 125.53 157.767 126.103C160.418 127.33 163.482 127.739 166.464 127.494C168.203 127.248 170.108 127.003 171.599 125.858C171.765 124.876 171.682 123.894 171.682 122.912Z" fill="#3D1E1F"/>
<path d="M173.007 128.64L173.421 128.23C173.587 128.803 173.752 129.294 173.918 129.867C173.752 130.03 173.421 130.276 173.255 130.44C172.344 131.094 171.267 131.503 170.191 131.912C170.273 132.321 170.273 132.73 170.356 133.139C170.605 135.676 170.688 138.294 171.433 140.748C171.764 141.976 172.675 142.876 173.504 143.857C174.912 145.412 175.74 147.457 175.74 149.585C175.823 151.139 175.657 152.857 176.403 154.248C178.556 158.094 179.302 162.512 181.124 166.521C182.118 168.893 183.608 171.102 185.431 172.902C186.425 171.021 187.336 169.057 188.164 167.093C188.578 167.339 188.992 167.666 189.489 167.912C188.495 169.957 187.584 172.002 186.673 174.048C189.903 176.257 193.796 176.993 197.606 177.402C201.416 177.975 205.06 179.039 208.705 180.102C210.527 180.757 212.432 180.184 214.337 180.102C217.484 179.775 220.549 180.266 223.613 181.002C224.11 181.084 224.607 181.248 225.104 181.33C226.098 181.575 227.092 181.739 228.086 181.902C228.003 182.393 227.92 182.802 227.838 183.293C226.926 183.13 226.015 182.966 225.104 182.802C224.525 182.639 223.945 182.557 223.365 182.393C220.383 181.657 217.401 181.166 214.337 181.493C212.432 181.575 210.527 182.148 208.705 181.575C204.149 180.266 199.594 178.957 194.873 178.466C191.56 177.893 188.247 176.911 185.513 175.03C183.774 173.393 182.2 171.593 181.041 169.548C178.39 164.884 177.645 159.484 175.077 154.739C173.669 152.203 174.912 149.176 173.587 146.639C172.758 144.757 170.853 143.53 170.191 141.567C169.362 138.948 169.28 136.085 169.031 133.385C169.031 133.058 168.948 132.485 168.865 132.239C166.463 132.567 164.062 132.649 161.66 132.158C161.163 132.076 160.831 131.585 160.5 131.258C160.666 131.094 160.997 130.767 161.245 130.603C163.233 130.93 165.221 131.176 167.292 130.93C169.362 130.685 171.599 130.276 173.007 128.64Z" fill="#3D1E1F"/>
<path d="M235.458 131.748C239.433 129.866 243.823 128.148 248.296 129.13C254.259 129.703 259.974 132.975 263.039 138.048C262.79 138.539 262.459 139.03 262.542 139.603C262.625 142.221 263.453 144.757 263.37 147.375C263.287 150.648 262.211 153.839 260.885 156.784C259.643 159.484 259.312 162.511 259.229 165.457C259.146 169.057 259.974 172.738 261.631 175.929C265.027 182.311 270.659 187.302 273.723 193.847C274.22 194.911 274.717 196.056 275.131 197.202C273.061 194.993 270.576 193.274 267.843 191.884C264.944 190.411 262.045 188.856 259.063 187.711C256.164 186.565 253.1 185.665 250.284 184.356C250.284 183.866 250.366 183.293 250.366 182.802C248.793 182.311 247.302 181.411 246.059 180.184C242.415 176.584 239.268 172.493 237.446 167.748C240.427 170.038 243.575 172.248 246.971 173.802C248.627 174.538 250.946 175.111 252.354 173.557C254.756 171.102 256.578 168.075 257.324 164.72C257.655 160.302 257.572 155.802 257.075 151.384C255.999 151.057 254.839 150.73 253.845 149.993C252.52 149.012 251.857 147.539 250.781 146.393C249.869 145.493 248.544 145.33 247.385 145.084C244.237 144.675 240.759 144.839 238.108 146.639C236.12 147.866 234.961 150.075 234.464 152.202C234.298 152.939 234.215 153.757 233.636 154.248C232.393 154.166 232.476 152.448 231.399 152.202C230.488 152.039 229.908 152.857 229.826 153.593C229.411 155.311 229.577 157.193 230.405 158.748C231.316 160.384 232.228 162.102 232.228 163.984C232.145 167.666 230.902 171.184 229.411 174.538C228.997 175.357 228.832 176.257 228.749 177.157C227.921 176.747 227.175 176.42 226.264 176.093C225.933 176.011 225.353 175.847 225.105 175.766C222.371 175.111 219.638 174.375 216.905 173.966C214.006 173.557 211.107 174.048 208.208 173.72C205.061 173.393 201.996 172.657 199.014 171.511C197.938 171.102 196.695 170.857 195.536 170.611C201.002 166.848 205.392 161.857 209.533 156.702C213.095 152.284 216.076 147.539 219.886 143.366C224.276 138.539 229.577 134.53 235.458 131.748Z" fill="#3D1E1F"/>
<path d="M440.701 141.648C441.612 141.485 442.937 141.158 443.434 142.221C443.185 143.039 442.274 142.794 441.695 142.876C440.783 142.876 440.121 143.448 439.375 143.776C438.796 143.694 438.63 143.203 438.878 142.712C439.293 142.221 439.955 141.812 440.701 141.648Z" fill="#3D1E1F"/>
<path d="M447.493 142.794C447.41 142.303 447.327 141.566 447.99 141.485C449.232 141.239 450.557 141.648 451.468 142.63C451.882 143.448 450.806 143.694 450.309 143.285C449.398 142.794 448.487 142.63 447.493 142.794Z" fill="#3D1E1F"/>
<path d="M444.759 145.411C445.008 145.411 445.422 145.33 445.67 145.33C446.416 147.539 445.505 149.748 444.262 151.548C445.091 151.957 446.002 152.12 446.83 152.611C446.996 153.348 446.167 153.838 445.505 153.593C444.428 153.184 443.02 152.775 442.771 151.548C442.937 150.402 444.014 149.666 444.345 148.602C444.759 147.539 444.262 146.311 444.759 145.411Z" fill="#3D1E1F"/>
<path d="M448.238 145.329C450.06 144.757 450.723 147.129 450.226 148.438C450.143 149.257 449.066 149.666 448.569 149.011C447.824 147.947 448.238 146.557 448.238 145.329Z" fill="#3D1E1F"/>
<path d="M441.032 145.658C441.447 145.003 442.44 145.248 442.689 145.903C442.937 146.721 443.02 148.112 442.026 148.521C440.618 148.685 440.121 146.476 441.032 145.658Z" fill="#3D1E1F"/>
<path d="M367.731 151.057C368.973 150.321 369.967 149.257 370.629 147.948C370.878 148.357 371.209 148.766 371.458 149.175C370.878 150.157 370.133 151.057 369.139 151.712C367.399 153.021 365.08 153.512 363.838 155.312C362.595 157.112 362.595 159.403 362.678 161.53C362.098 161.612 361.187 161.857 361.27 160.957C361.104 158.748 361.436 156.375 362.678 154.412C363.838 152.775 365.991 152.039 367.731 151.057Z" fill="#3D1E1F"/>
<path d="M243.243 149.421C244.568 149.012 246.059 149.176 247.302 149.83C247.55 150.158 247.467 150.73 247.053 150.894C245.894 150.894 244.651 150.239 243.492 150.812C242.829 150.976 242.249 151.467 241.587 151.385C240.841 150.321 242.415 149.667 243.243 149.421Z" fill="#3D1E1F"/>
<path d="M251.443 150.893C252.437 150.648 255.087 150.975 254.259 152.448C253.182 152.284 251.526 152.53 251.029 151.384C251.194 151.302 251.36 151.057 251.443 150.893Z" fill="#3D1E1F"/>
<path d="M248.627 155.475C248.71 154.657 248.461 152.857 249.704 153.02C250.367 153.511 249.87 154.411 249.952 155.066C249.704 156.784 250.698 158.175 251.857 159.32C252.769 160.22 252.272 161.693 251.278 162.266C250.118 162.266 248.958 162.102 247.799 161.938C247.799 161.693 247.882 161.202 247.964 160.956C248.793 160.384 250.781 161.775 250.781 160.302C249.621 159.075 248.461 157.438 248.627 155.475Z" fill="#3D1E1F"/>
<path d="M244.486 156.048C244.486 155.23 244.071 154.003 244.983 153.512C246.225 153.594 245.562 155.23 245.811 156.048C245.314 156.048 244.9 156.048 244.486 156.048Z" fill="#3D1E1F"/>
<path d="M251.278 155.147C251.278 154.411 252.106 154.656 252.52 154.656C252.52 155.556 252.437 156.456 252.272 157.275C250.947 157.52 250.947 156.047 251.278 155.147Z" fill="#3D1E1F"/>
<path d="M355.39 159.894C356.798 161.203 358.123 162.675 359.696 163.821C360.276 164.312 360.939 164.721 361.27 165.375C361.353 166.03 360.608 166.275 360.193 165.948C358.868 165.13 357.709 164.066 356.715 162.921C356.384 161.857 355.969 160.875 355.39 159.894Z" fill="#3D1E1F"/>
<path d="M446.664 164.966C449.978 163.984 453.125 162.429 456.189 160.793C453.788 164.638 450.557 167.993 446.913 170.775C445.174 172.165 443.186 173.393 440.867 173.638C441.198 171.265 441.198 168.893 441.778 166.602C442.026 166.029 441.612 165.538 441.281 165.129C443.02 165.866 444.925 165.457 446.664 164.966Z" fill="#3D1E1F"/>
<path d="M460.745 176.911C461.573 175.439 461.987 173.802 463.064 172.493C463.644 172.82 464.141 173.23 464.638 173.72C463.395 178.466 460.579 182.802 456.521 185.666C458.426 187.138 460.248 188.857 461.739 190.738C465.714 188.366 469.276 185.175 471.761 181.248C472.092 181.329 472.506 181.411 472.837 181.493C472.837 181.738 472.92 182.229 472.92 182.475C471.346 184.357 469.856 186.402 468.033 188.038C466.046 189.675 463.975 191.311 461.49 192.211C460.496 192.62 459.751 191.638 459.171 190.984C458.094 189.429 456.272 188.611 454.45 188.202C452.545 192.293 450.309 196.22 448.569 200.311C448.487 200.475 448.321 200.884 448.238 201.047C447.907 200.884 447.658 200.802 447.327 200.638C446.747 199.002 446.499 197.365 446.085 195.729C445.67 193.684 445.091 191.638 444.594 189.593C443.186 190.902 441.695 192.129 440.287 193.438C439.79 193.766 439.293 194.502 438.547 194.256C436.145 190.984 435.069 186.975 434.572 183.048C434.903 182.966 435.317 182.884 435.731 182.802C435.814 182.638 435.897 182.229 435.897 182.066L436.56 182.393C436.311 182.638 436.063 182.802 435.897 183.048C436.394 185.911 436.891 188.775 438.382 191.311C440.121 189.511 441.695 187.547 443.269 185.584C441.115 184.193 439.459 181.575 439.79 178.957L440.701 178.711C441.198 180.675 441.778 182.966 443.683 184.111C446.996 186.075 451.551 186.566 454.947 184.52C457.68 182.966 459.171 179.775 460.745 176.911ZM445.422 186.811C446.333 190.493 446.996 194.338 448.072 197.938C449.895 194.338 451.303 190.575 453.208 187.057C450.64 187.629 447.99 187.547 445.422 186.811Z" fill="#3D1E1F"/>
<path d="M160.5 187.957C160.832 188.366 161.08 188.693 161.411 189.102C164.31 192.375 167.292 195.566 170.853 198.184C173.173 199.902 175.409 201.62 177.894 203.011C182.035 205.22 186.342 207.102 190.483 209.311C192.388 210.62 194.376 211.929 196.198 213.32C196.861 213.729 196.447 214.465 196.115 214.956C194.956 216.592 193.796 218.147 192.554 219.62C191.643 218.556 190.483 217.983 189.075 217.983C186.59 221.256 184.106 224.61 182.532 228.456C181.538 230.829 180.544 233.119 179.55 235.41C176.651 242.856 175.74 250.874 173.173 258.483C167.043 257.419 160.997 255.619 155.365 253.001C153.212 252.019 151.141 250.71 149.319 249.237C146.171 246.783 143.769 243.674 141.782 240.319C137.972 233.365 136.812 225.101 137.806 217.247C138.551 211.356 140.87 205.629 144.763 201.129C149.153 195.811 154.62 191.556 160.5 187.957Z" fill="#3D1E1F"/>
<path d="M249.787 190.083C249.787 189.51 249.87 188.856 249.87 188.283C251.195 189.592 253.017 190.247 254.674 191.065C258.318 192.865 262.294 194.419 265.11 197.447C267.512 199.738 268.589 202.847 270.411 205.465C272.233 208.246 274.552 210.619 276.871 212.91C277.12 211.846 277.285 210.701 277.699 209.719C279.356 208.41 281.509 209.065 283.414 208.737C284.74 208.901 286.148 208.901 287.473 208.901C287.721 208.901 288.135 208.901 288.384 208.901C311.078 208.901 333.773 208.901 356.384 208.819C356.964 208.819 357.461 208.901 357.958 209.065C357.792 209.474 357.709 209.883 357.544 210.374C331.371 210.374 305.115 210.374 278.942 210.374C275.132 226.983 271.405 243.51 267.595 260.118C283.166 259.955 298.654 260.036 314.226 259.791C323.668 259.873 333.11 259.709 342.552 259.709C342.552 260.036 342.552 260.691 342.552 261.018C335.015 261.264 327.395 261.182 319.858 261.182C302.547 261.346 285.237 261.427 267.926 261.427C267.926 262.573 267.926 263.718 267.926 264.864C267.512 264.864 267.098 264.864 266.601 264.864C266.518 263.718 266.518 262.573 266.435 261.427C262.874 261.509 259.395 261.509 255.833 261.509C255.751 262.655 255.668 263.8 255.668 264.945C255.254 264.945 254.757 264.945 254.343 264.945C254.26 263.391 254.343 261.836 254.343 260.282C254.922 260.118 255.419 260.036 255.999 259.873C256.248 257.173 256.827 254.555 257.324 251.937C257.573 250.3 257.904 248.664 258.153 247.028C258.732 244.491 259.312 241.873 259.643 239.337C260.886 230.582 262.128 221.91 263.702 213.237C263.95 213.155 264.447 212.91 264.696 212.828C264.779 213.237 264.861 213.565 264.861 213.974C263.619 222.401 262.294 230.746 261.134 239.173C263.039 242.037 264.696 245.064 266.518 248.009C265.441 249.237 264.199 250.382 263.785 252.018C262.459 254.064 259.892 254.718 258.07 256.273C257.656 257.5 257.656 258.809 257.49 260.118C260.306 260.118 263.205 260.118 266.021 260.036C266.766 256.927 267.512 253.737 268.174 250.628C269.003 247.273 269.748 243.837 270.494 240.482C272.481 231.973 274.386 223.383 276.374 214.792C275.049 213.074 273.392 211.683 271.984 210.046C269.831 207.674 268.092 204.974 266.601 202.11C265.027 199.247 262.625 196.874 259.726 195.238C257.573 194.01 255.336 192.947 253.017 191.883C252.106 191.31 250.947 190.738 249.787 190.083Z" fill="#3D1E1F"/>
<path d="M380.072 191.884C381.314 191.557 382.557 191.475 383.716 192.129C383.136 192.784 382.557 193.438 381.977 194.093C381.314 193.356 380.652 192.62 380.072 191.884Z" fill="#3D1E1F"/>
<path d="M357.46 202.274C357.377 200.147 359.365 198.92 361.104 198.102C361.27 199.247 361.27 200.474 361.767 201.538C362.181 201.783 362.678 202.029 363.092 202.192C361.187 202.274 359.365 202.356 357.46 202.274Z" fill="#3D1E1F"/>
<path d="M488.077 201.701C488.822 200.474 489.568 199.001 490.976 198.347C491.804 198.592 491.473 199.41 491.059 199.819C488.408 202.847 487.497 206.856 486.752 210.701C486.172 213.728 486.42 216.919 487 219.946C488.491 227.392 492.218 234.101 495.862 240.646C496.442 241.546 496.774 242.61 497.685 243.182C502.737 243.182 507.872 242.528 512.925 242.446C513.918 242.937 513.09 244.082 512.262 243.837C499.672 244.573 487.083 245.309 474.493 245.882C476.316 247.355 477.475 249.4 478.303 251.528C479.049 253.737 480.126 255.864 480.54 258.237C480.954 259.955 481.119 261.755 481.119 263.473C482.528 263.473 484.018 263.473 485.426 263.473C483.439 263.555 481.534 263.555 479.629 263.473C479.38 259.709 478.552 255.864 477.061 252.428C476.15 250.873 475.653 248.828 473.914 247.928C472.506 248.991 470.932 249.809 469.275 250.218C469.275 249.073 469.275 247.764 470.104 246.782C470.766 245.964 471.512 245.146 472.423 244.573C475.819 244.328 479.214 244.164 482.528 244C487 243.755 491.39 243.51 495.862 243.264C492.632 237.619 489.568 231.892 487.249 225.837C485.592 221.092 484.598 215.937 485.261 210.865C485.841 207.837 486.503 204.565 488.077 201.701Z" fill="#3D1E1F"/>
<path d="M391.337 204.238C391.917 204.238 392.414 204.238 392.993 204.074C394.733 206.774 396.555 209.474 398.129 212.256C398.625 213.156 397.052 213.565 396.803 212.747C394.898 209.965 393.325 207.02 391.337 204.238Z" fill="#3D1E1F"/>
<path d="M412.871 209.229C412.788 208.656 413.451 208.166 413.948 208.656C414.279 209.556 414.03 210.538 414.03 211.52C413.534 216.593 413.534 221.665 413.451 226.738C413.202 236.147 413.534 245.638 414.859 254.965C414.445 255.128 414.113 255.374 413.699 255.537C412.788 249.974 411.711 244.492 410.717 239.01C409.475 239.256 408.233 239.501 406.99 239.747C408.15 236.638 409.806 233.692 410.8 230.583C411.132 230.42 411.38 230.174 411.711 230.011C411.877 228.947 411.96 227.965 411.96 226.902C411.96 220.929 412.208 215.12 412.871 209.229Z" fill="#3D1E1F"/>
<path d="M423.721 249.237C425.046 248.746 426.371 248.092 427.862 247.846C428.276 248.173 428.608 248.91 427.945 249.155C426.371 249.973 424.632 250.464 422.893 251.037C423.472 250.792 424.135 250.464 424.715 250.219C424.383 249.892 424.052 249.564 423.721 249.237Z" fill="#3D1E1F"/>
<path d="M449.397 253.655C449.812 253.655 450.309 253.655 450.723 253.655C450.888 254.883 451.137 256.028 451.137 257.255C451.137 257.91 449.894 257.828 449.894 257.255C449.563 256.028 449.563 254.801 449.397 253.655Z" fill="#3D1E1F"/>
<path d="M345.202 264.455C345.451 262.982 344.705 261.019 346.03 259.955L346.279 260.037C346.942 261.346 346.445 262.982 346.527 264.455C346.113 264.455 345.616 264.455 345.202 264.455Z" fill="#3D1E1F"/>
<path d="M412.623 264.046C414.694 262.819 416.764 261.428 419.001 260.446C419.663 260.037 420.243 260.855 419.829 261.428C418.587 262.328 417.013 262.901 415.77 263.883C414.694 264.046 413.617 263.964 412.623 264.046Z" fill="#3D1E1F"/>
<path d="M164.725 128.803C167.623 128.721 170.771 128.394 173.173 126.512C173.09 127.248 173.007 127.984 173.007 128.639C171.599 130.275 169.363 130.684 167.292 130.93C165.304 131.175 163.234 130.93 161.246 130.603C161.08 130.766 160.749 131.093 160.5 131.257C159.341 130.848 158.181 130.521 157.105 130.112C157.353 128.966 156.028 128.23 155.779 127.084C158.678 128.23 161.743 128.639 164.725 128.803Z" fill="#FDDC03"/>
<path d="M170.439 133.139C171.765 132.648 173.09 132.239 174.249 131.421C175.657 133.957 177.148 136.412 178.556 138.866C179.882 141.157 180.213 143.775 180.875 146.312C181.704 150.075 182.863 153.675 183.857 157.357C184.354 159.32 185.514 161.039 186.508 162.757C187.336 164.066 187.584 165.702 188.33 167.093C187.419 169.057 186.59 171.02 185.597 172.902C183.774 171.102 182.284 168.893 181.29 166.52C179.467 162.511 178.722 158.093 176.569 154.248C175.74 152.857 175.989 151.139 175.906 149.584C175.906 147.457 175.078 145.412 173.67 143.857C172.841 142.875 171.93 141.975 171.599 140.748C170.771 138.293 170.688 135.675 170.439 133.139Z" fill="#FDDC03"/>
<path d="M163.316 135.348C164.807 133.712 167.209 134.203 169.114 133.385C169.445 136.167 169.445 138.948 170.274 141.566C170.936 143.53 172.841 144.757 173.67 146.639C174.995 149.175 173.752 152.203 175.16 154.739C177.728 159.403 178.474 164.884 181.124 169.548C182.283 171.593 183.94 173.393 185.597 175.03C188.33 176.911 191.643 177.893 194.956 178.466C199.677 178.875 204.232 180.266 208.788 181.575C210.61 182.148 212.515 181.657 214.42 181.493C217.402 181.166 220.466 181.657 223.448 182.393C223.531 185.911 223.779 189.511 225.27 192.702C226.678 195.975 229.08 198.756 232.145 200.638C236.038 203.011 241.338 203.011 245.231 200.638C247.55 199.247 249.621 197.202 250.946 194.829C251.526 193.684 252.354 192.702 253.431 191.966C255.667 193.029 257.904 194.093 260.14 195.32C263.039 196.875 265.441 199.247 267.015 202.193C268.505 205.056 270.245 207.756 272.398 210.129C273.806 211.765 275.463 213.156 276.788 214.874C274.8 223.465 272.895 231.974 270.907 240.565C269.416 238.356 268.671 235.819 267.346 233.529C266.766 232.465 266.186 231.319 266.103 230.092C265.772 225.838 266.103 221.501 266.103 217.165C266.103 215.692 266.186 214.138 266.352 212.665C265.938 212.747 265.441 212.829 265.027 212.992C264.778 213.074 264.281 213.32 264.033 213.402C262.459 222.074 261.217 230.829 259.974 239.501C259.063 241.056 258.649 242.856 257.904 244.41C256.744 246.946 255.585 249.483 254.425 252.019C253.1 254.637 251.775 257.255 250.698 259.955C249.041 260.037 247.219 258.728 247.468 256.928C248.047 254.637 250.284 252.592 249.207 250.055C248.13 248.01 245.397 248.256 243.409 248.419C236.452 249.237 229.743 251.446 222.868 252.919C218.81 253.901 214.668 254.719 210.527 255.537C206.055 256.601 201.582 257.583 197.109 258.401C194.045 258.974 190.897 259.137 187.833 259.464C185.514 259.792 182.946 259.219 181.455 257.337C179.799 255.292 179.716 252.51 180.047 249.974C181.455 241.792 186.342 234.756 189.158 226.983C190.4 224.529 191.229 221.911 192.802 219.62C194.045 218.147 195.287 216.511 196.364 214.956C196.695 214.465 197.109 213.729 196.447 213.32C194.542 211.929 192.637 210.62 190.732 209.311C186.59 207.102 182.283 205.22 178.142 203.011C175.657 201.62 173.338 199.902 171.102 198.184C167.54 195.566 164.559 192.375 161.66 189.102C161.577 187.466 161.163 185.911 160.997 184.275C160.335 179.366 160.252 174.457 159.838 169.548C159.506 164.802 159.009 160.139 158.43 155.393C158.098 152.53 157.767 149.584 158.015 146.639C158.181 144.266 158.347 141.812 159.424 139.603C160.169 137.885 161.908 136.739 163.316 135.348ZM189.572 252.101C189.324 252.592 189.986 253.246 190.483 253.001C190.897 252.51 190.069 251.692 189.572 252.101Z" fill="#FFD801"/>
<path d="M186.674 174.048C187.668 172.002 188.579 169.957 189.49 167.912C191.478 169.057 193.631 169.793 195.702 170.693C196.861 171.021 198.021 171.184 199.181 171.593C202.079 172.739 205.227 173.475 208.374 173.802C211.273 174.13 214.172 173.639 217.071 174.048C219.804 174.457 222.537 175.193 225.271 175.848C224.442 177.484 224.028 179.202 223.697 181.002C220.715 180.266 217.568 179.775 214.42 180.102C212.598 180.184 210.611 180.757 208.788 180.102C205.144 179.039 201.417 177.975 197.69 177.402C193.88 176.993 189.904 176.175 186.674 174.048Z" fill="#FDDC03"/>
<path d="M464.638 173.72C466.709 175.438 468.283 177.811 470.188 179.611C470.685 180.102 471.182 180.675 471.678 181.247C469.194 185.175 465.632 188.365 461.657 190.738C460.166 188.856 458.426 187.138 456.438 185.665C460.58 182.802 463.396 178.466 464.638 173.72Z" fill="#FDDC03"/>
<path d="M226.347 176.093C227.175 176.339 228.003 176.748 228.832 177.157C228.583 178.711 228.335 180.348 228.086 181.902C227.092 181.739 226.098 181.493 225.104 181.329C225.436 179.53 225.933 177.811 226.347 176.093Z" fill="#FDDC03"/>
<path d="M436.476 182.557C437.553 181.493 438.713 180.429 439.624 179.202C439.292 181.82 440.949 184.438 443.102 185.829C441.529 187.793 439.955 189.756 438.216 191.556C436.808 189.02 436.228 186.157 435.731 183.293C436.062 182.966 436.228 182.802 436.476 182.557ZM436.891 184.029C436.476 184.029 436.145 184.929 436.725 185.011C437.139 184.929 437.47 184.029 436.891 184.029Z" fill="#FDDC03"/>
<path d="M227.838 194.502C225.685 191.065 224.608 186.811 225.105 182.802C226.016 182.965 226.927 183.129 227.838 183.293C227.507 185.093 228.501 186.729 229.329 188.283C231.069 191.72 234.299 194.092 237.612 195.974C240.014 197.365 243.078 197.447 245.646 196.383C246.805 196.056 247.965 195.565 249.125 194.911C246.888 198.347 242.995 200.965 238.689 200.965C234.133 201.129 230.075 198.183 227.838 194.502Z" fill="#FDDC03"/>
<path d="M431.259 183.702C432.253 183.293 433.412 183.375 434.489 183.211C434.986 187.138 435.98 191.147 438.465 194.42C439.21 194.665 439.707 193.929 440.204 193.602C442.192 194.338 444.014 195.402 446.002 195.811C446.416 197.447 446.665 199.165 447.244 200.72C447.576 200.883 447.824 201.047 448.155 201.129C448.238 200.965 448.404 200.556 448.487 200.392C451.137 199.492 452.876 197.202 454.864 195.32C456.272 193.929 457.763 192.538 459.088 191.065C459.668 191.72 460.414 192.702 461.408 192.293C463.892 191.393 465.963 189.756 467.951 188.12C471.264 188.447 474.411 187.465 477.641 186.893C479.712 186.402 481.866 186.484 483.771 185.584C487.829 187.384 492.053 188.856 496.195 190.493C496.774 190.738 497.437 190.984 498.017 191.311C502.158 193.274 506.051 196.056 508.701 199.738C509.612 201.211 510.275 202.765 511.269 204.238C512.014 205.301 512.925 206.365 513.505 207.592C515.659 211.765 517.564 216.019 519.717 220.192C521.208 223.547 522.782 226.901 524.355 230.174C527.42 235.819 531.727 240.81 533.963 246.946C535.371 250.464 536.117 254.146 536.199 257.91C533.466 257.255 530.65 257.746 527.917 257.664C519.22 257.664 510.441 258.073 501.744 258.073C494.704 258.237 487.663 258.564 480.54 258.319C480.043 256.028 479.049 253.819 478.304 251.61C477.476 249.482 476.316 247.437 474.494 245.964C487.084 245.31 499.673 244.573 512.263 243.919C513.174 244.164 514.002 242.937 512.925 242.528C507.873 242.61 502.738 243.183 497.685 243.264C496.774 242.692 496.36 241.628 495.863 240.728C492.302 234.101 488.492 227.392 487.001 220.028C486.421 217.001 486.173 213.892 486.752 210.783C487.415 206.938 488.409 202.929 491.059 199.902C491.556 199.492 491.888 198.592 490.976 198.429C489.568 199.083 488.823 200.556 488.078 201.783C486.504 204.647 485.841 207.92 485.179 211.029C483.936 212.747 483.605 214.874 482.859 216.919C480.706 223.547 480.126 230.583 480.872 237.374C481.12 239.664 481.866 241.874 482.445 244.164C479.049 244.41 475.654 244.492 472.341 244.737C471.43 245.31 470.767 246.128 470.021 246.946C469.193 247.928 469.276 249.237 469.193 250.382C463.147 251.937 457.018 253.164 450.806 253.573C450.392 253.573 449.895 253.573 449.481 253.573C446.499 252.346 443.269 251.692 440.287 250.464C437.968 249.728 436.146 248.01 433.826 247.192C430.513 245.883 427.283 244.492 423.97 243.428C422.728 243.101 421.32 242.692 420.077 243.183C419.001 243.755 419.332 245.31 420.16 246.046C421.32 247.11 422.728 247.928 423.805 249.237C424.136 249.564 424.467 249.892 424.716 250.219C424.136 250.464 423.473 250.71 422.893 251.037C420.16 252.264 417.593 253.655 414.942 254.882C413.534 245.555 413.286 236.065 413.534 226.656C413.617 221.583 413.617 216.51 414.114 211.438C414.114 210.538 414.362 209.474 414.031 208.574C413.617 208.165 412.872 208.574 412.954 209.147C412.292 214.956 412.043 220.847 412.126 226.737C408.979 227.719 406.163 229.601 403.015 230.746C397.383 232.956 392.082 235.983 386.119 237.292C383.551 237.946 380.901 238.846 378.25 238.028C375.848 237.455 374.606 235.165 373.198 233.446C372.867 232.874 372.204 232.628 371.541 232.383H371.459C369.554 228.456 367.566 224.528 365.992 220.356C364.17 215.447 362.182 210.538 360.443 205.547C360.194 204.647 359.283 204.401 358.62 203.911C358.041 203.501 357.792 202.847 357.461 202.274C359.366 202.356 361.188 202.274 363.093 202.274C365.992 202.356 368.974 201.783 371.624 200.638C375.434 199.165 379.41 197.283 381.977 194.093C382.557 193.438 383.137 192.783 383.717 192.129L383.8 192.047C384.462 192.702 385.042 193.438 385.456 194.256C386.781 196.874 388.603 199.247 389.846 201.947C390.26 202.765 390.757 203.583 391.337 204.32C393.242 207.101 394.898 210.047 396.803 212.829C397.052 213.729 398.543 213.238 398.128 212.338C396.555 209.556 394.733 206.856 392.993 204.156C397.797 200.065 403.843 197.856 409.393 194.829C414.031 191.474 418.835 188.202 424.136 185.911C426.455 184.847 428.94 184.684 431.259 183.702ZM410.884 209.31C410.884 207.183 411.463 205.138 411.298 203.011C411.049 205.138 410.47 207.265 410.884 209.31Z" fill="#FFD801"/>
<path d="M445.422 186.811C447.907 187.547 450.64 187.629 453.207 187.056C451.302 190.574 449.894 194.338 448.072 197.938C446.996 194.256 446.416 190.492 445.422 186.811Z" fill="#FDDC03"/>
<path d="M254.757 191.065C256.082 189.838 257.407 188.529 259.064 187.711C262.128 188.856 264.944 190.411 267.843 191.884C270.577 193.274 273.061 194.993 275.132 197.202C277.037 198.838 279.108 200.393 280.847 202.274C282.835 204.402 284.823 206.529 287.059 208.411C287.225 208.574 287.473 208.82 287.639 208.902C286.314 208.902 284.905 208.901 283.58 208.738C281.675 209.065 279.439 208.411 277.865 209.72C277.451 210.701 277.286 211.847 277.037 212.911C274.635 210.62 272.316 208.247 270.577 205.465C268.672 202.847 267.678 199.656 265.276 197.447C262.377 194.42 258.401 192.865 254.757 191.065Z" fill="#FDDC03"/>
<path d="M256.496 250.955C256.662 249.564 257.324 248.255 258.235 247.191C257.987 248.828 257.738 250.464 257.407 252.1C257.159 251.691 256.827 251.282 256.496 250.955Z" fill="#FDDC03"/>
<path d="M223.862 265.191C224.691 264.946 225.519 264.7 226.347 264.7C230.571 264.7 234.878 264.537 239.102 264.619C240.013 264.619 240.924 264.864 241.836 265.028C235.789 265.191 229.826 265.11 223.862 265.191Z" fill="#FDDC03"/>
<path d="M157.187 130.112C158.347 130.521 159.506 130.848 160.583 131.257C160.915 131.585 161.246 132.075 161.743 132.157C164.062 132.648 166.547 132.566 168.949 132.239C168.949 132.566 169.032 133.139 169.114 133.384C167.209 134.203 164.807 133.712 163.316 135.348C161.908 136.739 160.169 137.966 159.175 139.684C158.098 141.812 157.933 144.348 157.767 146.721C157.519 149.666 157.933 152.53 158.181 155.475C158.761 160.139 159.258 164.884 159.589 169.629C160.003 174.538 160.086 179.447 160.749 184.356C160.915 185.993 161.329 187.547 161.411 189.184C161.08 188.774 160.749 188.447 160.5 188.038C159.838 187.138 159.341 186.238 159.092 185.175C157.85 180.429 156.773 175.52 155.779 170.693C155.199 168.402 155.282 165.948 154.62 163.657C154.206 161.939 154.206 160.139 154.04 158.339C154.04 157.848 153.957 157.357 153.957 156.948C153.626 150.893 152.963 144.839 154.288 138.866C154.868 135.757 156.442 133.139 157.187 130.112Z" fill="#FDB301"/>
<path d="M170.274 131.913C171.351 131.504 172.345 131.095 173.338 130.44C173.504 130.358 173.753 130.277 173.835 130.195C173.918 130.522 174.167 131.095 174.25 131.422C173.09 132.24 171.765 132.731 170.44 133.14C170.357 132.731 170.274 132.322 170.274 131.913Z" fill="#FDB301"/>
<path d="M223.614 181.002C223.945 179.283 224.359 177.484 225.187 175.847C225.519 175.929 226.099 176.093 226.347 176.174C225.85 177.893 225.436 179.611 225.105 181.329C224.608 181.165 224.111 181.083 223.614 181.002Z" fill="#FDB301"/>
<path d="M472.837 182.556C473.417 182.311 474.162 181.738 474.825 182.065C476.067 182.556 477.31 183.047 478.552 183.538C480.291 184.193 482.031 184.847 483.77 185.583C481.865 186.483 479.629 186.402 477.641 186.892C474.411 187.465 471.263 188.365 467.95 188.12C469.772 186.483 471.263 184.52 472.837 182.556Z" fill="#FDB301"/>
<path d="M223.365 182.393C223.945 182.557 224.525 182.639 225.105 182.802C224.608 186.893 225.767 191.066 227.838 194.502C230.074 198.184 234.133 201.129 238.605 200.965C242.912 200.965 246.805 198.429 249.041 194.911C247.965 195.484 246.805 195.975 245.563 196.384C246.722 195.402 247.882 194.502 248.958 193.356C249.787 192.457 249.704 191.229 249.787 190.084C250.946 190.738 252.106 191.311 253.265 191.884C252.272 192.702 251.36 193.602 250.781 194.747C249.455 197.202 247.468 199.165 245.066 200.556C241.173 202.929 235.872 202.929 231.979 200.556C228.915 198.675 226.513 195.893 225.105 192.62C223.697 189.511 223.448 185.911 223.365 182.393Z" fill="#FDB301"/>
<path d="M436.891 184.029C437.47 184.029 437.139 184.929 436.725 185.011C436.145 184.929 436.476 184.029 436.891 184.029Z" fill="#FDB301"/>
<path d="M250.284 184.356C253.1 185.666 256.165 186.647 259.064 187.711C257.407 188.529 256.165 189.838 254.757 191.065C253.1 190.247 251.278 189.593 249.953 188.284C250.035 186.975 250.201 185.666 250.284 184.356Z" fill="#FDB301"/>
<path d="M448.486 200.475C450.226 196.302 452.379 192.375 454.367 188.366C456.189 188.775 458.011 189.593 459.088 191.147C457.763 192.62 456.272 194.011 454.864 195.402C452.876 197.284 451.137 199.575 448.486 200.475Z" fill="#FDB301"/>
<path d="M444.511 189.838C445.008 191.883 445.588 193.847 446.002 195.974C443.931 195.483 442.109 194.42 440.204 193.765C441.612 192.374 443.103 191.147 444.511 189.838Z" fill="#FDB301"/>
<path d="M410.883 209.311C410.469 207.183 411.049 205.138 411.297 203.011C411.463 205.138 410.883 207.265 410.883 209.311Z" fill="#FDB301"/>
<path d="M482.859 216.838C483.604 214.874 483.936 212.747 485.178 210.947C484.515 216.02 485.509 221.093 487.166 225.92C489.485 231.974 492.467 237.783 495.78 243.347C491.307 243.592 486.917 243.838 482.445 244.083C481.865 241.792 481.119 239.583 480.871 237.292C480.043 230.502 480.705 223.465 482.859 216.838Z" fill="#FDB301"/>
<path d="M264.778 212.911C265.193 212.747 265.69 212.665 266.104 212.583C266.021 214.056 265.855 215.529 265.855 217.083C265.855 221.42 265.607 225.674 265.855 230.01C265.938 231.238 266.435 232.383 267.098 233.447C268.423 235.738 269.168 238.274 270.659 240.483C269.914 243.919 269.085 247.274 268.34 250.628C267.76 249.728 267.18 248.91 266.684 248.01C264.861 245.065 263.122 242.119 261.3 239.174C262.459 230.747 263.785 222.402 265.027 213.974C265.027 213.647 264.944 213.238 264.778 212.911Z" fill="#FDB301"/>
<path d="M189.075 217.901C190.483 217.901 191.643 218.555 192.554 219.537C190.98 221.828 190.152 224.446 188.91 226.901C186.094 234.673 181.29 241.71 179.799 249.891C179.385 252.428 179.467 255.209 181.207 257.255C182.615 259.137 185.265 259.709 187.584 259.382C190.649 258.973 193.796 258.891 196.861 258.318C201.334 257.418 205.889 256.518 210.279 255.455C214.42 254.637 218.479 253.9 222.62 252.837C229.494 251.364 236.203 249.237 243.161 248.337C245.149 248.173 247.882 247.928 248.959 249.973C250.035 252.428 247.799 254.555 247.219 256.846C246.971 258.646 248.793 259.955 250.449 259.873C251.526 257.173 252.851 254.555 254.177 251.937C255.336 249.4 256.496 246.864 257.655 244.328C258.401 242.691 258.815 240.973 259.726 239.419C259.395 242.037 258.815 244.573 258.235 247.109C257.324 248.173 256.579 249.482 256.496 250.873C256.827 251.282 257.076 251.609 257.49 251.937C256.993 254.555 256.496 257.255 256.164 259.873C255.585 259.955 255.088 260.118 254.508 260.282C254.508 261.836 254.425 263.391 254.508 264.946C250.284 264.864 246.06 265.027 241.836 265.027C240.924 264.782 240.013 264.618 239.102 264.618C234.878 264.536 230.571 264.7 226.347 264.7C225.519 264.7 224.691 264.946 223.862 265.191C215 265.355 206.137 265.355 197.192 265.355C189.241 265.518 181.29 265.436 173.338 265.6C172.676 265.6 171.93 265.6 171.268 265.273L171.102 265.191C171.599 262.9 172.427 260.773 173.09 258.482C175.657 250.955 176.651 242.937 179.467 235.41C180.461 233.037 181.455 230.746 182.449 228.455C184.106 224.528 186.508 221.174 189.075 217.901Z" fill="#FDB301"/>
<path d="M402.932 230.828C406.079 229.683 408.895 227.801 412.043 226.819C412.043 227.883 411.877 228.865 411.794 229.928C411.463 230.092 411.215 230.256 410.883 230.501C409.889 233.692 408.233 236.556 407.073 239.665C402.849 240.565 398.542 241.383 394.235 242.119C391.005 242.61 387.775 243.674 384.462 243.428C382.391 243.428 380.32 243.019 378.581 241.955C378.084 241.628 377.504 241.301 377.09 240.892C374.44 238.683 372.949 235.41 371.458 232.383C372.038 232.628 372.7 232.874 373.115 233.447C374.523 235.165 375.765 237.456 378.167 238.028C380.817 238.765 383.468 237.865 386.035 237.292C391.999 236.065 397.3 233.037 402.932 230.828Z" fill="#FDB301"/>
<path d="M501.744 258.073C510.44 258.073 519.22 257.664 527.917 257.664C530.65 257.664 533.466 257.255 536.199 257.91C536.116 258.81 536.033 259.71 535.951 260.61C535.371 261.51 534.957 262.41 534.46 263.392C518.143 263.473 501.744 263.555 485.427 263.637C484.019 263.555 482.528 263.555 481.12 263.637C481.12 261.837 480.954 260.119 480.54 258.401C487.58 258.646 494.62 258.237 501.744 258.073Z" fill="#FDB301"/>
<path d="M118.093 156.702C118.425 156.539 119.253 156.702 119.004 157.275C118.673 157.929 117.099 157.193 118.093 156.702Z" fill="#9966B4"/>
<path d="M342.717 259.628C343.794 259.628 344.954 259.628 346.03 259.873C344.705 260.937 345.533 262.901 345.202 264.373C333.275 264.537 321.431 264.455 309.504 264.619C302.298 264.782 295.092 264.373 287.804 264.701C281.178 264.701 274.634 264.864 268.008 264.782C268.008 263.637 268.008 262.492 268.008 261.346C285.319 261.264 302.63 261.182 319.94 261.101C327.477 261.101 335.097 261.101 342.635 260.937C342.635 260.692 342.717 260.037 342.717 259.628Z" fill="#9966B4"/>
<path d="M255.833 265.028C255.916 263.882 255.916 262.737 255.999 261.592C259.561 261.592 263.039 261.673 266.601 261.51C266.684 262.655 266.684 263.801 266.766 264.946C263.122 264.946 259.478 264.864 255.833 265.028Z" fill="#9966B4"/>
<path d="M531.644 183.293C531.644 183.293 530.567 206.774 543.985 218.965C544.068 218.965 538.021 186.402 531.644 183.293Z" fill="#848484"/>
<path d="M531.644 183.293C540.258 193.684 535.371 208.575 543.985 218.965C553.344 215.774 562.787 212.584 572.146 209.393C563.532 199.002 568.419 184.111 559.805 173.721C550.446 176.993 541.086 180.184 531.644 183.293ZM554.504 204.893C551.025 206.038 547.629 207.266 544.151 208.411C544.068 208.084 543.985 207.675 543.902 207.347C547.381 206.202 550.777 204.975 554.256 203.829C554.256 204.238 554.338 204.566 554.504 204.893ZM562.869 198.184C556.326 200.393 549.783 202.602 543.323 204.811C543.24 204.484 543.157 204.075 543.157 203.747C549.7 201.538 556.243 199.329 562.704 197.12C562.787 197.448 562.787 197.857 562.869 198.184ZM562.29 194.502C555.746 196.711 549.203 198.92 542.743 201.129C542.66 200.802 542.66 200.393 542.577 200.066C549.12 197.857 555.664 195.648 562.124 193.439C562.207 193.766 562.207 194.175 562.29 194.502ZM561.71 190.82C555.167 193.029 548.623 195.238 542.163 197.448C542.08 197.12 542.08 196.711 541.997 196.384C548.541 194.175 555.084 191.966 561.544 189.757C561.627 190.166 561.71 190.493 561.71 190.82ZM561.13 187.22C554.587 189.43 548.044 191.639 541.583 193.848C541.5 193.52 541.418 193.111 541.335 192.784C547.878 190.575 554.421 188.366 560.882 186.157C560.964 186.484 561.047 186.811 561.13 187.22ZM560.219 183.621C553.676 185.83 547.133 188.039 540.672 190.248C540.589 189.92 540.424 189.511 540.341 189.184C546.884 186.975 553.427 184.766 559.888 182.557C559.971 182.966 560.136 183.293 560.219 183.621ZM558.977 180.184C552.433 182.393 545.89 184.602 539.43 186.811C539.264 186.484 539.098 186.157 538.933 185.83C545.476 183.621 552.019 181.411 558.48 179.202C558.645 179.53 558.811 179.857 558.977 180.184Z" fill="#EAE1EE"/>
<path d="M241.792 210.947L245.635 211.279L249.167 221.454L245.256 221.117L241.792 210.947Z" fill="#212221"/>
<path d="M247.445 215.059L249.445 211.789C249.819 212.026 250.258 212.142 250.702 212.123C251.635 212.172 252.075 211.944 253.175 211.983C253.828 212.004 254.476 212.103 255.105 212.278L253.08 215.643C252.644 215.394 252.15 215.263 251.646 215.261C250.658 215.201 250.288 215.51 249.25 215.457C248.63 215.426 248.019 215.292 247.444 215.06" fill="#212221"/>
<path d="M464.593 206.038L468.437 206.37L471.969 216.545L468.058 216.207L464.593 206.038Z" fill="#212221"/>
<path d="M470.247 210.15L472.247 206.88C472.621 207.116 473.06 207.233 473.504 207.214C474.437 207.262 474.877 207.035 475.977 207.073C476.63 207.094 477.278 207.194 477.907 207.369L475.882 210.733C475.446 210.485 474.952 210.353 474.449 210.352C473.46 210.292 473.091 210.601 472.052 210.547C471.432 210.516 470.821 210.382 470.246 210.15" fill="#212221"/>
<defs>
<filter id="filter0_f_944_4719" x="0" y="246" width="668" height="70" filterUnits="userSpaceOnUse" color-interpolation-filters="sRGB">
<feFlood flood-opacity="0" result="BackgroundImageFix"/>
<feBlend mode="normal" in="SourceGraphic" in2="BackgroundImageFix" result="shape"/>
<feGaussianBlur stdDeviation="10" result="effect1_foregroundBlur_944_4719"/>
</filter>
</defs>
</svg>
