<svg width="1920" height="320" viewBox="0 0 1920 320" fill="none" xmlns="http://www.w3.org/2000/svg">
<g clip-path="url(#clip0_1823_620)">
<g opacity="0.4">
<g opacity="0.2">
<circle cx="2.025" cy="2.025" r="2.025" transform="matrix(0 1 1 0 -1.15039 10.25)" fill="white"/>
<circle cx="2.025" cy="2.025" r="2.025" transform="matrix(0 1 1 0 13.7002 10.25)" fill="white"/>
<circle cx="2.025" cy="2.025" r="2.025" transform="matrix(0 1 1 0 28.5498 10.25)" fill="white"/>
<circle cx="2.025" cy="2.025" r="2.025" transform="matrix(0 1 1 0 -1.15039 25.0996)" fill="white"/>
<circle cx="2.025" cy="2.025" r="2.025" transform="matrix(0 1 1 0 13.7002 25.0996)" fill="white"/>
<circle cx="2.025" cy="2.025" r="2.025" transform="matrix(0 1 1 0 28.5498 25.0996)" fill="white"/>
<circle cx="2.025" cy="2.025" r="2.025" transform="matrix(0 1 1 0 -1.15039 39.9502)" fill="white"/>
<circle cx="2.025" cy="2.025" r="2.025" transform="matrix(0 1 1 0 13.7002 39.9502)" fill="white"/>
<circle cx="2.025" cy="2.025" r="2.025" transform="matrix(0 1 1 0 28.5498 39.9502)" fill="white"/>
</g>
<g opacity="0.6">
<circle opacity="0.5" cx="2.025" cy="2.025" r="2.025" transform="matrix(0 1 1 0 43.4004 10.25)" fill="white"/>
<circle opacity="0.7" cx="2.025" cy="2.025" r="2.025" transform="matrix(0 1 1 0 58.25 10.25)" fill="white"/>
<circle cx="2.025" cy="2.025" r="2.025" transform="matrix(0 1 1 0 73.1006 10.25)" fill="white"/>
<circle cx="2.025" cy="2.025" r="2.025" transform="matrix(0 1 1 0 87.9502 10.25)" fill="white"/>
<circle opacity="0.5" cx="2.025" cy="2.025" r="2.025" transform="matrix(0 1 1 0 43.4004 25.0996)" fill="white"/>
<circle opacity="0.7" cx="2.025" cy="2.025" r="2.025" transform="matrix(0 1 1 0 58.25 25.0996)" fill="white"/>
<circle cx="2.025" cy="2.025" r="2.025" transform="matrix(0 1 1 0 73.1006 25.0996)" fill="white"/>
<circle cx="2.025" cy="2.025" r="2.025" transform="matrix(0 1 1 0 87.9502 25.0996)" fill="white"/>
<circle opacity="0.5" cx="2.025" cy="2.025" r="2.025" transform="matrix(0 1 1 0 43.4004 39.9502)" fill="white"/>
<circle opacity="0.7" cx="2.025" cy="2.025" r="2.025" transform="matrix(0 1 1 0 58.25 39.9502)" fill="white"/>
<circle cx="2.025" cy="2.025" r="2.025" transform="matrix(0 1 1 0 73.1006 39.9502)" fill="white"/>
<circle cx="2.025" cy="2.025" r="2.025" transform="matrix(0 1 1 0 87.9502 39.9502)" fill="white"/>
</g>
</g>
</g>
<g clip-path="url(#clip1_1823_620)">
<g opacity="0.4">
<g opacity="0.2">
<circle cx="2.325" cy="2.325" r="2.325" transform="matrix(0 -1 -1 0 1913 248.7)" fill="white"/>
<circle cx="2.325" cy="2.325" r="2.325" transform="matrix(0 -1 -1 0 1895.95 248.7)" fill="white"/>
<circle cx="2.325" cy="2.325" r="2.325" transform="matrix(0 -1 -1 0 1878.9 248.7)" fill="white"/>
<circle cx="2.325" cy="2.325" r="2.325" transform="matrix(0 -1 -1 0 1861.85 248.7)" fill="white"/>
<circle cx="2.325" cy="2.325" r="2.325" transform="matrix(0 -1 -1 0 1913 231.65)" fill="white"/>
<circle cx="2.325" cy="2.325" r="2.325" transform="matrix(0 -1 -1 0 1895.95 231.65)" fill="white"/>
<circle cx="2.325" cy="2.325" r="2.325" transform="matrix(0 -1 -1 0 1878.9 231.65)" fill="white"/>
<circle cx="2.325" cy="2.325" r="2.325" transform="matrix(0 -1 -1 0 1861.85 231.65)" fill="white"/>
</g>
<g opacity="0.6">
<circle opacity="0.5" cx="2.325" cy="2.325" r="2.325" transform="matrix(0 -1 -1 0 1844.8 248.7)" fill="white"/>
<circle opacity="0.7" cx="2.325" cy="2.325" r="2.325" transform="matrix(0 -1 -1 0 1827.75 248.7)" fill="white"/>
<circle cx="2.325" cy="2.325" r="2.325" transform="matrix(0 -1 -1 0 1810.7 248.7)" fill="white"/>
<circle cx="2.325" cy="2.325" r="2.325" transform="matrix(0 -1 -1 0 1793.65 248.7)" fill="white"/>
<circle opacity="0.5" cx="2.325" cy="2.325" r="2.325" transform="matrix(0 -1 -1 0 1844.8 231.65)" fill="white"/>
<circle opacity="0.7" cx="2.325" cy="2.325" r="2.325" transform="matrix(0 -1 -1 0 1827.75 231.65)" fill="white"/>
<circle cx="2.325" cy="2.325" r="2.325" transform="matrix(0 -1 -1 0 1810.7 231.65)" fill="white"/>
<circle cx="2.325" cy="2.325" r="2.325" transform="matrix(0 -1 -1 0 1793.65 231.65)" fill="white"/>
</g>
</g>
</g>
<g opacity="0.8" clip-path="url(#clip2_1823_620)">
<path d="M1065.68 190.364H1048.88C1050.54 201.914 1060.5 210.818 1072.5 210.818C1084.5 210.818 1094.46 201.914 1096.12 190.364H1079.32V183.545H1096.36V173.318H1079.32V166.5H1096.36V156.273H1079.32V149.455H1096.12C1094.46 137.905 1084.5 129 1072.5 129C1060.5 129 1050.54 137.905 1048.88 149.455H1065.68V156.273H1048.64V166.5H1065.68V173.318H1048.64V183.545H1065.68V190.364Z" fill="black" fill-opacity="0.05"/>
<path d="M1075.91 224.303C1095 222.573 1110 206.482 1110 186.955C1109.14 186.955 1105.12 186.955 1103.18 186.955C1103.18 203.89 1089.4 217.637 1072.5 217.637C1055.58 217.637 1041.82 203.873 1041.82 186.955H1035C1035 206.482 1050 222.573 1069.09 224.303V238.546H1045.23V245.364H1099.77V238.546H1075.91V224.303Z" fill="black" fill-opacity="0.05"/>
</g>
<g clip-path="url(#clip3_1823_620)">
<path d="M1420.73 31.4545H1407.74C1409.02 40.3865 1416.72 47.2727 1426 47.2727C1435.28 47.2727 1442.98 40.3865 1444.27 31.4545H1431.27V26.1818H1444.45V18.2727H1431.27V13H1444.45V5.09091H1431.27V-0.181819H1444.27C1442.98 -9.11382 1435.28 -16 1426 -16C1416.72 -16 1409.02 -9.11382 1407.74 -0.181819H1420.73V5.09091H1407.55V13H1420.73V18.2727H1407.55V26.1818H1420.73V31.4545Z" fill="black" fill-opacity="0.05"/>
<path d="M1428.64 57.6996C1443.4 56.3621 1455 43.9185 1455 28.8174C1454.33 28.8174 1451.23 28.8174 1449.73 28.8174C1449.73 41.9138 1439.07 52.5447 1426 52.5447C1412.92 52.5447 1402.27 41.9008 1402.27 28.8174H1397C1397 43.9185 1408.6 56.3621 1423.36 57.6996V68.7144H1404.91V73.9871H1447.09V68.7144H1428.64V57.6996Z" fill="black" fill-opacity="0.05"/>
</g>
<g opacity="0.8" clip-path="url(#clip4_1823_620)">
<path d="M77.7837 108.291C71.8685 103.955 65.7995 98.6119 61.4801 92.1328L57.6988 86.461C56.8977 85.2594 55.4045 84.7243 54.017 85.1408C52.6327 85.5606 51.6875 86.8359 51.6875 88.2812V139.763C49.7494 138.632 47.5262 137.937 45.125 137.937C37.8863 137.937 32 143.824 32 151.062C32 158.301 37.8863 164.187 45.125 164.187C52.3637 164.187 58.25 158.301 58.25 151.062V99.0549C62.8866 104.916 68.6866 109.758 73.9033 113.584C76.4666 115.462 77.9375 118.359 77.9375 121.531C77.9375 126.959 73.5218 131.375 68.0938 131.375C66.2801 131.375 64.8125 132.842 64.8125 134.656C64.8125 136.47 66.2801 137.937 68.0938 137.937C77.1397 137.937 84.5 130.577 84.5 121.531C84.5 116.324 81.9909 111.376 77.7837 108.291Z" fill="black" fill-opacity="0.06"/>
<path d="M139.818 111.812L93.4434 124.937C92.0335 125.341 91.0625 126.629 91.0625 128.093V172.575C89.1244 171.444 86.9012 170.749 84.5 170.749C77.2613 170.749 71.375 176.636 71.375 183.874C71.375 191.113 77.2613 196.999 84.5 196.999C91.7387 196.999 97.625 191.113 97.625 183.874C97.625 183.126 97.625 143.694 97.625 143.694L137.438 132.444V159.45C135.499 158.319 133.276 157.624 130.875 157.624C123.636 157.624 117.75 163.511 117.75 170.749C117.75 177.988 123.636 183.874 130.875 183.874C138.114 183.874 144 177.988 144 170.749C144 170.001 144 114.968 144 114.968C144 112.798 141.924 111.217 139.818 111.812Z" fill="black" fill-opacity="0.06"/>
</g>
<path d="M1685.71 155.059C1682.64 152.814 1679.5 150.047 1677.26 146.693L1675.31 143.756C1674.89 143.134 1674.12 142.857 1673.4 143.072C1672.68 143.29 1672.19 143.95 1672.19 144.698V171.354C1671.19 170.769 1670.04 170.409 1668.8 170.409C1665.05 170.409 1662 173.456 1662 177.204C1662 180.952 1665.05 184 1668.8 184C1672.54 184 1675.59 180.952 1675.59 177.204V150.277C1677.99 153.311 1681 155.819 1683.7 157.799C1685.02 158.772 1685.78 160.272 1685.78 161.914C1685.78 164.724 1683.5 167.011 1680.69 167.011C1679.75 167.011 1678.99 167.771 1678.99 168.71C1678.99 169.649 1679.75 170.409 1680.69 170.409C1685.37 170.409 1689.18 166.598 1689.18 161.914C1689.18 159.218 1687.88 156.656 1685.71 155.059Z" fill="black" fill-opacity="0.06"/>
<g opacity="0.8">
<path d="M1291.44 54.1263L1245.07 67.2513C1243.66 67.6552 1242.69 68.9432 1242.69 70.4077V114.889C1240.75 113.759 1238.53 113.064 1236.12 113.064C1228.89 113.064 1223 118.95 1223 126.189C1223 133.428 1228.89 139.314 1236.12 139.314C1243.36 139.314 1249.25 133.428 1249.25 126.189C1249.25 125.441 1249.25 86.0089 1249.25 86.0089L1289.06 74.7588V101.764C1287.12 100.634 1284.9 99.9389 1282.5 99.9389C1275.26 99.9389 1269.38 105.825 1269.38 113.064C1269.38 120.303 1275.26 126.189 1282.5 126.189C1289.74 126.189 1295.62 120.303 1295.62 113.064C1295.62 112.316 1295.62 57.2827 1295.62 57.2827C1295.62 55.1125 1293.55 53.5316 1291.44 54.1263Z" fill="black" fill-opacity="0.06"/>
</g>
<g clip-path="url(#clip5_1823_620)">
<g opacity="0.8">
<path d="M963.164 19.5901V6.88647C963.164 -10.6531 956.333 -27.1424 943.931 -39.5446C931.529 -51.947 915.04 -58.7773 897.5 -58.7773C879.961 -58.7773 863.471 -51.947 851.069 -39.5446C838.667 -27.1424 831.836 -10.6528 831.836 6.88647V19.5901C825.247 19.964 820 25.4417 820 32.1234V51.7933C820 58.7162 825.632 64.3489 832.555 64.3489H839.814C840.33 71.8389 846.585 77.7764 854.204 77.7764C862.159 77.7764 868.632 71.3036 868.632 63.3478V20.5695C868.632 12.6136 862.159 6.14084 854.204 6.14084C852.742 6.14084 851.332 6.36093 850.002 6.76659C850.067 -19.3697 871.349 -40.6132 897.5 -40.6132C923.651 -40.6132 944.933 -19.3697 944.998 6.76659C943.668 6.36093 942.257 6.14084 940.796 6.14084C932.841 6.14084 926.368 12.6136 926.368 20.5695V63.3475C926.368 71.3033 932.841 77.7761 940.796 77.7761C948.415 77.7761 954.67 71.8389 955.186 64.3486H962.445C969.368 64.3486 975 58.7162 975 51.793V32.1231C975 25.4417 969.753 19.964 963.164 19.5901Z" fill="black" fill-opacity="0.04"/>
<path fill-rule="evenodd" clip-rule="evenodd" d="M898.453 26.9062C900.391 26.9062 901.962 28.4774 901.962 30.4156V58.4906C901.962 60.4289 900.391 62 898.453 62C896.515 62 894.943 60.4289 894.943 58.4906V30.4156C894.943 28.4774 896.515 26.9062 898.453 26.9062Z" fill="black" fill-opacity="0.04"/>
<path fill-rule="evenodd" clip-rule="evenodd" d="M912.491 33.9248C914.429 33.9248 916 35.496 916 37.4342V51.4717C916 53.4099 914.429 54.9811 912.491 54.9811C910.553 54.9811 908.981 53.4099 908.981 51.4717V37.4342C908.981 35.496 910.553 33.9248 912.491 33.9248Z" fill="black" fill-opacity="0.04"/>
<path fill-rule="evenodd" clip-rule="evenodd" d="M884.416 33.9248C886.354 33.9248 887.925 35.496 887.925 37.4342V51.4717C887.925 53.4099 886.354 54.9811 884.416 54.9811C882.477 54.9811 880.906 53.4099 880.906 51.4717V37.4342C880.906 35.496 882.477 33.9248 884.416 33.9248Z" fill="black" fill-opacity="0.04"/>
</g>
</g>
<g clip-path="url(#clip6_1823_620)">
<g opacity="0.8">
<path d="M500.185 33.1285L507.294 37.8968C507.407 39.0244 507.573 40.1165 507.862 41.1968C508.631 44.0643 510.037 46.7188 511.958 48.9406C513.28 43.3449 515.803 37.364 519.31 31.5195C522.817 25.6749 526.924 20.5749 531.302 16.6443C527.138 15.718 522.771 16.1515 518.802 17.9939L511.112 14.2021L500.185 33.1285Z" fill="black" fill-opacity="0.06"/>
<path d="M523.468 33.8365C519.725 40.0599 517.101 46.7626 516.073 52.5111C516.407 52.7373 516.736 52.9439 517.085 53.1452C526.548 58.6088 538.666 55.3617 544.13 45.8985C549.613 36.43 546.36 24.2922 536.897 18.8286C536.723 18.728 536.549 18.6274 536.374 18.5267C536.36 18.5516 536.321 18.5621 536.306 18.587C531.644 22.3203 527.205 27.5935 523.468 33.8365Z" fill="black" fill-opacity="0.06"/>
<path d="M447.86 -12.8878C448.013 -12.3182 448.204 -11.7592 448.411 -11.225C450.384 -6.21745 454.462 -3.33163 456.832 -2.02992C456.523 -0.74727 456.521 0.579548 456.857 1.83654C457.326 3.58454 458.408 5.18905 460.025 6.27161L496.804 30.8765L507.472 12.3983L467.774 -7.15119C464.721 -8.64855 461.127 -7.91731 458.824 -5.59492C456.997 -6.59996 453.693 -8.87242 452.193 -12.7437C450.79 -16.4094 451.274 -20.7283 453.668 -25.6219C454.154 -26.6363 453.724 -27.8473 452.73 -28.3386C451.715 -28.8246 450.499 -28.4145 450.013 -27.4002C447.428 -22.1186 446.692 -17.248 447.86 -12.8878ZM484.811 9.29243L495.613 15.5128C496.59 16.0932 496.921 17.3305 496.361 18.3017C495.8 19.2729 494.543 19.6098 493.572 19.049L482.783 12.8038C482.291 12.5359 481.957 12.0778 481.826 11.5868C481.689 11.0762 481.749 10.5129 482.041 10.0345C482.602 9.06324 483.839 8.7317 484.811 9.29243Z" fill="black" fill-opacity="0.06"/>
</g>
</g>
<g clip-path="url(#clip7_1823_620)">
<path d="M1776.06 -27.0622C1774.9 -28.2293 1773 -28.2293 1771.84 -27.0622C1770.67 -25.8954 1770.67 -24.0032 1771.84 -22.8362C1789.39 -5.28125 1789.39 23.2821 1771.84 40.8367C1770.67 42.0035 1770.67 43.8957 1771.84 45.0627C1772.42 45.6462 1773.18 45.9381 1773.95 45.9381C1774.71 45.9381 1775.48 45.6462 1776.06 45.0627C1785.7 35.4303 1791 22.6231 1791 9.00055C1791 -4.62203 1785.7 -17.4294 1776.06 -27.0622Z" fill="black" fill-opacity="0.05"/>
<path d="M1694.98 9.0002C1694.98 -3.02584 1699.66 -14.3323 1708.16 -22.8364C1709.33 -24.0032 1709.33 -25.8954 1708.16 -27.0624C1707 -28.2292 1705.1 -28.2292 1703.94 -27.0624C1694.3 -17.4296 1689 -4.62218 1689 9.0002C1689 22.6228 1694.3 35.43 1703.94 45.0628C1704.52 45.6463 1705.29 45.9381 1706.05 45.9381C1706.82 45.9381 1707.58 45.6463 1708.16 45.0628C1709.33 43.896 1709.33 42.0038 1708.16 40.8368C1699.66 32.3327 1694.98 21.0264 1694.98 9.0002Z" fill="black" fill-opacity="0.05"/>
<path d="M1764.75 -15.7458C1763.58 -16.913 1761.69 -16.9127 1760.52 -15.7458C1759.35 -14.579 1759.35 -12.687 1760.52 -11.5198C1771.83 -0.204772 1771.83 18.2056 1760.52 29.5203C1759.35 30.6871 1759.35 32.5793 1760.52 33.7463C1761.1 34.33 1761.87 34.6217 1762.63 34.6217C1763.4 34.6217 1764.16 34.3298 1764.75 33.7463C1778.39 20.1016 1778.39 -2.10054 1764.75 -15.7458Z" fill="black" fill-opacity="0.05"/>
<path d="M1710.98 9.00053C1710.98 1.24913 1714 -6.03849 1719.48 -11.5198C1720.65 -12.6866 1720.65 -14.5786 1719.48 -15.7458C1718.31 -16.913 1716.42 -16.9127 1715.25 -15.7458C1708.64 -9.13575 1705 -0.347411 1705 9.00053C1705 18.3483 1708.64 27.1366 1715.25 33.7465C1715.84 34.33 1716.6 34.6217 1717.37 34.6217C1718.13 34.6217 1718.9 34.3298 1719.48 33.7463C1720.65 32.5793 1720.65 30.6873 1719.48 29.5201C1714 24.0392 1710.98 16.7517 1710.98 9.00053Z" fill="black" fill-opacity="0.05"/>
<path d="M1740 -9.99219C1729.53 -9.99219 1721.01 -1.4722 1721.01 8.99993C1721.01 19.4721 1729.53 27.9921 1740 27.9921C1750.47 27.9921 1758.99 19.4721 1758.99 8.99993C1758.99 -1.4722 1750.47 -9.99219 1740 -9.99219ZM1740 22.0155C1732.82 22.0155 1726.98 16.1766 1726.98 8.99993C1726.98 1.82328 1732.82 -4.01562 1740 -4.01562C1747.18 -4.01562 1753.02 1.82328 1753.02 8.99993C1753.02 16.1766 1747.18 22.0155 1740 22.0155Z" fill="black" fill-opacity="0.05"/>
</g>
<path d="M264.824 226.175C264.263 225.615 263.354 225.615 262.794 226.175C262.233 226.736 262.233 227.645 262.794 228.206C271.227 236.639 271.227 250.36 262.794 258.793C262.233 259.354 262.233 260.263 262.794 260.824C263.074 261.104 263.441 261.244 263.809 261.244C264.176 261.244 264.544 261.104 264.824 260.824C269.451 256.196 272 250.044 272 243.5C272 236.955 269.451 230.803 264.824 226.175Z" fill="black" fill-opacity="0.1"/>
<path d="M225.871 243.499C225.871 237.722 228.121 232.291 232.206 228.205C232.767 227.645 232.767 226.736 232.206 226.175C231.646 225.615 230.737 225.615 230.176 226.175C225.548 230.803 223 236.955 223 243.499C223 250.044 225.548 256.196 230.176 260.824C230.456 261.104 230.824 261.244 231.191 261.244C231.558 261.244 231.926 261.104 232.206 260.824C232.767 260.263 232.767 259.354 232.206 258.793C228.121 254.708 225.871 249.277 225.871 243.499Z" fill="black" fill-opacity="0.1"/>
<path d="M259.388 231.612C258.828 231.051 257.919 231.051 257.358 231.612C256.797 232.172 256.797 233.081 257.358 233.642C262.793 239.078 262.793 247.922 257.358 253.357C256.797 253.918 256.797 254.827 257.358 255.387C257.638 255.668 258.006 255.808 258.373 255.808C258.74 255.808 259.108 255.668 259.388 255.387C265.943 248.833 265.943 238.167 259.388 231.612Z" fill="black" fill-opacity="0.1"/>
<path d="M233.559 243.5C233.559 239.776 235.009 236.275 237.642 233.642C238.203 233.081 238.203 232.173 237.642 231.612C237.082 231.051 236.173 231.051 235.612 231.612C232.436 234.787 230.688 239.009 230.688 243.5C230.688 247.99 232.436 252.212 235.612 255.388C235.892 255.668 236.26 255.808 236.627 255.808C236.994 255.808 237.362 255.668 237.642 255.387C238.203 254.827 238.203 253.918 237.642 253.357C235.009 250.724 233.559 247.223 233.559 243.5Z" fill="black" fill-opacity="0.1"/>
<path d="M247.5 234.376C242.469 234.376 238.376 238.469 238.376 243.5C238.376 248.53 242.469 252.623 247.5 252.623C252.53 252.623 256.623 248.53 256.623 243.5C256.623 238.469 252.531 234.376 247.5 234.376ZM247.5 249.752C244.052 249.752 241.247 246.947 241.247 243.5C241.247 240.052 244.052 237.247 247.5 237.247C250.947 237.247 253.752 240.052 253.752 243.5C253.752 246.947 250.947 249.752 247.5 249.752Z" fill="black" fill-opacity="0.1"/>
<g opacity="0.8" clip-path="url(#clip8_1823_620)">
<path d="M560.901 268.198C557.411 268.198 554.571 271.044 554.571 274.543V352.421C554.891 360.841 566.938 360.81 567.255 352.421V274.543C567.255 271.045 564.405 268.198 560.901 268.198Z" fill="black" fill-opacity="0.06"/>
<path d="M519.482 268.198C515.978 268.198 513.128 271.044 513.128 274.543V352.421C513.448 360.829 525.519 360.822 525.836 352.421V274.543C525.836 271.045 522.986 268.198 519.482 268.198Z" fill="black" fill-opacity="0.06"/>
<path d="M540.191 291.396C536.701 291.396 533.861 294.243 533.861 297.741V329.223C534.181 337.643 546.228 337.612 546.545 329.223V297.741C546.545 294.243 543.695 291.396 540.191 291.396Z" fill="black" fill-opacity="0.06"/>
<path d="M581.61 302.996C578.12 302.996 575.28 305.842 575.28 309.341V317.624C575.6 326.044 587.647 326.013 587.964 317.624V309.341C587.964 305.842 585.114 302.996 581.61 302.996Z" fill="black" fill-opacity="0.06"/>
<path d="M457.354 302.996C453.851 302.996 451 305.842 451 309.34V317.624C451.32 326.019 463.368 326.037 463.684 317.624V309.34C463.684 305.842 460.845 302.996 457.354 302.996Z" fill="black" fill-opacity="0.06"/>
<path d="M478.063 279.798C474.56 279.798 471.709 282.644 471.709 286.142V340.823C472.029 349.218 484.077 349.236 484.393 340.823V286.142C484.393 282.644 481.554 279.798 478.063 279.798Z" fill="black" fill-opacity="0.06"/>
<path d="M498.773 245C495.269 245 492.419 247.846 492.419 251.344V375.62C492.739 384.015 504.786 384.033 505.103 375.62V251.344C505.103 247.846 502.263 245 498.773 245Z" fill="black" fill-opacity="0.06"/>
</g>
<g clip-path="url(#clip9_1823_620)">
<g opacity="0.04" clip-path="url(#clip10_1823_620)">
<path fill-rule="evenodd" clip-rule="evenodd" d="M1844.56 121.89C1846.62 121.619 1848.64 122.614 1849.67 124.41L1880.45 177.709C1881.48 179.506 1881.34 181.75 1880.07 183.396C1878.81 185.042 1876.68 185.764 1874.68 185.228L1848.7 178.268L1837.22 184.899C1834.77 186.316 1831.63 185.475 1830.21 183.022L1819.96 165.256C1818.54 162.803 1819.38 159.666 1821.83 158.25L1833.32 151.619L1840.28 125.647C1840.81 123.644 1842.51 122.161 1844.56 121.89Z" fill="black"/>
<path fill-rule="evenodd" clip-rule="evenodd" d="M1867.61 107.711C1868.34 104.975 1871.16 103.351 1873.89 104.084C1886.56 107.479 1897.95 115.716 1905.03 127.98C1912.11 140.244 1913.55 154.227 1910.16 166.898C1909.42 169.634 1906.61 171.257 1903.88 170.524C1901.14 169.791 1899.52 166.979 1900.25 164.243C1902.97 154.093 1901.82 142.922 1896.15 133.109C1890.48 123.296 1881.39 116.712 1871.24 113.992C1868.5 113.259 1866.88 110.447 1867.61 107.711ZM1862.3 127.527C1863.03 124.791 1865.85 123.167 1868.58 123.9C1872.27 124.887 1875.77 126.557 1878.89 128.858C1882.21 131.303 1885.08 134.456 1887.27 138.238C1891.52 145.595 1892.38 153.989 1890.34 161.588C1889.61 164.324 1886.8 165.948 1884.06 165.215C1881.32 164.482 1879.7 161.669 1880.43 158.933C1881.79 153.854 1881.22 148.274 1878.38 143.366C1876.92 140.831 1875.01 138.736 1872.81 137.114C1870.73 135.584 1868.39 134.468 1865.93 133.808C1863.19 133.075 1861.57 130.263 1862.3 127.527Z" fill="black"/>
</g>
</g>
<defs>
<clipPath id="clip0_1823_620">
<rect width="92" height="44" fill="white"/>
</clipPath>
<clipPath id="clip1_1823_620">
<rect width="124" height="28" fill="white" transform="translate(1789 227)"/>
</clipPath>
<clipPath id="clip2_1823_620">
<rect width="75" height="108" fill="white" transform="translate(1035 129)"/>
</clipPath>
<clipPath id="clip3_1823_620">
<rect width="58" height="74" fill="white" transform="translate(1397)"/>
</clipPath>
<clipPath id="clip4_1823_620">
<rect width="112" height="112" fill="white" transform="translate(32 85)"/>
</clipPath>
<clipPath id="clip5_1823_620">
<rect width="155" height="87" fill="white" transform="translate(820)"/>
</clipPath>
<clipPath id="clip6_1823_620">
<rect width="149" height="86" fill="white" transform="translate(423)"/>
</clipPath>
<clipPath id="clip7_1823_620">
<rect width="102" height="60" fill="white" transform="translate(1689)"/>
</clipPath>
<clipPath id="clip8_1823_620">
<rect width="137" height="75" fill="white" transform="translate(451 245)"/>
</clipPath>
<clipPath id="clip9_1823_620">
<rect width="125" height="140" fill="white" transform="translate(1795 81)"/>
</clipPath>
<clipPath id="clip10_1823_620">
<rect width="102.574" height="102.574" fill="white" transform="translate(1795 132.287) rotate(-30)"/>
</clipPath>
</defs>
</svg>
